<svg xmlns="http://www.w3.org/2000/svg" width="500" height="438" viewBox="0 0 500 438">
  <defs>
    <style>
      .cls-1 {
        fill: #a0b6f2;
      }

      .cls-2 {
        fill: #7aa0f4;
      }

      .cls-10, .cls-3 {
        fill: #fff;
      }

      .cls-4 {
        fill: #2b3977;
      }

      .cls-5 {
        fill: #ffcb64;
      }

      .cls-6 {
        fill: #e8f0fc;
      }

      .cls-7 {
        fill: none;
        stroke: #2b3977;
        stroke-miterlimit: 10;
        stroke-width: 0.75px;
      }

      .cls-8 {
        fill: #b7cbf9;
      }

      .cls-9 {
        fill: #698de8;
      }

      .cls-10 {
        font-size: 14.57px;
        font-family: Poppins-Bold, Poppins;
        font-weight: 700;
        letter-spacing: 0.2em;
      }

      .cls-11 {
        fill: #212e5e;
      }

      .cls-12 {
        fill: #efb652;
      }

      .cls-13 {
        fill: #e1e4f9;
      }
    </style>
  </defs>
  <g id="OBJECTS">
    <g>
      <path class="cls-1" d="M465,252.36A214.17,214.17,0,0,1,414.2,391.14q-3.39,4-7,7.84H92.77q-3.58-3.83-7-7.84A214.17,214.17,0,0,1,35,252.36c0-118.73,96.26-215,215-215S465,133.63,465,252.36Z"/>
      <path class="cls-2" d="M468.5,395.06a3.93,3.93,0,0,1-3.93,3.92H35.43a3.92,3.92,0,1,1,0-7.84H464.57A3.92,3.92,0,0,1,468.5,395.06Z"/>
    </g>
    <g>
      <g>
        <rect class="cls-3" x="356.4" y="55.16" width="1.74" height="69.98" transform="translate(128.95 -199.06) rotate(37.55)"/>
        <polygon class="cls-4" points="326.04 145.23 312.07 134.49 321.69 123.43 326.21 123.56 333.7 114.84 337.48 115.86 337.49 115.84 337.5 115.86 337.53 115.87 337.52 115.88 339.47 119.27 332.98 128.76 334.26 133.09 326.04 145.23"/>
        <polygon class="cls-2" points="332.98 128.76 326.21 123.56 333.7 114.84 337.48 115.86 337.49 115.84 337.5 115.86 337.53 115.87 337.52 115.88 339.47 119.27 332.98 128.76"/>
        <path class="cls-3" d="M199.74,268,306.2,129.53l1.42.45a43.15,43.15,0,0,1,24,18.42l.8,1.25L225.91,288.15Z"/>
        <path class="cls-5" d="M329.78,149.54,225.53,285.18l-22.81-17.53L307,132A40.92,40.92,0,0,1,329.78,149.54Z"/>
        <path class="cls-4" d="M299.11,189.45l-73.58,95.73-22.81-17.53,73.58-95.73A41,41,0,0,1,299.11,189.45Z"/>
        <path class="cls-6" d="M291.26,199.65l-65.73,85.53-22.81-17.53,65.74-85.53A41,41,0,0,1,291.26,199.65Z"/>
        <rect class="cls-2" x="183.27" y="280.79" width="51.85" height="4.04" transform="matrix(0.79, 0.61, -0.61, 0.79, 215.69, -68.91)"/>
        <rect class="cls-4" x="193.36" y="276.69" width="37.22" height="5.05" transform="translate(214.07 -71.34) rotate(37.55)"/>
        <polygon class="cls-6" points="207.97 284.41 207.94 284.39 196.07 275.26 180.46 295.57 181.82 306.64 169 323.31 174.67 327.67 174.7 327.69 180.37 332.05 193.19 315.38 204.23 313.84 219.84 293.54 207.97 284.41"/>
        <path class="cls-3" d="M232.19,238.42h0a1.77,1.77,0,0,1-.33-2.48l73.35-95.42a1.77,1.77,0,0,1,2.48-.33h0a1.77,1.77,0,0,1,.32,2.48L234.66,238.1A1.76,1.76,0,0,1,232.19,238.42Z"/>
        <path class="cls-3" d="M218.81,255.83h0a1.77,1.77,0,0,1-.33-2.48l8.2-10.67a1.78,1.78,0,0,1,2.48-.33h0a1.77,1.77,0,0,1,.32,2.48l-8.2,10.67A1.77,1.77,0,0,1,218.81,255.83Z"/>
        <rect class="cls-3" x="187.2" y="278.75" width="8.24" height="54.59" transform="translate(226.14 -53.2) rotate(37.55)"/>
        <rect class="cls-3" x="159.65" y="325.28" width="29.4" height="4.71" transform="translate(235.79 -38.38) rotate(37.55)"/>
        <g>
          <line class="cls-7" x1="219.86" y1="271.43" x2="231.75" y2="280.57"/>
          <line class="cls-7" x1="227.09" y1="262.03" x2="238.97" y2="271.17"/>
          <line class="cls-7" x1="234.31" y1="252.63" x2="246.2" y2="261.76"/>
          <line class="cls-7" x1="241.54" y1="243.22" x2="253.43" y2="252.36"/>
          <line class="cls-7" x1="248.77" y1="233.82" x2="260.65" y2="242.96"/>
          <line class="cls-7" x1="256" y1="224.42" x2="267.88" y2="233.56"/>
          <line class="cls-7" x1="263.22" y1="215.02" x2="275.11" y2="224.15"/>
          <line class="cls-7" x1="270.45" y1="205.61" x2="282.34" y2="214.75"/>
          <line class="cls-7" x1="277.68" y1="196.21" x2="289.56" y2="205.35"/>
          <line class="cls-7" x1="284.91" y1="186.81" x2="296.79" y2="195.95"/>
          <line class="cls-7" x1="292.13" y1="177.41" x2="304.02" y2="186.54"/>
          <line class="cls-7" x1="299.36" y1="168" x2="311.25" y2="177.14"/>
          <line class="cls-7" x1="306.59" y1="158.6" x2="318.47" y2="167.74"/>
          <line class="cls-7" x1="313.81" y1="149.2" x2="325.7" y2="158.34"/>
        </g>
      </g>
      <g>
        <rect class="cls-4" x="153.97" y="171.17" width="91.15" height="39.81" rx="8.9"/>
        <rect class="cls-6" x="169.26" y="210.98" width="60.58" height="37.66"/>
        <path class="cls-6" d="M253.49,276.33v102a12.83,12.83,0,0,1-12.82,12.83H158.42a12.82,12.82,0,0,1-12.81-12.83v-102a27.7,27.7,0,0,1,27.69-27.69h52.51a25.08,25.08,0,0,1,3.59.24A27.68,27.68,0,0,1,253.49,276.33Z"/>
        <polygon class="cls-8" points="229.84 210.98 169.26 210.98 229.84 233.35 229.84 210.98"/>
        <path class="cls-3" d="M229.4,248.88v84.28a37.21,37.21,0,1,1-74.42,0V255.57a27.53,27.53,0,0,1,18.32-6.93h52.51A25.08,25.08,0,0,1,229.4,248.88Z"/>
        <rect class="cls-2" x="145.61" y="277.33" width="107.88" height="81.34"/>
        <path class="cls-9" d="M253.49,277.33v81.35H145.61v-8.47C249.37,368.92,253.49,277.33,253.49,277.33Z"/>
        <text class="cls-10" transform="translate(152.41 313.83) scale(1 0.99)">COVID-19<tspan x="0" y="17.66">VACCINE</tspan></text>
        <g>
          <path class="cls-11" d="M164.82,206.81h0a2.27,2.27,0,0,1-2.27-2.27V178.15a2.28,2.28,0,0,1,2.27-2.28h0a2.28,2.28,0,0,1,2.28,2.28v26.39A2.28,2.28,0,0,1,164.82,206.81Z"/>
          <path class="cls-11" d="M178.71,206.81h0a2.27,2.27,0,0,1-2.27-2.27V178.15a2.28,2.28,0,0,1,2.27-2.28h0a2.27,2.27,0,0,1,2.27,2.28v26.39A2.27,2.27,0,0,1,178.71,206.81Z"/>
          <path class="cls-11" d="M192.6,206.81h0a2.27,2.27,0,0,1-2.27-2.27V178.15a2.28,2.28,0,0,1,2.27-2.28h0a2.27,2.27,0,0,1,2.27,2.28v26.39A2.27,2.27,0,0,1,192.6,206.81Z"/>
          <path class="cls-11" d="M206.49,206.81h0a2.27,2.27,0,0,1-2.27-2.27V178.15a2.28,2.28,0,0,1,2.27-2.28h0a2.27,2.27,0,0,1,2.27,2.28v26.39A2.27,2.27,0,0,1,206.49,206.81Z"/>
          <path class="cls-11" d="M220.38,206.81h0a2.27,2.27,0,0,1-2.27-2.27V178.15a2.28,2.28,0,0,1,2.27-2.28h0a2.27,2.27,0,0,1,2.27,2.28v26.39A2.27,2.27,0,0,1,220.38,206.81Z"/>
          <path class="cls-11" d="M234.27,206.81h0a2.27,2.27,0,0,1-2.27-2.27V178.15a2.28,2.28,0,0,1,2.27-2.28h0a2.28,2.28,0,0,1,2.27,2.28v26.39A2.27,2.27,0,0,1,234.27,206.81Z"/>
        </g>
      </g>
      <g>
        <rect class="cls-4" x="71.29" y="215.02" width="72.98" height="31.87" rx="7.12"/>
        <rect class="cls-6" x="83.53" y="246.89" width="48.5" height="30.15"/>
        <path class="cls-6" d="M151,299.21v81.65a10.27,10.27,0,0,1-10.26,10.28H74.85a10.27,10.27,0,0,1-10.26-10.28V299.21A22.17,22.17,0,0,1,86.76,277h42.05a21.22,21.22,0,0,1,2.88.19,22.18,22.18,0,0,1,19.28,22Z"/>
        <polygon class="cls-8" points="132.03 246.89 83.53 246.89 132.03 264.8 132.03 246.89"/>
        <path class="cls-3" d="M131.69,277.23v67.49a29.8,29.8,0,0,1-59.6,0V282.59A22,22,0,0,1,86.76,277h42.05A21.22,21.22,0,0,1,131.69,277.23Z"/>
        <path class="cls-5" d="M151,299.21v81.65a10.27,10.27,0,0,1-10.26,10.28H74.85a10.27,10.27,0,0,1-10.26-10.28V299.21a21.93,21.93,0,0,1,3-11.06H148A21.93,21.93,0,0,1,151,299.21Z"/>
        <path class="cls-12" d="M151,300v80.84a10.27,10.27,0,0,1-10.26,10.28H74.85a10.27,10.27,0,0,1-10.26-10.28v-22.5C147.67,373.35,151,300,151,300Z"/>
        <g>
          <path class="cls-11" d="M80,243.55h0a1.81,1.81,0,0,1-1.82-1.82V220.6A1.81,1.81,0,0,1,80,218.78h0a1.82,1.82,0,0,1,1.82,1.82v21.13A1.82,1.82,0,0,1,80,243.55Z"/>
          <path class="cls-11" d="M91.1,243.55h0a1.82,1.82,0,0,1-1.82-1.82V220.6a1.82,1.82,0,0,1,1.82-1.82h0a1.82,1.82,0,0,1,1.82,1.82v21.13A1.82,1.82,0,0,1,91.1,243.55Z"/>
          <path class="cls-11" d="M102.22,243.55h0a1.82,1.82,0,0,1-1.82-1.82V220.6a1.82,1.82,0,0,1,1.82-1.82h0A1.81,1.81,0,0,1,104,220.6v21.13A1.81,1.81,0,0,1,102.22,243.55Z"/>
          <path class="cls-11" d="M113.34,243.55h0a1.82,1.82,0,0,1-1.82-1.82V220.6a1.82,1.82,0,0,1,1.82-1.82h0a1.81,1.81,0,0,1,1.82,1.82v21.13A1.81,1.81,0,0,1,113.34,243.55Z"/>
          <path class="cls-11" d="M124.46,243.55h0a1.82,1.82,0,0,1-1.82-1.82V220.6a1.82,1.82,0,0,1,1.82-1.82h0a1.81,1.81,0,0,1,1.82,1.82v21.13A1.81,1.81,0,0,1,124.46,243.55Z"/>
          <path class="cls-11" d="M135.58,243.55h0a1.82,1.82,0,0,1-1.82-1.82V220.6a1.82,1.82,0,0,1,1.82-1.82h0a1.81,1.81,0,0,1,1.82,1.82v21.13A1.81,1.81,0,0,1,135.58,243.55Z"/>
        </g>
        <g>
          <rect class="cls-3" x="102.62" y="312.69" width="10.32" height="42.8" rx="2.35"/>
          <rect class="cls-3" x="102.62" y="312.69" width="10.32" height="42.8" rx="2.35" transform="translate(441.87 226.31) rotate(90)"/>
        </g>
        <rect class="cls-3" x="74.41" y="294.19" width="15.92" height="3.09"/>
        <rect class="cls-3" x="74.41" y="300.02" width="36.59" height="2.48"/>
        <path class="cls-5" d="M122.64,203.89H91.1A11.12,11.12,0,0,0,80,215h53.78A11.12,11.12,0,0,0,122.64,203.89Z"/>
      </g>
      <g>
        <polygon class="cls-11" points="402.22 203.03 402.22 222.1 273.91 222.1 273.91 203.03 282.59 196.52 392.69 196.52 402.22 203.03"/>
        <polygon class="cls-4" points="402.22 203.03 273.91 203.03 282.59 196.52 392.69 196.52 402.22 203.03"/>
        <rect class="cls-6" x="280.42" y="222.1" width="116.61" height="14.91"/>
        <path class="cls-3" d="M410.25,251V382.15a9,9,0,0,1-9,9H276.18a9,9,0,0,1-9-9V251a14.62,14.62,0,0,1,14.62-14.63h113.8a14.61,14.61,0,0,1,4.15.6h0A14.64,14.64,0,0,1,410.25,251Z"/>
        <path class="cls-6" d="M410.25,251V382.15a9,9,0,0,1-9,9H276.18a9,9,0,0,1-9-9V324c13.67,13.23,32.06,22.58,56.71,22.58,84.38,0,75.86-109.55,75.86-109.55h0A14.64,14.64,0,0,1,410.25,251Z"/>
        <rect class="cls-8" x="280.42" y="222.1" width="116.61" height="5.64"/>
        <rect class="cls-5" x="267.2" y="271.38" width="143.05" height="79.19"/>
        <g>
          <rect class="cls-3" x="332.76" y="286.26" width="11.92" height="49.42" rx="2.71"/>
          <rect class="cls-3" x="332.76" y="286.26" width="11.92" height="49.42" rx="2.71" transform="translate(649.69 -27.75) rotate(90)"/>
        </g>
        <path class="cls-12" d="M410.25,271.38v79.19h-143C332.89,346.24,410.25,339.19,410.25,271.38Z"/>
        <path class="cls-3" d="M280.63,356.05h0a4.12,4.12,0,0,1-4.12-4.11V254.4a4.12,4.12,0,0,1,4.12-4.12h0a4.11,4.11,0,0,1,4.12,4.12v97.54A4.11,4.11,0,0,1,280.63,356.05Z"/>
        <path class="cls-3" d="M280.63,377.44h0a4.12,4.12,0,0,1-4.12-4.12v-4.19a4.13,4.13,0,0,1,4.12-4.12h0a4.12,4.12,0,0,1,4.12,4.12v4.19A4.11,4.11,0,0,1,280.63,377.44Z"/>
      </g>
      <g>
        <rect class="cls-3" x="227.51" y="356.71" width="1.19" height="47.58" transform="translate(-152.4 608.6) rotate(-90)"/>
        <polygon class="cls-4" points="270.74 374.51 270.74 386.49 260.79 385.89 258.99 383.4 251.18 382.97 250.16 380.51 250.15 380.51 250.16 380.5 250.15 380.49 250.16 380.49 251.18 378.03 258.99 377.6 260.79 375.11 270.74 374.51"/>
        <polygon class="cls-2" points="258.99 377.6 258.99 383.4 251.18 382.97 250.16 380.51 250.15 380.51 250.16 380.5 250.15 380.49 250.16 380.49 251.18 378.03 258.99 377.6"/>
        <path class="cls-3" d="M389.29,391.71H270.5l-.35-.95a29.31,29.31,0,0,1,0-20.55l.35-.95H389.29Z"/>
        <path class="cls-5" d="M271.51,370.71H387.84v19.56H271.51A27.9,27.9,0,0,1,271.51,370.71Z"/>
        <path class="cls-4" d="M305.74,370.71h82.1v19.56h-82.1A27.9,27.9,0,0,1,305.74,370.71Z"/>
        <path class="cls-6" d="M314.49,370.71h73.35v19.56H314.49A27.9,27.9,0,0,1,314.49,370.71Z"/>
        <rect class="cls-2" x="375.7" y="379.11" width="35.26" height="2.75" transform="translate(12.84 773.82) rotate(-90)"/>
        <rect class="cls-4" x="377.59" y="378.77" width="25.31" height="3.43" transform="translate(9.76 770.73) rotate(-90)"/>
        <polygon class="cls-6" points="394.7 380.49 394.7 380.51 394.7 390.7 412.12 390.7 417.52 385.38 431.82 385.38 431.82 380.51 431.82 380.49 431.82 375.63 417.52 375.63 412.12 370.31 394.7 370.31 394.7 380.49"/>
        <path class="cls-3" d="M359.87,386.49h0a1.19,1.19,0,0,1-1.2,1.2H276.83a1.2,1.2,0,0,1-1.2-1.2h0a1.2,1.2,0,0,1,1.2-1.2h81.84A1.2,1.2,0,0,1,359.87,386.49Z"/>
        <path class="cls-3" d="M374.8,386.49h0a1.2,1.2,0,0,1-1.2,1.2h-9.15a1.2,1.2,0,0,1-1.2-1.2h0a1.2,1.2,0,0,1,1.2-1.2h9.15A1.2,1.2,0,0,1,374.8,386.49Z"/>
        <rect class="cls-3" x="410.46" y="361.94" width="5.6" height="37.12" transform="translate(32.76 793.76) rotate(-90)"/>
        <rect class="cls-3" x="421.94" y="379.1" width="19.99" height="3.2" transform="translate(51.24 812.64) rotate(-90)"/>
        <g>
          <line class="cls-7" x1="382.78" y1="379.46" x2="382.78" y2="369.26"/>
          <line class="cls-7" x1="374.72" y1="379.46" x2="374.72" y2="369.26"/>
          <line class="cls-7" x1="366.65" y1="379.46" x2="366.65" y2="369.26"/>
          <line class="cls-7" x1="358.59" y1="379.46" x2="358.59" y2="369.26"/>
          <line class="cls-7" x1="350.52" y1="379.46" x2="350.52" y2="369.26"/>
          <line class="cls-7" x1="342.46" y1="379.46" x2="342.46" y2="369.26"/>
          <line class="cls-7" x1="334.39" y1="379.46" x2="334.39" y2="369.26"/>
          <line class="cls-7" x1="326.33" y1="379.46" x2="326.33" y2="369.26"/>
          <line class="cls-7" x1="318.27" y1="379.46" x2="318.27" y2="369.26"/>
          <line class="cls-7" x1="310.2" y1="379.46" x2="310.2" y2="369.26"/>
          <line class="cls-7" x1="302.14" y1="379.46" x2="302.14" y2="369.26"/>
          <line class="cls-7" x1="294.07" y1="379.46" x2="294.07" y2="369.26"/>
          <line class="cls-7" x1="286.01" y1="379.46" x2="286.01" y2="369.26"/>
          <line class="cls-7" x1="277.95" y1="379.46" x2="277.95" y2="369.26"/>
        </g>
      </g>
    </g>
    <path class="cls-13" d="M64.09,81A59.06,59.06,0,0,0,98,64a59.06,59.06,0,0,0,17-33.94S117.12,49.18,132,64s33.94,17,33.94,17S145.41,84.54,132,98c-14.85,14.85-17,33.94-17,33.94S112.17,112.11,98,98C84.59,84.54,64.09,81,64.09,81Z"/>
    <path class="cls-13" d="M411.54,175.46A40.63,40.63,0,0,0,446,141a40.63,40.63,0,0,0,34.46,34.46s-13.88,2.39-23,11.48a42.5,42.5,0,0,0-11.49,23s-1.91-13.4-11.49-23C425.42,177.85,411.54,175.46,411.54,175.46Z"/>
    <path class="cls-13" d="M8,256a31.33,31.33,0,0,0,18-9,31.33,31.33,0,0,0,9-18,33.34,33.34,0,0,0,9,18,33.31,33.31,0,0,0,18,9s-10.88,1.87-18,9a33.31,33.31,0,0,0-9,18s-1.5-10.5-9-18C18.88,257.87,8,256,8,256Z"/>
    <path class="cls-13" d="M215,115a31.82,31.82,0,0,0,27-27,31.82,31.82,0,0,0,27,27s-10.88,1.87-18,9a33.31,33.31,0,0,0-9,18s-1.5-10.5-9-18C225.88,116.87,215,115,215,115Z"/>
  </g>
</svg>
