<svg xmlns="http://www.w3.org/2000/svg" xmlns:xlink="http://www.w3.org/1999/xlink" width="1128.08" height="770.67" viewBox="0 0 1128.08 770.67">
  <defs>
    <style>
      .cls-1 {
        isolation: isolate;
      }

      .cls-12, .cls-2 {
        fill: #bcbec0;
      }

      .cls-3 {
        fill: #e6e7e8;
      }

      .cls-4 {
        fill: #808285;
      }

      .cls-5, .cls-9 {
        fill: #d1d3d4;
      }

      .cls-12, .cls-14, .cls-5 {
        mix-blend-mode: multiply;
      }

      .cls-6 {
        fill: #414042;
      }

      .cls-7 {
        fill: url(#linear-gradient);
      }

      .cls-8 {
        fill: #a7a9ac;
      }

      .cls-10 {
        fill: #f1f2f2;
      }

      .cls-11 {
        fill: #231f20;
      }

      .cls-13 {
        fill: #52ccf7;
      }

      .cls-15 {
        fill: #58595b;
      }

      .cls-16 {
        fill: #8dc63f;
      }

      .cls-17 {
        fill: #ef4136;
      }

      .cls-18 {
        fill: #41cff6;
      }

      .cls-19 {
        fill: #f7931e;
      }

      .cls-20 {
        fill: #b3b3b3;
      }
    </style>
    <linearGradient id="linear-gradient" x1="403.35" y1="212.64" x2="403.35" y2="379.79" gradientTransform="matrix(-1, 0, 0, 1, 711.85, 0)" gradientUnits="userSpaceOnUse">
      <stop offset="0" stop-color="#f1f2f2"/>
      <stop offset="1" stop-color="#e6e7e8"/>
    </linearGradient>
  </defs>
  <g class="cls-1">
    <g id="Layer_1" data-name="Layer 1">
      <g>
        <g>
          <polygon class="cls-2" points="89.1 269.26 89.1 526.67 96.63 531.02 96.63 549.95 281.22 656.21 281.22 379.78 89.1 269.26"/>
          <polygon class="cls-3" points="281.22 379.79 529.29 237.26 529.29 494.68 281.22 637.21 281.22 379.79"/>
          <g>
            <path class="cls-4" d="M300.32,394.71v22.82a9.25,9.25,0,0,0,13.9,7.94l113.52-65.7a13,13,0,0,0,5.41-5.41,14.41,14.41,0,0,0,2-7.22V316.57l-44.76,26Z"/>
            <path class="cls-5" d="M399.07,337.51l34.08,16.85a14.41,14.41,0,0,0,2-7.22V316.57Z"/>
          </g>
          <polygon class="cls-6" points="281.22 381.29 453.26 281.94 453.26 331.42 281.22 430.76 281.22 381.29"/>
          <polygon class="cls-7" points="453.26 280.45 335.79 212.64 163.75 311.97 281.22 379.79 453.26 280.45"/>
          <g>
            <polygon class="cls-8" points="281.22 367.54 281.22 379.81 89.1 269.26 89.1 256.99 281.22 367.54"/>
            <polygon class="cls-9" points="281.22 367.54 529.29 224.99 529.29 237.26 281.22 379.81 281.22 367.54"/>
            <polygon class="cls-10" points="529.29 224.99 337.17 114.45 89.1 256.99 281.22 367.54 529.29 224.99"/>
          </g>
          <polygon class="cls-3" points="281.22 637.18 529.29 494.68 529.29 513.72 281.22 656.21 281.22 637.18"/>
          <polygon class="cls-11" points="281.22 379.79 453.26 280.5 453.26 281.97 281.22 381.29 281.22 379.79"/>
          <polygon class="cls-12" points="269.65 373.13 89.1 269.26 89.1 270.69 269.65 374.61 269.65 373.13"/>
          <polygon class="cls-11" points="281.22 430.76 453.26 331.42 453.26 332.89 281.22 432.2 281.22 430.76"/>
          <polygon class="cls-11" points="281.22 430.76 269.65 424.25 269.65 425.68 281.22 432.2 281.22 430.76"/>
          <polygon class="cls-11" points="281.22 382.51 269.65 375.95 269.65 377.39 281.22 383.99 281.22 382.51"/>
          <path class="cls-11" d="M351.22,351l32-18.68c1.7-1,3.08-.2,3.09,1.76l0,13.73a6.75,6.75,0,0,1-3.07,5.27l-32,18.68c-1.7,1-3.08.2-3.09-1.72l0-13.73a6.72,6.72,0,0,1,3.06-5.31Z"/>
          <path class="cls-13" d="M353,356.71v7.7c0,1.07.77,1.51,1.76,1l26-15a3.56,3.56,0,0,0,1.2-1.29,3.51,3.51,0,0,0,.52-1.68l-.05-7.7c0-1.12-.77-1.55-1.72-1l-23.22,13.38-2.75,1.59A3.84,3.84,0,0,0,353,356.71Z"/>
          <g>
            <g class="cls-14">
              <path class="cls-11" d="M386.64,362.9a2.31,2.31,0,0,0,1.17-.34l5.93-3.43a4.39,4.39,0,0,0,2-3.56,1.82,1.82,0,0,0-2.9-1.67l-5.94,3.43a4.38,4.38,0,0,0-2.07,3.55,2,2,0,0,0,.91,1.8A1.69,1.69,0,0,0,386.64,362.9Zm7.39-7.62a1.57,1.57,0,0,1,0,.29,2.71,2.71,0,0,1-1.18,2.07L387,361.07a.52.52,0,0,1-.32.11,1.44,1.44,0,0,1,0-.31,2.69,2.69,0,0,1,1.21-2.05l5.94-3.43A.65.65,0,0,1,394,355.28Z"/>
            </g>
            <g class="cls-14">
              <path class="cls-11" d="M373,370.52a2.37,2.37,0,0,0,1.18-.34l5.93-3.43a4.41,4.41,0,0,0,2-3.56,1.83,1.83,0,0,0-2.91-1.67L373.34,365a4.43,4.43,0,0,0-2.07,3.55,2,2,0,0,0,.92,1.8A1.68,1.68,0,0,0,373,370.52Zm7.4-7.62a1.72,1.72,0,0,1,0,.29,2.74,2.74,0,0,1-1.18,2.07l-5.93,3.43c-.18.1-.26.12-.33.11a1.44,1.44,0,0,1,0-.31,2.72,2.72,0,0,1,1.21-2.05l5.94-3.43A.71.71,0,0,1,380.44,362.9Z"/>
            </g>
            <g class="cls-14">
              <path class="cls-11" d="M359.45,378.14a2.31,2.31,0,0,0,1.17-.34l5.94-3.43a4.38,4.38,0,0,0,2-3.56,2,2,0,0,0-.9-1.79,1.94,1.94,0,0,0-2,.13l-5.94,3.42a4.42,4.42,0,0,0-2.07,3.55,2,2,0,0,0,.91,1.79A1.73,1.73,0,0,0,359.45,378.14Zm7.39-7.62a1.72,1.72,0,0,1,0,.29,2.67,2.67,0,0,1-1.17,2.07l-5.94,3.43a.62.62,0,0,1-.32.11,1.44,1.44,0,0,1,0-.31,2.7,2.7,0,0,1,1.21-2.05l5.94-3.43A1,1,0,0,1,366.84,370.52Z"/>
            </g>
            <g class="cls-14">
              <path class="cls-11" d="M345.86,385.76a2.33,2.33,0,0,0,1.17-.34L353,382a4.39,4.39,0,0,0,2-3.57,1.83,1.83,0,0,0-2.91-1.66l-5.94,3.43a4.4,4.4,0,0,0-2.06,3.54,2,2,0,0,0,.91,1.81A1.8,1.8,0,0,0,345.86,385.76Zm7.39-7.62a1.44,1.44,0,0,1,0,.29,2.71,2.71,0,0,1-1.18,2.07l-5.93,3.43c-.2.11-.3.12-.32.11a1.44,1.44,0,0,1,0-.31,2.72,2.72,0,0,1,1.2-2.05l5.94-3.43A.71.71,0,0,1,353.25,378.14Z"/>
            </g>
          </g>
          <g>
            <path class="cls-15" d="M387.37,358.08l5.93-3.43c.91-.52,1.62-.12,1.62.92a3.55,3.55,0,0,1-1.61,2.82l-5.93,3.43c-.91.52-1.65.1-1.65-.94a3.55,3.55,0,0,1,1.64-2.8Z"/>
            <path class="cls-15" d="M373.77,365.7l5.94-3.43c.91-.52,1.61-.12,1.62.92a3.57,3.57,0,0,1-1.61,2.82l-5.94,3.43c-.9.52-1.64.1-1.65-.94a3.57,3.57,0,0,1,1.64-2.8Z"/>
            <path class="cls-15" d="M360.18,373.32l5.94-3.43c.9-.52,1.61-.12,1.61.92a3.58,3.58,0,0,1-1.6,2.82l-5.94,3.43c-.91.52-1.65.1-1.65-.94a3.55,3.55,0,0,1,1.64-2.8Z"/>
            <path class="cls-15" d="M346.59,380.94l5.93-3.43c.91-.52,1.62-.12,1.62.92a3.57,3.57,0,0,1-1.61,2.82l-5.93,3.43c-.91.52-1.65.1-1.65-.94a3.5,3.5,0,0,1,1.64-2.8Z"/>
          </g>
          <g>
            <polygon class="cls-12" points="281.22 637.12 269.67 630.41 269.67 631.85 281.22 638.6 281.22 637.12"/>
            <polygon class="cls-12" points="268.62 631.21 269.65 631.85 269.65 374.61 268.62 374.02 268.62 631.21"/>
            <polygon class="cls-12" points="281.22 637.16 529.29 494.68 529.29 496.15 281.22 638.6 281.22 637.16"/>
          </g>
          <polygon class="cls-12" points="96.63 531.02 268.62 629.98 268.62 631.24 96.63 531.78 96.63 531.02"/>
          <polygon class="cls-11" points="281.22 379.79 269.65 373.13 269.65 424.25 281.22 430.76 281.22 379.79"/>
          <g>
            <polygon class="cls-11" points="329.98 367.39 340.6 361.26 340.61 364.49 329.99 370.62 329.98 367.39 329.98 367.39"/>
            <polygon class="cls-11" points="315.49 375.75 326.11 369.62 326.12 372.85 315.5 378.98 315.49 375.75 315.49 375.75"/>
            <polygon class="cls-11" points="301 384.12 311.62 377.99 311.63 381.22 301.01 387.35 301 384.12 301 384.12"/>
            <polygon class="cls-11" points="286.51 392.49 297.12 386.36 297.13 389.59 286.51 395.72 286.51 392.49 286.51 392.49"/>
          </g>
          <g>
            <polygon class="cls-11" points="329.98 375.02 340.6 368.89 340.61 372.12 329.99 378.25 329.98 375.02 329.98 375.02"/>
            <polygon class="cls-11" points="315.49 383.38 326.11 377.25 326.12 380.48 315.5 386.61 315.49 383.38 315.49 383.38"/>
            <polygon class="cls-11" points="301 391.75 311.62 385.62 311.63 388.85 301.01 394.98 301 391.75 301 391.75"/>
            <polygon class="cls-11" points="286.51 400.12 297.12 393.99 297.13 397.22 286.51 403.35 286.51 400.12 286.51 400.12"/>
          </g>
          <g>
            <g>
              <path class="cls-11" d="M435.23,307.82l.52-.3c1.1-.64,2-.12,2,1.14a4.46,4.46,0,0,1-2,3.47l-.52.3c-1.13.65-2,.11-2-1.15a4.39,4.39,0,0,1,2-3.46Z"/>
              <path class="cls-11" d="M427.26,312.42l.55-.32c1.1-.63,2-.1,2,1.16a4.43,4.43,0,0,1-2,3.45l-.55.32c-1.1.63-2,.1-2-1.17a4.4,4.4,0,0,1,2-3.44Z"/>
              <path class="cls-11" d="M419.33,317l.52-.3c1.1-.64,2-.12,2,1.14a4.46,4.46,0,0,1-2,3.47l-.52.3c-1.1.63-2,.11-2-1.15a4.44,4.44,0,0,1,2-3.46Z"/>
              <path class="cls-11" d="M411.39,321.58l.52-.3c1.1-.63,2-.12,2,1.15a4.44,4.44,0,0,1-2,3.46l-.53.3c-1.09.63-2,.11-2-1.15a4.45,4.45,0,0,1,2-3.46Z"/>
              <path class="cls-16" d="M402.33,326.81l.52-.3c1.13-.65,2-.11,2,1.15a4.36,4.36,0,0,1-2,3.46l-.52.3c-1.1.64-2,.12-2-1.15a4.45,4.45,0,0,1,2-3.46Z"/>
            </g>
            <g>
              <path class="cls-11" d="M435.23,316.88l.52-.3c1.1-.64,2-.12,2,1.14a4.42,4.42,0,0,1-2,3.46l-.52.31c-1.13.65-2,.11-2-1.15a4.39,4.39,0,0,1,2-3.46Z"/>
              <path class="cls-11" d="M427.26,321.48l.55-.32c1.1-.64,2-.1,2,1.16a4.43,4.43,0,0,1-2,3.45l-.55.31c-1.1.64-2,.1-2-1.16a4.4,4.4,0,0,1,2-3.44Z"/>
              <path class="cls-11" d="M419.33,326.06l.52-.3c1.1-.64,2-.12,2,1.14a4.42,4.42,0,0,1-2,3.46l-.52.3c-1.1.64-2,.12-2-1.14a4.44,4.44,0,0,1,2-3.46Z"/>
              <path class="cls-11" d="M411.39,330.64l.52-.3c1.1-.64,2-.12,2,1.14a4.45,4.45,0,0,1-2,3.47l-.53.3c-1.09.63-2,.11-2-1.15a4.44,4.44,0,0,1,2-3.46Z"/>
              <path class="cls-17" d="M402.33,335.87l.52-.3c1.13-.65,2-.12,2,1.15a4.36,4.36,0,0,1-2,3.46l-.52.3c-1.1.63-2,.11-2-1.15a4.45,4.45,0,0,1,2-3.46Z"/>
            </g>
          </g>
        </g>
        <g>
          <path d="M655.73,125.21l-6.84-11.76h-2.84v11.76h-4.42V98.84h9.15a10.74,10.74,0,0,1,3.69.59,6.65,6.65,0,0,1,2.58,1.66,7.15,7.15,0,0,1,1.47,2.42,8.93,8.93,0,0,1,.49,3,6.75,6.75,0,0,1-1.52,4.52,6.86,6.86,0,0,1-4.16,2.26l7.6,11.93Zm-9.68-22.63v7.6h4.08a5.16,5.16,0,0,0,3.49-1,3.49,3.49,0,0,0,1.13-2.77,3.58,3.58,0,0,0-1.14-2.79,5.08,5.08,0,0,0-3.48-1Z"/>
          <path d="M680.51,102.78H670.27v7.3h9.06V114h-9.06v7.27h10.24v4H665.79V98.84h14.72Z"/>
          <path d="M701.46,102.78H691v7.28h9.06V114H691v11.23h-4.47V98.84h14.92Z"/>
          <path d="M720.71,125.21l-6.85-11.76H711v11.76H706.6V98.84h9.15a10.74,10.74,0,0,1,3.69.59,6.58,6.58,0,0,1,2.58,1.66,7.15,7.15,0,0,1,1.47,2.42,8.93,8.93,0,0,1,.49,3,6.75,6.75,0,0,1-1.52,4.52,6.86,6.86,0,0,1-4.16,2.26l7.6,11.93ZM711,102.58v7.6h4.08a5.16,5.16,0,0,0,3.49-1,3.5,3.5,0,0,0,1.14-2.77,3.59,3.59,0,0,0-1.15-2.79,5.06,5.06,0,0,0-3.48-1Z"/>
          <path d="M730.76,125.21V98.84h4.42v26.37Z"/>
          <path d="M754,125.56a13.86,13.86,0,0,1-6.7-1.61,11.74,11.74,0,0,1-4.7-4.7,14.44,14.44,0,0,1-1.72-7.17,15.29,15.29,0,0,1,1-5.67,12.26,12.26,0,0,1,2.79-4.31,12.67,12.67,0,0,1,4.23-2.68,14.52,14.52,0,0,1,5.28-1,14.14,14.14,0,0,1,6.73,1.6,11.61,11.61,0,0,1,4.69,4.58l-3.9,2.09a7.69,7.69,0,0,0-3.09-3.24,9,9,0,0,0-4.43-1.09,8.54,8.54,0,0,0-6.37,2.54,9.64,9.64,0,0,0-2.49,7,9.76,9.76,0,0,0,2.49,7.05,8.65,8.65,0,0,0,6.53,2.6,8.5,8.5,0,0,0,5.37-1.71,7.39,7.39,0,0,0,2.68-5h-8V111.3h12.28v13.91h-3.53v-4.29a9,9,0,0,1-3.63,3.44A11.71,11.71,0,0,1,754,125.56Z"/>
          <path d="M787.69,102.78H777.45v7.3h9.06V114h-9.06v7.27h10.24v4H773V98.84h14.72Z"/>
          <path d="M807.83,125.21,801,113.45h-2.85v11.76h-4.42V98.84h9.15a10.74,10.74,0,0,1,3.69.59,6.51,6.51,0,0,1,2.58,1.66,7.15,7.15,0,0,1,1.47,2.42,8.68,8.68,0,0,1,.49,3,6.75,6.75,0,0,1-1.52,4.52,6.83,6.83,0,0,1-4.16,2.26l7.6,11.93Zm-9.69-22.63v7.6h4.08a5.16,5.16,0,0,0,3.49-1,3.5,3.5,0,0,0,1.14-2.77,3.59,3.59,0,0,0-1.15-2.79,5,5,0,0,0-3.48-1Z"/>
          <path d="M835.38,125.21l-2.09-5.86H821.77l-2.07,5.86h-4.57l9.71-26.37h5.38l9.7,26.37Zm-12.26-9.65H832l-4.42-12.47Z"/>
          <path d="M844.55,125.21V98.84h9a14.49,14.49,0,0,1,5.4,1,10.15,10.15,0,0,1,3.89,2.7,11.71,11.71,0,0,1,2.31,4.16A17.39,17.39,0,0,1,866,112a16.38,16.38,0,0,1-1.36,6.89,10.33,10.33,0,0,1-4.18,4.62,13.06,13.06,0,0,1-6.85,1.69Zm4.42-4h4.41a7.26,7.26,0,0,0,6-2.41,10.51,10.51,0,0,0,2-6.83,10.48,10.48,0,0,0-2-6.82,7.26,7.26,0,0,0-6-2.41H849Z"/>
          <path d="M890.06,123.93a15,15,0,0,1-13.6,0,11.78,11.78,0,0,1-4.76-4.73,15.65,15.65,0,0,1,0-14.38,11.81,11.81,0,0,1,4.76-4.72,15,15,0,0,1,13.6,0,11.91,11.91,0,0,1,4.75,4.72,15.65,15.65,0,0,1,0,14.38A11.88,11.88,0,0,1,890.06,123.93Zm-10.29-3.11a10,10,0,0,0,7,0,8.52,8.52,0,0,0,2.83-1.83,8.25,8.25,0,0,0,1.88-3,11.07,11.07,0,0,0,.69-4,10.92,10.92,0,0,0-.69-4,8.17,8.17,0,0,0-1.88-3,8.52,8.52,0,0,0-2.83-1.83,9.86,9.86,0,0,0-7,0,8.07,8.07,0,0,0-4.72,4.8,11.13,11.13,0,0,0-.68,4,11.29,11.29,0,0,0,.68,4,8.41,8.41,0,0,0,1.89,3A8.32,8.32,0,0,0,879.77,120.82Z"/>
          <path d="M916.4,125.21l-6.85-11.76h-2.84v11.76h-4.42V98.84h9.15a10.74,10.74,0,0,1,3.69.59,6.58,6.58,0,0,1,2.58,1.66,7.15,7.15,0,0,1,1.47,2.42,8.68,8.68,0,0,1,.49,3,6.75,6.75,0,0,1-1.52,4.52,6.83,6.83,0,0,1-4.16,2.26l7.6,11.93Zm-9.69-22.63v7.6h4.08a5.16,5.16,0,0,0,3.49-1,3.5,3.5,0,0,0,1.14-2.77,3.59,3.59,0,0,0-1.15-2.79,5,5,0,0,0-3.48-1Z"/>
          <path d="M941.17,102.78H930.93v7.3H940V114h-9.06v7.27h10.24v4H926.45V98.84h14.72Z"/>
          <path d="M955.67,125.56a12.43,12.43,0,0,1-7.12-1.93,8,8,0,0,1-3.5-5.39l4.55-1.06a5.1,5.1,0,0,0,2,3.47,6.9,6.9,0,0,0,4.18,1.23,6.09,6.09,0,0,0,3.5-.95A3.28,3.28,0,0,0,960.7,118a3.06,3.06,0,0,0-.41-1.48,4.26,4.26,0,0,0-.87-1.09,6.12,6.12,0,0,0-1.5-.84c-.68-.28-1.23-.49-1.66-.63l-2-.59-.26-.07-1.72-.53c-.44-.14-1-.34-1.61-.59a10.34,10.34,0,0,1-1.55-.74,11.67,11.67,0,0,1-1.27-.92,5,5,0,0,1-1.05-1.2,7,7,0,0,1-.64-1.48,7.16,7.16,0,0,1,2.31-7.41,10.25,10.25,0,0,1,6.48-2,14.17,14.17,0,0,1,3.38.39,12,12,0,0,1,3,1.16,7.52,7.52,0,0,1,2.34,2.09,8,8,0,0,1,1.33,3l-4.27,1.07a4.67,4.67,0,0,0-1.9-3,6.28,6.28,0,0,0-3.63-1,6,6,0,0,0-3.41.92,3.16,3.16,0,0,0-1.38,2.81,2.49,2.49,0,0,0,.18,1,3.79,3.79,0,0,0,.43.75,2.54,2.54,0,0,0,.76.65c.34.22.64.39.89.52a8.89,8.89,0,0,0,1.16.45c.52.18.92.3,1.21.38l1.36.38,1.4.4c.35.1.81.25,1.37.44a14.16,14.16,0,0,1,1.38.53c.35.16.76.37,1.24.63a7.51,7.51,0,0,1,1.16.77,9.27,9.27,0,0,1,1,.94,4.54,4.54,0,0,1,.76,1.14,10.32,10.32,0,0,1,.45,1.36,7.08,7.08,0,0,1,.18,1.63,7.51,7.51,0,0,1-.78,3.49,6.47,6.47,0,0,1-2.14,2.43,10.37,10.37,0,0,1-3,1.36A14.1,14.1,0,0,1,955.67,125.56Z"/>
        </g>
        <rect class="cls-18" x="637.85" y="152.94" width="486.67" height="8.84"/>
        <g>
          <g>
            <path d="M694.76,258.5a8.18,8.18,0,0,1-4-1,7.09,7.09,0,0,1-2.81-2.83,9.58,9.58,0,0,1,0-8.72,7.09,7.09,0,0,1,2.81-2.83,8.18,8.18,0,0,1,4-1,8,8,0,0,1,4.08,1.05,7,7,0,0,1,2.77,2.95l-1.44.64a5.49,5.49,0,0,0-2.21-2.29,6.36,6.36,0,0,0-3.2-.8,6.53,6.53,0,0,0-2.44.44,6,6,0,0,0-2,1.26,5.77,5.77,0,0,0-1.35,2.08,8.33,8.33,0,0,0,0,5.63,5.81,5.81,0,0,0,1.35,2.09,6,6,0,0,0,2,1.26,6.74,6.74,0,0,0,2.44.44,6.47,6.47,0,0,0,3.2-.8,5.55,5.55,0,0,0,2.21-2.29l1.44.63a7,7,0,0,1-2.77,3A8,8,0,0,1,694.76,258.5Z"/>
            <path d="M709.27,258.5a5.34,5.34,0,0,1-2.73-.7,5,5,0,0,1-1.93-2,6.23,6.23,0,0,1-.72-3,5.66,5.66,0,0,1,1.53-4.14,5.53,5.53,0,0,1,7.7,0,6.43,6.43,0,0,1,0,8.29A5.1,5.1,0,0,1,709.27,258.5ZM706.51,256a3.72,3.72,0,0,0,5.51,0,5.12,5.12,0,0,0,0-6.37,3.76,3.76,0,0,0-5.51,0,5.2,5.2,0,0,0,0,6.37Z"/>
            <path d="M722.67,247.07a3.67,3.67,0,0,1,2.67,1,3.77,3.77,0,0,1,1,2.82v7.4h-1.53v-7.06a2.86,2.86,0,0,0-.71-2.13,2.51,2.51,0,0,0-1.84-.7,2.77,2.77,0,0,0-2,.8,3.18,3.18,0,0,0-.79,2.32v6.77h-1.53v-11h1.53v1.49A3.53,3.53,0,0,1,722.67,247.07Z"/>
            <path d="M733.69,258.28a2.79,2.79,0,0,1-2-.74,2.83,2.83,0,0,1-.75-2.09v-6.93h-2.28v-1.25h.87a1.52,1.52,0,0,0,1.16-.36,1.74,1.74,0,0,0,.32-1.17v-2.18h1.46v3.71h2.62v1.25h-2.62v6.78a1.7,1.7,0,0,0,.45,1.26A1.53,1.53,0,0,0,734,257h1v1.26Z"/>
            <path d="M740.32,258.5a3.61,3.61,0,0,1-2.39-.77,2.75,2.75,0,0,1-.93-2.26,3.22,3.22,0,0,1,.29-1.41,2.48,2.48,0,0,1,.86-1,5.52,5.52,0,0,1,1.29-.63,12.57,12.57,0,0,1,1.69-.39l1.85-.29a1,1,0,0,0,1-1,2.2,2.2,0,0,0-.74-1.83,2.89,2.89,0,0,0-1.88-.58,3.06,3.06,0,0,0-1.82.53,2.12,2.12,0,0,0-.87,1.6l-1.4-.35a3.19,3.19,0,0,1,1.32-2.25,4.75,4.75,0,0,1,2.82-.77,5.57,5.57,0,0,1,1.57.21,4,4,0,0,1,1.28.64,2.73,2.73,0,0,1,.89,1.17,4.2,4.2,0,0,1,.33,1.73v4.74a2,2,0,0,0,.27,1.23,1.13,1.13,0,0,0,.9.31h.18v1.17H746a1.76,1.76,0,0,1-2-1.51H744A4.29,4.29,0,0,1,740.32,258.5Zm.35-1.28a3,3,0,0,0,2.49-1.17,5.24,5.24,0,0,0,.91-3.28l-3,.52a4.4,4.4,0,0,0-2,.68,1.89,1.89,0,0,0,0,2.79A2.47,2.47,0,0,0,740.67,257.22Z"/>
            <path d="M751.24,249.3a3.25,3.25,0,0,1,1.34-1.55,4,4,0,0,1,2.1-.59v1.5a3.56,3.56,0,0,0-2.53.86,3.6,3.6,0,0,0-.9,2.7v6.06h-1.52v-11h1.51Z"/>
            <path d="M767.59,258.48a5,5,0,0,1-3.82-1.59,6.36,6.36,0,0,1,0-8.25,5.07,5.07,0,0,1,3.82-1.57,5.24,5.24,0,0,1,3.06.92,5,5,0,0,1,1.86,2.56l-1.45.29a3.63,3.63,0,0,0-1.35-1.8,3.57,3.57,0,0,0-2.12-.65,3.51,3.51,0,0,0-2.73,1.2,5.17,5.17,0,0,0,0,6.35,3.5,3.5,0,0,0,2.73,1.22,3.6,3.6,0,0,0,3.47-2.46l1.45.28a5,5,0,0,1-1.86,2.57A5.18,5.18,0,0,1,767.59,258.48Z"/>
            <path d="M780.07,258.5a5.34,5.34,0,0,1-2.73-.7,5,5,0,0,1-1.93-2,6.23,6.23,0,0,1-.72-3,5.69,5.69,0,0,1,1.52-4.14,5.19,5.19,0,0,1,3.86-1.56,5.11,5.11,0,0,1,3.84,1.56,6.41,6.41,0,0,1,0,8.29A5.1,5.1,0,0,1,780.07,258.5ZM777.31,256a3.72,3.72,0,0,0,5.51,0,5.12,5.12,0,0,0,0-6.37,3.76,3.76,0,0,0-5.51,0,5.16,5.16,0,0,0,0,6.37Z"/>
            <path d="M793.47,247.07a3.67,3.67,0,0,1,2.67,1,3.76,3.76,0,0,1,1,2.82v7.4h-1.52v-7.06a2.83,2.83,0,0,0-.72-2.13,2.47,2.47,0,0,0-1.83-.7,2.77,2.77,0,0,0-2,.8,3.18,3.18,0,0,0-.79,2.32v6.77h-1.53v-11h1.53v1.49A3.53,3.53,0,0,1,793.47,247.07Z"/>
            <path d="M811.63,258.48a5.08,5.08,0,0,1-3.83-1.59,6.39,6.39,0,0,1,0-8.25,5.1,5.1,0,0,1,3.83-1.57,5.19,5.19,0,0,1,3,.92,4.92,4.92,0,0,1,1.86,2.56l-1.44.29a3.63,3.63,0,0,0-1.35-1.8,3.57,3.57,0,0,0-2.12-.65,3.51,3.51,0,0,0-2.73,1.2,5.17,5.17,0,0,0,0,6.35,3.5,3.5,0,0,0,2.73,1.22,3.6,3.6,0,0,0,3.47-2.46l1.44.28a4.9,4.9,0,0,1-1.86,2.57A5.13,5.13,0,0,1,811.63,258.48Z"/>
            <path d="M824.11,258.5a5.34,5.34,0,0,1-2.73-.7,5.05,5.05,0,0,1-1.94-2,6.33,6.33,0,0,1-.71-3,5.69,5.69,0,0,1,1.52-4.14,5.53,5.53,0,0,1,7.7,0,6.44,6.44,0,0,1,0,8.29A5.14,5.14,0,0,1,824.11,258.5ZM821.35,256a3.71,3.71,0,0,0,5.5,0,5.12,5.12,0,0,0,0-6.37,3.75,3.75,0,0,0-5.5,0,5.16,5.16,0,0,0,0,6.37Zm2.09-10.71,2.82-3.56.86.65-2.55,2.91Z"/>
            <path d="M841,240.81h1.52v17.47H841l0-2.39a4.63,4.63,0,0,1-1.66,1.9,4.24,4.24,0,0,1-2.41.72,4.75,4.75,0,0,1-2-.42,4.89,4.89,0,0,1-1.62-1.15,5.38,5.38,0,0,1-1.09-1.82,6.88,6.88,0,0,1,0-4.68,5.52,5.52,0,0,1,1.1-1.81,5,5,0,0,1,1.62-1.15,4.9,4.9,0,0,1,2-.41,4.44,4.44,0,0,1,4.06,2.57Zm-3.75,16.33a3.49,3.49,0,0,0,2.72-1.26,4.85,4.85,0,0,0,0-6.2,3.5,3.5,0,0,0-2.72-1.27,3.61,3.61,0,0,0-2.76,1.22,5,5,0,0,0,0,6.29A3.57,3.57,0,0,0,837.26,257.14Z"/>
            <path d="M848.34,244a1.08,1.08,0,0,1-.8.34,1.16,1.16,0,0,1-1.15-1.15,1.07,1.07,0,0,1,.34-.81,1.13,1.13,0,0,1,.81-.33,1.13,1.13,0,0,1,1.13,1.14A1.13,1.13,0,0,1,848.34,244Zm-1.59,14.26v-11h1.54v11Z"/>
            <path d="M860.63,247.27h1.5V257.8a6.05,6.05,0,0,1-1.38,4.21,4.89,4.89,0,0,1-3.82,1.52,5.76,5.76,0,0,1-3.24-.87,5.34,5.34,0,0,1-2-2.49l1.27-.68a3.82,3.82,0,0,0,3.93,2.7,3.38,3.38,0,0,0,2.74-1.14,4.88,4.88,0,0,0,1-3.18v-2.34a4.11,4.11,0,0,1-1.63,1.78,4.48,4.48,0,0,1-2.42.69,4.69,4.69,0,0,1-1.95-.42,4.9,4.9,0,0,1-1.6-1.13,5.45,5.45,0,0,1-1.08-1.74,6,6,0,0,1-.4-2.19,5.45,5.45,0,0,1,1.47-3.9,4.75,4.75,0,0,1,3.58-1.55,4.58,4.58,0,0,1,2.42.67,4.15,4.15,0,0,1,1.62,1.81Zm-3.79,9.37a3.55,3.55,0,0,0,2.73-1.22,4.3,4.3,0,0,0,0-5.81,3.55,3.55,0,0,0-2.73-1.22,3.59,3.59,0,0,0-2.71,1.18,4.45,4.45,0,0,0,0,5.89A3.57,3.57,0,0,0,856.84,256.64Z"/>
            <path d="M870.81,258.5a5.34,5.34,0,0,1-2.73-.7,5.05,5.05,0,0,1-1.94-2,6.33,6.33,0,0,1-.71-3,5.65,5.65,0,0,1,1.52-4.14,5.53,5.53,0,0,1,7.7,0,6.43,6.43,0,0,1,0,8.29A5.1,5.1,0,0,1,870.81,258.5ZM868.05,256a3.71,3.71,0,0,0,5.5,0,5.12,5.12,0,0,0,0-6.37,3.75,3.75,0,0,0-5.5,0,5.16,5.16,0,0,0,0,6.37Z"/>
            <path d="M891.86,242.42a4.58,4.58,0,0,1,2.42.64,4.38,4.38,0,0,1,1.63,1.73,5.06,5.06,0,0,1,.57,2.4,4.75,4.75,0,0,1-1.29,3.4,4.41,4.41,0,0,1-3.33,1.36h-4.23v6.33h-1.58V242.42Zm-.22,8.12a3.07,3.07,0,0,0,2.36-.93,3.41,3.41,0,0,0,.87-2.43,3.48,3.48,0,0,0-.87-2.43,3,3,0,0,0-2.36-.95h-4v6.74Z"/>
            <path d="M915.38,259.12l-1.5.48-2.32-2.44A7.94,7.94,0,0,1,907,258.5a8.52,8.52,0,0,1-3.09-.56,7.55,7.55,0,0,1-2.49-1.6,7.14,7.14,0,0,1-1.66-2.57,9.89,9.89,0,0,1,0-6.84,7.27,7.27,0,0,1,1.66-2.58,7.69,7.69,0,0,1,2.49-1.59,8.52,8.52,0,0,1,3.09-.56,8.36,8.36,0,0,1,3.06.56,7.69,7.69,0,0,1,2.49,1.59,7.15,7.15,0,0,1,1.67,2.58,9.15,9.15,0,0,1,.61,3.41,8.12,8.12,0,0,1-2.2,5.92Zm-14.66-8.78a7.82,7.82,0,0,0,.49,2.85,5.62,5.62,0,0,0,1.34,2.1,5.79,5.79,0,0,0,2,1.27,6.87,6.87,0,0,0,4.89,0,5.9,5.9,0,0,0,2-1.27,5.73,5.73,0,0,0,1.33-2.1,7.82,7.82,0,0,0,.49-2.85,7.68,7.68,0,0,0-.49-2.81,5.73,5.73,0,0,0-1.33-2.08,6.19,6.19,0,0,0-2-1.26,7,7,0,0,0-4.89,0,6.07,6.07,0,0,0-2,1.26,5.62,5.62,0,0,0-1.34,2.08A7.68,7.68,0,0,0,900.72,250.34Z"/>
          </g>
          <g>
            <path class="cls-19" d="M652.77,256a1,1,0,0,1-.69-1.67l3.7-3.7-3.7-3.7a1,1,0,0,1,0-1.38,1,1,0,0,1,1.38,0l4.39,4.39a1,1,0,0,1,0,1.38l-4.39,4.39a1,1,0,0,1-.69.29Z"/>
            <path d="M668.88,251.64a1,1,0,0,1-1-1v-.1a1,1,0,0,1,1-1,1,1,0,0,1,1,1v.14a1,1,0,0,1-1,1Z"/>
            <path class="cls-20" d="M643.19,261.64a15.62,15.62,0,1,1,26.27-14.53,1,1,0,1,1-1.9.43,13.67,13.67,0,1,0,0,6.07,1,1,0,0,1,1.16-.74,1,1,0,0,1,.74,1.17,15.63,15.63,0,0,1-26.28,7.6Z"/>
          </g>
        </g>
        <g>
          <g>
            <path d="M688.05,318.26V302.4H693a7.47,7.47,0,0,1,4,1,6.28,6.28,0,0,1,2.45,2.8,9.77,9.77,0,0,1,.81,4.1,10.37,10.37,0,0,1-.47,3.19,7.15,7.15,0,0,1-1.36,2.51,6,6,0,0,1-2.28,1.65,8,8,0,0,1-3.14.59Zm1.58-1.46h3.29a5.15,5.15,0,0,0,4.21-1.74,8.5,8.5,0,0,0,0-9.47,5.15,5.15,0,0,0-4.21-1.74h-3.29Z"/>
            <path d="M713.26,312.51l0,.46h-8.76a4.31,4.31,0,0,0,1.12,3.1,3.66,3.66,0,0,0,2.7,1.09,3.6,3.6,0,0,0,2-.58,4,4,0,0,0,1.38-1.58l1.36.35a5.12,5.12,0,0,1-1.87,2.28,4.9,4.9,0,0,1-2.81.85,5.14,5.14,0,0,1-3.84-1.54,5.78,5.78,0,0,1-1.49-4.18,6.89,6.89,0,0,1,.41-2.41,5.13,5.13,0,0,1,1.11-1.81,5,5,0,0,1,1.68-1.11,5.51,5.51,0,0,1,2.09-.39,4.76,4.76,0,0,1,3.61,1.42A5.61,5.61,0,0,1,713.26,312.51Zm-5-4.23a3.7,3.7,0,0,0-2.51.89,4.05,4.05,0,0,0-1.24,2.58h7.19a3.72,3.72,0,0,0-1-2.59A3.34,3.34,0,0,0,708.28,308.28Z"/>
            <path d="M722.16,307.05a4.71,4.71,0,0,1,3.6,1.59,6.52,6.52,0,0,1,0,8.25,4.69,4.69,0,0,1-3.6,1.6,4.39,4.39,0,0,1-2.44-.71,4.64,4.64,0,0,1-1.65-1.91l0,2.39h-1.5V300.79h1.51l0,8.83a4.38,4.38,0,0,1,1.63-1.88A4.45,4.45,0,0,1,722.16,307.05Zm-.32,10.07a3.55,3.55,0,0,0,2.75-1.22,5,5,0,0,0,0-6.29,3.58,3.58,0,0,0-2.75-1.22,3.49,3.49,0,0,0-2.72,1.26,4.88,4.88,0,0,0,0,6.21A3.5,3.5,0,0,0,721.84,317.12Z"/>
            <path d="M739.92,312.51l0,.46h-8.76a4.31,4.31,0,0,0,1.12,3.1,3.66,3.66,0,0,0,2.7,1.09,3.55,3.55,0,0,0,2-.58A4,4,0,0,0,738.3,315l1.36.35a5.14,5.14,0,0,1-1.88,2.28,4.84,4.84,0,0,1-2.8.85,5.14,5.14,0,0,1-3.84-1.54,5.78,5.78,0,0,1-1.49-4.18,6.89,6.89,0,0,1,.41-2.41,5.13,5.13,0,0,1,1.11-1.81,4.83,4.83,0,0,1,1.68-1.11,5.51,5.51,0,0,1,2.09-.39,4.78,4.78,0,0,1,3.61,1.42A5.61,5.61,0,0,1,739.92,312.51Zm-5-4.23a3.7,3.7,0,0,0-2.51.89,4.05,4.05,0,0,0-1.24,2.58h7.19a3.72,3.72,0,0,0-1-2.59A3.34,3.34,0,0,0,734.94,308.28Z"/>
            <path d="M752.58,318.26a2.77,2.77,0,0,1-2-.74,2.8,2.8,0,0,1-.76-2.09V308.5h-2.28v-1.25h.87a1.52,1.52,0,0,0,1.16-.36,1.76,1.76,0,0,0,.32-1.17v-2.18h1.46v3.71H754v1.25h-2.63v6.78a1.7,1.7,0,0,0,.45,1.26,1.54,1.54,0,0,0,1.16.46h1v1.26Z"/>
            <path d="M766.1,312.51l0,.46h-8.76a4.31,4.31,0,0,0,1.12,3.1,3.66,3.66,0,0,0,2.7,1.09,3.55,3.55,0,0,0,2-.58,4,4,0,0,0,1.39-1.58l1.36.35a5.12,5.12,0,0,1-1.87,2.28,4.9,4.9,0,0,1-2.81.85,5.14,5.14,0,0,1-3.84-1.54,5.78,5.78,0,0,1-1.49-4.18,6.89,6.89,0,0,1,.41-2.41,5.13,5.13,0,0,1,1.11-1.81,4.93,4.93,0,0,1,1.68-1.11,5.51,5.51,0,0,1,2.09-.39,4.76,4.76,0,0,1,3.61,1.42A5.61,5.61,0,0,1,766.1,312.51Zm-5-4.23a3.7,3.7,0,0,0-2.51.89,4.05,4.05,0,0,0-1.24,2.58h7.19a3.72,3.72,0,0,0-1-2.59A3.34,3.34,0,0,0,761.12,308.28Z"/>
            <path d="M774.13,307.05a3.71,3.71,0,0,1,2.68,1,3.76,3.76,0,0,1,1,2.82v7.4H776.3V311.2a2.82,2.82,0,0,0-.71-2.13,2.5,2.5,0,0,0-1.83-.7,2.73,2.73,0,0,0-2,.8,3.18,3.18,0,0,0-.79,2.32v6.77h-1.54v-11h1.54v1.49A3.51,3.51,0,0,1,774.13,307.05Z"/>
            <path d="M791.22,312.51l0,.46h-8.76a4.35,4.35,0,0,0,1.12,3.1,3.67,3.67,0,0,0,2.71,1.09,3.59,3.59,0,0,0,2-.58,4,4,0,0,0,1.38-1.58l1.36.35a5.12,5.12,0,0,1-1.87,2.28,4.87,4.87,0,0,1-2.81.85,5.11,5.11,0,0,1-3.83-1.54,5.73,5.73,0,0,1-1.49-4.18,6.89,6.89,0,0,1,.4-2.41,5.13,5.13,0,0,1,1.11-1.81,5,5,0,0,1,1.68-1.11,5.55,5.55,0,0,1,2.09-.39,4.76,4.76,0,0,1,3.61,1.42A5.66,5.66,0,0,1,791.22,312.51Zm-5-4.23a3.66,3.66,0,0,0-2.5.89,4,4,0,0,0-1.25,2.58h7.19a3.72,3.72,0,0,0-1-2.59A3.34,3.34,0,0,0,786.23,308.28Z"/>
            <path d="M796,309.28a3.21,3.21,0,0,1,1.34-1.55,4,4,0,0,1,2.1-.59v1.5a3.54,3.54,0,0,0-2.53.86,3.6,3.6,0,0,0-.9,2.7v6.06H794.5v-11H796Z"/>
            <path d="M814.66,307.25h1.52v11h-1.47l0-1.52a3.43,3.43,0,0,1-1.34,1.28,3.81,3.81,0,0,1-1.89.46,3.5,3.5,0,0,1-3.71-3.81v-7.42h1.54v7.06a2.86,2.86,0,0,0,.72,2.13,2.54,2.54,0,0,0,1.85.71,2.7,2.7,0,0,0,2-.81,3.2,3.2,0,0,0,.78-2.31Z"/>
            <path d="M825.14,307.05a3.71,3.71,0,0,1,2.68,1,3.76,3.76,0,0,1,1,2.82v7.4h-1.53V311.2a2.82,2.82,0,0,0-.71-2.13,2.5,2.5,0,0,0-1.83-.7,2.73,2.73,0,0,0-2,.8,3.18,3.18,0,0,0-.79,2.32v6.77H820.4v-11h1.54v1.49A3.51,3.51,0,0,1,825.14,307.05Z"/>
            <path d="M840.41,309.28a3.21,3.21,0,0,1,1.34-1.55,4,4,0,0,1,2.1-.59v1.5a3.54,3.54,0,0,0-2.53.86,3.6,3.6,0,0,0-.9,2.7v6.06h-1.53v-11h1.52Z"/>
            <path d="M855.5,312.51l0,.46h-8.75a4.26,4.26,0,0,0,1.12,3.1,3.63,3.63,0,0,0,2.7,1.09,3.59,3.59,0,0,0,2-.58,3.85,3.85,0,0,0,1.38-1.58l1.37.35a5.21,5.21,0,0,1-1.88,2.28,4.85,4.85,0,0,1-2.81.85,5.11,5.11,0,0,1-3.83-1.54,5.73,5.73,0,0,1-1.49-4.18,6.89,6.89,0,0,1,.4-2.41,5,5,0,0,1,1.12-1.81,4.88,4.88,0,0,1,1.67-1.11,5.6,5.6,0,0,1,2.1-.39,4.75,4.75,0,0,1,3.6,1.42A5.66,5.66,0,0,1,855.5,312.51Zm-5-4.23a3.69,3.69,0,0,0-2.51.89,4.06,4.06,0,0,0-1.25,2.58H854a3.72,3.72,0,0,0-1-2.59A3.34,3.34,0,0,0,850.52,308.28Z"/>
            <path d="M866.91,307.25h1.5v10.53A6.05,6.05,0,0,1,867,322a4.9,4.9,0,0,1-3.82,1.51,5.76,5.76,0,0,1-3.24-.86,5.34,5.34,0,0,1-2-2.49l1.27-.68a3.81,3.81,0,0,0,3.93,2.7,3.35,3.35,0,0,0,2.74-1.15,4.83,4.83,0,0,0,1-3.17v-2.34a4.16,4.16,0,0,1-1.63,1.78,4.51,4.51,0,0,1-2.42.69,4.69,4.69,0,0,1-2-.42,4.94,4.94,0,0,1-1.6-1.13,5.39,5.39,0,0,1-1.08-1.75,5.88,5.88,0,0,1-.41-2.19,5.43,5.43,0,0,1,1.48-3.89,4.74,4.74,0,0,1,3.57-1.55,4.58,4.58,0,0,1,2.43.67,4.16,4.16,0,0,1,1.62,1.81Zm-3.79,9.37a3.55,3.55,0,0,0,2.73-1.22,4.33,4.33,0,0,0,0-5.81,3.68,3.68,0,0,0-5.44,0,4.43,4.43,0,0,0,0,5.88A3.53,3.53,0,0,0,863.12,316.62Z"/>
            <path d="M879.31,307.25h1.53v11h-1.47l0-1.52A3.5,3.5,0,0,1,878,318a3.83,3.83,0,0,1-1.89.46,3.66,3.66,0,0,1-2.68-1,3.71,3.71,0,0,1-1-2.81v-7.42h1.53v7.06a2.86,2.86,0,0,0,.73,2.13,2.53,2.53,0,0,0,1.85.71,2.66,2.66,0,0,0,2-.81,3.2,3.2,0,0,0,.78-2.31Z"/>
            <path d="M885.06,318.26V300.79h1.54v17.47Z"/>
            <path d="M893.3,318.48a3.65,3.65,0,0,1-2.39-.77,2.75,2.75,0,0,1-.93-2.26,3.22,3.22,0,0,1,.29-1.41,2.51,2.51,0,0,1,.87-1,4.93,4.93,0,0,1,1.28-.63,11.5,11.5,0,0,1,1.69-.39l1.85-.29a1,1,0,0,0,1-1,2.2,2.2,0,0,0-.73-1.83,2.94,2.94,0,0,0-1.89-.58,3,3,0,0,0-1.82.53,2.12,2.12,0,0,0-.87,1.59l-1.4-.34a3.19,3.19,0,0,1,1.32-2.25,4.77,4.77,0,0,1,2.82-.77,5.57,5.57,0,0,1,1.57.21,3.85,3.85,0,0,1,1.28.64,2.83,2.83,0,0,1,.9,1.17,4.38,4.38,0,0,1,.32,1.73v4.74a2,2,0,0,0,.27,1.23,1.16,1.16,0,0,0,.9.31h.18v1.17H899a1.76,1.76,0,0,1-2-1.51h-.07A4.27,4.27,0,0,1,893.3,318.48Zm.36-1.28a3,3,0,0,0,2.48-1.17,5.24,5.24,0,0,0,.92-3.28l-3,.52a4.28,4.28,0,0,0-2,.68,1.88,1.88,0,0,0,0,2.79A2.48,2.48,0,0,0,893.66,317.2Z"/>
            <path d="M910.73,300.79h1.52v17.47h-1.49l0-2.39a4.63,4.63,0,0,1-1.66,1.9,4.26,4.26,0,0,1-2.41.72,4.75,4.75,0,0,1-2-.42,4.89,4.89,0,0,1-1.62-1.15,5.4,5.4,0,0,1-1.1-1.82,6.84,6.84,0,0,1-.4-2.34,6.57,6.57,0,0,1,.41-2.34,5.35,5.35,0,0,1,1.1-1.81,5,5,0,0,1,1.62-1.15,4.9,4.9,0,0,1,2-.41,4.44,4.44,0,0,1,4.06,2.57ZM907,317.12a3.5,3.5,0,0,0,2.73-1.26,4.49,4.49,0,0,0,1.12-3.1,4.54,4.54,0,0,0-1.12-3.1,3.51,3.51,0,0,0-2.73-1.27,3.58,3.58,0,0,0-2.75,1.22,5,5,0,0,0,0,6.29A3.55,3.55,0,0,0,907,317.12Z"/>
            <path d="M920.94,318.48a5.34,5.34,0,0,1-2.73-.7,5,5,0,0,1-1.93-2,6.23,6.23,0,0,1-.72-3,5.69,5.69,0,0,1,1.52-4.14,5.19,5.19,0,0,1,3.86-1.56,5.11,5.11,0,0,1,3.84,1.56,6.41,6.41,0,0,1,0,8.29A5.1,5.1,0,0,1,920.94,318.48Zm-2.76-2.54a3.72,3.72,0,0,0,5.51,0,5.12,5.12,0,0,0,0-6.37,3.76,3.76,0,0,0-5.51,0,5.16,5.16,0,0,0,0,6.37Z"/>
            <path d="M931.11,309.28a3.21,3.21,0,0,1,1.34-1.55,4,4,0,0,1,2.1-.59v1.5a3.56,3.56,0,0,0-2.53.86,3.6,3.6,0,0,0-.9,2.7v6.06h-1.53v-11h1.52Z"/>
            <path d="M951.3,300.79h1.52v17.47h-1.49l0-2.39a4.63,4.63,0,0,1-1.66,1.9,4.27,4.27,0,0,1-2.42.72,4.74,4.74,0,0,1-2-.42,4.83,4.83,0,0,1-1.63-1.15,5.55,5.55,0,0,1-1.09-1.82,7,7,0,0,1,0-4.68,5.35,5.35,0,0,1,1.1-1.81,5,5,0,0,1,1.62-1.15,4.88,4.88,0,0,1,2-.41,4.44,4.44,0,0,1,4.07,2.57Zm-3.76,16.33a3.5,3.5,0,0,0,2.73-1.26,4.85,4.85,0,0,0,0-6.2,3.51,3.51,0,0,0-2.73-1.27,3.58,3.58,0,0,0-2.75,1.22,5,5,0,0,0,0,6.29A3.55,3.55,0,0,0,947.54,317.12Z"/>
            <path d="M966.42,312.51l0,.46h-8.76a4.31,4.31,0,0,0,1.12,3.1,3.65,3.65,0,0,0,2.7,1.09,3.57,3.57,0,0,0,2-.58A4,4,0,0,0,964.8,315l1.36.35a5.14,5.14,0,0,1-1.88,2.28,4.85,4.85,0,0,1-2.81.85,5.11,5.11,0,0,1-3.83-1.54,5.78,5.78,0,0,1-1.49-4.18,6.89,6.89,0,0,1,.41-2.41,5,5,0,0,1,1.11-1.81,4.83,4.83,0,0,1,1.68-1.11,5.51,5.51,0,0,1,2.09-.39,4.78,4.78,0,0,1,3.61,1.42A5.65,5.65,0,0,1,966.42,312.51Zm-5-4.23a3.7,3.7,0,0,0-2.51.89,4,4,0,0,0-1.24,2.58h7.19a3.76,3.76,0,0,0-1-2.59A3.34,3.34,0,0,0,961.44,308.28Z"/>
            <path d="M694.28,335.2h1.64l-4.4,11h-1.28l-4.4-11h1.64l3.4,9.18Z"/>
            <path d="M702.48,346.43a5.34,5.34,0,0,1-2.73-.7,5,5,0,0,1-1.93-2,6.23,6.23,0,0,1-.72-3,5.66,5.66,0,0,1,1.53-4.14,5.53,5.53,0,0,1,7.7,0,6.43,6.43,0,0,1,0,8.29A5.1,5.1,0,0,1,702.48,346.43Zm-2.76-2.54a3.72,3.72,0,0,0,5.51,0,5.12,5.12,0,0,0,0-6.37,3.76,3.76,0,0,0-5.51,0,5.2,5.2,0,0,0,0,6.37Z"/>
            <path d="M711.14,346.21V328.74h1.54v17.47Z"/>
            <path d="M720.21,346.21a2.78,2.78,0,0,1-2-.74,2.83,2.83,0,0,1-.75-2.09v-6.93h-2.29V335.2H716a1.51,1.51,0,0,0,1.15-.36,1.69,1.69,0,0,0,.32-1.17V331.5H719v3.7h2.63v1.25H719v6.78a1.7,1.7,0,0,0,.45,1.26,1.54,1.54,0,0,0,1.16.46h1v1.26Z"/>
            <path d="M726.84,346.43a3.65,3.65,0,0,1-2.39-.77,2.75,2.75,0,0,1-.93-2.26,3.22,3.22,0,0,1,.29-1.41,2.51,2.51,0,0,1,.87-1,5.26,5.26,0,0,1,1.28-.63,12.94,12.94,0,0,1,1.69-.39l1.85-.28c.64-.12,1-.46,1-1a2.21,2.21,0,0,0-.73-1.83,2.94,2.94,0,0,0-1.89-.58,3,3,0,0,0-1.82.53,2.12,2.12,0,0,0-.87,1.6l-1.4-.35a3.19,3.19,0,0,1,1.32-2.25,4.77,4.77,0,0,1,2.82-.77,5.57,5.57,0,0,1,1.57.21,3.85,3.85,0,0,1,1.28.64,2.83,2.83,0,0,1,.9,1.17,4.38,4.38,0,0,1,.32,1.73v4.74a2,2,0,0,0,.27,1.23,1.16,1.16,0,0,0,.9.31h.18v1.17h-.79a1.76,1.76,0,0,1-2-1.51h-.07A4.27,4.27,0,0,1,726.84,346.43Zm.36-1.28a3,3,0,0,0,2.48-1.17,5.24,5.24,0,0,0,.92-3.28l-3,.52a4.4,4.4,0,0,0-2,.68,1.88,1.88,0,0,0,0,2.79A2.48,2.48,0,0,0,727.2,345.15Z"/>
            <path d="M733.61,351.35V350a4.13,4.13,0,0,0,1.3-.16,1.55,1.55,0,0,0,.8-.59,2.58,2.58,0,0,0,.43-1.16,14,14,0,0,0,.11-1.94V335.2h1.55v10.93a9.2,9.2,0,0,1-.42,3.11,2.85,2.85,0,0,1-1.31,1.62A5.14,5.14,0,0,1,733.61,351.35Zm4.23-19.4a1.1,1.1,0,0,1-.81.34,1.07,1.07,0,0,1-.8-.34,1.11,1.11,0,0,1-.35-.81,1.08,1.08,0,0,1,.35-.81,1.14,1.14,0,0,1,.8-.33,1.18,1.18,0,0,1,.81.33,1.1,1.1,0,0,1,.33.81A1.13,1.13,0,0,1,737.84,332Z"/>
            <path d="M751.39,340.46l0,.46h-8.76a4.29,4.29,0,0,0,1.13,3.1,3.63,3.63,0,0,0,2.7,1.09,3.51,3.51,0,0,0,2-.58,3.93,3.93,0,0,0,1.38-1.58l1.37.35a5.23,5.23,0,0,1-1.88,2.29,4.94,4.94,0,0,1-2.81.84,5.11,5.11,0,0,1-3.83-1.54,5.73,5.73,0,0,1-1.49-4.18,6.89,6.89,0,0,1,.4-2.41,5.13,5.13,0,0,1,1.11-1.81,5,5,0,0,1,1.68-1.11,5.56,5.56,0,0,1,2.1-.39,4.75,4.75,0,0,1,3.6,1.42A5.67,5.67,0,0,1,751.39,340.46Zm-5-4.23a3.69,3.69,0,0,0-2.51.89,4,4,0,0,0-1.25,2.59h7.19a3.74,3.74,0,0,0-1-2.6A3.34,3.34,0,0,0,746.41,336.23Z"/>
            <path d="M764.84,352a9,9,0,0,1-3.47-4.48,22.19,22.19,0,0,1,0-14.8,9,9,0,0,1,3.47-4.48l.76,1a8,8,0,0,0-3.06,4.06,21.48,21.48,0,0,0,0,13.66,7.91,7.91,0,0,0,3.07,4Z"/>
            <path d="M777.5,346.21,773.44,339h-3v7.22h-1.58V330.35h5.1a4.64,4.64,0,0,1,3.46,1.23,4.35,4.35,0,0,1,1.2,3.16,4.21,4.21,0,0,1-.94,2.8,4.1,4.1,0,0,1-2.64,1.38l4.31,7.29Zm-7.09-14.44v5.89h3.34a3.47,3.47,0,0,0,2.48-.79,2.79,2.79,0,0,0,.84-2.13,2.86,2.86,0,0,0-.84-2.16,3.46,3.46,0,0,0-2.48-.81Z"/>
            <path d="M791.25,340.46l0,.46h-8.76a4.25,4.25,0,0,0,1.12,3.1,3.63,3.63,0,0,0,2.7,1.09,3.49,3.49,0,0,0,2-.58,3.79,3.79,0,0,0,1.38-1.58l1.37.35a5.17,5.17,0,0,1-1.88,2.29,4.92,4.92,0,0,1-2.81.84,5.11,5.11,0,0,1-3.83-1.54,5.78,5.78,0,0,1-1.49-4.18,6.89,6.89,0,0,1,.4-2.41,5,5,0,0,1,1.12-1.81,4.83,4.83,0,0,1,1.68-1.11,5.51,5.51,0,0,1,2.09-.39,4.75,4.75,0,0,1,3.6,1.42A5.67,5.67,0,0,1,791.25,340.46Zm-5-4.23a3.69,3.69,0,0,0-2.51.89,4.06,4.06,0,0,0-1.25,2.59h7.19a3.74,3.74,0,0,0-1-2.6A3.32,3.32,0,0,0,786.27,336.23Z"/>
            <path d="M799.18,330.06h-.45l-.42,0a1.71,1.71,0,0,0-.41.06l-.36.13a1.1,1.1,0,0,0-.34.21,3.22,3.22,0,0,0-.26.31,1.33,1.33,0,0,0-.21.43,3.46,3.46,0,0,0-.13.57,5.5,5.5,0,0,0-.05.74v2.66h2.63v1.25h-2.63v9.76H795v-9.76h-2.12V335.2H795v-2.7a5.71,5.71,0,0,1,.21-1.65,3,3,0,0,1,.55-1.09,2.41,2.41,0,0,1,.9-.64,4.54,4.54,0,0,1,1.12-.3,10.48,10.48,0,0,1,1.36-.08Z"/>
            <path d="M803.11,337.23a3.27,3.27,0,0,1,1.35-1.55,4,4,0,0,1,2.1-.59v1.5a3.52,3.52,0,0,0-2.53.86,3.61,3.61,0,0,0-.91,2.7v6.06H801.6v-11h1.51Z"/>
            <path d="M810.59,332a1.07,1.07,0,0,1-.8.34,1.16,1.16,0,0,1-1.15-1.15,1.07,1.07,0,0,1,.34-.81,1.18,1.18,0,0,1,.81-.33,1.14,1.14,0,0,1,.8.33,1.11,1.11,0,0,1,.34.81A1.14,1.14,0,0,1,810.59,332ZM809,346.21v-11h1.54v11Z"/>
            <path d="M822.88,335.2h1.5v10.53a6.05,6.05,0,0,1-1.38,4.21,4.89,4.89,0,0,1-3.82,1.52,5.76,5.76,0,0,1-3.24-.87,5.34,5.34,0,0,1-2-2.49l1.27-.68a3.82,3.82,0,0,0,3.93,2.7,3.38,3.38,0,0,0,2.74-1.14,4.83,4.83,0,0,0,1-3.18v-2.34a4.12,4.12,0,0,1-1.63,1.79,4.55,4.55,0,0,1-2.41.68,4.62,4.62,0,0,1-1.95-.42,4.83,4.83,0,0,1-1.61-1.13,5.39,5.39,0,0,1-1.08-1.75,5.86,5.86,0,0,1-.4-2.18,5.4,5.4,0,0,1,1.48-3.9,4.75,4.75,0,0,1,3.57-1.55,4.55,4.55,0,0,1,2.42.67,4.18,4.18,0,0,1,1.63,1.81Zm-3.79,9.37a3.55,3.55,0,0,0,2.73-1.22,4.3,4.3,0,0,0,0-5.81,3.55,3.55,0,0,0-2.73-1.22,3.59,3.59,0,0,0-2.71,1.18,4.45,4.45,0,0,0,0,5.89A3.59,3.59,0,0,0,819.09,344.57Z"/>
            <path d="M838,340.46l0,.46h-8.76a4.29,4.29,0,0,0,1.12,3.1,3.65,3.65,0,0,0,2.7,1.09,3.49,3.49,0,0,0,2-.58,3.79,3.79,0,0,0,1.38-1.58l1.37.35a5.17,5.17,0,0,1-1.88,2.29,4.92,4.92,0,0,1-2.81.84,5.11,5.11,0,0,1-3.83-1.54,5.78,5.78,0,0,1-1.49-4.18,6.89,6.89,0,0,1,.41-2.41,5,5,0,0,1,1.11-1.81,4.83,4.83,0,0,1,1.68-1.11A5.51,5.51,0,0,1,833,335a4.78,4.78,0,0,1,3.61,1.42A5.67,5.67,0,0,1,838,340.46Zm-5-4.23a3.7,3.7,0,0,0-2.51.89,4,4,0,0,0-1.24,2.59h7.19a3.79,3.79,0,0,0-1-2.6A3.34,3.34,0,0,0,833,336.23Z"/>
            <path d="M842.77,337.23a3.25,3.25,0,0,1,1.34-1.55,4.08,4.08,0,0,1,2.11-.59v1.5a3.52,3.52,0,0,0-2.53.86,3.57,3.57,0,0,0-.91,2.7v6.06h-1.52v-11h1.51Z"/>
            <path d="M851,346.43a3.61,3.61,0,0,1-2.39-.77,2.75,2.75,0,0,1-.93-2.26,3.22,3.22,0,0,1,.29-1.41,2.48,2.48,0,0,1,.86-1,5.52,5.52,0,0,1,1.29-.63,12.57,12.57,0,0,1,1.69-.39l1.85-.28c.64-.12,1-.46,1-1a2.21,2.21,0,0,0-.74-1.83,2.89,2.89,0,0,0-1.88-.58,3,3,0,0,0-1.82.53,2.12,2.12,0,0,0-.87,1.6l-1.4-.35a3.19,3.19,0,0,1,1.32-2.25A4.75,4.75,0,0,1,852,335a5.57,5.57,0,0,1,1.57.21,4,4,0,0,1,1.28.64,2.73,2.73,0,0,1,.89,1.17,4.2,4.2,0,0,1,.33,1.73v4.74a2,2,0,0,0,.27,1.23,1.13,1.13,0,0,0,.9.31h.18v1.17h-.79a1.76,1.76,0,0,1-2-1.51h-.07A4.29,4.29,0,0,1,851,346.43Zm.35-1.28a3,3,0,0,0,2.49-1.17,5.24,5.24,0,0,0,.91-3.28l-3,.52a4.45,4.45,0,0,0-2,.68,1.89,1.89,0,0,0,0,2.79A2.47,2.47,0,0,0,851.32,345.15Z"/>
            <path d="M868.39,328.74h1.53v17.47h-1.49l0-2.39a4.56,4.56,0,0,1-1.66,1.9,4.27,4.27,0,0,1-2.42.72,4.74,4.74,0,0,1-2-.42,4.83,4.83,0,0,1-1.63-1.15,5.55,5.55,0,0,1-1.09-1.82,7,7,0,0,1,0-4.68,5.35,5.35,0,0,1,1.1-1.81,5,5,0,0,1,1.62-1.15,4.85,4.85,0,0,1,2-.41,4.41,4.41,0,0,1,2.42.69,4.34,4.34,0,0,1,1.64,1.88Zm-3.75,16.33a3.5,3.5,0,0,0,2.73-1.26,4.85,4.85,0,0,0,0-6.2,3.51,3.51,0,0,0-2.73-1.27,3.58,3.58,0,0,0-2.75,1.22,5,5,0,0,0,0,6.29A3.55,3.55,0,0,0,864.64,345.07Z"/>
            <path d="M878.61,346.43a5.34,5.34,0,0,1-2.73-.7,5,5,0,0,1-1.93-2,6.23,6.23,0,0,1-.72-3,5.69,5.69,0,0,1,1.52-4.14,5.53,5.53,0,0,1,7.7,0,6.41,6.41,0,0,1,0,8.29A5.14,5.14,0,0,1,878.61,346.43Zm-2.76-2.54a3.71,3.71,0,0,0,5.5,0,5.12,5.12,0,0,0,0-6.37,3.75,3.75,0,0,0-5.5,0,5.16,5.16,0,0,0,0,6.37Z"/>
            <path d="M888.78,337.23a3.25,3.25,0,0,1,1.34-1.55,4,4,0,0,1,2.1-.59v1.5a3.54,3.54,0,0,0-2.53.86,3.6,3.6,0,0,0-.9,2.7v6.06h-1.53v-11h1.52Z"/>
            <path d="M903.87,340.46l0,.46h-8.75a4.25,4.25,0,0,0,1.12,3.1,3.63,3.63,0,0,0,2.7,1.09,3.51,3.51,0,0,0,2-.58,3.79,3.79,0,0,0,1.38-1.58l1.37.35a5.23,5.23,0,0,1-1.88,2.29,4.92,4.92,0,0,1-2.81.84,5.11,5.11,0,0,1-3.83-1.54,5.73,5.73,0,0,1-1.49-4.18,6.89,6.89,0,0,1,.4-2.41,5,5,0,0,1,1.12-1.81,4.88,4.88,0,0,1,1.67-1.11,5.6,5.6,0,0,1,2.1-.39,4.75,4.75,0,0,1,3.6,1.42A5.67,5.67,0,0,1,903.87,340.46Zm-5-4.23a3.69,3.69,0,0,0-2.51.89,4.06,4.06,0,0,0-1.25,2.59h7.19a3.74,3.74,0,0,0-1-2.6A3.34,3.34,0,0,0,898.89,336.23Z"/>
            <path d="M910.5,346.43a4.87,4.87,0,0,1-2.88-.81,3.3,3.3,0,0,1-1.4-2.25l1.37-.4a2.49,2.49,0,0,0,.94,1.63,3.08,3.08,0,0,0,2,.6,3.89,3.89,0,0,0,1.17-.17,1.91,1.91,0,0,0,.9-.61,1.65,1.65,0,0,0,.35-1.13,1.78,1.78,0,0,0-.15-.67,1.61,1.61,0,0,0-.39-.5,2.71,2.71,0,0,0-.59-.36,6.13,6.13,0,0,0-.75-.29l-.91-.26-.37-.1-1-.31a5.37,5.37,0,0,1-.85-.38,2.78,2.78,0,0,1-.74-.54,2.89,2.89,0,0,1-.46-.76,3,3,0,0,1-.19-1.06,2.67,2.67,0,0,1,1.06-2.28,4.46,4.46,0,0,1,2.67-.77,4.61,4.61,0,0,1,2.62.72,3,3,0,0,1,1.29,2.15l-1.3.35a2.18,2.18,0,0,0-.89-1.52,2.79,2.79,0,0,0-1.7-.52,3.68,3.68,0,0,0-.82.1,2.77,2.77,0,0,0-.73.31,1.7,1.7,0,0,0-.54.56,1.62,1.62,0,0,0-.2.83,1.46,1.46,0,0,0,.08.52,1.78,1.78,0,0,0,.2.39,1.25,1.25,0,0,0,.35.33l.41.24a3.38,3.38,0,0,0,.54.21l.54.16.62.16,1.07.29a8.1,8.1,0,0,1,1,.38,3.3,3.3,0,0,1,.86.58,2.59,2.59,0,0,1,.54.83,2.91,2.91,0,0,1,.23,1.17,2.74,2.74,0,0,1-1.11,2.39A4.66,4.66,0,0,1,910.5,346.43Z"/>
            <path d="M933.16,340.46l0,.46h-8.76a4.33,4.33,0,0,0,1.12,3.1,3.66,3.66,0,0,0,2.7,1.09,3.52,3.52,0,0,0,2-.58,3.93,3.93,0,0,0,1.38-1.58l1.36.35a5.15,5.15,0,0,1-1.87,2.29,4.94,4.94,0,0,1-2.81.84,5.11,5.11,0,0,1-3.83-1.54,5.74,5.74,0,0,1-1.5-4.18,6.89,6.89,0,0,1,.41-2.41,5.13,5.13,0,0,1,1.11-1.81,5,5,0,0,1,1.68-1.11,5.55,5.55,0,0,1,2.09-.39,4.76,4.76,0,0,1,3.61,1.42A5.67,5.67,0,0,1,933.16,340.46Zm-5-4.23a3.66,3.66,0,0,0-2.5.89,4,4,0,0,0-1.25,2.59h7.19a3.74,3.74,0,0,0-1-2.6A3.34,3.34,0,0,0,928.17,336.23Z"/>
            <path d="M936.44,346.21V328.74H938v17.47Z"/>
            <path d="M951.58,340.46l0,.46h-8.76a4.25,4.25,0,0,0,1.12,3.1,3.63,3.63,0,0,0,2.7,1.09,3.49,3.49,0,0,0,2-.58A3.79,3.79,0,0,0,950,343l1.37.35a5.23,5.23,0,0,1-1.88,2.29,4.92,4.92,0,0,1-2.81.84,5.11,5.11,0,0,1-3.83-1.54,5.78,5.78,0,0,1-1.49-4.18,6.89,6.89,0,0,1,.4-2.41,5,5,0,0,1,1.12-1.81,4.83,4.83,0,0,1,1.68-1.11,5.51,5.51,0,0,1,2.09-.39,4.75,4.75,0,0,1,3.6,1.42A5.67,5.67,0,0,1,951.58,340.46Zm-5-4.23a3.69,3.69,0,0,0-2.51.89,4.06,4.06,0,0,0-1.25,2.59H950a3.74,3.74,0,0,0-1-2.6A3.34,3.34,0,0,0,946.6,336.23Zm3.07-6-2.55,2.91H946l2.82-3.56Z"/>
            <path d="M959.28,346.41a5.07,5.07,0,0,1-3.83-1.59,6.36,6.36,0,0,1,0-8.25,5.09,5.09,0,0,1,3.83-1.57,5.19,5.19,0,0,1,3.05.92,4.92,4.92,0,0,1,1.86,2.56l-1.44.29a3.59,3.59,0,0,0-1.36-1.8,3.74,3.74,0,0,0-4.85.55,5.22,5.22,0,0,0,0,6.36,3.56,3.56,0,0,0,2.74,1.21,3.62,3.62,0,0,0,3.47-2.46l1.44.28a4.9,4.9,0,0,1-1.86,2.57A5.13,5.13,0,0,1,959.28,346.41Z"/>
            <path d="M970.61,346.21a2.79,2.79,0,0,1-2-.74,2.83,2.83,0,0,1-.75-2.09v-6.93h-2.29V335.2h.88a1.49,1.49,0,0,0,1.15-.36,1.69,1.69,0,0,0,.33-1.17V331.5h1.45v3.7H972v1.25h-2.63v6.78a1.7,1.7,0,0,0,.45,1.26A1.55,1.55,0,0,0,971,345h1v1.26Z"/>
            <path d="M976.42,337.23a3.25,3.25,0,0,1,1.34-1.55,4,4,0,0,1,2.1-.59v1.5a3.56,3.56,0,0,0-2.53.86,3.6,3.6,0,0,0-.9,2.7v6.06h-1.52v-11h1.51Z"/>
            <path d="M983.9,332a1.09,1.09,0,0,1-.81.34,1.07,1.07,0,0,1-.8-.34,1.1,1.1,0,0,1-.34-.81,1.07,1.07,0,0,1,.34-.81,1.14,1.14,0,0,1,.8-.33,1.16,1.16,0,0,1,.81.33,1.1,1.1,0,0,1,.33.81A1.13,1.13,0,0,1,983.9,332Zm-1.59,14.26v-11h1.54v11Z"/>
            <path d="M992.48,346.41a5.07,5.07,0,0,1-3.83-1.59,6.36,6.36,0,0,1,0-8.25,5.09,5.09,0,0,1,3.83-1.57,5.19,5.19,0,0,1,3,.92,4.92,4.92,0,0,1,1.86,2.56l-1.44.29a3.59,3.59,0,0,0-1.36-1.8,3.74,3.74,0,0,0-4.85.55,5.22,5.22,0,0,0,0,6.36,3.56,3.56,0,0,0,2.74,1.21,3.62,3.62,0,0,0,3.47-2.46l1.44.28a4.9,4.9,0,0,1-1.86,2.57A5.13,5.13,0,0,1,992.48,346.41Z"/>
            <path d="M1005,346.43a5.39,5.39,0,0,1-2.73-.7,5,5,0,0,1-1.93-2,6.23,6.23,0,0,1-.72-3,5.66,5.66,0,0,1,1.53-4.14,5.53,5.53,0,0,1,7.7,0,6.43,6.43,0,0,1,0,8.29A5.1,5.1,0,0,1,1005,346.43Zm-2.75-2.54a3.53,3.53,0,0,0,2.74,1.22,3.59,3.59,0,0,0,2.76-1.22,5.12,5.12,0,0,0,0-6.37,3.61,3.61,0,0,0-2.76-1.2,3.55,3.55,0,0,0-2.74,1.2,5.16,5.16,0,0,0,0,6.37Z"/>
            <path d="M1017,346.43a4.89,4.89,0,0,1-2.88-.81,3.29,3.29,0,0,1-1.39-2.25l1.36-.4a2.5,2.5,0,0,0,1,1.63,3.05,3.05,0,0,0,1.94.6,4,4,0,0,0,1.18-.17,2,2,0,0,0,.9-.61,1.64,1.64,0,0,0,.34-1.13,1.78,1.78,0,0,0-.15-.67,1.58,1.58,0,0,0-.38-.5,2.8,2.8,0,0,0-.6-.36,6.13,6.13,0,0,0-.75-.29l-.9-.26-.38-.1-1-.31a5,5,0,0,1-.85-.38,2.29,2.29,0,0,1-1.2-1.3,2.78,2.78,0,0,1-.19-1.06,2.65,2.65,0,0,1,1.06-2.28,4.46,4.46,0,0,1,2.67-.77,4.55,4.55,0,0,1,2.61.72,3,3,0,0,1,1.3,2.15l-1.31.35a2.21,2.21,0,0,0-.88-1.52,2.81,2.81,0,0,0-1.7-.52,3.7,3.7,0,0,0-.83.1,2.57,2.57,0,0,0-.72.31,1.53,1.53,0,0,0-.54.56,1.63,1.63,0,0,0-.21.83,1.46,1.46,0,0,0,.09.52,1.77,1.77,0,0,0,.19.39,1.17,1.17,0,0,0,.36.33,4.16,4.16,0,0,0,.41.24,2.85,2.85,0,0,0,.53.21l.55.16.61.16,1.07.29a7.46,7.46,0,0,1,1,.38,3,3,0,0,1,.86.58,2.79,2.79,0,0,1,.55.83,2.91,2.91,0,0,1,.22,1.17,2.74,2.74,0,0,1-1.11,2.39A4.64,4.64,0,0,1,1017,346.43Z"/>
            <path d="M1023.42,352l-.76-1a7.8,7.8,0,0,0,3.07-4,18.56,18.56,0,0,0,1.12-6.84,18.85,18.85,0,0,0-1.12-6.82,7.91,7.91,0,0,0-3.07-4.06l.76-1a9,9,0,0,1,3.48,4.48,22.19,22.19,0,0,1,0,14.8A9.07,9.07,0,0,1,1023.42,352Z"/>
          </g>
          <g>
            <path class="cls-19" d="M652.77,321a1,1,0,0,1-.69-1.67l3.7-3.7-3.7-3.7a1,1,0,1,1,1.38-1.38l4.39,4.39a1,1,0,0,1,0,1.38l-4.39,4.39a1,1,0,0,1-.69.29Z"/>
            <path d="M668.88,316.63a1,1,0,0,1-1-1v-.1a1,1,0,0,1,1-1,1,1,0,0,1,1,1v.14a1,1,0,0,1-1,1Z"/>
            <path class="cls-20" d="M643.19,326.64a15.62,15.62,0,1,1,26.27-14.54,1,1,0,1,1-1.9.43,13.67,13.67,0,1,0,0,6.07,1,1,0,0,1,1.9.43,15.64,15.64,0,0,1-26.28,7.61Z"/>
          </g>
        </g>
        <g>
          <g>
            <path d="M688.05,409.31V393.44H693a7.38,7.38,0,0,1,4,1,6.28,6.28,0,0,1,2.45,2.8,9.74,9.74,0,0,1,.81,4.1,10.42,10.42,0,0,1-.47,3.19,7.24,7.24,0,0,1-1.36,2.51,6.08,6.08,0,0,1-2.28,1.64,7.85,7.85,0,0,1-3.14.6Zm1.58-1.46h3.29a5.15,5.15,0,0,0,4.21-1.74,8.5,8.5,0,0,0,0-9.47,5.15,5.15,0,0,0-4.21-1.74h-3.29Z"/>
            <path d="M713.26,403.55l0,.47h-8.76a4.32,4.32,0,0,0,1.12,3.1,3.7,3.7,0,0,0,2.7,1.08,3.52,3.52,0,0,0,2-.58,3.87,3.87,0,0,0,1.38-1.58l1.36.36a5.12,5.12,0,0,1-1.87,2.28,5,5,0,0,1-2.81.84,5.1,5.1,0,0,1-3.84-1.54A5.78,5.78,0,0,1,703,403.8a6.79,6.79,0,0,1,.41-2.4,5,5,0,0,1,1.11-1.81,5.21,5.21,0,0,1,1.68-1.12,5.51,5.51,0,0,1,2.09-.39,4.8,4.8,0,0,1,3.61,1.42A5.62,5.62,0,0,1,713.26,403.55Zm-5-4.23a3.66,3.66,0,0,0-2.51.9,4.05,4.05,0,0,0-1.24,2.58h7.19a3.76,3.76,0,0,0-1-2.6A3.39,3.39,0,0,0,708.28,399.32Z"/>
            <path d="M722.16,398.09a4.69,4.69,0,0,1,3.6,1.6,5.81,5.81,0,0,1,1.47,4.11,5.89,5.89,0,0,1-1.47,4.14,4.71,4.71,0,0,1-3.6,1.59,4.31,4.31,0,0,1-2.44-.71,4.61,4.61,0,0,1-1.65-1.9l0,2.39h-1.5V391.84h1.51l0,8.82a4.43,4.43,0,0,1,4.07-2.57Zm-.32,10.08a3.58,3.58,0,0,0,2.75-1.22,5,5,0,0,0,0-6.29,3.56,3.56,0,0,0-2.75-1.23,3.5,3.5,0,0,0-2.72,1.27,4.48,4.48,0,0,0-1.12,3.1,4.54,4.54,0,0,0,1.11,3.11A3.5,3.5,0,0,0,721.84,408.17Z"/>
            <path d="M739.92,403.55l0,.47h-8.76a4.32,4.32,0,0,0,1.12,3.1,3.7,3.7,0,0,0,2.7,1.08,3.47,3.47,0,0,0,2-.58A3.82,3.82,0,0,0,738.3,406l1.36.36a5.14,5.14,0,0,1-1.88,2.28,4.91,4.91,0,0,1-2.8.84,5.1,5.1,0,0,1-3.84-1.54,5.78,5.78,0,0,1-1.49-4.18,6.79,6.79,0,0,1,.41-2.4,4.82,4.82,0,0,1,2.79-2.93,5.51,5.51,0,0,1,2.09-.39,4.81,4.81,0,0,1,3.61,1.42A5.62,5.62,0,0,1,739.92,403.55Zm-5-4.23a3.66,3.66,0,0,0-2.51.9,4.05,4.05,0,0,0-1.24,2.58h7.19a3.76,3.76,0,0,0-1-2.6A3.39,3.39,0,0,0,734.94,399.32Z"/>
            <path d="M753.67,409.5a5.11,5.11,0,0,1-3.83-1.58,6.39,6.39,0,0,1,0-8.25,5.11,5.11,0,0,1,3.83-1.58,5.18,5.18,0,0,1,3.06.93,5,5,0,0,1,1.86,2.55l-1.45.3a3.6,3.6,0,0,0-3.47-2.46,3.49,3.49,0,0,0-2.73,1.21,5.17,5.17,0,0,0,0,6.35,3.49,3.49,0,0,0,2.73,1.21,3.6,3.6,0,0,0,3.47-2.46l1.45.29a5,5,0,0,1-1.86,2.56A5.18,5.18,0,0,1,753.67,409.5Z"/>
            <path d="M766.15,409.52a5.43,5.43,0,0,1-2.73-.69,4.93,4.93,0,0,1-1.93-2,6.17,6.17,0,0,1-.72-3,5.68,5.68,0,0,1,1.52-4.13,5.51,5.51,0,0,1,7.7,0,5.68,5.68,0,0,1,1.52,4.13A5.76,5.76,0,0,1,770,408,5.1,5.1,0,0,1,766.15,409.52ZM763.39,407a3.74,3.74,0,0,0,5.51,0,4.63,4.63,0,0,0,1.11-3.2,4.53,4.53,0,0,0-1.11-3.17,3.74,3.74,0,0,0-5.51,0,4.53,4.53,0,0,0-1.1,3.17A4.62,4.62,0,0,0,763.39,407Z"/>
            <path d="M779.55,398.09a3.64,3.64,0,0,1,2.67,1,3.74,3.74,0,0,1,1,2.81v7.41h-1.52v-7.07a2.86,2.86,0,0,0-.72-2.13,2.51,2.51,0,0,0-1.83-.7,2.73,2.73,0,0,0-2,.81,3.17,3.17,0,0,0-.79,2.32v6.77H774.8v-11h1.54v1.49A3.53,3.53,0,0,1,779.55,398.09Z"/>
            <path d="M790.57,409.31a2.76,2.76,0,0,1-2-.75,2.8,2.8,0,0,1-.75-2.09v-6.92H785.5V398.3h.87a1.53,1.53,0,0,0,1.16-.36,1.77,1.77,0,0,0,.32-1.18v-2.17h1.46v3.71h2.62v1.25h-2.62v6.78a1.7,1.7,0,0,0,.45,1.26,1.54,1.54,0,0,0,1.16.45h1v1.27Z"/>
            <path d="M797.2,409.52a3.6,3.6,0,0,1-2.4-.77,2.77,2.77,0,0,1-.92-2.25,3.13,3.13,0,0,1,.29-1.42,2.48,2.48,0,0,1,.86-1,4.82,4.82,0,0,1,1.29-.62,10.84,10.84,0,0,1,1.69-.4l1.85-.28a1,1,0,0,0,1-1,2.19,2.19,0,0,0-.74-1.82,2.92,2.92,0,0,0-1.88-.59,3.11,3.11,0,0,0-1.83.53,2.22,2.22,0,0,0-.87,1.6l-1.4-.34a3.25,3.25,0,0,1,1.33-2.26,4.82,4.82,0,0,1,2.82-.77,5.5,5.5,0,0,1,1.56.21,4.33,4.33,0,0,1,1.29.64,2.86,2.86,0,0,1,.89,1.17,4.29,4.29,0,0,1,.33,1.74v4.74a2,2,0,0,0,.27,1.23,1.16,1.16,0,0,0,.9.3h.18v1.18h-.8a1.77,1.77,0,0,1-2-1.52h-.06A4.27,4.27,0,0,1,797.2,409.52Zm.35-1.27a3,3,0,0,0,2.49-1.18,5.22,5.22,0,0,0,.91-3.28l-3,.52a4.4,4.4,0,0,0-2,.69,1.62,1.62,0,0,0-.63,1.38,1.67,1.67,0,0,0,.6,1.41A2.45,2.45,0,0,0,797.55,408.25Z"/>
            <path d="M808.12,400.32a3.19,3.19,0,0,1,1.34-1.54,4.15,4.15,0,0,1,2.1-.6v1.51a3.5,3.5,0,0,0-2.53.86,3.59,3.59,0,0,0-.9,2.7v6.06H806.6v-11h1.52Z"/>
            <path d="M824.47,409.5a5.11,5.11,0,0,1-3.83-1.58,6.39,6.39,0,0,1,0-8.25,5.45,5.45,0,0,1,6.88-.65,4.93,4.93,0,0,1,1.86,2.55l-1.44.3a3.6,3.6,0,0,0-3.47-2.46,3.49,3.49,0,0,0-2.73,1.21,5.17,5.17,0,0,0,0,6.35,3.49,3.49,0,0,0,2.73,1.21,3.6,3.6,0,0,0,3.47-2.46l1.44.29a4.88,4.88,0,0,1-1.86,2.56A5.13,5.13,0,0,1,824.47,409.5Z"/>
            <path d="M837,409.52a5.43,5.43,0,0,1-2.73-.69,4.93,4.93,0,0,1-1.93-2,6.17,6.17,0,0,1-.72-3,5.68,5.68,0,0,1,1.52-4.13,5.51,5.51,0,0,1,7.7,0,5.68,5.68,0,0,1,1.51,4.13,5.75,5.75,0,0,1-1.51,4.16A5.13,5.13,0,0,1,837,409.52ZM834.19,407a3.73,3.73,0,0,0,5.5,0,4.58,4.58,0,0,0,1.11-3.2,4.49,4.49,0,0,0-1.11-3.17,3.73,3.73,0,0,0-5.5,0,4.53,4.53,0,0,0-1.1,3.17A4.62,4.62,0,0,0,834.19,407Z"/>
            <path d="M850.35,398.09a3.64,3.64,0,0,1,2.67,1,3.74,3.74,0,0,1,1,2.81v7.41h-1.52v-7.07a2.86,2.86,0,0,0-.72-2.13,2.54,2.54,0,0,0-1.83-.7,2.73,2.73,0,0,0-2,.81,3.17,3.17,0,0,0-.79,2.32v6.77H845.6v-11h1.54v1.49A3.52,3.52,0,0,1,850.35,398.09Z"/>
            <path d="M869.7,398.09a4.69,4.69,0,0,1,3.6,1.6,5.78,5.78,0,0,1,1.48,4.11,5.89,5.89,0,0,1-1.47,4.14,4.72,4.72,0,0,1-3.61,1.59,4.27,4.27,0,0,1-2.43-.71,4.61,4.61,0,0,1-1.65-1.9l0,2.39h-1.5V391.84h1.51l0,8.82a4.44,4.44,0,0,1,1.64-1.87A4.34,4.34,0,0,1,869.7,398.09Zm-.32,10.08a3.61,3.61,0,0,0,2.76-1.22,5,5,0,0,0,0-6.29,3.58,3.58,0,0,0-2.76-1.23,3.53,3.53,0,0,0-2.72,1.27,4.86,4.86,0,0,0,0,6.21A3.49,3.49,0,0,0,869.38,408.17Z"/>
            <path d="M880.58,409.52a3.6,3.6,0,0,1-2.4-.77,2.74,2.74,0,0,1-.92-2.25,3.13,3.13,0,0,1,.29-1.42,2.48,2.48,0,0,1,.86-1,4.82,4.82,0,0,1,1.29-.62,11,11,0,0,1,1.68-.4l1.86-.28a1,1,0,0,0,1-1,2.19,2.19,0,0,0-.73-1.82,2.93,2.93,0,0,0-1.88-.59,3.11,3.11,0,0,0-1.83.53,2.22,2.22,0,0,0-.87,1.6l-1.4-.34a3.22,3.22,0,0,1,1.33-2.26,4.81,4.81,0,0,1,2.81-.77,5.52,5.52,0,0,1,1.57.21,4.33,4.33,0,0,1,1.29.64,2.94,2.94,0,0,1,.89,1.17,4.29,4.29,0,0,1,.32,1.74v4.74a2,2,0,0,0,.28,1.23,1.16,1.16,0,0,0,.9.3h.18v1.18h-.8a1.77,1.77,0,0,1-2-1.52h-.07A4.24,4.24,0,0,1,880.58,409.52Zm.35-1.27a3,3,0,0,0,2.48-1.18,5.22,5.22,0,0,0,.92-3.28l-3,.52a4.4,4.4,0,0,0-2,.69,1.62,1.62,0,0,0-.63,1.38,1.67,1.67,0,0,0,.6,1.41A2.43,2.43,0,0,0,880.93,408.25Z"/>
            <path d="M893.33,409.52a4.9,4.9,0,0,1-2.89-.81,3.25,3.25,0,0,1-1.39-2.25l1.36-.39a2.53,2.53,0,0,0,1,1.63,3.05,3.05,0,0,0,1.94.59,3.66,3.66,0,0,0,1.18-.17,1.89,1.89,0,0,0,.9-.61,1.62,1.62,0,0,0,.34-1.13,1.47,1.47,0,0,0-.15-.67,1.41,1.41,0,0,0-.38-.49,2.46,2.46,0,0,0-.6-.37,6.09,6.09,0,0,0-.75-.28l-.9-.27-.38-.1c-.38-.11-.7-.21-.95-.3a7.31,7.31,0,0,1-.85-.38A2.79,2.79,0,0,1,890,403a2.65,2.65,0,0,1-.46-.76,2.71,2.71,0,0,1-.19-1.06,2.62,2.62,0,0,1,1.06-2.27,4.4,4.4,0,0,1,2.67-.78,4.48,4.48,0,0,1,2.61.73A3,3,0,0,1,897,401l-1.31.35a2.21,2.21,0,0,0-.88-1.52,2.87,2.87,0,0,0-1.7-.51,3.12,3.12,0,0,0-.82.1,2.51,2.51,0,0,0-.73.31,1.39,1.39,0,0,0-.54.56,1.59,1.59,0,0,0-.21.82,1.42,1.42,0,0,0,.09.52,2.14,2.14,0,0,0,.19.4,1,1,0,0,0,.36.32l.41.25a4.13,4.13,0,0,0,.53.2l.55.17.61.16c.45.11.81.21,1.07.29a5.84,5.84,0,0,1,1,.38,3,3,0,0,1,.87.57,2.71,2.71,0,0,1,.54.83,3,3,0,0,1,.23,1.18,2.74,2.74,0,0,1-1.11,2.38A4.66,4.66,0,0,1,893.33,409.52Z"/>
            <path d="M909.93,403.55l0,.47h-8.76a4.32,4.32,0,0,0,1.12,3.1,3.66,3.66,0,0,0,2.7,1.08,3.49,3.49,0,0,0,2-.58A3.73,3.73,0,0,0,908.3,406l1.37.36a5.14,5.14,0,0,1-1.88,2.28,4.92,4.92,0,0,1-2.81.84,5.08,5.08,0,0,1-3.83-1.54,5.78,5.78,0,0,1-1.49-4.18,7,7,0,0,1,.4-2.4,5.06,5.06,0,0,1,1.12-1.81,5,5,0,0,1,1.68-1.12,5.51,5.51,0,0,1,2.09-.39,4.79,4.79,0,0,1,3.6,1.42A5.67,5.67,0,0,1,909.93,403.55Zm-5-4.23a3.66,3.66,0,0,0-2.51.9,4,4,0,0,0-1.24,2.58h7.18a3.72,3.72,0,0,0-1-2.6A3.36,3.36,0,0,0,905,399.32Z"/>
            <path d="M929.89,398.09a3.33,3.33,0,0,1,2.46,1,3.52,3.52,0,0,1,.95,2.63v7.64h-1.53v-7.26a2.79,2.79,0,0,0-.64-2,2.19,2.19,0,0,0-1.63-.67,2.26,2.26,0,0,0-1.76.74,3.12,3.12,0,0,0-.66,2.14v7h-1.54v-7.16a2.84,2.84,0,0,0-.66-2,2.17,2.17,0,0,0-1.66-.7,2.24,2.24,0,0,0-1.75.75,3.16,3.16,0,0,0-.67,2.16v7h-1.53v-11h1.53v1.49a3.22,3.22,0,0,1,1.22-1.26,3.42,3.42,0,0,1,1.73-.44,3.32,3.32,0,0,1,1.81.49,2.91,2.91,0,0,1,1.19,1.39,3.32,3.32,0,0,1,1.28-1.39A3.49,3.49,0,0,1,929.89,398.09Z"/>
            <path d="M946.71,403.55l0,.47h-8.76a4.32,4.32,0,0,0,1.12,3.1,3.68,3.68,0,0,0,2.7,1.08,3.49,3.49,0,0,0,2-.58,3.82,3.82,0,0,0,1.39-1.58l1.36.36a5.14,5.14,0,0,1-1.88,2.28,4.92,4.92,0,0,1-2.81.84,5.09,5.09,0,0,1-3.83-1.54,5.78,5.78,0,0,1-1.49-4.18,6.79,6.79,0,0,1,.41-2.4,4.9,4.9,0,0,1,1.11-1.81,5,5,0,0,1,1.68-1.12,5.51,5.51,0,0,1,2.09-.39,4.81,4.81,0,0,1,3.61,1.42A5.67,5.67,0,0,1,946.71,403.55Zm-5-4.23a3.66,3.66,0,0,0-2.51.9A4,4,0,0,0,938,402.8h7.19a3.81,3.81,0,0,0-1-2.6A3.39,3.39,0,0,0,941.73,399.32Z"/>
            <path d="M953.32,409.31a2.76,2.76,0,0,1-2-.75,2.8,2.8,0,0,1-.75-2.09v-6.92h-2.28V398.3h.87a1.52,1.52,0,0,0,1.16-.36,1.77,1.77,0,0,0,.32-1.18v-2.17h1.46v3.71h2.62v1.25h-2.62v6.78a1.7,1.7,0,0,0,.45,1.26,1.56,1.56,0,0,0,1.16.45h1v1.27Z"/>
            <path d="M960,409.52a3.56,3.56,0,0,1-2.39-.77,2.74,2.74,0,0,1-.93-2.25,3.27,3.27,0,0,1,.29-1.42,2.48,2.48,0,0,1,.86-1,5,5,0,0,1,1.29-.62,11.12,11.12,0,0,1,1.69-.4l1.85-.28a1,1,0,0,0,1-1,2.19,2.19,0,0,0-.74-1.82,2.92,2.92,0,0,0-1.88-.59,3.06,3.06,0,0,0-1.82.53,2.16,2.16,0,0,0-.87,1.6l-1.4-.34a3.21,3.21,0,0,1,1.32-2.26,4.82,4.82,0,0,1,2.82-.77,5.57,5.57,0,0,1,1.57.21,4.39,4.39,0,0,1,1.28.64,2.86,2.86,0,0,1,.89,1.17,4.29,4.29,0,0,1,.33,1.74v4.74a2,2,0,0,0,.27,1.23,1.16,1.16,0,0,0,.9.3h.18v1.18h-.79a1.77,1.77,0,0,1-2-1.52h-.07A4.26,4.26,0,0,1,960,409.52Zm.35-1.27a3,3,0,0,0,2.49-1.18,5.22,5.22,0,0,0,.91-3.28l-3,.52a4.4,4.4,0,0,0-2,.69,1.62,1.62,0,0,0-.63,1.38,1.67,1.67,0,0,0,.6,1.41A2.47,2.47,0,0,0,960.3,408.25Zm.38-12,2.82-3.56.86.65-2.54,2.91Z"/>
            <path d="M969.36,409.31V391.84h1.54v17.47Z"/>
            <path d="M976.7,395a1.09,1.09,0,0,1-.8.35,1.11,1.11,0,0,1-.81-.35,1.12,1.12,0,0,1,0-1.61,1.13,1.13,0,0,1,.81-.33,1.13,1.13,0,0,1,1.13,1.14A1.09,1.09,0,0,1,976.7,395Zm-1.59,14.27v-11h1.54v11Z"/>
            <path d="M985.28,409.5a5.1,5.1,0,0,1-3.83-1.58,6.36,6.36,0,0,1,0-8.25,5.45,5.45,0,0,1,6.88-.65,4.93,4.93,0,0,1,1.86,2.55l-1.44.3a3.62,3.62,0,0,0-3.47-2.46,3.53,3.53,0,0,0-2.74,1.21,5.21,5.21,0,0,0,0,6.35,3.53,3.53,0,0,0,2.74,1.21,3.62,3.62,0,0,0,3.47-2.46l1.44.29a4.88,4.88,0,0,1-1.86,2.56A5.13,5.13,0,0,1,985.28,409.5Z"/>
            <path d="M995.78,409.52a3.6,3.6,0,0,1-2.4-.77,2.74,2.74,0,0,1-.93-2.25,3.27,3.27,0,0,1,.29-1.42,2.59,2.59,0,0,1,.87-1,4.9,4.9,0,0,1,1.28-.62,11.42,11.42,0,0,1,1.69-.4l1.86-.28a1,1,0,0,0,.95-1,2.19,2.19,0,0,0-.73-1.82,2.93,2.93,0,0,0-1.88-.59,3.11,3.11,0,0,0-1.83.53,2.16,2.16,0,0,0-.87,1.6l-1.4-.34a3.22,3.22,0,0,1,1.33-2.26,4.81,4.81,0,0,1,2.81-.77,5.57,5.57,0,0,1,1.57.21,4.33,4.33,0,0,1,1.29.64,2.94,2.94,0,0,1,.89,1.17,4.29,4.29,0,0,1,.32,1.74v4.74a1.91,1.91,0,0,0,.28,1.23,1.15,1.15,0,0,0,.89.3h.19v1.18h-.8a1.77,1.77,0,0,1-2-1.52h-.07A4.24,4.24,0,0,1,995.78,409.52Zm.35-1.27a3,3,0,0,0,2.48-1.18,5.22,5.22,0,0,0,.92-3.28l-3,.52a4.4,4.4,0,0,0-1.95.69,1.62,1.62,0,0,0-.63,1.38,1.69,1.69,0,0,0,.59,1.41A2.48,2.48,0,0,0,996.13,408.25Z"/>
            <path d="M1021.85,398.09a3.37,3.37,0,0,1,2.47,1,3.56,3.56,0,0,1,1,2.63v7.64h-1.54v-7.26a2.75,2.75,0,0,0-.64-2,2.18,2.18,0,0,0-1.62-.67,2.23,2.23,0,0,0-1.76.74,3.12,3.12,0,0,0-.66,2.14v7h-1.55v-7.16a2.84,2.84,0,0,0-.66-2,2.15,2.15,0,0,0-1.66-.7,2.23,2.23,0,0,0-1.74.75,3.11,3.11,0,0,0-.67,2.16v7h-1.54v-11h1.54v1.49a3.2,3.2,0,0,1,1.21-1.26,3.45,3.45,0,0,1,1.73-.44,3.35,3.35,0,0,1,1.82.49,3,3,0,0,1,1.19,1.39,3.26,3.26,0,0,1,1.28-1.39A3.48,3.48,0,0,1,1021.85,398.09Z"/>
            <path d="M1033.76,409.52a5.43,5.43,0,0,1-2.73-.69,5,5,0,0,1-1.93-2,6.17,6.17,0,0,1-.72-3,5.65,5.65,0,0,1,1.53-4.13,5.51,5.51,0,0,1,7.7,0,6.43,6.43,0,0,1,0,8.29A5.1,5.1,0,0,1,1033.76,409.52ZM1031,407a3.74,3.74,0,0,0,5.51,0,4.58,4.58,0,0,0,1.11-3.2,4.49,4.49,0,0,0-1.11-3.17,3.74,3.74,0,0,0-5.51,0,4.52,4.52,0,0,0-1.09,3.17A4.62,4.62,0,0,0,1031,407Zm2.09-10.72,2.82-3.56.87.65-2.55,2.91Z"/>
            <path d="M1048.74,398.3h1.64l-4.4,11h-1.28l-4.4-11h1.64l3.4,9.18Z"/>
            <path d="M1054.5,395a1.08,1.08,0,0,1-.8.35,1.15,1.15,0,0,1-.81-2,1.13,1.13,0,0,1,.81-.33,1.09,1.09,0,0,1,.8.33,1.12,1.12,0,0,1,0,1.61Zm-1.58,14.27v-11h1.53v11Z"/>
            <path d="M1058.67,409.31V391.84h1.55v17.47Z"/>
          </g>
          <g>
            <path class="cls-19" d="M652.77,406a1,1,0,0,1-.69-1.66l3.7-3.71-3.7-3.7a1,1,0,1,1,1.38-1.38l4.39,4.39a1,1,0,0,1,0,1.38l-4.39,4.4a1,1,0,0,1-.69.28Z"/>
            <path d="M668.88,401.63a1,1,0,0,1-1-1v-.11a1,1,0,0,1,1-1,1,1,0,0,1,1,1v.15a1,1,0,0,1-1,1Z"/>
            <path class="cls-20" d="M643.19,411.64a15.62,15.62,0,1,1,26.27-14.54,1,1,0,1,1-1.9.44,13.67,13.67,0,1,0,0,6.07,1,1,0,1,1,1.9.43,15.64,15.64,0,0,1-26.28,7.6Z"/>
          </g>
        </g>
        <g>
          <g>
            <path d="M693.34,470.67a6.28,6.28,0,0,1-2.87-.64,4.9,4.9,0,0,1-2-1.87,5.46,5.46,0,0,1-.74-2.86V454.59h1.58v10.48a3.8,3.8,0,0,0,4,4.13,4.11,4.11,0,0,0,2.93-1.08,4,4,0,0,0,1.14-3.05V454.59H699V465.3a5,5,0,0,1-1.6,3.91A5.76,5.76,0,0,1,693.34,470.67Z"/>
            <path d="M709,459.24a4.71,4.71,0,0,1,3.6,1.59,6.54,6.54,0,0,1,0,8.25,4.7,4.7,0,0,1-3.61,1.6,4.35,4.35,0,0,1-2.43-.71,4.58,4.58,0,0,1-1.65-1.91l0,2.39h-1.5V453h1.52l0,8.83a4.46,4.46,0,0,1,1.64-1.88A4.42,4.42,0,0,1,709,459.24Zm-.32,10.08a3.56,3.56,0,0,0,2.75-1.23,5,5,0,0,0,0-6.29,3.58,3.58,0,0,0-2.75-1.22,3.49,3.49,0,0,0-2.72,1.26,4.88,4.88,0,0,0,0,6.21A3.52,3.52,0,0,0,708.69,469.32Z"/>
            <path d="M719,456.19a1.07,1.07,0,0,1-.8.34,1.16,1.16,0,0,1-1.15-1.15,1.07,1.07,0,0,1,.34-.8,1.13,1.13,0,0,1,.81-.33,1.13,1.13,0,0,1,1.13,1.13A1.13,1.13,0,0,1,719,456.19Zm-1.59,14.26v-11h1.54v11Z"/>
            <path d="M727.56,470.65a5.11,5.11,0,0,1-3.83-1.58,6.4,6.4,0,0,1,0-8.26,5.46,5.46,0,0,1,6.88-.64,4.89,4.89,0,0,1,1.86,2.55L731,463a3.63,3.63,0,0,0-1.35-1.8,3.59,3.59,0,0,0-2.12-.65,3.55,3.55,0,0,0-2.74,1.2,5.22,5.22,0,0,0,0,6.36,3.56,3.56,0,0,0,2.74,1.21,3.6,3.6,0,0,0,3.47-2.46l1.44.29a4.92,4.92,0,0,1-1.86,2.56A5.13,5.13,0,0,1,727.56,470.65Z"/>
            <path d="M738.06,470.67a3.66,3.66,0,0,1-2.4-.77,2.78,2.78,0,0,1-.92-2.26,3.12,3.12,0,0,1,.29-1.41,2.48,2.48,0,0,1,.86-1,5.16,5.16,0,0,1,1.29-.63,12.4,12.4,0,0,1,1.68-.39l1.86-.28a1,1,0,0,0,.95-1,2.19,2.19,0,0,0-.73-1.82,2.93,2.93,0,0,0-1.88-.59,3.11,3.11,0,0,0-1.83.53,2.19,2.19,0,0,0-.87,1.6l-1.4-.34a3.23,3.23,0,0,1,1.33-2.26,4.81,4.81,0,0,1,2.81-.77,5.52,5.52,0,0,1,1.57.21,3.9,3.9,0,0,1,1.29.64,2.81,2.81,0,0,1,.89,1.17,4.24,4.24,0,0,1,.33,1.73v4.75a1.93,1.93,0,0,0,.27,1.22,1.13,1.13,0,0,0,.9.31h.18v1.17h-.8a1.76,1.76,0,0,1-2-1.51h-.07A4.27,4.27,0,0,1,738.06,470.67Zm.35-1.27a3,3,0,0,0,2.48-1.18,5.18,5.18,0,0,0,.92-3.28l-3,.52a4.4,4.4,0,0,0-2,.68,1.89,1.89,0,0,0,0,2.79A2.44,2.44,0,0,0,738.41,469.4Z"/>
            <path d="M751.65,470.65a5.1,5.1,0,0,1-3.83-1.58,6.37,6.37,0,0,1,0-8.26,5.46,5.46,0,0,1,6.88-.64,4.89,4.89,0,0,1,1.86,2.55l-1.44.29a3.65,3.65,0,0,0-1.36-1.8,3.74,3.74,0,0,0-4.85.55,5.22,5.22,0,0,0,0,6.36,3.56,3.56,0,0,0,2.74,1.21,3.61,3.61,0,0,0,2.11-.65,3.68,3.68,0,0,0,1.36-1.81l1.44.29a4.92,4.92,0,0,1-1.86,2.56A5.13,5.13,0,0,1,751.65,470.65Z"/>
            <path d="M761.24,456.19a1.07,1.07,0,0,1-.8.34,1.16,1.16,0,0,1-1.15-1.15,1.07,1.07,0,0,1,.34-.8,1.13,1.13,0,0,1,.81-.33,1.09,1.09,0,0,1,.8.33,1.07,1.07,0,0,1,.34.8A1.1,1.1,0,0,1,761.24,456.19Zm-1.58,14.26v-11h1.53v11Z"/>
            <path d="M769.88,470.67a5.43,5.43,0,0,1-2.73-.69,5.05,5.05,0,0,1-1.93-2,6.23,6.23,0,0,1-.72-3A5.71,5.71,0,0,1,766,460.8a5.19,5.19,0,0,1,3.86-1.56,5.11,5.11,0,0,1,3.84,1.56,6.41,6.41,0,0,1,0,8.29A5.1,5.1,0,0,1,769.88,470.67Zm-2.76-2.54a3.72,3.72,0,0,0,5.51,0,5.12,5.12,0,0,0,0-6.37,3.76,3.76,0,0,0-5.51,0,5.16,5.16,0,0,0,0,6.37Zm2.09-10.71,2.82-3.56.86.65-2.54,2.91Z"/>
            <path d="M783.28,459.24a3.67,3.67,0,0,1,2.67,1,3.78,3.78,0,0,1,1,2.82v7.4h-1.52v-7.06a2.84,2.84,0,0,0-.72-2.13,2.47,2.47,0,0,0-1.83-.7,2.73,2.73,0,0,0-2,.81,3.15,3.15,0,0,0-.79,2.32v6.76h-1.53v-11h1.53v1.49A3.52,3.52,0,0,1,783.28,459.24Z"/>
            <path d="M799.52,470.67a3.61,3.61,0,0,1-2.39-.77,2.75,2.75,0,0,1-.93-2.26,3.12,3.12,0,0,1,.29-1.41,2.48,2.48,0,0,1,.86-1,5.16,5.16,0,0,1,1.29-.63,12.22,12.22,0,0,1,1.69-.39l1.85-.28c.64-.12,1-.46,1-1a2.19,2.19,0,0,0-.74-1.82,2.92,2.92,0,0,0-1.88-.59,3.11,3.11,0,0,0-1.83.53,2.19,2.19,0,0,0-.87,1.6l-1.39-.34a3.19,3.19,0,0,1,1.32-2.26,4.82,4.82,0,0,1,2.82-.77,5.5,5.5,0,0,1,1.56.21,3.9,3.9,0,0,1,1.29.64,2.73,2.73,0,0,1,.89,1.17,4.24,4.24,0,0,1,.33,1.73v4.75a1.93,1.93,0,0,0,.27,1.22,1.13,1.13,0,0,0,.9.31H806v1.17h-.8a1.75,1.75,0,0,1-2-1.51h-.07A4.3,4.3,0,0,1,799.52,470.67Zm.35-1.27a3,3,0,0,0,2.49-1.18,5.24,5.24,0,0,0,.91-3.28l-3,.52a4.4,4.4,0,0,0-1.95.68,1.89,1.89,0,0,0,0,2.79A2.48,2.48,0,0,0,799.87,469.4Z"/>
            <path d="M819.61,454.59H821v15.86h-1.51V456.33l-3.86,3.27v-1.68Z"/>
            <path d="M831.75,460.27a5.92,5.92,0,0,1,4.24,1.36,5,5,0,0,1,1.4,3.72,5.24,5.24,0,0,1-1.45,3.81,5,5,0,0,1-3.77,1.49,5.86,5.86,0,0,1-1.92-.32,5.45,5.45,0,0,1-1.64-.9,4.06,4.06,0,0,1-1.15-1.55,5.18,5.18,0,0,1-.43-2.16c0-.15,0-.42.05-.82l1.6-.18a9.22,9.22,0,0,0-.09,1,4.05,4.05,0,0,0,.21,1.34,3.05,3.05,0,0,0,.56,1,3.25,3.25,0,0,0,.81.66,3.59,3.59,0,0,0,1,.39,4.74,4.74,0,0,0,1,.11,3.55,3.55,0,0,0,2.68-1.07,3.79,3.79,0,0,0,1-2.73,3.62,3.62,0,0,0-1-2.72,4.37,4.37,0,0,0-3.17-1h-4l1.1-7.06h8v1.46H830l-.66,4.2Z"/>
            <path d="M851.12,470.65a5.1,5.1,0,0,1-3.83-1.58,6.37,6.37,0,0,1,0-8.26,5.46,5.46,0,0,1,6.88-.64,4.89,4.89,0,0,1,1.86,2.55l-1.44.29a3.59,3.59,0,0,0-1.36-1.8,3.74,3.74,0,0,0-4.85.55,5.22,5.22,0,0,0,0,6.36,3.56,3.56,0,0,0,2.74,1.21,3.62,3.62,0,0,0,3.47-2.46l1.44.29a4.92,4.92,0,0,1-1.86,2.56A5.13,5.13,0,0,1,851.12,470.65Z"/>
            <path d="M869.75,459.24a3.32,3.32,0,0,1,2.46.94,3.57,3.57,0,0,1,.95,2.64v7.63h-1.53V463.2a2.74,2.74,0,0,0-.65-2,2.14,2.14,0,0,0-1.62-.67,2.23,2.23,0,0,0-1.76.74,3.1,3.1,0,0,0-.66,2.14v7h-1.55V463.3a2.91,2.91,0,0,0-.65-2.05,2.2,2.2,0,0,0-1.67-.69,2.26,2.26,0,0,0-1.74.74,3.13,3.13,0,0,0-.67,2.17v7h-1.53v-11h1.53v1.49a3.19,3.19,0,0,1,1.22-1.25,3.64,3.64,0,0,1,3.54,0,3,3,0,0,1,1.19,1.4,3.35,3.35,0,0,1,1.28-1.4A3.58,3.58,0,0,1,869.75,459.24Z"/>
            <path d="M891.48,453H893v17.47h-1.49l0-2.39a4.61,4.61,0,0,1-1.65,1.9,4.27,4.27,0,0,1-2.42.72,4.91,4.91,0,0,1-2-.41,5.06,5.06,0,0,1-1.62-1.16,5.38,5.38,0,0,1-1.09-1.82,6.61,6.61,0,0,1-.4-2.34,6.4,6.4,0,0,1,.41-2.34,5.5,5.5,0,0,1,1.09-1.81,5,5,0,0,1,1.63-1.15,4.85,4.85,0,0,1,2-.41,4.41,4.41,0,0,1,2.42.69,4.46,4.46,0,0,1,1.64,1.88Zm-3.75,16.34a3.51,3.51,0,0,0,2.73-1.27,4.87,4.87,0,0,0,0-6.2,3.47,3.47,0,0,0-2.72-1.27A3.58,3.58,0,0,0,885,461.8a5,5,0,0,0,0,6.29A3.56,3.56,0,0,0,887.73,469.32Z"/>
            <path d="M906.61,464.7l0,.46h-8.76a4.25,4.25,0,0,0,1.12,3.1,3.63,3.63,0,0,0,2.7,1.09,3.49,3.49,0,0,0,2-.58,3.79,3.79,0,0,0,1.38-1.58l1.37.35a5.23,5.23,0,0,1-1.88,2.29,4.92,4.92,0,0,1-2.81.84,5.08,5.08,0,0,1-3.83-1.54,5.78,5.78,0,0,1-1.49-4.18,6.89,6.89,0,0,1,.4-2.41,5,5,0,0,1,1.12-1.8,4.72,4.72,0,0,1,1.68-1.12,5.51,5.51,0,0,1,2.09-.39,4.75,4.75,0,0,1,3.6,1.42A5.67,5.67,0,0,1,906.61,464.7Zm-5-4.23a3.65,3.65,0,0,0-2.51.9,4,4,0,0,0-1.25,2.58h7.19a3.74,3.74,0,0,0-1-2.6A3.32,3.32,0,0,0,901.63,460.47Z"/>
            <path d="M916,470.45V453h1.54v17.47Z"/>
            <path d="M924.19,470.67a3.65,3.65,0,0,1-2.39-.77,2.75,2.75,0,0,1-.93-2.26,3.25,3.25,0,0,1,.29-1.41,2.43,2.43,0,0,1,.87-1,5.26,5.26,0,0,1,1.28-.63,12.94,12.94,0,0,1,1.69-.39l1.85-.28c.64-.12,1-.46,1-1a2.22,2.22,0,0,0-.73-1.82,2.94,2.94,0,0,0-1.89-.59,3.06,3.06,0,0,0-1.82.53,2.12,2.12,0,0,0-.87,1.6l-1.4-.34a3.19,3.19,0,0,1,1.32-2.26,4.84,4.84,0,0,1,2.82-.77,5.57,5.57,0,0,1,1.57.21,3.85,3.85,0,0,1,1.28.64,2.83,2.83,0,0,1,.9,1.17,4.41,4.41,0,0,1,.32,1.73v4.75a1.93,1.93,0,0,0,.27,1.22,1.14,1.14,0,0,0,.9.31h.18v1.17h-.79a1.76,1.76,0,0,1-2-1.51h-.07A4.27,4.27,0,0,1,924.19,470.67Zm.36-1.27a3,3,0,0,0,2.48-1.18,5.24,5.24,0,0,0,.92-3.28l-3,.52a4.4,4.4,0,0,0-2,.68,1.62,1.62,0,0,0-.64,1.39,1.64,1.64,0,0,0,.6,1.4A2.49,2.49,0,0,0,924.55,469.4Z"/>
            <path d="M945.23,459.24a4.74,4.74,0,0,1,3.62,1.57,6.58,6.58,0,0,1,0,8.29,4.75,4.75,0,0,1-3.62,1.58,4.29,4.29,0,0,1-2.4-.7,4.62,4.62,0,0,1-1.65-1.88v8h-1.53V459.44h1.5l0,2.38a4.42,4.42,0,0,1,1.65-1.88A4.33,4.33,0,0,1,945.23,459.24ZM945,469.32a3.55,3.55,0,0,0,2.71-1.2,4.49,4.49,0,0,0,1.11-3.17,4.42,4.42,0,0,0-1.11-3.15,3.66,3.66,0,0,0-5.47.06,4.8,4.8,0,0,0,0,6.19A3.6,3.6,0,0,0,945,469.32Z"/>
            <path d="M956.13,470.67a3.66,3.66,0,0,1-2.4-.77,2.78,2.78,0,0,1-.92-2.26,3.12,3.12,0,0,1,.29-1.41,2.48,2.48,0,0,1,.86-1,5.16,5.16,0,0,1,1.29-.63,12.22,12.22,0,0,1,1.69-.39l1.85-.28c.64-.12,1-.46,1-1a2.19,2.19,0,0,0-.74-1.82,2.93,2.93,0,0,0-1.88-.59,3.11,3.11,0,0,0-1.83.53,2.19,2.19,0,0,0-.87,1.6l-1.4-.34a3.23,3.23,0,0,1,1.33-2.26,4.82,4.82,0,0,1,2.82-.77,5.5,5.5,0,0,1,1.56.21,3.9,3.9,0,0,1,1.29.64,2.73,2.73,0,0,1,.89,1.17,4.24,4.24,0,0,1,.33,1.73v4.75a1.93,1.93,0,0,0,.27,1.22,1.13,1.13,0,0,0,.9.31h.18v1.17h-.8a1.76,1.76,0,0,1-2-1.51h-.06A4.3,4.3,0,0,1,956.13,470.67Zm.35-1.27a3,3,0,0,0,2.49-1.18,5.24,5.24,0,0,0,.91-3.28l-3,.52a4.4,4.4,0,0,0-1.95.68,1.89,1.89,0,0,0,0,2.79A2.46,2.46,0,0,0,956.48,469.4Z"/>
            <path d="M967.05,461.47a3.25,3.25,0,0,1,1.34-1.55,4.14,4.14,0,0,1,2.1-.59v1.5a3.5,3.5,0,0,0-2.53.87,3.56,3.56,0,0,0-.9,2.69v6.06h-1.53v-11h1.52Z"/>
            <path d="M982.14,464.7l0,.46h-8.76a4.25,4.25,0,0,0,1.12,3.1,3.63,3.63,0,0,0,2.7,1.09,3.49,3.49,0,0,0,2-.58,3.79,3.79,0,0,0,1.38-1.58l1.37.35a5.17,5.17,0,0,1-1.88,2.29,4.92,4.92,0,0,1-2.81.84,5.08,5.08,0,0,1-3.83-1.54,5.78,5.78,0,0,1-1.49-4.18,6.89,6.89,0,0,1,.4-2.41,5,5,0,0,1,1.12-1.8,4.72,4.72,0,0,1,1.68-1.12,5.51,5.51,0,0,1,2.09-.39,4.75,4.75,0,0,1,3.6,1.42A5.67,5.67,0,0,1,982.14,464.7Zm-5-4.23a3.65,3.65,0,0,0-2.51.9A4,4,0,0,0,973.4,464h7.19a3.74,3.74,0,0,0-1-2.6A3.32,3.32,0,0,0,977.16,460.47Z"/>
            <path d="M993.67,453h1.53v17.47h-1.49l0-2.39A4.61,4.61,0,0,1,992,470a4.3,4.3,0,0,1-2.42.72,4.91,4.91,0,0,1-2-.41,5.06,5.06,0,0,1-1.62-1.16,5.38,5.38,0,0,1-1.09-1.82,6.61,6.61,0,0,1-.4-2.34,6.4,6.4,0,0,1,.41-2.34A5.33,5.33,0,0,1,986,460.8a5,5,0,0,1,1.62-1.15,4.93,4.93,0,0,1,2-.41,4.41,4.41,0,0,1,4.06,2.57Zm-3.75,16.34a3.51,3.51,0,0,0,2.73-1.27,4.87,4.87,0,0,0,0-6.2,3.47,3.47,0,0,0-2.72-1.27,3.58,3.58,0,0,0-2.75,1.22,5,5,0,0,0,0,6.29A3.56,3.56,0,0,0,989.92,469.32Z"/>
            <path d="M694.16,487.39h1.66l-6.24,16.2H688l2.1-5.39-4.18-10.81h1.72l3.28,9.06Z"/>
            <path d="M713.82,492.65l0,.47H705a4.28,4.28,0,0,0,1.12,3.09,3.63,3.63,0,0,0,2.7,1.09,3.49,3.49,0,0,0,2-.58,3.79,3.79,0,0,0,1.38-1.58l1.37.35a5.11,5.11,0,0,1-1.88,2.29,4.92,4.92,0,0,1-2.81.84,5.08,5.08,0,0,1-3.83-1.54,5.78,5.78,0,0,1-1.49-4.18,6.89,6.89,0,0,1,.41-2.41,4.94,4.94,0,0,1,1.11-1.8,4.72,4.72,0,0,1,1.68-1.12,5.51,5.51,0,0,1,2.09-.39,4.78,4.78,0,0,1,3.61,1.42A5.71,5.71,0,0,1,713.82,492.65Zm-5-4.23a3.66,3.66,0,0,0-2.51.9,4,4,0,0,0-1.24,2.58h7.18a3.74,3.74,0,0,0-1-2.6A3.34,3.34,0,0,0,708.84,488.42Z"/>
            <path d="M721.85,487.19a3.64,3.64,0,0,1,2.67,1,3.71,3.71,0,0,1,1,2.81v7.4H724v-7.06a2.88,2.88,0,0,0-.71-2.13,2.5,2.5,0,0,0-1.83-.7,2.74,2.74,0,0,0-2.05.81,3.21,3.21,0,0,0-.79,2.32v6.76h-1.53v-11h1.53v1.49A3.53,3.53,0,0,1,721.85,487.19Z"/>
            <path d="M732.87,498.4a2.73,2.73,0,0,1-2-.74,2.81,2.81,0,0,1-.75-2.09v-6.92H727.8v-1.26h.88a1.51,1.51,0,0,0,1.15-.35,1.72,1.72,0,0,0,.32-1.18v-2.17h1.46v3.7h2.63v1.26h-2.63v6.77a1.74,1.74,0,0,0,.45,1.27,1.58,1.58,0,0,0,1.16.45h1v1.26Z"/>
            <path d="M738.68,489.42a3.27,3.27,0,0,1,1.35-1.55,4.14,4.14,0,0,1,2.1-.59v1.5a3.5,3.5,0,0,0-2.53.87,3.57,3.57,0,0,0-.91,2.69v6.06h-1.52v-11h1.51Z"/>
            <path d="M753.78,492.65l0,.47H745a4.32,4.32,0,0,0,1.12,3.09,3.66,3.66,0,0,0,2.7,1.09,3.52,3.52,0,0,0,2-.58,3.93,3.93,0,0,0,1.38-1.58l1.36.35a5.09,5.09,0,0,1-1.87,2.29,4.94,4.94,0,0,1-2.81.84,5.08,5.08,0,0,1-3.83-1.54,5.73,5.73,0,0,1-1.49-4.18,6.89,6.89,0,0,1,.4-2.41,5.08,5.08,0,0,1,1.11-1.8,4.9,4.9,0,0,1,1.68-1.12,5.55,5.55,0,0,1,2.09-.39,4.76,4.76,0,0,1,3.61,1.42A5.67,5.67,0,0,1,753.78,492.65Zm-5-4.23a3.62,3.62,0,0,0-2.5.9A4,4,0,0,0,745,491.9h7.19a3.74,3.74,0,0,0-1-2.6A3.34,3.34,0,0,0,748.79,488.42Z"/>
            <path d="M772.5,492.65l0,.47H763.7a4.32,4.32,0,0,0,1.12,3.09,3.67,3.67,0,0,0,2.71,1.09,3.51,3.51,0,0,0,2-.58,3.93,3.93,0,0,0,1.38-1.58l1.36.35a5.09,5.09,0,0,1-1.87,2.29,4.94,4.94,0,0,1-2.81.84,5.08,5.08,0,0,1-3.83-1.54,5.73,5.73,0,0,1-1.49-4.18,6.89,6.89,0,0,1,.4-2.41,5.08,5.08,0,0,1,1.11-1.8,4.9,4.9,0,0,1,1.68-1.12,5.55,5.55,0,0,1,2.09-.39,4.76,4.76,0,0,1,3.61,1.42A5.67,5.67,0,0,1,772.5,492.65Zm-5-4.23a3.62,3.62,0,0,0-2.5.9,4,4,0,0,0-1.25,2.58H771a3.74,3.74,0,0,0-1-2.6A3.34,3.34,0,0,0,767.51,488.42Z"/>
            <path d="M784,487.39h1.49V504H784v-7.95a4.58,4.58,0,0,1-1.65,1.87,4.28,4.28,0,0,1-2.39.7,4.77,4.77,0,0,1-3.62-1.58,5.81,5.81,0,0,1-1.48-4.15,6.28,6.28,0,0,1,.7-3,5,5,0,0,1,1.85-2,4.85,4.85,0,0,1,2.55-.69,4.35,4.35,0,0,1,2.41.7,4.43,4.43,0,0,1,1.64,1.87Zm-3.81,9.88A3.54,3.54,0,0,0,783,496a4.82,4.82,0,0,0,0-6.19,3.66,3.66,0,0,0-5.47-.06,4.44,4.44,0,0,0-1.11,3.15,4.49,4.49,0,0,0,1.11,3.17A3.55,3.55,0,0,0,780.23,497.27Z"/>
            <path d="M796.45,487.39H798v11H796.5l0-1.52a3.53,3.53,0,0,1-1.34,1.29,3.88,3.88,0,0,1-1.89.45,3.68,3.68,0,0,1-2.68-1,3.75,3.75,0,0,1-1-2.81v-7.42h1.54v7.07a2.83,2.83,0,0,0,.72,2.12,2.54,2.54,0,0,0,1.85.71,2.7,2.7,0,0,0,2-.81,3.2,3.2,0,0,0,.78-2.31Z"/>
            <path d="M803.78,484.14a1.08,1.08,0,0,1-.8.34,1.1,1.1,0,0,1-.81-.34,1.12,1.12,0,0,1,0-1.61,1.13,1.13,0,0,1,.81-.33,1.11,1.11,0,0,1,.8.33,1.15,1.15,0,0,1,0,1.61Zm-1.59,14.26v-11h1.54v11Z"/>
            <path d="M813.53,487.19a4.77,4.77,0,0,1,3.62,1.58,6.6,6.6,0,0,1,0,8.28,4.77,4.77,0,0,1-3.62,1.58,4.29,4.29,0,0,1-2.4-.7,4.62,4.62,0,0,1-1.65-1.88v8H808V487.39h1.5l0,2.38a4.46,4.46,0,0,1,1.64-1.88A4.36,4.36,0,0,1,813.53,487.19Zm-.27,10.08a3.55,3.55,0,0,0,2.71-1.2,4.49,4.49,0,0,0,1.11-3.17,4.44,4.44,0,0,0-1.11-3.15,3.67,3.67,0,0,0-5.48.06,4.82,4.82,0,0,0,0,6.19A3.54,3.54,0,0,0,813.26,497.27Z"/>
            <path d="M826.41,498.62a5.43,5.43,0,0,1-2.73-.69,5.08,5.08,0,0,1-1.94-2,6.22,6.22,0,0,1-.71-3,5.67,5.67,0,0,1,1.52-4.14,5.53,5.53,0,0,1,7.7,0,6.43,6.43,0,0,1,0,8.29A5.06,5.06,0,0,1,826.41,498.62Zm-2.76-2.54a3.5,3.5,0,0,0,2.74,1.22,3.56,3.56,0,0,0,2.76-1.22,5.12,5.12,0,0,0,0-6.37,3.61,3.61,0,0,0-2.76-1.2,3.55,3.55,0,0,0-2.74,1.2,5.16,5.16,0,0,0,0,6.37Z"/>
            <path d="M838.4,498.62a4.89,4.89,0,0,1-2.88-.81,3.29,3.29,0,0,1-1.39-2.25l1.36-.4a2.48,2.48,0,0,0,1,1.63,3.05,3.05,0,0,0,1.94.6,4,4,0,0,0,1.18-.17,2,2,0,0,0,.9-.61,1.62,1.62,0,0,0,.34-1.13,1.47,1.47,0,0,0-.15-.67,1.32,1.32,0,0,0-.38-.49,2.46,2.46,0,0,0-.6-.37,6.09,6.09,0,0,0-.75-.28l-.9-.27-.38-.1-.95-.3a7.31,7.31,0,0,1-.85-.38,2.35,2.35,0,0,1-1.2-1.31,2.74,2.74,0,0,1-.19-1.06,2.65,2.65,0,0,1,1.06-2.28,4.46,4.46,0,0,1,2.67-.77,4.55,4.55,0,0,1,2.61.72,3,3,0,0,1,1.3,2.15l-1.31.35a2.19,2.19,0,0,0-.88-1.52,2.88,2.88,0,0,0-1.7-.52,3.12,3.12,0,0,0-.82.11,2.49,2.49,0,0,0-.73.3,1.48,1.48,0,0,0-.54.57,1.59,1.59,0,0,0-.21.82,1.46,1.46,0,0,0,.09.52,1.86,1.86,0,0,0,.19.4,1,1,0,0,0,.36.32l.41.25a4.13,4.13,0,0,0,.53.2l.55.17.61.15,1.07.29a6.4,6.4,0,0,1,.95.39,2.68,2.68,0,0,1,1.63,2.58,2.73,2.73,0,0,1-1.11,2.38A4.62,4.62,0,0,1,838.4,498.62Z"/>
          </g>
          <g>
            <path class="cls-19" d="M652.77,469.67a1,1,0,0,1-.69-1.67l3.7-3.7-3.7-3.71a1,1,0,1,1,1.38-1.38l4.39,4.4a1,1,0,0,1,0,1.38l-4.39,4.39a1,1,0,0,1-.69.29Z"/>
            <path d="M668.88,465.34a1,1,0,0,1-1-1v-.11a1,1,0,0,1,1-1,1,1,0,0,1,1,1v.15a1,1,0,0,1-1,1Z"/>
            <path class="cls-20" d="M643.19,475.34a15.62,15.62,0,1,1,26.27-14.53,1,1,0,0,1-1.9.43,13.67,13.67,0,1,0,0,6.07,1,1,0,1,1,1.9.43,15.63,15.63,0,0,1-26.28,7.6Z"/>
          </g>
        </g>
        <g>
          <g>
            <path d="M689.63,558.78h5.69v1.46h-7.27V544.37h1.58Z"/>
            <path d="M699.72,546a1.07,1.07,0,0,1-.8.34,1.14,1.14,0,0,1-.81-1.95,1.13,1.13,0,0,1,.81-.33,1.09,1.09,0,0,1,.8.33,1.12,1.12,0,0,1,0,1.61Zm-1.58,14.27v-11h1.53v11Z"/>
            <path d="M714.51,549a3.37,3.37,0,0,1,2.47,1,3.53,3.53,0,0,1,.95,2.63v7.64h-1.54V553a2.73,2.73,0,0,0-.64-2,2.14,2.14,0,0,0-1.62-.67,2.23,2.23,0,0,0-1.76.74,3.12,3.12,0,0,0-.66,2.14v7h-1.55v-7.16a2.93,2.93,0,0,0-.65-2.05,2.38,2.38,0,0,0-3.41.06,3.09,3.09,0,0,0-.67,2.16v7h-1.54v-11h1.54v1.49a3.2,3.2,0,0,1,1.21-1.26,3.66,3.66,0,0,1,3.55,0,3.1,3.1,0,0,1,1.19,1.4,3.34,3.34,0,0,1,1.28-1.4A3.57,3.57,0,0,1,714.51,549Z"/>
            <path d="M727.54,549a4.73,4.73,0,0,1,3.61,1.58,6.56,6.56,0,0,1,0,8.28,4.7,4.7,0,0,1-3.61,1.58,4.29,4.29,0,0,1-2.4-.7,4.62,4.62,0,0,1-1.65-1.88v8H722V549.23h1.5l0,2.37a4.46,4.46,0,0,1,1.64-1.88A4.33,4.33,0,0,1,727.54,549Zm-.28,10.08a3.57,3.57,0,0,0,2.72-1.2,5.05,5.05,0,0,0,0-6.32,3.69,3.69,0,0,0-5.48.06,4.8,4.8,0,0,0,0,6.2A3.55,3.55,0,0,0,727.26,559.1Z"/>
            <path d="M737.53,546a1.08,1.08,0,0,1-.8.34,1.1,1.1,0,0,1-.81-.34,1.12,1.12,0,0,1,0-1.61,1.13,1.13,0,0,1,.81-.33,1.13,1.13,0,0,1,1.13,1.14A1.09,1.09,0,0,1,737.53,546Zm-1.59,14.27v-11h1.54v11Z"/>
            <path d="M751.08,554.48l0,.47h-8.76a4.28,4.28,0,0,0,1.12,3.1,3.66,3.66,0,0,0,2.7,1.08,3.49,3.49,0,0,0,2-.58,3.73,3.73,0,0,0,1.38-1.58l1.37.35a5.11,5.11,0,0,1-1.88,2.29,4.92,4.92,0,0,1-2.81.84,5.08,5.08,0,0,1-3.83-1.54,5.78,5.78,0,0,1-1.49-4.18,6.79,6.79,0,0,1,.4-2.4,4.92,4.92,0,0,1,1.12-1.81A4.86,4.86,0,0,1,744,549.4a5.51,5.51,0,0,1,2.09-.39,4.75,4.75,0,0,1,3.6,1.42A5.67,5.67,0,0,1,751.08,554.48Zm-5-4.23a3.65,3.65,0,0,0-2.51.9,4.06,4.06,0,0,0-1.25,2.58h7.19a3.7,3.7,0,0,0-1-2.6A3.32,3.32,0,0,0,746.1,550.25Z"/>
            <path d="M755,559h6.27v1.29h-8.66l6.16-9.72h-5.84v-1.29h8.29Z"/>
            <path d="M766.18,560.45a3.59,3.59,0,0,1-2.39-.77,2.74,2.74,0,0,1-.93-2.25,3.27,3.27,0,0,1,.29-1.42,2.51,2.51,0,0,1,.87-1,4.9,4.9,0,0,1,1.28-.62A11.42,11.42,0,0,1,767,554l1.85-.28c.64-.12,1-.46,1-1a2.19,2.19,0,0,0-.73-1.82,2.94,2.94,0,0,0-1.89-.59,3.08,3.08,0,0,0-1.82.53,2.14,2.14,0,0,0-.87,1.6l-1.4-.34a3.19,3.19,0,0,1,1.33-2.26,4.81,4.81,0,0,1,2.81-.77,5.57,5.57,0,0,1,1.57.21,4.1,4.1,0,0,1,1.29.64,2.89,2.89,0,0,1,.89,1.17,4.46,4.46,0,0,1,.32,1.74v4.74a2,2,0,0,0,.27,1.23,1.19,1.19,0,0,0,.9.3h.19v1.18h-.8a1.77,1.77,0,0,1-2-1.52h-.07A4.25,4.25,0,0,1,766.18,560.45Zm.36-1.27A3,3,0,0,0,769,558a5.22,5.22,0,0,0,.92-3.28l-3,.52a4.53,4.53,0,0,0-2,.68,1.65,1.65,0,0,0-.63,1.39,1.67,1.67,0,0,0,.59,1.41A2.55,2.55,0,0,0,766.54,559.18Z"/>
            <path d="M792.26,549a3.33,3.33,0,0,1,2.46,1,3.49,3.49,0,0,1,.95,2.63v7.64h-1.53V553a2.78,2.78,0,0,0-.64-2,2.14,2.14,0,0,0-1.62-.67,2.26,2.26,0,0,0-1.77.74,3.12,3.12,0,0,0-.66,2.14v7h-1.54v-7.16a2.89,2.89,0,0,0-.66-2.05,2.18,2.18,0,0,0-1.66-.69,2.21,2.21,0,0,0-1.74.75,3.09,3.09,0,0,0-.67,2.16v7h-1.54v-11h1.54v1.49a3.13,3.13,0,0,1,1.21-1.26,3.45,3.45,0,0,1,1.73-.44,3.4,3.4,0,0,1,1.81.48,3,3,0,0,1,1.19,1.4,3.41,3.41,0,0,1,1.28-1.4A3.58,3.58,0,0,1,792.26,549Z"/>
            <path d="M809.08,554.48l0,.47h-8.76a4.32,4.32,0,0,0,1.12,3.1,3.7,3.7,0,0,0,2.7,1.08,3.52,3.52,0,0,0,2-.58,3.87,3.87,0,0,0,1.38-1.58l1.36.35a5.09,5.09,0,0,1-1.87,2.29,4.94,4.94,0,0,1-2.81.84,5.1,5.1,0,0,1-3.84-1.54,5.78,5.78,0,0,1-1.49-4.18,6.79,6.79,0,0,1,.41-2.4A4.82,4.82,0,0,1,802,549.4a5.51,5.51,0,0,1,2.09-.39,4.76,4.76,0,0,1,3.61,1.42A5.62,5.62,0,0,1,809.08,554.48Zm-5-4.23a3.66,3.66,0,0,0-2.51.9,4.05,4.05,0,0,0-1.24,2.58h7.19a3.74,3.74,0,0,0-1-2.6A3.34,3.34,0,0,0,804.1,550.25Z"/>
            <path d="M817.11,549a3.68,3.68,0,0,1,2.68,1,3.74,3.74,0,0,1,1,2.81v7.41h-1.52v-7.07a2.86,2.86,0,0,0-.72-2.13,2.5,2.5,0,0,0-1.83-.7,2.7,2.7,0,0,0-2,.81,3.17,3.17,0,0,0-.79,2.32v6.77h-1.54v-11h1.54v1.49A3.51,3.51,0,0,1,817.11,549Z"/>
            <path d="M828.16,560.45a4.9,4.9,0,0,1-2.89-.81,3.25,3.25,0,0,1-1.39-2.25l1.37-.4a2.48,2.48,0,0,0,.94,1.64,3.13,3.13,0,0,0,1.94.59,3.62,3.62,0,0,0,1.18-.17,2,2,0,0,0,.9-.61,1.63,1.63,0,0,0,.35-1.13,1.61,1.61,0,0,0-.16-.67,1.32,1.32,0,0,0-.38-.49,2.59,2.59,0,0,0-.59-.37,5.68,5.68,0,0,0-.76-.28l-.9-.27-.38-.1c-.38-.12-.7-.21-.95-.3a8.14,8.14,0,0,1-.85-.38,2.79,2.79,0,0,1-.74-.55,2.89,2.89,0,0,1-.46-.76,2.74,2.74,0,0,1-.19-1.06,2.62,2.62,0,0,1,1.06-2.27,4.4,4.4,0,0,1,2.67-.78,4.61,4.61,0,0,1,2.62.72,3.05,3.05,0,0,1,1.29,2.15l-1.31.35a2.19,2.19,0,0,0-.88-1.52,2.87,2.87,0,0,0-1.7-.51,3.12,3.12,0,0,0-.82.1,3,3,0,0,0-.73.3,1.64,1.64,0,0,0-.54.57,1.59,1.59,0,0,0-.21.82,1.42,1.42,0,0,0,.09.52,2.14,2.14,0,0,0,.19.4,1.28,1.28,0,0,0,.36.32l.41.25a5.21,5.21,0,0,0,.54.2l.54.17.62.16,1.07.29a6.16,6.16,0,0,1,.94.38,3,3,0,0,1,.87.57,2.71,2.71,0,0,1,.54.83,3,3,0,0,1,.23,1.18,2.73,2.73,0,0,1-1.11,2.38A4.66,4.66,0,0,1,828.16,560.45Z"/>
            <path d="M842.08,549.23h1.52v11h-1.47l0-1.53a3.53,3.53,0,0,1-1.34,1.29,3.88,3.88,0,0,1-1.89.45,3.71,3.71,0,0,1-2.68-1,3.79,3.79,0,0,1-1-2.82v-7.41h1.54v7.06a2.86,2.86,0,0,0,.72,2.13,2.54,2.54,0,0,0,1.85.7,2.7,2.7,0,0,0,2-.81,3.18,3.18,0,0,0,.78-2.31Z"/>
            <path d="M850.31,560.45a3.58,3.58,0,0,1-2.39-.77,2.74,2.74,0,0,1-.93-2.25,3.27,3.27,0,0,1,.29-1.42,2.48,2.48,0,0,1,.86-1,5.13,5.13,0,0,1,1.29-.62,11.12,11.12,0,0,1,1.69-.4l1.85-.28c.64-.12,1-.46,1-1a2.19,2.19,0,0,0-.74-1.82,2.9,2.9,0,0,0-1.88-.59,3.06,3.06,0,0,0-1.82.53,2.14,2.14,0,0,0-.87,1.6l-1.4-.34a3.21,3.21,0,0,1,1.32-2.26,4.82,4.82,0,0,1,2.82-.77,5.57,5.57,0,0,1,1.57.21,4,4,0,0,1,1.28.64,2.83,2.83,0,0,1,.9,1.17,4.46,4.46,0,0,1,.32,1.74v4.74a2,2,0,0,0,.27,1.23,1.16,1.16,0,0,0,.9.3h.18v1.18H856a1.77,1.77,0,0,1-2-1.52h-.07A4.25,4.25,0,0,1,850.31,560.45Zm.35-1.27a3,3,0,0,0,2.49-1.18,5.22,5.22,0,0,0,.91-3.28l-3,.52a4.63,4.63,0,0,0-2,.68,1.65,1.65,0,0,0-.63,1.39,1.67,1.67,0,0,0,.6,1.41A2.54,2.54,0,0,0,850.66,559.18Z"/>
            <path d="M859.72,560.24V542.77h1.54v17.47Z"/>
          </g>
          <g>
            <path class="cls-19" d="M652.77,558.16a1,1,0,0,1-.69-1.67l3.7-3.7-3.7-3.71a1,1,0,0,1,1.38-1.38l4.39,4.4a1,1,0,0,1,0,1.38l-4.39,4.39a1,1,0,0,1-.69.29Z"/>
            <path d="M668.88,553.83a1,1,0,0,1-1-1v-.1a1,1,0,0,1,1-1,1,1,0,0,1,1,1v.15a1,1,0,0,1-1,1Z"/>
            <path class="cls-20" d="M643.19,563.83a15.62,15.62,0,1,1,26.27-14.53,1,1,0,1,1-1.9.43,13.67,13.67,0,1,0,0,6.07,1,1,0,1,1,1.9.43,15.63,15.63,0,0,1-26.28,7.6Z"/>
          </g>
        </g>
      </g>
    </g>
  </g>
</svg>
