<svg xmlns="http://www.w3.org/2000/svg" width="934" height="934" viewBox="0 0 934 934">
  <g id="Grupo_33367" data-name="Grupo 33367" transform="translate(-8696 886)">
    <circle id="Elipse_1189" data-name="Elipse 1189" cx="467" cy="467" r="467" transform="translate(8696 -886)" fill="#524798"/>
    <circle id="Elipse_1190" data-name="Elipse 1190" cx="415" cy="415" r="415" transform="translate(8748 -834)" fill="#fff"/>
    <g id="vaccine" transform="translate(8899.924 -708)">
      <g id="Grupo_33335" data-name="Grupo 33335">
        <path id="Trazado_27291" data-name="Trazado 27291" d="M103,0h15.673V123.924H103Z" fill="#d5e7ff"/>
      </g>
      <g id="Grupo_33336" data-name="Grupo 33336">
        <path id="Trazado_27292" data-name="Trazado 27292" d="M118,0h15V123.924H118Z" fill="#acceff"/>
      </g>
      <path id="Trazado_27293" data-name="Trazado 27293" d="M316.339,196.974v55.417l-49.133,64.217V512H377.565l15.722-315.026Z" fill="#eaf1ff"/>
      <g id="Grupo_33345" data-name="Grupo 33345">
        <g id="Grupo_33344" data-name="Grupo 33344">
          <g id="Grupo_33339" data-name="Grupo 33339">
            <path id="Trazado_27294" data-name="Trazado 27294" d="M55.561,108.924h74.115v307.2H55.561Z" fill="#eaf1ff"/>
            <path id="Trazado_27295" data-name="Trazado 27295" d="M118.671,108.924h61.764v307.2H118.671Z" fill="#d5e7ff"/>
            <g id="Grupo_33337" data-name="Grupo 33337">
              <path id="Trazado_27296" data-name="Trazado 27296" d="M129.676,497H65.168V416.123h64.508Z" fill="#f5d844"/>
            </g>
            <g id="Grupo_33338" data-name="Grupo 33338">
              <path id="Trazado_27297" data-name="Trazado 27297" d="M170.827,497H118.671V416.123h52.156Z" fill="#ecbd2c"/>
            </g>
          </g>
          <g id="Grupo_33343" data-name="Grupo 33343">
            <g id="Grupo_33340" data-name="Grupo 33340">
              <path id="Trazado_27298" data-name="Trazado 27298" d="M118.671,181.974h61.764v30H118.671Z" fill="#acceff"/>
            </g>
            <g id="Grupo_33341" data-name="Grupo 33341">
              <path id="Trazado_27299" data-name="Trazado 27299" d="M118.671,255.023h61.764v30H118.671Z" fill="#acceff"/>
            </g>
            <g id="Grupo_33342" data-name="Grupo 33342">
              <path id="Trazado_27300" data-name="Trazado 27300" d="M118.671,328.073h61.764v30H118.671Z" fill="#acceff"/>
            </g>
          </g>
        </g>
        <path id="Trazado_27301" data-name="Trazado 27301" d="M438.791,252.391V196.974H377.565V512H487.924V316.608Z" fill="#d5e7ff"/>
        <path id="Trazado_27302" data-name="Trazado 27302" d="M267.206,316.608H384.679V446.057H267.206Z" fill="#f5d844"/>
        <path id="Trazado_27303" data-name="Trazado 27303" d="M377.565,316.608H487.924V446.057H377.565Z" fill="#ecbd2c"/>
      </g>
      <path id="Trazado_27304" data-name="Trazado 27304" d="M292.065,140.81H384.68v69.38H292.065Z" fill="#6b66d0"/>
      <path id="Trazado_27305" data-name="Trazado 27305" d="M377.565,140.81h85.5v69.38h-85.5Z" fill="#524798"/>
      <g id="Grupo_33346" data-name="Grupo 33346">
        <path id="Trazado_27306" data-name="Trazado 27306" d="M24.076,401.123h105.6v30H24.076Z" fill="#d5e7ff"/>
      </g>
      <g id="Grupo_33347" data-name="Grupo 33347">
        <path id="Trazado_27307" data-name="Trazado 27307" d="M118.671,401.123h93.248v30H118.671Z" fill="#acceff"/>
      </g>
      <g id="Grupo_33348" data-name="Grupo 33348">
        <path id="Trazado_27308" data-name="Trazado 27308" d="M41.034,482h88.642v30H41.034Z" fill="#ecbd2c"/>
      </g>
      <g id="Grupo_33349" data-name="Grupo 33349">
        <path id="Trazado_27309" data-name="Trazado 27309" d="M118.671,482h76.29v30h-76.29Z" fill="#e68f21"/>
      </g>
    </g>
  </g>
</svg>
