<?xml version="1.0" encoding="utf-8"?>
<!-- Generator: Adobe Illustrator 25.1.0, SVG Export Plug-In . SVG Version: 6.00 Build 0)  -->
<svg version="1.1" id="Capa_1" xmlns="http://www.w3.org/2000/svg" xmlns:xlink="http://www.w3.org/1999/xlink" x="0px" y="0px"
	 viewBox="0 0 512 512" style="enable-background:new 0 0 512 512;" xml:space="preserve">
<style type="text/css">
	.st0{fill:#FFD15C;}
	.st1{fill:#FFDC8D;}
	.st2{fill:#EF4152;}
	.st3{fill:#FF525D;}
	.st4{fill:#C1273D;}
	.st5{fill:#575B6D;}
	.st6{fill:#F6C863;}
</style>
<path class="st0" d="M512,256c0,71.5-29.3,136.1-76.5,182.6C389.3,484,325.9,512,256,512c-60.7,0-116.4-21.1-160.3-56.4
	c-6.7-5.4-13.1-11.1-19.2-17.1C29.3,392.1,0,327.5,0,256C0,114.6,114.6,0,256,0S512,114.6,512,256z"/>
<circle class="st1" cx="256" cy="213.3" r="213.3"/>
<path class="st2" d="M435.5,210.2v228.3C389.3,484,325.9,512,256,512c-60.7,0-116.4-21.1-160.3-56.4c-6.7-5.4-13.1-11.1-19.2-17.1
	V210.2H435.5z"/>
<path class="st3" d="M435.5,262.6v176C389.3,484,325.9,512,256,512c-60.7,0-116.4-21.1-160.3-56.4V293.3c0-16.9,13.7-30.7,30.7-30.7
	L435.5,262.6L435.5,262.6z"/>
<path class="st2" d="M435.4,204H76.5l36.9-170c2.5-11.5,12.6-19.6,24.3-19.6h236.6c11.7,0,21.9,8.2,24.3,19.6L435.4,204z"/>
<path class="st3" d="M435.4,204H94.8l36.8-170c2.5-11.5,12.6-19.6,24.3-19.6h218.3c11.7,0,21.9,8.2,24.3,19.6L435.4,204z"/>
<path class="st2" d="M458.2,196.2V229c0,8.7-7.1,15.7-15.8,15.7H69.6c-8.7,0-15.7-7.1-15.7-15.7v-32.8c0-8.7,7-15.7,15.7-15.7h372.9
	C451.1,180.5,458.2,187.5,458.2,196.2z"/>
<path class="st3" d="M458.2,196.2V229c0,8.7-7.1,15.7-15.8,15.7H94.3c-8.7,0-15.7-7.1-15.7-15.7v-32.8c0-8.7,7.1-15.7,15.7-15.7
	h348.1C451.1,180.5,458.2,187.5,458.2,196.2z"/>
<g>
	<path class="st4" d="M326,130.3H196.2c-13.9,0-25.2-11.3-25.2-25.2V14.4h180.2v90.7C351.2,119,340,130.3,326,130.3z"/>
</g>
<g id="icon">
	<path class="st5" d="M256,297.1c-52.6,0-95.2,42.6-95.2,95.2s42.6,95.2,95.2,95.2s95.2-42.6,95.2-95.2S308.6,297.1,256,297.1z"/>
	<path class="st6" d="M256,308.5c-46.3,0-83.9,37.6-83.9,83.9s37.6,83.9,83.9,83.9s83.9-37.6,83.9-83.9
		C339.9,346,302.3,308.5,256,308.5z"/>
	<g>
		<path class="st5" d="M257.3,354.7c-7.8,0-15.4,2.4-21.7,6.9c1.9,2.7,4.2,5.1,6.9,7c9.1-5.7,20.5-5.7,29.6,0c2.7-1.9,5.1-4.2,6.9-7
			C272.7,357.1,265.1,354.7,257.3,354.7L257.3,354.7z M229.3,392.4c0-0.8,0-1.6,0.1-2.5c-2.8-1.7-6-2.9-9.3-3.5c-0.3,2-0.5,4-0.5,6
			c0,13.5,7.2,25.9,18.9,32.7c1.6-2.9,2.7-6.1,3.1-9.5C233.9,410.4,229.3,401.7,229.3,392.4L229.3,392.4z M294.9,390.2
			c-3.3,0.1-6.6,0.8-9.6,2.2c0,10.7-6.1,20.4-15.7,25.1c0.1,3.3,0.9,6.6,2.2,9.6c14-5.9,23.1-19.6,23.1-34.7
			C294.9,391.6,294.9,390.9,294.9,390.2z"/>
		<path class="st5" d="M243.6,373.3c-0.2-0.1-0.4-0.2-0.6-0.3c-14.4-7.9-19.6-25.9-11.7-40.3c1.8-3.3,4.3-6.3,7.3-8.7
			c-16,8.8-23.7,27.6-18.4,45.1c-18.5,2.5-32.5,17.8-33.4,36.4c3.7-15.9,19.7-25.8,35.6-22.1c8.1,1.9,15,7.1,19.1,14.3l6.2-3.6
			c-0.1-0.6-0.2-1.2-0.2-1.7c0-4.3,2.8-8.1,6.9-9.3v-6.6C250.6,376.1,247,375,243.6,373.3L243.6,373.3z M307.1,377.8
			c-4.2-2.7-8.9-4.5-13.9-5.3c7.4-18.2,0-39-17.2-48.5c12.7,10.3,14.6,29,4.3,41.7c-5,6.1-12.2,10-20.1,10.8v6.6
			c4.1,1.3,6.9,5.1,6.9,9.3c0,0.8-0.1,1.7-0.3,2.5l5.4,3.8c9.8-13.1,28.4-15.7,41.5-5.9c6.4,4.8,10.6,12,11.6,20
			C326,398.6,319,385.2,307.1,377.8L307.1,377.8z M280.1,441.6c-12.8-8-17.6-24.4-11-38.1l-5.4-3.8c-3.9,3.4-9.8,3.2-13.4-0.5
			l-6.6,3.8c5.1,15.5-3.3,32.3-18.9,37.4c-7.2,2.4-14.9,1.9-21.8-1.3c16.3,11.4,38.6,8.7,51.6-6.3c11.4,16.3,33.3,21.3,50.6,11.7
			C296.9,447.4,287.6,446.3,280.1,441.6z"/>
	</g>
</g>
</svg>
