<svg id="Layer_1" data-name="Layer 1" xmlns="http://www.w3.org/2000/svg" width="2913.56" height="1434.44" viewBox="0 0 2913.56 1434.44">
  <defs>
    <style>
      .cls-1 {
        fill: #d3e4fe;
      }

      .cls-2, .cls-41, .cls-43 {
        fill: #b2cbfd;
      }

      .cls-3 {
        fill: #fff;
      }

      .cls-4 {
        fill: #466aa5;
      }

      .cls-5 {
        fill: #d6716b;
      }

      .cls-6 {
        fill: #deedff;
      }

      .cls-7 {
        fill: #a8d29f;
      }

      .cls-8 {
        fill: #66a357;
      }

      .cls-9 {
        fill: #82b378;
      }

      .cls-10 {
        fill: #e49963;
      }

      .cls-11 {
        fill: #d38957;
      }

      .cls-12 {
        fill: #2f5791;
      }

      .cls-13 {
        fill: #2c3a64;
      }

      .cls-14 {
        fill: #c65447;
      }

      .cls-15 {
        fill: #365da4;
      }

      .cls-16 {
        fill: #b74b42;
      }

      .cls-17 {
        fill: #d68d5d;
      }

      .cls-18 {
        fill: #699dee;
      }

      .cls-19 {
        fill: #3b76ca;
      }

      .cls-20 {
        fill: #35488b;
      }

      .cls-21 {
        fill: #ee9849;
      }

      .cls-22 {
        fill: #163560;
      }

      .cls-23 {
        fill: #e58638;
      }

      .cls-24 {
        fill: #f1a34f;
      }

      .cls-25 {
        fill: #ffb973;
      }

      .cls-26 {
        fill: #d86713;
      }

      .cls-27 {
        fill: #ffb27d;
      }

      .cls-28 {
        fill: #ad7041;
      }

      .cls-29 {
        fill: #415da5;
      }

      .cls-30 {
        fill: #355493;
      }

      .cls-31 {
        fill: #b84c42;
      }

      .cls-32 {
        fill: #2b478b;
      }

      .cls-33 {
        fill: #7a97f3;
      }

      .cls-34 {
        fill: #e8945b;
      }

      .cls-35 {
        fill: #e9f2ff;
      }

      .cls-36 {
        fill: #699ff0;
      }

      .cls-37 {
        fill: #afcdfb;
        opacity: 0.9;
      }

      .cls-38 {
        fill: #a53d38;
      }

      .cls-39 {
        fill: #b64c41;
      }

      .cls-40 {
        fill: #f4ac75;
      }

      .cls-41 {
        opacity: 0.2;
      }

      .cls-42 {
        fill: #c97c47;
      }

      .cls-43 {
        opacity: 0.5;
      }

      .cls-44 {
        fill: #283250;
      }
    </style>
  </defs>
  <g>
    <path class="cls-1" d="M417,522.55c131.21-45.14,177-677.14,759.79-361.14C1408.56,287.08,1742.3,135,2061.9,218.13c293.51,76.33,300.26,296.53,263.15,375.8-40.55,86.62,121.16,190.18,286.77,261.31,259.78,111.56,68.75,503.66-176.67,505.53S386.74,1357,386.74,1357-103.9,701.77,417,522.55Z"/>
    <g>
      <rect class="cls-2" x="1807.88" y="347.35" width="546.8" height="385.63" transform="translate(4162.55 1080.32) rotate(180)"/>
      <rect class="cls-3" x="1826.81" y="367.39" width="508.94" height="345.54" transform="translate(4162.55 1080.32) rotate(180)"/>
      <rect class="cls-4" x="2354.51" y="347.35" width="3.62" height="385.63" transform="translate(4712.64 1080.32) rotate(180)"/>
      <path class="cls-5" d="M2116.94,486.51a23,23,0,0,1,35.47,11.06c.71,2.08,1.42,4.29,2.09,6.61a1,1,0,0,0,1.58.42l.15-.14a17.39,17.39,0,0,0,5.73-12.84l-4.57-41.16a8.05,8.05,0,0,1,8-8.95h9.85a8.06,8.06,0,0,1,8,8.94l-4.58,41.42a17.15,17.15,0,0,0,5.86,12.95l.07.06a1,1,0,0,0,1.55-.45c.7-2.42,1.42-4.7,2.17-6.86a23,23,0,0,1,35.46-11.06c51.11,37.7,49.78,98.38,43.76,133.19a23,23,0,0,1-30.94,17.58l-33.15-12.67a23.08,23.08,0,0,1-13.71-14.47c-9.65-30.15-11.13-56.23-9-77.34a15.26,15.26,0,0,0-2.85-10.46v0c-3.95-5.46-6.87-6.89-8-6.87-1.3,0-4.48,2.32-8.33,10.17a15.61,15.61,0,0,0-1.46,8.27c1.95,20.93.35,46.64-9.14,76.28a23,23,0,0,1-13.7,14.44l-33.15,12.67a23,23,0,0,1-30.93-17.55C2067.16,584.93,2065.81,524.22,2116.94,486.51Z"/>
      <g>
        <path class="cls-5" d="M1869.93,556.55h103.82a5.12,5.12,0,0,1,0,10.23H1869.93a5.12,5.12,0,1,1,0-10.23Z"/>
        <path class="cls-5" d="M1869.93,577.72h103.82a5.12,5.12,0,0,1,0,10.23H1869.93a5.12,5.12,0,1,1,0-10.23Z"/>
        <path class="cls-5" d="M1869.93,601.26h103.82a5.12,5.12,0,0,1,0,10.23H1869.93a5.12,5.12,0,1,1,0-10.23Z"/>
        <path class="cls-5" d="M1869.93,624.8h103.82a5.12,5.12,0,0,1,0,10.23H1869.93a5.12,5.12,0,1,1,0-10.23Z"/>
        <path class="cls-5" d="M1869.93,445.29h103.82a5.13,5.13,0,0,1,5.11,5.11h0a5.13,5.13,0,0,1-5.11,5.12H1869.93a5.14,5.14,0,0,1-5.12-5.12h0A5.13,5.13,0,0,1,1869.93,445.29Z"/>
        <path class="cls-5" d="M1869.93,466.47h103.82a5.13,5.13,0,0,1,5.11,5.11h0a5.13,5.13,0,0,1-5.11,5.11H1869.93a5.13,5.13,0,0,1-5.12-5.11h0A5.13,5.13,0,0,1,1869.93,466.47Z"/>
        <path class="cls-5" d="M1869.93,490h103.82a5.13,5.13,0,0,1,5.11,5.11h0a5.13,5.13,0,0,1-5.11,5.11H1869.93a5.13,5.13,0,0,1-5.12-5.11h0A5.13,5.13,0,0,1,1869.93,490Z"/>
        <path class="cls-5" d="M1869.93,513.54h103.82a5.13,5.13,0,0,1,5.11,5.12h0a5.13,5.13,0,0,1-5.11,5.11H1869.93a5.13,5.13,0,0,1-5.12-5.11h0A5.14,5.14,0,0,1,1869.93,513.54Z"/>
      </g>
      <rect class="cls-5" x="1992.21" y="445.29" width="41.04" height="41.04" rx="7.69" transform="translate(4025.46 931.62) rotate(180)"/>
      <rect class="cls-5" x="1992.21" y="556.55" width="41.04" height="41.04" rx="7.69" transform="translate(4025.46 1154.13) rotate(180)"/>
      <polygon class="cls-3" points="1999.17 575.32 2006.71 591.86 2024.97 563.01 2005.49 579.39 1999.17 575.32"/>
      <polygon class="cls-3" points="1999.17 463.69 2006.71 480.23 2024.97 451.38 2005.49 467.77 1999.17 463.69"/>
      <rect class="cls-5" x="1893.42" y="379.21" width="375.72" height="8.91" rx="4.45" transform="translate(4162.55 767.33) rotate(-180)"/>
    </g>
    <rect class="cls-6" x="1030.26" y="300.64" width="607.65" height="1058.29"/>
    <rect class="cls-2" x="1073.67" y="345.79" width="520.83" height="1013.14"/>
    <g>
      <path class="cls-7" d="M1831.4,877.79h751.13a9.16,9.16,0,0,1,9.16,9.16v218.58a51,51,0,0,1-51,51H1822.24a0,0,0,0,1,0,0V887A9.16,9.16,0,0,1,1831.4,877.79Z" transform="translate(4413.93 2034.37) rotate(180)"/>
      <rect class="cls-7" x="1728.51" y="1139.32" width="862.11" height="217.84" rx="50.3"/>
      <path class="cls-8" d="M2486.46,1143.3h59V918.21a40.53,40.53,0,0,1,40.41-40.42h5.59a2.48,2.48,0,0,1,2.47,2.48v473a3.88,3.88,0,0,1-3.86,3.87H2419.28a3.88,3.88,0,0,1-3.87-3.87v-139A71.25,71.25,0,0,1,2486.46,1143.3Z"/>
      <path class="cls-9" d="M2415.77,879.7s56.32-5.4,75.84,27,0,154.3,16.52,175.9,36,34.72,35.29,60.17l-121.1,1.3s-106.47,3.83-105.7,60.56,0,154.84,0,154.84h-60.95s-2.74-251.8,58.95-266.59C2449.87,1060.46,2415.77,879.7,2415.77,879.7Z"/>
      <path class="cls-9" d="M1818.94,1130.35l3.3.12V919.71a41.87,41.87,0,0,1,41.87-41.87h129.18s26.61,88,30.08,117.71,105.31,30.85,119.19,67.42,16.2,77.71,16.2,77.71h-51.68s-2,.67-5.47,2.17c-20.35,8.84-90.41,46.28-89.42,142.45v71.16H1756.45S1716,1147.56,1818.94,1130.35Z"/>
      <path class="cls-10" d="M2256,1040.1s-10.63-3.24-14.36-1.32-13.73,7.92-12.88,12.48,18.57,7.38,29.2.29S2256,1040.1,2256,1040.1Z"/>
      <path class="cls-11" d="M2291.43,1342.69a7,7,0,0,1-4,6.44h0c-4.63,2.56-12,.6-20.89.21-1.14,0-12.9,5-29.55,6.42-19,1.62-26-4.19-27.11-6.83-.94-2.25,7.21-4.79,16.31-7.7l1.33-.43c1.21-.38,2.43-.78,3.64-1.18,10.84-3.6,21.51-7.87,24.17-18.85,2.83-11.63-5.66-44.1-5.66-44.1l30.09-3.25s2.9,34,4.79,44.52c1,5.65,3.58,10.14,5.07,15,.11.34.21.68.31,1A33.12,33.12,0,0,1,2291.43,1342.69Z"/>
      <g>
        <path class="cls-12" d="M2291.43,1342.69a7,7,0,0,1-4,6.44h0c-6.72,4.33-18.66-1.69-38.09,7.28-.84.39-7.36-.06-11.89-.12-5.9-.09-14.41.45-16.4.12-9.18-1.48-10.54-6-11.17-7.48-.94-2.25,7.21-4.79,16.31-7.7a56.39,56.39,0,0,0,29.13,2.48c12.67-2.38,25.25-8.69,34.3-10.79.11.34.21.68.31,1A33.12,33.12,0,0,1,2291.43,1342.69Z"/>
        <polygon class="cls-12" points="2288.4 1347.99 2283.96 1356.28 2274.32 1356.28 2274.32 1350.2 2288.4 1347.99"/>
      </g>
      <path class="cls-13" d="M2446.89,1053.32l-97.4-9.29s-149.08.68-163,20.36c0,0-26.61,18.45,3.48,94.7s65.42,152.48,65.42,152.48a68.76,68.76,0,0,0,21.34,1.5,83.76,83.76,0,0,0,11.45-2s-6.8-113.8-21.84-158.08-19.67-35.66,6.94-33.2,112.25,22.13,151.59,17.22S2446.89,1053.32,2446.89,1053.32Z"/>
      <path class="cls-10" d="M2310.2,1342.69a7,7,0,0,1-4,6.44h0c-4.64,2.56-12.24-3-46.89,5.17-18.55,4.39-29.55-2.73-30.66-5.37-1-2.25,7.2-4.79,16.31-7.7l1.32-.43c1.21-.38,2.43-.78,3.64-1.18,10.84-3.6,21.51-7.87,24.17-18.85,2.83-11.63-5.66-44.1-5.66-44.1l30.09-3.25s2.9,34,4.79,44.52c1,5.65,3.58,10.14,5.08,15q.16.51.3,1A33.12,33.12,0,0,1,2310.2,1342.69Z"/>
      <g>
        <path class="cls-10" d="M1977.41,1342.69a7,7,0,0,1-4,6.44h0c-4.64,2.56-12.77,2.81-21.63,2.43-1.14,0-2.15-.08-3.06-.08h-1.26c-8.77.21-7.84,2.83-24.5,4.26-19,1.62-26-4.19-27.1-6.83-.94-2.25,7.21-4.79,16.31-7.7l1.33-.43c1.21-.38,2.43-.78,3.64-1.18,10.84-3.6,21.51-7.87,24.17-18.85,2.82-11.63-5.66-44.1-5.66-44.1l30.09-3.25s2.9,34,4.79,44.52c1,5.65,3.58,10.14,5.07,15q.17.51.3,1A33.13,33.13,0,0,1,1977.41,1342.69Z"/>
        <path class="cls-14" d="M1977.41,1342.69a7,7,0,0,1-4,6.44h0c-4.94,2.29-12.94,2.62-21.62,2.37-1.13,0-2.15,0-3.07,0h-1.26c-8.77.21-7.84,2.83-24.5,4.26-19,1.62-26-4.19-27.1-6.83-.94-2.25,7.21-4.79,16.31-7.7a56.37,56.37,0,0,0,29.13,2.48c12.67-2.38,25.25-8.69,34.3-10.79q.17.51.3,1A33.13,33.13,0,0,1,1977.41,1342.69Z"/>
        <path class="cls-10" d="M1782.17,1304.29c-1.67,8.36-13.58,7-26.89,3.71s-10.15.61-29.09-1.48-24.67-9.16-25.25-12c-.52-2.5,8.84-3.38,18.88-4.53l3.8-.46c11.33-1.42,19.63-8.73,29.92-14.74,9.75-5.69,24.31-28.87,24.31-28.87l26,2.06s-13.63,20.7-18.9,29.7c-3.1,5.3-2.94,12.3-2.55,17.7A33.52,33.52,0,0,1,1782.17,1304.29Z"/>
        <path class="cls-14" d="M1755.28,1308c-13.31-3.25-10.15.61-29.09-1.48s-24.67-9.16-25.25-12c-.52-2.5,8.84-3.38,18.88-4.53l.09.19a53.44,53.44,0,0,0,27.13,8.43c12.85.31,26.46-3.37,35.33-3.23a33.52,33.52,0,0,1-.2,8.89C1780.5,1312.65,1768.59,1311.25,1755.28,1308Z"/>
        <path class="cls-10" d="M1840,922.8s-6.19-15.16-13-15.78-28.47-4-30-.93,0,14.23,4.64,18.26S1835,934.87,1835,934.87Z"/>
        <path class="cls-15" d="M1881.71,1138.21l56,150.64a51.1,51.1,0,0,0,16.85-1.54c7.59-2.18,16.28-7.93,16.28-7.93s-13.89-144.64-39.34-174.73S1881.71,1138.21,1881.71,1138.21Z"/>
        <path class="cls-4" d="M2121,1070.09a53.19,53.19,0,0,1-35.95,1.29c-43-13.75-150.22-46.12-178.7-36.93-35.87,11.57-143.58,225.86-143.58,225.86s2.43,3.23,9.07,5.72c6.17,2.32,21.11,2.17,21.11,2.17s97.2-83.32,108.77-107.62,16.2-47.45,27.78-45.13,149.27,56.7,180.52,24.3,23.07-74.5,23.07-74.5Z"/>
        <path class="cls-16" d="M2004.82,824.24c-2.57-5.3-5.44-14.72-6.85-31.51.22,1.67,3.11,22.84,11.26,34.83,33.45,22,97.57,95.3,96.3,109.19,0,0,22.58-38.3,23-38.53,0,0,41.66-53-7.71-83.32-25.1-15.42-25-35.22-23.92-52.41s-6.85-91.22-57.12-71.85c0,0-8.06-3.58-11.68-3a9.89,9.89,0,0,1,4.46,2.11c-5.83-.34-14.16.09-21.12,4C1993,704.22,1976.49,798.17,2004.82,824.24Z"/>
        <path class="cls-10" d="M2011.21,828.66c-.17.07,16.15,8.54,28.42,5.19,11.55-3.15,19.09-18.12,18.94-18.16-4.89-1-6.3-7.69-6.2-36.56l-2.21.43L2013,786.92s.85,11.7.87,22.72C2013.89,818.89,2013.33,827.67,2011.21,828.66Z"/>
        <path class="cls-17" d="M2013,786.92s.85,11.7.87,22.72c20.8-.59,31.79-19.56,36.3-30.08Z"/>
        <path class="cls-16" d="M2054,775.52s10.9-17.22,13.51-31.95c1.87-10.51-3.48-49.48-42.64-43.87A53.2,53.2,0,0,0,2002.8,708c-8.5,5.74-20.77,18.14-7,52.15l3.56,11.48Z"/>
        <path class="cls-10" d="M2006.05,797.36s49.2.81,49.24-29.84,6.41-51.19-25-53-37.54,9.88-40,20.11S1993.25,796.36,2006.05,797.36Z"/>
        <path class="cls-16" d="M2052.51,720.22s-33.61-23-44.24-7.09c-3.23-2.76-9-4.76-16.56,4.44-11.41,13.83-1.26,38.27-1.26,38.27,4.68.55,5.79-15.52,8.24-23.33,1.85-5.88,8-11.89,11-14.49,4.3,9.67,16.1,32.83,32.38,37,20.67,5.32,29.64-.22,29.64-.22A58.55,58.55,0,0,1,2052.51,720.22Z"/>
        <path class="cls-18" d="M2120.79,961c4.85-20.35-11.66-59.84-28.9-92.54-15.63-29.63-31.87-53.67-33.32-52.81-41.25,24.48-45,4.13-45,4.13s-37.46,5-48.07,23.24c-14.67,25.25-30.65,101-46.35,99.91-7.2-.52-79.72-27.78-79.72-27.78s-12.09,11.32-9.77,25.21c0,0,35.8,24,66.08,39.28,16,8.09,30.49,13.75,37.3,12.15,13.79-3.25,35.34-35.23,47-54.05l.08-.13c14.86,84.11-5.35,103.27,4.88,112.14,10.8,9.36,26.23-4.46,60.18,10.25,22.27,9.66,53.16,23.63,74,26.06,10.91,1.28,19.05-.62,21.71-8C2148.56,1056.7,2111.53,999.84,2120.79,961Z"/>
        <path class="cls-19" d="M2140.85,1078.11c-2.66,7.37-10.8,9.27-21.71,8-14.39-6.28-76.58-30.37-75.89-46.7,1-24.17,12-24.94,4.24-54.77-6.19-24,51.27-68.5,60.44-78.18,17.23,32.7,17.71,34.24,12.86,54.59C2111.53,999.84,2148.56,1056.7,2140.85,1078.11Z"/>
        <path class="cls-19" d="M1980,937.78c-11.64,18.82-33.19,50.8-47,54.05-6.81,1.6-21.28-4.06-37.3-12.15,11.69,3,23,2.93,34.08,1.86,12-1.16,15.43-15.81,34.33-37.8C1976.43,929.48,1979.44,933.07,1980,937.78Z"/>
        <path class="cls-10" d="M2037.66,984.05s-10.42-8.1-20.25-6.17-14.66,8.68-14.28,11.76,5.6,11.77,13.12,12.54,28.93-4.63,28.93-4.63Z"/>
        <path class="cls-18" d="M2058.57,815.69s40.1,2.47,54,21.84c19.54,27.26,66.45,148.51,44.23,164-25,17.45-122-.52-122-.52s-3-13.82,1.16-20.51,71-17.48,74.07-20.57-38.58-60.18-38.58-69.43S2058.57,815.69,2058.57,815.69Z"/>
      </g>
      <path class="cls-20" d="M2460.51,1060.23l-91.35-7.71s-149.08.65-163,19.71c0,0-22.53,14.11,7.56,88s60.56,155.13,60.56,155.13a77.1,77.1,0,0,0,14.91.26c10.28-.83,13.7-4.17,13.7-4.17s-2.12-101.06-17.17-143.94-20.83-38.52,5.79-36.14,101.45,21.05,153,11.17C2483.52,1135.06,2460.51,1060.23,2460.51,1060.23Z"/>
      <g>
        <path class="cls-15" d="M2228.63,1348.94c.61,1.43,1.9,5.71,10.26,7.32h29.55a58.11,58.11,0,0,1,24.65-5.25c5.66-.08,9.94.16,13.08-1.86l0,0,.45-.26a6.88,6.88,0,0,0,3.55-6.17,33.62,33.62,0,0,0-1.54-8.75c-.1-.34-.19-.69-.3-1-9,2.11-21.63,8.42-34.3,10.8a56.24,56.24,0,0,1-29.13-2.48C2235.83,1344.14,2227.68,1346.69,2228.63,1348.94Z"/>
        <polygon class="cls-15" points="2307.17 1348 2302.74 1356.29 2293.09 1356.29 2293.09 1350.21 2307.17 1348"/>
      </g>
      <path class="cls-21" d="M2289.6,992.5c6.56-9.31,7-126.68,10.81-144.43s37.17-28.25,37.17-28.25-6.18,59.81-13.39,114.2c-5.83,44-6.53,85.9-11,88.32-10,5.4-38.89,27.24-51.94,25.38l-7.89-7a2.79,2.79,0,0,1,.63-4.58C2268,1029,2284.71,999.43,2289.6,992.5Z"/>
      <path class="cls-22" d="M2335.39,693.75c6.24-5,15.29-4.38,21.12-4a9.89,9.89,0,0,0-4.46-2.11c3.62-.54,11.68,3,11.68,3s30.56-15.64,44.7,24.48c0,0-2.43-3-5.78-6.47,8.17,23.08-.09,58-25.85,64.2C2360.05,776.89,2271.49,745.08,2335.39,693.75Z"/>
      <path class="cls-10" d="M2335.19,828.66c-.17.07,16.15,8.54,28.42,5.19,11.55-3.15,19.09-18.12,18.94-18.16-4.89-1-6.3-7.69-6.2-36.56l-2.21.43L2337,786.92s.85,11.7.87,22.72C2337.87,818.89,2337.31,827.67,2335.19,828.66Z"/>
      <path class="cls-17" d="M2337,786.92s.85,11.7.87,22.72c20.8-.59,31.79-19.56,36.3-30.08Z"/>
      <path class="cls-22" d="M2378,775.52s10.9-17.22,13.51-31.95c1.87-10.51-3.48-49.48-42.65-43.87a53.19,53.19,0,0,0-22.06,8.34c-8.5,5.74-20.77,18.14-7.05,52.15l3.56,11.48Z"/>
      <path class="cls-10" d="M2330,797.36s49.2.81,49.24-29.84,6.41-51.19-25-53-37.54,9.88-40,20.11S2317.23,796.36,2330,797.36Z"/>
      <path class="cls-23" d="M2318,865.22c.86-3.49-6.51-6.11-8.31-3-3.38,5.83-4,13.17-5.4,19-3.86,16.71,0,39.6,0,39.6Z"/>
      <path class="cls-22" d="M2315.69,717.57c7.59-9.2,13.33-7.2,16.56-4.44,10.63-15.89,44.24,7.09,44.24,7.09a58.55,58.55,0,0,0,19.15,34.6s-9,5.54-29.64.22c-16.28-4.19-28.08-27.35-32.38-37-2.92,2.6-9.1,8.61-10.95,14.49-2.45,7.81-3.56,23.88-8.24,23.33C2314.43,755.84,2304.28,731.4,2315.69,717.57Z"/>
      <path class="cls-23" d="M2302.16,927.25s6.24,89.3-12,109.45l37.48-23.65Z"/>
      <path class="cls-21" d="M2301.27,922.91c19.94,96.14,3.26,110.9,13.62,120.35.05,0,9.19,4,9.25,4,10.81,9.37,11.08-2,45,12.73,16.17,7,36.9,16.3,55,21.8a113.33,113.33,0,0,0,18.95,4.26c10.91,1.28,19.05-.62,21.71-8,7.71-21.41-29.32-78.27-20.06-117.07.07-.33.15-.67.22-1a42.42,42.42,0,0,0,.45-11.56c-1.73-21.65-15.4-53.11-29.56-80-15.64-29.63-31.88-53.67-33.33-52.81-41.25,24.48-45,4.13-45,4.13S2294.46,890.12,2301.27,922.91Z"/>
      <path class="cls-23" d="M2320.87,1046c.05,0-.07,0,0,0,10.8,9.37,14.35-.63,48.29,14.08,16.17,7,36.9,16.3,55,21.8,9.25,1.61,16.14,3,18.95,4.26,10.91,1.28,19.05-.62,21.71-8,7.71-21.41-29.32-78.27-20.06-117.07.07-.33.15-.67.22-1a35.87,35.87,0,0,0,.45-11.56c-2-16.45-14.05-34.3-27.75-60.29-9.17,9.68-78-1.54-61.72,94.12C2361,1011.64,2325.15,1023.2,2320.87,1046Z"/>
      <path class="cls-10" d="M2324.21,1050.85s-15.17-3.6-22.12-.77-20.83,10-19.54,13.88,17.74,5.92,24.69,2.06,12.08,1,20.57-1.8S2324.21,1050.85,2324.21,1050.85Z"/>
      <path class="cls-21" d="M2382.55,815.69s56,.75,66,27.75,6.94,121.9-7.72,150.45-98,67.12-107.23,68.66-15.05-12.73-14.66-14.27,87.56-72.14,87.18-79.47S2382.55,815.69,2382.55,815.69Z"/>
    </g>
    <g>
      <g>
        <path class="cls-9" d="M889,795.63s11.43-13.34.71-21.81c0,0-7.84-4.74-14.23-4.36,0,0,9.06,15.18,6.13,16.69s-8.87-17.64-8.87-17.64-17.83-1.73-23.57,1c0,0,15.25,12.47,12,13.21s-19.68-11.5-19.68-11.5-16.59,2.83-15.71,13,6.61,13.25,9.12,13,17.21-5.88,17.53-3.82-8.53,8.79-14.72,9.1c0,0,11.7,12.9,19.47,9.18s8.44-9.63,13.29-11.84,9-2.21,7,.05-10.77,4.45-13.54,9.35-5.26,8.21,2.78,7,21.12-7.09,21.7-13.83Z"/>
        <g>
          <path class="cls-9" d="M834,784.47s45.07-1.73,55,11.16a32.54,32.54,0,0,0,9,12.59l1,2.88s-7.81-8.24-10.6-8.73C888.41,802.37,892.78,786.4,834,784.47Z"/>
          <path class="cls-9" d="M898,808.22s9.67,7.16,10.34,19.94l-1.75.16s-3.09-13.22-8.68-18.39S898,808.22,898,808.22Z"/>
        </g>
      </g>
      <g>
        <path class="cls-7" d="M929,778.85s-18.19-10.18-9.7-24c0,0,6.79-8.48,14.06-10.67,0,0-3.88,20.61,0,21.1S936,742,936,742s19.15-9.21,26.67-8.48c0,0-11.88,20.12-8,19.63s17.21-20.85,17.21-20.85,19.64-3.63,22.79,8-1.94,17.46-4.85,18.19-21.57.48-21.09,2.91,13.09,6.3,20.12,4.12c0,0-7.75,19.15-17.94,18.18s-13.33-7.27-19.64-7.75-10.91,1.21-7.75,2.9,13.82.56,18.91,4.89,9.21,7-.24,8.93-26.43.73-29.83-6.54Z"/>
        <g>
          <path class="cls-9" d="M985.68,743.94S934.77,760.43,929,778.85a38.7,38.7,0,0,1-4.85,17.7v3.64s5.33-12.36,8.24-14.06C932.34,786.13,921,770.13,985.68,743.94Z"/>
          <path class="cls-9" d="M924.1,796.55s-7.85,11.93-3.38,26.44l2-.54s-2-16,2.15-24S924.1,796.55,924.1,796.55Z"/>
        </g>
      </g>
      <g>
        <path class="cls-7" d="M900,764.81s24-13.42,12.78-31.64c0,0-8.95-11.19-18.53-14.06,0,0,5.11,27.16,0,27.8s-3.52-30.68-3.52-30.68-25.25-12.14-35.15-11.18c0,0,15.66,26.52,10.54,25.88s-22.69-27.48-22.69-27.48-25.89-4.8-30,10.54,2.56,23,6.39,24,28.44.64,27.81,3.84-17.26,8.31-26.53,5.43c0,0,10.23,25.25,23.65,24s17.58-9.58,25.89-10.22,14.38,1.59,10.22,3.83-18.21.73-24.92,6.44-12.15,9.22.31,11.78,34.84,1,39.32-8.63Z"/>
        <g>
          <path class="cls-9" d="M825.23,718.79s67.12,21.73,74.79,46c0,0-.32,10.87,6.39,23.33v4.8s-7-16.3-10.86-18.54C895.55,774.4,910.57,753.31,825.23,718.79Z"/>
          <path class="cls-9" d="M906.41,788.14s10.35,15.72,4.45,34.85l-2.66-.71s2.58-21.08-2.83-31.68S906.41,788.14,906.41,788.14Z"/>
        </g>
      </g>
      <path class="cls-24" d="M900.83,864.48a47,47,0,0,1-47-47h93.91A47,47,0,0,1,900.83,864.48Z"/>
      <path class="cls-25" d="M889.27,864.12a47,47,0,0,0,52.79-46.59H930.39A47,47,0,0,1,889.27,864.12Z"/>
      <path class="cls-24" d="M853.23,866.87h95.2a5.79,5.79,0,0,0-5.79-5.79H859a5.79,5.79,0,0,0-5.79,5.79Z"/>
      <rect class="cls-26" x="852.81" y="817.53" width="96.52" height="1.44" transform="translate(1802.13 1636.5) rotate(180)"/>
    </g>
    <g>
      <g>
        <path class="cls-27" d="M729.68,854.89s11-3.65,16.26-2.55,21.74,8.76,22.1,10.41a6,6,0,0,1,0,2.83H729.68s-8.58-1.67-10-6.73S729.68,854.89,729.68,854.89Z"/>
        <path class="cls-28" d="M586.53,1338.31a7.37,7.37,0,0,0,4.8,6.37h0c5.11,2.24,13.68,1.73,22.94.49,1.19-.16,2.25-.29,3.21-.38l.74-.06.58,0c9.22-.61,8.5,2.23,26.12,2.15,20.08-.11,26.87-6.87,27.79-9.76.78-2.44-8-4.34-17.85-6.53l-1.43-.32-3.94-.89c-11.72-2.75-23.32-6.22-27.16-17.48-4.07-11.94-3.11-47.38-3.11-47.38H583.7s9.33,39.15,8.35,50.43c-.53,6-3.41,7.74-4.52,13-.08.37-.15.73-.22,1.1A35.13,35.13,0,0,0,586.53,1338.31Z"/>
        <path class="cls-29" d="M545.15,955.28c3,16.86,7.28,34.27,11,52.38,6,29.12,10.49,60.06,5.87,93.37a116.06,116.06,0,0,0-1,14.11c-.9,58.88,25.41,165.58,25.41,165.58s7.15,3.08,19.12,2.49c6.16-.31,15.63-4.28,15.63-4.28s2.49-66.16,2.64-155.13c.1-64.49,12.77-149.4,15.32-199.3,1.55-30.19-1.81-70.42-1.81-70.42s-52.44-42.17-71.28-20.59C547.46,854.8,533.91,892.24,545.15,955.28Z"/>
        <path class="cls-30" d="M562,1101a116.06,116.06,0,0,0-1,14.11c39.27-56.9,48-181,48-181l-43.14,20.93s-4.73,23.27-9.71,52.57C562.13,1036.78,566.64,1067.72,562,1101Z"/>
        <path class="cls-28" d="M473.07,1338.31a7.37,7.37,0,0,0,4.8,6.37h0c5.11,2.24,13.68,1.73,22.94.49,1.19-.16,2.25-.29,3.21-.38l.74-.06.58,0c9.22-.61,8.5,2.23,26.12,2.15,20.08-.11,26.87-6.87,27.79-9.76.78-2.44-8-4.34-17.85-6.53l-1.43-.32-3.94-.89c-11.72-2.75-23.32-6.22-27.16-17.48-4.07-11.94,1.74-46.83,1.74-46.83l-32.95-2.76s2.05,39.76,1.07,51c-.53,6-3.59,9.34-4.7,14.56-.08.37-.15.73-.22,1.1A35.13,35.13,0,0,0,473.07,1338.31Z"/>
        <path class="cls-29" d="M477.72,1283.73s8.47,4,14.57,5.23,18.77-1.16,18.77-1.16A857.57,857.57,0,0,1,529,1176.91c11.75-51.47,29.23-112.29,53.6-169.89,5.21-12.3,26.68-70.52,30.32-85.22,11-44.39,0-39.61,0-39.61l-96.29-11.3s-11.87,6.1-17.33,68.79c-1.63,18.77-1.84,99.84-4.3,115.2-2.33,14.56-5.06,26.66-8.27,34.52C468.77,1133.31,477.72,1283.73,477.72,1283.73Z"/>
        <path class="cls-31" d="M473.07,1338.31a7.37,7.37,0,0,0,4.8,6.37h0c5.4,1.93,13.84,1.52,22.92.43,1.19-.14,2.25-.24,3.23-.32l.74-.06.58,0c9.22-.61,8.5,2.23,26.12,2.15,20.08-.11,26.87-6.87,27.79-9.76.78-2.44-8-4.34-17.85-6.53a59.25,59.25,0,0,1-30.34,5.38c-13.52-1.29-27.33-6.71-37-8.06-.08.37-.15.73-.22,1.1A35.13,35.13,0,0,0,473.07,1338.31Z"/>
        <path class="cls-31" d="M586.53,1338.31a7.37,7.37,0,0,0,4.8,6.37h0c5.4,1.93,13.84,1.52,22.92.43,1.19-.14,2.26-.24,3.23-.32l.74-.06.58,0c9.22-.61,8.5,2.23,26.12,2.15,20.08-.11,26.87-6.87,27.79-9.76.78-2.44-8-4.34-17.85-6.53a59.25,59.25,0,0,1-30.34,5.38c-13.52-1.29-27.33-6.71-37-8.06-.08.37-.15.73-.22,1.1A35.13,35.13,0,0,0,586.53,1338.31Z"/>
        <path class="cls-32" d="M625.05,582.57c3.26-26.56-5-69.06-58-62.27s-69.72,58.89-59,82.06S492.58,631.11,484.39,656c-7,21.4-9.49,48-20.87,59.9-36.7,38.45,35.23,97.57,78.6,85.1,79-22.71,89.16-26.1,86.35-88.16C627,681.06,602.3,668.74,618,659.54,656,637.32,617.69,642.67,625.05,582.57Z"/>
        <path class="cls-27" d="M547.15,652.13l14.58,37.73,31.55,1.54L609,667.86c-17.83-13.51-17.07-39.38-16.2-48.41.2-2,.4-3.22.4-3.22l-39.45-12c-.47,10.43-1.06,18.58-1.68,25C549.86,651.59,547.15,652.13,547.15,652.13Z"/>
        <path class="cls-27" d="M609.12,650.77c-2,0-36.46-7-94.6,7.86,0,0,31.84,145.89,21,173.39a290.17,290.17,0,0,0-14.93,51.9L638,885.37s-1.64-94.38,3.77-127.78S609.12,650.77,609.12,650.77Z"/>
        <path class="cls-33" d="M522.6,813.49c-1.71,19.31-19.76,63.44-15.85,72.84,4.09,9.87,9.77,14.87,22.2,17.72,8.57,2,20.35,2.93,37,3.76,35.35,1.76,73.23-2.69,78.39-19.49,2.47-8.07,1.52-39.28.21-53.69-2.71-29.81,3-72.6,3.79-100.28.69-23.1-13.24-75.65-13.24-75.65s-6.28-4-26-7.93c0,0-2.08,27.29-16.32,29.64-24.63,4.07-44.48-18.5-50.28-27.58,0,0-28.28,7.14-36.59,16.61-7.86,9,2.9,75.35,5.29,81.71,2.06,5.47,4,10.8,5.72,16.16C521.43,781.45,524.18,795.81,522.6,813.49Z"/>
        <path class="cls-27" d="M421.88,855s-11-3.61-16.26-2.53-21.74,8.69-22.1,10.32a5.87,5.87,0,0,0,0,2.81h38.36s8.58-1.66,10-6.67S421.88,855,421.88,855Z"/>
        <path class="cls-34" d="M552.07,631.69c14.39-9.65,32.48-10.13,40.73-9.74.2-2,.4-3.22.4-3.22l-39.45-12C553.28,617.15,552.69,625.3,552.07,631.69Z"/>
        <path class="cls-27" d="M603.5,618.91s-47.22,9.48-52.68-20-15.22-48.14,14.7-55.44,37.88,2.86,42.09,12.27S615.64,615.68,603.5,618.91Z"/>
        <path class="cls-32" d="M541.68,545.41c8-9,19.52-10.74,27.92-10.59-5.06-6.14,15.31-19.6,38.61,3.35,10,9.89,8.51,29.33,3.14,40.61,0,0-8.26-24.17-23.28-29.44a32.73,32.73,0,0,1-9.44-5.46c-1.83,4.6-5.51,11.1-12.91,19.19-15.53,17-12.5,51.31-12.5,51.31S527.72,561.12,541.68,545.41Z"/>
        <path class="cls-3" d="M588.79,604.4s1.26,3.5,10.15,1.91c0,0,7.46-1.33,6.78-5.26C605.72,601.05,598.1,599.08,588.79,604.4Z"/>
        <path class="cls-35" d="M459.23,784.35c17.87-68.93,27.67-108.29,42.3-120.2,12.94-10.53,40.85-11.5,40.85-11.5a141.39,141.39,0,0,1-1,24.85l34.34,65.43s17.59,34.81,23.84,72.88C604.31,778,609,742.93,609,742.93a395.37,395.37,0,0,0,5.82-42.84c-4.14-16-3.7-32.63-5.65-49.32l2.16.12c6.78.48,27.92,2.63,38.7,11.48,14.63,12,17.92,64.78,42.3,121.26,0,0,29.54,49.67,38.94,69.38a16.71,16.71,0,0,1-5.29,4.72,27.68,27.68,0,0,1-7.72,2.75S665,808,661.47,799.71c-1.15-2.73-7.6-12.3-15.6-26.38h0s-2.13,75,2.53,107.33a16.78,16.78,0,0,1-8.33,17c-32.91,18.59-131.5,69.23-149.85,20.05-2.05-5.52,34-99.18,29-119.46-1.58-6.48-3.66-21.28-5.77-38.39-11.29,21.65-21.9,36.86-23.41,40.41-3.5,8.22-56.79,60.24-56.79,60.24a28.16,28.16,0,0,1-7.73-2.73,16.78,16.78,0,0,1-5.28-4.68C429.69,833.59,459.23,784.35,459.23,784.35Z"/>
        <path class="cls-2" d="M544.24,652.45l31.51,90.48-31.5-29.79,2.38-9.26s-7.24.65-10.18-1.25-9.78-48.15-9.78-48.15,6.41-1.08,8.54-1.32S544.24,652.45,544.24,652.45Z"/>
        <path class="cls-2" d="M609.17,650.77s6.64,71.52-.17,92.16c0,0,19.49-30.87,15.84-37.26L617.78,701s13.64-1.77,11.08-9.61-13.52-39.62-13.52-39.62Z"/>
      </g>
      <g>
        <polygon class="cls-36" points="968.11 1358.54 216.92 1358.54 216.92 1111.84 968.11 1109.38 968.11 1358.54"/>
        <rect class="cls-36" x="216.92" y="912.08" width="751.2" height="64.51"/>
      </g>
      <rect class="cls-4" x="178.96" y="865.58" width="825.69" height="46.5" rx="20.77" transform="translate(1183.61 1777.65) rotate(180)"/>
      <g>
        <rect class="cls-32" x="523.31" y="725.54" width="26.99" height="15" rx="2.65" transform="translate(-44.03 34.37) rotate(-3.52)"/>
        <rect class="cls-35" x="539.89" y="727.77" width="7.07" height="9.48" transform="translate(1130.84 1430.23) rotate(176.48)"/>
        <path class="cls-35" d="M527.3,731.13l8.79-.54a1.19,1.19,0,0,0,1.11-1.26h0a1.19,1.19,0,0,0-1.26-1.11l-8.78.54a1.19,1.19,0,0,0-1.11,1.26h0A1.18,1.18,0,0,0,527.3,731.13Z"/>
        <path class="cls-35" d="M526.77,734.44l10.25-.63a.45.45,0,0,0,.42-.48h0a.44.44,0,0,0-.47-.42l-10.25.63a.44.44,0,0,0-.42.48h0A.45.45,0,0,0,526.77,734.44Z"/>
        <path class="cls-35" d="M526.86,735.9l10.25-.63a.44.44,0,0,0,.42-.48h0a.45.45,0,0,0-.47-.42l-10.25.63a.46.46,0,0,0-.43.48h0A.45.45,0,0,0,526.86,735.9Z"/>
      </g>
      <path class="cls-32" d="M595.27,819.12a3.41,3.41,0,1,0-3.4,3.4A3.4,3.4,0,0,0,595.27,819.12Z"/>
      <path class="cls-32" d="M595.27,840.46a3.41,3.41,0,1,0-3.4,3.41A3.4,3.4,0,0,0,595.27,840.46Z"/>
      <polygon class="cls-37" points="958.14 1109.38 226.89 1111.84 226.89 976.59 958.14 976.59 958.14 1109.38"/>
      <g>
        <polygon class="cls-36" points="290.94 753.72 315.01 865.58 221.18 865.58 200.19 753.72 290.94 753.72"/>
        <polygon class="cls-3" points="287.71 757.28 309.46 858.31 224.71 858.31 205.75 757.28 287.71 757.28"/>
      </g>
      <g>
        <path class="cls-36" d="M216.86,765.39h64.51a2.16,2.16,0,1,1,0,4.32H216.86a2.16,2.16,0,1,1,0-4.32Z"/>
        <path class="cls-36" d="M220.15,775.58h64.51a2.16,2.16,0,1,1,0,4.32H220.15a2.16,2.16,0,0,1,0-4.32Z"/>
        <path class="cls-36" d="M222.21,785.35h64.51a2.16,2.16,0,0,1,0,4.32H222.21a2.16,2.16,0,0,1,0-4.32Z"/>
        <path class="cls-36" d="M225.19,805.5H289.7a2.17,2.17,0,0,1,0,4.33H225.19a2.17,2.17,0,0,1,0-4.33Z"/>
        <path class="cls-36" d="M228.49,815.69H293a2.16,2.16,0,0,1,0,4.32h-64.5a2.16,2.16,0,0,1,0-4.32Z"/>
        <path class="cls-36" d="M230.54,825.46h64.51a2.16,2.16,0,0,1,0,4.32H230.54a2.16,2.16,0,0,1,0-4.32Z"/>
      </g>
      <rect class="cls-38" x="335.23" y="815.4" width="2.68" height="48.35" transform="translate(-228.16 133) rotate(-16.79)"/>
      <path class="cls-39" d="M343.05,857.88a9.26,9.26,0,0,1,9.35,7.7H333.69A9.26,9.26,0,0,1,343.05,857.88Z"/>
      <path class="cls-39" d="M330.79,864.34a48.84,48.84,0,0,0,7.42-.65l-.1-.61c-3.58.61-13.1,1.54-14.17-1.45-.47-1.33,0-3.57.59-6.67a67.35,67.35,0,0,0,.82-26c-1.55-9.3-.4-12.12.84-12.84s3,.63,3.06.64l.39-.48c-.09-.07-2.11-1.67-3.76-.69-2.05,1.19-2.43,5.73-1.14,13.47a66.65,66.65,0,0,1-.82,25.82c-.63,3.2-1.09,5.51-.56,7C324.07,863.81,327.44,864.34,330.79,864.34Z"/>
    </g>
    <g>
      <g>
        <path class="cls-13" d="M1209.31,1293.23s-13.13,12.16-10.57,20.81,14.41,14.4,16,25,8,16.32,13.76,16.32H1256s4.24-7.43-6-9.67-14.11-14.66-13.47-26.18-1-26.89-1-26.89l-21.77-5.13Z"/>
        <path class="cls-13" d="M1372.9,1354.89a4.4,4.4,0,0,0,.86.3h73.49c-.64-2.6-3-7.55-11.6-9-11.48-1.86-31.36-8.53-35.8-23.2-.14-.47-.27-1-.38-1.45-3.52-15.68-29.13,4.81-29.13,4.81s-.08.62-.19,1.68C1369.56,1333.84,1368,1352.46,1372.9,1354.89Z"/>
        <path class="cls-20" d="M1432.6,935.31s-3.89,48.53-8.46,106.87c-6.22,79.24-13.69,176.58-14.43,195-1.27,32-6.4,83.24-6.4,83.24s-12.16,12.17-36.5,7c0,0-21.69-73.12-27.88-150.48-.1-1.27-.19-2.55-.29-3.82-5.76-78.76-14.72-244.59-14.72-244.59Z"/>
        <path class="cls-13" d="M1432.6,935.31s-3.89,48.53-8.46,106.87L1338.93,1177c-.1-1.27-.19-2.55-.29-3.82-5.76-78.76-14.72-244.59-14.72-244.59Z"/>
        <path class="cls-20" d="M1414.84,941.07s-70.11,175.76-116.21,258.36-60.51,105.64-60.51,105.64-26.41-10.56-28.81-17.77c0,0,17.62-159.45,48.5-198.32,17.44-22,37.93-87.88,38.89-110.93s6.25-68.67,6.25-68.67Z"/>
      </g>
      <g>
        <path class="cls-40" d="M1393.35,615.65c-26.12,8.24-71.32-14-71.32-14s20.38-15.29,22.66-47c0-.44.07-.87.08-1.32q.21-3.52.09-7.33l7.15,5.76,26.76,21.58s-1.37,10.64-1.92,28.37a55.27,55.27,0,0,1,10.21,7.18A40.75,40.75,0,0,1,1393.35,615.65Z"/>
        <path class="cls-40" d="M1293,598.26s69-10.9,114.53,19.22c0,0,30.91,202,4,221.15s-118.53,0-118.53,0Z"/>
        <path class="cls-35" d="M1385.18,1056H1260.41s14.5-212.91,18.63-264.73c3.37-42,10.48-142.83,13-179.42.6-8.53,1-13.57,1-13.57l29.78-5.08L1374,659.49s8.09,176.83,7.79,204.7,3.23,136.47,3.4,154.73S1385.18,1056,1385.18,1056Z"/>
        <path class="cls-35" d="M1374,659.49,1385.18,1056H1444s-2.72-260.77-2.92-284.73,6.39-127.17-12-143.19c-15.34-13.38-52.24-26.38-52.24-26.38Z"/>
        <path class="cls-35" d="M1377.23,592.53s16.76,11.54,16.13,15.69a77.88,77.88,0,0,1-2.93,10.7l-10.26-2.08,8.65,6.08S1379,651.53,1374,659.49Z"/>
        <path class="cls-41" d="M1285.06,710.63c7.34-45.1,92.12,21.54,85.08,80.69-13,109.43-68.57,231.44-109.73,264.66Z"/>
        <path class="cls-42" d="M1344.69,554.62a3,3,0,0,0-.38-1.21l.46-.11,7.24-1.57,26.76,21.58s-1.16,10.05-2,28.41C1376.72,601.63,1349.21,586.4,1344.69,554.62Z"/>
        <path class="cls-40" d="M1389.67,579.87s-46.59-1.3-45.33-30.31-3.91-48.7,25.9-49.1,35.09,10.93,37,20.71S1401.83,579.46,1389.67,579.87Z"/>
        <path class="cls-13" d="M1344.31,553.41s6.07,1.6,10.88-4.81,12.81-31.07,23.38-32.67,24.51,6.24,29,1.76c6.55-6.54,15-17.24,15-17.24s-52.43-37.38-73.36-20.08S1321,523,1344.31,553.41Z"/>
        <path class="cls-13" d="M1407.24,657c-1-18-10.78-47.23-10.87-47.51l2.8,1.24c.35,1.17,8.14,27.88,9.15,46.23Z"/>
        <path class="cls-13" d="M1339.38,710.63c-1-1-25-24.09-19.85-40.25,2-6.3,5.66-8.78,9.56-10.61,3.63-1.33,12.11-2.71,16.49.05,8,5,12,18.92,13.2,42l-1,0c-1.41-27.41-8.48-37.33-13.76-39.57-6.63-2.81-18.28-1.65-21.94,9-2.52,7.31,2.43,17.54,7,24.56,5.1,7.8,10.66,14.71,10.72,14.77Z"/>
        <path class="cls-39" d="M1341.88,713.12h0a2.38,2.38,0,0,1-3.35,0l-1.64-1.64a2.37,2.37,0,0,1,0-3.34h0a2.37,2.37,0,0,1,3.34,0l1.65,1.64A2.38,2.38,0,0,1,1341.88,713.12Z"/>
        <path class="cls-39" d="M1358.38,706.26h0a2.36,2.36,0,0,1-2.36-2.36v-2.32a2.36,2.36,0,0,1,2.36-2.36h0a2.36,2.36,0,0,1,2.36,2.36v2.32A2.36,2.36,0,0,1,1358.38,706.26Z"/>
        <path class="cls-13" d="M1401.17,657a6.41,6.41,0,1,1,6.4,6.41A6.41,6.41,0,0,1,1401.17,657Z"/>
        <path class="cls-5" d="M1404.56,657a3.26,3.26,0,1,1,3.25,3.26A3.26,3.26,0,0,1,1404.56,657Z"/>
        <path class="cls-2" d="M1378.54,1056c0-.4-4.08-40.34-2.92-75.05.5-14.67.08-31.91-.32-48.58-.57-23.79-1.85-46.69.07-61.63,3.29-25.56,2.63-141.73,1.28-154.32-1.31-12.28-.06-25.75,1.16-29.81s-4.07-26.79-4.13-27l.62-.16c.24,1,6,23.26,4.69,27.57-1.21,4-3,17.16-1.7,29.35,1.35,12.6,3.93,128.75.64,154.34-1.91,14.88-2.56,37.9-2,61.66.4,16.68.82,33.94.33,48.62-1.17,34.67,4.72,74.63,4.76,75Z"/>
        <path class="cls-35" d="M1481.86,737.05s15.78,27.18-.77,34.33-18.34-.39-18.34-.39Z"/>
        <path class="cls-35" d="M1349.58,753.79s2.51,5.12,2.23,9.72c-.3,4.81-2.55,12.06-2.55,12.06s-97.47,20.75-116.4,3.41c-20.34-18.62,17.39-158.52,33.54-172.21,6.95-5.9,21.63-9.5,35.17-11.65,7.47-1.19,14.58-1.94,19.88-2.4,5.46-.47,9-.63,9-.63l-2.2,8.13-8.55,31.58-10,36.85S1280,730,1279,735.73,1349.58,753.79,1349.58,753.79Z"/>
        <path class="cls-41" d="M1363.15,649.69s-24.86-10.82-42.72-20.68c-11.66-6.44-17.63-18.49-18.86-33.89,7.47-1.19,14.58-1.94,19.88-2.4l1.37.46,5.43,7Z"/>
        <path class="cls-35" d="M1374,659.49l-38.71-73.82s-14.44,2.93-19.29,7.47c0,0,2.46,22.2,4.38,27.11,0,0,7.48-.85,8.55-.21,0,0-3.63,5.55-4.7,6.19C1324.22,626.23,1357.87,641.92,1374,659.49Z"/>
        <path class="cls-13" d="M1329.2,662.33c-2.65-5.85-26-55.64-20-68.31l2.28-.28c-4.49,9.6,11.67,52.88,18.69,68.39Z"/>
        <path class="cls-43" d="M1380.57,705.43a3.11,3.11,0,1,1,3.11,3.11A3.11,3.11,0,0,1,1380.57,705.43Z"/>
        <path class="cls-43" d="M1380.57,879.53a3.11,3.11,0,1,1,3.11,3.11A3.11,3.11,0,0,1,1380.57,879.53Z"/>
        <path class="cls-43" d="M1382.14,800a3.11,3.11,0,1,1,3.11,3.11A3.1,3.1,0,0,1,1382.14,800Z"/>
        <path class="cls-43" d="M1382.14,955.18a3.11,3.11,0,1,1,3.11,3.1A3.11,3.11,0,0,1,1382.14,955.18Z"/>
        <path class="cls-33" d="M1347.76,609.48s10.77,5.3,28.18,2l-2,48Z"/>
        <g>
          <polygon class="cls-20" points="1415.82 666.26 1516.62 675.29 1455.11 784.55 1360.23 779.11 1415.82 666.26"/>
          <path class="cls-2" d="M1425.1,665.75s.05-15.44,8.58-14.37S1444.8,668,1444.8,668Z"/>
          <polygon class="cls-33" points="1515.96 673.91 1415.16 664.88 1359.57 777.73 1360.25 779.13 1415.84 666.28 1516.64 675.31 1515.96 673.91"/>
          <path class="cls-35" d="M1433.68,651.38s14.25,7,9.21,29.4-11.3,34.7-7.65,48l67.91,6.24s-7.38-17.62.82-35.46,2.37-38.21-5.15-40Z"/>
        </g>
        <path class="cls-40" d="M1467.6,764.22s-10.33-12.41-8.19-21.38,9.82-11,14.52-7.87,11.54,10.43,10.25,16S1472.79,766.8,1467.6,764.22Z"/>
        <path class="cls-40" d="M1344.43,756.83s17.48-7.69,25.49-5.44,18.82,3.84,19.66,6.72-5.76,13.56-15.59,14.1-27.13,5.13-31.3,0S1344.43,756.83,1344.43,756.83Z"/>
      </g>
    </g>
    <path class="cls-44" d="M73.85,1359.48H2839.71a2.07,2.07,0,0,0,2.07-2.07h0a2.08,2.08,0,0,0-2.07-2.08H73.85a2.08,2.08,0,0,0-2.07,2.08h0A2.07,2.07,0,0,0,73.85,1359.48Z"/>
    <path class="cls-4" d="M1073.67,591h0a6.12,6.12,0,0,0,6.11-6.11V515.18a6.12,6.12,0,0,0-6.11-6.11h0a6.12,6.12,0,0,0-6.12,6.11v69.73A6.12,6.12,0,0,0,1073.67,591Z"/>
    <path class="cls-4" d="M1073.67,1191.33h0a6.12,6.12,0,0,0,6.11-6.11v-69.73a6.12,6.12,0,0,0-6.11-6.11h0a6.12,6.12,0,0,0-6.12,6.11v69.73A6.12,6.12,0,0,0,1073.67,1191.33Z"/>
    <circle class="cls-36" cx="1562.82" cy="778.15" r="18.7" transform="translate(-136.98 379.88) rotate(-13.28)"/>
    <circle class="cls-36" cx="1562.73" cy="951.78" r="18.7"/>
    <path class="cls-4" d="M1562.73,951.07h0a7.29,7.29,0,0,0,7.29-7.3v-162a7.29,7.29,0,0,0-7.29-7.29h0a7.29,7.29,0,0,0-7.3,7.29v162A7.3,7.3,0,0,0,1562.73,951.07Z"/>
    <path class="cls-3" d="M2314.6,757.35l13.62-5.1,39.11,7.11,1.84,27.71s-19.79,13.62-39.14,10.29c0,0-4.33-.28-8.47-7.56C2316.52,781,2314.6,757.35,2314.6,757.35Z"/>
    <path class="cls-3" d="M1989.66,757.35l13.62-5.1,39.11,7.11,1.84,27.71s-19.79,13.62-39.14,10.29c0,0-4.33-.28-8.47-7.56C1991.58,781,1989.66,757.35,1989.66,757.35Z"/>
    <path class="cls-3" d="M1411,541.19l-13.63-5.1-39.11,7.11-1.84,27.71s19.79,13.62,39.15,10.29c0,0,4.32-.27,8.47-7.55C1409,564.81,1411,541.19,1411,541.19Z"/>
    <path class="cls-3" d="M614.19,583.83l-13.63-5.1-39.11,7.11-1.84,27.71s19.79,13.62,39.15,10.29c0,0,4.33-.27,8.47-7.55C612.26,607.45,614.19,583.83,614.19,583.83Z"/>
  </g>
</svg>
