<svg height="512" viewBox="0 0 128 128" width="512" xmlns="http://www.w3.org/2000/svg"><g id="Circle_Grid" data-name="Circle Grid"><circle cx="64" cy="64" fill="#ef5261" r="64"/></g><g id="icon"><path d="m64 21.5a42.5 42.5 0 1 0 42.5 42.5 42.5 42.5 0 0 0 -42.5-42.5z" fill="#575b6d"/><path d="m64 26.567a37.433 37.433 0 1 0 37.434 37.433 37.434 37.434 0 0 0 -37.434-37.433z" fill="#f6c863"/><g fill="#575b6d"><path d="m64.569 47.2a16.7 16.7 0 0 0 -9.7 3.085 11.8 11.8 0 0 0 3.1 3.113 12.468 12.468 0 0 1 13.206 0 11.8 11.8 0 0 0 3.1-3.113 16.7 16.7 0 0 0 -9.706-3.085zm-12.495 16.8c0-.37.018-.735.051-1.1a11.693 11.693 0 0 0 -4.146-1.563 17.049 17.049 0 0 0 -.211 2.663 16.8 16.8 0 0 0 8.432 14.577 11.779 11.779 0 0 0 1.383-4.22 12.493 12.493 0 0 1 -5.509-10.357zm29.27-.965a11.722 11.722 0 0 0 -4.278.965 12.507 12.507 0 0 1 -7 11.218 11.774 11.774 0 0 0 1 4.278 16.8 16.8 0 0 0 10.306-15.496c0-.324-.011-.646-.028-.965z"/><path d="m58.475 55.474c-.091-.051-.185-.1-.279-.147a13.234 13.234 0 0 1 -1.983-21.861 17.31 17.31 0 0 0 -8.206 20.141 17.3 17.3 0 0 0 -14.924 16.267 13.232 13.232 0 0 1 24.412-3.485l2.789-1.611a4.151 4.151 0 0 1 -.072-.778 4.36 4.36 0 0 1 3.075-4.167v-2.933a13.206 13.206 0 0 1 -4.812-1.426zm28.312 2.011a17.224 17.224 0 0 0 -6.187-2.37 17.3 17.3 0 0 0 -7.672-21.648 13.235 13.235 0 0 1 -7.078 23.433v2.93a4.364 4.364 0 0 1 3.078 4.17 4.264 4.264 0 0 1 -.142 1.1l2.4 1.682a13.23 13.23 0 0 1 23.7 6.307 17.283 17.283 0 0 0 -8.099-15.603zm-12.036 28.48a13.233 13.233 0 0 1 -4.9-16.985l-2.416-1.694a4.353 4.353 0 0 1 -5.967-.228l-2.928 1.689a13.231 13.231 0 0 1 -18.13 16.153 17.307 17.307 0 0 0 23.031-2.827 17.308 17.308 0 0 0 22.593 5.2 13.21 13.21 0 0 1 -11.283-1.308z"/></g></g></svg>