<svg xmlns="http://www.w3.org/2000/svg" width="203.466" height="203.466" viewBox="0 0 203.466 203.466">
  <g id="Grupo_17" data-name="Grupo 17" transform="translate(-1266.48 -348.208)">
    <circle id="Elipse_6" data-name="Elipse 6" cx="101.733" cy="101.733" r="101.733" transform="translate(1266.48 348.208)" fill="#fff"/>
    <g id="Grupo_16" data-name="Grupo 16">
      <path id="Trazado_16" data-name="Trazado 16" d="M1368.213,356.486a93.455,93.455,0,1,0,93.455,93.455A93.459,93.459,0,0,0,1368.213,356.486Zm0,169.387a75.932,75.932,0,1,1,75.932-75.932A75.93,75.93,0,0,1,1368.213,525.873Zm.006-128.4c-6.694,0-11.758,3.493-11.758,9.135v51.751c0,5.648,5.064,9.129,11.758,9.129,6.53,0,11.758-3.627,11.758-9.129V406.607C1379.976,401.1,1374.749,397.472,1368.219,397.472Zm0,81.674a11.665,11.665,0,1,0,11.659,11.67A11.681,11.681,0,0,0,1368.219,479.146Z" fill="#e2574c"/>
    </g>
  </g>
</svg>
