<svg height="512pt" viewBox="0 0 512.00104 512" width="512pt" xmlns="http://www.w3.org/2000/svg"><path d="m512 256c0 141.386719-114.613281 256-256 256s-256-114.613281-256-256c0-141.382812 114.613281-256 256-256s256 114.617188 256 256zm0 0" fill="#2c6289"/><path d="m261.46875 309.457031v180.953125c0 10.460938-8.476562 18.933594-18.933594 18.933594h-23.457031c-2.582031-.363281-5.152344-.78125-7.714844-1.230469-28.386719-4.996093-55.167969-14.660156-79.515625-28.191406-54.429687-30.230469-96.671875-79.738281-117.53125-139.296875-5.609375-16.027344-9.675781-32.789062-11.992187-50.101562h240.210937c10.457032 0 18.933594 8.472656 18.933594 18.933593zm0 0" fill="#60bf81"/><path d="m261.46875 309.457031v170.464844h-129.621094c-54.429687-30.230469-96.671875-79.738281-117.53125-139.296875-5.609375-16.027344-9.675781-32.789062-11.992187-50.101562h240.210937c10.457032 0 18.933594 8.472656 18.933594 18.933593zm0 0" fill="#2c9e78"/><path d="m228.566406 484.273438c-3.214844 0-6.148437-2.023438-7.308594-5.015626-1.230468-3.167968-.203124-6.863281 2.453126-8.972656 5.570312-4.417968 13.972656.695313 12.535156 7.6875-.742188 3.613282-3.980469 6.300782-7.679688 6.300782zm0 0" fill="#2c9e78"/><path d="m311.582031 259.34375v180.964844c0 10.460937-8.484375 18.933594-18.945312 18.933594h-192.292969c-11.585938-8.882813-22.390625-18.722657-32.285156-29.425782-23.574219-25.460937-42.027344-55.742187-53.742188-89.191406-5.609375-16.027344-9.675781-32.789062-11.992187-50.101562-1.539063-11.285157-2.32031275-22.820313-2.32031275-34.523438 0-5.234375.15624975-10.429688.46874975-15.578125h292.164063c10.460937 0 18.945312 8.472656 18.945312 18.921875zm0 0" fill="#60bf81"/><path d="m311.582031 259.34375v170.472656h-243.523437c-23.574219-25.460937-42.027344-55.742187-53.742188-89.191406-5.609375-16.027344-9.675781-32.789062-11.992187-50.101562-1.539063-11.285157-2.32031275-22.820313-2.32031275-34.523438 0-5.234375.15624975-10.429688.46874975-15.578125h292.164063c10.460937 0 18.945312 8.472656 18.945312 18.921875zm0 0" fill="#2c9e78"/><path d="m278.671875 434.171875c-3.214844 0-6.148437-2.027344-7.308594-5.019531-1.230469-3.167969-.203125-6.863282 2.453125-8.972656 5.570313-4.417969 13.972656.699218 12.535156 7.6875-.742187 3.613281-3.980468 6.304687-7.679687 6.304687zm0 0" fill="#2c9e78"/><path d="m361.683594 209.242188v180.953124c0 10.460938-8.472656 18.933594-18.933594 18.933594h-291.914062c-7-9.363281-13.375-19.203125-19.058594-29.496094-6.78125-12.277343-12.589844-25.171874-17.300782-38.566406l-.160156-.441406c-5.609375-16.027344-9.675781-32.789062-11.992187-50.101562-1.539063-11.285157-2.32031275-22.820313-2.32031275-34.523438 0-5.234375.15624975-10.429688.46874975-15.578125 1.035156-17.222656 3.773438-33.980469 8.035156-50.113281h334.242188c10.460938 0 18.933594 8.472656 18.933594 18.933594zm0 0" fill="#60bf81"/><path d="m361.683594 209.242188v170.460937h-328.273438c-.554687 0-1.097656-.019531-1.632812-.070313-6.78125-12.277343-12.589844-25.171874-17.300782-38.566406v-150.757812h328.273438c10.460938 0 18.933594 8.472656 18.933594 18.933594zm0 0" fill="#2c9e78"/><path d="m328.777344 384.0625c-3.214844 0-6.148438-2.023438-7.308594-5.015625-1.230469-3.167969-.203125-6.863281 2.453125-8.972656 5.570313-4.417969 13.972656.695312 12.535156 7.6875-.742187 3.613281-3.980469 6.300781-7.679687 6.300781zm0 0" fill="#2c9e78"/><path d="m411.785156 159.136719v180.957031c0 10.457031-8.472656 18.933594-18.933594 18.933594h-338.765624c-10.457032 0-18.933594-8.476563-18.933594-18.933594v-180.957031c0-10.457031 8.476562-18.933594 18.933594-18.933594h338.765624c10.460938 0 18.933594 8.476563 18.933594 18.933594zm0 0" fill="#60bf81"/><path d="m411.785156 159.136719v170.464843h-328.273437c-10.449219 0-18.933594-8.484374-18.933594-18.933593v-170.464844h328.273437c10.460938 0 18.933594 8.476563 18.933594 18.933594zm0 0" fill="#2c9e78"/><path d="m378.882812 333.960938c-3.214843 0-6.148437-2.027344-7.308593-5.019532-1.230469-3.167968-.203125-6.863281 2.453125-8.972656 5.570312-4.417969 13.972656.699219 12.535156 7.6875-.742188 3.613281-3.980469 6.304688-7.679688 6.304688zm0 0" fill="#2c9e78"/><path d="m68.058594 333.960938c-3.421875 0-6.496094-2.304688-7.496094-5.5625-1.023438-3.328126.378906-7.039063 3.308594-8.898438 5.851562-3.714844 13.492187 1.84375 11.78125 8.546875-.878906 3.429687-4.050782 5.914063-7.59375 5.914063zm0 0" fill="#2c9e78"/><path d="m461.894531 109.03125v180.957031c0 10.460938-8.476562 18.933594-18.933593 18.933594h-338.769532c-10.457031 0-18.933594-8.472656-18.933594-18.933594v-180.957031c0-10.457031 8.476563-18.933594 18.933594-18.933594h338.769532c10.457031 0 18.933593 8.476563 18.933593 18.933594zm0 0" fill="#60bf81"/><path d="m461.894531 109.03125v170.464844h-328.277343c-10.449219 0-18.933594-8.484375-18.933594-18.933594v-170.464844h328.277344c10.457031 0 18.933593 8.476563 18.933593 18.933594zm0 0" fill="#2c9e78"/><path d="m428.988281 283.851562c-3.214843 0-6.148437-2.023437-7.308593-5.015624-1.230469-3.167969-.203126-6.863282 2.453124-8.972657 5.570313-4.417969 13.972657.695313 12.535157 7.6875-.742188 3.613281-3.980469 6.300781-7.679688 6.300781zm0 0" fill="#2c9e78"/><path d="m118.164062 283.851562c-3.421874 0-6.492187-2.300781-7.496093-5.558593-1.023438-3.328125.378906-7.039063 3.308593-8.898438 5.851563-3.714843 13.492188 1.84375 11.78125 8.542969-.875 3.433594-4.050781 5.914062-7.59375 5.914062zm0 0" fill="#2c9e78"/><path d="m493.0625 39.992188h-338.761719c-10.460937 0-18.9375 8.476562-18.9375 18.9375v180.953124c0 10.457032 8.476563 18.9375 18.9375 18.9375h338.761719c10.460938 0 18.9375-8.480468 18.9375-18.9375v-180.957031c0-10.457031-8.476562-18.933593-18.9375-18.933593zm0 0" fill="#60bf81"/><path d="m479.09375 185.460938v-72.113282c-22.339844 0-40.449219-18.109375-40.449219-40.449218h-229.925781c0 22.339843-18.109375 40.449218-40.449219 40.449218v72.113282c22.339844 0 40.449219 18.109374 40.449219 40.449218h229.925781c0-22.339844 18.109375-40.449218 40.449219-40.449218zm0 0" fill="#2c9e78"/><path d="m364.433594 149.40625c0 22.507812-18.246094 40.753906-40.753906 40.753906-22.507813 0-40.753907-18.246094-40.753907-40.753906s18.246094-40.753906 40.753907-40.753906c22.507812 0 40.753906 18.246094 40.753906 40.753906zm0 0" fill="#60bf81"/><path d="m434.519531 157.242188h-25.074219c-4.328124 0-7.835937-3.507813-7.835937-7.835938s3.507813-7.835938 7.835937-7.835938h25.074219c4.332031 0 7.839844 3.507813 7.839844 7.835938s-3.507813 7.835938-7.839844 7.835938zm0 0" fill="#60bf81"/><path d="m237.917969 157.242188h-25.078125c-4.328125 0-7.835938-3.507813-7.835938-7.835938s3.507813-7.835938 7.835938-7.835938h25.078125c4.328125 0 7.835937 3.507813 7.835937 7.835938s-3.507812 7.835938-7.835937 7.835938zm0 0" fill="#60bf81"/><g fill="#2c9e78"><path d="m479.09375 80.730469c-3.421875 0-6.496094-2.285157-7.5-5.554688-.917969-2.988281.113281-6.355469 2.523438-8.332031 5.410156-4.4375 13.792968.277344 12.726562 7.207031-.582031 3.789063-3.90625 6.679688-7.75 6.679688zm0 0"/><path d="m479.09375 233.746094c-3.214844 0-6.148438-2.023438-7.308594-5.015625-1.230468-3.167969-.203125-6.867188 2.453125-8.972657 5.570313-4.417968 13.972657.695313 12.535157 7.6875-.738282 3.613282-3.976563 6.300782-7.679688 6.300782zm0 0"/><path d="m168.269531 80.730469c-3.425781 0-6.484375-2.296875-7.496093-5.554688-.96875-3.136719.230468-6.703125 2.894531-8.617187 5.660156-4.066406 13.644531 1.015625 12.292969 7.871094-.714844 3.621093-4.011719 6.300781-7.691407 6.300781zm0 0"/><path d="m168.269531 233.746094c-3.421875 0-6.492187-2.300782-7.496093-5.5625-1.019532-3.328125.378906-7.035156 3.308593-8.894532 5.851563-3.714843 13.492188 1.84375 11.78125 8.546876-.875 3.425781-4.046875 5.910156-7.59375 5.910156zm0 0"/></g></svg>