<svg xmlns="http://www.w3.org/2000/svg" xmlns:xlink="http://www.w3.org/1999/xlink" width="742.62" height="768" viewBox="0 0 742.62 768">
  <defs>
    <style>
      .cls-1 {
        isolation: isolate;
      }

      .cls-12, .cls-2 {
        fill: #bcbec0;
      }

      .cls-3 {
        fill: #e6e7e8;
      }

      .cls-4 {
        fill: #808285;
      }

      .cls-5, .cls-9 {
        fill: #d1d3d4;
      }

      .cls-12, .cls-14, .cls-5 {
        mix-blend-mode: multiply;
      }

      .cls-6 {
        fill: #414042;
      }

      .cls-7 {
        fill: url(#linear-gradient);
      }

      .cls-8 {
        fill: #a7a9ac;
      }

      .cls-10 {
        fill: #f1f2f2;
      }

      .cls-11 {
        fill: #231f20;
      }

      .cls-13 {
        fill: #52ccf7;
      }

      .cls-15 {
        fill: #58595b;
      }

      .cls-16 {
        fill: #8dc63f;
      }

      .cls-17 {
        fill: #ef4136;
      }
    </style>
    <linearGradient id="linear-gradient" x1="370.94" y1="60.13" x2="370.94" y2="300.6" gradientUnits="userSpaceOnUse">
      <stop offset="0" stop-color="#f1f2f2"/>
      <stop offset="1" stop-color="#e6e7e8"/>
    </linearGradient>
  </defs>
  <g class="cls-1">
    <g id="Layer_1" data-name="Layer 1">
      <g>
        <polygon class="cls-2" points="579.18 203.06 579.18 573.39 568.35 579.64 568.35 634.28 410.19 725.67 410.19 300.58 579.18 203.06"/>
        <polygon class="cls-3" points="410.19 300.6 162.68 157.67 162.68 528.02 410.19 670.94 410.19 300.6"/>
        <g>
          <path class="cls-4" d="M382.71,322.06v32.83a13.31,13.31,0,0,1-20,11.42L199.4,271.8a18.74,18.74,0,0,1-7.79-7.79,20.77,20.77,0,0,1-2.86-10.38v-44L253.15,247Z"/>
          <path class="cls-5" d="M240.64,239.77l-49,24.24a20.77,20.77,0,0,1-2.86-10.38v-44Z"/>
        </g>
        <polygon class="cls-6" points="410.19 302.75 162.68 159.83 162.68 231.01 410.19 373.93 410.19 302.75"/>
        <polygon class="cls-7" points="162.68 157.67 331.68 60.13 579.19 203.03 410.19 300.6 162.68 157.67"/>
        <g>
          <polygon class="cls-8" points="410.19 282.98 410.19 300.62 579.19 203.03 579.19 185.39 410.19 282.98"/>
          <polygon class="cls-9" points="410.19 282.98 162.68 140.06 162.68 157.7 410.19 300.62 410.19 282.98"/>
          <polygon class="cls-10" points="162.68 140.06 331.68 42.49 579.19 185.39 410.19 282.98 162.68 140.06"/>
        </g>
        <polygon class="cls-3" points="410.19 670.89 162.68 527.97 162.68 582.74 410.19 725.66 410.19 670.89"/>
        <polygon class="cls-11" points="410.19 300.6 162.68 157.75 162.68 159.86 410.19 302.75 410.19 300.6"/>
        <polygon class="cls-12" points="426.84 291.02 579.19 203.05 579.19 205.12 426.84 293.14 426.84 291.02"/>
        <polygon class="cls-11" points="410.19 373.93 162.68 231.01 162.68 233.13 410.19 375.99 410.19 373.93"/>
        <polygon class="cls-11" points="410.19 373.93 426.84 364.55 426.84 366.62 410.19 375.99 410.19 373.93"/>
        <polygon class="cls-11" points="410.19 304.51 426.84 295.08 426.84 297.15 410.19 306.63 410.19 304.51"/>
        <path class="cls-11" d="M309.48,259.19l-46-26.87C261,230.91,259,232,259,234.85L259,254.6a9.68,9.68,0,0,0,4.41,7.59l46,26.87c2.45,1.42,4.43.29,4.44-2.48l.05-19.75a9.71,9.71,0,0,0-4.41-7.64Z"/>
        <path class="cls-13" d="M307,267.39v11.08c0,1.55-1.11,2.17-2.53,1.42L267.06,258.3a5.66,5.66,0,0,1-2.47-4.27l.06-11.08c0-1.61,1.11-2.23,2.48-1.42l33.41,19.24,4,2.29A5.55,5.55,0,0,1,307,267.39Z"/>
        <g>
          <g class="cls-14">
            <path class="cls-11" d="M258.53,276.3a3.43,3.43,0,0,1-1.68-.49l-8.54-4.93a6.33,6.33,0,0,1-2.93-5.13,2.61,2.61,0,0,1,4.18-2.39l8.54,4.93a6.31,6.31,0,0,1,3,5.1,2.88,2.88,0,0,1-1.32,2.59A2.48,2.48,0,0,1,258.53,276.3Zm-10.63-11a1.84,1.84,0,0,0-.05.42,3.94,3.94,0,0,0,1.69,3l8.54,4.94c.25.14.38.17.46.15a1.72,1.72,0,0,0,.06-.44,3.88,3.88,0,0,0-1.73-2.95l-8.55-4.93A1,1,0,0,0,247.9,265.34Z"/>
          </g>
          <g class="cls-14">
            <path class="cls-11" d="M278.09,287.26a3.45,3.45,0,0,1-1.69-.48l-8.53-4.94a6.32,6.32,0,0,1-2.93-5.13,2.61,2.61,0,0,1,4.17-2.39l8.55,4.93a6.29,6.29,0,0,1,3,5.1,2.86,2.86,0,0,1-1.31,2.59A2.48,2.48,0,0,1,278.09,287.26Zm-10.63-11a1.84,1.84,0,0,0,0,.42,3.93,3.93,0,0,0,1.69,3l8.54,4.93c.25.14.37.17.46.15a1.61,1.61,0,0,0,.06-.44,3.89,3.89,0,0,0-1.74-2.95l-8.54-4.93A1,1,0,0,0,267.46,276.3Z"/>
          </g>
          <g class="cls-14">
            <path class="cls-11" d="M297.65,298.22a3.45,3.45,0,0,1-1.69-.48l-8.54-4.94a6.33,6.33,0,0,1-2.93-5.13,2.86,2.86,0,0,1,1.3-2.57,2.82,2.82,0,0,1,2.88.18l8.55,4.93a6.33,6.33,0,0,1,3,5.1,2.86,2.86,0,0,1-1.31,2.59A2.51,2.51,0,0,1,297.65,298.22Zm-10.64-11a2.57,2.57,0,0,0,0,.42,3.87,3.87,0,0,0,1.69,3l8.54,4.93a.74.74,0,0,0,.47.15,3.47,3.47,0,0,0,.05-.44,4,4,0,0,0-1.74-2.95l-8.54-4.93A1.26,1.26,0,0,0,287,287.26Z"/>
          </g>
          <g class="cls-14">
            <path class="cls-11" d="M317.2,309.18a3.42,3.42,0,0,1-1.68-.48L307,303.76a6.31,6.31,0,0,1-2.93-5.13,2.86,2.86,0,0,1,1.3-2.57,2.82,2.82,0,0,1,2.88.18l8.54,4.93a6.34,6.34,0,0,1,3,5.1,2.88,2.88,0,0,1-1.32,2.59A2.38,2.38,0,0,1,317.2,309.18Zm-10.63-11a2.08,2.08,0,0,0-.05.42,3.91,3.91,0,0,0,1.7,3l8.53,4.93a.83.83,0,0,0,.47.16,2.87,2.87,0,0,0,.06-.45,3.91,3.91,0,0,0-1.74-2.94L307,298.38A1.24,1.24,0,0,0,306.57,298.22Z"/>
          </g>
        </g>
        <g>
          <path class="cls-15" d="M257.48,269.36l-8.54-4.93c-1.3-.75-2.32-.18-2.32,1.32a5.09,5.09,0,0,0,2.31,4.06l8.54,4.93c1.3.75,2.37.14,2.37-1.35a5.1,5.1,0,0,0-2.36-4Z"/>
          <path class="cls-15" d="M277,280.32l-8.54-4.93c-1.3-.75-2.32-.17-2.33,1.32a5.13,5.13,0,0,0,2.31,4.06L277,285.7c1.31.75,2.37.15,2.38-1.35a5.13,5.13,0,0,0-2.36-4Z"/>
          <path class="cls-15" d="M296.6,291.28l-8.54-4.93c-1.31-.75-2.32-.17-2.33,1.33a5.12,5.12,0,0,0,2.31,4.05l8.54,4.93c1.3.75,2.37.15,2.37-1.35a5.1,5.1,0,0,0-2.35-4Z"/>
          <path class="cls-15" d="M316.15,302.25l-8.54-4.94c-1.3-.75-2.32-.17-2.32,1.33a5.06,5.06,0,0,0,2.31,4.05l8.54,4.93c1.3.76,2.37.15,2.37-1.35a5.1,5.1,0,0,0-2.36-4Z"/>
        </g>
        <g>
          <polygon class="cls-12" points="410.19 670.8 426.81 661.15 426.81 663.22 410.19 672.93 410.19 670.8"/>
          <polygon class="cls-12" points="428.32 662.3 426.84 663.22 426.84 293.14 428.32 292.29 428.32 662.3"/>
          <polygon class="cls-12" points="410.19 670.86 162.68 527.92 162.68 530.04 410.19 672.93 410.19 670.86"/>
        </g>
        <polygon class="cls-12" points="568.35 579.64 428.32 660.53 428.32 662.34 568.35 580.74 568.35 579.64"/>
        <polygon class="cls-11" points="410.19 300.6 426.84 291.02 426.84 364.55 410.19 373.93 410.19 300.6"/>
        <g>
          <polygon class="cls-11" points="340.04 282.75 324.76 273.93 324.75 278.58 340.02 287.4 340.04 282.75 340.04 282.75"/>
          <polygon class="cls-11" points="360.89 294.79 345.61 285.97 345.6 290.62 360.87 299.44 360.89 294.79 360.89 294.79"/>
          <polygon class="cls-11" points="381.74 306.83 366.46 298.01 366.45 302.65 381.72 311.47 381.74 306.83 381.74 306.83"/>
          <polygon class="cls-11" points="402.59 318.87 387.31 310.05 387.3 314.69 402.57 323.51 402.59 318.87 402.59 318.87"/>
        </g>
        <g>
          <polygon class="cls-11" points="340.04 293.73 324.76 284.91 324.75 289.56 340.02 298.38 340.04 293.73 340.04 293.73"/>
          <polygon class="cls-11" points="360.89 305.77 345.61 296.95 345.6 301.59 360.87 310.41 360.89 305.77 360.89 305.77"/>
          <polygon class="cls-11" points="381.74 317.81 366.46 308.99 366.45 313.63 381.72 322.45 381.74 317.81 381.74 317.81"/>
          <polygon class="cls-11" points="402.59 329.84 387.31 321.02 387.3 325.67 402.57 334.49 402.59 329.84 402.59 329.84"/>
        </g>
        <g>
          <g>
            <path class="cls-11" d="M188.63,197.06l-.75-.44c-1.58-.91-2.89-.16-2.9,1.65a6.39,6.39,0,0,0,2.88,5l.75.43c1.62.94,2.89.17,2.89-1.64a6.28,6.28,0,0,0-2.87-5Z"/>
            <path class="cls-11" d="M200.09,203.67l-.79-.45c-1.58-.92-2.85-.15-2.86,1.67a6.31,6.31,0,0,0,2.84,5l.79.46c1.58.91,2.85.14,2.85-1.67a6.28,6.28,0,0,0-2.83-5Z"/>
            <path class="cls-11" d="M211.5,210.26l-.75-.43c-1.58-.91-2.89-.17-2.89,1.65a6.39,6.39,0,0,0,2.87,5l.75.43c1.58.91,2.89.17,2.9-1.65a6.42,6.42,0,0,0-2.88-5Z"/>
            <path class="cls-11" d="M222.92,216.86l-.75-.44c-1.58-.91-2.89-.17-2.89,1.65a6.35,6.35,0,0,0,2.87,5l.75.43c1.58.92,2.89.17,2.9-1.65a6.39,6.39,0,0,0-2.88-5Z"/>
            <path class="cls-16" d="M236,224.38l-.75-.43c-1.62-.94-2.89-.17-2.9,1.65a6.35,6.35,0,0,0,2.88,5l.75.43c1.58.91,2.89.17,2.89-1.65a6.35,6.35,0,0,0-2.87-5Z"/>
          </g>
          <g>
            <path class="cls-11" d="M188.63,210.09l-.75-.44c-1.58-.91-2.89-.16-2.9,1.65a6.39,6.39,0,0,0,2.88,5l.75.44c1.62.93,2.89.16,2.89-1.65a6.28,6.28,0,0,0-2.87-5Z"/>
            <path class="cls-11" d="M200.09,216.7l-.79-.45c-1.58-.92-2.85-.15-2.86,1.67a6.31,6.31,0,0,0,2.84,5l.79.46c1.58.91,2.85.14,2.85-1.67a6.28,6.28,0,0,0-2.83-5Z"/>
            <path class="cls-11" d="M211.5,223.29l-.75-.43c-1.58-.91-2.89-.17-2.89,1.65a6.35,6.35,0,0,0,2.87,5l.75.43c1.58.91,2.89.17,2.9-1.65a6.42,6.42,0,0,0-2.88-5Z"/>
            <path class="cls-11" d="M222.92,229.89l-.75-.44c-1.58-.91-2.89-.16-2.89,1.65a6.35,6.35,0,0,0,2.87,5l.75.43c1.58.92,2.89.17,2.9-1.64a6.39,6.39,0,0,0-2.88-5Z"/>
            <path class="cls-17" d="M236,237.41l-.75-.43c-1.62-.94-2.89-.17-2.9,1.65a6.35,6.35,0,0,0,2.88,5l.75.43c1.58.91,2.89.17,2.89-1.65a6.39,6.39,0,0,0-2.87-5Z"/>
          </g>
        </g>
      </g>
    </g>
  </g>
</svg>
