<svg id="Layer_1" data-name="Layer 1" xmlns="http://www.w3.org/2000/svg" width="292.34" height="272.66" viewBox="0 0 292.34 272.66">
  <defs>
    <style>
      .cls-1 {
        fill: #fff;
      }

      .cls-2 {
        fill: #b6cade;
      }

      .cls-3 {
        fill: #f6d9b7;
      }

      .cls-4 {
        fill: #e2bca5;
      }

      .cls-5 {
        fill: #cca092;
      }

      .cls-6 {
        fill: #d1ebff;
      }

      .cls-7 {
        fill: #a8cff0;
      }

      .cls-13, .cls-16, .cls-8 {
        fill: #2672ab;
      }

      .cls-9 {
        fill: #03336e;
      }

      .cls-10, .cls-14 {
        fill: #72b5e8;
      }

      .cls-10, .cls-11, .cls-13 {
        opacity: 0.5;
      }

      .cls-11, .cls-12 {
        fill: #3f92d1;
      }

      .cls-15 {
        fill: #084c94;
      }

      .cls-16 {
        opacity: 0.2;
      }

      .cls-17 {
        opacity: 0.3;
      }

      .cls-18 {
        fill: #1e234f;
      }

      .cls-19 {
        fill: #f8a700;
      }
    </style>
  </defs>
  <g>
    <g>
      <rect class="cls-1" x="1" y="1" width="290.34" height="259.1" rx="17.86"/>
      <path class="cls-2" d="M273.48,261.1H18.86A18.88,18.88,0,0,1,0,242.24V18.86A18.88,18.88,0,0,1,18.86,0H273.48a18.88,18.88,0,0,1,18.86,18.86V242.24A18.88,18.88,0,0,1,273.48,261.1ZM18.86,2A16.88,16.88,0,0,0,2,18.86V242.24A16.88,16.88,0,0,0,18.86,259.1H273.48a16.87,16.87,0,0,0,16.86-16.86V18.86A16.87,16.87,0,0,0,273.48,2Z"/>
    </g>
    <g>
      <g>
        <polygon class="cls-3" points="154.26 210.79 271.89 142.8 138.08 65.52 20.46 133.51 154.26 210.79"/>
        <polygon class="cls-4" points="154.26 210.79 154.26 214.5 271.89 146.5 271.89 142.8 154.26 210.79"/>
        <polygon class="cls-5" points="20.46 133.51 20.46 137.22 154.26 214.5 154.26 210.79 20.46 133.51"/>
      </g>
      <g>
        <g>
          <polygon class="cls-6" points="48.15 136.37 87.12 158.94 87.12 99.78 48.15 99.69 48.15 136.37"/>
          <polygon class="cls-7" points="185.94 42.32 87.1 99.78 87.1 158.94 185.94 101.46 185.94 42.32"/>
        </g>
        <g>
          <polygon class="cls-6" points="94.79 154.4 153.84 188.59 153.84 143.64 94.79 109.61 94.79 154.4"/>
          <polygon class="cls-7" points="244.9 90.74 153.83 143.64 153.83 188.59 244.9 135.68 244.9 90.74"/>
          <polygon class="cls-8" points="94.79 111.62 153.84 145.81 153.84 143.64 94.79 109.61 94.79 111.62"/>
          <polygon class="cls-9" points="244.9 90.74 153.83 143.64 153.83 145.81 244.9 92.9 244.9 90.74"/>
          <polygon class="cls-10" points="94.79 154.4 153.84 188.59 153.84 185.94 94.79 151.92 94.79 154.4"/>
          <polygon class="cls-11" points="244.9 133.05 153.83 185.94 153.83 188.59 244.9 135.68 244.9 133.05"/>
          <polygon class="cls-12" points="185.84 56.79 94.79 109.61 153.84 143.64 244.9 90.75 185.84 56.79"/>
        </g>
        <g>
          <polygon class="cls-12" points="100.67 133.53 100.67 165.61 133.57 184.42 133.57 152.34 100.67 133.53"/>
          <polygon class="cls-13" points="100.67 145.12 100.67 146.15 133.57 164.96 133.57 163.94 100.67 145.12"/>
          <g>
            <polygon class="cls-14" points="104.92 135.94 104.43 135.69 104.43 167.77 104.92 168.03 104.92 135.94"/>
            <polygon class="cls-14" points="109.13 138.36 108.65 138.1 108.65 170.19 109.13 170.44 109.13 138.36"/>
            <polygon class="cls-14" points="113.35 140.78 112.87 140.52 112.87 172.6 113.35 172.86 113.35 140.78"/>
            <polygon class="cls-14" points="117.57 143.19 117.09 142.94 117.09 175.02 117.57 175.27 117.57 143.19"/>
            <polygon class="cls-14" points="121.79 145.6 121.3 145.35 121.3 177.43 121.79 177.69 121.79 145.6"/>
            <polygon class="cls-14" points="126.01 148.02 125.52 147.76 125.52 179.85 126.01 180.1 126.01 148.02"/>
            <polygon class="cls-14" points="130.22 150.44 129.74 150.18 129.74 182.26 130.22 182.52 130.22 150.44"/>
          </g>
          <polygon class="cls-14" points="100.67 144.43 100.67 145.46 133.57 164.27 133.57 163.25 100.67 144.43"/>
          <polygon class="cls-9" points="140.78 180.92 133.53 185.57 133.53 152.08 140.78 147.43 140.78 180.92"/>
          <polygon class="cls-9" points="102.41 166.64 101.42 167.22 101.42 133.72 102.41 133.15 102.41 166.64"/>
          <polygon class="cls-8" points="107.71 128.52 100.46 133.17 133.53 152.08 140.78 147.43 107.71 128.52"/>
          <polygon class="cls-15" points="133.53 152.19 133.53 152.08 100.44 133.16 100.44 166.66 101.42 167.22 101.42 135.1 132.55 152.89 132.55 185 133.53 185.57 133.53 152.19 133.53 152.19"/>
        </g>
        <g>
          <polygon class="cls-12" points="47.48 106.25 47.48 116.85 80.39 135.66 80.39 125.06 47.48 106.25"/>
          <g>
            <polygon class="cls-14" points="51.73 108.67 51.25 108.42 51.25 119.02 51.73 119.27 51.73 108.67"/>
            <polygon class="cls-14" points="55.95 111.08 55.47 110.83 55.47 121.43 55.95 121.69 55.95 111.08"/>
            <polygon class="cls-14" points="60.17 113.5 59.69 113.25 59.69 123.85 60.17 124.1 60.17 113.5"/>
            <polygon class="cls-14" points="64.39 115.92 63.9 115.66 63.9 126.26 64.39 126.52 64.39 115.92"/>
            <polygon class="cls-14" points="68.61 118.33 68.12 118.08 68.12 128.68 68.61 128.93 68.61 118.33"/>
            <polygon class="cls-14" points="72.83 120.75 72.34 120.49 72.34 131.09 72.83 131.35 72.83 120.75"/>
            <polygon class="cls-14" points="77.04 123.16 76.56 122.91 76.56 133.51 77.04 133.76 77.04 123.16"/>
          </g>
          <polygon class="cls-9" points="81.33 136.24 80.34 136.81 80.34 124.8 81.33 124.23 81.33 136.24"/>
          <polygon class="cls-9" points="49.23 117.89 48.24 118.46 48.24 106.45 49.23 105.88 49.23 117.89"/>
          <polygon class="cls-8" points="48.26 105.32 47.27 105.89 80.34 124.8 81.33 124.23 48.26 105.32"/>
          <polygon class="cls-8" points="49.16 116.8 48.17 117.37 79.35 135.26 80.34 134.69 49.16 116.8"/>
          <path class="cls-15" d="M47.26,105.89v12l33.08,18.91v-12Zm1,11.46v-9.52l31.13,17.78v9.55Z"/>
        </g>
        <g>
          <polygon class="cls-8" points="48.09 99.67 87.28 99.74 87.28 98.18 48.09 98.19 48.09 99.67"/>
          <polygon class="cls-9" points="185.94 40.88 87.27 98.18 87.27 99.74 185.94 42.43 185.94 40.88"/>
          <polygon class="cls-12" points="146.75 40.97 48.09 98.19 87.28 98.18 185.94 40.89 146.75 40.97"/>
        </g>
        <g>
          <polygon class="cls-16" points="239.07 136.4 241.02 137.9 226.86 146.07 224.91 144.58 239.07 136.4"/>
          <polygon class="cls-12" points="239.86 118.79 239.86 136.1 225.9 144.17 225.9 126.86 239.86 118.79"/>
          <g>
            <polygon class="cls-14" points="239.86 134.2 239.86 134.47 225.9 142.53 225.9 142.26 239.86 134.2"/>
            <polygon class="cls-14" points="239.86 132.07 239.86 132.34 225.9 140.4 225.9 140.13 239.86 132.07"/>
            <polygon class="cls-14" points="239.86 129.94 239.86 130.21 225.9 138.28 225.9 138 239.86 129.94"/>
            <polygon class="cls-14" points="239.86 127.81 239.86 128.08 225.9 136.15 225.9 135.87 239.86 127.81"/>
            <polygon class="cls-14" points="239.86 125.68 239.86 125.95 225.9 134.02 225.9 133.74 239.86 125.68"/>
            <polygon class="cls-14" points="239.86 123.55 239.86 123.83 225.9 131.89 225.9 131.62 239.86 123.55"/>
            <polygon class="cls-14" points="239.86 121.42 239.86 121.7 225.9 129.76 225.9 129.49 239.86 121.42"/>
          </g>
          <g>
            <polygon class="cls-8" points="239.86 133.94 239.86 134.22 225.9 142.28 225.9 142.01 239.86 133.94"/>
            <polygon class="cls-8" points="239.86 131.82 239.86 132.09 225.9 140.15 225.9 139.88 239.86 131.82"/>
            <polygon class="cls-8" points="239.86 129.69 239.86 129.96 225.9 138.02 225.9 137.75 239.86 129.69"/>
            <polygon class="cls-8" points="239.86 127.56 239.86 127.83 225.9 135.9 225.9 135.62 239.86 127.56"/>
            <polygon class="cls-8" points="239.86 125.43 239.86 125.7 225.9 133.77 225.9 133.49 239.86 125.43"/>
            <polygon class="cls-8" points="239.86 123.3 239.86 123.58 225.9 131.64 225.9 131.37 239.86 123.3"/>
            <polygon class="cls-8" points="239.86 121.17 239.86 121.45 225.9 129.51 225.9 129.24 239.86 121.17"/>
          </g>
          <polygon class="cls-15" points="224.85 144.8 225.95 145.44 225.95 126.57 224.85 125.93 224.85 144.8"/>
          <polygon class="cls-15" points="237.93 137.25 239.02 137.88 239.02 119.02 237.93 118.38 237.93 137.25"/>
          <polygon class="cls-8" points="239 117.76 240.09 118.39 225.95 126.57 224.85 125.93 239 117.76"/>
          <polygon class="cls-9" points="225.95 126.69 225.95 126.57 240.11 118.39 240.11 137.26 239.02 137.89 239.02 122 227.03 128.92 227.03 144.81 225.95 145.44 225.95 126.69 225.95 126.69"/>
        </g>
        <g>
          <polygon class="cls-16" points="218.52 148.28 220.47 149.78 206.31 157.95 204.36 156.46 218.52 148.28"/>
          <polygon class="cls-12" points="219.31 130.67 219.31 147.98 205.34 156.05 205.34 138.74 219.31 130.67"/>
          <g>
            <polygon class="cls-14" points="219.31 146.07 219.31 146.35 205.34 154.41 205.34 154.14 219.31 146.07"/>
            <polygon class="cls-14" points="219.31 143.95 219.31 144.22 205.34 152.28 205.34 152.01 219.31 143.95"/>
            <polygon class="cls-14" points="219.31 141.82 219.31 142.09 205.34 150.15 205.34 149.88 219.31 141.82"/>
            <polygon class="cls-14" points="219.31 139.69 219.31 139.96 205.34 148.03 205.34 147.75 219.31 139.69"/>
            <polygon class="cls-14" points="219.31 137.56 219.31 137.84 205.34 145.9 205.34 145.62 219.31 137.56"/>
            <polygon class="cls-14" points="219.31 135.43 219.31 135.71 205.34 143.77 205.34 143.5 219.31 135.43"/>
            <polygon class="cls-14" points="219.31 133.3 219.31 133.58 205.34 141.64 205.34 141.37 219.31 133.3"/>
          </g>
          <g>
            <polygon class="cls-8" points="219.31 145.82 219.31 146.1 205.34 154.16 205.34 153.89 219.31 145.82"/>
            <polygon class="cls-8" points="219.31 143.7 219.31 143.97 205.34 152.03 205.34 151.76 219.31 143.7"/>
            <polygon class="cls-8" points="219.31 141.57 219.31 141.84 205.34 149.9 205.34 149.63 219.31 141.57"/>
            <polygon class="cls-8" points="219.31 139.44 219.31 139.71 205.34 147.78 205.34 147.5 219.31 139.44"/>
            <polygon class="cls-8" points="219.31 137.31 219.31 137.58 205.34 145.65 205.34 145.37 219.31 137.31"/>
            <polygon class="cls-8" points="219.31 135.18 219.31 135.46 205.34 143.52 205.34 143.24 219.31 135.18"/>
            <polygon class="cls-8" points="219.31 133.05 219.31 133.33 205.34 141.39 205.34 141.12 219.31 133.05"/>
          </g>
          <polygon class="cls-15" points="204.3 156.68 205.4 157.32 205.4 138.45 204.3 137.81 204.3 156.68"/>
          <polygon class="cls-15" points="217.38 149.13 218.47 149.76 218.47 130.89 217.38 130.26 217.38 149.13"/>
          <polygon class="cls-8" points="218.45 129.64 219.54 130.28 205.4 138.45 204.3 137.81 218.45 129.64"/>
          <polygon class="cls-9" points="205.4 138.57 205.4 138.45 219.55 130.27 219.55 149.14 218.47 149.77 218.47 133.88 206.48 140.8 206.48 156.69 205.4 157.32 205.4 138.57 205.4 138.57"/>
        </g>
        <g>
          <polygon class="cls-16" points="198.17 160.06 200.12 161.56 185.96 169.73 184.01 168.24 198.17 160.06"/>
          <polygon class="cls-12" points="198.96 142.45 198.96 159.76 184.99 167.82 184.99 150.52 198.96 142.45"/>
          <g>
            <polygon class="cls-14" points="198.96 157.85 198.96 158.13 184.99 166.19 184.99 165.92 198.96 157.85"/>
            <polygon class="cls-14" points="198.96 155.73 198.96 156 184.99 164.06 184.99 163.79 198.96 155.73"/>
            <polygon class="cls-14" points="198.96 153.6 198.96 153.87 184.99 161.93 184.99 161.66 198.96 153.6"/>
            <polygon class="cls-14" points="198.96 151.47 198.96 151.74 184.99 159.81 184.99 159.53 198.96 151.47"/>
            <polygon class="cls-14" points="198.96 149.34 198.96 149.61 184.99 157.68 184.99 157.4 198.96 149.34"/>
            <polygon class="cls-14" points="198.96 147.21 198.96 147.49 184.99 155.55 184.99 155.27 198.96 147.21"/>
            <polygon class="cls-14" points="198.96 145.08 198.96 145.36 184.99 153.42 184.99 153.15 198.96 145.08"/>
          </g>
          <g>
            <polygon class="cls-8" points="198.96 157.6 198.96 157.88 184.99 165.94 184.99 165.67 198.96 157.6"/>
            <polygon class="cls-8" points="198.96 155.48 198.96 155.75 184.99 163.81 184.99 163.54 198.96 155.48"/>
            <polygon class="cls-8" points="198.96 153.35 198.96 153.62 184.99 161.68 184.99 161.41 198.96 153.35"/>
            <polygon class="cls-8" points="198.96 151.22 198.96 151.49 184.99 159.55 184.99 159.28 198.96 151.22"/>
            <polygon class="cls-8" points="198.96 149.09 198.96 149.36 184.99 157.43 184.99 157.15 198.96 149.09"/>
            <polygon class="cls-8" points="198.96 146.96 198.96 147.24 184.99 155.3 184.99 155.02 198.96 146.96"/>
            <polygon class="cls-8" points="198.96 144.83 198.96 145.11 184.99 153.17 184.99 152.9 198.96 144.83"/>
          </g>
          <polygon class="cls-15" points="183.95 168.46 185.04 169.1 185.04 150.23 183.95 149.59 183.95 168.46"/>
          <polygon class="cls-15" points="197.03 160.91 198.12 161.54 198.12 142.67 197.03 142.04 197.03 160.91"/>
          <polygon class="cls-8" points="198.1 141.42 199.19 142.05 185.04 150.23 183.95 149.59 198.1 141.42"/>
          <polygon class="cls-9" points="185.04 150.35 185.04 150.23 199.2 142.05 199.2 160.92 198.12 161.55 198.12 145.66 186.13 152.58 186.13 168.47 185.04 169.1 185.04 150.35 185.04 150.35"/>
        </g>
        <g>
          <polygon class="cls-16" points="177.62 171.94 179.57 173.44 165.41 181.61 163.46 180.12 177.62 171.94"/>
          <polygon class="cls-12" points="178.41 154.33 178.41 171.64 164.44 179.71 164.44 162.4 178.41 154.33"/>
          <g>
            <polygon class="cls-14" points="178.41 169.73 178.41 170.01 164.44 178.07 164.44 177.8 178.41 169.73"/>
            <polygon class="cls-14" points="178.41 167.61 178.41 167.88 164.44 175.94 164.44 175.67 178.41 167.61"/>
            <polygon class="cls-14" points="178.41 165.48 178.41 165.75 164.44 173.81 164.44 173.54 178.41 165.48"/>
            <polygon class="cls-14" points="178.41 163.35 178.41 163.62 164.44 171.69 164.44 171.41 178.41 163.35"/>
            <polygon class="cls-14" points="178.41 161.22 178.41 161.49 164.44 169.56 164.44 169.28 178.41 161.22"/>
            <polygon class="cls-14" points="178.41 159.09 178.41 159.37 164.44 167.43 164.44 167.15 178.41 159.09"/>
            <polygon class="cls-14" points="178.41 156.96 178.41 157.24 164.44 165.3 164.44 165.03 178.41 156.96"/>
          </g>
          <g>
            <polygon class="cls-8" points="178.41 169.48 178.41 169.76 164.44 177.82 164.44 177.55 178.41 169.48"/>
            <polygon class="cls-8" points="178.41 167.35 178.41 167.63 164.44 175.69 164.44 175.42 178.41 167.35"/>
            <polygon class="cls-8" points="178.41 165.23 178.41 165.5 164.44 173.56 164.44 173.29 178.41 165.23"/>
            <polygon class="cls-8" points="178.41 163.1 178.41 163.37 164.44 171.43 164.44 171.16 178.41 163.1"/>
            <polygon class="cls-8" points="178.41 160.97 178.41 161.24 164.44 169.31 164.44 169.03 178.41 160.97"/>
            <polygon class="cls-8" points="178.41 158.84 178.41 159.11 164.44 167.18 164.44 166.9 178.41 158.84"/>
            <polygon class="cls-8" points="178.41 156.71 178.41 156.99 164.44 165.05 164.44 164.78 178.41 156.71"/>
          </g>
          <polygon class="cls-15" points="163.4 180.34 164.49 180.97 164.49 162.11 163.4 161.47 163.4 180.34"/>
          <polygon class="cls-15" points="176.48 172.79 177.57 173.42 177.57 154.55 176.48 153.92 176.48 172.79"/>
          <polygon class="cls-8" points="177.55 153.3 178.64 153.93 164.49 162.11 163.4 161.47 177.55 153.3"/>
          <polygon class="cls-9" points="164.49 162.23 164.49 162.11 178.65 153.93 178.65 172.8 177.57 173.43 177.57 157.53 165.58 164.46 165.58 180.35 164.49 180.97 164.49 162.23 164.49 162.23"/>
        </g>
        <g>
          <g class="cls-17">
            <polygon class="cls-9" points="51.05 96.48 50.69 96.72 89.42 96.76 89.78 96.52 51.05 96.48"/>
            <polygon class="cls-9" points="53.8 94.9 53.43 95.13 92.16 95.17 92.52 94.93 53.8 94.9"/>
            <polygon class="cls-9" points="56.54 93.31 56.17 93.54 94.9 93.58 95.27 93.35 56.54 93.31"/>
            <polygon class="cls-9" points="59.28 91.72 58.92 91.95 97.64 91.99 98.01 91.76 59.28 91.72"/>
            <polygon class="cls-9" points="62.02 90.13 61.66 90.36 100.39 90.4 100.75 90.17 62.02 90.13"/>
            <polygon class="cls-9" points="64.76 88.54 64.4 88.78 103.13 88.82 103.49 88.58 64.76 88.54"/>
            <polygon class="cls-9" points="67.51 86.95 67.14 87.19 105.87 87.23 106.23 86.99 67.51 86.95"/>
            <polygon class="cls-9" points="70.25 85.37 69.89 85.6 108.61 85.64 108.98 85.41 70.25 85.37"/>
            <polygon class="cls-9" points="72.99 83.78 72.63 84.01 111.35 84.05 111.72 83.82 72.99 83.78"/>
            <polygon class="cls-9" points="75.73 82.19 75.37 82.42 114.1 82.46 114.46 82.23 75.73 82.19"/>
            <polygon class="cls-9" points="78.47 80.6 78.11 80.84 116.84 80.88 117.2 80.64 78.47 80.6"/>
            <polygon class="cls-9" points="81.22 79.02 80.85 79.25 119.58 79.29 119.94 79.05 81.22 79.02"/>
            <polygon class="cls-9" points="83.96 77.43 83.59 77.66 122.32 77.7 122.69 77.47 83.96 77.43"/>
            <polygon class="cls-9" points="86.7 75.84 86.34 76.07 125.06 76.11 125.43 75.88 86.7 75.84"/>
            <polygon class="cls-9" points="89.44 74.25 89.08 74.48 127.81 74.52 128.17 74.29 89.44 74.25"/>
            <polygon class="cls-9" points="92.19 72.66 91.82 72.9 130.55 72.94 130.91 72.7 92.19 72.66"/>
            <polygon class="cls-9" points="94.93 71.08 94.56 71.31 133.29 71.35 133.66 71.11 94.93 71.08"/>
            <polygon class="cls-9" points="97.67 69.49 97.31 69.72 136.03 69.76 136.4 69.53 97.67 69.49"/>
            <polygon class="cls-9" points="100.41 67.9 100.05 68.13 138.78 68.17 139.14 67.94 100.41 67.9"/>
            <polygon class="cls-9" points="103.15 66.31 102.79 66.54 141.52 66.58 141.88 66.35 103.15 66.31"/>
            <polygon class="cls-9" points="105.9 64.72 105.53 64.96 144.26 64.99 144.62 64.76 105.9 64.72"/>
            <polygon class="cls-9" points="108.64 63.13 108.27 63.37 147 63.41 147.37 63.17 108.64 63.13"/>
            <polygon class="cls-9" points="111.38 61.55 111.02 61.78 149.74 61.82 150.11 61.59 111.38 61.55"/>
            <polygon class="cls-9" points="114.12 59.96 113.76 60.19 152.49 60.23 152.85 60 114.12 59.96"/>
            <polygon class="cls-9" points="116.86 58.37 116.5 58.6 155.23 58.64 155.59 58.41 116.86 58.37"/>
            <polygon class="cls-9" points="119.61 56.78 119.24 57.02 157.97 57.05 158.33 56.82 119.61 56.78"/>
            <polygon class="cls-9" points="122.35 55.19 121.98 55.43 160.71 55.47 161.08 55.23 122.35 55.19"/>
            <polygon class="cls-9" points="125.09 53.61 124.73 53.84 163.46 53.88 163.82 53.64 125.09 53.61"/>
            <polygon class="cls-9" points="127.83 52.02 127.47 52.25 166.2 52.29 166.56 52.06 127.83 52.02"/>
            <polygon class="cls-9" points="130.57 50.43 130.21 50.66 168.94 50.7 169.3 50.47 130.57 50.43"/>
            <polygon class="cls-9" points="133.32 48.84 132.95 49.08 171.68 49.11 172.04 48.88 133.32 48.84"/>
            <polygon class="cls-9" points="136.06 47.25 135.7 47.49 174.42 47.53 174.79 47.29 136.06 47.25"/>
            <polygon class="cls-9" points="138.8 45.66 138.44 45.9 177.16 45.94 177.53 45.7 138.8 45.66"/>
            <polygon class="cls-9" points="141.54 44.08 141.18 44.31 179.91 44.35 180.27 44.12 141.54 44.08"/>
            <polygon class="cls-9" points="144.28 42.49 143.92 42.72 182.65 42.76 183.01 42.53 144.28 42.49"/>
          </g>
          <g>
            <polygon class="cls-14" points="51.39 96.25 51.02 96.48 89.75 96.52 90.11 96.29 51.39 96.25"/>
            <polygon class="cls-14" points="54.13 94.66 53.77 94.89 92.49 94.93 92.86 94.7 54.13 94.66"/>
            <polygon class="cls-14" points="56.87 93.07 56.51 93.31 95.24 93.35 95.6 93.11 56.87 93.07"/>
            <polygon class="cls-14" points="59.61 91.49 59.25 91.72 97.98 91.76 98.34 91.52 59.61 91.49"/>
            <polygon class="cls-14" points="62.36 89.9 61.99 90.13 100.72 90.17 101.08 89.94 62.36 89.9"/>
            <polygon class="cls-14" points="65.1 88.31 64.73 88.54 103.46 88.58 103.83 88.35 65.1 88.31"/>
            <polygon class="cls-14" points="67.84 86.72 67.48 86.95 106.2 86.99 106.57 86.76 67.84 86.72"/>
            <polygon class="cls-14" points="70.58 85.13 70.22 85.37 108.95 85.41 109.31 85.17 70.58 85.13"/>
            <polygon class="cls-14" points="73.32 83.55 72.96 83.78 111.69 83.82 112.05 83.58 73.32 83.55"/>
            <polygon class="cls-14" points="76.07 81.96 75.7 82.19 114.43 82.23 114.79 82 76.07 81.96"/>
            <polygon class="cls-14" points="78.81 80.37 78.44 80.6 117.17 80.64 117.54 80.41 78.81 80.37"/>
            <polygon class="cls-14" points="81.55 78.78 81.19 79.02 119.92 79.05 120.28 78.82 81.55 78.78"/>
            <polygon class="cls-14" points="84.29 77.19 83.93 77.43 122.66 77.47 123.02 77.23 84.29 77.19"/>
            <polygon class="cls-14" points="87.03 75.61 86.67 75.84 125.4 75.88 125.76 75.64 87.03 75.61"/>
            <polygon class="cls-14" points="89.78 74.02 89.41 74.25 128.14 74.29 128.5 74.06 89.78 74.02"/>
            <polygon class="cls-14" points="92.52 72.43 92.16 72.66 130.88 72.7 131.25 72.47 92.52 72.43"/>
            <polygon class="cls-14" points="95.26 70.84 94.9 71.07 133.63 71.11 133.99 70.88 95.26 70.84"/>
            <polygon class="cls-14" points="98 69.25 97.64 69.49 136.37 69.53 136.73 69.29 98 69.25"/>
            <polygon class="cls-14" points="100.75 67.67 100.38 67.9 139.11 67.94 139.47 67.7 100.75 67.67"/>
            <polygon class="cls-14" points="103.49 66.08 103.12 66.31 141.85 66.35 142.22 66.11 103.49 66.08"/>
            <polygon class="cls-14" points="106.23 64.49 105.87 64.72 144.59 64.76 144.96 64.53 106.23 64.49"/>
            <polygon class="cls-14" points="108.97 62.9 108.61 63.13 147.34 63.17 147.7 62.94 108.97 62.9"/>
            <polygon class="cls-14" points="111.71 61.31 111.35 61.55 150.08 61.58 150.44 61.35 111.71 61.31"/>
            <polygon class="cls-14" points="114.46 59.72 114.09 59.96 152.82 60 153.18 59.76 114.46 59.72"/>
            <polygon class="cls-14" points="117.2 58.14 116.83 58.37 155.56 58.41 155.93 58.17 117.2 58.14"/>
            <polygon class="cls-14" points="119.94 56.55 119.58 56.78 158.31 56.82 158.67 56.59 119.94 56.55"/>
            <polygon class="cls-14" points="122.68 54.96 122.32 55.19 161.05 55.23 161.41 55 122.68 54.96"/>
            <polygon class="cls-14" points="125.42 53.37 125.06 53.6 163.79 53.64 164.15 53.41 125.42 53.37"/>
            <polygon class="cls-14" points="128.17 51.78 127.8 52.02 166.53 52.06 166.89 51.82 128.17 51.78"/>
            <polygon class="cls-14" points="130.91 50.2 130.55 50.43 169.27 50.47 169.64 50.23 130.91 50.2"/>
            <polygon class="cls-14" points="133.65 48.61 133.29 48.84 172.01 48.88 172.38 48.65 133.65 48.61"/>
            <polygon class="cls-14" points="136.39 47.02 136.03 47.25 174.76 47.29 175.12 47.06 136.39 47.02"/>
            <polygon class="cls-14" points="139.13 45.43 138.77 45.66 177.5 45.7 177.86 45.47 139.13 45.43"/>
            <polygon class="cls-14" points="141.88 43.84 141.51 44.08 180.24 44.12 180.6 43.88 141.88 43.84"/>
            <polygon class="cls-14" points="144.62 42.26 144.26 42.49 182.98 42.53 183.35 42.29 144.62 42.26"/>
          </g>
        </g>
        <g>
          <g class="cls-17">
            <polygon class="cls-15" points="97.62 108.17 97.26 108.4 156.13 142.29 156.49 142.06 97.62 108.17"/>
            <polygon class="cls-15" points="100.41 106.55 100.05 106.78 158.92 140.68 159.28 140.44 100.41 106.55"/>
            <polygon class="cls-15" points="103.21 104.93 102.84 105.16 161.71 139.06 162.08 138.82 103.21 104.93"/>
            <polygon class="cls-15" points="106 103.31 105.64 103.54 164.51 137.44 164.87 137.21 106 103.31"/>
            <polygon class="cls-15" points="108.79 101.69 108.43 101.92 167.3 135.82 167.66 135.59 108.79 101.69"/>
            <polygon class="cls-15" points="111.58 100.07 111.22 100.31 170.09 134.2 170.45 133.97 111.58 100.07"/>
            <polygon class="cls-15" points="114.38 98.45 114.01 98.69 172.88 132.58 173.25 132.35 114.38 98.45"/>
            <polygon class="cls-15" points="117.17 96.83 116.8 97.07 175.68 130.97 176.04 130.73 117.17 96.83"/>
            <polygon class="cls-15" points="119.96 95.22 119.6 95.45 178.47 129.35 178.83 129.11 119.96 95.22"/>
            <polygon class="cls-15" points="122.75 93.6 122.39 93.83 181.26 127.73 181.62 127.49 122.75 93.6"/>
            <polygon class="cls-15" points="125.55 91.98 125.18 92.21 184.05 126.11 184.42 125.88 125.55 91.98"/>
            <polygon class="cls-15" points="128.34 90.36 127.97 90.59 186.84 124.49 187.21 124.26 128.34 90.36"/>
            <polygon class="cls-15" points="131.13 88.74 130.77 88.97 189.64 122.87 190 122.64 131.13 88.74"/>
            <polygon class="cls-15" points="133.92 87.12 133.56 87.36 192.43 121.25 192.79 121.02 133.92 87.12"/>
            <polygon class="cls-15" points="136.72 85.5 136.35 85.74 195.22 119.63 195.59 119.4 136.72 85.5"/>
            <polygon class="cls-15" points="139.51 83.89 139.14 84.12 198.01 118.02 198.38 117.78 139.51 83.89"/>
            <polygon class="cls-15" points="142.3 82.27 141.94 82.5 200.81 116.4 201.17 116.16 142.3 82.27"/>
            <polygon class="cls-15" points="145.09 80.65 144.73 80.88 203.6 114.78 203.96 114.55 145.09 80.65"/>
            <polygon class="cls-15" points="147.88 79.03 147.52 79.26 206.39 113.16 206.75 112.93 147.88 79.03"/>
            <polygon class="cls-15" points="150.68 77.41 150.31 77.64 209.18 111.54 209.55 111.31 150.68 77.41"/>
            <polygon class="cls-15" points="153.47 75.79 153.1 76.03 211.98 109.92 212.34 109.69 153.47 75.79"/>
            <polygon class="cls-15" points="156.26 74.17 155.9 74.41 214.77 108.3 215.13 108.07 156.26 74.17"/>
            <polygon class="cls-15" points="159.05 72.56 158.69 72.79 217.56 106.69 217.93 106.45 159.05 72.56"/>
            <polygon class="cls-15" points="161.85 70.94 161.48 71.17 220.35 105.07 220.72 104.83 161.85 70.94"/>
            <polygon class="cls-15" points="164.64 69.32 164.28 69.55 223.15 103.45 223.51 103.22 164.64 69.32"/>
            <polygon class="cls-15" points="167.43 67.7 167.07 67.93 225.94 101.83 226.3 101.6 167.43 67.7"/>
            <polygon class="cls-15" points="170.22 66.08 169.86 66.31 228.73 100.21 229.09 99.98 170.22 66.08"/>
            <polygon class="cls-15" points="173.01 64.46 172.65 64.7 231.52 98.59 231.89 98.36 173.01 64.46"/>
            <polygon class="cls-15" points="175.81 62.84 175.44 63.08 234.31 96.97 234.68 96.74 175.81 62.84"/>
            <polygon class="cls-15" points="178.6 61.23 178.24 61.46 237.11 95.36 237.47 95.12 178.6 61.23"/>
            <polygon class="cls-15" points="181.39 59.61 181.03 59.84 239.9 93.74 240.26 93.5 181.39 59.61"/>
            <polygon class="cls-15" points="184.19 57.99 183.82 58.22 242.69 92.12 243.06 91.88 184.19 57.99"/>
          </g>
          <g class="cls-17">
            <polygon class="cls-14" points="97.95 107.93 97.59 108.16 156.46 142.06 156.83 141.83 97.95 107.93"/>
            <polygon class="cls-14" points="100.75 106.31 100.38 106.55 159.25 140.44 159.62 140.21 100.75 106.31"/>
            <polygon class="cls-14" points="103.54 104.69 103.18 104.93 162.05 138.82 162.41 138.59 103.54 104.69"/>
            <polygon class="cls-14" points="106.33 103.08 105.97 103.31 164.84 137.21 165.2 136.97 106.33 103.08"/>
            <polygon class="cls-14" points="109.13 101.46 108.76 101.69 167.63 135.59 168 135.35 109.13 101.46"/>
            <polygon class="cls-14" points="111.92 99.84 111.55 100.07 170.43 133.97 170.79 133.73 111.92 99.84"/>
            <polygon class="cls-14" points="114.71 98.22 114.35 98.45 173.22 132.35 173.58 132.12 114.71 98.22"/>
            <polygon class="cls-14" points="117.5 96.6 117.14 96.83 176.01 130.73 176.37 130.5 117.5 96.6"/>
            <polygon class="cls-14" points="120.29 94.98 119.93 95.22 178.8 129.11 179.17 128.88 120.29 94.98"/>
            <polygon class="cls-14" points="123.09 93.36 122.72 93.6 181.59 127.49 181.96 127.26 123.09 93.36"/>
            <polygon class="cls-14" points="125.88 91.75 125.52 91.98 184.39 125.88 184.75 125.64 125.88 91.75"/>
            <polygon class="cls-14" points="128.67 90.13 128.31 90.36 187.18 124.26 187.54 124.02 128.67 90.13"/>
            <polygon class="cls-14" points="131.46 88.51 131.1 88.74 189.97 122.64 190.34 122.4 131.46 88.51"/>
            <polygon class="cls-14" points="134.26 86.89 133.89 87.12 192.76 121.02 193.13 120.78 134.26 86.89"/>
            <polygon class="cls-14" points="137.05 85.27 136.69 85.5 195.56 119.4 195.92 119.17 137.05 85.27"/>
            <polygon class="cls-14" points="139.84 83.65 139.48 83.89 198.35 117.78 198.71 117.55 139.84 83.65"/>
            <polygon class="cls-14" points="142.63 82.03 142.27 82.27 201.14 116.16 201.5 115.93 142.63 82.03"/>
            <polygon class="cls-14" points="145.43 80.42 145.06 80.65 203.93 114.54 204.3 114.31 145.43 80.42"/>
            <polygon class="cls-14" points="148.22 78.8 147.85 79.03 206.73 112.93 207.09 112.69 148.22 78.8"/>
            <polygon class="cls-14" points="151.01 77.18 150.65 77.41 209.52 111.31 209.88 111.07 151.01 77.18"/>
            <polygon class="cls-14" points="153.8 75.56 153.44 75.79 212.31 109.69 212.67 109.45 153.8 75.56"/>
            <polygon class="cls-14" points="156.59 73.94 156.23 74.17 215.1 108.07 215.47 107.84 156.59 73.94"/>
            <polygon class="cls-14" points="159.39 72.32 159.02 72.56 217.9 106.45 218.26 106.22 159.39 72.32"/>
            <polygon class="cls-14" points="162.18 70.7 161.82 70.94 220.69 104.83 221.05 104.6 162.18 70.7"/>
            <polygon class="cls-14" points="164.97 69.08 164.61 69.32 223.48 103.21 223.84 102.98 164.97 69.08"/>
            <polygon class="cls-14" points="167.76 67.47 167.4 67.7 226.27 101.6 226.64 101.36 167.76 67.47"/>
            <polygon class="cls-14" points="170.56 65.85 170.19 66.08 229.06 99.98 229.43 99.74 170.56 65.85"/>
            <polygon class="cls-14" points="173.35 64.23 172.99 64.46 231.86 98.36 232.22 98.13 173.35 64.23"/>
            <polygon class="cls-14" points="176.14 62.61 175.78 62.84 234.65 96.74 235.01 96.51 176.14 62.61"/>
            <polygon class="cls-14" points="178.93 60.99 178.57 61.23 237.44 95.12 237.81 94.89 178.93 60.99"/>
            <polygon class="cls-14" points="181.73 59.37 181.36 59.61 240.23 93.5 240.6 93.27 181.73 59.37"/>
            <polygon class="cls-14" points="184.52 57.75 184.16 57.99 243.03 91.88 243.39 91.65 184.52 57.75"/>
          </g>
        </g>
        <g>
          <polygon class="cls-9" points="219.71 100.58 219.71 102.2 233.38 94.33 233.38 92.71 219.71 100.58"/>
          <polygon class="cls-15" points="219.72 100.58 219.72 102.2 210.52 96.83 210.52 95.22 219.72 100.58"/>
          <polygon class="cls-8" points="210.52 95.22 219.72 100.58 233.38 92.71 224.16 87.35 210.52 95.22"/>
          <polygon class="cls-14" points="213.27 95.23 224.16 88.94 230.62 92.71 219.72 98.99 213.27 95.23"/>
          <polygon class="cls-7" points="213.27 95.23 224.16 88.94 230.62 92.71 213.27 95.23"/>
          <polygon class="cls-9" points="224.16 90.24 229.5 93.35 230.62 92.71 224.16 88.94 213.27 95.23 214.39 95.88 224.16 90.24"/>
          <polygon class="cls-15" points="224.16 90.24 229.5 93.35 230.62 92.71 224.16 88.94 224.16 90.24"/>
        </g>
        <g>
          <polygon class="cls-9" points="199.16 112.61 199.16 114.23 212.82 106.36 212.82 104.74 199.16 112.61"/>
          <polygon class="cls-15" points="199.17 112.61 199.17 114.23 189.97 108.86 189.97 107.25 199.17 112.61"/>
          <polygon class="cls-8" points="189.97 107.25 199.17 112.61 212.82 104.74 203.61 99.38 189.97 107.25"/>
          <polygon class="cls-14" points="192.72 107.26 203.61 100.97 210.07 104.74 199.17 111.02 192.72 107.26"/>
          <polygon class="cls-7" points="192.72 107.26 203.61 100.97 210.07 104.74 192.72 107.26"/>
          <polygon class="cls-9" points="203.61 102.27 208.95 105.38 210.07 104.74 203.61 100.97 192.72 107.26 193.84 107.91 203.61 102.27"/>
          <polygon class="cls-15" points="203.61 102.27 208.95 105.38 210.07 104.74 203.61 100.97 203.61 102.27"/>
        </g>
        <g>
          <polygon class="cls-9" points="178.61 124.24 178.61 125.86 192.27 117.99 192.27 116.37 178.61 124.24"/>
          <polygon class="cls-15" points="178.62 124.24 178.62 125.86 169.41 120.49 169.41 118.88 178.62 124.24"/>
          <polygon class="cls-8" points="169.41 118.88 178.62 124.24 192.27 116.37 183.06 111.01 169.41 118.88"/>
          <polygon class="cls-14" points="172.17 118.89 183.06 112.6 189.52 116.36 178.62 122.64 172.17 118.89"/>
          <polygon class="cls-7" points="172.17 118.89 183.06 112.6 189.52 116.36 172.17 118.89"/>
          <polygon class="cls-9" points="183.06 113.9 188.4 117.01 189.52 116.36 183.06 112.6 172.17 118.89 173.29 119.54 183.06 113.9"/>
          <polygon class="cls-15" points="183.06 113.9 188.4 117.01 189.52 116.36 183.06 112.6 183.06 113.9"/>
        </g>
        <g>
          <polygon class="cls-9" points="158.06 136.27 158.06 137.89 171.72 130.02 171.72 128.4 158.06 136.27"/>
          <polygon class="cls-15" points="158.06 136.27 158.06 137.89 148.86 132.52 148.86 130.91 158.06 136.27"/>
          <polygon class="cls-8" points="148.86 130.91 158.06 136.27 171.72 128.4 162.51 123.04 148.86 130.91"/>
          <polygon class="cls-14" points="151.62 130.92 162.51 124.63 168.97 128.4 158.07 134.68 151.62 130.92"/>
          <polygon class="cls-7" points="151.62 130.92 162.51 124.63 168.97 128.4 151.62 130.92"/>
          <polygon class="cls-9" points="162.51 125.93 167.85 129.04 168.97 128.4 162.51 124.63 151.62 130.92 152.74 131.57 162.51 125.93"/>
          <polygon class="cls-15" points="162.51 125.93 167.85 129.04 168.97 128.4 162.51 124.63 162.51 125.93"/>
        </g>
      </g>
    </g>
    <g>
      <g>
        <rect class="cls-1" x="53.2" y="248.55" width="185.94" height="23.11" rx="11.56"/>
        <path class="cls-2" d="M227.59,272.66H64.76a12.56,12.56,0,1,1,0-25.11H227.59a12.56,12.56,0,0,1,0,25.11ZM64.76,249.55a10.56,10.56,0,1,0,0,21.11H227.59a10.56,10.56,0,0,0,0-21.11Z"/>
      </g>
      <g>
        <path class="cls-18" d="M84.84,264.38l-.74-2.05H80.23l-.74,2.05H78.36l3.16-8.57h1.3L86,264.38Zm-4.27-3h3.19l-1.59-4.46Z"/>
        <path class="cls-18" d="M87.41,264.38V255h1.07v9.35Z"/>
        <path class="cls-18" d="M96.74,258.28a2,2,0,0,1,1.4.51,1.89,1.89,0,0,1,.52,1.43v4.16h-1v-3.89a1.38,1.38,0,0,0-.33-1,1.12,1.12,0,0,0-.83-.33,1.18,1.18,0,0,0-.91.38,1.58,1.58,0,0,0-.35,1.13v3.7H94.12v-3.85a1.42,1.42,0,0,0-.33-1,1.19,1.19,0,0,0-.85-.34,1.15,1.15,0,0,0-.91.39,1.63,1.63,0,0,0-.35,1.16v3.66H90.62v-6h1.06v.77a1.87,1.87,0,0,1,.68-.66,2,2,0,0,1,1-.23,2.15,2.15,0,0,1,1,.25,1.67,1.67,0,0,1,.66.73,1.94,1.94,0,0,1,.72-.73A2.14,2.14,0,0,1,96.74,258.28Z"/>
        <path class="cls-18" d="M102.09,264.5a2.1,2.1,0,0,1-1.32-.41,1.5,1.5,0,0,1-.51-1.23,1.73,1.73,0,0,1,.16-.78,1.44,1.44,0,0,1,.49-.55,3.49,3.49,0,0,1,.7-.34,7.29,7.29,0,0,1,.91-.21l1-.16c.36-.07.53-.25.53-.55a1.06,1.06,0,0,0-.37-.9,1.6,1.6,0,0,0-1-.28,1.54,1.54,0,0,0-.94.28,1.12,1.12,0,0,0-.44.84l-.95-.21a1.85,1.85,0,0,1,.75-1.28,2.83,2.83,0,0,1,1.63-.43,3.34,3.34,0,0,1,.87.11,2.16,2.16,0,0,1,.72.34,1.45,1.45,0,0,1,.52.64,2.48,2.48,0,0,1,.19,1v2.47a1.05,1.05,0,0,0,.13.63.58.58,0,0,0,.47.16h.1v.76h-.52a1,1,0,0,1-1.13-.81h0A2.29,2.29,0,0,1,102.09,264.5Zm.24-.86a1.59,1.59,0,0,0,1.28-.57,2.38,2.38,0,0,0,.49-1.59l-1.58.31a2.17,2.17,0,0,0-.93.33.87.87,0,0,0,0,1.31A1.23,1.23,0,0,0,102.33,263.64Z"/>
        <path class="cls-18" d="M109.6,264.49a2.83,2.83,0,0,1-2.14-.86,3,3,0,0,1-.85-2.24,3.07,3.07,0,0,1,.84-2.25,2.91,2.91,0,0,1,2.15-.86,3,3,0,0,1,1.73.52,2.65,2.65,0,0,1,1,1.46l-1,.16a1.85,1.85,0,0,0-.67-.93,1.87,1.87,0,0,0-1.09-.33,1.75,1.75,0,0,0-1.38.61,2.65,2.65,0,0,0,0,3.23,1.78,1.78,0,0,0,1.38.61,1.87,1.87,0,0,0,1.09-.33,1.85,1.85,0,0,0,.67-.93l1,.16a2.59,2.59,0,0,1-1,1.45A2.81,2.81,0,0,1,109.6,264.49Z"/>
        <path class="cls-18" d="M119.13,261.27l0,.29h-4.67a2.12,2.12,0,0,0,.57,1.53,1.9,1.9,0,0,0,1.36.53,1.75,1.75,0,0,0,1-.29,1.88,1.88,0,0,0,.68-.79l1,.2a2.74,2.74,0,0,1-1,1.29,2.83,2.83,0,0,1-1.59.47,2.89,2.89,0,0,1-2.16-.84,3.55,3.55,0,0,1,0-4.54,2.85,2.85,0,0,1,2.13-.84,2.72,2.72,0,0,1,2,.77A3,3,0,0,1,119.13,261.27Zm-2.77-2.18a1.89,1.89,0,0,0-1.25.42,2,2,0,0,0-.63,1.24h3.59a1.81,1.81,0,0,0-.53-1.24A1.69,1.69,0,0,0,116.36,259.09Zm1.72-3.32-1.36,1.57H116l1.53-2Z"/>
        <path class="cls-18" d="M123.6,258.28a2.1,2.1,0,0,1,1.51.54,2,2,0,0,1,.56,1.53v4h-1v-3.79a1.39,1.39,0,0,0-.37-1.07,1.3,1.3,0,0,0-.94-.35,1.45,1.45,0,0,0-1.06.41,1.64,1.64,0,0,0-.42,1.22v3.58h-1v-6h1v.76A2,2,0,0,1,123.6,258.28Z"/>
        <path class="cls-18" d="M132,259.45a1.78,1.78,0,0,1,.74-.8,2.19,2.19,0,0,1,1.15-.32v1a2,2,0,0,0-1.39.45,1.88,1.88,0,0,0-.47,1.42v3.19h-1.06v-6h1Z"/>
        <path class="cls-18" d="M140.26,261.27v.29h-4.67a2.08,2.08,0,0,0,.57,1.53,1.89,1.89,0,0,0,1.36.53,1.69,1.69,0,0,0,1-.29,1.83,1.83,0,0,0,.69-.79l.95.2a2.7,2.7,0,0,1-1,1.29,2.78,2.78,0,0,1-1.59.47,2.89,2.89,0,0,1-2.15-.84,3.55,3.55,0,0,1,0-4.54,2.85,2.85,0,0,1,2.12-.84,2.73,2.73,0,0,1,2,.77A3,3,0,0,1,140.26,261.27Zm-2.77-2.18a1.86,1.86,0,0,0-1.24.42,1.93,1.93,0,0,0-.63,1.24h3.58a1.8,1.8,0,0,0-.52-1.24A1.7,1.7,0,0,0,137.49,259.09Z"/>
        <path class="cls-18" d="M146.25,258.4h1v5.68a3.27,3.27,0,0,1-.77,2.33,3.23,3.23,0,0,1-5.05-1l.87-.42a2,2,0,0,0,2,1.38,1.73,1.73,0,0,0,1.41-.59,2.49,2.49,0,0,0,.48-1.63V263a2.15,2.15,0,0,1-.85.87,2.55,2.55,0,0,1-1.25.32,2.59,2.59,0,0,1-1.94-.84,3,3,0,0,1-.79-2.13,2.91,2.91,0,0,1,.8-2.12,2.57,2.57,0,0,1,1.94-.84,2.38,2.38,0,0,1,1.26.34,2.09,2.09,0,0,1,.84.88Zm-1.9,4.92a1.82,1.82,0,0,0,1.38-.62,2.17,2.17,0,0,0,0-2.93,1.81,1.81,0,0,0-1.38-.61,1.83,1.83,0,0,0-1.38.59,2.23,2.23,0,0,0,0,3A1.8,1.8,0,0,0,144.35,263.32Z"/>
        <path class="cls-18" d="M150,257a.67.67,0,0,1-.5-.21.69.69,0,0,1-.21-.5.72.72,0,0,1,.71-.71.72.72,0,0,1,.71.71.73.73,0,0,1-.21.5A.7.7,0,0,1,150,257Zm-.54,7.39v-6h1.06v6Z"/>
        <path class="cls-18" d="M155.14,264.5a3.27,3.27,0,0,1-1.54-.37,2.76,2.76,0,0,1-1.08-1.09,3.3,3.3,0,0,1-.4-1.65,3.09,3.09,0,0,1,.85-2.26,2.93,2.93,0,0,1,2.17-.85,2.89,2.89,0,0,1,2.16.85,3.43,3.43,0,0,1,0,4.52A3,3,0,0,1,155.14,264.5Zm0-.88a1.81,1.81,0,0,0,1.41-.61,2.59,2.59,0,0,0,0-3.24,1.92,1.92,0,0,0-2.81,0,2.62,2.62,0,0,0,0,3.24A1.81,1.81,0,0,0,155.13,263.62Z"/>
        <path class="cls-18" d="M162.62,258.28a2.1,2.1,0,0,1,1.51.54,2,2,0,0,1,.56,1.53v4h-1.05v-3.79a1.43,1.43,0,0,0-.36-1.07,1.33,1.33,0,0,0-.94-.35,1.47,1.47,0,0,0-1.07.41,1.73,1.73,0,0,0-.42,1.22v3.58h-1v-6h1v.76A2,2,0,0,1,162.62,258.28Z"/>
        <path class="cls-18" d="M168.11,264.5a2.05,2.05,0,0,1-1.31-.41,1.48,1.48,0,0,1-.52-1.23,1.73,1.73,0,0,1,.17-.78,1.41,1.41,0,0,1,.48-.55,3.32,3.32,0,0,1,.71-.34,6.54,6.54,0,0,1,.91-.21l1-.16c.36-.07.53-.25.53-.55a1.06,1.06,0,0,0-.37-.9,1.57,1.57,0,0,0-.95-.28,1.49,1.49,0,0,0-.93.28,1.13,1.13,0,0,0-.45.84l-1-.21a1.85,1.85,0,0,1,.75-1.28,2.83,2.83,0,0,1,1.63-.43,3.34,3.34,0,0,1,.87.11,2.16,2.16,0,0,1,.72.34,1.45,1.45,0,0,1,.52.64,2.32,2.32,0,0,1,.19,1v2.47a1.05,1.05,0,0,0,.13.63.6.6,0,0,0,.48.16h.09v.76h-.52a1,1,0,0,1-1.13-.81h-.05A2.29,2.29,0,0,1,168.11,264.5Zm.24-.86a1.63,1.63,0,0,0,1.29-.57,2.43,2.43,0,0,0,.48-1.59l-1.58.31a2.17,2.17,0,0,0-.93.33.87.87,0,0,0,0,1.31A1.23,1.23,0,0,0,168.35,263.64Z"/>
        <path class="cls-18" d="M173.26,264.38V255h1.06v9.35Z"/>
        <path class="cls-18" d="M178.61,266.65l6-11.62h1l-6,11.62Z"/>
        <path class="cls-18" d="M194.37,255h1v9.35h-1l0-1.16a2.15,2.15,0,0,1-.85.94,2.4,2.4,0,0,1-1.27.35,2.64,2.64,0,0,1-1.08-.22,2.79,2.79,0,0,1-.89-.62,2.89,2.89,0,0,1-.6-1,3.61,3.61,0,0,1-.23-1.29,3.14,3.14,0,0,1,.82-2.24,2.6,2.6,0,0,1,2-.87,2.38,2.38,0,0,1,1.26.34,2.16,2.16,0,0,1,.85.92Zm-1.89,8.57a1.81,1.81,0,0,0,1.4-.63,2.31,2.31,0,0,0,.56-1.58,2.26,2.26,0,0,0-.57-1.57,1.8,1.8,0,0,0-1.39-.63,1.83,1.83,0,0,0-1.4.61,2.29,2.29,0,0,0-.56,1.59,2.25,2.25,0,0,0,.56,1.59A1.84,1.84,0,0,0,192.48,263.6Z"/>
        <path class="cls-18" d="M198.1,257a.72.72,0,0,1-.71-.71.67.67,0,0,1,.21-.5.7.7,0,0,1,1,0,.67.67,0,0,1,.21.5.72.72,0,0,1-.71.71Zm-.53,7.39v-6h1.06v6Z"/>
        <path class="cls-18" d="M202.66,264.5a2.9,2.9,0,0,1-1.61-.43,1.82,1.82,0,0,1-.79-1.24l.92-.26a1.28,1.28,0,0,0,.49.83,1.6,1.6,0,0,0,1,.3,2,2,0,0,0,.57-.08.92.92,0,0,0,.44-.29.85.85,0,0,0,.18-.55.7.7,0,0,0,0-.25.85.85,0,0,0-.1-.19.46.46,0,0,0-.17-.17l-.2-.13-.27-.11-.29-.1-.34-.09-.35-.1-.62-.22a2.91,2.91,0,0,1-.5-.29,1.1,1.1,0,0,1-.39-.47,1.6,1.6,0,0,1-.14-.67,1.57,1.57,0,0,1,1.06-1.52,2.91,2.91,0,0,1,1.06-.18,2.63,2.63,0,0,1,1.46.39,1.68,1.68,0,0,1,.72,1.17l-.86.22a1.17,1.17,0,0,0-.46-.76,1.5,1.5,0,0,0-.86-.25,1.47,1.47,0,0,0-.8.21.7.7,0,0,0-.33.64.63.63,0,0,0,.08.34,1.54,1.54,0,0,0,.18.23,1,1,0,0,0,.33.18l.35.13.44.11.09,0,.58.16c.15.05.32.13.52.22a1.7,1.7,0,0,1,.46.33,1.59,1.59,0,0,1,.3.46,1.67,1.67,0,0,1,.12.65,1.71,1.71,0,0,1-.18.8,1.49,1.49,0,0,1-.49.56,2.6,2.6,0,0,1-.7.3A3.72,3.72,0,0,1,202.66,264.5Z"/>
        <path class="cls-18" d="M208.43,264.38a1.54,1.54,0,0,1-1.16-.43,1.58,1.58,0,0,1-.43-1.19v-3.52h-1.22v-.84h.45a.87.87,0,0,0,.66-.21,1.1,1.1,0,0,0,.19-.71V256.4h1v2h1.37v.84H207.9v3.41a.89.89,0,0,0,.23.66.81.81,0,0,0,.6.23h.54v.84Z"/>
        <path class="cls-18" d="M211.83,259.45a1.68,1.68,0,0,1,.74-.8,2.16,2.16,0,0,1,1.15-.32v1a2,2,0,0,0-1.39.45,1.84,1.84,0,0,0-.48,1.42v3.19h-1v-6h1Z"/>
        <path class="cls-18" d="M215.49,257a.67.67,0,0,1-.5-.21.69.69,0,0,1-.21-.5.72.72,0,0,1,.71-.71.69.69,0,0,1,.5.21.67.67,0,0,1,.21.5.72.72,0,0,1-.71.71Zm-.54,7.39v-6H216v6Z"/>
        <path class="cls-18" d="M220.07,264.38a1.55,1.55,0,0,1-1.17-.43,1.62,1.62,0,0,1-.43-1.19v-3.52h-1.22v-.84h.45a.87.87,0,0,0,.66-.21,1,1,0,0,0,.19-.71V256.4h1v2h1.38v.84h-1.38v3.41a.93.93,0,0,0,.23.66.81.81,0,0,0,.6.23h.55v.84Z"/>
        <path class="cls-18" d="M223.74,264.5a2.05,2.05,0,0,1-1.31-.41,1.48,1.48,0,0,1-.52-1.23,1.73,1.73,0,0,1,.17-.78,1.41,1.41,0,0,1,.48-.55,3.32,3.32,0,0,1,.71-.34,6.9,6.9,0,0,1,.91-.21l1-.16c.35-.07.53-.25.53-.55a1.06,1.06,0,0,0-.38-.9,1.57,1.57,0,0,0-1-.28,1.49,1.49,0,0,0-.93.28,1.16,1.16,0,0,0-.45.84L222,260a1.85,1.85,0,0,1,.75-1.28,2.86,2.86,0,0,1,1.63-.43,3.34,3.34,0,0,1,.87.11,2.31,2.31,0,0,1,.73.34,1.43,1.43,0,0,1,.51.64,2.32,2.32,0,0,1,.19,1v2.47a1.05,1.05,0,0,0,.13.63.6.6,0,0,0,.48.16h.09v.76h-.52a1,1,0,0,1-1.13-.81h-.05A2.28,2.28,0,0,1,223.74,264.5Zm.24-.86a1.63,1.63,0,0,0,1.29-.57,2.43,2.43,0,0,0,.48-1.59l-1.58.31a2.17,2.17,0,0,0-.93.33.87.87,0,0,0,0,1.31A1.23,1.23,0,0,0,224,263.64Z"/>
        <path class="cls-18" d="M228.89,264.38V255H230v9.35Z"/>
      </g>
      <circle class="cls-19" cx="65.61" cy="260.1" r="8.08"/>
      <path class="cls-1" d="M67.89,260.82V262h-.82v1.29H65.72V262H62.59v-1.21L65,256.52h2.07v4.3Zm-4,0h1.87v-3.48Z"/>
    </g>
  </g>
</svg>
