<svg xmlns="http://www.w3.org/2000/svg" width="292.34" height="272.66" viewBox="0 0 292.34 272.66">
  <defs>
    <style>
      .cls-1 {
        isolation: isolate;
      }

      .cls-2, .cls-43 {
        fill: #fff;
      }

      .cls-3 {
        fill: #b6cade;
      }

      .cls-4 {
        fill: #f6d9b7;
      }

      .cls-5 {
        fill: #e2bca5;
      }

      .cls-6 {
        fill: #cca092;
      }

      .cls-7 {
        fill: #e0e4e4;
      }

      .cls-8 {
        fill: #fcfdff;
      }

      .cls-9 {
        fill: #808184;
      }

      .cls-10 {
        fill: #587abb;
      }

      .cls-11 {
        fill: #d3d3d3;
      }

      .cls-12 {
        fill: #938b99;
      }

      .cls-13 {
        fill: #536276;
      }

      .cls-14 {
        fill: #5e6d7d;
      }

      .cls-15 {
        fill: #e2e4e5;
      }

      .cls-16, .cls-39 {
        fill: #f1f1f2;
      }

      .cls-17 {
        fill: #6d7374;
      }

      .cls-18 {
        fill: #9b7371;
      }

      .cls-19 {
        fill: #807689;
      }

      .cls-20 {
        fill: #776179;
      }

      .cls-21 {
        fill: #c5dae6;
      }

      .cls-22, .cls-48 {
        fill: #404041;
      }

      .cls-22, .cls-43 {
        opacity: 0.2;
      }

      .cls-22, .cls-47 {
        mix-blend-mode: multiply;
      }

      .cls-23 {
        fill: #250920;
      }

      .cls-24 {
        fill: #40363b;
      }

      .cls-25 {
        fill: #4e444a;
      }

      .cls-26 {
        fill: #bbbdbf;
      }

      .cls-27 {
        fill: #929497;
      }

      .cls-28 {
        fill: #d0d2d3;
      }

      .cls-29 {
        fill: #3a3d3f;
      }

      .cls-30 {
        fill: #3c3e4a;
      }

      .cls-31 {
        fill: #838383;
      }

      .cls-32 {
        fill: #a4a7a9;
      }

      .cls-33 {
        fill: gray;
      }

      .cls-34 {
        fill: #32343f;
      }

      .cls-35 {
        fill: #526aa7;
      }

      .cls-36 {
        fill: #70565d;
      }

      .cls-37 {
        fill: #4f565b;
      }

      .cls-38 {
        fill: #e6e7e8;
      }

      .cls-39 {
        fill-rule: evenodd;
      }

      .cls-40 {
        fill: #496198;
      }

      .cls-41 {
        fill: #f6921e;
      }

      .cls-42 {
        fill: #96999b;
      }

      .cls-44 {
        fill: #c28d85;
      }

      .cls-45 {
        fill: #bbbcbc;
      }

      .cls-46 {
        fill: #383a45;
      }

      .cls-47 {
        opacity: 0.3;
      }

      .cls-49 {
        fill: #a01623;
      }

      .cls-50 {
        fill: #faaf40;
      }

      .cls-51 {
        fill: #ffc940;
      }

      .cls-52 {
        fill: #5d525b;
      }

      .cls-53 {
        fill: #1e234f;
      }

      .cls-54 {
        fill: #f8a700;
      }
    </style>
  </defs>
  <g class="cls-1">
    <g id="Layer_1" data-name="Layer 1">
      <g>
        <g>
          <rect class="cls-2" x="1" y="1" width="290.34" height="259.1" rx="17.86"/>
          <path class="cls-3" d="M273.48,261.1H18.86A18.88,18.88,0,0,1,0,242.24V18.86A18.88,18.88,0,0,1,18.86,0H273.48a18.88,18.88,0,0,1,18.86,18.86V242.24A18.88,18.88,0,0,1,273.48,261.1ZM18.86,2A16.88,16.88,0,0,0,2,18.86V242.24A16.88,16.88,0,0,0,18.86,259.1H273.48a16.87,16.87,0,0,0,16.86-16.86V18.86A16.87,16.87,0,0,0,273.48,2Z"/>
        </g>
        <g>
          <g>
            <polygon class="cls-4" points="153.62 224.41 261.99 161.76 138.71 90.57 30.35 153.21 153.62 224.41"/>
            <polygon class="cls-5" points="153.62 224.41 153.62 227.82 261.99 165.18 261.99 161.76 153.62 224.41"/>
            <polygon class="cls-6" points="30.35 153.21 30.35 156.62 153.62 227.82 153.62 224.41 30.35 153.21"/>
          </g>
          <polygon class="cls-6" points="181.05 146.26 234.76 177.51 215.24 188.79 161.58 157.57 181.05 146.26"/>
          <polygon class="cls-6" points="204.85 132.4 258.65 163.7 239.14 174.97 185.38 143.7 204.85 132.4"/>
          <g>
            <g>
              <path class="cls-7" d="M146.34,12V91.19c0,1.23-2.16,2.22-4.82,2.22s-4.83-1-4.83-2.22V12Z"/>
              <path class="cls-8" d="M136.69,12c0,1.22,2.16,2.22,4.83,2.22s4.82-1,4.82-2.22-2.16-2.22-4.82-2.22S136.69,10.78,136.69,12Z"/>
              <path class="cls-9" d="M138,12c0,.76,1.6,1.37,3.57,1.37s3.56-.61,3.56-1.37-1.59-1.37-3.56-1.37S138,11.25,138,12Z"/>
            </g>
            <path class="cls-10" d="M141.52,47c-2.27,0-4.19-.69-4.83-1.63V22.49c0,1.22,2.16,2.22,4.83,2.22s4.82-1,4.82-2.22V45.4C145.7,46.34,143.78,47,141.52,47Z"/>
          </g>
          <g>
            <g>
              <path class="cls-7" d="M130.33,21.27v79.19c0,1.23-2.16,2.22-4.83,2.22s-4.83-1-4.83-2.22V21.27Z"/>
              <path class="cls-8" d="M120.67,21.27c0,1.22,2.16,2.21,4.83,2.21s4.83-1,4.83-2.21-2.16-2.22-4.83-2.22S120.67,20,120.67,21.27Z"/>
              <path class="cls-9" d="M121.93,21.27c0,.75,1.6,1.36,3.57,1.36s3.57-.61,3.57-1.36-1.6-1.37-3.57-1.37S121.93,20.51,121.93,21.27Z"/>
            </g>
            <path class="cls-10" d="M125.5,56.3c-2.27,0-4.19-.69-4.83-1.63V31.76c0,1.22,2.16,2.21,4.83,2.21s4.83-1,4.83-2.21V54.67C129.68,55.61,127.77,56.3,125.5,56.3Z"/>
          </g>
          <g>
            <g>
              <path class="cls-7" d="M114.31,30.54v79.19c0,1.22-2.16,2.22-4.83,2.22s-4.83-1-4.83-2.22V30.54Z"/>
              <path class="cls-8" d="M104.65,30.54c0,1.22,2.17,2.21,4.83,2.21s4.83-1,4.83-2.21-2.16-2.22-4.83-2.22S104.65,29.31,104.65,30.54Z"/>
              <path class="cls-9" d="M105.91,30.54c0,.75,1.6,1.36,3.57,1.36s3.57-.61,3.57-1.36-1.6-1.37-3.57-1.37S105.91,29.78,105.91,30.54Z"/>
            </g>
            <path class="cls-10" d="M109.48,65.56c-2.27,0-4.18-.68-4.83-1.62V41c0,1.22,2.17,2.21,4.83,2.21s4.83-1,4.83-2.21V63.94C113.67,64.88,111.75,65.56,109.48,65.56Z"/>
          </g>
          <g>
            <polygon class="cls-11" points="130.67 145.57 73.68 112.28 73.68 142.41 130.67 175.56 130.67 145.57"/>
            <polygon class="cls-12" points="150.84 67.24 73.68 112.28 130.66 145.58 207.95 100.46 150.84 67.24"/>
            <polygon class="cls-7" points="207.96 100.46 130.66 145.58 130.67 175.56 207.96 130.59 207.96 100.46"/>
          </g>
          <g>
            <g>
              <polygon class="cls-11" points="108.53 120.63 73.68 100.28 73.68 112.63 108.53 132.85 108.53 120.63"/>
              <polygon class="cls-8" points="118.76 74.05 73.67 100.29 108.52 120.63 153.72 94.33 118.76 74.05"/>
              <polygon class="cls-7" points="153.72 94.33 108.52 120.63 108.53 132.85 153.72 106.68 153.72 94.33"/>
            </g>
            <g>
              <polygon class="cls-11" points="108.52 107.84 73.67 87.5 73.67 93.93 108.52 114.15 108.52 107.84"/>
              <polygon class="cls-8" points="118.75 61.27 73.66 87.5 108.51 107.85 153.71 81.55 118.75 61.27"/>
              <polygon class="cls-7" points="153.71 81.54 108.51 107.85 108.52 114.15 153.71 87.98 153.71 81.54"/>
            </g>
            <g>
              <polygon class="cls-13" points="108.52 114.15 76.25 95.42 76.25 100.18 108.52 118.9 108.52 114.15"/>
              <polygon class="cls-14" points="150.36 89.92 108.52 114.15 108.52 118.9 150.36 94.54 150.36 89.92"/>
            </g>
            <g>
              <polygon class="cls-8" points="118.15 62.65 78.36 85.8 109.12 103.75 149 80.54 118.15 62.65"/>
              <polygon class="cls-15" points="78.36 85.8 73.66 87.5 108.51 107.85 109.12 103.75 78.36 85.8"/>
              <polygon class="cls-11" points="109.12 103.75 108.51 107.85 153.71 81.54 149 80.54 109.12 103.75"/>
              <polygon class="cls-15" points="149 80.54 153.71 81.54 118.75 61.27 118.15 62.65 149 80.54"/>
              <polygon class="cls-11" points="73.66 87.5 78.36 85.8 118.15 62.65 118.75 61.27 73.66 87.5"/>
            </g>
          </g>
          <g>
            <polygon class="cls-16" points="185.41 141.92 203.31 131.51 204.85 132.4 185.41 143.71 185.41 141.92"/>
            <polygon class="cls-17" points="203.31 131.51 203.31 115.96 185.41 126.29 185.41 141.92 203.31 131.51"/>
            <polygon class="cls-11" points="204.85 115.07 204.85 132.4 203.31 131.51 203.31 115.96 204.85 115.07"/>
          </g>
          <g>
            <polygon class="cls-16" points="161.58 155.78 179.49 145.37 181.02 146.26 161.58 157.57 161.58 155.78"/>
            <polygon class="cls-18" points="179.49 145.37 179.49 129.82 161.58 140.15 161.58 155.78 179.49 145.37"/>
            <polygon class="cls-11" points="181.02 128.93 181.02 146.26 179.49 145.37 179.49 129.82 181.02 128.93"/>
          </g>
          <g>
            <polygon class="cls-19" points="85.76 152.43 85.76 163.68 94.54 158.62 94.54 147.37 85.76 152.43"/>
            <polygon class="cls-20" points="85.76 152.43 85.76 163.68 58.92 148.18 58.92 136.93 85.76 152.43"/>
            <polygon class="cls-21" points="82.97 153.03 82.97 156.53 74.62 151.71 74.62 148.21 82.97 153.03"/>
            <polygon class="cls-21" points="82.97 157.97 82.97 160.37 77.25 157.07 77.25 154.67 82.97 157.97"/>
            <polygon class="cls-12" points="94.54 147.37 85.76 152.43 58.92 136.93 67.69 131.87 94.54 147.37"/>
          </g>
          <g>
            <polygon class="cls-19" points="71.58 160.69 71.58 171.94 80.36 166.88 80.36 155.63 71.58 160.69"/>
            <polygon class="cls-20" points="71.58 160.69 71.58 171.94 44.74 156.44 44.74 145.19 71.58 160.69"/>
            <polygon class="cls-21" points="68.8 161.29 68.8 164.79 60.44 159.97 60.44 156.47 68.8 161.29"/>
            <polygon class="cls-21" points="68.8 166.23 68.8 168.63 63.08 165.33 63.08 162.93 68.8 166.23"/>
            <polygon class="cls-12" points="80.36 155.63 71.58 160.69 44.74 145.19 53.52 140.13 80.36 155.63"/>
          </g>
          <g>
            <polygon class="cls-14" points="85.3 131.07 85.3 126.74 78.7 122.93 78.7 127.23 85.3 131.07"/>
            <polygon class="cls-7" points="78.7 122.93 79.54 123.41 79.54 126.77 78.7 127.23 78.7 122.93"/>
            <polygon class="cls-8" points="79.54 126.77 85.3 130.08 85.3 131.07 78.7 127.23 79.54 126.77"/>
          </g>
          <g>
            <polygon class="cls-14" points="95.19 136.84 95.19 132.51 88.61 128.7 88.61 133 95.19 136.84"/>
            <polygon class="cls-7" points="88.61 128.7 89.44 129.18 89.44 132.54 88.61 133 88.61 128.7"/>
            <polygon class="cls-8" points="89.44 132.54 95.19 135.85 95.19 136.84 88.61 133 89.44 132.54"/>
          </g>
          <g>
            <polygon class="cls-14" points="105.09 142.61 105.09 138.28 98.5 134.47 98.5 138.78 105.09 142.61"/>
            <polygon class="cls-7" points="98.5 134.47 99.34 134.95 99.34 138.31 98.5 138.78 98.5 134.47"/>
            <polygon class="cls-8" points="99.34 138.31 105.09 141.62 105.09 142.61 98.5 138.78 99.34 138.31"/>
          </g>
          <g>
            <polygon class="cls-14" points="115 148.38 115 144.05 108.41 140.24 108.41 144.54 115 148.38"/>
            <polygon class="cls-7" points="108.41 140.24 109.24 140.72 109.24 144.08 108.41 144.54 108.41 140.24"/>
            <polygon class="cls-8" points="109.24 144.08 115 147.39 115 148.38 108.41 144.54 109.24 144.08"/>
          </g>
          <g>
            <polygon class="cls-14" points="124.89 154.15 124.89 149.82 118.31 146.01 118.31 150.31 124.89 154.15"/>
            <polygon class="cls-7" points="118.31 146.01 119.14 146.49 119.14 149.85 118.31 150.31 118.31 146.01"/>
            <polygon class="cls-8" points="119.14 149.85 124.89 153.16 124.89 154.15 118.31 150.31 119.14 149.85"/>
          </g>
          <g>
            <g>
              <polygon class="cls-22" points="171.31 185.65 181.65 179.55 158.09 165.82 147.75 171.92 171.31 185.65"/>
              <g>
                <polygon class="cls-23" points="164.91 178.16 149.77 169.54 150.58 168.89 164.91 177.43 164.91 178.16"/>
                <polygon class="cls-23" points="149.3 170.19 150.77 169.25 149.3 168.4 149.3 170.19"/>
                <g>
                  <g>
                    <path class="cls-24" d="M153.4,174.92h0l.05,0h0l.05-.06h0l0,0v0l0-.05h0l0-.08a.2.2,0,0,0,0-.08h0l0-.06v0l0,0s0,0,0-.06v-.05l0-.05V174a.11.11,0,0,1,0,0v-.6a.19.19,0,0,1,0-.08v0s0-.08,0-.12v0a.36.36,0,0,1,0-.1v0s0-.06,0-.08v0s0-.05,0-.08v0a.29.29,0,0,1,0-.09l0,0,0-.12h0a.76.76,0,0,0,0-.11v0l0-.09,0,0a.2.2,0,0,0,0-.08v0l-.05-.12,0,0a.36.36,0,0,0,0-.09l0-.06,0-.06-.09-.16,0-.06,0-.06,0-.06,0-.06,0,0-.12-.17h0l-.09-.12-.07-.09h0l-.09-.1,0,0-.06-.07,0,0-.06-.05,0,0-.06-.06,0,0-.05,0,0,0-.05,0,0,0-.06-.05,0,0-.07,0,0,0-.1-.06h0l-.1-.06-.09-.05,0,0-.07,0,0,0-.1,0-.09,0h0l-.07,0h0l-.05,0h-.5l-.07,0h0l-.06,0h0l-.05,0-.05,0h0l-.08,0,2-1.16.08,0h0a1.38,1.38,0,0,1,.94,0,2.93,2.93,0,0,1,.83.46l0,0,0,0a4.57,4.57,0,0,1,1.63,3.08,2,2,0,0,1-.23,1.21h0l0,.05,0,0,0,0h0l-.05.06h0l0,.05h0l0,0,0,0-.07,0-2,1.16.06,0,0,0Z"/>
                    <path class="cls-25" d="M151.8,170.05a4.61,4.61,0,0,1,2.09,3.61c0,1.33-.95,1.87-2.1,1.2a4.6,4.6,0,0,1-2.09-3.61C149.71,169.92,150.65,169.38,151.8,170.05Z"/>
                  </g>
                  <g>
                    <path class="cls-26" d="M151.73,171a3.07,3.07,0,0,1,1.36,2.22c0,.05,0,.1,0,.15,0,.87-.62,1.22-1.38.78a3,3,0,0,1-1.36-2.36v-.15C150.43,170.86,151,170.57,151.73,171Z"/>
                    <path class="cls-27" d="M151.73,171.41a2.24,2.24,0,0,1,1,1.61v.12c0,.63-.45.88-1,.57a2.2,2.2,0,0,1-1-1.73v-.1C150.78,171.32,151.21,171.11,151.73,171.41Z"/>
                    <path class="cls-28" d="M150.73,171.88a.57.57,0,0,1,.74-.58c-.31,0-.53.21-.56.6,0,0,0,.07,0,.11a2.21,2.21,0,0,0,1,1.72,1,1,0,0,0,.26.11.9.9,0,0,1-.44-.14,2.17,2.17,0,0,1-1-1.72Z"/>
                    <g>
                      <path class="cls-29" d="M151.35,172.68a.08.08,0,0,0-.08,0s0,.11,0,.18a.24.24,0,0,0,.08.09.12.12,0,0,0,.08,0s0-.11,0-.19A.3.3,0,0,0,151.35,172.68Z"/>
                      <path class="cls-29" d="M151.79,172.27c-.14-.08-.25,0-.25.14a.53.53,0,0,0,.25.44c.14.08.25,0,.25-.14A.54.54,0,0,0,151.79,172.27Z"/>
                      <path class="cls-29" d="M151.79,173.14c-.06,0-.11,0-.11.07a.25.25,0,0,0,.11.19c.06,0,.11,0,.11-.07A.25.25,0,0,0,151.79,173.14Z"/>
                      <path class="cls-29" d="M152.23,173.19s-.06,0-.08,0-.05.1,0,.18a.15.15,0,0,0,.08.08.06.06,0,0,0,.07,0s0-.11,0-.18A.19.19,0,0,0,152.23,173.19Z"/>
                      <path class="cls-29" d="M151.35,171.68a.08.08,0,0,0-.08,0s0,.1,0,.18,0,.07.08.08a.08.08,0,0,0,.08,0s0-.11,0-.18A.15.15,0,0,0,151.35,171.68Z"/>
                      <path class="cls-29" d="M151.79,172c.06,0,.11,0,.11-.07a.25.25,0,0,0-.11-.19c-.06,0-.11,0-.11.06A.26.26,0,0,0,151.79,172Z"/>
                      <path class="cls-29" d="M152.23,172.44a.12.12,0,0,0,.08,0s0-.11,0-.19a.3.3,0,0,0-.08-.08.08.08,0,0,0-.08,0s0,.11,0,.18A.24.24,0,0,0,152.23,172.44Z"/>
                      <path class="cls-29" d="M151.28,172.27a.27.27,0,0,0-.11-.2c-.06,0-.11,0-.11.07a.24.24,0,0,0,.11.19C151.23,172.37,151.28,172.34,151.28,172.27Z"/>
                      <path class="cls-29" d="M152.41,172.79c-.06,0-.11,0-.11.06a.27.27,0,0,0,.11.2c.06,0,.11,0,.11-.07A.24.24,0,0,0,152.41,172.79Z"/>
                    </g>
                  </g>
                </g>
                <polygon class="cls-30" points="165.92 176.79 173.5 172.5 155.9 162.29 148.32 166.58 165.92 176.79"/>
                <g>
                  <path class="cls-31" d="M164.79,176.84h-.55l-4.12-2.4h.58l4.12,2.4h0Z"/>
                  <polygon class="cls-32" points="164.24 176.91 160.12 174.51 159.62 174.8 163.74 177.2 164.24 176.91"/>
                  <path class="cls-28" d="M158.81,176.19h0v0h0v0h0v0h0v0h0v0h0v0h0v0h0v0h0v0h0v0h0v0h0v0h0v0h0v0h0l0,0h0v0h0v0h0v0h0l0,0h0l0,0h0v0h0v0h0l0,0h0l0,0h0v0h0v0h0l0,0h.15v0h0l0,0h.1l0,0h0l4.12,2.4h-.16l0,0h-.15l0,0h0l0,0h0l0,0h0v0h0l0,0h0l0,0h0v0h0v0h0v0h0v0h0v0h0v0h0l0,0h0l0,0v0h0v0h0v0h0v0h0v0h0v0h0v0h0v0h0v0h0v0h0v0h0v0h0v0h0v0h0v0h0v0h0v0h0v0h0v0h0v0h0v0h0v0h0v0h0v0h.17l-4.12-2.4h-.11v0h0v0h0v0h0v0h0v0h0v0h0v0h0v0h0v0h0v0h0v0h0v0h0v0h0v0h0Z"/>
                  <path class="cls-33" d="M163.74,177.2a1.79,1.79,0,0,0-.81,1.41c0,.51.37.72.82.46l.5-.29a1.79,1.79,0,0,0,.81-1.41c0-.51-.37-.72-.82-.46Z"/>
                </g>
                <polygon class="cls-34" points="148.32 169.62 148.32 166.58 165.92 176.79 165.92 179.82 164.91 179.24 164.91 177.43 149.3 168.4 149.3 170.19 148.32 169.62"/>
              </g>
              <g>
                <polygon class="cls-8" points="173.69 162.76 165.5 167.52 148.09 157.41 156.24 152.67 173.69 162.76"/>
                <polygon class="cls-11" points="165.5 167.52 165.5 176.62 173.69 171.86 173.69 162.76 165.5 167.52"/>
                <polygon class="cls-7" points="148.09 157.41 165.5 167.52 165.5 176.62 148.09 166.52 148.09 157.41"/>
              </g>
              <g>
                <g>
                  <path class="cls-24" d="M170.21,184.62h0l.05,0h0l.05-.05v0l0-.05h0l0-.06h0l0-.07,0-.08v0l0-.06v0l0,0s0,0,0-.07v0s0,0,0-.06v-.68a.25.25,0,0,1,0-.08v0a.28.28,0,0,1,0-.09v0s0-.08,0-.12v0a.36.36,0,0,1,0-.1v0l0-.08v-.05l0-.08v0a.31.31,0,0,1,0-.08l0,0,0-.12h0a.36.36,0,0,0,0-.11v0l0-.08,0,0,0-.09,0,0-.05-.12,0,0a.36.36,0,0,0,0-.09l0-.06,0-.06-.09-.16,0-.06,0-.06,0-.06,0-.06,0,0-.12-.17h0l-.09-.12a.27.27,0,0,0-.07-.08v0l-.09-.1,0,0-.06-.07,0,0-.05,0,0,0-.06,0,0,0-.05,0,0,0-.05-.05,0,0L169,180l0,0-.07,0,0,0-.1-.06h0l-.1-.06-.09-.05,0,0-.07,0h0l-.1,0-.09,0h0l-.07,0h-.68l-.06,0h-.08l-.05,0,0,0-.08,0,1.55-.91.08,0h0a1.32,1.32,0,0,1,.94,0,2.93,2.93,0,0,1,.83.46l0,0,0,0a4.55,4.55,0,0,1,1.63,3.08,2,2,0,0,1-.23,1.21h0l0,.05,0,0,0,.05h0l0,.06h0l0,.05h0l0,0v0l-.07,0-1.54.9.06,0h0Z"/>
                  <path class="cls-25" d="M168.61,179.75a4.61,4.61,0,0,1,2.09,3.62c0,1.33-.94,1.86-2.1,1.19a4.58,4.58,0,0,1-2.09-3.61C166.52,179.62,167.46,179.09,168.61,179.75Z"/>
                </g>
                <g>
                  <path class="cls-26" d="M168.54,180.69a3,3,0,0,1,1.36,2.21.76.76,0,0,1,0,.15c0,.87-.62,1.22-1.38.79a3,3,0,0,1-1.36-2.37v-.14C167.24,180.56,167.83,180.27,168.54,180.69Z"/>
                  <path class="cls-27" d="M168.54,181.12a2.22,2.22,0,0,1,1,1.61v.11c0,.63-.45.89-1,.57a2.2,2.2,0,0,1-1-1.72v-.11C167.59,181,168,180.82,168.54,181.12Z"/>
                  <path class="cls-28" d="M167.54,181.58c0-.46.35-.68.74-.57-.31,0-.53.21-.56.6,0,0,0,.06,0,.1a2.19,2.19,0,0,0,1,1.72,1,1,0,0,0,.26.11.88.88,0,0,1-.44-.13,2.2,2.2,0,0,1-1-1.73Z"/>
                  <g>
                    <path class="cls-29" d="M168.16,182.38a.12.12,0,0,0-.08,0s0,.11,0,.19a.3.3,0,0,0,.08.08.08.08,0,0,0,.08,0s0-.11,0-.18A.24.24,0,0,0,168.16,182.38Z"/>
                    <path class="cls-29" d="M168.6,182c-.14-.08-.25,0-.25.14a.52.52,0,0,0,.25.44c.14.09.25,0,.25-.14A.56.56,0,0,0,168.6,182Z"/>
                    <path class="cls-29" d="M168.6,182.84c-.06,0-.11,0-.11.07a.24.24,0,0,0,.11.19c.06,0,.11,0,.11-.06A.27.27,0,0,0,168.6,182.84Z"/>
                    <path class="cls-29" d="M169,182.89a.08.08,0,0,0-.08,0c-.05,0-.05.11,0,.18a.24.24,0,0,0,.08.09s.05,0,.07,0,0-.1,0-.18Z"/>
                    <path class="cls-29" d="M168.16,181.38a.06.06,0,0,0-.07,0c-.05,0-.05.11,0,.18l.08.09s.06,0,.08,0,0-.1,0-.18A.15.15,0,0,0,168.16,181.38Z"/>
                    <path class="cls-29" d="M168.6,181.68c.06,0,.11,0,.11-.06a.26.26,0,0,0-.11-.2c-.06,0-.11,0-.11.07A.25.25,0,0,0,168.6,181.68Z"/>
                    <path class="cls-29" d="M169,182.14a.08.08,0,0,0,.08,0s0-.11,0-.18a.24.24,0,0,0-.08-.09.12.12,0,0,0-.08,0s0,.11,0,.19A.3.3,0,0,0,169,182.14Z"/>
                    <path class="cls-29" d="M168.09,182a.24.24,0,0,0-.11-.19c-.06,0-.11,0-.11.06a.24.24,0,0,0,.11.19C168,182.07,168.09,182,168.09,182Z"/>
                    <path class="cls-29" d="M169.22,182.49c-.06,0-.11,0-.11.06a.26.26,0,0,0,.11.2c.06,0,.11,0,.11-.07A.25.25,0,0,0,169.22,182.49Z"/>
                  </g>
                </g>
              </g>
              <polygon class="cls-35" points="172.05 183.38 179.65 179.08 179.66 174.49 172.06 178.78 172.05 183.38"/>
              <polygon class="cls-36" points="172.06 178.78 179.66 174.49 178.63 170.02 171.03 174.32 172.06 178.78"/>
              <polygon class="cls-10" points="171.03 174.32 178.63 170.02 173.54 167.08 165.94 171.38 171.03 174.32"/>
              <path class="cls-10" d="M171,174.32l1,4.46,7.59-4.3-1-4.46Zm.34.15,7.06-4,.89,3.85-7,4Z"/>
              <g class="cls-1">
                <polygon class="cls-37" points="178.31 176.11 178.31 179.06 173.41 181.9 173.41 178.95 178.31 176.11"/>
              </g>
              <g>
                <polygon class="cls-28" points="172.42 182.55 172.42 183.59 179.98 179.24 179.98 178.21 172.42 182.55"/>
                <polygon class="cls-26" points="172.42 182.55 172.42 183.59 172.05 183.38 172.05 182.34 172.42 182.55"/>
                <polygon class="cls-38" points="179.98 178.21 172.42 182.55 172.05 182.34 179.61 178 179.98 178.21"/>
              </g>
              <polygon class="cls-39" points="172.06 181.29 173.28 180.59 173.28 181.32 172.06 182.01 172.06 181.29"/>
              <polygon class="cls-39" points="178.45 177.6 179.66 176.9 179.66 177.63 178.45 178.32 178.45 177.6"/>
              <path class="cls-40" d="M165.94,171.38l5.09,2.94,1,4.46,0,4.6-1.09-.64a5.32,5.32,0,0,0-2.27-3.29c-1.08-.62-2-.32-2.28.66l-.49-.29v-3Z"/>
              <path class="cls-36" d="M168,172.92c-.06,0-.1,0-.1.05v2.67a.21.21,0,0,0,.1.16l3.38,2c.07,0,.11,0,.09-.1l-.6-3a.18.18,0,0,0-.09-.13Z"/>
              <polygon class="cls-41" points="172.61 182.81 172.61 183.29 173.53 182.76 173.53 182.28 172.61 182.81"/>
              <polygon class="cls-41" points="178.91 179.2 178.91 179.67 179.84 179.15 179.84 178.67 178.91 179.2"/>
              <polygon class="cls-26" points="155.19 171.81 155.19 173.52 158.39 175.34 158.39 173.66 155.19 171.81"/>
              <polygon class="cls-42" points="158.39 175.34 159 175.01 159 174.01 158.39 173.66 158.39 175.34"/>
              <polygon class="cls-43" points="171.37 174.47 179.32 174.34 178.43 170.48 171.37 174.47"/>
            </g>
            <g>
              <polygon class="cls-10" points="156.22 169.29 155.32 168.78 155.32 162.82 156.22 163.33 156.22 169.29"/>
              <polygon class="cls-10" points="152.27 166 153.35 166.62 153.35 161.68 154.24 162.19 154.24 167.14 154.24 168.15 153.35 167.63 153.35 167.63 151.37 166.49 151.37 165.48 151.37 160.53 152.27 161.05 152.27 166"/>
              <polygon class="cls-10" points="150.29 159.91 150.29 165.87 149.39 165.35 149.39 159.39 150.29 159.91"/>
            </g>
          </g>
          <g>
            <g>
              <polygon class="cls-22" points="156.31 194.81 166.65 188.72 143.09 174.99 132.75 181.09 156.31 194.81"/>
              <g>
                <polygon class="cls-23" points="149.91 187.32 134.77 178.71 135.58 178.05 149.91 186.59 149.91 187.32"/>
                <polygon class="cls-23" points="134.3 179.35 135.77 178.42 134.3 177.57 134.3 179.35"/>
                <g>
                  <g>
                    <path class="cls-24" d="M138.4,184.09l0,0,.05,0h0l.06-.05v0s0,0,0,0v0l0,0v0l0-.07a.3.3,0,0,0,0-.08h0l0-.07v0l0,0a.64.64,0,0,0,0-.07v0s0,0,0-.06v-.1s0,0,0,0v-.65a.28.28,0,0,1,0-.09v0s0-.08,0-.12h0s0-.07,0-.11v0l0-.08v0l0-.08v-.05l0-.08v0a.56.56,0,0,0,0-.12h0a.49.49,0,0,0,0-.11v0l0-.08,0,0a.36.36,0,0,0,0-.09v0l-.05-.12,0,0,0-.09,0-.07,0-.06-.09-.16,0-.05a.25.25,0,0,0,0-.07l0,0,0-.07,0,0-.12-.17h0l-.09-.11-.07-.09v0l-.09-.1,0,0-.07-.06,0,0-.06-.06,0,0-.05-.05,0,0-.06,0,0,0-.05,0-.05,0,0,0,0,0-.07,0,0,0-.1-.07h0l-.1-.06-.09-.05,0,0-.07,0h0l-.1,0-.09,0h0l-.06,0h-.77l-.05,0-.05,0h0l-.08,0,2-1.16.08,0h0a1.32,1.32,0,0,1,.94,0,2.51,2.51,0,0,1,.83.46h0l0,0a4.55,4.55,0,0,1,1.63,3.08,2,2,0,0,1-.23,1.21h0v0l0,0,0,0,0,0,0,0-.05.05h0l0,0,0,0-.05,0h0l-.07,0-2,1.16.06,0h0Z"/>
                    <path class="cls-25" d="M136.8,179.22a4.58,4.58,0,0,1,2.09,3.61c0,1.33-.95,1.86-2.1,1.2a4.61,4.61,0,0,1-2.09-3.62C134.7,179.08,135.65,178.55,136.8,179.22Z"/>
                  </g>
                  <g>
                    <path class="cls-26" d="M136.73,180.15a3,3,0,0,1,1.36,2.21c0,.06,0,.11,0,.16,0,.87-.62,1.22-1.38.78a3,3,0,0,1-1.37-2.37c0-.05,0-.09,0-.14C135.43,180,136,179.74,136.73,180.15Z"/>
                    <path class="cls-27" d="M136.73,180.58a2.22,2.22,0,0,1,1,1.61v.11c0,.63-.45.89-1,.57a2.2,2.2,0,0,1-1-1.72V181C135.78,180.49,136.21,180.28,136.73,180.58Z"/>
                    <path class="cls-28" d="M135.73,181c0-.46.34-.68.74-.57-.31,0-.53.21-.56.6a.34.34,0,0,0,0,.1,2.21,2.21,0,0,0,1,1.73,1.74,1.74,0,0,0,.25.11,1,1,0,0,1-.43-.14,2.2,2.2,0,0,1-1-1.72Z"/>
                    <g>
                      <path class="cls-29" d="M136.35,181.85a.08.08,0,0,0-.08,0s0,.1,0,.18a.15.15,0,0,0,.08.08.08.08,0,0,0,.08,0s0-.1,0-.18A.15.15,0,0,0,136.35,181.85Z"/>
                      <path class="cls-29" d="M136.79,181.43a.16.16,0,0,0-.26.15.57.57,0,0,0,.26.44c.14.08.25,0,.25-.15A.56.56,0,0,0,136.79,181.43Z"/>
                      <path class="cls-29" d="M136.79,182.31a.07.07,0,0,0-.12.06.22.22,0,0,0,.12.19c.06,0,.11,0,.11-.06A.24.24,0,0,0,136.79,182.31Z"/>
                      <path class="cls-29" d="M137.22,182.35a.06.06,0,0,0-.07,0c-.05,0-.05.11,0,.19l.08.08a.08.08,0,0,0,.08,0s0-.11,0-.19Z"/>
                      <path class="cls-29" d="M136.35,180.84a.08.08,0,0,0-.08,0s0,.11,0,.19a.6.6,0,0,0,.08.08.08.08,0,0,0,.08,0s0-.11,0-.19Z"/>
                      <path class="cls-29" d="M136.79,181.14c.06,0,.11,0,.11-.06a.24.24,0,0,0-.11-.19c-.06,0-.11,0-.11.06A.24.24,0,0,0,136.79,181.14Z"/>
                      <path class="cls-29" d="M137.23,181.6a.08.08,0,0,0,.08,0s0-.1,0-.18-.05-.07-.08-.08a.08.08,0,0,0-.08,0c-.05,0-.05.1,0,.18A.15.15,0,0,0,137.23,181.6Z"/>
                      <path class="cls-29" d="M136.28,181.43a.24.24,0,0,0-.11-.19c-.06,0-.11,0-.11.06a.27.27,0,0,0,.11.2C136.23,181.53,136.28,181.5,136.28,181.43Z"/>
                      <path class="cls-29" d="M137.41,182c-.06,0-.11,0-.12.07a.22.22,0,0,0,.12.19c.06,0,.11,0,.11-.06A.27.27,0,0,0,137.41,182Z"/>
                    </g>
                  </g>
                </g>
                <polygon class="cls-30" points="150.92 185.96 158.49 181.67 140.9 171.46 133.32 175.74 150.92 185.96"/>
                <g>
                  <path class="cls-31" d="M149.79,186h-.55l-4.12-2.39,0,0h.56l4.12,2.4h0Z"/>
                  <polygon class="cls-32" points="149.24 186.07 145.12 183.68 144.62 183.97 148.74 186.36 149.24 186.07"/>
                  <path class="cls-28" d="M143.81,185.35h0v0h0v0h0v0h0v0h0v0h0v0h0v0h0v0h0v0h0v0h0v0h0v0h0l0,0h0v0h0v0h0l0,0h0l0,0h0v0h0l0,0h0l0,0h0v0h0v0h0l0,0h0l0,0h0v0h.34l4.12,2.4h-.19v0h-.15l0,0h0l0,0h0v0h0l0,0h0l0,0h0v0h0l0,0h0l0,0h0v0h0v0h0l0,0h0v0h0v0h0v0h0v0h0v0h0v0h0v0h0v0h0v0h0v0h0v0h0v0h0v0h0v0h0v0h0v0h0v0h0v0h0v0h0v0h0v0h0v0h0v0h0v0h0v0h0v0h.13l-4.12-2.39h-.18v0h0v0h0v0h0v0h0v0h0v0h0v0h0Z"/>
                  <path class="cls-33" d="M148.74,186.36a1.81,1.81,0,0,0-.81,1.41c0,.52.37.73.82.47l.5-.29a1.79,1.79,0,0,0,.81-1.41c0-.52-.37-.73-.82-.47Z"/>
                </g>
                <polygon class="cls-34" points="133.32 178.78 133.32 175.74 150.92 185.96 150.92 188.99 149.91 188.4 149.91 186.59 134.3 177.57 134.3 179.35 133.32 178.78"/>
              </g>
              <g>
                <polygon class="cls-8" points="158.69 171.92 150.5 176.68 133.09 166.58 141.24 161.84 158.69 171.92"/>
                <polygon class="cls-11" points="150.5 176.68 150.5 185.79 158.69 181.03 158.69 171.92 150.5 176.68"/>
                <polygon class="cls-7" points="133.09 166.58 150.5 176.68 150.5 185.79 133.09 175.68 133.09 166.58"/>
              </g>
              <g>
                <g>
                  <path class="cls-24" d="M155.21,193.79h0l.05-.05h0l.06-.06v0l0,0v0l0-.05h0l0-.08a.2.2,0,0,0,0-.08h0l0-.07v0l0,0s0,0,0-.06v0l0-.06V193a.43.43,0,0,0,0-.05v-.65a.22.22,0,0,1,0-.08v0s0-.08,0-.12h0a.44.44,0,0,1,0-.1v0s0-.05,0-.08v0s0-.05,0-.08v0a.19.19,0,0,1,0-.08l0,0,0-.12h0a.49.49,0,0,0,0-.11v0l0-.08,0,0a.36.36,0,0,0,0-.09v0l-.05-.11,0,0a.36.36,0,0,0,0-.09l0-.06,0-.06-.09-.17,0,0,0-.06,0-.06a.16.16,0,0,1,0-.07l0,0-.12-.17h0l-.09-.11-.07-.09v0l-.09-.1,0,0-.07-.07,0,0-.06-.06,0,0-.05,0,0,0-.05-.05,0,0-.05-.05-.05,0,0,0,0,0-.07-.05,0,0-.1-.07h0l-.1-.06-.09,0,0,0-.07,0,0,0-.1,0-.09,0h0l-.07,0h0l-.05,0h-.68l-.05,0-.05,0h0l-.08,0,1.55-.9a.2.2,0,0,1,.08,0h0a1.38,1.38,0,0,1,.94,0,2.93,2.93,0,0,1,.83.46l0,0,0,0a4.55,4.55,0,0,1,1.63,3.08,2,2,0,0,1-.23,1.21h0v0l0,.05,0,0,0,0,0,0,0,0h0l0,0,0,0,0,0h0l-.07,0-1.54.9.06,0,0,0Z"/>
                  <path class="cls-25" d="M153.61,188.92a4.6,4.6,0,0,1,2.09,3.61c0,1.33-.95,1.87-2.1,1.2a4.61,4.61,0,0,1-2.09-3.61C151.52,188.79,152.46,188.25,153.61,188.92Z"/>
                </g>
                <g>
                  <path class="cls-26" d="M153.54,189.85a3,3,0,0,1,1.36,2.22c0,.05,0,.1,0,.15,0,.87-.62,1.22-1.38.78a3,3,0,0,1-1.37-2.36s0-.1,0-.15C152.24,189.73,152.83,189.44,153.54,189.85Z"/>
                  <path class="cls-27" d="M153.54,190.28a2.22,2.22,0,0,1,1,1.61V192c0,.64-.45.89-1,.57a2.2,2.2,0,0,1-1-1.72v-.1C152.59,190.19,153,190,153.54,190.28Z"/>
                  <path class="cls-28" d="M152.54,190.75c0-.46.34-.69.74-.58-.31,0-.53.21-.56.6a.41.41,0,0,0,0,.11,2.21,2.21,0,0,0,1,1.72,1,1,0,0,0,.26.11.9.9,0,0,1-.44-.14,2.2,2.2,0,0,1-1-1.72Z"/>
                  <g>
                    <path class="cls-29" d="M153.16,191.55a.08.08,0,0,0-.08,0s0,.11,0,.18a.24.24,0,0,0,.08.09s.06,0,.08,0,0-.1,0-.18A.2.2,0,0,0,153.16,191.55Z"/>
                    <path class="cls-29" d="M153.6,191.13c-.14-.08-.25,0-.26.15a.57.57,0,0,0,.26.44c.14.08.25,0,.25-.15A.58.58,0,0,0,153.6,191.13Z"/>
                    <path class="cls-29" d="M153.6,192c-.06,0-.11,0-.12.06a.25.25,0,0,0,.12.2c.06,0,.11,0,.11-.07A.24.24,0,0,0,153.6,192Z"/>
                    <path class="cls-29" d="M154,192.05s-.06,0-.08,0-.05.1,0,.18a.29.29,0,0,0,.07.08.08.08,0,0,0,.08,0s0-.11,0-.18A.35.35,0,0,0,154,192.05Z"/>
                    <path class="cls-29" d="M153.16,190.54a.08.08,0,0,0-.08,0s0,.1,0,.18l.08.08a.08.08,0,0,0,.08,0s0-.11,0-.18A.24.24,0,0,0,153.16,190.54Z"/>
                    <path class="cls-29" d="M153.6,190.85c.06,0,.11,0,.11-.07a.24.24,0,0,0-.11-.19c-.06,0-.11,0-.11.06A.27.27,0,0,0,153.6,190.85Z"/>
                    <path class="cls-29" d="M154,191.31s.05,0,.08,0,0-.1,0-.18a.2.2,0,0,0-.08-.08.08.08,0,0,0-.08,0c-.05,0-.05.11,0,.18A.24.24,0,0,0,154,191.31Z"/>
                    <path class="cls-29" d="M153.09,191.13a.25.25,0,0,0-.11-.19c-.06,0-.11,0-.11.07a.25.25,0,0,0,.11.19C153,191.23,153.09,191.21,153.09,191.13Z"/>
                    <path class="cls-29" d="M154.22,191.66c-.06,0-.11,0-.11.06a.24.24,0,0,0,.11.19c.06,0,.11,0,.11-.06A.24.24,0,0,0,154.22,191.66Z"/>
                  </g>
                </g>
              </g>
              <polygon class="cls-35" points="157.05 192.54 164.65 188.24 164.66 183.65 157.06 187.95 157.05 192.54"/>
              <polygon class="cls-36" points="157.06 187.95 164.66 183.65 163.63 179.19 156.03 183.48 157.06 187.95"/>
              <polygon class="cls-10" points="156.03 183.48 163.63 179.19 158.53 176.25 150.94 180.54 156.03 183.48"/>
              <path class="cls-10" d="M156,183.48l1,4.47,7.6-4.3-1-4.46Zm.34.15,7.06-4,.89,3.86-7,4Z"/>
              <g class="cls-1">
                <polygon class="cls-37" points="163.31 185.28 163.31 188.23 158.41 191.06 158.41 188.11 163.31 185.28"/>
              </g>
              <g>
                <polygon class="cls-28" points="157.42 191.72 157.42 192.75 164.98 188.41 164.98 187.37 157.42 191.72"/>
                <polygon class="cls-26" points="157.42 191.72 157.42 192.75 157.05 192.54 157.05 191.51 157.42 191.72"/>
                <polygon class="cls-38" points="164.98 187.37 157.42 191.72 157.05 191.51 164.61 187.16 164.98 187.37"/>
              </g>
              <polygon class="cls-39" points="157.06 190.45 158.28 189.75 158.28 190.48 157.06 191.18 157.06 190.45"/>
              <polygon class="cls-39" points="163.45 186.77 164.66 186.07 164.66 186.8 163.45 187.49 163.45 186.77"/>
              <path class="cls-40" d="M150.94,180.54l5.09,2.94,1,4.47v4.59l-1.09-.63a5.29,5.29,0,0,0-2.27-3.29c-1.08-.63-2-.32-2.28.65l-.49-.28v-3Z"/>
              <path class="cls-36" d="M153,182.08c-.06,0-.1,0-.1.06v2.66a.21.21,0,0,0,.1.17l3.38,1.95c.07,0,.11,0,.09-.09l-.6-3a.19.19,0,0,0-.09-.12Z"/>
              <polygon class="cls-41" points="157.61 191.98 157.61 192.45 158.53 191.92 158.53 191.45 157.61 191.98"/>
              <polygon class="cls-41" points="163.91 188.37 163.91 188.84 164.83 188.31 164.83 187.84 163.91 188.37"/>
              <polygon class="cls-26" points="140.19 180.97 140.19 182.69 143.39 184.5 143.39 182.82 140.19 180.97"/>
              <polygon class="cls-42" points="143.39 184.5 143.99 184.17 143.99 183.17 143.39 182.82 143.39 184.5"/>
              <polygon class="cls-43" points="156.37 183.63 164.32 183.5 163.43 179.64 156.37 183.63"/>
            </g>
            <g>
              <polygon class="cls-10" points="141.22 178.46 140.32 177.94 140.32 171.98 141.22 172.5 141.22 178.46"/>
              <polygon class="cls-10" points="137.27 175.17 138.35 175.79 138.35 170.84 139.24 171.36 139.24 176.31 139.24 177.32 138.35 176.8 138.35 176.8 136.37 175.66 136.37 174.65 136.37 169.7 137.27 170.21 137.27 175.17"/>
              <polygon class="cls-10" points="135.29 169.07 135.29 175.03 134.39 174.51 134.39 168.56 135.29 169.07"/>
            </g>
          </g>
          <g>
            <polygon class="cls-19" points="188.64 98.17 197.61 92.9 197.61 94.44 188.64 99.66 188.64 98.17"/>
            <polygon class="cls-11" points="141.66 71.02 188.65 98.17 188.64 99.66 141.66 72.56 141.66 71.02"/>
            <polygon class="cls-12" points="150.71 65.79 141.7 71.03 188.65 98.17 197.61 92.9 150.71 65.79"/>
            <polygon class="cls-20" points="141.7 71.03 141.7 72.58 188.64 99.66 188.65 98.17 141.7 71.03"/>
          </g>
          <polygon class="cls-6" points="241.21 149.76 132.85 212.41 153.62 224.41 261.99 161.76 241.21 149.76"/>
          <polygon class="cls-44" points="132.85 212.41 153.62 224.41 153.62 227.82 132.85 215.83 132.85 212.41"/>
          <g>
            <polygon class="cls-19" points="118.41 171.42 118.41 182.67 127.19 177.6 127.19 166.35 118.41 171.42"/>
            <polygon class="cls-20" points="118.41 171.42 118.41 182.67 91.57 167.17 91.57 155.92 118.41 171.42"/>
            <polygon class="cls-21" points="115.63 172.02 115.63 175.52 107.27 170.7 107.27 167.19 115.63 172.02"/>
            <polygon class="cls-21" points="115.63 176.96 115.63 179.36 109.91 176.06 109.91 173.66 115.63 176.96"/>
            <polygon class="cls-12" points="127.19 166.35 118.41 171.42 91.57 155.92 100.35 150.85 127.19 166.35"/>
          </g>
          <g>
            <polygon class="cls-19" points="104.24 179.68 104.24 190.93 113.02 185.86 113.02 174.61 104.24 179.68"/>
            <polygon class="cls-20" points="104.24 179.68 104.24 190.93 77.4 175.43 77.4 164.18 104.24 179.68"/>
            <polygon class="cls-21" points="101.45 180.28 101.45 183.78 93.1 178.96 93.1 175.46 101.45 180.28"/>
            <polygon class="cls-21" points="101.45 185.22 101.45 187.62 95.73 184.31 95.73 181.92 101.45 185.22"/>
            <polygon class="cls-12" points="113.02 174.61 104.24 179.68 77.4 164.18 86.17 159.12 113.02 174.61"/>
          </g>
          <g>
            <polygon class="cls-22" points="214.17 155.96 224.38 149.94 200.07 135.82 189.86 141.84 214.17 155.96"/>
            <g>
              <g>
                <polygon class="cls-23" points="191.5 139.16 195.21 139.67 193.42 137.22 191.22 137.7 191.5 139.16"/>
                <g>
                  <g>
                    <path class="cls-24" d="M195.44,143.44h0s0,0,0-.05h0l.05-.06h0l0-.05,0,0,0-.05h0l.05-.07a.2.2,0,0,1,0-.08h0l0-.07v-.06a.14.14,0,0,0,0-.07l0,0a.43.43,0,0,1,0-.05.11.11,0,0,0,0,0v-.15a.17.17,0,0,1,0-.07v0a.25.25,0,0,1,0-.08v-.29s0-.05,0-.08v0s0-.05,0-.08v0s0-.08,0-.12h0s0-.07,0-.11v0a.31.31,0,0,0,0-.08v0a.24.24,0,0,0,0-.08v0a.29.29,0,0,0,0-.09v0s0-.07,0-.11h0s0-.08,0-.11v0l0-.08v0l0-.09v0a.37.37,0,0,1,0-.11l0,0,0-.09,0-.06,0-.06-.09-.16,0-.05,0-.06,0-.06,0-.06,0,0a1,1,0,0,0-.11-.17h0l-.09-.12-.07-.08v0l-.09-.1,0,0-.06-.07,0,0,0,0,0,0-.06,0,0,0a.12.12,0,0,0,0-.05l0,0-.06,0a.08.08,0,0,0,0,0l-.06,0,0,0-.07-.05,0,0-.1-.07h0l-.11-.06-.09,0,0,0-.07,0,0,0-.09,0-.1,0h0l-.06,0h-.67l-.06,0h-.08l-.05,0h0l-.07.05,2-1.15.08,0h0a1.27,1.27,0,0,1,.92,0,2.63,2.63,0,0,1,.82.45l0,0,0,0a4.56,4.56,0,0,1,1.61,3,2,2,0,0,1-.24,1.19h0l0,0,0,0,0,0,0,0a.12.12,0,0,1-.05,0h0l0,0,0,0,0,0h0l-.06,0-2,1.14.06,0h0Z"/>
                    <path class="cls-25" d="M193.86,138.64a4.54,4.54,0,0,1,2.06,3.56c0,1.31-.93,1.84-2.07,1.18a4.54,4.54,0,0,1-2.06-3.56C191.8,138.51,192.73,138,193.86,138.64Z"/>
                  </g>
                  <g>
                    <path class="cls-26" d="M193.79,139.56a3,3,0,0,1,1.35,2.18v.15c0,.86-.61,1.2-1.35.77a3,3,0,0,1-1.35-2.33.61.61,0,0,1,0-.14C192.51,139.44,193.09,139.15,193.79,139.56Z"/>
                    <path class="cls-27" d="M193.79,140a2.22,2.22,0,0,1,1,1.59v.11c0,.62-.44.87-1,.56a2.14,2.14,0,0,1-1-1.7v-.1C192.86,139.89,193.28,139.69,193.79,140Z"/>
                    <path class="cls-28" d="M192.81,140.44a.56.56,0,0,1,.73-.57c-.3,0-.52.21-.56.6v.1a2.19,2.19,0,0,0,1,1.7,1,1,0,0,0,.25.1.82.82,0,0,1-.42-.13,2.14,2.14,0,0,1-1-1.7Z"/>
                    <g>
                      <path class="cls-29" d="M193.42,141.23a.08.08,0,0,0-.08,0s0,.11,0,.18a.15.15,0,0,0,.08.08.08.08,0,0,0,.08,0s0-.1,0-.18Z"/>
                      <path class="cls-29" d="M193.85,140.82c-.14-.08-.25,0-.25.15a.54.54,0,0,0,.25.43c.14.08.25,0,.25-.14A.56.56,0,0,0,193.85,140.82Z"/>
                      <path class="cls-29" d="M193.85,141.68c-.06,0-.11,0-.11.07a.25.25,0,0,0,.11.19c.06,0,.11,0,.11-.06A.27.27,0,0,0,193.85,141.68Z"/>
                      <path class="cls-29" d="M194.28,141.73a.08.08,0,0,0-.08,0s0,.11,0,.18a.15.15,0,0,0,.08.08.08.08,0,0,0,.08,0s0-.11,0-.18A.15.15,0,0,0,194.28,141.73Z"/>
                      <path class="cls-29" d="M193.42,140.24a.08.08,0,0,0-.08,0s0,.11,0,.18,0,.07.08.08a.08.08,0,0,0,.08,0s0-.1,0-.18A.3.3,0,0,0,193.42,140.24Z"/>
                      <path class="cls-29" d="M193.85,140.54c.06,0,.11,0,.11-.07a.23.23,0,0,0-.11-.19c-.06,0-.11,0-.11.07A.25.25,0,0,0,193.85,140.54Z"/>
                      <path class="cls-29" d="M194.28,141a.08.08,0,0,0,.08,0s0-.11,0-.18a.15.15,0,0,0-.08-.08.06.06,0,0,0-.07,0c-.05,0-.05.11,0,.18A.19.19,0,0,0,194.28,141Z"/>
                      <path class="cls-29" d="M193.35,140.82a.25.25,0,0,0-.11-.19c-.06,0-.11,0-.11.07a.25.25,0,0,0,.11.19C193.3,140.92,193.35,140.89,193.35,140.82Z"/>
                      <path class="cls-29" d="M194.46,141.34c-.06,0-.11,0-.11.06a.25.25,0,0,0,.11.19c.06,0,.11,0,.11-.06A.24.24,0,0,0,194.46,141.34Z"/>
                    </g>
                  </g>
                </g>
                <polygon class="cls-34" points="195.92 139.67 196.67 142.54 197.74 143.17 197.74 140.72 195.92 139.67"/>
                <polygon class="cls-23" points="197.74 143.17 199.62 141.81 197.74 140.72 197.74 143.17"/>
                <g>
                  <g>
                    <path class="cls-24" d="M208.22,150.84v0l.05,0h0l.05-.05v0s0,0,0,0l0,0,0,0h0l0-.08a.2.2,0,0,0,0-.08h0l0-.06v0l0,0s0,0,0-.07v0l0-.06v-.41a.41.41,0,0,0,0-.11v-.27a.25.25,0,0,1,0-.08v0s0-.07,0-.11v0s0-.07,0-.1v0s0-.05,0-.08v-.05l0-.07v-.05a.24.24,0,0,1,0-.08l0,0,0-.12h0l0-.11,0,0,0-.08,0,0,0-.09,0,0a.37.37,0,0,0-.05-.11v0l0-.09,0-.06,0-.06-.09-.16,0-.05,0-.07,0-.05,0-.07,0,0-.12-.16h0a.44.44,0,0,1-.08-.11l-.07-.08,0,0-.08-.1,0,0-.06-.07,0,0-.06-.06,0,0,0-.05,0,0,0,0-.05,0,0,0,0,0-.06-.05,0,0-.06,0,0,0-.09-.06h0l-.1-.06-.09,0,0,0-.07,0,0,0-.1,0-.09,0h0l-.06,0h0l-.06,0h-.48l-.08,0h-.1l0,0-.05,0h0l-.08,0,2-1.14.08,0h0a1.35,1.35,0,0,1,.93,0,2.83,2.83,0,0,1,.81.46l0,0,0,0a4.5,4.5,0,0,1,1.6,3,2,2,0,0,1-.23,1.19h0v0l0,.05v0l0,0v0a.12.12,0,0,0-.05,0h0l-.05,0h0l0,0,0,0-.06,0-2,1.14.06,0h0Z"/>
                    <path class="cls-25" d="M206.64,146a4.53,4.53,0,0,1,2.06,3.56c0,1.31-.93,1.83-2.07,1.18a4.56,4.56,0,0,1-2.06-3.57C204.57,145.91,205.5,145.38,206.64,146Z"/>
                  </g>
                  <g>
                    <path class="cls-26" d="M206.57,147a3,3,0,0,1,1.34,2.18.76.76,0,0,1,0,.15c0,.86-.61,1.2-1.36.77a3,3,0,0,1-1.35-2.33s0-.1,0-.14C205.29,146.83,205.87,146.55,206.57,147Z"/>
                    <path class="cls-27" d="M206.57,147.38a2.16,2.16,0,0,1,1,1.59.37.37,0,0,1,0,.11c0,.62-.44.87-1,.56a2.19,2.19,0,0,1-1-1.7.31.31,0,0,1,0-.1C205.64,147.29,206.06,147.08,206.57,147.38Z"/>
                    <path class="cls-28" d="M205.59,147.84c0-.46.33-.68.73-.57-.31,0-.53.21-.56.59V148a2.12,2.12,0,0,0,1,1.69,1.12,1.12,0,0,0,.26.11,1,1,0,0,1-.43-.13,2.19,2.19,0,0,1-1-1.7A.31.31,0,0,1,205.59,147.84Z"/>
                    <g>
                      <path class="cls-29" d="M206.2,148.63a.08.08,0,0,0-.08,0s-.05.1,0,.18a.2.2,0,0,0,.08.08.06.06,0,0,0,.07,0s0-.11,0-.18A.19.19,0,0,0,206.2,148.63Z"/>
                      <path class="cls-29" d="M206.63,148.22c-.14-.08-.25,0-.25.14a.56.56,0,0,0,.25.44c.14.08.25,0,.25-.15A.54.54,0,0,0,206.63,148.22Z"/>
                      <path class="cls-29" d="M206.63,149.08c-.06,0-.11,0-.11.06a.24.24,0,0,0,.11.19c.06,0,.11,0,.11-.06A.25.25,0,0,0,206.63,149.08Z"/>
                      <path class="cls-29" d="M207.06,149.12s-.06,0-.08,0,0,.1,0,.18a.3.3,0,0,0,.08.08.08.08,0,0,0,.08,0s0-.11,0-.18A.36.36,0,0,0,207.06,149.12Z"/>
                      <path class="cls-29" d="M206.2,147.64a.08.08,0,0,0-.08,0s0,.1,0,.18a.2.2,0,0,0,.08.08.08.08,0,0,0,.08,0s0-.11,0-.18A.15.15,0,0,0,206.2,147.64Z"/>
                      <path class="cls-29" d="M206.63,147.93c.06,0,.11,0,.11-.06a.25.25,0,0,0-.11-.19c-.06,0-.11,0-.11.06A.24.24,0,0,0,206.63,147.93Z"/>
                      <path class="cls-29" d="M207.06,148.39a.12.12,0,0,0,.08,0s0-.11,0-.18a.24.24,0,0,0-.08-.09s-.06,0-.08,0,0,.1,0,.18A.3.3,0,0,0,207.06,148.39Z"/>
                      <path class="cls-29" d="M206.13,148.22A.24.24,0,0,0,206,148c-.06,0-.11,0-.11.06a.24.24,0,0,0,.11.19C206.08,148.32,206.13,148.29,206.13,148.22Z"/>
                      <path class="cls-29" d="M207.24,148.73c-.06,0-.11,0-.11.07a.25.25,0,0,0,.11.19c.06,0,.11,0,.11-.07A.25.25,0,0,0,207.24,148.73Z"/>
                    </g>
                  </g>
                </g>
                <g>
                  <g>
                    <path class="cls-24" d="M212.68,153.39l0,0,0,0h0l.05-.06h0l0,0,0,0,0-.05h0l.05-.07,0-.08v0l0-.06v-.06a.14.14,0,0,0,0-.07v0s0,0,0-.06v0a.43.43,0,0,1,0,0s0,0,0-.06V152a.19.19,0,0,1,0-.08v0a.22.22,0,0,1,0-.08v0s0-.08,0-.12v0a.3.3,0,0,1,0-.1v0l0-.08v0a.24.24,0,0,0,0-.08v0s0-.05,0-.08v0a.76.76,0,0,1,0-.11h0a.76.76,0,0,1,0-.11l0,0,0-.08v0l0-.09v0l-.06-.11v0l0-.09,0-.06,0-.06-.09-.16,0,0,0-.07,0,0,0-.06,0,0-.12-.17h0l-.08-.12-.07-.08,0,0-.08-.1,0,0-.06-.06,0,0-.06-.06,0,0-.06-.05,0,0-.05-.05,0,0-.06,0,0,0-.06,0,0,0-.06,0,0,0-.1-.07h0l-.1-.06-.09-.05,0,0-.07,0,0,0-.09,0-.1,0h0l-.06,0h0l-.05,0h-.59l0,0h-.08l0,0h0l-.08,0,2-1.14.08,0h0a1.27,1.27,0,0,1,.92,0,2.75,2.75,0,0,1,.82.45l0,0,0,0a4.52,4.52,0,0,1,1.6,3,2,2,0,0,1-.23,1.19h0v0l0,.05v0s0,0,0,0v0l-.05.05h0l-.05,0v0l-.05,0h0l-.07,0-2,1.14.06,0h0Z"/>
                    <path class="cls-25" d="M211.1,148.59a4.54,4.54,0,0,1,2.06,3.56c0,1.31-.93,1.84-2.07,1.18a4.54,4.54,0,0,1-2.06-3.56C209,148.46,210,147.93,211.1,148.59Z"/>
                  </g>
                  <g>
                    <path class="cls-26" d="M211,149.51a3,3,0,0,1,1.34,2.18.76.76,0,0,1,0,.15c0,.86-.61,1.2-1.36.77a3,3,0,0,1-1.34-2.33v-.14C209.75,149.39,210.33,149.1,211,149.51Z"/>
                    <path class="cls-27" d="M211,149.93a2.22,2.22,0,0,1,1,1.59v.11c0,.62-.44.87-1,.56a2.16,2.16,0,0,1-1-1.7.34.34,0,0,0,0-.1C210.1,149.84,210.52,149.64,211,149.93Z"/>
                    <path class="cls-28" d="M210.05,150.39a.56.56,0,0,1,.73-.57c-.31,0-.52.21-.56.59v.11a2.13,2.13,0,0,0,1,1.69.68.68,0,0,0,.25.11.88.88,0,0,1-.43-.13,2.16,2.16,0,0,1-1-1.7A.34.34,0,0,0,210.05,150.39Z"/>
                    <g>
                      <path class="cls-29" d="M210.66,151.18a.08.08,0,0,0-.08,0s0,.11,0,.18a.15.15,0,0,0,.08.08.08.08,0,0,0,.08,0s0-.1,0-.18A.3.3,0,0,0,210.66,151.18Z"/>
                      <path class="cls-29" d="M211.09,150.77c-.14-.08-.25,0-.25.15a.56.56,0,0,0,.25.43c.14.08.25,0,.25-.14A.56.56,0,0,0,211.09,150.77Z"/>
                      <path class="cls-29" d="M211.09,151.63c-.06,0-.11,0-.11.07a.25.25,0,0,0,.11.19c.06,0,.11,0,.11-.07A.25.25,0,0,0,211.09,151.63Z"/>
                      <path class="cls-29" d="M211.52,151.68a.08.08,0,0,0-.08,0s0,.1,0,.18a.2.2,0,0,0,.08.08.08.08,0,0,0,.08,0s0-.11,0-.18A.15.15,0,0,0,211.52,151.68Z"/>
                      <path class="cls-29" d="M210.66,150.19a.08.08,0,0,0-.08,0s0,.11,0,.18a.15.15,0,0,0,.08.08.08.08,0,0,0,.08,0s0-.1,0-.18A.2.2,0,0,0,210.66,150.19Z"/>
                      <path class="cls-29" d="M211.09,150.49c.06,0,.11,0,.11-.07a.25.25,0,0,0-.11-.19c-.06,0-.11,0-.11.07A.25.25,0,0,0,211.09,150.49Z"/>
                      <path class="cls-29" d="M211.52,150.94a.08.08,0,0,0,.08,0s0-.11,0-.18a.15.15,0,0,0-.08-.08.08.08,0,0,0-.08,0s0,.1,0,.18Z"/>
                      <path class="cls-29" d="M210.59,150.77a.25.25,0,0,0-.11-.19c-.06,0-.11,0-.11.06a.27.27,0,0,0,.11.2C210.54,150.87,210.59,150.84,210.59,150.77Z"/>
                      <path class="cls-29" d="M211.7,151.29c-.06,0-.11,0-.11.06a.25.25,0,0,0,.11.19c.06,0,.11,0,.11-.06A.24.24,0,0,0,211.7,151.29Z"/>
                    </g>
                  </g>
                </g>
                <polygon class="cls-23" points="217.33 150.94 217.33 152.56 222.87 149.36 222.87 147.74 217.33 150.94"/>
                <polygon class="cls-45" points="196.95 133.96 204.42 129.73 204.4 135.07 196.93 139.29 196.95 133.96"/>
                <polygon class="cls-7" points="191.93 131.06 199.4 126.83 204.42 129.73 196.95 133.96 191.93 131.06"/>
                <polygon class="cls-46" points="222.15 148.58 218.33 150.74 218.33 152.58 216.5 153.61 216.5 150.62 223.97 146.39 223.97 149.39 222.14 150.42 222.15 148.58"/>
                <g>
                  <polygon class="cls-30" points="196.93 139.29 204.4 135.07 223.97 146.39 216.5 150.62 196.93 139.29"/>
                  <g class="cls-47">
                    <polygon class="cls-48" points="197.36 139.05 204.25 135.15 223.31 146.22 216.42 150.12 197.36 139.05"/>
                  </g>
                </g>
                <g>
                  <path class="cls-8" d="M223.53,139.32a2.53,2.53,0,0,0-2.19.21h0l-.08.05h0l-.08,0L203.4,129.3l.08-.05h0l.07,0h0a2.57,2.57,0,0,1,2.09-.25h0l0,0h0l0,0h0l.06,0,17.76,10.33Z"/>
                  <polygon class="cls-8" points="221.16 139.63 203.4 129.3 201.25 130.54 219.01 140.88 221.16 139.63"/>
                  <path class="cls-8" d="M197.74,136.53a5.85,5.85,0,0,1,.19-1.33V135a.14.14,0,0,0,0-.06v-.06l0-.06v0a.42.42,0,0,0,0-.1,7.85,7.85,0,0,1,2.79-3.89l0,0h0l0,0,0,0,.08-.06h0l.08-.05h0l0,0,0,0L219,140.88l-.07,0h0l-.08,0h0l-.09,0,0,0-.06,0,0,0,0,0,0,0-.06,0,0,0-.05,0,0,0-.06,0,0,0a.27.27,0,0,0-.08.07h0l-.07.06,0,0,0,.05,0,0-.05,0,0,0-.05,0,0,0,0,.05,0,0,0,0,0,0,0,0,0,0,0,.05,0,0-.05,0,0,0-.07.08h0l-.07.09,0,0,0,.06,0,0,0,.05,0,.07,0,0a.35.35,0,0,0-.05.08l0,0-.1.14,0,0-.1.14,0,0,0,.06,0,0,0,.05,0,0,0,.05,0,.05,0,.06,0,0a.75.75,0,0,0-.07.12v0s-.05.09-.08.14l0,0,0,.06,0,0,0,.05,0,.06,0,0,0,.07,0,0v0l-.06.13,0,0-.06.15,0,.07v0a.42.42,0,0,1,0,.1v0l0,.08v0l0,.07,0,0,0,.07v0l0,.1v0l0,.08v0l0,.06v0l0,.07v.14l0,.1h0s0,.06,0,.09v.35s0,.06,0,.1v.45a.17.17,0,0,0,0,.07v.54a2.64,2.64,0,0,0,.73,1.73h0l0,0h0l0,0h0l0,0h0l0,0v0l.06,0-17.76-10.33-.06,0h0l0,0h0l0,0h0a2.48,2.48,0,0,1-.82-1.67A5.25,5.25,0,0,1,197.74,136.53Z"/>
                  <path class="cls-7" d="M219,140.88A7.72,7.72,0,0,0,215.5,147c0,2.23,1.59,3.14,3.53,2l2.16-1.25a7.76,7.76,0,0,0,3.5-6.08c0-2.22-1.59-3.13-3.53-2Z"/>
                </g>
                <g>
                  <path class="cls-31" d="M204.31,143.84h-.55l-4.06-2.37h.57l4.07,2.36h0Z"/>
                  <polygon class="cls-32" points="203.76 143.91 199.7 141.54 199.21 141.83 203.27 144.19 203.76 143.91"/>
                  <path class="cls-28" d="M198.41,143.2h0v0h0v0h0v0h0v0h0v0h0v0h0v0h0v0h0v0h0v0h0v0h0v0h0v0h0v0h0v0h0l0,0h0v0h0v0h0v0h0l0,0h0l0,0h0v0h0l0,0h0l0,0h0v0h.05v0h0l0,0h0v0H199l0,0h.1l0,0h0l4.06,2.36h0l0,0h-.12l0,0h-.17v0h0l0,0h0v0h0v0h0l0,0h0l0,0h0v0h0l0,0h0l0,0h0v0h0v0h0v0h0l0,0v0h0v0h0v0h0v0h0v0h0v0h0v0h0v0h0v0h0v0h0v0h0v0h0v0h0v0h0v0h0v0h0v0h0v0h0v0h0v0h0v0h0v0h0v0h0v0h.17l-4.06-2.37h-.15v0h0v0h0v0h0v0h0v0h0v0h0Z"/>
                  <path class="cls-33" d="M203.27,144.19a1.79,1.79,0,0,0-.8,1.39c0,.51.36.72.81.46l.49-.28a1.8,1.8,0,0,0,.8-1.39c0-.51-.36-.72-.81-.46Z"/>
                </g>
                <path class="cls-49" d="M217,152.27a.71.71,0,0,0-.32.53v0c0,.21.14.29.32.19a.74.74,0,0,0,.33-.56v0C217.33,152.24,217.19,152.17,217,152.27Z"/>
                <path class="cls-49" d="M217.81,151.82a.74.74,0,0,0-.32.53v0c0,.21.15.29.33.19a.72.72,0,0,0,.32-.56v0C218.12,151.79,218,151.73,217.81,151.82Z"/>
                <path class="cls-49" d="M222.7,149.11a.75.75,0,0,0-.33.53v0c0,.21.15.29.33.19a.73.73,0,0,0,.32-.56v0C223,149.08,222.87,149,222.7,149.11Z"/>
                <path class="cls-49" d="M223.49,148.66a.71.71,0,0,0-.32.53v0c0,.21.14.29.32.19a.69.69,0,0,0,.32-.56v0C223.8,148.63,223.66,148.56,223.49,148.66Z"/>
                <path class="cls-11" d="M190.89,134.27l1-3.21,5,2.9,0,5.34v1L194.82,139a3.83,3.83,0,0,0-.95-.78c-1.18-.68-2.16-.27-2.37.9l-.63-.36Z"/>
                <polygon class="cls-34" points="216.5 150.62 216.5 153.61 215.33 152.94 215.33 150.9 196.93 140.26 196.93 139.29 216.5 150.62"/>
                <path class="cls-10" d="M198.71,138.84h0l0,0h0l0,0h0l-.05,0h0l0,0h0l0,0h0l0,0h0l0,0,0,0,0,0v0l0-.05h0l0,0v0l0,0h0v0l0,0,0,0,0,0,0-.06v0l0-.05h0a.36.36,0,0,1,0-.09v0l0-.07v0h0l0,0v0s0,0,0-.06v0h0a.24.24,0,0,0,0-.08h0s0-.06,0-.09h0a.09.09,0,0,1,0-.05v0s0,0,0-.08h0s0-.06,0-.09v-.08h0v-.21s0,0,0-.06v0h0v-.17h0v-.32h0V136h0v-.09s0-.06,0-.09h0v-.34h0l0-.08h0a.29.29,0,0,0,0-.09h0V135l0-.06v-.06l0-.06v0l0-.08L215.85,145h0v0l0,.1v0l0,.08,0,0,0,.06v.15l0,.07v0l0,.1h0s0,.06,0,.09V146a.2.2,0,0,1,0,.07v0l0,.1v0s0,.05,0,.08v1.15a.13.13,0,0,0,0,.06v0a.28.28,0,0,1,0,.09v0s0,0,0,.07v0s0,0,0,.06,0,.05,0,.08h0a.24.24,0,0,1,0,.08v0a.19.19,0,0,1,0,.07v0l0,.05v0l0,.07v0a.59.59,0,0,1,0,.08l0,.06h0l0,.06v0l0,.05,0,0,0,0v0l0,0v0l0,.05h0l0,.05h0l0,0h0l0,0h0l0,0v0l0,0h0l0,0h0l0,0h0l0,0h0l0,0,0,0,.05,0h0l-17.76-10.33Z"/>
                <path class="cls-36" d="M192.1,131.85s-.07,0-.08,0l-.54,2a.23.23,0,0,0,.08.18l2.93,1.68s.08,0,.08,0v-2.31a.18.18,0,0,0-.08-.14Z"/>
              </g>
              <g>
                <path class="cls-50" d="M193.6,130.4c.25,0,.45.12.45.21v.68c0,.08-.2.15-.45.15s-.45-.07-.45-.15v-.68C193.15,130.52,193.35,130.4,193.6,130.4Z"/>
                <path class="cls-48" d="M193.6,131.26c.25,0,.45-.07.45-.16v.19c0,.08-.2.15-.45.15s-.45-.07-.45-.15v-.19C193.15,131.19,193.35,131.26,193.6,131.26Z"/>
                <path class="cls-51" d="M194.05,130.6c0,.08-.21.15-.45.15s-.43-.07-.45-.15.21-.2.45-.2S194,130.51,194.05,130.6Z"/>
              </g>
              <g>
                <path class="cls-50" d="M199.58,126.86c.25,0,.45.13.45.21v.68c0,.09-.2.16-.45.16s-.44-.07-.44-.16v-.68C199.14,127,199.34,126.86,199.58,126.86Z"/>
                <path class="cls-48" d="M199.58,127.73c.25,0,.45-.07.45-.16v.18c0,.09-.2.16-.45.16s-.44-.07-.44-.16v-.18C199.14,127.66,199.34,127.73,199.58,127.73Z"/>
                <path class="cls-51" d="M200,127.07c0,.08-.21.15-.45.15s-.43-.07-.44-.15.2-.21.44-.21S200,127,200,127.07Z"/>
              </g>
            </g>
          </g>
          <g>
            <polygon class="cls-19" points="127.59 125.92 141.78 134.19 130.8 135.54 116.57 127.26 127.59 125.92"/>
            <polygon class="cls-11" points="116.57 127.26 116.57 132.3 130.8 140.58 130.8 135.54 116.57 127.26"/>
            <polygon class="cls-15" points="130.8 135.54 130.8 140.58 141.78 134.19 130.8 135.54"/>
          </g>
          <g>
            <polygon class="cls-19" points="147.36 114.38 161.56 122.64 150.57 123.99 136.34 115.71 147.36 114.38"/>
            <polygon class="cls-11" points="136.34 115.71 136.34 120.75 150.57 129.03 150.57 123.99 136.34 115.71"/>
            <polygon class="cls-15" points="150.57 123.99 150.57 129.03 161.56 122.64 150.57 123.99"/>
          </g>
          <g>
            <polygon class="cls-19" points="167.14 102.83 181.34 111.09 170.35 112.45 156.12 104.17 167.14 102.83"/>
            <polygon class="cls-11" points="156.12 104.17 156.12 109.21 170.35 117.49 170.35 112.45 156.12 104.17"/>
            <polygon class="cls-15" points="170.35 112.45 170.35 117.49 181.34 111.09 170.35 112.45"/>
          </g>
          <polygon class="cls-18" points="203.31 120.9 203.31 115.96 185.41 126.29 185.41 131.31 203.31 120.9"/>
          <polygon class="cls-52" points="194.33 92.18 192.86 91.33 186.08 95.27 187.55 96.12 194.33 92.18"/>
          <polygon class="cls-52" points="191.39 90.48 189.93 89.63 183.15 93.58 184.61 94.43 191.39 90.48"/>
          <polygon class="cls-52" points="188.46 88.79 186.99 87.94 180.21 91.88 181.68 92.73 188.46 88.79"/>
          <polygon class="cls-52" points="185.52 87.09 184.05 86.25 177.28 90.19 178.74 91.04 185.52 87.09"/>
          <polygon class="cls-52" points="182.59 85.4 181.12 84.55 174.34 88.5 175.81 89.34 182.59 85.4"/>
          <polygon class="cls-52" points="179.65 83.7 178.18 82.86 171.41 86.8 172.87 87.65 179.65 83.7"/>
          <polygon class="cls-52" points="176.72 82.01 175.25 81.16 168.47 85.11 169.94 85.95 176.72 82.01"/>
          <polygon class="cls-52" points="173.78 80.32 172.31 79.47 165.53 83.41 167 84.26 173.78 80.32"/>
          <polygon class="cls-52" points="170.84 78.62 169.38 77.77 162.6 81.72 164.06 82.56 170.84 78.62"/>
          <polygon class="cls-52" points="167.91 76.93 166.44 76.08 159.66 80.02 161.13 80.87 167.91 76.93"/>
          <polygon class="cls-52" points="164.97 75.23 163.51 74.39 156.73 78.33 158.19 79.18 164.97 75.23"/>
          <polygon class="cls-52" points="162.04 73.54 160.57 72.69 153.79 76.63 155.26 77.48 162.04 73.54"/>
          <polygon class="cls-52" points="159.1 71.84 157.63 71 150.86 74.94 152.32 75.79 159.1 71.84"/>
          <polygon class="cls-52" points="156.17 70.15 154.7 69.3 147.92 73.25 149.39 74.09 156.17 70.15"/>
          <polygon class="cls-52" points="153.23 68.45 151.76 67.61 144.99 71.55 146.45 72.4 153.23 68.45"/>
        </g>
        <g>
          <g>
            <rect class="cls-2" x="67.54" y="248.55" width="157.26" height="23.11" rx="11.56"/>
            <path class="cls-3" d="M213.25,272.66H79.1a12.56,12.56,0,1,1,0-25.11H213.25a12.56,12.56,0,0,1,0,25.11ZM79.1,249.55a10.56,10.56,0,1,0,0,21.11H213.25a10.56,10.56,0,0,0,0-21.11Z"/>
          </g>
          <g>
            <path class="cls-53" d="M94.77,263.39h3v1H93.68v-8.57h1.09Z"/>
            <path class="cls-53" d="M100.54,264.5a2.05,2.05,0,0,1-1.31-.41,1.5,1.5,0,0,1-.51-1.23,1.73,1.73,0,0,1,.16-.78,1.36,1.36,0,0,1,.49-.55,3.24,3.24,0,0,1,.7-.34A6.9,6.9,0,0,1,101,261l1-.16c.35-.07.53-.25.53-.55a1.06,1.06,0,0,0-.38-.9,1.56,1.56,0,0,0-.94-.28,1.5,1.5,0,0,0-.94.28,1.12,1.12,0,0,0-.44.84l-1-.21a1.84,1.84,0,0,1,.74-1.28,2.87,2.87,0,0,1,1.64-.43,3.32,3.32,0,0,1,.86.11,2.21,2.21,0,0,1,.73.34,1.52,1.52,0,0,1,.52.64,2.48,2.48,0,0,1,.18,1v2.47a1,1,0,0,0,.14.63.58.58,0,0,0,.47.16h.1v.76h-.53a1,1,0,0,1-1.13-.81h0A2.28,2.28,0,0,1,100.54,264.5Zm.25-.86a1.59,1.59,0,0,0,1.28-.57,2.44,2.44,0,0,0,.49-1.59l-1.59.31a2.17,2.17,0,0,0-.92.33.74.74,0,0,0-.3.65.76.76,0,0,0,.28.66A1.29,1.29,0,0,0,100.79,263.64Z"/>
            <path class="cls-53" d="M108.86,258.28a2.6,2.6,0,0,1,2,.87,3.13,3.13,0,0,1,.81,2.24,3.17,3.17,0,0,1-.8,2.25,2.61,2.61,0,0,1-2,.87,2.4,2.4,0,0,1-1.27-.35,2.17,2.17,0,0,1-.86-.94l0,1.16h-1V255h1v4.51a2.16,2.16,0,0,1,.85-.92A2.38,2.38,0,0,1,108.86,258.28Zm-.23,5.32A1.81,1.81,0,0,0,110,263a2.21,2.21,0,0,0,.57-1.59,2.25,2.25,0,0,0-.57-1.59,1.81,1.81,0,0,0-1.4-.61,1.76,1.76,0,0,0-1.38.63,2.26,2.26,0,0,0-.57,1.57,2.31,2.31,0,0,0,.56,1.58A1.8,1.8,0,0,0,108.63,263.6Z"/>
            <path class="cls-53" d="M115.83,264.5a3.27,3.27,0,0,1-1.54-.37,2.76,2.76,0,0,1-1.08-1.09,3.41,3.41,0,0,1-.39-1.65,3,3,0,0,1,.85-2.26,2.89,2.89,0,0,1,2.16-.85,2.93,2.93,0,0,1,2.17.85,3.08,3.08,0,0,1,.84,2.26,3,3,0,0,1-.85,2.26A2.93,2.93,0,0,1,115.83,264.5Zm0-.88a1.85,1.85,0,0,0,1.42-.61,2.62,2.62,0,0,0,0-3.24,1.85,1.85,0,0,0-1.42-.61,1.81,1.81,0,0,0-1.4.61,2.62,2.62,0,0,0,0,3.24A1.81,1.81,0,0,0,115.82,263.62Z"/>
            <path class="cls-53" d="M121.52,259.45a1.78,1.78,0,0,1,.74-.8,2.19,2.19,0,0,1,1.15-.32v1a2,2,0,0,0-1.39.45,1.88,1.88,0,0,0-.47,1.42v3.19h-1.06v-6h1Z"/>
            <path class="cls-53" d="M126,264.5a2.05,2.05,0,0,1-1.31-.41,1.48,1.48,0,0,1-.52-1.23,1.73,1.73,0,0,1,.17-.78,1.41,1.41,0,0,1,.48-.55,3.32,3.32,0,0,1,.71-.34,6.54,6.54,0,0,1,.91-.21l1-.16c.35-.07.53-.25.53-.55a1.06,1.06,0,0,0-.38-.9,1.57,1.57,0,0,0-1-.28,1.49,1.49,0,0,0-.93.28,1.13,1.13,0,0,0-.45.84l-1-.21a1.85,1.85,0,0,1,.75-1.28,2.86,2.86,0,0,1,1.63-.43,3.34,3.34,0,0,1,.87.11,2.16,2.16,0,0,1,.72.34,1.38,1.38,0,0,1,.52.64,2.32,2.32,0,0,1,.19,1v2.47a1.05,1.05,0,0,0,.13.63.6.6,0,0,0,.48.16h.09v.76h-.52a1,1,0,0,1-1.13-.81h0A2.29,2.29,0,0,1,126,264.5Zm.24-.86a1.63,1.63,0,0,0,1.29-.57,2.43,2.43,0,0,0,.48-1.59l-1.58.31a2.17,2.17,0,0,0-.93.33.87.87,0,0,0,0,1.31A1.23,1.23,0,0,0,126.2,263.64Z"/>
            <path class="cls-53" d="M133,264.38a1.55,1.55,0,0,1-1.17-.43,1.58,1.58,0,0,1-.43-1.19v-3.52h-1.22v-.84h.45a.87.87,0,0,0,.66-.21,1,1,0,0,0,.19-.71V256.4h1v2h1.38v.84h-1.38v3.41a.93.93,0,0,0,.23.66.81.81,0,0,0,.6.23h.55v.84Z"/>
            <path class="cls-53" d="M137.79,264.5a3.23,3.23,0,0,1-1.53-.37,2.76,2.76,0,0,1-1.08-1.09,3.3,3.3,0,0,1-.4-1.65,3,3,0,0,1,.85-2.26,3.18,3.18,0,0,1,4.33,0,3,3,0,0,1,.85,2.26,3.09,3.09,0,0,1-.85,2.26A3,3,0,0,1,137.79,264.5Zm0-.88a1.81,1.81,0,0,0,1.41-.61,2.59,2.59,0,0,0,0-3.24,1.93,1.93,0,0,0-2.82,0,2.66,2.66,0,0,0,0,3.24A1.83,1.83,0,0,0,137.79,263.62Z"/>
            <path class="cls-53" d="M143.49,259.45a1.73,1.73,0,0,1,.74-.8,2.16,2.16,0,0,1,1.15-.32v1a2,2,0,0,0-1.39.45,1.84,1.84,0,0,0-.48,1.42v3.19h-1v-6h1Z"/>
            <path class="cls-53" d="M147.15,257a.72.72,0,0,1-.71-.71.67.67,0,0,1,.21-.5.7.7,0,0,1,1,0,.67.67,0,0,1,.21.5.72.72,0,0,1-.71.71Zm-.53,7.39v-6h1v6Z"/>
            <path class="cls-53" d="M152.34,264.5a3.27,3.27,0,0,1-1.54-.37,2.76,2.76,0,0,1-1.08-1.09,3.41,3.41,0,0,1-.4-1.65,3.09,3.09,0,0,1,.85-2.26,2.93,2.93,0,0,1,2.17-.85,2.89,2.89,0,0,1,2.16.85,3.43,3.43,0,0,1,0,4.52A3,3,0,0,1,152.34,264.5Zm0-.88a1.85,1.85,0,0,0,1.42-.61,2.62,2.62,0,0,0,0-3.24,1.85,1.85,0,0,0-1.42-.61,1.81,1.81,0,0,0-1.4.61,2.62,2.62,0,0,0,0,3.24A1.81,1.81,0,0,0,152.33,263.62Z"/>
            <path class="cls-53" d="M163.4,258.28a2.7,2.7,0,0,1,2,.84,2.9,2.9,0,0,1,.6,1,3.64,3.64,0,0,1,.22,1.29,3.14,3.14,0,0,1-.8,2.26,2.63,2.63,0,0,1-2,.86,2.34,2.34,0,0,1-2.11-1.26v4.15h-1v-9h1l0,1.16a2.18,2.18,0,0,1,.85-.93A2.4,2.4,0,0,1,163.4,258.28Zm-.21,5.32a1.85,1.85,0,0,0,1.39-.61,2.28,2.28,0,0,0,.56-1.6,2.25,2.25,0,0,0-.56-1.59,1.85,1.85,0,0,0-1.39-.61,1.8,1.8,0,0,0-1.4.64,2.25,2.25,0,0,0-.58,1.56,2.28,2.28,0,0,0,.58,1.58A1.82,1.82,0,0,0,163.19,263.6Z"/>
            <path class="cls-53" d="M168.88,259.45a1.75,1.75,0,0,1,.75-.8,2.16,2.16,0,0,1,1.15-.32v1a2,2,0,0,0-1.39.45,1.84,1.84,0,0,0-.48,1.42v3.19h-1v-6h1Z"/>
            <path class="cls-53" d="M174.46,264.5a3.21,3.21,0,0,1-1.53-.37,2.64,2.64,0,0,1-1.08-1.09,3.3,3.3,0,0,1-.4-1.65,3,3,0,0,1,.85-2.26,2.89,2.89,0,0,1,2.16-.85,2.93,2.93,0,0,1,2.17.85,3.08,3.08,0,0,1,.84,2.26,3,3,0,0,1-.85,2.26A2.93,2.93,0,0,1,174.46,264.5Zm0-.88a1.83,1.83,0,0,0,1.41-.61,2.62,2.62,0,0,0,0-3.24,1.93,1.93,0,0,0-2.82,0,2.62,2.62,0,0,0,0,3.24A1.81,1.81,0,0,0,174.46,263.62Z"/>
            <path class="cls-53" d="M183.54,255h1.06v9.35h-1l0-1.16a2.17,2.17,0,0,1-.86.94,2.37,2.37,0,0,1-1.26.35,2.72,2.72,0,0,1-1.09-.22,2.91,2.91,0,0,1-.89-.62,3,3,0,0,1-.6-1,3.6,3.6,0,0,1-.22-1.29,3.13,3.13,0,0,1,.81-2.24,2.61,2.61,0,0,1,2-.87,2.35,2.35,0,0,1,1.25.34,2.16,2.16,0,0,1,.85.92Zm-1.88,8.57a1.8,1.8,0,0,0,1.39-.63,2.31,2.31,0,0,0,.56-1.58,2.26,2.26,0,0,0-.57-1.57,1.76,1.76,0,0,0-1.38-.63,1.81,1.81,0,0,0-1.4.61,2.25,2.25,0,0,0-.57,1.59,2.21,2.21,0,0,0,.57,1.59A1.81,1.81,0,0,0,181.66,263.6Z"/>
            <path class="cls-53" d="M190.47,258.4h1.05v6h-1l0-.79a1.77,1.77,0,0,1-.74.67,2.26,2.26,0,0,1-1.05.24,2.08,2.08,0,0,1-1.5-.54,2,2,0,0,1-.57-1.53v-4h1.06v3.79a1.39,1.39,0,0,0,.37,1.07,1.27,1.27,0,0,0,.94.35,1.41,1.41,0,0,0,1.06-.41,1.73,1.73,0,0,0,.42-1.22Z"/>
            <path class="cls-53" d="M196.15,264.49a2.87,2.87,0,0,1-2.15-.86,3.42,3.42,0,0,1,0-4.49,2.89,2.89,0,0,1,2.15-.86,3,3,0,0,1,1.73.52,2.7,2.7,0,0,1,1,1.46l-1,.16a1.81,1.81,0,0,0-1.76-1.26,1.78,1.78,0,0,0-1.39.61,2.69,2.69,0,0,0,0,3.23,1.85,1.85,0,0,0,3.15-.65l1,.16a2.64,2.64,0,0,1-1,1.45A2.83,2.83,0,0,1,196.15,264.49Z"/>
            <path class="cls-53" d="M202.35,264.38a1.55,1.55,0,0,1-1.17-.43,1.62,1.62,0,0,1-.43-1.19v-3.52h-1.22v-.84H200a.87.87,0,0,0,.66-.21,1,1,0,0,0,.19-.71V256.4h1v2h1.38v.84h-1.38v3.41a.93.93,0,0,0,.23.66.81.81,0,0,0,.6.23h.55v.84Z"/>
            <path class="cls-53" d="M207.16,264.5a3.27,3.27,0,0,1-1.54-.37,2.76,2.76,0,0,1-1.08-1.09,3.41,3.41,0,0,1-.39-1.65,3,3,0,0,1,.85-2.26,2.89,2.89,0,0,1,2.16-.85,2.93,2.93,0,0,1,2.17.85,3.08,3.08,0,0,1,.84,2.26,3,3,0,0,1-.85,2.26A2.93,2.93,0,0,1,207.16,264.5Zm0-.88a1.85,1.85,0,0,0,1.42-.61,2.62,2.62,0,0,0,0-3.24,1.85,1.85,0,0,0-1.42-.61,1.81,1.81,0,0,0-1.4.61,2.62,2.62,0,0,0,0,3.24A1.81,1.81,0,0,0,207.15,263.62Z"/>
            <path class="cls-53" d="M212.85,259.45a1.78,1.78,0,0,1,.74-.8,2.19,2.19,0,0,1,1.15-.32v1a2,2,0,0,0-1.39.45,1.88,1.88,0,0,0-.47,1.42v3.19h-1.06v-6h1Z"/>
          </g>
          <circle class="cls-54" cx="79.94" cy="260.1" r="8.08"/>
          <path class="cls-2" d="M79.41,256.52H80.7v6.79H79.35v-5.4l-1.56,1.46V258Z"/>
        </g>
      </g>
    </g>
  </g>
</svg>
