<svg id="Layer_1" data-name="Layer 1" xmlns="http://www.w3.org/2000/svg" width="292.34" height="272.66" viewBox="0 0 292.34 272.66">
  <defs>
    <style>
      .cls-1 {
        fill: #fff;
      }

      .cls-2 {
        fill: #b6cade;
      }

      .cls-3 {
        fill: #f6d9b7;
      }

      .cls-4 {
        fill: #e2bca5;
      }

      .cls-5 {
        fill: #cca092;
      }

      .cls-6 {
        fill: #d1ebff;
      }

      .cls-15, .cls-7 {
        fill: #72b5e8;
      }

      .cls-16, .cls-17, .cls-7 {
        opacity: 0.5;
      }

      .cls-8 {
        fill: #a8cff0;
      }

      .cls-14, .cls-17, .cls-9 {
        fill: #2672ab;
      }

      .cls-10 {
        fill: #084c94;
      }

      .cls-11, .cls-16 {
        fill: #3f92d1;
      }

      .cls-12 {
        opacity: 0.3;
      }

      .cls-13 {
        fill: #03336e;
      }

      .cls-14 {
        opacity: 0.2;
      }

      .cls-18 {
        fill: #f0f8ff;
      }

      .cls-19 {
        fill: #1e234f;
      }

      .cls-20 {
        fill: #f8a700;
      }
    </style>
  </defs>
  <g>
    <g>
      <rect class="cls-1" x="1" y="1" width="290.34" height="259.1" rx="17.86"/>
      <path class="cls-2" d="M273.48,261.1H18.86A18.88,18.88,0,0,1,0,242.24V18.86A18.88,18.88,0,0,1,18.86,0H273.48a18.88,18.88,0,0,1,18.86,18.86V242.24A18.88,18.88,0,0,1,273.48,261.1ZM18.86,2A16.88,16.88,0,0,0,2,18.86V242.24A16.88,16.88,0,0,0,18.86,259.1H273.48a16.87,16.87,0,0,0,16.86-16.86V18.86A16.87,16.87,0,0,0,273.48,2Z"/>
    </g>
    <g>
      <g>
        <polygon class="cls-3" points="153.95 208.17 267.17 142.73 138.38 68.36 25.18 133.79 153.95 208.17"/>
        <polygon class="cls-4" points="153.95 208.17 153.95 211.74 267.17 146.29 267.17 142.73 153.95 208.17"/>
        <polygon class="cls-5" points="25.18 133.79 25.18 137.36 153.95 211.74 153.95 208.17 25.18 133.79"/>
      </g>
      <g>
        <g>
          <polygon class="cls-6" points="49.2 128.68 87.74 151 87.74 113.81 49.2 104.04 49.2 128.68"/>
          <polygon class="cls-7" points="49.2 128.68 87.74 151 87.74 148.72 49.2 126.4 49.2 128.68"/>
          <polygon class="cls-8" points="163.45 69.83 87.73 113.81 87.73 151 163.45 107.01 163.45 69.83"/>
          <g>
            <polygon class="cls-9" points="49.2 104.06 87.74 113.95 87.74 112.65 49.2 102.83 49.2 104.06"/>
            <polygon class="cls-10" points="163.45 68.67 87.73 112.65 87.73 113.95 163.45 69.96 163.45 68.67"/>
            <polygon class="cls-11" points="124.9 58.91 49.2 102.83 87.74 112.65 163.45 68.68 124.9 58.91"/>
          </g>
          <g>
            <g class="cls-12">
              <polygon class="cls-13" points="51.48 101.64 51.17 101.83 94.44 112.86 94.74 112.67 51.48 101.64"/>
              <polygon class="cls-13" points="53.8 100.29 53.5 100.48 96.76 111.51 97.06 111.32 53.8 100.29"/>
              <polygon class="cls-13" points="56.12 98.94 55.82 99.14 99.08 110.17 99.38 109.97 56.12 98.94"/>
              <polygon class="cls-13" points="58.44 97.6 58.14 97.79 101.4 108.82 101.7 108.63 58.44 97.6"/>
              <polygon class="cls-13" points="60.76 96.25 60.46 96.44 103.72 107.48 104.02 107.28 60.76 96.25"/>
              <polygon class="cls-13" points="63.09 94.91 62.78 95.1 106.04 106.13 106.35 105.94 63.09 94.91"/>
              <polygon class="cls-13" points="65.41 93.56 65.11 93.75 108.37 104.78 108.67 104.59 65.41 93.56"/>
              <polygon class="cls-13" points="67.73 92.21 67.43 92.41 110.69 103.44 110.99 103.24 67.73 92.21"/>
              <polygon class="cls-13" points="70.05 90.87 69.75 91.06 113.01 102.09 113.31 101.9 70.05 90.87"/>
              <polygon class="cls-13" points="72.37 89.52 72.07 89.72 115.33 100.75 115.63 100.55 72.37 89.52"/>
              <polygon class="cls-13" points="74.69 88.18 74.39 88.37 117.65 99.4 117.95 99.21 74.69 88.18"/>
              <polygon class="cls-13" points="77.02 86.83 76.71 87.03 119.97 98.06 120.28 97.86 77.02 86.83"/>
              <polygon class="cls-13" points="79.34 85.48 79.04 85.68 122.3 96.71 122.6 96.52 79.34 85.48"/>
              <polygon class="cls-13" points="81.66 84.14 81.36 84.33 124.62 95.36 124.92 95.17 81.66 84.14"/>
              <polygon class="cls-13" points="83.98 82.79 83.68 82.99 126.94 94.02 127.24 93.82 83.98 82.79"/>
              <polygon class="cls-13" points="86.3 81.45 86 81.64 129.26 92.67 129.56 92.48 86.3 81.45"/>
              <polygon class="cls-13" points="88.63 80.1 88.32 80.3 131.58 91.33 131.88 91.13 88.63 80.1"/>
              <polygon class="cls-13" points="90.95 78.76 90.64 78.95 133.91 89.98 134.21 89.79 90.95 78.76"/>
              <polygon class="cls-13" points="93.27 77.41 92.97 77.6 136.23 88.63 136.53 88.44 93.27 77.41"/>
              <polygon class="cls-13" points="95.59 76.06 95.29 76.26 138.55 87.29 138.85 87.09 95.59 76.06"/>
              <polygon class="cls-13" points="97.91 74.72 97.61 74.91 140.87 85.94 141.17 85.75 97.91 74.72"/>
              <polygon class="cls-13" points="100.23 73.37 99.93 73.57 143.19 84.6 143.49 84.4 100.23 73.37"/>
              <polygon class="cls-13" points="102.56 72.03 102.25 72.22 145.51 83.25 145.82 83.06 102.56 72.03"/>
              <polygon class="cls-13" points="104.88 70.68 104.58 70.88 147.84 81.91 148.14 81.71 104.88 70.68"/>
              <polygon class="cls-13" points="107.2 69.33 106.9 69.53 150.16 80.56 150.46 80.36 107.2 69.33"/>
              <polygon class="cls-13" points="109.52 67.99 109.22 68.18 152.48 79.21 152.78 79.02 109.52 67.99"/>
              <polygon class="cls-13" points="111.84 66.64 111.54 66.84 154.8 77.87 155.1 77.67 111.84 66.64"/>
              <polygon class="cls-13" points="114.16 65.3 113.86 65.49 157.12 76.52 157.43 76.33 114.16 65.3"/>
              <polygon class="cls-13" points="116.49 63.95 116.18 64.15 159.44 75.18 159.75 74.98 116.49 63.95"/>
              <polygon class="cls-13" points="118.81 62.61 118.5 62.8 161.77 73.83 162.07 73.64 118.81 62.61"/>
              <polygon class="cls-13" points="121.13 61.26 120.83 61.45 164.09 72.48 164.39 72.29 121.13 61.26"/>
              <polygon class="cls-13" points="123.45 59.91 123.15 60.11 166.41 71.14 166.71 70.94 123.45 59.91"/>
            </g>
            <g class="cls-12">
              <polygon class="cls-9" points="51.76 101.44 51.45 101.63 94.71 112.67 95.02 112.47 51.76 101.44"/>
              <polygon class="cls-9" points="54.08 100.09 53.77 100.29 97.03 111.32 97.34 111.13 54.08 100.09"/>
              <polygon class="cls-9" points="56.4 98.75 56.1 98.94 99.36 109.97 99.66 109.78 56.4 98.75"/>
              <polygon class="cls-9" points="58.72 97.4 58.42 97.6 101.68 108.63 101.98 108.43 58.72 97.4"/>
              <polygon class="cls-9" points="61.04 96.06 60.74 96.25 104 107.28 104.3 107.09 61.04 96.06"/>
              <polygon class="cls-9" points="63.36 94.71 63.06 94.91 106.32 105.94 106.62 105.74 63.36 94.71"/>
              <polygon class="cls-9" points="65.69 93.36 65.38 93.56 108.64 104.59 108.95 104.4 65.69 93.36"/>
              <polygon class="cls-9" points="68.01 92.02 67.7 92.21 110.97 103.24 111.27 103.05 68.01 92.02"/>
              <polygon class="cls-9" points="70.33 90.67 70.03 90.87 113.29 101.9 113.59 101.7 70.33 90.67"/>
              <polygon class="cls-9" points="72.65 89.33 72.35 89.52 115.61 100.55 115.91 100.36 72.65 89.33"/>
              <polygon class="cls-9" points="74.97 87.98 74.67 88.18 117.93 99.21 118.23 99.01 74.97 87.98"/>
              <polygon class="cls-9" points="77.29 86.64 76.99 86.83 120.25 97.86 120.56 97.67 77.29 86.64"/>
              <polygon class="cls-9" points="79.62 85.29 79.31 85.48 122.57 96.52 122.88 96.32 79.62 85.29"/>
              <polygon class="cls-9" points="81.94 83.94 81.64 84.14 124.9 95.17 125.2 94.97 81.94 83.94"/>
              <polygon class="cls-9" points="84.26 82.6 83.96 82.79 127.22 93.82 127.52 93.63 84.26 82.6"/>
              <polygon class="cls-9" points="86.58 81.25 86.28 81.45 129.54 92.48 129.84 92.28 86.58 81.25"/>
              <polygon class="cls-9" points="88.9 79.91 88.6 80.1 131.86 91.13 132.16 90.94 88.9 79.91"/>
              <polygon class="cls-9" points="91.22 78.56 90.92 78.75 134.18 89.79 134.49 89.59 91.22 78.56"/>
              <polygon class="cls-9" points="93.55 77.22 93.24 77.41 136.5 88.44 136.81 88.25 93.55 77.22"/>
              <polygon class="cls-9" points="95.87 75.87 95.57 76.06 138.83 87.09 139.13 86.9 95.87 75.87"/>
              <polygon class="cls-9" points="98.19 74.52 97.89 74.72 141.15 85.75 141.45 85.55 98.19 74.52"/>
              <polygon class="cls-9" points="100.51 73.18 100.21 73.37 143.47 84.4 143.77 84.21 100.51 73.18"/>
              <polygon class="cls-9" points="102.83 71.83 102.53 72.03 145.79 83.06 146.09 82.86 102.83 71.83"/>
              <polygon class="cls-9" points="105.16 70.49 104.85 70.68 148.11 81.71 148.41 81.52 105.16 70.49"/>
              <polygon class="cls-9" points="107.48 69.14 107.17 69.33 150.44 80.36 150.74 80.17 107.48 69.14"/>
              <polygon class="cls-9" points="109.8 67.8 109.5 67.99 152.76 79.02 153.06 78.83 109.8 67.8"/>
              <polygon class="cls-9" points="112.12 66.45 111.82 66.64 155.08 77.67 155.38 77.48 112.12 66.45"/>
              <polygon class="cls-9" points="114.44 65.1 114.14 65.3 157.4 76.33 157.7 76.13 114.44 65.1"/>
              <polygon class="cls-9" points="116.76 63.76 116.46 63.95 159.72 74.98 160.02 74.79 116.76 63.76"/>
              <polygon class="cls-9" points="119.08 62.41 118.78 62.61 162.04 73.64 162.35 73.44 119.08 62.41"/>
              <polygon class="cls-9" points="121.41 61.07 121.11 61.26 164.37 72.29 164.67 72.1 121.41 61.07"/>
              <polygon class="cls-9" points="123.73 59.72 123.43 59.91 166.69 70.94 166.99 70.75 123.73 59.72"/>
            </g>
          </g>
          <g>
            <polygon class="cls-14" points="53.23 128.56 54.56 131.72 66.33 138.51 65.01 135.36 53.23 128.56"/>
            <polygon class="cls-11" points="52.58 113.92 52.58 128.31 64.19 135.01 64.19 120.62 52.58 113.92"/>
            <g>
              <polygon class="cls-15" points="52.58 126.72 52.58 126.95 64.19 133.65 64.19 133.43 52.58 126.72"/>
              <polygon class="cls-15" points="52.58 124.95 52.58 125.18 64.19 131.88 64.19 131.66 52.58 124.95"/>
              <polygon class="cls-15" points="52.58 123.18 52.58 123.41 64.19 130.12 64.19 129.89 52.58 123.18"/>
              <polygon class="cls-15" points="52.58 121.41 52.58 121.64 64.19 128.34 64.19 128.12 52.58 121.41"/>
              <polygon class="cls-15" points="52.58 119.64 52.58 119.87 64.19 126.58 64.19 126.35 52.58 119.64"/>
              <polygon class="cls-15" points="52.58 117.87 52.58 118.1 64.19 124.81 64.19 124.58 52.58 117.87"/>
              <polygon class="cls-15" points="52.58 116.11 52.58 116.33 64.19 123.04 64.19 122.81 52.58 116.11"/>
            </g>
            <g>
              <polygon class="cls-9" points="52.58 126.52 52.58 126.74 64.19 133.45 64.19 133.22 52.58 126.52"/>
              <polygon class="cls-9" points="52.58 124.75 52.58 124.97 64.19 131.68 64.19 131.45 52.58 124.75"/>
              <polygon class="cls-9" points="52.58 122.97 52.58 123.2 64.19 129.91 64.19 129.68 52.58 122.97"/>
              <polygon class="cls-9" points="52.58 121.21 52.58 121.43 64.19 128.14 64.19 127.91 52.58 121.21"/>
              <polygon class="cls-9" points="52.58 119.44 52.58 119.66 64.19 126.37 64.19 126.14 52.58 119.44"/>
              <polygon class="cls-9" points="52.58 117.67 52.58 117.89 64.19 124.6 64.19 124.37 52.58 117.67"/>
              <polygon class="cls-9" points="52.58 115.9 52.58 116.12 64.19 122.83 64.19 122.6 52.58 115.9"/>
            </g>
            <polygon class="cls-13" points="65.06 135.54 64.15 136.07 64.15 120.38 65.06 119.85 65.06 135.54"/>
            <polygon class="cls-13" points="54.18 129.26 53.27 129.79 53.27 114.1 54.18 113.57 54.18 129.26"/>
            <polygon class="cls-9" points="53.3 113.06 52.39 113.59 64.15 120.38 65.06 119.85 53.3 113.06"/>
            <polygon class="cls-10" points="64.15 120.49 64.15 120.38 52.38 113.58 52.38 129.27 53.28 129.79 53.28 116.58 63.25 122.34 63.25 135.55 64.15 136.07 64.15 120.49 64.15 120.49"/>
          </g>
          <g>
            <polygon class="cls-14" points="70.29 138.51 71.62 141.66 83.39 148.46 82.07 145.3 70.29 138.51"/>
            <polygon class="cls-11" points="69.64 123.86 69.64 138.26 81.25 144.96 81.25 130.57 69.64 123.86"/>
            <g>
              <polygon class="cls-15" points="69.64 136.67 69.64 136.9 81.25 143.6 81.25 143.37 69.64 136.67"/>
              <polygon class="cls-15" points="69.64 134.9 69.64 135.13 81.25 141.83 81.25 141.6 69.64 134.9"/>
              <polygon class="cls-15" points="69.64 133.13 69.64 133.36 81.25 140.06 81.25 139.83 69.64 133.13"/>
              <polygon class="cls-15" points="69.64 131.36 69.64 131.59 81.25 138.29 81.25 138.06 69.64 131.36"/>
              <polygon class="cls-15" points="69.64 129.59 69.64 129.82 81.25 136.52 81.25 136.29 69.64 129.59"/>
              <polygon class="cls-15" points="69.64 127.82 69.64 128.05 81.25 134.75 81.25 134.53 69.64 127.82"/>
              <polygon class="cls-15" points="69.64 126.05 69.64 126.28 81.25 132.98 81.25 132.75 69.64 126.05"/>
            </g>
            <g>
              <polygon class="cls-9" points="69.64 136.46 69.64 136.69 81.25 143.39 81.25 143.16 69.64 136.46"/>
              <polygon class="cls-9" points="69.64 134.69 69.64 134.92 81.25 141.62 81.25 141.4 69.64 134.69"/>
              <polygon class="cls-9" points="69.64 132.92 69.64 133.15 81.25 139.85 81.25 139.63 69.64 132.92"/>
              <polygon class="cls-9" points="69.64 131.15 69.64 131.38 81.25 138.08 81.25 137.86 69.64 131.15"/>
              <polygon class="cls-9" points="69.64 129.38 69.64 129.61 81.25 136.31 81.25 136.09 69.64 129.38"/>
              <polygon class="cls-9" points="69.64 127.61 69.64 127.84 81.25 134.54 81.25 134.32 69.64 127.61"/>
              <polygon class="cls-9" points="69.64 125.84 69.64 126.07 81.25 132.77 81.25 132.55 69.64 125.84"/>
            </g>
            <polygon class="cls-13" points="82.12 145.49 81.21 146.02 81.21 130.33 82.12 129.8 82.12 145.49"/>
            <polygon class="cls-13" points="71.24 139.21 70.33 139.74 70.33 124.05 71.24 123.52 71.24 139.21"/>
            <polygon class="cls-9" points="70.36 123 69.45 123.53 81.21 130.33 82.12 129.8 70.36 123"/>
            <polygon class="cls-10" points="81.21 130.43 81.21 130.33 69.44 123.53 69.44 139.22 70.34 139.74 70.34 126.53 80.31 132.28 80.31 145.5 81.21 146.02 81.21 130.43 81.21 130.43"/>
          </g>
        </g>
        <g>
          <polygon class="cls-8" points="86.99 155.36 119.39 174.13 119.39 126.83 86.99 108.2 86.99 155.36"/>
          <polygon class="cls-15" points="200.01 79.84 119.38 126.83 119.38 174.13 200.01 127.12 200.01 79.84"/>
          <polygon class="cls-6" points="167.61 61.26 86.99 108.2 119.39 126.83 200.01 79.84 167.61 61.26"/>
        </g>
        <g>
          <polygon class="cls-6" points="123.89 171.69 162.43 194.01 162.43 165.54 123.89 134.45 123.89 171.69"/>
          <polygon class="cls-7" points="123.89 171.69 162.43 194.01 162.43 191.68 123.89 169.35 123.89 171.69"/>
          <polygon class="cls-8" points="238.13 121.56 162.41 165.54 162.41 194.01 238.13 150.02 238.13 121.56"/>
          <polygon class="cls-16" points="238.13 147.68 162.41 191.66 162.41 194.01 238.13 150.02 238.13 147.68"/>
          <polygon class="cls-9" points="123.89 135.68 162.43 166.84 162.43 165.54 123.89 134.45 123.89 135.68"/>
          <polygon class="cls-13" points="238.13 121.56 162.41 165.54 162.41 166.84 238.13 122.84 238.13 121.56"/>
          <polygon class="cls-10" points="199.59 90.53 123.89 134.45 162.43 165.54 238.13 121.56 199.59 90.53"/>
        </g>
        <g>
          <polygon class="cls-11" points="88.51 131.69 88.51 156.47 115.87 172.12 115.87 147.33 88.51 131.69"/>
          <polygon class="cls-17" points="88.51 139.44 88.51 140.29 115.87 155.94 115.87 155.08 88.51 139.44"/>
          <g>
            <polygon class="cls-15" points="92.04 133.7 91.64 133.49 91.64 158.27 92.04 158.49 92.04 133.7"/>
            <polygon class="cls-15" points="95.55 135.71 95.14 135.5 95.14 160.28 95.55 160.49 95.55 135.71"/>
            <polygon class="cls-15" points="99.05 137.72 98.65 137.5 98.65 162.29 99.05 162.5 99.05 137.72"/>
            <polygon class="cls-15" points="102.56 139.72 102.16 139.51 102.16 164.3 102.56 164.51 102.56 139.72"/>
            <polygon class="cls-15" points="106.07 141.73 105.67 141.52 105.67 166.31 106.07 166.52 106.07 141.73"/>
            <polygon class="cls-15" points="109.58 143.74 109.17 143.53 109.17 168.31 109.58 168.53 109.58 143.74"/>
            <polygon class="cls-15" points="113.08 145.75 112.68 145.54 112.68 170.32 113.08 170.53 113.08 145.75"/>
          </g>
          <polygon class="cls-15" points="88.51 138.87 88.51 139.72 115.87 155.36 115.87 154.51 88.51 138.87"/>
          <polygon class="cls-13" points="116.65 172.59 115.83 173.07 115.83 147.11 116.65 146.64 116.65 172.59"/>
          <polygon class="cls-13" points="89.96 157.34 89.14 157.81 89.14 131.85 89.96 131.38 89.96 157.34"/>
          <polygon class="cls-9" points="89.15 130.91 88.33 131.39 115.83 147.11 116.65 146.64 89.15 130.91"/>
          <polygon class="cls-10" points="115.83 147.21 115.83 147.11 88.32 131.39 88.32 157.34 89.14 157.81 89.14 133 115.01 147.79 115.01 172.6 115.83 173.07 115.83 147.21 115.83 147.21"/>
        </g>
        <g>
          <polygon class="cls-11" points="88.51 115.09 88.51 123.91 115.87 139.55 115.87 130.73 88.51 115.09"/>
          <g>
            <polygon class="cls-15" points="92.04 117.1 91.64 116.89 91.64 125.7 92.04 125.92 92.04 117.1"/>
            <polygon class="cls-15" points="95.55 119.11 95.14 118.9 95.14 127.71 95.55 127.92 95.55 119.11"/>
            <polygon class="cls-15" points="99.05 121.12 98.65 120.91 98.65 129.72 99.05 129.93 99.05 121.12"/>
            <polygon class="cls-15" points="102.56 123.13 102.16 122.91 102.16 131.73 102.56 131.94 102.56 123.13"/>
            <polygon class="cls-15" points="106.07 125.13 105.67 124.92 105.67 133.74 106.07 133.95 106.07 125.13"/>
            <polygon class="cls-15" points="109.58 127.14 109.17 126.93 109.17 135.74 109.58 135.96 109.58 127.14"/>
            <polygon class="cls-15" points="113.08 129.15 112.68 128.94 112.68 137.75 113.08 137.96 113.08 129.15"/>
          </g>
          <polygon class="cls-13" points="116.65 140.02 115.83 140.5 115.83 130.51 116.65 130.04 116.65 140.02"/>
          <polygon class="cls-13" points="89.96 124.77 89.14 125.24 89.14 115.26 89.96 114.78 89.96 124.77"/>
          <polygon class="cls-9" points="89.15 114.31 88.33 114.79 115.83 130.51 116.65 130.04 89.15 114.31"/>
          <polygon class="cls-9" points="89.9 123.86 89.07 124.34 115 139.21 115.82 138.73 89.9 123.86"/>
          <path class="cls-10" d="M88.32,114.79v10l27.51,15.72v-10Zm.82,9.53V116.4L115,131.19v7.93Z"/>
        </g>
        <g>
          <polygon class="cls-14" points="127.97 171.63 129.3 174.78 141.07 181.58 139.75 178.42 127.97 171.63"/>
          <polygon class="cls-11" points="127.32 156.98 127.32 171.38 138.93 178.08 138.93 163.69 127.32 156.98"/>
          <g>
            <polygon class="cls-15" points="127.32 169.79 127.32 170.02 138.93 176.72 138.93 176.49 127.32 169.79"/>
            <polygon class="cls-15" points="127.32 168.02 127.32 168.25 138.93 174.95 138.93 174.72 127.32 168.02"/>
            <polygon class="cls-15" points="127.32 166.25 127.32 166.48 138.93 173.18 138.93 172.95 127.32 166.25"/>
            <polygon class="cls-15" points="127.32 164.48 127.32 164.71 138.93 171.41 138.93 171.18 127.32 164.48"/>
            <polygon class="cls-15" points="127.32 162.71 127.32 162.94 138.93 169.64 138.93 169.41 127.32 162.71"/>
            <polygon class="cls-15" points="127.32 160.94 127.32 161.17 138.93 167.87 138.93 167.64 127.32 160.94"/>
            <polygon class="cls-15" points="127.32 159.17 127.32 159.4 138.93 166.1 138.93 165.87 127.32 159.17"/>
          </g>
          <g>
            <polygon class="cls-9" points="127.32 169.58 127.32 169.81 138.93 176.51 138.93 176.28 127.32 169.58"/>
            <polygon class="cls-9" points="127.32 167.81 127.32 168.04 138.93 174.74 138.93 174.51 127.32 167.81"/>
            <polygon class="cls-9" points="127.32 166.04 127.32 166.27 138.93 172.97 138.93 172.75 127.32 166.04"/>
            <polygon class="cls-9" points="127.32 164.27 127.32 164.5 138.93 171.2 138.93 170.97 127.32 164.27"/>
            <polygon class="cls-9" points="127.32 162.5 127.32 162.73 138.93 169.43 138.93 169.21 127.32 162.5"/>
            <polygon class="cls-9" points="127.32 160.73 127.32 160.96 138.93 167.66 138.93 167.44 127.32 160.73"/>
            <polygon class="cls-9" points="127.32 158.96 127.32 159.19 138.93 165.89 138.93 165.67 127.32 158.96"/>
          </g>
          <polygon class="cls-13" points="139.8 178.61 138.89 179.14 138.89 163.45 139.8 162.92 139.8 178.61"/>
          <polygon class="cls-13" points="128.93 172.33 128.02 172.86 128.02 157.17 128.93 156.64 128.93 172.33"/>
          <polygon class="cls-9" points="128.04 156.12 127.13 156.65 138.89 163.45 139.8 162.92 128.04 156.12"/>
          <polygon class="cls-10" points="138.89 163.55 138.89 163.45 127.12 156.65 127.12 172.34 128.02 172.86 128.02 159.65 137.99 165.4 137.99 178.62 138.89 179.14 138.89 163.55 138.89 163.55"/>
        </g>
        <g>
          <polygon class="cls-14" points="145.03 181.57 146.36 184.73 158.13 191.53 156.81 188.37 145.03 181.57"/>
          <polygon class="cls-11" points="144.38 166.93 144.38 181.32 155.99 188.03 155.99 173.63 144.38 166.93"/>
          <g>
            <polygon class="cls-15" points="144.38 179.74 144.38 179.96 155.99 186.67 155.99 186.44 144.38 179.74"/>
            <polygon class="cls-15" points="144.38 177.97 144.38 178.19 155.99 184.9 155.99 184.67 144.38 177.97"/>
            <polygon class="cls-15" points="144.38 176.2 144.38 176.42 155.99 183.13 155.99 182.9 144.38 176.2"/>
            <polygon class="cls-15" points="144.38 174.43 144.38 174.65 155.99 181.36 155.99 181.13 144.38 174.43"/>
            <polygon class="cls-15" points="144.38 172.66 144.38 172.88 155.99 179.59 155.99 179.36 144.38 172.66"/>
            <polygon class="cls-15" points="144.38 170.89 144.38 171.12 155.99 177.82 155.99 177.59 144.38 170.89"/>
            <polygon class="cls-15" points="144.38 169.12 144.38 169.34 155.99 176.05 155.99 175.82 144.38 169.12"/>
          </g>
          <g>
            <polygon class="cls-9" points="144.38 179.53 144.38 179.75 155.99 186.46 155.99 186.23 144.38 179.53"/>
            <polygon class="cls-9" points="144.38 177.76 144.38 177.99 155.99 184.69 155.99 184.46 144.38 177.76"/>
            <polygon class="cls-9" points="144.38 175.99 144.38 176.22 155.99 182.92 155.99 182.69 144.38 175.99"/>
            <polygon class="cls-9" points="144.38 174.22 144.38 174.45 155.99 181.15 155.99 180.92 144.38 174.22"/>
            <polygon class="cls-9" points="144.38 172.45 144.38 172.68 155.99 179.38 155.99 179.15 144.38 172.45"/>
            <polygon class="cls-9" points="144.38 170.68 144.38 170.91 155.99 177.61 155.99 177.38 144.38 170.68"/>
            <polygon class="cls-9" points="144.38 168.91 144.38 169.14 155.99 175.84 155.99 175.61 144.38 168.91"/>
          </g>
          <polygon class="cls-13" points="156.86 188.55 155.95 189.08 155.95 173.39 156.86 172.87 156.86 188.55"/>
          <polygon class="cls-13" points="145.98 182.27 145.07 182.8 145.07 167.11 145.98 166.59 145.98 182.27"/>
          <polygon class="cls-9" points="145.09 166.07 144.19 166.6 155.95 173.39 156.86 172.87 145.09 166.07"/>
          <polygon class="cls-10" points="155.95 173.5 155.95 173.39 144.18 166.6 144.18 182.29 145.08 182.81 145.08 169.59 155.05 175.35 155.05 188.56 155.95 189.08 155.95 173.5 155.95 173.5"/>
        </g>
        <g>
          <g class="cls-12">
            <polygon class="cls-9" points="164.25 165.8 163.93 166 163.93 190.48 164.25 190.28 164.25 165.8"/>
            <polygon class="cls-9" points="166.57 164.46 166.25 164.66 166.25 189.13 166.57 188.93 166.57 164.46"/>
            <polygon class="cls-9" points="168.89 163.11 168.57 163.31 168.57 187.79 168.89 187.59 168.89 163.11"/>
            <polygon class="cls-9" points="171.22 161.76 170.89 161.96 170.89 186.44 171.22 186.24 171.22 161.76"/>
            <polygon class="cls-9" points="173.54 160.42 173.22 160.62 173.22 185.09 173.54 184.9 173.54 160.42"/>
            <polygon class="cls-9" points="175.86 159.07 175.54 159.27 175.54 183.75 175.86 183.55 175.86 159.07"/>
            <polygon class="cls-9" points="178.18 157.73 177.86 157.93 177.86 182.4 178.18 182.21 178.18 157.73"/>
            <polygon class="cls-9" points="180.5 156.38 180.18 156.58 180.18 181.06 180.5 180.86 180.5 156.38"/>
            <polygon class="cls-9" points="182.82 155.04 182.5 155.23 182.5 179.71 182.82 179.51 182.82 155.04"/>
            <polygon class="cls-9" points="185.15 153.69 184.82 153.89 184.82 178.37 185.15 178.17 185.15 153.69"/>
            <polygon class="cls-9" points="187.47 152.34 187.15 152.54 187.15 177.02 187.47 176.82 187.47 152.34"/>
            <polygon class="cls-9" points="189.79 151 189.47 151.2 189.47 175.67 189.79 175.48 189.79 151"/>
            <polygon class="cls-9" points="192.11 149.65 191.79 149.85 191.79 174.33 192.11 174.13 192.11 149.65"/>
            <polygon class="cls-9" points="194.43 148.31 194.11 148.5 194.11 172.98 194.43 172.78 194.43 148.31"/>
            <polygon class="cls-9" points="196.75 146.96 196.43 147.16 196.43 171.64 196.75 171.44 196.75 146.96"/>
            <polygon class="cls-9" points="199.08 145.62 198.75 145.81 198.75 170.29 199.08 170.09 199.08 145.62"/>
            <polygon class="cls-9" points="201.4 144.27 201.08 144.47 201.08 168.94 201.4 168.75 201.4 144.27"/>
            <polygon class="cls-9" points="203.72 142.92 203.4 143.12 203.4 167.6 203.72 167.4 203.72 142.92"/>
            <polygon class="cls-9" points="206.04 141.58 205.72 141.78 205.72 166.25 206.04 166.06 206.04 141.58"/>
            <polygon class="cls-9" points="208.36 140.23 208.04 140.43 208.04 164.91 208.36 164.71 208.36 140.23"/>
            <polygon class="cls-9" points="210.69 138.89 210.36 139.09 210.36 163.56 210.69 163.36 210.69 138.89"/>
            <polygon class="cls-9" points="213.01 137.54 212.68 137.74 212.68 162.22 213.01 162.02 213.01 137.54"/>
            <polygon class="cls-9" points="215.33 136.19 215.01 136.39 215.01 160.87 215.33 160.67 215.33 136.19"/>
            <polygon class="cls-9" points="217.65 134.85 217.33 135.05 217.33 159.52 217.65 159.33 217.65 134.85"/>
            <polygon class="cls-9" points="219.97 133.5 219.65 133.7 219.65 158.18 219.97 157.98 219.97 133.5"/>
            <polygon class="cls-9" points="222.29 132.16 221.97 132.36 221.97 156.83 222.29 156.63 222.29 132.16"/>
            <polygon class="cls-9" points="224.62 130.81 224.29 131.01 224.29 155.49 224.62 155.29 224.62 130.81"/>
            <polygon class="cls-9" points="226.94 129.47 226.62 129.66 226.62 154.14 226.94 153.94 226.94 129.47"/>
            <polygon class="cls-9" points="229.26 128.12 228.94 128.32 228.94 152.79 229.26 152.6 229.26 128.12"/>
            <polygon class="cls-9" points="231.58 126.77 231.26 126.97 231.26 151.45 231.58 151.25 231.58 126.77"/>
            <polygon class="cls-9" points="233.9 125.43 233.58 125.63 233.58 150.1 233.9 149.91 233.9 125.43"/>
            <polygon class="cls-9" points="236.22 124.08 235.9 124.28 235.9 148.76 236.22 148.56 236.22 124.08"/>
          </g>
          <g class="cls-12">
            <polygon class="cls-18" points="164.58 165.62 164.26 165.81 164.26 190.29 164.58 190.09 164.58 165.62"/>
            <polygon class="cls-18" points="166.91 164.27 166.58 164.47 166.58 188.94 166.91 188.75 166.91 164.27"/>
            <polygon class="cls-18" points="169.23 162.92 168.91 163.12 168.91 187.6 169.23 187.4 169.23 162.92"/>
            <polygon class="cls-18" points="171.55 161.58 171.23 161.78 171.23 186.25 171.55 186.06 171.55 161.58"/>
            <polygon class="cls-18" points="173.87 160.23 173.55 160.43 173.55 184.91 173.87 184.71 173.87 160.23"/>
            <polygon class="cls-18" points="176.19 158.89 175.87 159.08 175.87 183.56 176.19 183.36 176.19 158.89"/>
            <polygon class="cls-18" points="178.51 157.54 178.19 157.74 178.19 182.22 178.51 182.02 178.51 157.54"/>
            <polygon class="cls-18" points="180.84 156.19 180.51 156.39 180.51 180.87 180.84 180.67 180.84 156.19"/>
            <polygon class="cls-18" points="183.16 154.85 182.84 155.05 182.84 179.52 183.16 179.32 183.16 154.85"/>
            <polygon class="cls-18" points="185.48 153.5 185.16 153.7 185.16 178.18 185.48 177.98 185.48 153.5"/>
            <polygon class="cls-18" points="187.8 152.16 187.48 152.35 187.48 176.83 187.8 176.63 187.8 152.16"/>
            <polygon class="cls-18" points="190.12 150.81 189.8 151.01 189.8 175.49 190.12 175.29 190.12 150.81"/>
            <polygon class="cls-18" points="192.44 149.47 192.12 149.66 192.12 174.14 192.44 173.94 192.44 149.47"/>
            <polygon class="cls-18" points="194.77 148.12 194.44 148.32 194.44 172.79 194.77 172.6 194.77 148.12"/>
            <polygon class="cls-18" points="197.09 146.77 196.77 146.97 196.77 171.45 197.09 171.25 197.09 146.77"/>
            <polygon class="cls-18" points="199.41 145.43 199.09 145.63 199.09 170.1 199.41 169.91 199.41 145.43"/>
            <polygon class="cls-18" points="201.73 144.08 201.41 144.28 201.41 168.76 201.73 168.56 201.73 144.08"/>
            <polygon class="cls-18" points="204.05 142.74 203.73 142.94 203.73 167.41 204.05 167.21 204.05 142.74"/>
            <polygon class="cls-18" points="206.38 141.39 206.05 141.59 206.05 166.07 206.38 165.87 206.38 141.39"/>
            <polygon class="cls-18" points="208.7 140.04 208.37 140.24 208.37 164.72 208.7 164.52 208.7 140.04"/>
            <polygon class="cls-18" points="211.02 138.7 210.7 138.9 210.7 163.37 211.02 163.18 211.02 138.7"/>
            <polygon class="cls-18" points="213.34 137.35 213.02 137.55 213.02 162.03 213.34 161.83 213.34 137.35"/>
            <polygon class="cls-18" points="215.66 136.01 215.34 136.21 215.34 160.68 215.66 160.48 215.66 136.01"/>
            <polygon class="cls-18" points="217.98 134.66 217.66 134.86 217.66 159.34 217.98 159.14 217.98 134.66"/>
            <polygon class="cls-18" points="220.31 133.31 219.98 133.51 219.98 157.99 220.31 157.79 220.31 133.31"/>
            <polygon class="cls-18" points="222.63 131.97 222.31 132.17 222.31 156.65 222.63 156.45 222.63 131.97"/>
            <polygon class="cls-18" points="224.95 130.62 224.63 130.82 224.63 155.3 224.95 155.1 224.95 130.62"/>
            <polygon class="cls-18" points="227.27 129.28 226.95 129.48 226.95 153.95 227.27 153.75 227.27 129.28"/>
            <polygon class="cls-18" points="229.59 127.93 229.27 128.13 229.27 152.61 229.59 152.41 229.59 127.93"/>
            <polygon class="cls-18" points="231.91 126.59 231.59 126.78 231.59 151.26 231.91 151.06 231.91 126.59"/>
            <polygon class="cls-18" points="234.24 125.24 233.91 125.44 233.91 149.92 234.24 149.72 234.24 125.24"/>
            <polygon class="cls-18" points="236.56 123.89 236.24 124.09 236.24 148.57 236.56 148.37 236.56 123.89"/>
          </g>
        </g>
        <g>
          <g class="cls-12">
            <polygon class="cls-13" points="125.58 133.48 125.28 133.67 163.71 164.65 164.01 164.46 125.58 133.48"/>
            <polygon class="cls-13" points="127.9 132.13 127.6 132.32 166.03 163.3 166.33 163.11 127.9 132.13"/>
            <polygon class="cls-13" points="130.22 130.78 129.92 130.98 168.35 161.96 168.65 161.76 130.22 130.78"/>
            <polygon class="cls-13" points="132.54 129.44 132.24 129.63 170.67 160.61 170.97 160.42 132.54 129.44"/>
            <polygon class="cls-13" points="134.87 128.09 134.56 128.29 172.99 159.27 173.29 159.07 134.87 128.09"/>
            <polygon class="cls-13" points="137.19 126.75 136.88 126.94 175.31 157.92 175.62 157.73 137.19 126.75"/>
            <polygon class="cls-13" points="139.51 125.4 139.21 125.59 177.64 156.57 177.94 156.38 139.51 125.4"/>
            <polygon class="cls-13" points="141.83 124.06 141.53 124.25 179.96 155.23 180.26 155.03 141.83 124.06"/>
            <polygon class="cls-13" points="144.15 122.71 143.85 122.9 182.28 153.88 182.58 153.69 144.15 122.71"/>
            <polygon class="cls-13" points="146.47 121.36 146.17 121.56 184.6 152.54 184.9 152.34 146.47 121.36"/>
            <polygon class="cls-13" points="148.8 120.02 148.49 120.21 186.92 151.19 187.22 151 148.8 120.02"/>
            <polygon class="cls-13" points="151.12 118.67 150.81 118.87 189.25 149.84 189.55 149.65 151.12 118.67"/>
            <polygon class="cls-13" points="153.44 117.33 153.14 117.52 191.57 148.5 191.87 148.31 153.44 117.33"/>
            <polygon class="cls-13" points="155.76 115.98 155.46 116.17 193.89 147.15 194.19 146.96 155.76 115.98"/>
            <polygon class="cls-13" points="158.08 114.63 157.78 114.83 196.21 145.81 196.51 145.61 158.08 114.63"/>
            <polygon class="cls-13" points="160.41 113.29 160.1 113.48 198.53 144.46 198.83 144.27 160.41 113.29"/>
            <polygon class="cls-13" points="162.73 111.94 162.42 112.14 200.85 143.12 201.16 142.92 162.73 111.94"/>
            <polygon class="cls-13" points="165.05 110.6 164.75 110.79 203.18 141.77 203.48 141.58 165.05 110.6"/>
            <polygon class="cls-13" points="167.37 109.25 167.07 109.44 205.5 140.43 205.8 140.23 167.37 109.25"/>
            <polygon class="cls-13" points="169.69 107.91 169.39 108.1 207.82 139.08 208.12 138.88 169.69 107.91"/>
            <polygon class="cls-13" points="172.01 106.56 171.71 106.75 210.14 137.73 210.44 137.54 172.01 106.56"/>
            <polygon class="cls-13" points="174.34 105.21 174.03 105.41 212.46 136.39 212.76 136.19 174.34 105.21"/>
            <polygon class="cls-13" points="176.66 103.87 176.35 104.06 214.78 135.04 215.09 134.85 176.66 103.87"/>
            <polygon class="cls-13" points="178.98 102.52 178.68 102.72 217.11 133.69 217.41 133.5 178.98 102.52"/>
            <polygon class="cls-13" points="181.3 101.18 181 101.37 219.43 132.35 219.73 132.16 181.3 101.18"/>
            <polygon class="cls-13" points="183.62 99.83 183.32 100.02 221.75 131 222.05 130.81 183.62 99.83"/>
            <polygon class="cls-13" points="185.94 98.48 185.64 98.68 224.07 129.66 224.37 129.46 185.94 98.48"/>
            <polygon class="cls-13" points="188.27 97.14 187.96 97.33 226.39 128.31 226.69 128.12 188.27 97.14"/>
            <polygon class="cls-13" points="190.59 95.79 190.28 95.99 228.71 126.97 229.02 126.77 190.59 95.79"/>
            <polygon class="cls-13" points="192.91 94.45 192.61 94.64 231.04 125.62 231.34 125.43 192.91 94.45"/>
            <polygon class="cls-13" points="195.23 93.1 194.93 93.3 233.36 124.28 233.66 124.08 195.23 93.1"/>
            <polygon class="cls-13" points="197.55 91.75 197.25 91.95 235.68 122.93 235.98 122.73 197.55 91.75"/>
          </g>
          <g class="cls-12">
            <polygon class="cls-9" points="125.86 133.28 125.55 133.47 163.98 164.46 164.29 164.26 125.86 133.28"/>
            <polygon class="cls-9" points="128.18 131.94 127.88 132.13 166.31 163.11 166.61 162.91 128.18 131.94"/>
            <polygon class="cls-9" points="130.5 130.59 130.2 130.78 168.63 161.76 168.93 161.57 130.5 130.59"/>
            <polygon class="cls-9" points="132.82 129.24 132.52 129.44 170.95 160.42 171.25 160.22 132.82 129.24"/>
            <polygon class="cls-9" points="135.14 127.9 134.84 128.09 173.27 159.07 173.57 158.88 135.14 127.9"/>
            <polygon class="cls-9" points="137.47 126.55 137.16 126.75 175.59 157.73 175.89 157.53 137.47 126.55"/>
            <polygon class="cls-9" points="139.79 125.21 139.48 125.4 177.91 156.38 178.22 156.19 139.79 125.21"/>
            <polygon class="cls-9" points="142.11 123.86 141.81 124.05 180.24 155.03 180.54 154.84 142.11 123.86"/>
            <polygon class="cls-9" points="144.43 122.52 144.13 122.71 182.56 153.69 182.86 153.49 144.43 122.52"/>
            <polygon class="cls-9" points="146.75 121.17 146.45 121.36 184.88 152.34 185.18 152.15 146.75 121.17"/>
            <polygon class="cls-9" points="149.07 119.82 148.77 120.02 187.2 151 187.5 150.8 149.07 119.82"/>
            <polygon class="cls-9" points="151.4 118.48 151.09 118.67 189.52 149.65 189.82 149.46 151.4 118.48"/>
            <polygon class="cls-9" points="153.72 117.13 153.41 117.33 191.84 148.31 192.15 148.11 153.72 117.13"/>
            <polygon class="cls-9" points="156.04 115.79 155.74 115.98 194.17 146.96 194.47 146.76 156.04 115.79"/>
            <polygon class="cls-9" points="158.36 114.44 158.06 114.63 196.49 145.61 196.79 145.42 158.36 114.44"/>
            <polygon class="cls-9" points="160.68 113.09 160.38 113.29 198.81 144.27 199.11 144.07 160.68 113.09"/>
            <polygon class="cls-9" points="163 111.75 162.7 111.94 201.13 142.92 201.43 142.73 163 111.75"/>
            <polygon class="cls-9" points="165.33 110.4 165.02 110.6 203.45 141.58 203.75 141.38 165.33 110.4"/>
            <polygon class="cls-9" points="167.65 109.06 167.34 109.25 205.78 140.23 206.08 140.04 167.65 109.06"/>
            <polygon class="cls-9" points="169.97 107.71 169.67 107.91 208.1 138.88 208.4 138.69 169.97 107.71"/>
            <polygon class="cls-9" points="172.29 106.36 171.99 106.56 210.42 137.54 210.72 137.34 172.29 106.36"/>
            <polygon class="cls-9" points="174.61 105.02 174.31 105.21 212.74 136.19 213.04 136 174.61 105.02"/>
            <polygon class="cls-9" points="176.94 103.67 176.63 103.87 215.06 134.85 215.36 134.65 176.94 103.67"/>
            <polygon class="cls-9" points="179.26 102.33 178.95 102.52 217.38 133.5 217.69 133.31 179.26 102.33"/>
            <polygon class="cls-9" points="181.58 100.98 181.28 101.18 219.71 132.16 220.01 131.96 181.58 100.98"/>
            <polygon class="cls-9" points="183.9 99.64 183.6 99.83 222.03 130.81 222.33 130.62 183.9 99.64"/>
            <polygon class="cls-9" points="186.22 98.29 185.92 98.48 224.35 129.46 224.65 129.27 186.22 98.29"/>
            <polygon class="cls-9" points="188.54 96.94 188.24 97.14 226.67 128.12 226.97 127.92 188.54 96.94"/>
            <polygon class="cls-9" points="190.87 95.6 190.56 95.79 228.99 126.77 229.29 126.58 190.87 95.6"/>
            <polygon class="cls-9" points="193.19 94.25 192.88 94.45 231.31 125.43 231.62 125.23 193.19 94.25"/>
            <polygon class="cls-9" points="195.51 92.91 195.21 93.1 233.64 124.08 233.94 123.89 195.51 92.91"/>
            <polygon class="cls-9" points="197.83 91.56 197.53 91.75 235.96 122.73 236.26 122.54 197.83 91.56"/>
          </g>
        </g>
        <g>
          <polygon class="cls-15" points="114.57 113.94 114.57 115.39 126.81 108.34 126.81 106.89 114.57 113.94"/>
          <polygon class="cls-8" points="114.57 113.94 114.57 115.39 106.33 110.59 106.33 109.14 114.57 113.94"/>
          <polygon class="cls-18" points="106.33 109.14 114.57 113.94 126.81 106.89 118.55 102.09 106.33 109.14"/>
          <polygon class="cls-10" points="108.8 109.15 118.55 103.52 124.34 106.89 114.57 112.52 108.8 109.15"/>
          <polygon class="cls-15" points="118.55 104.68 123.33 107.47 124.34 106.89 118.55 103.52 108.8 109.15 109.8 109.73 118.55 104.68"/>
          <polygon class="cls-8" points="118.55 104.68 123.33 107.47 124.34 106.89 118.55 103.52 118.55 104.68"/>
        </g>
        <g>
          <polygon class="cls-15" points="132.98 103.37 132.98 104.82 145.22 97.77 145.22 96.32 132.98 103.37"/>
          <polygon class="cls-8" points="132.98 103.37 132.98 104.82 124.74 100.01 124.74 98.57 132.98 103.37"/>
          <polygon class="cls-18" points="124.74 98.57 132.98 103.37 145.22 96.32 136.97 91.52 124.74 98.57"/>
          <polygon class="cls-10" points="127.21 98.58 136.96 92.95 142.75 96.32 132.99 101.94 127.21 98.58"/>
          <polygon class="cls-15" points="136.96 94.11 141.75 96.89 142.75 96.32 136.96 92.95 127.21 98.58 128.21 99.16 136.96 94.11"/>
          <polygon class="cls-8" points="136.96 94.11 141.75 96.89 142.75 96.32 136.96 92.95 136.96 94.11"/>
        </g>
        <g>
          <polygon class="cls-15" points="151.39 92.78 151.39 94.22 163.63 87.17 163.63 85.72 151.39 92.78"/>
          <polygon class="cls-8" points="151.39 92.78 151.39 94.22 143.15 89.42 143.15 87.98 151.39 92.78"/>
          <polygon class="cls-18" points="143.15 87.98 151.39 92.78 163.63 85.72 155.38 80.92 143.15 87.98"/>
          <polygon class="cls-10" points="145.62 87.98 155.37 82.35 161.16 85.72 151.4 91.34 145.62 87.98"/>
          <polygon class="cls-15" points="155.37 83.51 160.16 86.3 161.16 85.72 155.37 82.35 145.62 87.98 146.62 88.56 155.37 83.51"/>
          <polygon class="cls-8" points="155.37 83.51 160.16 86.3 161.16 85.72 155.37 82.35 155.37 83.51"/>
        </g>
        <g>
          <polygon class="cls-15" points="169.8 82.1 169.8 83.55 182.04 76.5 182.04 75.05 169.8 82.1"/>
          <polygon class="cls-8" points="169.8 82.1 169.8 83.55 161.56 78.74 161.56 77.3 169.8 82.1"/>
          <polygon class="cls-18" points="161.56 77.3 169.8 82.1 182.04 75.05 173.79 70.25 161.56 77.3"/>
          <polygon class="cls-10" points="164.03 77.31 173.78 71.68 179.57 75.05 169.81 80.67 164.03 77.31"/>
          <polygon class="cls-15" points="173.78 72.84 178.57 75.62 179.57 75.05 173.78 71.68 164.03 77.31 165.03 77.89 173.78 72.84"/>
          <polygon class="cls-8" points="173.78 72.84 178.57 75.62 179.57 75.05 173.78 71.68 173.78 72.84"/>
        </g>
      </g>
    </g>
    <g>
      <g>
        <rect class="cls-1" x="83.79" y="248.55" width="124.76" height="23.11" rx="11.56"/>
        <path class="cls-2" d="M197,272.66H95.34a12.56,12.56,0,0,1,0-25.11H197a12.56,12.56,0,0,1,0,25.11ZM95.34,249.55a10.56,10.56,0,0,0,0,21.11H197a10.56,10.56,0,0,0,0-21.11Z"/>
      </g>
      <g>
        <path class="cls-19" d="M115.43,264.38l-.74-2.05h-3.88l-.73,2.05h-1.14l3.16-8.57h1.31l3.16,8.57Zm-4.27-3h3.19l-1.6-4.46Z"/>
        <path class="cls-19" d="M118,264.38V255h1.07v9.35Z"/>
        <path class="cls-19" d="M127.33,258.28a1.9,1.9,0,0,1,1.39.51,1.86,1.86,0,0,1,.53,1.43v4.16H128.2v-3.89a1.38,1.38,0,0,0-.33-1,1.13,1.13,0,0,0-.83-.33,1.21,1.21,0,0,0-.92.38,1.62,1.62,0,0,0-.34,1.13v3.7h-1.07v-3.85a1.42,1.42,0,0,0-.34-1,1.15,1.15,0,0,0-.85-.34,1.18,1.18,0,0,0-.91.39,1.68,1.68,0,0,0-.35,1.16v3.66h-1.05v-6h1.05v.77a1.86,1.86,0,0,1,1.64-.89,2.08,2.08,0,0,1,1,.25,1.63,1.63,0,0,1,.67.73,1.94,1.94,0,0,1,.72-.73A2.14,2.14,0,0,1,127.33,258.28Z"/>
        <path class="cls-19" d="M132.67,264.5a2.07,2.07,0,0,1-1.31-.41,1.5,1.5,0,0,1-.51-1.23,1.73,1.73,0,0,1,.16-.78,1.44,1.44,0,0,1,.49-.55,3.24,3.24,0,0,1,.7-.34,7.29,7.29,0,0,1,.91-.21l1-.16c.35-.07.53-.25.53-.55a1.06,1.06,0,0,0-.37-.9,1.6,1.6,0,0,0-1-.28,1.52,1.52,0,0,0-.94.28,1.12,1.12,0,0,0-.44.84L131,260a1.85,1.85,0,0,1,.75-1.28,2.83,2.83,0,0,1,1.63-.43,3.4,3.4,0,0,1,.87.11,2.16,2.16,0,0,1,.72.34,1.52,1.52,0,0,1,.52.64,2.48,2.48,0,0,1,.18,1v2.47a1,1,0,0,0,.14.63.58.58,0,0,0,.47.16h.1v.76h-.52a1,1,0,0,1-1.14-.81h0A2.3,2.3,0,0,1,132.67,264.5Zm.25-.86a1.59,1.59,0,0,0,1.28-.57,2.38,2.38,0,0,0,.49-1.59l-1.58.31a2.17,2.17,0,0,0-.93.33.77.77,0,0,0-.3.65.74.74,0,0,0,.29.66A1.23,1.23,0,0,0,132.92,263.64Z"/>
        <path class="cls-19" d="M140.19,264.49a2.87,2.87,0,0,1-2.15-.86,3.42,3.42,0,0,1,0-4.49,2.89,2.89,0,0,1,2.15-.86,3,3,0,0,1,1.73.52,2.7,2.7,0,0,1,1,1.46l-1,.16a1.81,1.81,0,0,0-1.76-1.26,1.75,1.75,0,0,0-1.38.61,2.65,2.65,0,0,0,0,3.23,1.78,1.78,0,0,0,1.38.61,1.81,1.81,0,0,0,1.76-1.26l1,.16a2.64,2.64,0,0,1-1,1.45A2.83,2.83,0,0,1,140.19,264.49Z"/>
        <path class="cls-19" d="M149.71,261.27v.29H145a2.08,2.08,0,0,0,.57,1.53,1.89,1.89,0,0,0,1.36.53,1.75,1.75,0,0,0,1-.29,1.88,1.88,0,0,0,.68-.79l1,.2a2.7,2.7,0,0,1-1,1.29,2.78,2.78,0,0,1-1.59.47,2.89,2.89,0,0,1-2.15-.84,3.55,3.55,0,0,1,0-4.54,2.85,2.85,0,0,1,2.12-.84,2.73,2.73,0,0,1,2,.77A3,3,0,0,1,149.71,261.27Zm-2.77-2.18a1.86,1.86,0,0,0-1.24.42,1.93,1.93,0,0,0-.63,1.24h3.59a1.85,1.85,0,0,0-.53-1.24A1.7,1.7,0,0,0,146.94,259.09Zm1.73-3.32-1.37,1.57h-.72l1.53-2Z"/>
        <path class="cls-19" d="M154.19,258.28a2.1,2.1,0,0,1,1.51.54,2,2,0,0,1,.56,1.53v4h-1v-3.79a1.43,1.43,0,0,0-.37-1.07,1.32,1.32,0,0,0-.94-.35,1.45,1.45,0,0,0-1.06.41,1.64,1.64,0,0,0-.42,1.22v3.58h-1.06v-6h1.06v.76A2,2,0,0,1,154.19,258.28Z"/>
        <path class="cls-19" d="M164,264.49a2.87,2.87,0,0,1-2.15-.86,3.42,3.42,0,0,1,0-4.49,2.89,2.89,0,0,1,2.15-.86,3,3,0,0,1,1.73.52,2.63,2.63,0,0,1,1,1.46l-1,.16a1.81,1.81,0,0,0-1.76-1.26,1.78,1.78,0,0,0-1.39.61,2.69,2.69,0,0,0,0,3.23,1.85,1.85,0,0,0,3.15-.65l1,.16a2.62,2.62,0,0,1-1,1.45A2.83,2.83,0,0,1,164,264.49Z"/>
        <path class="cls-19" d="M173.54,261.27v.29h-4.68a2.13,2.13,0,0,0,.58,1.53,1.89,1.89,0,0,0,1.36.53,1.69,1.69,0,0,0,1-.29,1.75,1.75,0,0,0,.68-.79l.95.2a2.62,2.62,0,0,1-1,1.29,2.8,2.8,0,0,1-1.59.47,2.87,2.87,0,0,1-2.15-.84,3.55,3.55,0,0,1,0-4.54,2.85,2.85,0,0,1,2.12-.84,2.69,2.69,0,0,1,2,.77A3,3,0,0,1,173.54,261.27Zm-2.77-2.18a1.86,1.86,0,0,0-1.24.42,1.93,1.93,0,0,0-.63,1.24h3.58a1.8,1.8,0,0,0-.52-1.24A1.71,1.71,0,0,0,170.77,259.09Z"/>
        <path class="cls-19" d="M178,258.28a2.06,2.06,0,0,1,1.5.54,2,2,0,0,1,.57,1.53v4H179v-3.79a1.43,1.43,0,0,0-.36-1.07,1.33,1.33,0,0,0-.94-.35,1.45,1.45,0,0,0-1.06.41,1.64,1.64,0,0,0-.42,1.22v3.58h-1.06v-6h1.06v.76A2,2,0,0,1,178,258.28Z"/>
        <path class="cls-19" d="M184,264.38a1.58,1.58,0,0,1-1.17-.43,1.61,1.61,0,0,1-.42-1.19v-3.52h-1.23v-.84h.45a.84.84,0,0,0,.66-.21,1,1,0,0,0,.2-.71V256.4h1v2h1.37v.84H183.5v3.41a.92.92,0,0,0,.22.66.85.85,0,0,0,.6.23h.55v.84Z"/>
        <path class="cls-19" d="M187.42,259.45a1.75,1.75,0,0,1,.75-.8,2.14,2.14,0,0,1,1.15-.32v1a2,2,0,0,0-1.4.45,1.88,1.88,0,0,0-.47,1.42v3.19h-1.06v-6h1Z"/>
        <path class="cls-19" d="M191.86,264.5a2.05,2.05,0,0,1-1.31-.41,1.51,1.51,0,0,1-.52-1.23,1.73,1.73,0,0,1,.17-.78,1.36,1.36,0,0,1,.49-.55,3,3,0,0,1,.7-.34,6.9,6.9,0,0,1,.91-.21l1-.16c.35-.07.53-.25.53-.55a1.06,1.06,0,0,0-.38-.9,1.56,1.56,0,0,0-.94-.28,1.5,1.5,0,0,0-.94.28,1.16,1.16,0,0,0-.45.84l-1-.21a1.85,1.85,0,0,1,.75-1.28,2.86,2.86,0,0,1,1.63-.43,3.34,3.34,0,0,1,.87.11,2.31,2.31,0,0,1,.73.34,1.43,1.43,0,0,1,.51.64,2.32,2.32,0,0,1,.19,1v2.47a1,1,0,0,0,.14.63.58.58,0,0,0,.47.16h.1v.76H195a1,1,0,0,1-1.13-.81h-.05A2.28,2.28,0,0,1,191.86,264.5Zm.24-.86a1.61,1.61,0,0,0,1.29-.57,2.44,2.44,0,0,0,.49-1.59l-1.59.31a2.27,2.27,0,0,0-.93.33.87.87,0,0,0,0,1.31A1.26,1.26,0,0,0,192.1,263.64Z"/>
        <path class="cls-19" d="M197,264.38V255h1.07v9.35Z"/>
      </g>
      <circle class="cls-20" cx="96.19" cy="260.1" r="8.08"/>
      <path class="cls-1" d="M95.84,263.41a2.47,2.47,0,0,1-1.86-.62,2.75,2.75,0,0,1-.58-1.9l1.39-.06c0,.19,0,.36,0,.49a1.59,1.59,0,0,0,.08.39.9.9,0,0,0,.18.29,1,1,0,0,0,.31.17,1.51,1.51,0,0,0,.46.06,1.08,1.08,0,0,0,.8-.28,1.09,1.09,0,0,0,0-1.45,1,1,0,0,0-.72-.25h-.26V259.2h.24a.73.73,0,0,0,.56-.24.84.84,0,0,0,.22-.6.69.69,0,0,0-.24-.57,1,1,0,0,0-.64-.2,1,1,0,0,0-.37.07.72.72,0,0,0-.25.16.68.68,0,0,0-.14.25,1.09,1.09,0,0,0-.07.3,2.88,2.88,0,0,0,0,.32l-1.36-.06a2.15,2.15,0,0,1,.58-1.63,2.2,2.2,0,0,1,1.61-.57,2.27,2.27,0,0,1,1.55.52,1.6,1.6,0,0,1,.61,1.29,1.4,1.4,0,0,1-.26.87,1.44,1.44,0,0,1-.59.52,1.63,1.63,0,0,1,.81.52,1.37,1.37,0,0,1,.28.49,2,2,0,0,1,.1.66,1.9,1.9,0,0,1-.67,1.53A2.66,2.66,0,0,1,95.84,263.41Z"/>
    </g>
  </g>
</svg>
