<svg xmlns="http://www.w3.org/2000/svg" width="292.34" height="272.66" viewBox="0 0 292.34 272.66">
  <defs>
    <style>
      .cls-1 {
        isolation: isolate;
      }

      .cls-2 {
        fill: #fff;
      }

      .cls-3 {
        fill: #b6cade;
      }

      .cls-4 {
        fill: #9faf84;
      }

      .cls-5 {
        fill: #969b75;
      }

      .cls-6 {
        fill: #6b634e;
      }

      .cls-7 {
        fill: #4c4638;
      }

      .cls-8 {
        fill: #7aa05c;
      }

      .cls-9 {
        fill: #577750;
      }

      .cls-10 {
        fill: #91c15d;
      }

      .cls-11 {
        fill: #7f7453;
      }

      .cls-12 {
        fill: #594f35;
      }

      .cls-13 {
        fill: #b4b5a7;
      }

      .cls-14 {
        fill: #a39f8d;
      }

      .cls-15 {
        fill: #f6d9b7;
      }

      .cls-16 {
        fill: #bbbdbf;
      }

      .cls-16, .cls-22 {
        mix-blend-mode: multiply;
      }

      .cls-17 {
        fill: #afaaa1;
      }

      .cls-18 {
        fill: #e2ebed;
      }

      .cls-19 {
        fill: #81a9c1;
      }

      .cls-20 {
        fill: #5793aa;
      }

      .cls-21 {
        fill: #77878c;
      }

      .cls-22 {
        fill: #a6a8ab;
      }

      .cls-23 {
        fill: #c15d67;
      }

      .cls-24 {
        fill: #e09090;
      }

      .cls-25 {
        fill: #6f85bc;
      }

      .cls-26 {
        fill: #cadce5;
      }

      .cls-27 {
        fill: #dfe5ea;
      }

      .cls-28 {
        fill: #c9c8c1;
      }

      .cls-29 {
        fill: #1e234f;
      }

      .cls-30 {
        fill: #f8a700;
      }
    </style>
  </defs>
  <g class="cls-1">
    <g id="Layer_1" data-name="Layer 1">
      <g>
        <g>
          <rect class="cls-2" x="1" y="1" width="290.34" height="259.1" rx="17.86"/>
          <path class="cls-3" d="M273.48,261.1H18.86A18.88,18.88,0,0,1,0,242.24V18.86A18.88,18.88,0,0,1,18.86,0H273.48a18.88,18.88,0,0,1,18.86,18.86V242.24A18.88,18.88,0,0,1,273.48,261.1ZM18.86,2A16.88,16.88,0,0,0,2,18.86V242.24A16.88,16.88,0,0,0,18.86,259.1H273.48a16.87,16.87,0,0,0,16.86-16.86V18.86A16.87,16.87,0,0,0,273.48,2Z"/>
        </g>
        <g>
          <g>
            <polygon class="cls-4" points="34.68 132.76 18.51 123.4 65.95 96.01 67.66 97 67.66 100.32 65.59 101.55 65.59 112.63 67.57 113.77 34.68 132.76"/>
            <polygon class="cls-5" points="18.51 126.5 34.68 135.86 34.68 132.76 18.51 123.4 18.51 126.5"/>
            <g>
              <path class="cls-6" d="M36.61,123.1v-9.82l-2.77,1.61-2.77-1.61v9.82c-.15.5.11,1,.78,1.42a4.43,4.43,0,0,0,4,0C36.5,124.13,36.75,123.6,36.61,123.1Z"/>
              <path class="cls-7" d="M36.61,123.1v-9.82l-2.77,1.61V125a4.15,4.15,0,0,0,2-.47C36.5,124.13,36.75,123.6,36.61,123.1Z"/>
              <path class="cls-8" d="M33.89,105.88a9.77,9.77,0,0,0-7.77,3.86,9.35,9.35,0,0,0-.65,1.55,10.3,10.3,0,0,0-1,1.67,10.17,10.17,0,0,0-.36,2.08c0,.2-.35.53-.35.74s.34.28.35.49a4.15,4.15,0,0,0,.36,1c.09.18,1.06.06,1.18.23s-.48.78-.24,1A7.72,7.72,0,0,0,27,119.66a8.36,8.36,0,0,0,2.38,1.16,20.67,20.67,0,0,0,4.55.49V105.88Z"/>
              <path class="cls-9" d="M43.63,116.27c0-.21,0-.41,0-.62s0-.41,0-.61c-.05-.82.28-1.38,0-2.13a14.19,14.19,0,0,0-1.43-2.32c-.23-.38-.58-.44-.86-.78s-.3-.77-.51-1a9.73,9.73,0,0,0-7-2.94v8.61l-.55.28.55,2.27-.34.9.34,1.61-.9,1.18.9.58a15.07,15.07,0,0,0,3.94-.23c.26-.07.62-.41.87-.49.76-.25,0-1.22.63-1.59.29-.17,2.05.32,2.29.14a6.59,6.59,0,0,0,1.05-1c.24-.28-.08-.78.08-1.08S43.57,116.62,43.63,116.27Z"/>
              <path class="cls-10" d="M38.52,112.49c-.61,1-2.84,1.65-2.84,1.65a11,11,0,0,0-2.64-.86,10.78,10.78,0,0,1-2,0,4.53,4.53,0,0,0-1.39,0,3.38,3.38,0,0,0-.52-.79,7.63,7.63,0,0,1-1.52-1.35l.13-.67s-.6-.78-.48-1.24a3.65,3.65,0,0,1,1.87-2.14,10.36,10.36,0,0,1,9.36,0,3.69,3.69,0,0,1,1.86,2.11,2.31,2.31,0,0,1-.15,1.59C39.94,111.42,39,111.66,38.52,112.49Z"/>
              <path class="cls-6" d="M36.23,109.37v-8.46l-2.38,1.38-2.39-1.38v8.46c-.13.43.09.89.67,1.22a3.77,3.77,0,0,0,3.43,0C36.14,110.26,36.36,109.8,36.23,109.37Z"/>
              <path class="cls-7" d="M36.23,109.37v-8.46l-2.38,1.38V111a3.52,3.52,0,0,0,1.71-.41C36.14,110.26,36.36,109.8,36.23,109.37Z"/>
              <path class="cls-8" d="M33.89,94.53a8.36,8.36,0,0,0-6.3,2.85c-.24.27-.3.82-.5,1.12s-.66.54-.86,1a9.55,9.55,0,0,0-.56.93c-.08.26.06.51,0,.78s.4.72.37,1.14c0,.18-.57.45-.57.63s0,.36,0,.53a5.9,5.9,0,0,0,.2,1.38c.12.23.42,0,.61.24s1,.39,1.44.7c.16.11,0,.5.17.6s.72,0,.93.1c.42.2.55.6,1,.74a13.35,13.35,0,0,0,4,.59V94.53Z"/>
              <path class="cls-9" d="M42.29,103.48c0-.17-.48-.28-.48-.46s.49-.42.48-.6a9.3,9.3,0,0,0-.16-1.18A14.91,14.91,0,0,0,42,99.46c-.12-.33-.49-.13-.66-.44-.29-.55-.7-.64-1.1-1.11-.23-.27-.42-1-.68-1.19a8.37,8.37,0,0,0-5.66-2.19v7.2l-.23,1.08.23,1.21v1.08l-.9.7.9,2a13.59,13.59,0,0,0,4.41-.71,9.35,9.35,0,0,0,1.48-1,7.16,7.16,0,0,0,1.52-.86c.21-.23.6-.29.75-.53A3.93,3.93,0,0,0,42.29,103.48Z"/>
              <path class="cls-11" d="M35.52,93.9V88l-1.66,1L32.2,88v5.9c-.09.3.06.62.46.85a2.67,2.67,0,0,0,2.4,0C35.46,94.52,35.61,94.2,35.52,93.9Z"/>
              <path class="cls-12" d="M35.52,93.9V88l-1.66,1V95a2.48,2.48,0,0,0,1.2-.29C35.46,94.52,35.61,94.2,35.52,93.9Z"/>
              <path class="cls-11" d="M35.52,93.9V88l-1.66,1L32.2,88v5.9c-.09.3.06.62.46.85a2.67,2.67,0,0,0,2.4,0C35.46,94.52,35.61,94.2,35.52,93.9Z"/>
              <path class="cls-12" d="M35.52,93.9V88l-1.66,1V95a2.48,2.48,0,0,0,1.2-.29C35.46,94.52,35.61,94.2,35.52,93.9Z"/>
              <path class="cls-10" d="M37.88,100.23a7.77,7.77,0,0,1-2.9.9l-.49,0c-1.1.07-3.19,0-3.19,0s-1.05-.71-1.49-1a4.14,4.14,0,0,1-1.11-.9,1.44,1.44,0,0,1-.14-1s-.42-.31-.42-.44a2.86,2.86,0,0,1,1.67-2.31,9,9,0,0,1,8.07,0,1.88,1.88,0,0,1,.7,1.52s1,.44,1,.7a2.13,2.13,0,0,1-.13.82,2.8,2.8,0,0,1-.64,1A4.39,4.39,0,0,1,37.88,100.23Z"/>
              <path class="cls-6" d="M35.52,96.74v-5.9l-1.66,1-1.66-1v5.9c-.09.3.06.62.46.86a2.67,2.67,0,0,0,2.4,0C35.46,97.36,35.61,97,35.52,96.74Z"/>
              <path class="cls-7" d="M35.52,96.74v-5.9l-1.66,1v6.07a2.47,2.47,0,0,0,1.2-.28C35.46,97.36,35.61,97,35.52,96.74Z"/>
              <path class="cls-8" d="M33.89,86.4a6,6,0,0,0-2.07,0c-.32.11-.58.62-.86.78a6.06,6.06,0,0,0-1.44,1.17,6.41,6.41,0,0,0-.41,1.51s-.51-.16-.65.19A6,6,0,0,0,28,91.9c0,.12-.18.26-.18.39a.91.91,0,0,0,.18.35,4.35,4.35,0,0,0,.13.44c.14.32,1.17.61,1.17.61s0,.78.39,1,.51.55.77.66c.45.19.91,0,1.41.14a10,10,0,0,0,2,.2V86.4Z"/>
              <path class="cls-9" d="M39.75,92.64c0-.12-.47-.28-.47-.41s.47-.33.47-.33.18-1.52-.28-1.93c-2.21-2-1.31-1.89-2.26-2.55a10.86,10.86,0,0,0-1.73-.81,4.55,4.55,0,0,1-1,.15c-.26,0-.28-.36-.56-.36v2l-.28,1.42.28,1.48-.17.62.17,1-.65,1,.65.16v1.62A2.7,2.7,0,0,0,36,95c.32-.29,1.32,0,1.32,0s.51-.23.74-.37A3.16,3.16,0,0,0,39.75,92.64Z"/>
            </g>
            <g>
              <path class="cls-6" d="M60.21,110.79V101l-2.77,1.61L54.67,101v9.82c-.15.5.11,1,.78,1.42a4.43,4.43,0,0,0,4,0C60.1,111.82,60.35,111.29,60.21,110.79Z"/>
              <path class="cls-7" d="M60.21,110.79V101l-2.77,1.61v10.1a4.15,4.15,0,0,0,2-.47C60.1,111.82,60.35,111.29,60.21,110.79Z"/>
              <path class="cls-8" d="M57.49,93.57a9.73,9.73,0,0,0-7.76,3.86A8.6,8.6,0,0,0,49.07,99a10.3,10.3,0,0,0-1,1.67,10.17,10.17,0,0,0-.36,2.08c0,.2-.35.53-.35.74s.34.28.35.49a4,4,0,0,0,.36,1c.09.18,1.06.06,1.18.23s-.48.78-.24,1a7.72,7.72,0,0,0,1.51,1.13,8.36,8.36,0,0,0,2.38,1.16,20.67,20.67,0,0,0,4.55.49V93.57Z"/>
              <path class="cls-9" d="M67.23,104c0-.21,0-.41,0-.62s0-.41,0-.61c0-.82.28-1.38,0-2.13a14.19,14.19,0,0,0-1.43-2.32c-.23-.38-.58-.44-.86-.78s-.3-.77-.51-1a9.73,9.73,0,0,0-7-2.94v8.61l-.55.28.55,2.27-.34.9.34,1.61-.9,1.18.9.58a15.07,15.07,0,0,0,3.94-.23c.26-.07.62-.41.87-.49.76-.25,0-1.22.63-1.59.29-.17,2.05.32,2.29.14a6.59,6.59,0,0,0,1-1c.24-.28-.08-.78.08-1.08S67.17,104.31,67.23,104Z"/>
              <path class="cls-10" d="M62.12,100.18c-.61,1-2.84,1.65-2.84,1.65a10.79,10.79,0,0,0-2.64-.86,10.67,10.67,0,0,1-2,0,4.59,4.59,0,0,0-1.4,0,3.38,3.38,0,0,0-.52-.79,7.63,7.63,0,0,1-1.52-1.35l.13-.67s-.6-.78-.48-1.24a3.65,3.65,0,0,1,1.87-2.14,10.36,10.36,0,0,1,9.36,0A3.69,3.69,0,0,1,64,96.89a2.31,2.31,0,0,1-.15,1.59C63.54,99.11,62.62,99.35,62.12,100.18Z"/>
              <path class="cls-6" d="M59.83,97.06V88.6L57.45,90,55.06,88.6v8.46c-.13.43.09.89.67,1.22a3.77,3.77,0,0,0,3.43,0C59.74,98,60,97.49,59.83,97.06Z"/>
              <path class="cls-7" d="M59.83,97.06V88.6L57.45,90v8.71a3.52,3.52,0,0,0,1.71-.41C59.74,98,60,97.49,59.83,97.06Z"/>
              <path class="cls-8" d="M57.49,82.22a8.36,8.36,0,0,0-6.3,2.85c-.24.27-.3.82-.5,1.12s-.66.54-.85,1a8,8,0,0,0-.57.93c-.08.26.06.51,0,.78s.4.72.38,1.14c0,.18-.58.45-.58.63s0,.36,0,.53a5.9,5.9,0,0,0,.2,1.38c.12.23.42,0,.61.24s1,.39,1.45.7c.15.11,0,.5.16.6s.72,0,.93.1c.42.2.55.6,1,.74a13.35,13.35,0,0,0,4,.59V82.22Z"/>
              <path class="cls-9" d="M65.89,91.17c0-.17-.48-.28-.48-.46s.49-.42.48-.6a9.3,9.3,0,0,0-.16-1.18,14.91,14.91,0,0,0-.14-1.78c-.12-.33-.49-.13-.66-.44-.29-.55-.7-.64-1.1-1.11-.23-.27-.42-.95-.68-1.19a8.37,8.37,0,0,0-5.66-2.19v7.2l-.23,1.08.23,1.21v1.08l-.9.7.9,2a13.59,13.59,0,0,0,4.41-.71,9.35,9.35,0,0,0,1.48-1A7.16,7.16,0,0,0,64.9,93c.21-.23.6-.29.75-.53A3.93,3.93,0,0,0,65.89,91.17Z"/>
              <path class="cls-11" d="M59.12,81.59v-5.9l-1.66,1-1.66-1v5.9c-.09.3.06.62.47.85a2.65,2.65,0,0,0,2.39,0C59.06,82.21,59.21,81.89,59.12,81.59Z"/>
              <path class="cls-12" d="M59.12,81.59v-5.9l-1.66,1v6.08a2.48,2.48,0,0,0,1.2-.29C59.06,82.21,59.21,81.89,59.12,81.59Z"/>
              <path class="cls-11" d="M59.12,81.59v-5.9l-1.66,1-1.66-1v5.9c-.09.3.06.62.47.85a2.65,2.65,0,0,0,2.39,0C59.06,82.21,59.21,81.89,59.12,81.59Z"/>
              <path class="cls-12" d="M59.12,81.59v-5.9l-1.66,1v6.08a2.48,2.48,0,0,0,1.2-.29C59.06,82.21,59.21,81.89,59.12,81.59Z"/>
              <path class="cls-10" d="M61.48,87.92a7.77,7.77,0,0,1-2.9.9l-.49,0c-1.1.07-3.19,0-3.19,0s-1-.71-1.49-1A4.14,4.14,0,0,1,52.3,87a1.44,1.44,0,0,1-.14-1s-.42-.31-.42-.44a2.87,2.87,0,0,1,1.67-2.31,9,9,0,0,1,8.07,0,1.88,1.88,0,0,1,.7,1.52s1,.44,1,.7a2.13,2.13,0,0,1-.13.82,2.8,2.8,0,0,1-.64,1A4.39,4.39,0,0,1,61.48,87.92Z"/>
              <path class="cls-6" d="M59.12,84.43v-5.9l-1.66,1-1.66-1v5.9c-.09.3.06.62.47.86a2.65,2.65,0,0,0,2.39,0C59.06,85.05,59.21,84.73,59.12,84.43Z"/>
              <path class="cls-7" d="M59.12,84.43v-5.9l-1.66,1v6.07a2.47,2.47,0,0,0,1.2-.28C59.06,85.05,59.21,84.73,59.12,84.43Z"/>
              <path class="cls-8" d="M57.49,74.09a6,6,0,0,0-2.07,0c-.32.11-.58.62-.86.78A6.06,6.06,0,0,0,53.12,76a6.41,6.41,0,0,0-.41,1.51s-.51-.16-.65.19a6,6,0,0,0-.42,1.85c0,.12-.18.26-.18.39a.91.91,0,0,0,.18.35,4.35,4.35,0,0,0,.13.44c.14.32,1.17.61,1.17.61s0,.78.39,1,.51.55.77.66c.45.19.91,0,1.41.14a10,10,0,0,0,2,.2V74.09Z"/>
              <path class="cls-9" d="M63.35,80.33c0-.12-.47-.28-.47-.41s.47-.33.47-.33.18-1.52-.28-1.93c-2.2-2-1.31-1.89-2.26-2.55a10.86,10.86,0,0,0-1.73-.81,4.55,4.55,0,0,1-1,.15c-.26,0-.28-.36-.56-.36v2l-.28,1.42L57.49,79l-.17.62.17,1-.65,1,.65.16v1.62a2.7,2.7,0,0,0,2.11-.63c.32-.29,1.32,0,1.32,0s.51-.23.74-.37A3.16,3.16,0,0,0,63.35,80.33Z"/>
            </g>
          </g>
          <g>
            <polygon class="cls-13" points="34.68 132.76 34.68 135.86 181.72 220.74 181.72 217.64 34.68 132.76"/>
            <polygon class="cls-14" points="181.72 217.64 181.72 220.74 273.82 167.59 273.82 164.49 181.72 217.64"/>
            <polygon class="cls-15" points="126.78 79.6 34.68 132.76 181.72 217.64 273.82 164.49 126.78 79.6"/>
          </g>
          <g>
            <g>
              <polygon class="cls-16" points="115.01 163.22 115.01 158.09 104.66 158.09 100.22 163.13 115.01 163.22"/>
              <polygon class="cls-16" points="119.46 174.34 123.9 153.88 131.75 149.36 158.01 164.47 158.01 174.34 119.46 174.34"/>
            </g>
            <polygon class="cls-16" points="273.83 164.47 205.5 125.01 181.99 190.45 228.82 190.45 273.83 164.47"/>
            <g>
              <polygon class="cls-17" points="91.63 138.38 102.18 132.27 102.18 69.05 91.63 75.16 91.63 138.38"/>
              <polygon class="cls-18" points="91.63 138.41 67.66 124.61 67.66 61.39 91.63 75.2 91.63 138.41"/>
              <g>
                <g>
                  <polygon class="cls-2" points="97.86 79 95.79 77.77 91.39 80.27 67.66 66.59 65.59 67.82 91.37 82.71 91.39 82.7 91.41 82.71 97.86 79"/>
                  <polygon class="cls-16" points="97.86 79 95.79 77.77 91.39 80.27 95.65 80.27 97.86 79"/>
                  <g>
                    <polygon class="cls-19" points="91.41 93.78 65.59 78.9 65.59 67.83 91.41 82.71 91.41 93.78"/>
                    <polygon class="cls-20" points="91.41 93.78 97.86 90.06 97.86 79 91.41 82.72 91.41 93.78"/>
                    <polygon class="cls-16" points="72.04 82.63 71.14 82.12 71.14 71.07 72.04 71.58 72.04 82.63"/>
                    <polygon class="cls-16" points="78.5 86.35 77.6 85.84 77.6 74.8 78.5 75.3 78.5 86.35"/>
                    <polygon class="cls-16" points="84.95 90.06 84.06 89.55 84.06 78.5 84.95 79.01 84.95 90.06"/>
                    <polygon class="cls-16" points="91.41 93.78 90.51 93.27 90.51 82.22 91.41 82.73 91.41 93.78"/>
                    <polygon class="cls-16" points="96.97 90.55 97.86 90.04 97.86 79 96.97 79.5 96.97 90.55"/>
                  </g>
                </g>
                <g>
                  <polygon class="cls-2" points="97.86 95.9 95.79 94.67 91.39 97.18 67.66 83.5 65.59 84.73 91.37 99.61 91.39 99.6 91.41 99.61 97.86 95.9"/>
                  <polygon class="cls-16" points="97.86 95.9 95.79 94.67 91.39 97.18 95.65 97.18 97.86 95.9"/>
                  <g>
                    <polygon class="cls-19" points="91.41 110.68 65.59 95.8 65.59 84.73 91.41 99.61 91.41 110.68"/>
                    <polygon class="cls-20" points="91.41 110.69 97.86 106.97 97.86 95.9 91.41 99.62 91.41 110.69"/>
                    <polygon class="cls-16" points="72.04 99.53 71.14 99.02 71.14 87.98 72.04 88.48 72.04 99.53"/>
                    <polygon class="cls-16" points="78.5 103.25 77.6 102.74 77.6 91.7 78.5 92.21 78.5 103.25"/>
                    <polygon class="cls-16" points="84.95 106.96 84.06 106.45 84.06 95.41 84.95 95.92 84.95 106.96"/>
                    <polygon class="cls-16" points="91.41 110.68 90.51 110.17 90.51 99.13 91.41 99.63 91.41 110.68"/>
                    <polygon class="cls-16" points="96.97 107.45 97.86 106.94 97.86 95.9 96.97 96.41 96.97 107.45"/>
                  </g>
                </g>
                <g>
                  <polygon class="cls-2" points="97.86 112.72 95.79 111.5 91.39 114 67.66 100.32 65.59 101.55 91.37 116.44 91.39 116.43 91.41 116.44 97.86 112.72"/>
                  <polygon class="cls-16" points="97.86 112.72 95.79 111.5 91.39 114 95.65 114 97.86 112.72"/>
                  <g>
                    <polygon class="cls-19" points="91.41 127.5 65.59 112.63 65.59 101.56 91.41 116.44 91.41 127.5"/>
                    <polygon class="cls-20" points="91.41 127.51 97.86 123.79 97.86 112.72 91.41 116.44 91.41 127.51"/>
                    <polygon class="cls-16" points="72.04 116.36 71.14 115.85 71.14 104.8 72.04 105.31 72.04 116.36"/>
                    <polygon class="cls-16" points="78.5 120.08 77.6 119.57 77.6 108.52 78.5 109.03 78.5 120.08"/>
                    <polygon class="cls-16" points="84.95 123.79 84.06 123.28 84.06 112.23 84.95 112.74 84.95 123.79"/>
                    <polygon class="cls-16" points="91.41 127.5 90.51 127 90.51 115.95 91.41 116.46 91.41 127.5"/>
                    <polygon class="cls-16" points="96.97 124.28 97.86 123.77 97.86 112.72 96.97 113.23 96.97 124.28"/>
                  </g>
                </g>
              </g>
            </g>
            <g>
              <polygon class="cls-18" points="168.56 170.63 102.18 132.27 102.18 69.05 168.56 107.42 168.56 170.63"/>
              <g>
                <polygon class="cls-16" points="154.3 162.4 131.75 149.36 143.83 142.36 143.83 122.39 144.83 121.81 144.83 118.61 154.3 128.16 154.3 162.4"/>
                <polygon class="cls-21" points="131.75 149.36 143.83 156.34 143.83 142.37 131.75 149.36"/>
                <polygon class="cls-2" points="141.82 143.54 141.82 155.18 143.83 156.34 143.83 142.37 141.82 143.54"/>
                <polygon class="cls-22" points="141.82 143.54 141.82 155.18 143.83 156.34 143.83 142.37 141.82 143.54"/>
              </g>
              <g>
                <polygon class="cls-2" points="109.36 78.09 107.28 79.32 158.89 109.09 158.91 109.08 158.93 109.09 161.04 107.88 109.36 78.09"/>
                <polygon class="cls-19" points="107.28 79.33 107.28 92.98 158.93 122.75 158.93 109.09 107.28 79.33"/>
                <polygon class="cls-16" points="113.74 96.67 112.84 96.16 112.84 82.57 113.74 83.08 113.74 96.67"/>
                <polygon class="cls-16" points="120.19 100.37 119.3 99.86 119.3 86.29 120.19 86.8 120.19 100.37"/>
                <polygon class="cls-16" points="126.65 104.08 125.75 103.57 125.75 90 126.65 90.51 126.65 104.08"/>
                <polygon class="cls-16" points="133.11 107.8 132.21 107.29 132.21 93.72 133.11 94.22 133.11 107.8"/>
                <polygon class="cls-16" points="139.56 111.55 138.66 111.04 138.66 97.46 139.56 97.97 139.56 111.55"/>
                <polygon class="cls-16" points="146.02 115.25 145.12 114.74 145.12 101.18 146.02 101.69 146.02 115.25"/>
                <polygon class="cls-16" points="152.47 119.02 151.57 118.51 151.57 104.89 152.47 105.4 152.47 119.02"/>
              </g>
              <polygon class="cls-16" points="111.64 108.03 102.18 113.53 102.18 66.07 111.64 75.62 111.64 79.41 109.57 80.61 109.57 94.29 111.64 95.49 111.64 108.03"/>
            </g>
            <g>
              <polygon class="cls-17" points="181.99 190.45 231.26 162.02 231.26 98.8 181.99 127.24 181.99 190.45"/>
              <g>
                <polygon class="cls-18" points="181.99 190.45 158.01 176.65 158.01 113.43 181.99 127.24 181.99 190.45"/>
                <g>
                  <polygon class="cls-2" points="201.35 140.69 199.28 139.46 181.97 149.44 158.24 135.76 156.16 136.99 181.95 151.88 181.97 151.87 181.99 151.88 201.35 140.69"/>
                  <polygon class="cls-16" points="201.35 140.69 199.28 139.46 181.97 149.44 186.23 149.44 201.35 140.69"/>
                  <g>
                    <polygon class="cls-19" points="181.99 162.94 156.16 148.07 156.16 137 181.99 151.88 181.99 162.94"/>
                    <polygon class="cls-20" points="181.99 162.95 201.35 151.75 201.35 140.69 181.99 151.88 181.99 162.95"/>
                    <polygon class="cls-16" points="162.62 151.8 161.72 151.29 161.72 140.24 162.62 140.75 162.62 151.8"/>
                    <polygon class="cls-16" points="169.07 155.52 168.18 155.01 168.18 143.96 169.07 144.47 169.07 155.52"/>
                    <polygon class="cls-16" points="175.53 159.23 174.63 158.72 174.63 147.67 175.53 148.18 175.53 159.23"/>
                    <polygon class="cls-16" points="181.99 162.94 181.09 162.44 181.09 151.39 181.99 151.9 181.99 162.94"/>
                    <polygon class="cls-16" points="187.54 159.72 188.44 159.21 188.44 148.16 187.54 148.67 187.54 159.72"/>
                    <polygon class="cls-16" points="194 155.98 194.9 155.47 194.9 144.43 194 144.93 194 155.98"/>
                    <polygon class="cls-16" points="200.45 152.25 201.35 151.75 201.35 140.7 200.45 141.21 200.45 152.25"/>
                  </g>
                </g>
                <g>
                  <polygon class="cls-2" points="201.35 157.51 199.28 156.28 181.97 166.27 158.24 152.59 156.16 153.82 181.95 168.7 181.97 168.69 181.99 168.7 201.35 157.51"/>
                  <polygon class="cls-16" points="201.35 157.51 199.28 156.28 181.97 166.27 186.23 166.27 201.35 157.51"/>
                  <g>
                    <polygon class="cls-19" points="181.99 179.77 156.16 164.89 156.16 153.82 181.99 168.7 181.99 179.77"/>
                    <polygon class="cls-20" points="181.99 179.78 201.35 168.58 201.35 157.51 181.99 168.71 181.99 179.78"/>
                    <polygon class="cls-16" points="162.62 168.62 161.72 168.11 161.72 157.07 162.62 157.58 162.62 168.62"/>
                    <polygon class="cls-16" points="169.07 172.34 168.18 171.84 168.18 160.79 169.07 161.3 169.07 172.34"/>
                    <polygon class="cls-16" points="175.53 176.05 174.63 175.54 174.63 164.5 175.53 165.01 175.53 176.05"/>
                    <polygon class="cls-16" points="181.99 179.77 181.09 179.26 181.09 168.22 181.99 168.72 181.99 179.77"/>
                    <polygon class="cls-16" points="187.54 176.54 188.44 176.04 188.44 164.99 187.54 165.5 187.54 176.54"/>
                    <polygon class="cls-16" points="194 172.81 194.9 172.3 194.9 161.25 194 161.76 194 172.81"/>
                    <polygon class="cls-16" points="200.45 169.08 201.35 168.57 201.35 157.53 200.45 158.03 200.45 169.08"/>
                  </g>
                </g>
                <g>
                  <polygon class="cls-2" points="201.35 123.78 199.28 122.56 181.97 132.54 158.24 118.86 156.16 120.09 181.95 134.97 181.97 134.97 181.99 134.97 201.35 123.78"/>
                  <polygon class="cls-16" points="201.35 123.78 199.28 122.56 181.97 132.54 186.23 132.54 201.35 123.78"/>
                  <g>
                    <polygon class="cls-19" points="181.99 146.04 156.16 131.16 156.16 120.1 181.99 134.97 181.99 146.04"/>
                    <polygon class="cls-20" points="181.99 146.05 201.35 134.85 201.35 123.78 181.99 134.98 181.99 146.05"/>
                    <polygon class="cls-16" points="162.62 134.89 161.72 134.39 161.72 123.34 162.62 123.85 162.62 134.89"/>
                    <polygon class="cls-16" points="169.07 138.62 168.18 138.11 168.18 127.06 169.07 127.57 169.07 138.62"/>
                    <polygon class="cls-16" points="175.53 142.32 174.63 141.82 174.63 130.77 175.53 131.28 175.53 142.32"/>
                    <polygon class="cls-16" points="181.99 146.04 181.09 145.53 181.09 134.49 181.99 135 181.99 146.04"/>
                    <polygon class="cls-16" points="187.54 142.81 188.44 142.31 188.44 131.26 187.54 131.77 187.54 142.81"/>
                    <polygon class="cls-16" points="194 139.08 194.9 138.57 194.9 127.52 194 128.03 194 139.08"/>
                    <polygon class="cls-16" points="200.45 135.35 201.35 134.84 201.35 123.8 200.45 124.31 200.45 135.35"/>
                  </g>
                </g>
              </g>
              <g>
                <polygon class="cls-2" points="228.73 107.98 226.65 106.75 207.28 117.97 209.36 119.17 228.73 107.98"/>
                <g>
                  <polygon class="cls-16" points="228.73 107.98 226.65 106.75 207.28 117.97 209.36 119.17 228.73 107.98"/>
                  <g>
                    <polygon class="cls-20" points="209.36 130.24 228.73 119.05 228.73 107.98 209.36 119.18 209.36 130.24"/>
                    <polygon class="cls-20" points="209.36 130.24 207.28 129.03 207.28 117.97 209.36 119.18 209.36 130.24"/>
                    <polygon class="cls-16" points="209.36 130.24 208.47 129.73 208.47 118.68 209.36 119.19 209.36 130.24"/>
                    <polygon class="cls-16" points="214.92 127.01 215.82 126.5 215.82 115.46 214.92 115.96 214.92 127.01"/>
                    <polygon class="cls-16" points="221.38 123.27 222.27 122.76 222.27 111.72 221.38 112.22 221.38 123.27"/>
                    <polygon class="cls-16" points="227.83 119.55 228.73 119.04 228.73 107.99 227.83 108.5 227.83 119.55"/>
                  </g>
                </g>
              </g>
              <g>
                <polygon class="cls-2" points="228.73 124.83 226.65 123.6 207.28 134.82 209.36 136.02 228.73 124.83"/>
                <g>
                  <polygon class="cls-16" points="228.73 124.83 226.65 123.6 207.28 134.82 209.36 136.02 228.73 124.83"/>
                  <g>
                    <polygon class="cls-20" points="209.36 147.1 228.73 135.9 228.73 124.83 209.36 136.03 209.36 147.1"/>
                    <polygon class="cls-20" points="209.36 147.1 207.28 145.89 207.28 134.82 209.36 136.03 209.36 147.1"/>
                    <polygon class="cls-16" points="209.36 147.09 208.47 146.58 208.47 135.54 209.36 136.04 209.36 147.09"/>
                    <polygon class="cls-16" points="214.92 143.87 215.82 143.36 215.82 132.31 214.92 132.82 214.92 143.87"/>
                    <polygon class="cls-16" points="221.38 140.13 222.27 139.62 222.27 128.57 221.38 129.08 221.38 140.13"/>
                    <polygon class="cls-16" points="227.83 136.4 228.73 135.89 228.73 124.85 227.83 125.35 227.83 136.4"/>
                  </g>
                </g>
              </g>
              <g>
                <polygon class="cls-2" points="228.73 141.74 226.65 140.51 207.28 151.72 209.36 152.93 228.73 141.74"/>
                <g>
                  <polygon class="cls-16" points="228.73 141.74 226.65 140.51 207.28 151.72 209.36 152.93 228.73 141.74"/>
                  <g>
                    <polygon class="cls-20" points="209.36 164 228.73 152.8 228.73 141.74 209.36 152.93 209.36 164"/>
                    <polygon class="cls-20" points="209.36 164 207.28 162.79 207.28 151.72 209.36 152.93 209.36 164"/>
                    <polygon class="cls-16" points="209.36 163.99 208.47 163.49 208.47 152.44 209.36 152.95 209.36 163.99"/>
                    <polygon class="cls-16" points="214.92 160.77 215.82 160.26 215.82 149.21 214.92 149.72 214.92 160.77"/>
                    <polygon class="cls-16" points="221.38 157.03 222.27 156.52 222.27 145.47 221.38 145.98 221.38 157.03"/>
                    <polygon class="cls-16" points="227.83 153.3 228.73 152.8 228.73 141.75 227.83 142.26 227.83 153.3"/>
                  </g>
                </g>
              </g>
            </g>
            <g>
              <polygon class="cls-17" points="123.9 171.77 119.46 174.34 119.46 156.49 123.9 153.88 123.9 171.77"/>
              <polygon class="cls-17" points="104.66 160.53 100.22 163.13 100.22 145.35 104.66 147.93 104.66 160.53"/>
              <polygon class="cls-18" points="95.77 118.44 95.77 142.64 95.77 142.77 95.77 160.53 100.22 163.13 100.22 145.35 115.01 153.96 115.01 171.77 119.46 174.34 119.46 156.55 119.46 132.12 95.77 118.44"/>
              <polygon class="cls-17" points="119.46 132.12 119.46 156.49 143.83 142.35 143.83 117.97 119.46 132.12"/>
              <polygon class="cls-17" points="119.09 112.26 100.88 122.82 100.88 119.63 119.09 109.07 119.09 112.26"/>
              <polygon class="cls-18" points="119.09 112.26 137.3 122.82 137.3 119.63 119.09 109.07 119.09 112.26"/>
              <polygon class="cls-23" points="144.83 121.79 119.46 136.5 119.46 133.31 144.83 118.6 144.83 121.79"/>
              <polygon class="cls-24" points="93.72 121.64 119.46 136.5 119.46 133.31 93.72 118.44 93.72 121.64"/>
              <path class="cls-2" d="M119.09,103.71,93.72,118.44l25.74,14.87,25.37-14.73ZM103,118.43l16.12-9.36,16.49,9.52L119.45,128Z"/>
              <path class="cls-2" d="M112.68,141.9c0,3.88-2.73,5.46-6.09,3.51a13.44,13.44,0,0,1-6.1-10.55c0-3.89,2.73-5.46,6.1-3.52A13.48,13.48,0,0,1,112.68,141.9Z"/>
              <polygon class="cls-25" points="111.09 139.2 108.13 137.49 108.13 134.07 105.05 132.29 105.05 135.71 102.09 134 102.09 137.56 105.05 139.26 105.05 142.69 108.13 144.46 108.13 141.04 111.09 142.75 111.09 139.2"/>
            </g>
            <g>
              <g>
                <polygon class="cls-17" points="117.16 36.13 74.88 60.7 74.88 57.51 117.16 32.93 117.16 36.13"/>
                <polygon class="cls-26" points="117.1 36.1 72.81 61.67 91.63 72.48 102.18 66.36 173.73 107.71 163.19 113.73 181.99 124.56 226.11 99.08 117.1 36.1"/>
                <polygon class="cls-24" points="65.59 60.71 91.64 75.67 91.64 72.48 65.59 57.52 65.59 60.71"/>
                <polygon class="cls-18" points="117.16 36.13 224.05 98.11 224.05 94.92 117.16 32.93 117.16 36.13"/>
                <polygon class="cls-17" points="175.8 106.74 165.3 112.75 165.3 109.56 175.8 103.55 175.8 106.74"/>
                <polygon class="cls-23" points="181.99 124.55 181.99 127.77 233.32 98.13 233.32 94.92 181.99 124.55"/>
                <polygon class="cls-24" points="102.18 66.37 102.18 69.58 163.7 105.12 166.5 103.53 102.18 66.37"/>
                <polygon class="cls-23" points="91.64 72.48 91.64 75.69 102.18 69.58 102.18 66.37 91.64 72.48"/>
                <path class="cls-2" d="M117.11,27.77,65.59,57.52l2.8,1.61L91.63,72.48l10.55-6.11,64.32,37.16-2.8,1.59-7.76,4.43,2.8,1.62L182,124.55l51.33-29.63ZM173,105.15l2.79-1.6L117,69.6,102.18,61l-6.75,3.91-3.81,2.21-8.39-4.82-5.57-3.2-2.78-1.6L117.1,33.12,218.45,91.68l5.6,3.24-2.78,1.6L182,119.2l-13.93-8-2.8-1.61Z"/>
                <polygon class="cls-24" points="158.74 111.17 155.94 109.56 155.94 112.75 155.95 112.76 155.94 112.77 181.99 127.77 181.99 124.55 158.74 111.17"/>
              </g>
              <g>
                <path class="cls-16" d="M126.81,54.83A9.57,9.57,0,0,1,122.12,56h-3.67l-1-6.53a18.42,18.42,0,0,1,4.68-1.12,9.57,9.57,0,0,1,4.69,1.12C129.4,50.92,129.4,53.34,126.81,54.83Z"/>
                <g>
                  <path class="cls-27" d="M114,54.88a9.85,9.85,0,0,0,9,0,3.14,3.14,0,0,0,1.86-2.59V48.91H112.1v3.38A3.14,3.14,0,0,0,114,54.88Z"/>
                  <path class="cls-28" d="M118.45,56a9.11,9.11,0,0,0,4.48-1.08,3.14,3.14,0,0,0,1.86-2.59V48.91h-6.34Z"/>
                  <path class="cls-2" d="M122.93,51.36a9.91,9.91,0,0,1-9,0c-2.48-1.43-2.48-3.75,0-5.18a9.91,9.91,0,0,1,9,0C125.41,47.61,125.41,49.93,122.93,51.36Z"/>
                  <path class="cls-28" d="M121.11,50.31a5.89,5.89,0,0,1-5.33,0c-1.47-.85-1.47-2.23,0-3.08a6,6,0,0,1,5.33,0C122.58,48.08,122.58,49.46,121.11,50.31Z"/>
                </g>
              </g>
              <g>
                <path class="cls-16" d="M146.4,66.09a9.53,9.53,0,0,1-4.68,1.12H138l-1-6.53a18.41,18.41,0,0,1,4.69-1.12,9.64,9.64,0,0,1,4.68,1.12C149,62.18,149,64.6,146.4,66.09Z"/>
                <g>
                  <path class="cls-27" d="M133.55,66.14a10,10,0,0,0,9,0,3.15,3.15,0,0,0,1.85-2.59V60.17H131.7v3.38A3.15,3.15,0,0,0,133.55,66.14Z"/>
                  <path class="cls-28" d="M138,67.21a9.15,9.15,0,0,0,4.49-1.07,3.15,3.15,0,0,0,1.85-2.59V60.17H138Z"/>
                  <path class="cls-2" d="M142.53,62.62a9.93,9.93,0,0,1-9,0c-2.47-1.43-2.47-3.75,0-5.18a9.93,9.93,0,0,1,9,0C145,58.87,145,61.19,142.53,62.62Z"/>
                  <path class="cls-28" d="M140.7,61.57a5.87,5.87,0,0,1-5.32,0c-1.47-.85-1.47-2.23,0-3.08a5.93,5.93,0,0,1,5.32,0C142.17,59.34,142.17,60.72,140.7,61.57Z"/>
                </g>
              </g>
              <g>
                <path class="cls-16" d="M185.74,88.8a9.53,9.53,0,0,1-4.68,1.12h-3.68l-1-6.53a18.41,18.41,0,0,1,4.69-1.12,9.53,9.53,0,0,1,4.68,1.12C188.33,84.89,188.33,87.31,185.74,88.8Z"/>
                <g>
                  <path class="cls-27" d="M172.89,88.85a10,10,0,0,0,9,0,3.16,3.16,0,0,0,1.85-2.59V82.88H171v3.38A3.16,3.16,0,0,0,172.89,88.85Z"/>
                  <path class="cls-28" d="M177.38,89.92a9.26,9.26,0,0,0,4.49-1.07,3.16,3.16,0,0,0,1.85-2.59V82.88h-6.34Z"/>
                  <path class="cls-2" d="M181.87,85.33a9.93,9.93,0,0,1-9,0c-2.47-1.43-2.47-3.75,0-5.18a9.93,9.93,0,0,1,9,0C184.34,81.58,184.34,83.9,181.87,85.33Z"/>
                  <path class="cls-28" d="M180,84.27a5.87,5.87,0,0,1-5.32,0c-1.47-.84-1.47-2.22,0-3.07a5.87,5.87,0,0,1,5.32,0C181.51,82.05,181.51,83.43,180,84.27Z"/>
                </g>
              </g>
              <g>
                <path class="cls-16" d="M205.33,100.06a9.5,9.5,0,0,1-4.68,1.12H197l-1-6.53a18.41,18.41,0,0,1,4.69-1.12,9.53,9.53,0,0,1,4.68,1.12C207.92,96.14,207.92,98.57,205.33,100.06Z"/>
                <g>
                  <path class="cls-27" d="M192.49,100.11a9.93,9.93,0,0,0,9,0,3.16,3.16,0,0,0,1.86-2.59V94.14H190.63v3.38A3.16,3.16,0,0,0,192.49,100.11Z"/>
                  <path class="cls-28" d="M197,101.18a9.23,9.23,0,0,0,4.49-1.07,3.16,3.16,0,0,0,1.86-2.59V94.14H197Z"/>
                  <path class="cls-2" d="M201.46,96.59a9.91,9.91,0,0,1-9,0c-2.48-1.43-2.48-3.75,0-5.18a9.91,9.91,0,0,1,9,0C203.94,92.84,203.94,95.16,201.46,96.59Z"/>
                  <path class="cls-28" d="M199.64,95.53a5.89,5.89,0,0,1-5.33,0c-1.47-.84-1.47-2.22,0-3.07a5.89,5.89,0,0,1,5.33,0C201.11,93.31,201.11,94.69,199.64,95.53Z"/>
                </g>
              </g>
            </g>
          </g>
        </g>
        <g>
          <g>
            <rect class="cls-2" x="39.05" y="248.55" width="214.24" height="23.11" rx="11.56"/>
            <path class="cls-3" d="M241.74,272.66H50.61a12.56,12.56,0,1,1,0-25.11H241.74a12.56,12.56,0,0,1,0,25.11ZM50.61,249.55a10.56,10.56,0,1,0,0,21.11H241.74a10.56,10.56,0,0,0,0-21.11Z"/>
          </g>
          <g>
            <path class="cls-29" d="M70.69,264.38,70,262.33H66.08l-.74,2.05H64.21l3.16-8.57h1.3l3.16,8.57Zm-4.27-3h3.19L68,256.91Z"/>
            <path class="cls-29" d="M73.26,264.38V255h1.07v9.35Z"/>
            <path class="cls-29" d="M82.59,258.28a2,2,0,0,1,1.4.51,1.89,1.89,0,0,1,.52,1.43v4.16H83.46v-3.89a1.38,1.38,0,0,0-.33-1,1.12,1.12,0,0,0-.83-.33,1.18,1.18,0,0,0-.91.38,1.58,1.58,0,0,0-.35,1.13v3.7H80v-3.85a1.42,1.42,0,0,0-.33-1,1.19,1.19,0,0,0-.85-.34,1.15,1.15,0,0,0-.91.39,1.63,1.63,0,0,0-.35,1.16v3.66H76.47v-6h1.06v.77a1.87,1.87,0,0,1,.68-.66,2,2,0,0,1,1-.23,2.15,2.15,0,0,1,1,.25,1.67,1.67,0,0,1,.66.73,1.94,1.94,0,0,1,.72-.73A2.14,2.14,0,0,1,82.59,258.28Z"/>
            <path class="cls-29" d="M87.94,264.5a2.1,2.1,0,0,1-1.32-.41,1.5,1.5,0,0,1-.51-1.23,1.87,1.87,0,0,1,.16-.78,1.44,1.44,0,0,1,.49-.55,3.49,3.49,0,0,1,.7-.34,7.08,7.08,0,0,1,.92-.21l1-.16c.36-.07.53-.25.53-.55a1.06,1.06,0,0,0-.37-.9,1.6,1.6,0,0,0-1-.28,1.54,1.54,0,0,0-.94.28,1.12,1.12,0,0,0-.44.84l-1-.21a1.85,1.85,0,0,1,.75-1.28,2.83,2.83,0,0,1,1.63-.43,3.34,3.34,0,0,1,.87.11,2.16,2.16,0,0,1,.72.34,1.45,1.45,0,0,1,.52.64,2.48,2.48,0,0,1,.19,1v2.47a1.05,1.05,0,0,0,.13.63.58.58,0,0,0,.47.16h.1v.76h-.52a1,1,0,0,1-1.13-.81h0A2.29,2.29,0,0,1,87.94,264.5Zm.24-.86a1.59,1.59,0,0,0,1.28-.57,2.38,2.38,0,0,0,.49-1.59l-1.58.31a2.17,2.17,0,0,0-.93.33.87.87,0,0,0,0,1.31A1.23,1.23,0,0,0,88.18,263.64Z"/>
            <path class="cls-29" d="M95.45,264.49a2.83,2.83,0,0,1-2.14-.86,3,3,0,0,1-.85-2.24,3.07,3.07,0,0,1,.84-2.25,2.91,2.91,0,0,1,2.15-.86,3,3,0,0,1,1.73.52,2.65,2.65,0,0,1,1,1.46l-1,.16a1.85,1.85,0,0,0-.67-.93,1.87,1.87,0,0,0-1.09-.33,1.75,1.75,0,0,0-1.38.61,2.65,2.65,0,0,0,0,3.23,1.78,1.78,0,0,0,1.38.61,1.87,1.87,0,0,0,1.09-.33,1.85,1.85,0,0,0,.67-.93l1,.16a2.59,2.59,0,0,1-1,1.45A2.81,2.81,0,0,1,95.45,264.49Z"/>
            <path class="cls-29" d="M105,261.27l0,.29h-4.67a2.12,2.12,0,0,0,.57,1.53,1.9,1.9,0,0,0,1.36.53,1.75,1.75,0,0,0,1-.29,1.88,1.88,0,0,0,.68-.79l.95.2a2.74,2.74,0,0,1-1,1.29,2.83,2.83,0,0,1-1.59.47,2.89,2.89,0,0,1-2.16-.84,3.55,3.55,0,0,1,0-4.54,2.85,2.85,0,0,1,2.13-.84,2.72,2.72,0,0,1,2,.77A3,3,0,0,1,105,261.27Zm-2.77-2.18a1.89,1.89,0,0,0-1.25.42,2,2,0,0,0-.63,1.24h3.59a1.81,1.81,0,0,0-.53-1.24A1.69,1.69,0,0,0,102.21,259.09Zm1.72-3.32-1.36,1.57h-.73l1.53-2Z"/>
            <path class="cls-29" d="M109.45,258.28a2.1,2.1,0,0,1,1.51.54,2,2,0,0,1,.56,1.53v4h-1v-3.79a1.39,1.39,0,0,0-.37-1.07,1.29,1.29,0,0,0-.93-.35,1.47,1.47,0,0,0-1.07.41,1.64,1.64,0,0,0-.42,1.22v3.58h-1.05v-6h1.05v.76A2,2,0,0,1,109.45,258.28Z"/>
            <path class="cls-29" d="M116.79,264.38V255h1.07v9.35Z"/>
            <path class="cls-29" d="M122.52,264.5a3.21,3.21,0,0,1-1.53-.37,2.64,2.64,0,0,1-1.08-1.09,3.3,3.3,0,0,1-.4-1.65,3,3,0,0,1,.85-2.26,2.89,2.89,0,0,1,2.16-.85,2.93,2.93,0,0,1,2.17.85,3.43,3.43,0,0,1,0,4.52A3,3,0,0,1,122.52,264.5Zm0-.88a1.83,1.83,0,0,0,1.41-.61,2.62,2.62,0,0,0,0-3.24,1.93,1.93,0,0,0-2.82,0,2.62,2.62,0,0,0,0,3.24A1.81,1.81,0,0,0,122.52,263.62Z"/>
            <path class="cls-29" d="M129.67,264.49a2.83,2.83,0,0,1-2.14-.86,3,3,0,0,1-.85-2.24,3.07,3.07,0,0,1,.84-2.25,2.89,2.89,0,0,1,2.15-.86,3,3,0,0,1,1.73.52,2.65,2.65,0,0,1,1,1.46l-1,.16a1.85,1.85,0,0,0-.67-.93,1.87,1.87,0,0,0-1.09-.33,1.75,1.75,0,0,0-1.38.61,2.65,2.65,0,0,0,0,3.23,1.78,1.78,0,0,0,1.38.61,1.87,1.87,0,0,0,1.09-.33,1.85,1.85,0,0,0,.67-.93l1,.16a2.59,2.59,0,0,1-1,1.45A2.81,2.81,0,0,1,129.67,264.49Z"/>
            <path class="cls-29" d="M135.34,264.5a2.05,2.05,0,0,1-1.31-.41,1.5,1.5,0,0,1-.51-1.23,1.73,1.73,0,0,1,.16-.78,1.36,1.36,0,0,1,.49-.55,3.24,3.24,0,0,1,.7-.34,6.9,6.9,0,0,1,.91-.21l1-.16c.35-.07.53-.25.53-.55a1.06,1.06,0,0,0-.38-.9,1.56,1.56,0,0,0-.94-.28,1.5,1.5,0,0,0-.94.28,1.12,1.12,0,0,0-.44.84l-1-.21a1.85,1.85,0,0,1,.75-1.28,2.87,2.87,0,0,1,1.64-.43,3.32,3.32,0,0,1,.86.11,2.21,2.21,0,0,1,.73.34,1.52,1.52,0,0,1,.52.64,2.48,2.48,0,0,1,.18,1v2.47a1,1,0,0,0,.14.63.58.58,0,0,0,.47.16h.1v.76h-.53a1,1,0,0,1-1.13-.81h0A2.28,2.28,0,0,1,135.34,264.5Zm.25-.86a1.61,1.61,0,0,0,1.28-.57,2.44,2.44,0,0,0,.49-1.59l-1.59.31a2.17,2.17,0,0,0-.92.33.75.75,0,0,0-.31.65.77.77,0,0,0,.29.66A1.29,1.29,0,0,0,135.59,263.64Z"/>
            <path class="cls-29" d="M140.49,264.38V255h1.07v9.35Z"/>
            <path class="cls-29" d="M145.84,266.65l6-11.62h1l-6,11.62Z"/>
            <path class="cls-29" d="M159.67,264.49a2.83,2.83,0,0,1-2.14-.86,3,3,0,0,1-.85-2.24,3.07,3.07,0,0,1,.84-2.25,2.91,2.91,0,0,1,2.15-.86,3,3,0,0,1,1.73.52,2.65,2.65,0,0,1,1,1.46l-1,.16a1.79,1.79,0,0,0-.67-.93,1.87,1.87,0,0,0-1.09-.33,1.75,1.75,0,0,0-1.38.61,2.65,2.65,0,0,0,0,3.23,1.78,1.78,0,0,0,1.38.61,1.87,1.87,0,0,0,1.09-.33,1.79,1.79,0,0,0,.67-.93l1,.16a2.62,2.62,0,0,1-1,1.45A2.86,2.86,0,0,1,159.67,264.49Z"/>
            <path class="cls-29" d="M169.2,261.27l0,.29h-4.67a2.17,2.17,0,0,0,.57,1.53,1.91,1.91,0,0,0,1.37.53,1.74,1.74,0,0,0,1-.29,1.88,1.88,0,0,0,.68-.79l.95.2a2.74,2.74,0,0,1-1,1.29,2.83,2.83,0,0,1-1.59.47,2.89,2.89,0,0,1-2.16-.84,3.55,3.55,0,0,1,0-4.54,2.85,2.85,0,0,1,2.13-.84,2.72,2.72,0,0,1,2,.77A3,3,0,0,1,169.2,261.27Zm-2.77-2.18a1.89,1.89,0,0,0-1.25.42,2,2,0,0,0-.63,1.24h3.59a1.81,1.81,0,0,0-.53-1.24A1.67,1.67,0,0,0,166.43,259.09Z"/>
            <path class="cls-29" d="M173.67,258.28a2.1,2.1,0,0,1,1.51.54,2,2,0,0,1,.56,1.53v4h-1.05v-3.79a1.39,1.39,0,0,0-.37-1.07,1.29,1.29,0,0,0-.93-.35,1.47,1.47,0,0,0-1.07.41,1.64,1.64,0,0,0-.42,1.22v3.58h-1.05v-6h1.05v.76A2,2,0,0,1,173.67,258.28Z"/>
            <path class="cls-29" d="M179.69,264.38a1.55,1.55,0,0,1-1.17-.43,1.58,1.58,0,0,1-.43-1.19v-3.52h-1.22v-.84h.45a.87.87,0,0,0,.66-.21,1,1,0,0,0,.19-.71V256.4h1v2h1.38v.84h-1.38v3.41a.93.93,0,0,0,.23.66.81.81,0,0,0,.6.23h.55v.84Z"/>
            <path class="cls-29" d="M183.08,259.45a1.73,1.73,0,0,1,.74-.8,2.16,2.16,0,0,1,1.15-.32v1a2,2,0,0,0-1.39.45,1.84,1.84,0,0,0-.48,1.42v3.19h-1v-6h1Z"/>
            <path class="cls-29" d="M188.65,264.5a3.21,3.21,0,0,1-1.53-.37A2.7,2.7,0,0,1,186,263a3.3,3.3,0,0,1-.4-1.65,3,3,0,0,1,.85-2.26,3.18,3.18,0,0,1,4.33,0,3.43,3.43,0,0,1,0,4.52A3,3,0,0,1,188.65,264.5Zm0-.88a1.81,1.81,0,0,0,1.41-.61,2.59,2.59,0,0,0,0-3.24,1.93,1.93,0,0,0-2.82,0,2.66,2.66,0,0,0,0,3.24A1.83,1.83,0,0,0,188.65,263.62Z"/>
            <path class="cls-29" d="M201,255H202v9.35h-1l0-1.16a2.21,2.21,0,0,1-.85.94,2.4,2.4,0,0,1-1.27.35,2.64,2.64,0,0,1-1.08-.22,2.84,2.84,0,0,1-.9-.62,3,3,0,0,1-.6-1,3.6,3.6,0,0,1-.22-1.29,3.13,3.13,0,0,1,.81-2.24,2.62,2.62,0,0,1,2-.87,2.32,2.32,0,0,1,1.25.34,2.18,2.18,0,0,1,.86.92Zm-1.89,8.57a1.8,1.8,0,0,0,1.39-.63,2.49,2.49,0,0,0,0-3.15,1.8,1.8,0,0,0-1.39-.63,1.82,1.82,0,0,0-1.4.61,2.25,2.25,0,0,0-.57,1.59,2.21,2.21,0,0,0,.57,1.59A1.83,1.83,0,0,0,199.09,263.6Z"/>
            <path class="cls-29" d="M209.41,261.27v.29h-4.68a2.17,2.17,0,0,0,.57,1.53,1.91,1.91,0,0,0,1.37.53,1.74,1.74,0,0,0,1-.29,1.88,1.88,0,0,0,.68-.79l.95.2a2.74,2.74,0,0,1-1,1.29,2.83,2.83,0,0,1-1.59.47,2.89,2.89,0,0,1-2.16-.84,3.54,3.54,0,0,1,0-4.54,2.83,2.83,0,0,1,2.12-.84,2.72,2.72,0,0,1,2,.77A3,3,0,0,1,209.41,261.27Zm-2.77-2.18a1.89,1.89,0,0,0-1.25.42,2,2,0,0,0-.63,1.24h3.59a1.85,1.85,0,0,0-.52-1.24A1.71,1.71,0,0,0,206.64,259.09Z"/>
            <path class="cls-29" d="M216.19,264.5a2.88,2.88,0,0,1-1.61-.43,1.79,1.79,0,0,1-.79-1.24l.92-.26a1.28,1.28,0,0,0,.49.83,1.57,1.57,0,0,0,1,.3,2.08,2.08,0,0,0,.58-.08.92.92,0,0,0,.44-.29.85.85,0,0,0,.18-.55,1,1,0,0,0,0-.25.85.85,0,0,0-.1-.19.55.55,0,0,0-.17-.17l-.21-.13-.27-.11-.29-.1-.33-.09-.35-.1c-.25-.08-.46-.15-.62-.22a3.41,3.41,0,0,1-.51-.29,1.26,1.26,0,0,1-.39-.47A1.6,1.6,0,0,1,214,260a1.59,1.59,0,0,1,.29-1,1.63,1.63,0,0,1,.76-.56,3,3,0,0,1,1.06-.18,2.58,2.58,0,0,1,1.46.39,1.66,1.66,0,0,1,.73,1.17l-.87.22a1.12,1.12,0,0,0-.45-.76,1.53,1.53,0,0,0-.86-.25,1.47,1.47,0,0,0-.8.21.69.69,0,0,0-.34.64.64.64,0,0,0,.09.34,1.54,1.54,0,0,0,.18.23,1,1,0,0,0,.33.18l.35.13.44.11.09,0,.58.16c.14.05.32.13.51.22a1.62,1.62,0,0,1,.47.33,1.58,1.58,0,0,1,.29.46,1.67,1.67,0,0,1,.12.65,1.71,1.71,0,0,1-.18.8,1.41,1.41,0,0,1-.49.56,2.53,2.53,0,0,1-.69.3A3.72,3.72,0,0,1,216.19,264.5Z"/>
            <path class="cls-29" d="M221.43,264.5a2.05,2.05,0,0,1-1.31-.41,1.51,1.51,0,0,1-.52-1.23,1.73,1.73,0,0,1,.17-.78,1.36,1.36,0,0,1,.49-.55,3.24,3.24,0,0,1,.7-.34,6.9,6.9,0,0,1,.91-.21l1-.16c.35-.07.53-.25.53-.55a1.06,1.06,0,0,0-.38-.9,1.56,1.56,0,0,0-.94-.28,1.5,1.5,0,0,0-.94.28,1.16,1.16,0,0,0-.45.84l-.95-.21a1.85,1.85,0,0,1,.75-1.28,2.86,2.86,0,0,1,1.63-.43,3.34,3.34,0,0,1,.87.11,2.31,2.31,0,0,1,.73.34,1.43,1.43,0,0,1,.51.64,2.32,2.32,0,0,1,.19,1v2.47a1,1,0,0,0,.14.63.58.58,0,0,0,.47.16h.1v.76h-.53a1,1,0,0,1-1.13-.81h-.05A2.28,2.28,0,0,1,221.43,264.5Zm.24-.86a1.61,1.61,0,0,0,1.29-.57,2.44,2.44,0,0,0,.49-1.59l-1.59.31a2.27,2.27,0,0,0-.93.33.87.87,0,0,0,0,1.31A1.28,1.28,0,0,0,221.67,263.64Z"/>
            <path class="cls-29" d="M226.58,264.38V255h1.07v9.35Z"/>
            <path class="cls-29" d="M233.51,258.4h1.06v6h-1l0-.79a1.77,1.77,0,0,1-.74.67,2.26,2.26,0,0,1-1,.24,2.06,2.06,0,0,1-1.5-.54,2,2,0,0,1-.57-1.53v-4h1.06v3.79a1.43,1.43,0,0,0,.36,1.07,1.3,1.3,0,0,0,.95.35,1.42,1.42,0,0,0,1.06-.41,1.68,1.68,0,0,0,.41-1.22Z"/>
            <path class="cls-29" d="M241.13,255h1.05v9.35h-1l0-1.16a2.15,2.15,0,0,1-.85.94,2.4,2.4,0,0,1-1.27.35,2.64,2.64,0,0,1-1.08-.22,2.79,2.79,0,0,1-.89-.62,2.74,2.74,0,0,1-.6-1,3.61,3.61,0,0,1-.23-1.29,3.14,3.14,0,0,1,.82-2.24,2.6,2.6,0,0,1,2-.87,2.38,2.38,0,0,1,1.26.34,2.16,2.16,0,0,1,.85.92Zm-1.89,8.57a1.77,1.77,0,0,0,1.39-.63,2.46,2.46,0,0,0,0-3.15,1.8,1.8,0,0,0-1.39-.63,1.83,1.83,0,0,0-1.4.61,2.29,2.29,0,0,0-.56,1.59,2.25,2.25,0,0,0,.56,1.59A1.84,1.84,0,0,0,239.24,263.6Z"/>
          </g>
          <circle class="cls-30" cx="51.46" cy="260.1" r="8.08"/>
          <path class="cls-2" d="M51,258.91c1.73,0,2.6.71,2.6,2.14a2.29,2.29,0,0,1-.66,1.72,2.34,2.34,0,0,1-1.73.64,2.82,2.82,0,0,1-1.21-.25,2.08,2.08,0,0,1-.88-.75,1.94,1.94,0,0,1-.34-1.14,2,2,0,0,1,0-.34l1.34-.06a2.13,2.13,0,0,0,0,.3.91.91,0,0,0,.31.75,1.11,1.11,0,0,0,.75.25,1,1,0,0,0,1.07-1.07,1,1,0,0,0-.34-.79,1.76,1.76,0,0,0-1.14-.28H49l.29-3.51h4v1.21H50.47l-.09,1.18Z"/>
        </g>
      </g>
    </g>
  </g>
</svg>
