<svg id="Layer_1" data-name="Layer 1" xmlns="http://www.w3.org/2000/svg" xmlns:xlink="http://www.w3.org/1999/xlink" width="292.34" height="272.66" viewBox="0 0 292.34 272.66">
  <defs>
    <style>
      .cls-1 {
        fill: none;
      }

      .cls-2 {
        fill: #fff;
      }

      .cls-3 {
        fill: #b6cade;
      }

      .cls-4 {
        fill: #f3e8e2;
      }

      .cls-5 {
        fill: #f0cac0;
      }

      .cls-6 {
        fill: #e8b9b3;
      }

      .cls-7 {
        fill: #f7ddd5;
      }

      .cls-8 {
        clip-path: url(#clip-path);
      }

      .cls-9 {
        fill: #91becf;
      }

      .cls-10 {
        fill: #fdc09a;
      }

      .cls-11 {
        fill: #f5a37f;
      }

      .cls-12 {
        fill: #29334d;
      }

      .cls-13 {
        fill: #a54d4f;
      }

      .cls-14 {
        fill: #c4604f;
      }

      .cls-15 {
        fill: #c77971;
      }

      .cls-16 {
        fill: #e0fff9;
      }

      .cls-17 {
        fill: #50bfb4;
      }

      .cls-18 {
        fill: #33a2a6;
      }

      .cls-19 {
        fill: #c2e3ed;
      }

      .cls-20 {
        fill: #cce0ea;
      }

      .cls-21 {
        fill: #616161;
      }

      .cls-22 {
        fill: #fdfefd;
      }

      .cls-23 {
        fill: #e7f0f2;
      }

      .cls-24 {
        fill: #e6fbff;
      }

      .cls-25 {
        fill: #d1eaf0;
      }

      .cls-26 {
        fill: #1c264d;
      }

      .cls-27 {
        fill: #01acf6;
      }

      .cls-28 {
        fill: #2bc8fc;
      }

      .cls-29 {
        fill: #e7875e;
      }

      .cls-30 {
        fill: #d6664d;
      }

      .cls-31 {
        fill: #b3554d;
      }

      .cls-32 {
        fill: #f2feff;
      }

      .cls-33 {
        fill: #171b42;
      }

      .cls-34 {
        fill: #1e264e;
      }

      .cls-35 {
        fill: #8c3b47;
      }

      .cls-36 {
        fill: #fece4b;
      }

      .cls-37 {
        fill: #f5b83d;
      }

      .cls-38 {
        fill: #ffe37d;
      }

      .cls-39 {
        fill: #fffcf0;
      }

      .cls-40 {
        fill: #bd3e35;
      }

      .cls-41 {
        fill: #384975;
      }

      .cls-42 {
        fill: #1e234f;
      }

      .cls-43 {
        fill: #f8a700;
      }
    </style>
    <clipPath id="clip-path">
      <path class="cls-1" d="M211,51.76c-15-13.33-37.77-18.15-55.37-8.5C143.58,49.85,135,61.52,122.87,68c-13.51,7.21-30,7.22-43.31,14.88-14.71,8.48-23,25-27.24,41.43-4.07,15.6-5.24,32.57.74,47.54,5.18,13,15.45,23.54,27.5,30.63s25.77,10.91,39.61,12.86c28.13,4,58.05.07,82.18-14.92s41.52-42,41-70.42C242.9,102.28,231.7,70.19,211,51.76Z"/>
    </clipPath>
  </defs>
  <g>
    <g>
      <rect class="cls-2" x="1" y="1" width="290.34" height="259.1" rx="17.86"/>
      <path class="cls-3" d="M273.48,261.1H18.86A18.88,18.88,0,0,1,0,242.24V18.86A18.88,18.88,0,0,1,18.86,0H273.48a18.88,18.88,0,0,1,18.86,18.86V242.24A18.88,18.88,0,0,1,273.48,261.1ZM18.86,2A16.88,16.88,0,0,0,2,18.86V242.24A16.88,16.88,0,0,0,18.86,259.1H273.48a16.87,16.87,0,0,0,16.86-16.86V18.86A16.87,16.87,0,0,0,273.48,2Z"/>
    </g>
    <g>
      <path class="cls-4" d="M211,51.76c-15-13.33-37.77-18.15-55.37-8.5C143.58,49.85,135,61.52,122.87,68c-13.51,7.21-30,7.22-43.31,14.88-14.71,8.48-23,25-27.24,41.43-4.07,15.6-5.24,32.57.74,47.54,5.18,13,15.45,23.54,27.5,30.63s25.77,10.91,39.61,12.86c28.13,4,58.05.07,82.18-14.92s41.52-42,41-70.42C242.9,102.28,231.7,70.19,211,51.76Z"/>
      <g>
        <g>
          <g>
            <g>
              <path class="cls-5" d="M111.07,42.77c.24-.54,1.81-.36,3.5.41s2.87,1.82,2.62,2.36-1.81.36-3.5-.41S110.82,43.31,111.07,42.77Z"/>
              <rect class="cls-5" x="109.8" y="46.74" width="5.84" height="1.12" transform="translate(23.18 130.52) rotate(-65.67)"/>
            </g>
            <g>
              <path class="cls-5" d="M121.93,49.92c.51-.29,1.68.77,2.62,2.37s1.27,3.15.76,3.45-1.68-.77-2.62-2.37S121.42,50.22,121.93,49.92Z"/>
              <rect class="cls-5" x="117.72" y="54" width="5.84" height="1.12" transform="translate(-11.08 68.01) rotate(-30.17)"/>
            </g>
            <g>
              <path class="cls-5" d="M125.05,67.14c.3-1.83,1-3.23,1.61-3.13s.81,1.66.5,3.49-1,3.23-1.61,3.14S124.74,69,125.05,67.14Z"/>
              <rect class="cls-5" x="122.14" y="63.83" width="1.12" height="5.84" transform="translate(36.57 176.7) rotate(-80.47)"/>
            </g>
            <g>
              <ellipse class="cls-5" cx="118.55" cy="79.42" rx="3.36" ry="1.07" transform="translate(-24.03 85.2) rotate(-36.14)"/>
              <rect class="cls-5" x="115.95" y="73.71" width="1.12" height="5.84" transform="translate(-22.78 83.46) rotate(-36.14)"/>
            </g>
            <g>
              <path class="cls-5" d="M99.17,81.69c.07-.59,1.62-.9,3.47-.68s3.28.86,3.21,1.45-1.62.89-3.46.68S99.11,82.27,99.17,81.69Z"/>
              <rect class="cls-5" x="100" y="78.08" width="5.84" height="1.12" transform="translate(12.93 171.8) rotate(-83.38)"/>
            </g>
            <g>
              <path class="cls-5" d="M88.2,71.68c.5-.32,1.72.67,2.74,2.22s1.44,3.08,1,3.4-1.72-.67-2.74-2.22S87.71,72,88.2,71.68Z"/>
              <rect class="cls-5" x="90.02" y="72.04" width="5.84" height="1.12" transform="translate(-24.6 62.9) rotate(-33.28)"/>
            </g>
            <g>
              <path class="cls-5" d="M85.48,58.17c.3-1.83,1-3.24,1.61-3.14s.81,1.66.5,3.49-1,3.24-1.61,3.14S85.17,60,85.48,58.17Z"/>
              <rect class="cls-5" x="89.37" y="56" width="1.12" height="5.84" transform="translate(16.94 137.86) rotate(-80.47)"/>
            </g>
            <g>
              <path class="cls-5" d="M96.76,44.6c1.61-.93,3.15-1.28,3.45-.76s-.77,1.68-2.37,2.61-3.15,1.28-3.44.76S95.16,45.53,96.76,44.6Z"/>
              <rect class="cls-5" x="98.47" y="45.59" width="1.12" height="5.84" transform="translate(-10.96 56.33) rotate(-30.17)"/>
            </g>
          </g>
          <g>
            <g>
              <path class="cls-6" d="M122.88,62.44a16.16,16.16,0,0,1-2.56,8.77A15.77,15.77,0,0,1,107,78.52,16,16,0,0,1,91.2,62.44,16.15,16.15,0,0,1,95.9,51,15.68,15.68,0,0,1,107,46.36,16,16,0,0,1,122.88,62.44Z"/>
              <path class="cls-5" d="M122.88,62.44a16.16,16.16,0,0,1-2.56,8.77,15.63,15.63,0,0,1-11.14,4.65A16,16,0,0,1,93.34,59.78,16.15,16.15,0,0,1,95.9,51,15.68,15.68,0,0,1,107,46.36,16,16,0,0,1,122.88,62.44Z"/>
            </g>
            <ellipse class="cls-7" cx="110.88" cy="56.29" rx="6.83" ry="8.75" transform="translate(2.51 117.27) rotate(-56.28)"/>
          </g>
        </g>
        <g>
          <g>
            <g>
              <path class="cls-5" d="M163.92,48.9c0-.2.52-.33,1.14-.29s1.11.23,1.1.43-.53.33-1.15.29S163.9,49.1,163.92,48.9Z"/>
              <polygon class="cls-5" points="164.72 51.12 164.84 49.14 165.21 49.16 165.1 51.14 164.72 51.12"/>
            </g>
            <g>
              <path class="cls-5" d="M168.15,49.85c.13-.15.62,0,1.1.44s.76.84.64,1-.62,0-1.1-.44S168,50,168.15,49.85Z"/>
              <polygon class="cls-5" points="167.55 52.13 168.77 50.59 169.06 50.83 167.84 52.37 167.55 52.13"/>
            </g>
            <g>
              <path class="cls-5" d="M171.3,53.73c.2,0,.45.43.57,1.05s.07,1.15-.13,1.19-.44-.43-.57-1S171.11,53.77,171.3,53.73Z"/>
              <polygon class="cls-5" points="169.41 55.09 171.32 54.7 171.39 55.07 169.48 55.47 169.41 55.09"/>
            </g>
            <g>
              <path class="cls-5" d="M170.32,59.41c.33-.53.74-.87.91-.77s0,.62-.31,1.15-.74.88-.91.77S170,59.94,170.32,59.41Z"/>
              <polygon class="cls-5" points="168.93 58.27 170.57 59.34 170.37 59.66 168.73 58.59 168.93 58.27"/>
            </g>
            <g>
              <path class="cls-5" d="M165.84,62c.6-.15,1.13-.12,1.18.07s-.4.48-1,.63-1.12.13-1.17-.06S165.24,62.19,165.84,62Z"/>
              <polygon class="cls-5" points="165.59 60.24 166.08 62.16 165.71 62.25 165.23 60.34 165.59 60.24"/>
            </g>
            <g>
              <path class="cls-5" d="M160.24,60.82c.12-.16.62,0,1.12.38s.81.79.7,1-.62,0-1.12-.38S160.12,61,160.24,60.82Z"/>
              <polygon class="cls-5" points="162.54 59.85 161.4 61.46 161.1 61.24 162.24 59.63 162.54 59.85"/>
            </g>
            <g>
              <path class="cls-5" d="M157.9,55.69c.2,0,.45.43.57,1s.07,1.15-.12,1.19-.45-.43-.58-1.05S157.71,55.73,157.9,55.69Z"/>
              <polygon class="cls-5" points="160.25 56.56 158.34 56.96 158.26 56.59 160.17 56.2 160.25 56.56"/>
            </g>
            <g>
              <path class="cls-5" d="M159.66,51.22c.39-.49.83-.79,1-.66s0,.62-.42,1.11-.83.78-1,.66S159.28,51.71,159.66,51.22Z"/>
              <polygon class="cls-5" points="161.49 52.95 159.97 51.71 160.21 51.41 161.72 52.65 161.49 52.95"/>
            </g>
          </g>
          <g>
            <g>
              <path class="cls-6" d="M169.94,53.7a5.48,5.48,0,0,1,.25,3.09,5.25,5.25,0,0,1-10.12.75,5.61,5.61,0,0,1,.1-4.19,5.24,5.24,0,0,1,9.77.35Z"/>
              <path class="cls-5" d="M169.94,53.7a5.48,5.48,0,0,1,.25,3.09,5.24,5.24,0,0,1-9.77-.36,5.54,5.54,0,0,1-.25-3.08,5.24,5.24,0,0,1,9.77.35Z"/>
            </g>
            <ellipse class="cls-7" cx="165.52" cy="53.16" rx="1.83" ry="2.95" transform="translate(75.93 202.15) rotate(-76.79)"/>
          </g>
        </g>
        <g>
          <g>
            <g>
              <path class="cls-5" d="M132.38,121.45c0-.09.25-.15.54-.13s.52.1.51.2-.24.15-.53.13S132.38,121.55,132.38,121.45Z"/>
              <polygon class="cls-5" points="132.76 122.49 132.82 121.57 132.99 121.58 132.94 122.5 132.76 122.49"/>
            </g>
            <g>
              <path class="cls-5" d="M134.36,121.9c.06-.07.29,0,.52.2s.36.4.3.47-.29,0-.51-.21S134.31,122,134.36,121.9Z"/>
              <polygon class="cls-5" points="134.09 122.97 134.66 122.25 134.79 122.36 134.22 123.08 134.09 122.97"/>
            </g>
            <g>
              <path class="cls-5" d="M135.85,123.72c.09,0,.21.2.27.49s0,.53-.07.55-.21-.2-.26-.49S135.76,123.73,135.85,123.72Z"/>
              <polygon class="cls-5" points="134.96 124.36 135.85 124.17 135.89 124.35 134.99 124.53 134.96 124.36"/>
            </g>
            <g>
              <path class="cls-5" d="M135.39,126.39c.15-.25.34-.41.42-.36s0,.29-.14.54-.35.4-.43.35S135.23,126.63,135.39,126.39Z"/>
              <polygon class="cls-5" points="134.74 125.85 135.5 126.35 135.41 126.5 134.64 126 134.74 125.85"/>
            </g>
            <g>
              <path class="cls-5" d="M133.28,127.61c.28-.07.53-.06.55,0s-.18.23-.46.3-.53.06-.56,0S133,127.69,133.28,127.61Z"/>
              <polygon class="cls-5" points="133.17 126.77 133.4 127.67 133.22 127.72 133 126.82 133.17 126.77"/>
            </g>
            <g>
              <path class="cls-5" d="M130.66,127c.06-.07.29,0,.53.18s.38.37.33.45-.29,0-.53-.18S130.61,127.12,130.66,127Z"/>
              <polygon class="cls-5" points="131.74 126.59 131.21 127.34 131.06 127.24 131.6 126.48 131.74 126.59"/>
            </g>
            <g>
              <path class="cls-5" d="M129.57,124.63c.09,0,.21.2.26.49s0,.54-.06.56-.21-.2-.27-.49S129.47,124.65,129.57,124.63Z"/>
              <polygon class="cls-5" points="130.66 125.05 129.77 125.23 129.73 125.06 130.63 124.88 130.66 125.05"/>
            </g>
            <g>
              <path class="cls-5" d="M130.39,122.54c.18-.23.39-.37.46-.31s0,.29-.2.52-.39.37-.46.31S130.21,122.77,130.39,122.54Z"/>
              <polygon class="cls-5" points="131.25 123.35 130.53 122.77 130.64 122.63 131.35 123.22 131.25 123.35"/>
            </g>
          </g>
          <g>
            <g>
              <path class="cls-6" d="M135.21,123.7a2.58,2.58,0,0,1,.11,1.45,2.46,2.46,0,0,1-4.74.35,2.6,2.6,0,0,1,0-2,2.42,2.42,0,0,1,1.36-1.32A2.49,2.49,0,0,1,135.21,123.7Z"/>
              <path class="cls-5" d="M135.21,123.7a2.58,2.58,0,0,1,.11,1.45,2.45,2.45,0,0,1-1.36,1.32,2.49,2.49,0,0,1-3.22-1.49,2.54,2.54,0,0,1-.11-1.44,2.42,2.42,0,0,1,1.36-1.32A2.49,2.49,0,0,1,135.21,123.7Z"/>
            </g>
            <path class="cls-7" d="M131.79,123.13c.11-.46.8-.69,1.54-.52s1.26.69,1.15,1.15-.8.7-1.54.52S131.68,123.59,131.79,123.13Z"/>
          </g>
        </g>
        <g>
          <g>
            <g>
              <path class="cls-5" d="M70.69,173.48c0-.09.25-.15.54-.13s.52.1.51.2-.24.15-.53.13S70.69,173.57,70.69,173.48Z"/>
              <polygon class="cls-5" points="71.07 174.52 71.12 173.59 71.3 173.61 71.25 174.53 71.07 174.52"/>
            </g>
            <g>
              <path class="cls-5" d="M72.67,173.92c.06-.07.29,0,.52.21s.36.39.3.46-.29,0-.51-.2S72.61,174,72.67,173.92Z"/>
              <polygon class="cls-5" points="72.39 175 72.97 174.27 73.1 174.38 72.53 175.11 72.39 175"/>
            </g>
            <g>
              <path class="cls-5" d="M74.16,175.75c.09,0,.21.2.27.49s0,.53-.06.55-.22-.2-.27-.49S74.07,175.76,74.16,175.75Z"/>
              <polygon class="cls-5" points="73.27 176.39 74.16 176.2 74.19 176.37 73.3 176.56 73.27 176.39"/>
            </g>
            <g>
              <path class="cls-5" d="M73.69,178.41c.16-.24.35-.4.43-.35s0,.29-.15.53-.34.41-.42.36S73.53,178.66,73.69,178.41Z"/>
              <polygon class="cls-5" points="73.04 177.87 73.81 178.37 73.72 178.53 72.95 178.02 73.04 177.87"/>
            </g>
            <g>
              <path class="cls-5" d="M71.59,179.63c.28-.07.53,0,.55,0s-.18.22-.46.29-.53.06-.56,0S71.31,179.71,71.59,179.63Z"/>
              <polygon class="cls-5" points="71.48 178.8 71.7 179.7 71.53 179.74 71.31 178.84 71.48 178.8"/>
            </g>
            <g>
              <path class="cls-5" d="M69,179.07c.06-.07.29,0,.53.18s.38.37.32.45-.29,0-.52-.18S68.92,179.15,69,179.07Z"/>
              <polygon class="cls-5" points="70.05 178.61 69.51 179.37 69.37 179.26 69.91 178.51 70.05 178.61"/>
            </g>
            <g>
              <path class="cls-5" d="M67.88,176.66c.09,0,.21.2.26.49s0,.54-.06.56-.21-.2-.26-.49S67.79,176.68,67.88,176.66Z"/>
              <polygon class="cls-5" points="68.97 177.08 68.08 177.26 68.04 177.09 68.94 176.9 68.97 177.08"/>
            </g>
            <g>
              <path class="cls-5" d="M68.7,174.56c.18-.23.38-.37.46-.31s0,.29-.2.52-.39.37-.46.31S68.51,174.79,68.7,174.56Z"/>
              <polygon class="cls-5" points="69.56 175.38 68.84 174.79 68.96 174.66 69.67 175.24 69.56 175.38"/>
            </g>
          </g>
          <g>
            <g>
              <path class="cls-6" d="M73.51,175.73a2.59,2.59,0,0,1,.12,1.45A2.52,2.52,0,0,1,72.1,179a2.49,2.49,0,0,1-3.21-1.49,2.6,2.6,0,0,1,0-2,2.52,2.52,0,0,1,1.37-1.33A2.48,2.48,0,0,1,73.51,175.73Z"/>
              <path class="cls-5" d="M73.51,175.73a2.59,2.59,0,0,1,.12,1.45,2.45,2.45,0,0,1-1.36,1.32A2.49,2.49,0,0,1,69.05,177a2.65,2.65,0,0,1-.12-1.44,2.52,2.52,0,0,1,1.37-1.33A2.48,2.48,0,0,1,73.51,175.73Z"/>
            </g>
            <path class="cls-7" d="M70.1,175.16c.11-.47.8-.7,1.54-.52s1.26.69,1.15,1.15-.8.69-1.54.52S70,175.62,70.1,175.16Z"/>
          </g>
        </g>
        <g>
          <g>
            <g>
              <path class="cls-5" d="M157.29,204.61c0-.09.24-.15.53-.14s.52.11.52.2-.25.16-.54.14S157.28,204.7,157.29,204.61Z"/>
              <polygon class="cls-5" points="157.66 205.65 157.72 204.72 157.89 204.73 157.84 205.66 157.66 205.65"/>
            </g>
            <g>
              <path class="cls-5" d="M159.27,205.05c0-.08.29,0,.51.2s.36.4.3.47-.29,0-.51-.21S159.21,205.12,159.27,205.05Z"/>
              <polygon class="cls-5" points="158.99 206.12 159.56 205.4 159.69 205.51 159.12 206.23 158.99 206.12"/>
            </g>
            <g>
              <path class="cls-5" d="M160.75,206.87c.09,0,.21.2.27.49s0,.54-.06.55-.21-.2-.27-.49S160.66,206.89,160.75,206.87Z"/>
              <polygon class="cls-5" points="159.86 207.51 160.75 207.33 160.79 207.5 159.89 207.69 159.86 207.51"/>
            </g>
            <g>
              <path class="cls-5" d="M160.29,209.54c.15-.24.34-.4.42-.36s0,.3-.14.54-.35.41-.43.36S160.13,209.79,160.29,209.54Z"/>
              <polygon class="cls-5" points="159.63 209 160.4 209.5 160.31 209.65 159.54 209.15 159.63 209"/>
            </g>
            <g>
              <path class="cls-5" d="M158.18,210.77c.28-.07.53-.06.55,0s-.18.22-.47.29-.52.06-.55,0S157.9,210.84,158.18,210.77Z"/>
              <polygon class="cls-5" points="158.07 209.93 158.29 210.82 158.13 210.87 157.9 209.97 158.07 209.93"/>
            </g>
            <g>
              <path class="cls-5" d="M155.57,210.19c.05-.07.29,0,.53.18s.38.38.32.45-.29,0-.52-.18S155.51,210.27,155.57,210.19Z"/>
              <polygon class="cls-5" points="156.64 209.74 156.11 210.5 155.96 210.39 156.5 209.64 156.64 209.74"/>
            </g>
            <g>
              <path class="cls-5" d="M154.47,207.78c.09,0,.21.21.27.49s0,.54-.06.56-.21-.2-.27-.49S154.38,207.8,154.47,207.78Z"/>
              <polygon class="cls-5" points="155.56 208.2 154.67 208.39 154.63 208.21 155.53 208.03 155.56 208.2"/>
            </g>
            <g>
              <path class="cls-5" d="M155.29,205.69c.18-.23.38-.36.46-.31s0,.29-.2.52-.39.37-.46.31S155.1,205.92,155.29,205.69Z"/>
              <polygon class="cls-5" points="156.15 206.5 155.44 205.93 155.55 205.79 156.26 206.37 156.15 206.5"/>
            </g>
          </g>
          <g>
            <g>
              <path class="cls-6" d="M160.11,206.86a2.65,2.65,0,0,1,.12,1.44,2.47,2.47,0,0,1-4.75.36,2.67,2.67,0,0,1,.05-2,2.46,2.46,0,0,1,4.58.17Z"/>
              <path class="cls-5" d="M160.11,206.86a2.65,2.65,0,0,1,.12,1.44,2.45,2.45,0,0,1-4.58-.16,2.68,2.68,0,0,1-.12-1.45,2.46,2.46,0,0,1,4.58.17Z"/>
            </g>
            <path class="cls-7" d="M156.69,206.28c.11-.46.8-.69,1.54-.52s1.26.69,1.15,1.16-.8.69-1.54.51S156.58,206.74,156.69,206.28Z"/>
          </g>
        </g>
        <g>
          <g>
            <g>
              <path class="cls-5" d="M216.3,76.16c0-.33.87-.55,1.9-.49s1.85.38,1.83.72-.87.55-1.9.49S216.28,76.5,216.3,76.16Z"/>
              <polygon class="cls-5" points="217.64 79.85 217.83 76.56 218.45 76.59 218.26 79.89 217.64 79.85"/>
            </g>
            <g>
              <path class="cls-5" d="M223.35,77.74c.21-.25,1,.07,1.83.73s1.28,1.4,1.07,1.66-1-.07-1.83-.73S223.14,78,223.35,77.74Z"/>
              <polygon class="cls-5" points="222.34 81.54 224.38 78.97 224.87 79.37 222.83 81.93 222.34 81.54"/>
            </g>
            <g>
              <path class="cls-5" d="M228.61,84.21c.32-.06.75.72.95,1.74s.11,1.92-.22,2-.75-.72-1-1.74S228.28,84.28,228.61,84.21Z"/>
              <polygon class="cls-5" points="225.45 86.48 228.63 85.83 228.75 86.45 225.57 87.1 225.45 86.48"/>
            </g>
            <g>
              <path class="cls-5" d="M227,93.67c.56-.88,1.23-1.45,1.51-1.27s.05,1-.51,1.91-1.24,1.45-1.51,1.28S226.41,94.55,227,93.67Z"/>
              <polygon class="cls-5" points="224.66 91.77 227.38 93.56 227.04 94.09 224.32 92.3 224.66 91.77"/>
            </g>
            <g>
              <path class="cls-5" d="M219.51,98c1-.26,1.87-.2,2,.12s-.66.8-1.66,1.06-1.88.2-2-.12S218.51,98.3,219.51,98Z"/>
              <polygon class="cls-5" points="219.09 95.06 219.9 98.25 219.29 98.41 218.49 95.22 219.09 95.06"/>
            </g>
            <g>
              <path class="cls-5" d="M210.17,96c.2-.27,1,0,1.87.62s1.36,1.33,1.16,1.6-1,0-1.87-.63S210,96.29,210.17,96Z"/>
              <polygon class="cls-5" points="214.01 94.41 212.11 97.08 211.6 96.72 213.5 94.04 214.01 94.41"/>
            </g>
            <g>
              <path class="cls-5" d="M206.28,87.47c.32-.06.75.72.95,1.75s.11,1.91-.21,2-.75-.72-1-1.74S206,87.54,206.28,87.47Z"/>
              <polygon class="cls-5" points="210.18 88.93 207 89.58 206.88 88.97 210.06 88.31 210.18 88.93"/>
            </g>
            <g>
              <path class="cls-5" d="M209.21,80c.65-.82,1.39-1.31,1.65-1.11s-.06,1-.7,1.85-1.38,1.32-1.64,1.11S208.57,80.85,209.21,80Z"/>
              <polygon class="cls-5" points="212.25 82.91 209.73 80.83 210.12 80.34 212.64 82.41 212.25 82.91"/>
            </g>
          </g>
          <g>
            <g>
              <path class="cls-6" d="M226.34,84.16a9.28,9.28,0,0,1,.41,5.14,8.75,8.75,0,0,1-16.86,1.25,9.24,9.24,0,0,1,.17-7,8.73,8.73,0,0,1,16.28.59Z"/>
              <path class="cls-5" d="M226.34,84.16a9.28,9.28,0,0,1,.41,5.14,8.73,8.73,0,0,1-16.28-.58,9.3,9.3,0,0,1-.41-5.14,8.73,8.73,0,0,1,16.28.58Z"/>
            </g>
            <path class="cls-7" d="M214.19,82.13c.38-1.64,2.84-2.46,5.48-1.84s4.48,2.45,4.09,4.09-2.84,2.46-5.48,1.84S213.8,83.77,214.19,82.13Z"/>
          </g>
        </g>
        <g>
          <g>
            <g>
              <path class="cls-5" d="M239.1,129.86c0-.11.28-.19.62-.16s.6.12.59.23-.28.18-.62.16S239.09,130,239.1,129.86Z"/>
              <polygon class="cls-5" points="239.53 131.05 239.6 129.98 239.8 130 239.74 131.06 239.53 131.05"/>
            </g>
            <g>
              <path class="cls-5" d="M241.38,130.37c.07-.08.33,0,.59.24s.42.45.35.53-.33,0-.59-.24S241.31,130.45,241.38,130.37Z"/>
              <polygon class="cls-5" points="241.06 131.6 241.72 130.77 241.87 130.9 241.21 131.73 241.06 131.6"/>
            </g>
            <g>
              <path class="cls-5" d="M243.08,132.46c.11,0,.25.23.31.56s0,.62-.07.64-.24-.23-.31-.56S243,132.48,243.08,132.46Z"/>
              <polygon class="cls-5" points="242.06 133.2 243.09 132.99 243.13 133.19 242.1 133.4 242.06 133.2"/>
            </g>
            <g>
              <path class="cls-5" d="M242.56,135.54c.18-.29.4-.48.49-.42s0,.34-.16.62-.41.47-.5.42S242.38,135.82,242.56,135.54Z"/>
              <polygon class="cls-5" points="241.81 134.91 242.69 135.49 242.58 135.66 241.7 135.09 241.81 134.91"/>
            </g>
            <g>
              <path class="cls-5" d="M240.13,137c.33-.08.61-.07.64,0s-.22.26-.54.34-.61.07-.63,0S239.81,137,240.13,137Z"/>
              <polygon class="cls-5" points="240 135.98 240.26 137.01 240.07 137.06 239.81 136.03 240 135.98"/>
            </g>
            <g>
              <path class="cls-5" d="M237.12,136.29c.06-.09.33,0,.6.2s.44.43.38.52-.33,0-.6-.21S237.06,136.37,237.12,136.29Z"/>
              <polygon class="cls-5" points="238.36 135.77 237.74 136.63 237.58 136.51 238.19 135.65 238.36 135.77"/>
            </g>
            <g>
              <path class="cls-5" d="M235.85,133.52c.11,0,.25.23.31.56s0,.62-.07.64-.24-.23-.31-.56S235.75,133.54,235.85,133.52Z"/>
              <polygon class="cls-5" points="237.12 134 236.09 134.21 236.05 134 237.08 133.79 237.12 134"/>
            </g>
            <g>
              <path class="cls-5" d="M236.79,131.11c.21-.26.45-.42.53-.36s0,.34-.22.6-.45.42-.53.36S236.58,131.37,236.79,131.11Z"/>
              <polygon class="cls-5" points="237.79 132.04 236.97 131.37 237.1 131.21 237.92 131.88 237.79 132.04"/>
            </g>
          </g>
          <g>
            <g>
              <path class="cls-6" d="M242.35,132.45a3,3,0,0,1,.14,1.66,2.84,2.84,0,0,1-5.47.41,3,3,0,0,1,.06-2.26,2.79,2.79,0,0,1,1.57-1.52A2.85,2.85,0,0,1,242.35,132.45Z"/>
              <path class="cls-5" d="M242.35,132.45a3,3,0,0,1,.14,1.66,2.83,2.83,0,0,1-5.28-.18,3,3,0,0,1-.13-1.67,2.79,2.79,0,0,1,1.57-1.52A2.85,2.85,0,0,1,242.35,132.45Z"/>
            </g>
            <path class="cls-7" d="M238.41,131.79c.12-.53.92-.8,1.78-.6s1.44.79,1.32,1.32-.92.8-1.78.6S238.28,132.32,238.41,131.79Z"/>
          </g>
        </g>
        <g>
          <g>
            <g>
              <ellipse class="cls-5" cx="65.27" cy="122.55" rx="0.32" ry="0.99" transform="translate(-71.56 98.96) rotate(-52.18)"/>
              <polygon class="cls-5" points="63.97 123.96 65.04 122.58 65.3 122.78 64.23 124.16 63.97 123.96"/>
            </g>
            <g>
              <path class="cls-5" d="M67.09,124.74c.17,0,.43.34.59.87s.14,1,0,1-.43-.34-.59-.87S66.92,124.79,67.09,124.74Z"/>
              <polygon class="cls-5" points="65.52 126.1 67.17 125.58 67.27 125.9 65.61 126.41 65.52 126.1"/>
            </g>
            <g>
              <path class="cls-5" d="M66.77,129.93c.22-.51.52-.86.68-.8s.12.54-.1,1.05-.52.86-.68.79S66.55,130.44,66.77,129.93Z"/>
              <polygon class="cls-5" points="65.4 129.17 66.98 129.84 66.85 130.15 65.27 129.48 65.4 129.17"/>
            </g>
            <g>
              <path class="cls-5" d="M63.92,132.76c.51-.22,1-.26,1-.1s-.28.46-.79.68-1,.26-1,.1S63.42,133,63.92,132.76Z"/>
              <polygon class="cls-5" points="63.48 131.25 64.13 132.84 63.83 132.97 63.17 131.38 63.48 131.25"/>
            </g>
            <g>
              <path class="cls-5" d="M58.33,132.41c.06-.17.52-.15,1,0s.88.47.82.64-.52.15-1,0S58.27,132.58,58.33,132.41Z"/>
              <polygon class="cls-5" points="60.07 131.02 59.47 132.65 59.16 132.54 59.76 130.91 60.07 131.02"/>
            </g>
            <g>
              <path class="cls-5" d="M55.9,128.79c.16-.06.44.31.63.83s.19,1,0,1-.45-.32-.63-.83S55.73,128.84,55.9,128.79Z"/>
              <polygon class="cls-5" points="58.05 129.22 56.43 129.82 56.31 129.51 57.94 128.91 58.05 129.22"/>
            </g>
            <g>
              <path class="cls-5" d="M56.07,124.69c.22-.5.52-.86.68-.79s.11.53-.1,1-.53.87-.69.8S55.85,125.2,56.07,124.69Z"/>
              <polygon class="cls-5" points="58.02 125.69 56.44 125.03 56.56 124.72 58.15 125.39 58.02 125.69"/>
            </g>
            <g>
              <path class="cls-5" d="M60.25,121.53c.52-.17,1-.17,1,0s-.33.43-.85.6-1,.16-1,0S59.72,121.69,60.25,121.53Z"/>
              <polygon class="cls-5" points="60.72 123.68 60.23 122.03 60.55 121.93 61.03 123.58 60.72 123.68"/>
            </g>
          </g>
          <g>
            <g>
              <path class="cls-6" d="M66.48,128.43a4.93,4.93,0,0,1-1.35,2.36,4.62,4.62,0,0,1-7.72-4.48,4.83,4.83,0,0,1,2.15-3,4.6,4.6,0,0,1,3.52-.6A4.66,4.66,0,0,1,66.48,128.43Z"/>
              <path class="cls-5" d="M66.48,128.43a4.93,4.93,0,0,1-1.35,2.36,4.61,4.61,0,0,1-6.93-5.1,4.85,4.85,0,0,1,1.36-2.37,4.61,4.61,0,0,1,6.92,5.11Z"/>
            </g>
            <path class="cls-7" d="M61.79,123.92c.65-.6,2-.23,2.94.83s1.22,2.41.56,3-2,.22-2.94-.84S61.13,124.52,61.79,123.92Z"/>
          </g>
        </g>
      </g>
      <g class="cls-8">
        <g>
          <g>
            <path class="cls-9" d="M194.9,144.39a60,60,0,0,0-13.42-11.51,322.06,322.06,0,0,0,.3,84.7,63.64,63.64,0,0,1,14-3.71C196.25,190.79,196.71,167.71,194.9,144.39Z"/>
            <g>
              <g>
                <path class="cls-10" d="M211.6,107.52c-2,4.65-6,7.93-9.32,11.83-1.42,1.68-10.14,6-11.34,4.17-.17-.28-1.35-.09-2.32-2.08-1.33-2.73-4-4.49-5.59-7,2.24-1.72,3-2,4.21-3.34-.24-1-.49-1.91-.76-2.87a60,60,0,0,0-3.55-9.53c5-2.8,8.83-4.63,14-7.34.75,2.35,1.67,4.81,2.59,7h0a41.09,41.09,0,0,0,3.19,6.45C203.17,105.45,208.47,106.69,211.6,107.52Z"/>
                <path class="cls-11" d="M199.51,98.33h0a19.09,19.09,0,0,1-4.31,5.49,19.65,19.65,0,0,1-8.73,4.36,59,59,0,0,0-3.55-9.53c5-2.8,8.83-4.63,14-7.34C197.67,93.67,198.59,96.13,199.51,98.33Z"/>
              </g>
              <g>
                <ellipse class="cls-11" cx="168.58" cy="91.67" rx="3.75" ry="4.79" transform="translate(58.08 248.56) rotate(-83.38)"/>
                <path class="cls-10" d="M167.54,85c0-10.58,7.18-19.17,16-19.17s16,8.58,16,19.17-8.85,19.59-17.71,19.59S167.54,95.59,167.54,85Z"/>
                <path class="cls-11" d="M195.68,85.75a20.79,20.79,0,0,1-6.28-7A21.59,21.59,0,0,1,172,75.8a49.5,49.5,0,0,0-4.22,13.34,27.52,27.52,0,0,1,1.42-16.27,100,100,0,0,1,14.61-6.41,60.61,60.61,0,0,1,12.6,6.37A111.58,111.58,0,0,1,195.68,85.75Z"/>
                <g>
                  <path class="cls-12" d="M183.45,87.9c.45-.09.91.34,1,1a1,1,0,0,1-.57,1.27c-.45.09-.91-.33-1-.95S183,88,183.45,87.9Z"/>
                  <path class="cls-12" d="M172.43,88.39c.44-.09.9.33,1,1s-.14,1.19-.58,1.28-.9-.34-1-1S172,88.48,172.43,88.39Z"/>
                  <path class="cls-13" d="M168.58,85.08a.46.46,0,0,1-.29-.1.51.51,0,0,1-.11-.7c1.07-1.45,3.6-1.74,5.21-1.09a.5.5,0,1,1-.37.93c-1.24-.5-3.27-.28-4,.75A.49.49,0,0,1,168.58,85.08Z"/>
                  <path class="cls-13" d="M188.16,84.19a.47.47,0,0,1-.33-.12,5,5,0,0,0-5.76-.37.5.5,0,0,1-.55-.84,6,6,0,0,1,7,.46.49.49,0,0,1,0,.7A.48.48,0,0,1,188.16,84.19Z"/>
                  <path class="cls-14" d="M177.23,94.76a.49.49,0,0,1-.48-.36,20.83,20.83,0,0,1-.8-6,.49.49,0,0,1,.51-.49.5.5,0,0,1,.49.51,19.46,19.46,0,0,0,.76,5.73.49.49,0,0,1-.34.62A.34.34,0,0,1,177.23,94.76Z"/>
                </g>
                <g>
                  <path class="cls-13" d="M200.09,86.62a7.68,7.68,0,0,0-2.22,2.58,23.78,23.78,0,0,1-7.4-12.09c-8.77,1.16-16.63-.94-19.08-3.48a3.11,3.11,0,0,1-.63-.89l-.09-.23a4.39,4.39,0,0,1,0-2.84,3.66,3.66,0,0,1,.43-.89c1.7-2.58,12.72-9.9,22.36-3.2a21,21,0,0,1,5.24,5.4C202.31,76.25,201.06,81.85,200.09,86.62Z"/>
                  <path class="cls-13" d="M171.38,73.63a28.2,28.2,0,0,0-3.27,16.88,29.21,29.21,0,0,1-3.1-8.74v0c-1.27-6.76,1.78-10.7,5.62-12.08a9.69,9.69,0,0,1,3.56-.56l.37,0A25.18,25.18,0,0,0,171.38,73.63Z"/>
                  <path class="cls-15" d="M193.42,65.59a19.65,19.65,0,0,0-9.28-1,20.18,20.18,0,0,0-9.95,4.47,18.48,18.48,0,0,0-3,3.14,5.28,5.28,0,0,0-.53.27A11.34,11.34,0,0,0,165.72,79a19.56,19.56,0,0,0-.7,2.81,0,0,0,0,1,0,0c-1.27-6.75,1.79-10.69,5.63-12.07a3.46,3.46,0,0,1,.42-.89C172.77,66.2,183.78,58.88,193.42,65.59Z"/>
                </g>
                <g>
                  <path class="cls-16" d="M169.12,95a1,1,0,0,1-.88-.52,22.2,22.2,0,0,1-2.53-6.23,1,1,0,1,1,1.93-.51A20.66,20.66,0,0,0,170,93.54a1,1,0,0,1-.39,1.36A.94.94,0,0,1,169.12,95Z"/>
                  <g>
                    <path class="cls-16" d="M192.94,91.5l-1.77-.93c1.23-2.33,3.65-5.25,6.09-6.16l.7,1.87C196.12,87,194,89.49,192.94,91.5Z"/>
                    <path class="cls-16" d="M192.67,101.23l-1.19-1.61a17.6,17.6,0,0,0,6.1-8.27l1.89.66A19.63,19.63,0,0,1,192.67,101.23Z"/>
                    <path class="cls-10" d="M198.13,84.46c2.42-1.06,5.06-.37,5.89,1.53s-.48,4.29-2.9,5.35-5.06.37-5.89-1.53S195.7,85.51,198.13,84.46Z"/>
                    <g>
                      <path class="cls-17" d="M192.74,100.39a30.21,30.21,0,0,0-.29-10.17,195.73,195.73,0,0,1-24.23,2.15,21.13,21.13,0,0,0,5.07,10c2.35,1.89,4.2,3.1,7.1,3.43A31.19,31.19,0,0,0,192.74,100.39Z"/>
                      <path class="cls-18" d="M191.18,93.68a80.15,80.15,0,0,1-20.33,1.4A16.4,16.4,0,0,0,181,96.55,61.51,61.51,0,0,0,191.18,93.68Z"/>
                      <path class="cls-18" d="M190.41,98.61a60.4,60.4,0,0,1-17.23,1.11,13,13,0,0,0,8.75,1.66A30.8,30.8,0,0,0,190.41,98.61Z"/>
                    </g>
                  </g>
                </g>
              </g>
            </g>
            <g>
              <path class="cls-19" d="M145.9,130.4c-.19-.22-.37-.34-.58-.62a8,8,0,0,1,2.42-3.08,22.5,22.5,0,0,1,4.84-3.24,14.46,14.46,0,0,1,5.64-1.48,6.76,6.76,0,0,1-2.28,4.47,14.56,14.56,0,0,1-4.32,2.63A13.21,13.21,0,0,1,145.9,130.4Z"/>
              <g>
                <g>
                  <path class="cls-10" d="M156.42,126a32.2,32.2,0,0,1-1.26-6.15,105.75,105.75,0,0,0-2.57-13.06,9,9,0,0,0-2-4c-.5-.52-1.36-.92-1.91-.46a1.18,1.18,0,0,0-.31,1.18,4.27,4.27,0,0,0,.53,1.15,13,13,0,0,1,1.59,7.61c-1.36-2.58-2.82-5.28-5.29-6.83a1.28,1.28,0,0,0-1.2-.22.86.86,0,0,0-.38.86,2.61,2.61,0,0,0,.34.93c1.14,2.18,2.28,4.36,3.28,6.5a2,2,0,0,0-2.6-1.06,2.35,2.35,0,0,0-1.05,2.85,1,1,0,0,0-1.37.21,2.5,2.5,0,0,0-.39,1.5,6.76,6.76,0,0,0,.6,3.36,3.1,3.1,0,0,0,2.71,1.76,6.48,6.48,0,0,0,3.47,4l1.14,3.8C152,128.6,154.25,127.39,156.42,126Z"/>
                  <g>
                    <polygon class="cls-20" points="145.31 105.18 148.19 103.87 151.53 111.16 148.65 112.48 145.31 105.18"/>
                    <rect class="cls-3" x="147.57" y="111.21" width="5.32" height="1.06" transform="translate(-32.88 72.7) rotate(-24.61)"/>
                    <g>
                      <path class="cls-21" d="M138.33,86.71,134.1,77c-.32-.74-.27-.75.07,0l4.58,9.53Z"/>
                      <rect class="cls-22" x="141.89" y="89.59" width="3.73" height="16.8" transform="translate(-27.75 68.76) rotate(-24.61)"/>
                      <polygon class="cls-23" points="145.8 105.85 148.27 104.59 145.31 97.88 142.76 99.06 145.8 105.85"/>
                      <g>
                        <g>
                          <path class="cls-21" d="M139.48,92.36a.36.36,0,0,1-.33-.2.38.38,0,0,1,.16-.51l1.09-.55a.38.38,0,1,1,.34.67l-1.09.55A.33.33,0,0,1,139.48,92.36Z"/>
                          <path class="cls-21" d="M140,93.33a.35.35,0,0,1-.33-.2.38.38,0,0,1,.16-.51l.59-.3a.38.38,0,0,1,.51.17.37.37,0,0,1-.17.5l-.59.3A.35.35,0,0,1,140,93.33Z"/>
                          <path class="cls-21" d="M140.37,94.25A.39.39,0,0,1,140,94a.37.37,0,0,1,.17-.5l.59-.3a.37.37,0,0,1,.5.16.38.38,0,0,1-.16.51l-.59.3A.35.35,0,0,1,140.37,94.25Z"/>
                          <path class="cls-21" d="M140.77,95.07a.37.37,0,0,1-.17-.71l.59-.3a.37.37,0,0,1,.5.17.37.37,0,0,1-.16.5l-.59.3A.35.35,0,0,1,140.77,95.07Z"/>
                          <path class="cls-21" d="M141.14,95.89a.37.37,0,0,1-.17-.71l.59-.3a.37.37,0,0,1,.5.17.37.37,0,0,1-.16.5l-.59.3A.38.38,0,0,1,141.14,95.89Z"/>
                        </g>
                        <g>
                          <path class="cls-21" d="M141.51,96.88a.37.37,0,0,1-.17-.71l1.09-.55a.38.38,0,0,1,.34.67l-1.09.55A.38.38,0,0,1,141.51,96.88Z"/>
                          <path class="cls-21" d="M142,97.86a.37.37,0,0,1-.33-.21.37.37,0,0,1,.16-.5l.6-.3a.37.37,0,1,1,.33.66l-.59.3A.34.34,0,0,1,142,97.86Z"/>
                          <path class="cls-21" d="M142.39,98.77a.35.35,0,0,1-.33-.2.38.38,0,0,1,.16-.51l.59-.3a.38.38,0,0,1,.51.17.37.37,0,0,1-.17.5l-.59.3A.33.33,0,0,1,142.39,98.77Z"/>
                          <path class="cls-21" d="M142.79,99.59a.35.35,0,0,1-.33-.2.38.38,0,0,1,.16-.51l.59-.3a.38.38,0,0,1,.51.17.37.37,0,0,1-.17.5l-.59.3A.33.33,0,0,1,142.79,99.59Z"/>
                          <path class="cls-21" d="M143.16,100.41a.35.35,0,0,1-.33-.2.36.36,0,0,1,.16-.5l.59-.31a.38.38,0,0,1,.51.17.37.37,0,0,1-.17.5l-.59.3A.35.35,0,0,1,143.16,100.41Z"/>
                        </g>
                        <g>
                          <path class="cls-21" d="M143.64,101.38a.39.39,0,0,1-.33-.21.38.38,0,0,1,.16-.5l1.1-.56a.37.37,0,0,1,.5.17.38.38,0,0,1-.16.5l-1.1.56A.47.47,0,0,1,143.64,101.38Z"/>
                          <path class="cls-21" d="M144.15,102.35a.35.35,0,0,1-.33-.2.38.38,0,0,1,.16-.51l.59-.3a.39.39,0,0,1,.51.16.38.38,0,0,1-.17.51l-.59.3A.33.33,0,0,1,144.15,102.35Z"/>
                          <path class="cls-21" d="M144.53,103.27a.39.39,0,0,1-.34-.21.37.37,0,0,1,.17-.5l.59-.3a.37.37,0,1,1,.34.66l-.59.31A.53.53,0,0,1,144.53,103.27Z"/>
                          <path class="cls-21" d="M144.93,104.09a.39.39,0,0,1-.34-.21.37.37,0,0,1,.17-.5l.59-.3a.39.39,0,0,1,.51.16.38.38,0,0,1-.17.51l-.59.3A.53.53,0,0,1,144.93,104.09Z"/>
                          <path class="cls-21" d="M145.3,104.91a.39.39,0,0,1-.34-.21.37.37,0,0,1,.17-.5l.59-.3a.37.37,0,0,1,.5.16.38.38,0,0,1-.16.51l-.59.3A.35.35,0,0,1,145.3,104.91Z"/>
                        </g>
                      </g>
                      <path class="cls-20" d="M138.56,91.13l-.33-4.43a.33.33,0,0,1,.57-.26l3.14,3.14Z"/>
                      <rect class="cls-3" x="144.23" y="105.6" width="6.41" height="0.87" transform="translate(-30.76 71.02) rotate(-24.61)"/>
                    </g>
                  </g>
                </g>
                <g>
                  <path class="cls-14" d="M149.56,123.2a.5.5,0,0,1-.49-.43c-.46-3.39.31-4.42,1-5.34a3.47,3.47,0,0,0,.72-1.39,9.3,9.3,0,0,0,.1-1.26c.05-1.5.12-3.36,1.47-3.75a1.15,1.15,0,0,1,1,.08c.46.33.5,1,.56,2.17a33,33,0,0,0,.91,6.59.5.5,0,0,1-.37.6.49.49,0,0,1-.6-.37,34.76,34.76,0,0,1-.94-6.77,7.13,7.13,0,0,0-.14-1.39l-.15,0c-.66.2-.71,1.79-.75,2.84a8.75,8.75,0,0,1-.13,1.43,4.19,4.19,0,0,1-.89,1.78c-.62.83-1.2,1.62-.8,4.61a.5.5,0,0,1-.43.56Z"/>
                  <path class="cls-14" d="M147.27,120.66a1.84,1.84,0,0,1-.33,0,2.9,2.9,0,0,1-1.48-.83,8.13,8.13,0,0,1-2.21-3.84.5.5,0,0,1,1-.26,7.14,7.14,0,0,0,1.92,3.37,2.05,2.05,0,0,0,1,.58.74.74,0,0,0,.73-.26,1.48,1.48,0,0,0-.1-1.09l-.05-.14c-.39-1.17-.93-2.78-1.39-3.84a.5.5,0,1,1,.92-.4c.47,1.1,1,2.73,1.42,3.93l0,.13a2.35,2.35,0,0,1,0,1.92A1.67,1.67,0,0,1,147.27,120.66Z"/>
                  <path class="cls-14" d="M145.56,122.47a.52.52,0,0,1-.47-.33.5.5,0,0,1,.3-.64.76.76,0,0,0,.43-.49,1.22,1.22,0,0,0-.24-1.07.5.5,0,0,1,.12-.7.49.49,0,0,1,.69.12,2.2,2.2,0,0,1,.38,2,1.73,1.73,0,0,1-1,1.13A.47.47,0,0,1,145.56,122.47Z"/>
                </g>
              </g>
              <g>
                <path class="cls-24" d="M181.46,115.19c-.44,12-.88,23.93-1.13,35.74a45.13,45.13,0,0,1-3.12,5.33c-3.79,5.61-9,10.83-13.39,11.77a5.49,5.49,0,0,1-3.46-1,8.66,8.66,0,0,1-1.56-1.19,17.81,17.81,0,0,1-3.19-4.73,105.94,105.94,0,0,1-10.29-31.32c3.77,0,9.08-1.87,12.92-7.84a145.67,145.67,0,0,0,7,19.23c2.64-4.5,4.11-9.59,6.27-14.35S176.76,117.42,181.46,115.19Z"/>
                <path class="cls-25" d="M177.22,156.26c-3.8,5.61-9,10.83-13.39,11.77a5.51,5.51,0,0,1-3.47-1l.19,0a11.22,11.22,0,0,0,7-4.21c1.87-2.57,2.3-5.88,2.62-9.05,1-10.09,1.5-20.38,5.14-30.2q.91,15.89,1.82,31.77Z"/>
              </g>
            </g>
            <g>
              <path class="cls-26" d="M193.5,167.05c-1.14,14.13-3.62,32.25-4.31,46.33,12.3-1.36,25.72-6.83,36.46-11.63.24-11.47.48-22.93,1-34.58C215.86,166,204.91,164.64,193.5,167.05Z"/>
              <g>
                <path class="cls-27" d="M193.93,170.85c-3-3-10.7-26.57-16.85-43.29a7.44,7.44,0,0,1,1.31-7.41c2-2.3,3.43-4.88,5.52-7.33,1.07,4.19,4.91,10.79,7,10.49,2.77-.39,11.43-11.88,13.72-17.22,7.12.6,11.83,2.83,17.67,7.44,4.45,21.19,11.58,46.82,10.18,48.81C224.8,173.29,200.14,177.05,193.93,170.85Z"/>
                <g>
                  <g>
                    <path class="cls-26" d="M188.4,123.06c3.25,1.74,4.42-.26,6.21-.52a16.57,16.57,0,0,1-1.11,6.25,12.39,12.39,0,0,0-3.48.38A10.33,10.33,0,0,1,188.4,123.06Z"/>
                    <path class="cls-26" d="M192.34,171.55c1.25-1.92,3.66-5.18,4.92-7.1-.31-11.91-2.46-24.09-3.77-35.74-1.42-.34-2.55-.73-3.67-.14-.3,11.08-1.79,24.2-2.31,35.29C188.24,166.42,190.45,169.24,192.34,171.55Z"/>
                  </g>
                  <path class="cls-28" d="M204.5,105.58c-3.79,6.43-14.34,17-13.49,18.2a15.64,15.64,0,0,1,12.61,3.36,52.52,52.52,0,0,0,3-20.38A5.24,5.24,0,0,1,204.5,105.58Z"/>
                  <path class="cls-28" d="M191,123.78c-.24-1.47-3-3.4-4.14-5.3a9.57,9.57,0,0,1-1.4-6.32A3.19,3.19,0,0,0,183,113.8a7.89,7.89,0,0,0-.87,2.93,59.2,59.2,0,0,0-.15,11.06A8.82,8.82,0,0,1,191,123.78Z"/>
                </g>
              </g>
            </g>
            <g>
              <path class="cls-24" d="M207.91,209c-2.64-29-6-58.79-7-86.69-.22-6.43.32-12.17,3.32-17.09,4.29,1.36,10.5,2.61,14.59,4.48a14.6,14.6,0,0,1,3.43,2,4.73,4.73,0,0,1,1.84,3.65,437,437,0,0,1,11.62,65.21C226.66,192.86,218.91,199.85,207.91,209Z"/>
              <path class="cls-19" d="M202.92,154.75q3.87-6.3,7.71-12.59a1.58,1.58,0,0,0-.15-2.4c-1.95-2.1-3.89-4.19-6.06-6.71l6.66-8a5.53,5.53,0,0,0,1.06-1.62,5.91,5.91,0,0,0-.24-3.54,68.86,68.86,0,0,1-2.12-13.62c-2.09-.48-3.51-1-6.41-1.61C198.61,118.25,199.22,138.75,202.92,154.75Z"/>
            </g>
            <g>
              <path class="cls-24" d="M176.79,213.38c-4.49-26-1.5-52.75-3-79.14-.22-3.81-.52-7.75.79-11.34,2-5.39,7.13-8.86,12-12-2.5,4.84-2.59,10-2.61,15.09-.13,28.42.76,56.84,2.79,85A69.29,69.29,0,0,0,176.79,213.38Z"/>
              <path class="cls-19" d="M184.23,158.05l-7.07-12.15a2.17,2.17,0,0,1,.44-3.42,52,52,0,0,0,5.26-5c-.3-2-2.05-3.41-3.64-4.66s-3.29-2.78-3.38-4.8a7.29,7.29,0,0,1,.86-3.2l3.44-7.77a15.18,15.18,0,0,1,2.42-4.21,6.18,6.18,0,0,1,4.51-1.89A355.13,355.13,0,0,0,184.23,158.05Z"/>
            </g>
            <g>
              <g>
                <path class="cls-10" d="M179.09,192.92c-1.51.83-5.4,3.75-7.09,4.06a9.11,9.11,0,0,1-3.93-.45l-7.27-1.93c-.52-.14-1.11-.33-1.22-.91a1,1,0,0,1,.32-.88,2.38,2.38,0,0,1,1.65-.51c2-.09,4,.14,6.14.25l-7.77-1.76c-.42-.09-.87-.21-1-.72a1,1,0,0,1,.3-1,2.58,2.58,0,0,1,2-.49c-.63-.55-.1-1.71.71-2a3.65,3.65,0,0,1,2.43.48h0a.84.84,0,0,1,.42-1.6l5.73.47a6.78,6.78,0,0,0,2.38-.08,37.9,37.9,0,0,0,8-3.42c1.31,3.34,2.28,5.7,3.59,9A40.2,40.2,0,0,0,179.09,192.92Z"/>
                <g>
                  <path class="cls-29" d="M160.77,180.61c-3.2.55-6.41,1.12-9.75,1.51a22.17,22.17,0,0,0-.24,4.62,15.63,15.63,0,0,0,3.44,3.5,3.79,3.79,0,0,0,2,.73,6.49,6.49,0,0,1,4.6,2.32,1.26,1.26,0,0,0,.63.52.73.73,0,0,0,.74-.39,1.36,1.36,0,0,0,.1-.89,3.72,3.72,0,0,0-1.43-2.25c-.72-.57-1.55-.95-2.12-1.41a7.74,7.74,0,0,1,4.92,1.13c.87.58,1.26,1.26,2.68,3.11a2.74,2.74,0,0,0,.89.87,1,1,0,0,0,1.16-.11,1,1,0,0,0,.18-.9,2.9,2.9,0,0,0-.43-.84,40,40,0,0,1-2.36-4.17c1.43,1.36,1.88,1.39,3,3,.29.41.67.89,1.17.81a.9.9,0,0,0,.63-1,6.36,6.36,0,0,0-.43-1.2,1.63,1.63,0,0,0,.17-2.37,1.56,1.56,0,0,0,0-1.66,4.37,4.37,0,0,0-1.24-1.22c-2-1.55-3.11-1.72-5.21-3.18A3.73,3.73,0,0,0,160.77,180.61Z"/>
                  <path class="cls-30" d="M168.56,188.5a.47.47,0,0,1-.34-.13,10,10,0,0,0-6.62-2.58.5.5,0,1,1,0-1h0a11,11,0,0,1,7.29,2.85.48.48,0,0,1,0,.7A.46.46,0,0,1,168.56,188.5Z"/>
                  <path class="cls-30" d="M169.67,187.26a.49.49,0,0,1-.39-.17,10.8,10.8,0,0,0-6.43-3.64.5.5,0,0,1-.41-.58.49.49,0,0,1,.57-.41,11.87,11.87,0,0,1,7,4,.52.52,0,0,1-.06.71A.5.5,0,0,1,169.67,187.26Z"/>
                </g>
                <g>
                  <path class="cls-10" d="M171.37,192.86l-7.89-3.28c-.47-.2-1-.51-1-1a.87.87,0,0,1,.5-.75,2.3,2.3,0,0,1,.91-.22,11.9,11.9,0,0,1,5.31.88,5.28,5.28,0,0,1,4.93,0"/>
                  <path class="cls-31" d="M171.38,193.36a.48.48,0,0,1-.2,0L163.29,190c-.33-.14-1.33-.55-1.34-1.48a1.35,1.35,0,0,1,.76-1.19,2.72,2.72,0,0,1,1.11-.28,12.35,12.35,0,0,1,5.33.83,5.75,5.75,0,0,1,5.19.08.51.51,0,0,1,.2.68.49.49,0,0,1-.67.21,4.79,4.79,0,0,0-4.46,0l-.21.11-.22-.09a11.3,11.3,0,0,0-5.08-.84,1.81,1.81,0,0,0-.72.16.41.41,0,0,0-.23.3c0,.1.09.3.73.56l7.89,3.29a.5.5,0,0,1,.27.65A.51.51,0,0,1,171.38,193.36Z"/>
                </g>
              </g>
              <path class="cls-32" d="M203,155.72c-1.95,2.93-10.47,13.32-28.91,27.89,2.66,4.79,6.21,11.74,7.19,17.06,17.25-10.95,34.25-26.72,36.37-30.9,3-5.83,15-33.88,9.66-51.12-2.32-7.54-7.9-9.64-10.21-7.74C212.12,115,207.3,149.26,203,155.72Z"/>
            </g>
          </g>
          <g>
            <g>
              <path class="cls-33" d="M89.13,129.41c-1,1.44-1.23,3.57,0,4.8a11.49,11.49,0,1,1-16.76,15.7A12,12,0,0,1,71,136.71a10.41,10.41,0,0,1,2.54-3.21c4.75-4,5.09-12.15.69-16.52a11.77,11.77,0,0,1,0-16A10.8,10.8,0,0,1,79.8,98,11.6,11.6,0,0,1,90.26,101a22.68,22.68,0,0,1,6.43,13,14,14,0,0,1-3.9,11.79A26,26,0,0,0,89.13,129.41Z"/>
              <path class="cls-34" d="M77.57,118.11c1.92,4.08,2,9.24-.71,12.84-1.6,2.13-4,3.53-5.7,5.58l-.13.17a10.38,10.38,0,0,1,2.54-3.21c4.75-4,5.09-12.14.68-16.51a11.78,11.78,0,0,1,0-16A10.74,10.74,0,0,1,79.8,98a10.15,10.15,0,0,0-3.37,2.17,10.62,10.62,0,0,0-2.72,10.38C74.51,113.29,76.36,115.55,77.57,118.11Z"/>
            </g>
            <g>
              <path class="cls-13" d="M153.9,217a133.09,133.09,0,0,1-20.05,1.5q-4,0-8-.24a134.11,134.11,0,0,1-25.36-4,61.36,61.36,0,0,1-4.07-11.69,22.21,22.21,0,0,1,.73-12.3c11.91-1.21,23.83-2.4,35.9-3.86,4.11,5.28,7.17,11.28,11,16.71C147.24,207.76,150.92,212.07,153.9,217Z"/>
              <path class="cls-35" d="M133.85,218.53q-4,0-8-.24a105.65,105.65,0,0,1-3.58-11.68,29.42,29.42,0,0,0,9.47-7.19,22.1,22.1,0,0,1-2.42,8.34A27.35,27.35,0,0,0,133.85,218.53Z"/>
            </g>
            <g>
              <path class="cls-29" d="M156.42,182.5c-.93,1.95-1.86,3.89-2.69,5.9a50.5,50.5,0,0,1-20.37-11.84,68,68,0,0,1-15.56-22.84,84.79,84.79,0,0,1-3.45-9.69c1.11-2.08,2.1-3.91,3.18-5.95,3.53-3.29,10.55-1.85,13.46,5.93C139.05,165.57,142.15,171.87,156.42,182.5Z"/>
              <path class="cls-30" d="M133.36,176.56a67.8,67.8,0,0,1-15.56-22.84c.58-3.74,1.12-7.6,1.57-11.68,3.93,3.8,6.18,9,7.73,14.23s2.51,10.65,4.34,15.79A37.78,37.78,0,0,0,133.36,176.56Z"/>
            </g>
            <g>
              <g>
                <path class="cls-36" d="M135.24,188c-1.47,4.33-6,8.16-6.77,8.55-1.47.74-8.74-2.59-9.85-3.56-6.09,7-8.73,8.82-10.11,8.9-1.72.11-12-5.34-14.31-6.73,2-9.26,3.29-13.45,2.83-15.18-.39-1.43-4-10-6.31-15.22a47.41,47.41,0,0,1-4.26-14.36c-.09-.82-.15-1.65-.17-2.47s0-1.41,0-2.12c.08-1.84-1.72-4-.63-5.48s1.13-3.26,4.92-2.11c2.75.84,7.49,2.35,10,4a27,27,0,0,0,17.58-4.6c9,17.07,8.66,18.12,8.66,33.29,0,1.06,3.13,7.91,6.19,13.34.64,1.15,1.28,2.24,1.89,3.19Z"/>
                <path class="cls-37" d="M135.24,188c-1.47,4.33-6,8.16-6.77,8.55-1.47.74-8.74-2.59-9.85-3.56-6.09,7-8.73,8.82-10.11,8.9-1.72.11-12-5.34-14.31-6.73,2-9.26,3.29-13.45,2.83-15.18-.39-1.43-4-10-6.31-15.22a47.41,47.41,0,0,1-4.26-14.36c-.09-.82-.15-1.65-.17-2.47a45,45,0,0,1,4.3-5c3.16,4.38,3.93,10,4.4,15.39s.78,11,3.26,15.77,7.83,8.62,13.1,7.43a4.77,4.77,0,0,1,1.62-.22,1.18,1.18,0,0,1,1.08,1.05c0,.61-.65,1-1.22,1.24a15.14,15.14,0,0,1-6.59,1.06c-1.2-.07-2.9.15-2.84,1.34,0,.63.62,1.07,1.16,1.39A23.79,23.79,0,0,0,133,184.24c.65,1.15,1.29,2.24,1.9,3.19Z"/>
              </g>
              <g>
                <path class="cls-37" d="M108.3,151.64a21,21,0,0,1-8.26,3.15,3.19,3.19,0,0,1-2-.18,3.07,3.07,0,0,1-1.11-1.37A12,12,0,0,1,95.54,148a108,108,0,0,1,22.27-2.37,11.34,11.34,0,0,1,.67,3.29,3.85,3.85,0,0,1-1.23,3,5,5,0,0,1-3.43.83A14.72,14.72,0,0,1,108.3,151.64Z"/>
                <g>
                  <path class="cls-38" d="M107.9,151.66c1.44-.06,4.52.33,6,.47a4.36,4.36,0,0,0,3.94-1.26,4.69,4.69,0,0,0,.74-3.08c-.06-2.4-1.8-4.92-2.92-6.92a4.5,4.5,0,0,0-1.75-2,5.1,5.1,0,0,0-3.64.13,3.19,3.19,0,0,0-1.74.93,3,3,0,0,0-.47,1.79A58.33,58.33,0,0,0,107.9,151.66Z"/>
                  <path class="cls-38" d="M108,151.66a19.75,19.75,0,0,0-3-8.15,10.14,10.14,0,0,0-6.89-4.66,3.55,3.55,0,0,0-2.25.29,3.91,3.91,0,0,0-1.62,3.09c-.4,3.53.93,7.05,2.7,10.14a2.62,2.62,0,0,0,3.54,1.67A38.13,38.13,0,0,0,108,151.66Z"/>
                </g>
              </g>
              <g>
                <circle class="cls-39" cx="109.38" cy="154.76" r="0.96"/>
                <circle class="cls-39" cx="110.35" cy="160.89" r="0.96"/>
              </g>
            </g>
            <g>
              <path class="cls-29" d="M81,149.11c.21-6.14,2-12.8,8.67-11.17,1.54.37,3.92,7.43,3.48,13.72-1.43,20.32-1.73,32.73-3.26,54.45a16,16,0,0,1-7.2-1.64C82.65,204.33,80.33,167.18,81,149.11Z"/>
              <g>
                <path class="cls-29" d="M90,203.81c.67,1.54,1.35,3.32.62,4.85a5.34,5.34,0,0,1-2.25,2.11,29.17,29.17,0,0,1-6,2.75,3.23,3.23,0,0,1-1.62.22,1.21,1.21,0,0,1-1-1.1c0-.59.56-1,1-1.3,1.27-.8,2.53-1.6,3.55-2.37a76.33,76.33,0,0,0-13,3.17,5.11,5.11,0,0,1-2,.4,1.69,1.69,0,0,1-1.54-1.08,1.21,1.21,0,0,1,1-1.43,1.16,1.16,0,0,1-.37-1.21,1.22,1.22,0,0,1,.92-.8,1.68,1.68,0,0,1,.21-1.43,2.07,2.07,0,0,1,1.11-.76,3.24,3.24,0,0,1,1.81-1.44A24.55,24.55,0,0,1,90,203.81Z"/>
                <path class="cls-30" d="M69.23,210.34a.48.48,0,0,1-.48-.37.49.49,0,0,1,.35-.61l8.56-2.26a.5.5,0,0,1,.26,1l-8.56,2.27Z"/>
                <path class="cls-30" d="M69.81,208.44a.52.52,0,0,1-.47-.33.5.5,0,0,1,.3-.64,47.85,47.85,0,0,1,7.87-2.19.5.5,0,1,1,.19,1A46.91,46.91,0,0,0,70,208.41.57.57,0,0,1,69.81,208.44Z"/>
                <path class="cls-30" d="M71.19,206.18a.52.52,0,0,1-.47-.33.5.5,0,0,1,.3-.64,34.64,34.64,0,0,1,6.39-1.69.5.5,0,1,1,.16,1,34.31,34.31,0,0,0-6.21,1.65A.47.47,0,0,1,71.19,206.18Z"/>
              </g>
            </g>
            <g>
              <g>
                <path class="cls-29" d="M111.25,141.37a1.45,1.45,0,0,1,1.94,1.42c-.18,4.19-4.06,8.77-5.3,8.87-1.51.13-9-3.5-10.68-9a1.11,1.11,0,0,1,1.4-1.38h0c-.05-.95-.13-1.88-.23-2.79A37.56,37.56,0,0,0,97,131.76c4.29.09,8.58.18,12.29.1.6,2.73,1.2,5.45,1.68,8.09.07.4.16,1,.23,1.41Z"/>
                <path class="cls-30" d="M111,140a19.81,19.81,0,0,1-12.62-1.43A38.45,38.45,0,0,0,97,131.76c4.28.09,8.57.18,12.28.1C109.92,134.59,110.53,137.32,111,140Z"/>
              </g>
              <g>
                <path class="cls-30" d="M116.76,117.81c2.47-1,5.07-.17,5.83,1.76s-.64,4.27-3.1,5.23-5.07.18-5.83-1.75S114.3,118.77,116.76,117.81Z"/>
                <g>
                  <path class="cls-29" d="M117.45,114.59c-2.69-10.24-11.81-16.72-20.38-14.48s-13.34,12.37-10.66,22.61,13.52,16.71,22.1,14.46S120.13,124.83,117.45,114.59Z"/>
                  <path class="cls-30" d="M91.4,122.49c.64-.84,1.26-1.68,2.11-2.64a16.93,16.93,0,0,0,10.26-14.93c3.84,2.54,8,5.14,11.92,8.19l2.28,4.24A17.11,17.11,0,0,0,113.72,107a28.15,28.15,0,0,0-9-6.78,3,3,0,0,0-1.63-.45,3.11,3.11,0,0,0-1.85,1.25L90.65,112.64a2.87,2.87,0,0,0-.88,3.41C90.22,117.79,90.67,119.53,91.4,122.49Z"/>
                </g>
                <g>
                  <path class="cls-34" d="M103.33,120.69c.45-.06.88.4,1,1s-.22,1.18-.66,1.24-.88-.4-1-1S102.88,120.75,103.33,120.69Z"/>
                  <path class="cls-34" d="M115.46,119.09c.45-.06.88.4,1,1s-.21,1.17-.66,1.23-.88-.4-1-1S115,119.15,115.46,119.09Z"/>
                  <path class="cls-34" d="M112,114.81a.5.5,0,0,1-.33-.88,5.3,5.3,0,0,1,5.19-.71.51.51,0,0,1,.27.65.5.5,0,0,1-.66.27,4.32,4.32,0,0,0-4.15.55A.49.49,0,0,1,112,114.81Z"/>
                  <path class="cls-34" d="M97,118.17a.48.48,0,0,1-.26-.07.5.5,0,0,1-.16-.69,6,6,0,0,1,6.51-2.52.5.5,0,1,1-.27,1,5,5,0,0,0-5.39,2.09A.51.51,0,0,1,97,118.17Z"/>
                  <path class="cls-40" d="M111.9,126a.5.5,0,0,1-.5-.5,19.2,19.2,0,0,0-.9-5.72.5.5,0,0,1,.33-.62.5.5,0,0,1,.63.32,20.46,20.46,0,0,1,.94,6,.5.5,0,0,1-.5.5Z"/>
                </g>
                <g>
                  <path class="cls-34" d="M118.39,120.76c0-2.38-1.53-6.64-2-7.76a66.08,66.08,0,0,0-13.84-10.54c0,8.33-5.31,13.81-9.91,17.3A39.36,39.36,0,0,0,91.13,127,14.22,14.22,0,0,0,87,125.56c0-.07,0-.14-.47-.15-3.49-4.89-7-15.73-.91-22.53a15.44,15.44,0,0,1,2.2-2,14.21,14.21,0,0,1,10.27-2.79,12.76,12.76,0,0,1,11.92-.77c3.84,1.68,6.53,5.31,8.08,9.2a16.6,16.6,0,0,1,.94,5.37h0A48.19,48.19,0,0,1,118.39,120.76Z"/>
                  <path class="cls-41" d="M119.08,111.87a30.57,30.57,0,0,0-2.68-5.7A16,16,0,0,0,109,99.6a11.05,11.05,0,0,0-9.73.6,16.63,16.63,0,0,0-11.36.66,14.16,14.16,0,0,1,10.27-2.79,12.73,12.73,0,0,1,11.92-.77c3.84,1.68,6.53,5.31,8.08,9.2A16.32,16.32,0,0,1,119.08,111.87Z"/>
                </g>
                <g>
                  <path class="cls-16" d="M118.22,124.72a1,1,0,0,1-1-1.25,20.79,20.79,0,0,0,.8-6.18,1,1,0,0,1,1-1,1,1,0,0,1,1,1,22.62,22.62,0,0,1-.87,6.67A1,1,0,0,1,118.22,124.72Z"/>
                  <g>
                    <path class="cls-16" d="M94.53,127.32c-1.54-1.68-4.23-3.58-6.19-3.78l.21-2c2.59.27,5.68,2.48,7.45,4.42Z"/>
                    <path class="cls-16" d="M97.25,136.66a19.68,19.68,0,0,1-8.91-7.19L90,128.35a17.59,17.59,0,0,0,8,6.45Z"/>
                    <ellipse class="cls-29" cx="87.14" cy="125.54" rx="3.75" ry="4.79" transform="translate(-50.25 192.45) rotate(-81.2)"/>
                    <g>
                      <path class="cls-17" d="M97,135.86A29.93,29.93,0,0,1,94.67,126a192.83,192.83,0,0,0,24-4.06,21.22,21.22,0,0,1-2.36,11c-1.8,2.42-3.28,4.06-6,5.11A31,31,0,0,1,97,135.86Z"/>
                      <path class="cls-18" d="M96.78,129a79.44,79.44,0,0,0,20-3.8,16.3,16.3,0,0,1-9.42,4A61.91,61.91,0,0,1,96.78,129Z"/>
                      <path class="cls-18" d="M98.78,133.56a60.79,60.79,0,0,0,16.94-3.3,13,13,0,0,1-8,3.82A30.67,30.67,0,0,1,98.78,133.56Z"/>
                    </g>
                  </g>
                </g>
              </g>
            </g>
          </g>
        </g>
      </g>
    </g>
    <g>
      <g>
        <rect class="cls-2" x="39.05" y="248.55" width="214.24" height="23.11" rx="11.56"/>
        <path class="cls-3" d="M241.74,272.66H50.61a12.56,12.56,0,1,1,0-25.11H241.74a12.56,12.56,0,0,1,0,25.11ZM50.61,249.55a10.56,10.56,0,1,0,0,21.11H241.74a10.56,10.56,0,0,0,0-21.11Z"/>
      </g>
      <g>
        <path class="cls-42" d="M70.46,255.81h1.15l-3.14,8.57H67.35l-3.14-8.57h1.14L67.91,263Z"/>
        <path class="cls-42" d="M73.81,264.5a2.05,2.05,0,0,1-1.31-.41,1.48,1.48,0,0,1-.52-1.23,1.87,1.87,0,0,1,.16-.78,1.44,1.44,0,0,1,.49-.55,3.49,3.49,0,0,1,.7-.34,7.08,7.08,0,0,1,.92-.21l1-.16c.36-.07.53-.25.53-.55a1.06,1.06,0,0,0-.37-.9,1.6,1.6,0,0,0-1-.28,1.54,1.54,0,0,0-.94.28,1.12,1.12,0,0,0-.44.84l-1-.21a1.85,1.85,0,0,1,.75-1.28,2.83,2.83,0,0,1,1.63-.43,3.34,3.34,0,0,1,.87.11,2.16,2.16,0,0,1,.72.34,1.45,1.45,0,0,1,.52.64,2.48,2.48,0,0,1,.19,1v2.47a1.05,1.05,0,0,0,.13.63.58.58,0,0,0,.47.16h.1v.76H77a1,1,0,0,1-1.13-.81h0A2.29,2.29,0,0,1,73.81,264.5Zm.24-.86a1.59,1.59,0,0,0,1.28-.57,2.38,2.38,0,0,0,.49-1.59l-1.58.31a2.17,2.17,0,0,0-.93.33.87.87,0,0,0,0,1.31A1.23,1.23,0,0,0,74.05,263.64Z"/>
        <path class="cls-42" d="M81.32,264.49a2.83,2.83,0,0,1-2.14-.86,3,3,0,0,1-.85-2.24,3.07,3.07,0,0,1,.84-2.25,2.91,2.91,0,0,1,2.15-.86,3,3,0,0,1,1.73.52,2.65,2.65,0,0,1,1,1.46l-1,.16a1.85,1.85,0,0,0-.67-.93,1.87,1.87,0,0,0-1.09-.33,1.75,1.75,0,0,0-1.38.61,2.65,2.65,0,0,0,0,3.23,1.78,1.78,0,0,0,1.38.61,1.87,1.87,0,0,0,1.09-.33,1.85,1.85,0,0,0,.67-.93l1,.16A2.59,2.59,0,0,1,83,264,2.81,2.81,0,0,1,81.32,264.49Z"/>
        <path class="cls-42" d="M89.34,258.4h1v6h-1l0-.79a1.77,1.77,0,0,1-.74.67,2.26,2.26,0,0,1-1,.24,2.08,2.08,0,0,1-1.5-.54,2,2,0,0,1-.56-1.53v-4h1v3.79a1.39,1.39,0,0,0,.37,1.07,1.27,1.27,0,0,0,.94.35,1.41,1.41,0,0,0,1.06-.41,1.73,1.73,0,0,0,.42-1.22Z"/>
        <path class="cls-42" d="M95.36,258.28a2.06,2.06,0,0,1,1.5.54,2,2,0,0,1,.57,1.53v4H96.37v-3.79a1.43,1.43,0,0,0-.36-1.07,1.33,1.33,0,0,0-.94-.35,1.45,1.45,0,0,0-1.06.41,1.64,1.64,0,0,0-.42,1.22v3.58H92.53v-6h1.06v.76A2,2,0,0,1,95.36,258.28Z"/>
        <path class="cls-42" d="M100.84,264.5a2.05,2.05,0,0,1-1.31-.41,1.5,1.5,0,0,1-.51-1.23,1.73,1.73,0,0,1,.16-.78,1.36,1.36,0,0,1,.49-.55,3.24,3.24,0,0,1,.7-.34,6.9,6.9,0,0,1,.91-.21l1-.16c.35-.07.53-.25.53-.55a1.06,1.06,0,0,0-.38-.9,1.54,1.54,0,0,0-.94-.28,1.5,1.5,0,0,0-.94.28,1.12,1.12,0,0,0-.44.84l-1-.21a1.82,1.82,0,0,1,.75-1.28,2.83,2.83,0,0,1,1.63-.43,3.32,3.32,0,0,1,.86.11,2.12,2.12,0,0,1,.73.34,1.52,1.52,0,0,1,.52.64,2.48,2.48,0,0,1,.18,1v2.47a1,1,0,0,0,.14.63.58.58,0,0,0,.47.16h.1v.76H104a1,1,0,0,1-1.13-.81h0A2.27,2.27,0,0,1,100.84,264.5Zm.25-.86a1.59,1.59,0,0,0,1.28-.57,2.38,2.38,0,0,0,.49-1.59l-1.58.31a2.17,2.17,0,0,0-.93.33.88.88,0,0,0,0,1.31A1.29,1.29,0,0,0,101.09,263.64Z"/>
        <path class="cls-42" d="M110.29,255h1v9.35h-1l0-1.16a2.15,2.15,0,0,1-.85.94,2.4,2.4,0,0,1-1.27.35,2.64,2.64,0,0,1-1.08-.22,2.79,2.79,0,0,1-.89-.62,2.89,2.89,0,0,1-.6-1,3.61,3.61,0,0,1-.23-1.29,3.14,3.14,0,0,1,.82-2.24,2.6,2.6,0,0,1,2-.87,2.38,2.38,0,0,1,1.26.34,2.16,2.16,0,0,1,.85.92Zm-1.89,8.57a1.77,1.77,0,0,0,1.39-.63,2.46,2.46,0,0,0,0-3.15,1.8,1.8,0,0,0-1.39-.63,1.83,1.83,0,0,0-1.4.61,2.29,2.29,0,0,0-.56,1.59A2.25,2.25,0,0,0,107,263,1.84,1.84,0,0,0,108.4,263.6Z"/>
        <path class="cls-42" d="M116,264.5a3.27,3.27,0,0,1-1.54-.37,2.76,2.76,0,0,1-1.08-1.09,3.41,3.41,0,0,1-.4-1.65,3.09,3.09,0,0,1,.85-2.26,2.93,2.93,0,0,1,2.17-.85,2.89,2.89,0,0,1,2.16.85,3.43,3.43,0,0,1,0,4.52A3,3,0,0,1,116,264.5Zm0-.88a1.85,1.85,0,0,0,1.42-.61,2.62,2.62,0,0,0,0-3.24,1.85,1.85,0,0,0-1.42-.61,1.81,1.81,0,0,0-1.4.61,2.62,2.62,0,0,0,0,3.24A1.81,1.81,0,0,0,116,263.62Z"/>
        <path class="cls-42" d="M121.7,259.45a1.78,1.78,0,0,1,.74-.8,2.19,2.19,0,0,1,1.15-.32v1a2,2,0,0,0-1.39.45,1.84,1.84,0,0,0-.48,1.42v3.19h-1v-6h1Z"/>
        <path class="cls-42" d="M130,261.27v.29H125.3a2.13,2.13,0,0,0,.58,1.53,1.89,1.89,0,0,0,1.36.53,1.69,1.69,0,0,0,1-.29,1.75,1.75,0,0,0,.68-.79l1,.2a2.62,2.62,0,0,1-1,1.29,3.07,3.07,0,0,1-3.74-.37,3.55,3.55,0,0,1,0-4.54,2.85,2.85,0,0,1,2.12-.84,2.69,2.69,0,0,1,2,.77A3,3,0,0,1,130,261.27Zm-2.77-2.18a1.86,1.86,0,0,0-1.24.42,1.93,1.93,0,0,0-.63,1.24h3.58a1.8,1.8,0,0,0-.52-1.24A1.71,1.71,0,0,0,127.22,259.09Z"/>
        <path class="cls-42" d="M133.53,264.5a2.9,2.9,0,0,1-1.61-.43,1.78,1.78,0,0,1-.78-1.24l.91-.26a1.28,1.28,0,0,0,.49.83,1.6,1.6,0,0,0,1,.3,2,2,0,0,0,.57-.08.88.88,0,0,0,.44-.29.75.75,0,0,0,.18-.55.7.7,0,0,0-.05-.25,1.72,1.72,0,0,0-.09-.19.59.59,0,0,0-.18-.17l-.2-.13-.27-.11-.29-.1-.34-.09-.34-.1c-.26-.08-.46-.15-.63-.22a2.91,2.91,0,0,1-.5-.29,1.18,1.18,0,0,1-.39-.47,1.6,1.6,0,0,1-.13-.67,1.52,1.52,0,0,1,.29-1,1.58,1.58,0,0,1,.76-.56,2.91,2.91,0,0,1,1.06-.18,2.61,2.61,0,0,1,1.46.39,1.68,1.68,0,0,1,.72,1.17l-.86.22a1.17,1.17,0,0,0-.46-.76,1.5,1.5,0,0,0-.86-.25,1.47,1.47,0,0,0-.8.21.7.7,0,0,0-.33.64.74.74,0,0,0,.08.34,1.54,1.54,0,0,0,.18.23,1.07,1.07,0,0,0,.33.18l.36.13.43.11.1,0,.57.16c.15.05.32.13.52.22a1.7,1.7,0,0,1,.46.33,1.41,1.41,0,0,1,.3.46,1.67,1.67,0,0,1,.12.65,1.71,1.71,0,0,1-.18.8,1.41,1.41,0,0,1-.49.56,2.6,2.6,0,0,1-.7.3A3.72,3.72,0,0,1,133.53,264.5Z"/>
        <path class="cls-42" d="M139.54,266.65l6-11.62h1l-6,11.62Z"/>
        <path class="cls-42" d="M154,258.28a2.7,2.7,0,0,1,2,.84,2.9,2.9,0,0,1,.6,1,3.64,3.64,0,0,1,.22,1.29,3.18,3.18,0,0,1-.8,2.26,2.63,2.63,0,0,1-2,.86,2.34,2.34,0,0,1-2.11-1.26v4.15h-1.05v-9h1l0,1.16a2.12,2.12,0,0,1,.85-.93A2.4,2.4,0,0,1,154,258.28Zm-.21,5.32a1.85,1.85,0,0,0,1.39-.61,2.28,2.28,0,0,0,.56-1.6,2.25,2.25,0,0,0-.56-1.59,1.85,1.85,0,0,0-1.39-.61,1.8,1.8,0,0,0-1.4.64,2.2,2.2,0,0,0-.58,1.56,2.23,2.23,0,0,0,.58,1.58A1.82,1.82,0,0,0,153.83,263.6Z"/>
        <path class="cls-42" d="M161,264.5a3.23,3.23,0,0,1-1.53-.37A2.76,2.76,0,0,1,158.4,263a3.3,3.3,0,0,1-.4-1.65,3,3,0,0,1,.85-2.26,3.18,3.18,0,0,1,4.33,0,3.43,3.43,0,0,1,0,4.52A3,3,0,0,1,161,264.5Zm0-.88a1.81,1.81,0,0,0,1.41-.61,2.59,2.59,0,0,0,0-3.24,1.81,1.81,0,0,0-1.41-.61,1.79,1.79,0,0,0-1.4.61,2.62,2.62,0,0,0,0,3.24A1.79,1.79,0,0,0,161,263.62Z"/>
        <path class="cls-42" d="M168.85,258.28a2.6,2.6,0,0,1,2,.87,3.52,3.52,0,0,1,0,4.49,2.57,2.57,0,0,1-2,.87,2.44,2.44,0,0,1-1.28-.35,2.15,2.15,0,0,1-.85-.94l0,1.16h-1V255h1v4.51a2.18,2.18,0,0,1,.86-.92A2.33,2.33,0,0,1,168.85,258.28Zm-.23,5.32A1.84,1.84,0,0,0,170,263a2.21,2.21,0,0,0,.56-1.59,2.24,2.24,0,0,0-.56-1.59,1.83,1.83,0,0,0-1.4-.61,1.8,1.8,0,0,0-1.39.63,2.46,2.46,0,0,0,0,3.15A1.78,1.78,0,0,0,168.62,263.6Z"/>
        <path class="cls-42" d="M173.29,264.38V255h1.07v9.35Z"/>
        <path class="cls-42" d="M177.88,264.5a2.07,2.07,0,0,1-1.31-.41,1.5,1.5,0,0,1-.51-1.23,1.73,1.73,0,0,1,.16-.78,1.36,1.36,0,0,1,.49-.55,3.24,3.24,0,0,1,.7-.34,7.29,7.29,0,0,1,.91-.21l1-.16c.35-.07.53-.25.53-.55a1.06,1.06,0,0,0-.37-.9,1.6,1.6,0,0,0-.95-.28,1.5,1.5,0,0,0-.94.28,1.12,1.12,0,0,0-.44.84l-1-.21a1.85,1.85,0,0,1,.75-1.28,2.83,2.83,0,0,1,1.63-.43,3.45,3.45,0,0,1,.87.11,2.16,2.16,0,0,1,.72.34,1.52,1.52,0,0,1,.52.64,2.48,2.48,0,0,1,.18,1v2.47a1,1,0,0,0,.14.63.58.58,0,0,0,.47.16h.1v.76H181a1,1,0,0,1-1.14-.81h0A2.27,2.27,0,0,1,177.88,264.5Zm.25-.86a1.59,1.59,0,0,0,1.28-.57,2.38,2.38,0,0,0,.49-1.59l-1.58.31a2.17,2.17,0,0,0-.93.33.77.77,0,0,0-.3.65.74.74,0,0,0,.29.66A1.23,1.23,0,0,0,178.13,263.64Z"/>
        <path class="cls-42" d="M185.4,264.49a2.87,2.87,0,0,1-2.15-.86,3.42,3.42,0,0,1,0-4.49,2.89,2.89,0,0,1,2.15-.86,3,3,0,0,1,1.73.52,2.7,2.7,0,0,1,1,1.46l-1,.16a1.81,1.81,0,0,0-1.76-1.26,1.75,1.75,0,0,0-1.38.61,2.65,2.65,0,0,0,0,3.23,1.78,1.78,0,0,0,1.38.61,1.81,1.81,0,0,0,1.76-1.26l1,.16a2.64,2.64,0,0,1-1,1.45A2.83,2.83,0,0,1,185.4,264.49Z"/>
        <path class="cls-42" d="M190.22,257a.72.72,0,0,1-.71-.71.67.67,0,0,1,.21-.5.69.69,0,0,1,.5-.21.72.72,0,0,1,.71.71.69.69,0,0,1-.21.5A.67.67,0,0,1,190.22,257Zm-.53,7.39v-6h1.06v6Z"/>
        <path class="cls-42" d="M195.41,264.5a3.21,3.21,0,0,1-1.53-.37A2.64,2.64,0,0,1,192.8,263a3.3,3.3,0,0,1-.4-1.65,3,3,0,0,1,.85-2.26,2.89,2.89,0,0,1,2.16-.85,2.93,2.93,0,0,1,2.17.85,3.46,3.46,0,0,1,0,4.52A3,3,0,0,1,195.41,264.5Zm0-.88a1.83,1.83,0,0,0,1.41-.61,2.62,2.62,0,0,0,0-3.24,1.93,1.93,0,0,0-2.82,0,2.62,2.62,0,0,0,0,3.24A1.81,1.81,0,0,0,195.41,263.62Zm-.4-6.25,1.53-2,.56.41-1.37,1.58Z"/>
        <path class="cls-42" d="M202.9,258.28a2.1,2.1,0,0,1,1.51.54,2,2,0,0,1,.56,1.53v4h-1.05v-3.79a1.43,1.43,0,0,0-.37-1.07,1.32,1.32,0,0,0-.94-.35,1.45,1.45,0,0,0-1.06.41,1.64,1.64,0,0,0-.42,1.22v3.58h-1.06v-6h1.06v.76A2,2,0,0,1,202.9,258.28Z"/>
        <path class="cls-42" d="M212.76,264.5a3.21,3.21,0,0,1-1.53-.37,2.64,2.64,0,0,1-1.08-1.09,3.3,3.3,0,0,1-.4-1.65,3,3,0,0,1,.85-2.26,3.18,3.18,0,0,1,4.33,0,3.43,3.43,0,0,1,0,4.52A3,3,0,0,1,212.76,264.5Zm0-.88a1.83,1.83,0,0,0,1.41-.61,2.62,2.62,0,0,0,0-3.24,1.93,1.93,0,0,0-2.82,0,2.62,2.62,0,0,0,0,3.24A1.81,1.81,0,0,0,212.76,263.62Z"/>
        <path class="cls-42" d="M220.6,258.28a2.6,2.6,0,0,1,2,.87,3.55,3.55,0,0,1,0,4.49,2.59,2.59,0,0,1-2,.87,2.44,2.44,0,0,1-1.28-.35,2.15,2.15,0,0,1-.85-.94l0,1.16h-1V255h1.05v4.51a2.16,2.16,0,0,1,.85-.92A2.39,2.39,0,0,1,220.6,258.28Zm-.23,5.32a1.84,1.84,0,0,0,1.4-.62,2.25,2.25,0,0,0,.56-1.59,2.29,2.29,0,0,0-.56-1.59,1.83,1.83,0,0,0-1.4-.61,1.78,1.78,0,0,0-1.39.63,2.26,2.26,0,0,0-.57,1.57A2.31,2.31,0,0,0,219,263,1.81,1.81,0,0,0,220.37,263.6Z"/>
        <path class="cls-42" d="M223.67,267.18v-.89a1.72,1.72,0,0,0,.85-.17,1,1,0,0,0,.41-.59,5.3,5.3,0,0,0,.11-1.23v-5.9h1.07v5.9a3.46,3.46,0,0,1-.56,2.23A2.37,2.37,0,0,1,223.67,267.18ZM225.58,257a.72.72,0,0,1-.71-.71.67.67,0,0,1,.21-.5.7.7,0,0,1,1,0,.67.67,0,0,1,.21.5.72.72,0,0,1-.71.71Z"/>
        <path class="cls-42" d="M233.49,261.27v.29H228.8a2.13,2.13,0,0,0,.58,1.53,1.89,1.89,0,0,0,1.36.53,1.74,1.74,0,0,0,1-.29,1.81,1.81,0,0,0,.68-.79l1,.2a2.62,2.62,0,0,1-1,1.29,3.07,3.07,0,0,1-3.74-.37,3.52,3.52,0,0,1,0-4.54,2.85,2.85,0,0,1,2.12-.84,2.69,2.69,0,0,1,2,.77A3,3,0,0,1,233.49,261.27Zm-2.77-2.18a1.86,1.86,0,0,0-1.24.42,1.93,1.93,0,0,0-.63,1.24h3.58a1.8,1.8,0,0,0-.52-1.24A1.71,1.71,0,0,0,230.72,259.09Z"/>
        <path class="cls-42" d="M237.05,264.38a1.58,1.58,0,0,1-1.17-.43,1.61,1.61,0,0,1-.42-1.19v-3.52h-1.23v-.84h.45a.84.84,0,0,0,.66-.21,1,1,0,0,0,.2-.71V256.4h1v2h1.37v.84h-1.37v3.41a.89.89,0,0,0,.23.66.81.81,0,0,0,.59.23h.55v.84Z"/>
        <path class="cls-42" d="M241.86,264.5a3.21,3.21,0,0,1-1.53-.37,2.64,2.64,0,0,1-1.08-1.09,3.3,3.3,0,0,1-.4-1.65,3,3,0,0,1,.85-2.26,2.89,2.89,0,0,1,2.16-.85,2.93,2.93,0,0,1,2.17.85,3.43,3.43,0,0,1,0,4.52A3,3,0,0,1,241.86,264.5Zm0-.88a1.83,1.83,0,0,0,1.41-.61,2.62,2.62,0,0,0,0-3.24,1.93,1.93,0,0,0-2.82,0,2.62,2.62,0,0,0,0,3.24A1.81,1.81,0,0,0,241.86,263.62Z"/>
      </g>
      <circle class="cls-43" cx="51.46" cy="260.1" r="8.08"/>
      <path class="cls-2" d="M53.6,261a2.23,2.23,0,0,1-.19,1,2.32,2.32,0,0,1-.55.75,2.35,2.35,0,0,1-.81.48,2.64,2.64,0,0,1-1,.18,2.67,2.67,0,0,1-1-.18,2.52,2.52,0,0,1-.8-.5,2.34,2.34,0,0,1-.52-.75,2.24,2.24,0,0,1-.19-.93,2.82,2.82,0,0,1,.6-1.66l2.11-2.86h1.54l-1.76,2.3.31,0a2.31,2.31,0,0,1,.83.16,2.21,2.21,0,0,1,.7.45,2,2,0,0,1,.49.7A2.32,2.32,0,0,1,53.6,261Zm-1.32,0a1.14,1.14,0,0,0-.33-.88,1.21,1.21,0,0,0-.89-.34,1.16,1.16,0,0,0-.86.35,1.23,1.23,0,0,0-.34.85,1.17,1.17,0,0,0,.32.87,1.15,1.15,0,0,0,.87.33,1.25,1.25,0,0,0,.88-.32A1.15,1.15,0,0,0,52.28,261Z"/>
    </g>
  </g>
</svg>
