<svg id="Layer_1" enable-background="new 0 0 512 512" height="512" viewBox="0 0 512 512" width="512" xmlns="http://www.w3.org/2000/svg"><g><path d="m494.59 322.896c4.19-17.955 6.412-36.666 6.412-55.898 0-135.311-109.691-245.002-245.002-245.002s-245.002 109.691-245.002 245.002c0 19.231 2.222 37.943 6.412 55.898z" fill="#73c3f9"/><path d="m60.263 88.356h85.831v29.999h-85.831z" fill="#d3dcfb"/><path d="m96.662 103.355c0-8.284 6.715-15 15-15h-51.399v29.999h51.398c-8.284.001-14.999-6.715-14.999-14.999z" fill="#bec8f7"/><path d="m161.008 143.014c0-8.517 2.629-16.449 7.111-23.029-4.79-2.289-10.141-3.577-15.78-3.577h-98.323c-20.261 0-36.839 16.577-36.839 36.839v60.66s9.551-10.722 26.666-14.835v-21.667c0-5.474 4.438-9.911 9.912-9.911h98.846c3.551 0 6.657 1.874 8.407 4.68 0-13.231 0-25.364 0-29.16z" fill="#e9efff"/><path d="m54.016 116.409c-20.261 0-36.839 16.577-36.839 36.839v60.66s9.551-10.722 26.666-14.835v-21.667c0-5.474 4.438-9.912 9.912-9.912h48.42c1.014-1.765 2.099-2.788 2.099-2.788-22.164-22.164 0-48.296 0-48.296h-50.258z" fill="#d3dcfb"/><path d="m152.601 413.096h-93.287c25.983 34.923 61.044 62.689 101.695 79.803 0-32.593 0-71.877 0-84.483-1.751 2.807-4.857 4.68-8.408 4.68z" fill="#ff7186"/><path d="m102.911 413.096h-43.597c11.027 14.822 23.695 28.348 37.726 40.324-7.997-22.74 5.871-40.324 5.871-40.324z" fill="#ff4155"/><path d="m43.844 389.602v-192.197c-17.115 4.114-26.666 14.836-26.666 14.836v109.655c5.522 24.121 14.606 46.882 26.666 67.706z" fill="#ff4155"/><path d="m152.334 164.705h-98.846c-5.474 0-9.912 4.438-9.912 9.912v214.533c4.784 8.302 10.044 16.294 15.737 23.946h45.264v-46.425c0-3.216 2.607-5.823 5.823-5.823h51.844v-186.231c.002-5.474-4.436-9.912-9.91-9.912z" fill="#3c58a0"/><path d="m102.911 343.811v-62.3-33.797c-5.133-5.133 0-10.574 0-10.574v-56.126c-6.25-9.13 1.363-16.309 1.363-16.309h-50.786c-5.474 0-9.911 4.438-9.911 9.912v214.533c4.784 8.302 10.044 16.294 15.737 23.946h43.597l1.667-6.789v-39.636c0-3.216 2.607-5.823 5.823-5.823h3.978c-11.851-3.191-11.468-17.037-11.468-17.037z" fill="#2a428c"/><path d="m139.975 181.014h-16.745c-1.796 0-3.252 1.456-3.252 3.252v155.077c0 1.796 1.456 3.252 3.252 3.252h16.746c1.796 0 3.252-1.456 3.252-3.252v-155.077c-.001-1.796-1.457-3.252-3.253-3.252z" fill="#e9efff"/><path d="m108.735 359.181c-3.216 0-5.823 2.607-5.823 5.823v48.092h49.423c5.474 0 9.912-4.438 9.912-9.912v-44.004h-53.512z" fill="#6289cc"/><g><path d="m102.911 237.139c-3.452 0-6.25-2.798-6.25-6.25v-43.626c0-3.452 2.798-6.25 6.25-6.25s6.25 2.798 6.25 6.25v43.626c0 3.452-2.798 6.25-6.25 6.25z" fill="#ff7186"/></g><g><path d="m80.729 193.513h-17.439c-3.452 0-6.25-2.798-6.25-6.25s2.798-6.25 6.25-6.25h17.44c3.452 0 6.25 2.798 6.25 6.25s-2.799 6.25-6.251 6.25z" fill="#7aa5e2"/></g><g><path d="m80.729 214.811h-17.439c-3.452 0-6.25-2.798-6.25-6.25s2.798-6.25 6.25-6.25h17.44c3.452 0 6.25 2.798 6.25 6.25-.001 3.452-2.799 6.25-6.251 6.25z" fill="#7aa5e2"/></g><g><path d="m80.729 236.108h-17.439c-3.452 0-6.25-2.798-6.25-6.25s2.798-6.25 6.25-6.25h17.44c3.452 0 6.25 2.798 6.25 6.25-.001 3.452-2.799 6.25-6.251 6.25z" fill="#7aa5e2"/></g><g><path d="m80.729 257.406h-17.439c-3.452 0-6.25-2.798-6.25-6.25s2.798-6.25 6.25-6.25h17.44c3.452 0 6.25 2.798 6.25 6.25-.001 3.451-2.799 6.25-6.251 6.25z" fill="#7aa5e2"/></g><g><path d="m80.729 278.703h-17.439c-3.452 0-6.25-2.798-6.25-6.25s2.798-6.25 6.25-6.25h17.44c3.452 0 6.25 2.798 6.25 6.25s-2.799 6.25-6.251 6.25z" fill="#7aa5e2"/></g><g><path d="m80.729 300h-17.439c-3.452 0-6.25-2.798-6.25-6.25s2.798-6.25 6.25-6.25h17.44c3.452 0 6.25 2.798 6.25 6.25-.001 3.452-2.799 6.25-6.251 6.25z" fill="#7aa5e2"/></g><g><path d="m80.729 321.298h-17.439c-3.452 0-6.25-2.798-6.25-6.25s2.798-6.25 6.25-6.25h17.44c3.452 0 6.25 2.798 6.25 6.25-.001 3.452-2.799 6.25-6.251 6.25z" fill="#7aa5e2"/></g><g><path d="m80.729 342.595h-17.439c-3.452 0-6.25-2.798-6.25-6.25s2.798-6.25 6.25-6.25h17.44c3.452 0 6.25 2.798 6.25 6.25s-2.799 6.25-6.251 6.25z" fill="#7aa5e2"/></g><g><path d="m102.911 281.511c-3.452 0-6.25-2.798-6.25-6.25v-21.297c0-3.452 2.798-6.25 6.25-6.25s6.25 2.798 6.25 6.25v21.297c0 3.452-2.798 6.25-6.25 6.25z" fill="#6289cc"/></g><path d="m365.906 88.356h85.831v29.999h-85.831z" fill="#d3dcfb"/><path d="m402.305 103.355c0-8.284 6.716-15 15-15h-51.398v29.999h51.398c-8.284.001-15-6.715-15-14.999z" fill="#bec8f7"/><path d="m457.984 116.409h-98.324c-5.638 0-10.99 1.287-15.779 3.577 4.483 6.58 7.111 14.512 7.111 23.029v30.089c1.75-2.806 4.856-4.68 8.407-4.68h98.846c5.474 0 9.912 4.438 9.912 9.911v50.409c17.116-4.113 26.666-14.835 26.666-14.835v-60.66c-.001-20.263-16.578-36.84-36.839-36.84z" fill="#e9efff"/><path d="m343.881 119.985c4.483 6.58 7.111 14.512 7.111 23.029v30.089c1.75-2.807 4.856-4.68 8.407-4.68h48.014c.98-2.291 2.339-3.718 2.339-3.718-24.593-24.593.168-48.297.168-48.297h-50.26c-5.638.001-10.989 1.288-15.779 3.577z" fill="#d3dcfb"/><path d="m468.156 196.106v31.806c12.575-3.022 21.067-9.611 24.686-12.896l1.98-2.775s-10.404-10.755-26.666-16.135z" fill="#ffb332"/><path d="m494.822 321.896v-109.655s-9.551 10.722-26.666 14.836v162.525c12.06-20.824 21.144-43.585 26.666-67.706z" fill="#ffdd40"/><path d="m452.686 413.096h-93.288c-3.551 0-6.657-1.873-8.407-4.68v84.483c40.651-17.114 75.712-44.88 101.695-79.803z" fill="#ffdd40"/><path d="m359.399 413.096c-3.551 0-6.657-1.873-8.407-4.68v84.483c20.069-8.449 38.773-19.499 55.698-32.721-16.965-25.426 3.062-47.082 3.062-47.082z" fill="#ffb332"/><path d="m411.418 366.671c0-3.216 2.607-5.823 5.823-5.823h51.845v-186.231c0-5.474-4.438-9.912-9.912-9.912h-98.846c-5.474 0-9.911 4.438-9.911 9.912v228.568c0 5.474 4.438 9.912 9.911 9.912h51.09z" fill="#3c58a0"/><path d="m409.751 342.595v-61.084-33.797c-4.955-5.597 0-10.574 0-10.574v-56.126c-7.476-8.485 0-16.309 0-16.309h-49.423c-5.474 0-9.911 4.438-9.911 9.912v228.568c0 5.474 4.438 9.912 9.911 9.912h49.423l1.667-7.232v-39.193c0-3.216 2.607-5.823 5.823-5.823h4.549l.124-.537c-13.375-3.501-12.163-17.717-12.163-17.717z" fill="#2a428c"/><path d="m446.815 181.014h-16.745c-1.796 0-3.252 1.456-3.252 3.252v155.077c0 1.796 1.456 3.252 3.252 3.252h16.746c1.796 0 3.252-1.456 3.252-3.252v-155.077c-.001-1.796-1.457-3.252-3.253-3.252z" fill="#e9efff"/><path d="m469.086 387.977v-28.796h-53.511c-3.216 0-5.823 2.607-5.823 5.824v48.092h42.935c5.959-8.011 11.437-16.4 16.399-25.12z" fill="#6289cc"/><g><path d="m409.751 237.139c-3.452 0-6.25-2.798-6.25-6.25v-43.626c0-3.452 2.798-6.25 6.25-6.25s6.25 2.798 6.25 6.25v43.626c0 3.452-2.798 6.25-6.25 6.25z" fill="#ffdd40"/></g><g><path d="m387.569 193.513h-17.44c-3.452 0-6.25-2.798-6.25-6.25s2.798-6.25 6.25-6.25h17.44c3.452 0 6.25 2.798 6.25 6.25s-2.798 6.25-6.25 6.25z" fill="#7aa5e2"/></g><g><path d="m387.569 214.811h-17.44c-3.452 0-6.25-2.798-6.25-6.25s2.798-6.25 6.25-6.25h17.44c3.452 0 6.25 2.798 6.25 6.25s-2.798 6.25-6.25 6.25z" fill="#7aa5e2"/></g><g><path d="m387.569 236.108h-17.44c-3.452 0-6.25-2.798-6.25-6.25s2.798-6.25 6.25-6.25h17.44c3.452 0 6.25 2.798 6.25 6.25s-2.798 6.25-6.25 6.25z" fill="#7aa5e2"/></g><g><path d="m387.569 257.406h-17.44c-3.452 0-6.25-2.798-6.25-6.25s2.798-6.25 6.25-6.25h17.44c3.452 0 6.25 2.798 6.25 6.25 0 3.451-2.798 6.25-6.25 6.25z" fill="#7aa5e2"/></g><g><path d="m387.569 278.703h-17.44c-3.452 0-6.25-2.798-6.25-6.25s2.798-6.25 6.25-6.25h17.44c3.452 0 6.25 2.798 6.25 6.25s-2.798 6.25-6.25 6.25z" fill="#7aa5e2"/></g><g><path d="m387.569 300h-17.44c-3.452 0-6.25-2.798-6.25-6.25s2.798-6.25 6.25-6.25h17.44c3.452 0 6.25 2.798 6.25 6.25s-2.798 6.25-6.25 6.25z" fill="#7aa5e2"/></g><g><path d="m387.569 321.298h-17.44c-3.452 0-6.25-2.798-6.25-6.25s2.798-6.25 6.25-6.25h17.44c3.452 0 6.25 2.798 6.25 6.25s-2.798 6.25-6.25 6.25z" fill="#7aa5e2"/></g><g><path d="m387.569 342.595h-17.44c-3.452 0-6.25-2.798-6.25-6.25s2.798-6.25 6.25-6.25h17.44c3.452 0 6.25 2.798 6.25 6.25s-2.798 6.25-6.25 6.25z" fill="#7aa5e2"/></g><g><path d="m409.751 281.511c-3.452 0-6.25-2.798-6.25-6.25v-21.297c0-3.452 2.798-6.25 6.25-6.25s6.25 2.798 6.25 6.25v21.297c0 3.452-2.798 6.25-6.25 6.25z" fill="#6289cc"/></g><g><path d="m446.684 45.302c-8.155-12.223-22.066-20.277-37.862-20.277s-29.707 8.054-37.862 20.277z" fill="#3c58a0"/></g><path d="m411.108 25.097c-.759-.038-1.518-.073-2.286-.073-15.796 0-29.707 8.054-37.862 20.277h40.453c-8.933-3.143-9.234-16.936-.305-20.204z" fill="#2a428c"/><path d="m452.717 43.635h-87.789c-4.933 0-8.968 4.036-8.968 8.968v27.617c0 4.933 4.036 8.968 8.968 8.968h87.789c4.932 0 8.968-4.036 8.968-8.968v-27.617c0-4.932-4.036-8.968-8.968-8.968z" fill="#4b6bb2"/><path d="m406.292 80.221v-27.618c0-4.933 4.036-8.968 8.968-8.968h-50.333c-4.932 0-8.968 4.036-8.968 8.968v27.617c0 4.933 4.036 8.968 8.968 8.968h50.333c-4.932.001-8.968-4.035-8.968-8.967z" fill="#3c58a0"/><path d="m208.134 70.637h95.732v33.46h-95.732z" fill="#d3dcfb"/><path d="m244.533 87.367c0-9.24 7.49-16.73 16.73-16.73h-53.128v33.459h53.128c-9.24 0-16.73-7.49-16.73-16.729z" fill="#bec8f7"/><path d="m310.833 101.926h-109.666c-22.599 0-41.088 18.49-41.088 41.088v67.658s10.652-11.959 29.742-16.547v-27.276c0-6.105 4.949-11.055 11.055-11.055h110.248c6.106 0 11.055 4.95 11.055 11.055v60.37c19.09-4.588 29.742-16.547 29.742-16.547v-67.658c0-22.599-18.49-41.088-41.088-41.088z" fill="#e9efff"/><path d="m201.167 101.926c-22.598 0-41.088 18.49-41.088 41.088v67.658s10.652-11.959 29.742-16.547v-27.276c0-6.105 4.949-11.055 11.055-11.055h55.124c-25.966-25.966-2.975-53.868-2.975-53.868z" fill="#d3dcfb"/><path d="m322.179 190.817v35.475c14.026-3.371 23.497-10.72 27.533-14.383l2.209-3.096s-11.605-11.996-29.742-17.996z" fill="#38c674"/><path d="m322.179 225.36v196.423c0 6.105-4.949 11.055-11.055 11.055h-110.248c-6.106 0-11.055-4.949-11.055-11.055v-229.517c-19.09 4.588-29.742 16.547-29.742 16.547v283.691c29.461 12.547 61.878 19.496 95.921 19.496s66.461-6.949 95.921-19.496v-283.691s-10.652 11.959-29.742 16.547z" fill="#50dd89"/><path d="m256 432.838h-55.124c-6.106 0-11.055-4.949-11.055-11.055v-229.517c-19.09 4.588-29.742 16.547-29.742 16.547v283.691c28.165 11.995 59.036 18.857 91.442 19.439-28.309-41.933 4.479-79.105 4.479-79.105z" fill="#38c674"/><path d="m257.859 381.057c0-3.587 2.908-6.495 6.495-6.495h57.825v-207.714c0-6.105-4.949-11.055-11.055-11.055h-110.248c-6.105 0-11.055 4.95-11.055 11.055v254.934c0 6.105 4.949 11.055 11.055 11.055h56.983z" fill="#3c58a0"/><path d="m200.876 155.794c-6.105 0-11.055 4.949-11.055 11.055v254.934c0 6.105 4.949 11.055 11.055 11.055h55.124l1.859-6.73v-45.05c0-3.587 2.908-6.495 6.495-6.495h7.741l.069-.251c-17.333-1.334-16.164-18.168-16.164-18.168v-70.071-37.696c-5.882-5.882 0-11.794 0-11.794v-62.6c-8.871-8.871 0-18.19 0-18.19h-55.124z" fill="#2a428c"/><path d="m297.34 173.984h-18.678c-2.003 0-3.627 1.624-3.627 3.627v172.966c0 2.003 1.624 3.627 3.627 3.627h18.678c2.003 0 3.627-1.624 3.627-3.627v-172.966c0-2.004-1.624-3.627-3.627-3.627z" fill="#e9efff"/><path d="m262.495 372.703c-3.587 0-6.495 2.908-6.495 6.495v53.64h55.124c6.106 0 11.055-4.949 11.055-11.055v-49.08z" fill="#6289cc"/><g><path d="m256 236.584c-3.85 0-6.971-3.121-6.971-6.971v-48.659c0-3.85 3.121-6.971 6.971-6.971s6.971 3.121 6.971 6.971v48.659c0 3.85-3.121 6.971-6.971 6.971z" fill="#70f2a4"/></g><g><path d="m231.259 187.925h-19.452c-3.85 0-6.971-3.121-6.971-6.971s3.121-6.971 6.971-6.971h19.452c3.85 0 6.971 3.121 6.971 6.971s-3.121 6.971-6.971 6.971z" fill="#7aa5e2"/></g><g><path d="m231.259 211.679h-19.452c-3.85 0-6.971-3.121-6.971-6.971s3.121-6.971 6.971-6.971h19.452c3.85 0 6.971 3.121 6.971 6.971s-3.121 6.971-6.971 6.971z" fill="#7aa5e2"/></g><g><path d="m231.259 235.433h-19.452c-3.85 0-6.971-3.121-6.971-6.971s3.121-6.971 6.971-6.971h19.452c3.85 0 6.971 3.121 6.971 6.971 0 3.851-3.121 6.971-6.971 6.971z" fill="#7aa5e2"/></g><g><path d="m231.259 259.188h-19.452c-3.85 0-6.971-3.121-6.971-6.971s3.121-6.971 6.971-6.971h19.452c3.85 0 6.971 3.121 6.971 6.971s-3.121 6.971-6.971 6.971z" fill="#7aa5e2"/></g><g><path d="m231.259 282.942h-19.452c-3.85 0-6.971-3.121-6.971-6.971s3.121-6.971 6.971-6.971h19.452c3.85 0 6.971 3.121 6.971 6.971s-3.121 6.971-6.971 6.971z" fill="#7aa5e2"/></g><g><path d="m231.259 306.696h-19.452c-3.85 0-6.971-3.121-6.971-6.971s3.121-6.971 6.971-6.971h19.452c3.85 0 6.971 3.121 6.971 6.971s-3.121 6.971-6.971 6.971z" fill="#7aa5e2"/></g><g><path d="m231.259 330.45h-19.452c-3.85 0-6.971-3.121-6.971-6.971s3.121-6.971 6.971-6.971h19.452c3.85 0 6.971 3.121 6.971 6.971s-3.121 6.971-6.971 6.971z" fill="#7aa5e2"/></g><g><path d="m231.259 354.204h-19.452c-3.85 0-6.971-3.121-6.971-6.971s3.121-6.971 6.971-6.971h19.452c3.85 0 6.971 3.121 6.971 6.971s-3.121 6.971-6.971 6.971z" fill="#7aa5e2"/></g><g><path d="m256 286.073c-3.85 0-6.971-3.121-6.971-6.971v-23.754c0-3.85 3.121-6.971 6.971-6.971s6.971 3.121 6.971 6.971v23.754c0 3.85-3.121 6.971-6.971 6.971z" fill="#6289cc"/></g><g><path d="m141.04 45.302c-8.155-12.223-22.066-20.277-37.862-20.277s-29.707 8.054-37.862 20.277z" fill="#3c58a0"/></g><path d="m105.464 25.097c-.759-.038-1.518-.073-2.286-.073-15.796 0-29.707 8.054-37.862 20.277h40.453c-8.933-3.143-9.233-16.936-.305-20.204z" fill="#2a428c"/><path d="m147.073 43.635h-87.789c-4.933 0-8.968 4.036-8.968 8.968v27.617c0 4.933 4.036 8.968 8.968 8.968h87.789c4.933 0 8.968-4.036 8.968-8.968v-27.617c0-4.932-4.036-8.968-8.968-8.968z" fill="#4b6bb2"/><path d="m100.649 80.221v-27.618c0-4.933 4.036-8.968 8.968-8.968h-50.333c-4.932 0-8.968 4.036-8.968 8.968v27.617c0 4.933 4.036 8.968 8.968 8.968h50.333c-4.933.001-8.968-4.035-8.968-8.967z" fill="#3c58a0"/><g><path d="m298.23 22.616c-9.096-13.632-24.612-22.616-42.23-22.616s-33.134 8.984-42.23 22.616z" fill="#3c58a0"/></g><path d="m258.55.081c-.846-.042-1.693-.081-2.55-.081-17.618 0-33.134 8.984-42.23 22.616h45.119c-9.963-3.506-10.298-18.891-.339-22.535z" fill="#2a428c"/><path d="m304.958 20.757h-97.916c-5.502 0-10.003 4.501-10.003 10.003v30.803c0 5.502 4.501 10.003 10.003 10.003h97.916c5.501 0 10.003-4.501 10.003-10.003v-30.803c0-5.501-4.501-10.003-10.003-10.003z" fill="#4b6bb2"/><path d="m253.179 61.563v-30.803c0-5.502 4.501-10.003 10.003-10.003h-56.14c-5.502 0-10.003 4.501-10.003 10.003v30.803c0 5.502 4.501 10.003 10.003 10.003h56.14c-5.502 0-10.003-4.501-10.003-10.003z" fill="#3c58a0"/></g></svg>