<svg xmlns="http://www.w3.org/2000/svg" width="934" height="934" viewBox="0 0 934 934">
  <g id="Grupo_33368" data-name="Grupo 33368" transform="translate(-8696 -240)">
    <circle id="Elipse_1191" data-name="Elipse 1191" cx="467" cy="467" r="467" transform="translate(8696 240)" fill="#524798"/>
    <circle id="Elipse_1192" data-name="Elipse 1192" cx="415" cy="415" r="415" transform="translate(8748 292)" fill="#fff"/>
    <g id="Flat" transform="translate(8927 482)">
      <g id="Color_copy" data-name="Color copy" transform="translate(5 3)">
        <path id="Trazado_27334" data-name="Trazado 27334" d="M7,30H231.905V62.129H7Z" transform="translate(9.065 186.873)" fill="#ff7373"/>
        <path id="Trazado_27335" data-name="Trazado 27335" d="M10,22H186.711V54.129H10Z" transform="translate(30.162 130.614)" fill="#f9dbaf"/>
        <path id="Trazado_27336" data-name="Trazado 27336" d="M10,38H186.711V70.129H10Z" transform="translate(30.162 243.132)" fill="#f9dbaf"/>
        <path id="Trazado_27337" data-name="Trazado 27337" d="M10,55H186.711V87.129H10Z" transform="translate(30.162 362.681)" fill="#ff7373"/>
        <path id="Trazado_27338" data-name="Trazado 27338" d="M10,5H186.711V37.129H10Z" transform="translate(30.162 11.065)" fill="#ff7373"/>
        <path id="Trazado_27339" data-name="Trazado 27339" d="M231.905,30V62.129H7V30H47.162A16.113,16.113,0,0,0,63.226,46.065h104.42A16.185,16.185,0,0,0,183.711,30Z" transform="translate(9.065 186.873)" fill="#ef5350"/>
        <path id="Trazado_27340" data-name="Trazado 27340" d="M186.711,22V54.129H10V22H58.194A16.185,16.185,0,0,0,74.259,38.065h48.194A16.113,16.113,0,0,0,138.517,22Z" transform="translate(30.162 130.614)" fill="#edb88e"/>
        <path id="Trazado_27341" data-name="Trazado 27341" d="M186.711,38V70.129H10V38H50.162A16.185,16.185,0,0,0,66.226,54.065h64.259A16.113,16.113,0,0,0,146.55,38Z" transform="translate(30.162 243.132)" fill="#edb88e"/>
        <path id="Trazado_27342" data-name="Trazado 27342" d="M186.711,55V87.129H10V55H50.162A16.113,16.113,0,0,0,66.226,71.065h56.226A16.185,16.185,0,0,0,138.517,55Z" transform="translate(30.162 362.681)" fill="#ef5350"/>
        <path id="Trazado_27343" data-name="Trazado 27343" d="M186.711,5V37.129H10V5H50.162A16.113,16.113,0,0,0,66.226,21.065h56.226A16.185,16.185,0,0,0,138.517,5Z" transform="translate(30.162 11.065)" fill="#ef5350"/>
        <path id="Trazado_27344" data-name="Trazado 27344" d="M163.076,368.471c31.487-19.2,98.958-68.034,98.958-132.533S194.563,122.6,163.076,103.4C189.021,87.5,239.544,51.435,256.332,3h-34.7c-23.294,46.427-88.115,80.323-88.115,80.323S68.7,49.427,45.4,3H10.7c16.788,48.435,67.311,84.5,93.255,100.4C72.472,122.6,5,171.438,5,235.938s67.472,113.336,98.958,132.533c-25.944,15.9-76.468,51.969-93.255,100.4H45.4c23.294-46.427,88.115-80.323,88.115-80.323s64.821,33.9,88.115,80.323h34.7C239.544,420.44,189.021,384.375,163.076,368.471ZM37.129,235.938c0-62.09,96.388-112.453,96.388-112.453s96.388,50.363,96.388,112.453S133.517,348.39,133.517,348.39,37.129,298.028,37.129,235.938Z" transform="translate(-5 -3)" fill="#48cae4"/>
        <g id="Grupo_33365" data-name="Grupo 33365">
          <path id="Trazado_27345" data-name="Trazado 27345" d="M120.015,368.471c-31.439-19.229-98.95-68.034-98.95-132.533s67.472-113.3,98.95-132.533C94.046,87.524,43.555,51.419,26.752,3H10.687c16.8,48.419,67.295,84.524,93.263,100.4C72.512,122.634,5,171.438,5,235.938s67.472,113.3,98.95,132.533c-25.969,15.88-76.46,51.985-93.263,100.4H26.752C43.555,420.456,94.046,384.351,120.015,368.471Z" transform="translate(-5 -3)" fill="#00b4d8"/>
          <path id="Trazado_27346" data-name="Trazado 27346" d="M133.453,130.453C133.453,210.776,21,242.905,21,242.905s96.388-50.363,96.388-112.453S21,18,21,18,133.453,50.129,133.453,130.453Z" transform="translate(107.517 102.485)" fill="#00b4d8"/>
          <path id="Trazado_27347" data-name="Trazado 27347" d="M125.179,131.323H109.115C85.821,84.9,21,51,21,51S85.259,59.032,125.179,131.323Z" transform="translate(107.517 334.552)" fill="#00b4d8"/>
          <path id="Trazado_27348" data-name="Trazado 27348" d="M125.179,3H109.115C85.821,49.427,21,83.323,21,83.323S85.259,75.291,125.179,3Z" transform="translate(107.517 -3)" fill="#00b4d8"/>
        </g>
        <circle id="Elipse_1182" data-name="Elipse 1182" cx="152.473" cy="152.473" r="152.473" transform="translate(128.659 120.723)" fill="#95d5b2"/>
        <path id="Trazado_27349" data-name="Trazado 27349" d="M308.011,226.862A152.574,152.574,0,1,1,101.419,20.27C102.525,133.906,194.375,225.756,308.011,226.862Z" transform="translate(107.502 118.448)" fill="#52b788"/>
        <path id="Trazado_27350" data-name="Trazado 27350" d="M91.682,45.222a16.082,16.082,0,0,0-29.72-12.3,15.671,15.671,0,0,0-1.157,7.229,25.8,25.8,0,0,1-2.98,15.342L40.444,84.853l29.72,12.3,8.482-33.037a25.856,25.856,0,0,1,8.731-12.908,15.791,15.791,0,0,0,4.305-5.984Z" transform="translate(244.254 137.554)" fill="#ef5350"/>
        <path id="Trazado_27351" data-name="Trazado 27351" d="M77.238,57.733,70.089,85.525,40.45,73.236,57.8,43.918a26.057,26.057,0,0,0,2.972-15.342,16.225,16.225,0,0,1,.241-3.936A37.246,37.246,0,0,0,77.238,57.733Z" transform="translate(244.296 149.18)" fill="#e53935"/>
        <path id="Trazado_27352" data-name="Trazado 27352" d="M63.966,32.924a16.082,16.082,0,0,0-29.72,12.3,15.792,15.792,0,0,0,4.305,5.944,25.856,25.856,0,0,1,8.763,12.948l8.466,33.053,29.72-12.3L68.119,55.511a25.8,25.8,0,0,1-2.98-15.342,15.671,15.671,0,0,0-1.173-7.245Z" transform="translate(192.048 137.554)" fill="#ef5350"/>
        <path id="Trazado_27353" data-name="Trazado 27353" d="M85.431,83.643,55.792,95.933,47.277,62.92a25.655,25.655,0,0,0-8.755-13.012,15.47,15.47,0,0,1-4.257-5.944,15.976,15.976,0,0,1,8.354-20.8,15.872,15.872,0,0,0,3.936,18.715A25.655,25.655,0,0,1,55.31,54.888a13.414,13.414,0,0,0,16.547,9.558l1.928-.482Z" transform="translate(192.086 138.772)" fill="#e53935"/>
        <path id="Trazado_27354" data-name="Trazado 27354" d="M109.021,60.966a16.082,16.082,0,0,0-12.3-29.72,15.791,15.791,0,0,0-5.944,4.305,25.88,25.88,0,0,1-12.956,8.763L44.778,52.781,57.067,82.5l29.358-17.39a25.88,25.88,0,0,1,15.35-2.972,15.776,15.776,0,0,0,7.245-1.173Z" transform="translate(274.732 187.016)" fill="#ef5350"/>
        <path id="Trazado_27355" data-name="Trazado 27355" d="M109.039,50.185a15.607,15.607,0,0,1-7.309,1.2,26.057,26.057,0,0,0-15.342,2.972L57.069,71.712,44.78,42.072l24.258-6.265,2.892,6.1A10.314,10.314,0,0,0,86.387,46.33a24.764,24.764,0,0,1,15.1-3.052,15.213,15.213,0,0,0,10.683-2.892,15.366,15.366,0,0,0,6.185-8.836,15.84,15.84,0,0,1-9.318,18.635Z" transform="translate(274.746 197.773)" fill="#e53935"/>
        <path id="Trazado_27356" data-name="Trazado 27356" d="M48.207,88.646a16.064,16.064,0,1,1-12.3-29.681,15.672,15.672,0,0,1,7.23-1.155,25.88,25.88,0,0,0,15.35-2.98L87.846,37.448l12.289,29.72-33.029,8.45a25.816,25.816,0,0,0-12.916,8.723,15.623,15.623,0,0,1-5.984,4.305Z" transform="translate(142.601 239.25)" fill="#e53935"/>
        <path id="Trazado_27357" data-name="Trazado 27357" d="M100.12,67.089,67.107,75.6a25.655,25.655,0,0,0-13.012,8.755,15.807,15.807,0,0,1-5.864,4.257A16.008,16.008,0,0,1,34.255,59.86a11.76,11.76,0,0,0,.964,4.016,16.1,16.1,0,0,0,21.045,8.675,15.807,15.807,0,0,0,5.864-4.257,28.049,28.049,0,0,1,9.96-7.711A62.508,62.508,0,0,1,68.151,49.1L87.831,37.45Z" transform="translate(142.617 239.264)" fill="#c62828"/>
        <path id="Trazado_27358" data-name="Trazado 27358" d="M63.965,106.02A16.08,16.08,0,1,1,34.245,93.73a15.792,15.792,0,0,1,4.305-5.944A25.88,25.88,0,0,0,47.314,74.83L55.78,41.777l29.72,12.3L68.117,83.433a25.808,25.808,0,0,0-2.98,15.342,15.656,15.656,0,0,1-1.173,7.245Z" transform="translate(192.05 269.693)" fill="#e53935"/>
        <path id="Trazado_27359" data-name="Trazado 27359" d="M50.352,85.637a16.065,16.065,0,0,0,8.675,21.045,11.761,11.761,0,0,0,4.016.964A16.008,16.008,0,0,1,34.287,93.669a16.787,16.787,0,0,1,4.257-5.944A25.117,25.117,0,0,0,47.3,74.793L55.814,41.78,85.453,54.069,73.806,73.749A55.371,55.371,0,0,1,62.32,69.813a27.1,27.1,0,0,1-7.711,9.88,16.788,16.788,0,0,0-4.257,5.944Z" transform="translate(192.064 269.714)" fill="#c62828"/>
        <path id="Trazado_27360" data-name="Trazado 27360" d="M91.682,93.716a16.08,16.08,0,1,1-29.72,12.289,15.655,15.655,0,0,1-1.157-7.229,25.808,25.808,0,0,0-2.98-15.342L40.444,54.076l29.72-12.3,8.482,33.037a25.88,25.88,0,0,0,8.747,12.956,15.791,15.791,0,0,1,4.289,5.944Z" transform="translate(244.254 269.707)" fill="#e53935"/>
        <path id="Trazado_27361" data-name="Trazado 27361" d="M91.455,106.44a16.065,16.065,0,0,1-29.479-.4,15.607,15.607,0,0,1-1.2-7.309A26.057,26.057,0,0,0,57.8,83.387L40.45,54.069,70.089,41.78l5.382,20.884a60.9,60.9,0,0,1-12.691,7.55l3.052,5.141A26.057,26.057,0,0,1,68.8,90.7a15.607,15.607,0,0,0,1.2,7.309,16.065,16.065,0,0,0,20.964,8.675Z" transform="translate(244.296 269.714)" fill="#c62828"/>
        <path id="Trazado_27362" data-name="Trazado 27362" d="M96.709,88.646a16.064,16.064,0,1,0,12.3-29.681,15.672,15.672,0,0,0-7.23-1.155,25.88,25.88,0,0,1-15.35-2.98L57.069,37.448,44.78,67.168l33.029,8.45a25.816,25.816,0,0,1,12.956,8.739,15.623,15.623,0,0,0,5.944,4.289Z" transform="translate(274.746 239.25)" fill="#ef5350"/>
        <path id="Trazado_27363" data-name="Trazado 27363" d="M117.714,79.941a16.065,16.065,0,0,1-21.045,8.675,15.808,15.808,0,0,1-5.864-4.257A25.655,25.655,0,0,0,77.793,75.6L44.78,67.089,57.069,37.45,78.114,49.9a60.354,60.354,0,0,1-4.337,16.627l4.016,1.044a25.655,25.655,0,0,1,13.012,8.755,15.808,15.808,0,0,0,5.864,4.257,16.1,16.1,0,0,0,21.045-8.675,7.911,7.911,0,0,0,.643-2.249,16.209,16.209,0,0,1-.643,10.281Z" transform="translate(274.746 239.264)" fill="#e53935"/>
        <path id="Trazado_27364" data-name="Trazado 27364" d="M35.924,60.966a16.082,16.082,0,1,1,12.3-29.72,15.791,15.791,0,0,1,5.944,4.305,25.88,25.88,0,0,0,12.956,8.763l33.045,8.466L87.877,82.5,58.519,65.111a25.88,25.88,0,0,0-15.35-2.972,15.776,15.776,0,0,1-7.245-1.173Z" transform="translate(142.587 187.016)" fill="#e53935"/>
        <path id="Trazado_27365" data-name="Trazado 27365" d="M100.128,51.566,87.839,81.205,58.521,63.855a26.057,26.057,0,0,0-15.342-2.972,15.607,15.607,0,0,1-7.309-1.2,16.065,16.065,0,0,1-.4-29.479l-.241.482A16.065,16.065,0,0,0,43.9,51.646a15.607,15.607,0,0,0,7.309,1.2,26.057,26.057,0,0,1,15.342,2.972l5.141,3.052a60.9,60.9,0,0,1,7.55-12.691Z" transform="translate(142.609 188.279)" fill="#c62828"/>
        <ellipse id="Elipse_1183" data-name="Elipse 1183" cx="64.02" cy="64.329" rx="64.02" ry="64.329" transform="translate(217.112 208.558)" fill="#ff7373"/>
        <path id="Trazado_27366" data-name="Trazado 27366" d="M160.437,92.553A64.259,64.259,0,1,1,72.243,29.58c-.08,1.125-.08,2.249-.08,3.374a64.259,64.259,0,0,0,88.275,59.6Z" transform="translate(184.872 183.919)" fill="#ef5350"/>
        <path id="Trazado_27367" data-name="Trazado 27367" d="M137.533,122.384A64.259,64.259,0,0,1,47.008,31.86a207.973,207.973,0,0,0,90.524,90.524Z" transform="translate(184.885 199.953)" fill="#e53935"/>
        <circle id="Elipse_1184" data-name="Elipse 1184" cx="16.082" cy="16.082" r="16.082" transform="translate(241.235 256.805)" fill="#e53935"/>
        <path id="Trazado_27368" data-name="Trazado 27368" d="M63.3,59.307A16.025,16.025,0,1,1,42.742,35.29,201.61,201.61,0,0,0,63.3,59.307Z" transform="translate(206.02 224.074)" fill="#c62828"/>
        <ellipse id="Elipse_1185" data-name="Elipse 1185" cx="7.732" cy="8.041" rx="7.732" ry="8.041" transform="translate(273.4 224.64)" fill="#ef5350"/>
        <ellipse id="Elipse_1186" data-name="Elipse 1186" cx="7.732" cy="8.041" rx="7.732" ry="8.041" transform="translate(273.4 305.052)" fill="#c62828"/>
        <circle id="Elipse_1187" data-name="Elipse 1187" cx="8.041" cy="8.041" r="8.041" transform="translate(304.946 256.805)" fill="#ef5350"/>
        <path id="Trazado_27369" data-name="Trazado 27369" d="M57,3H89.129V35.129H57Z" transform="translate(360.681 -3)" fill="#f9dbaf"/>
        <path id="Trazado_27370" data-name="Trazado 27370" d="M57,7H89.129V39.129H57Z" transform="translate(360.681 25.129)" fill="#ff7373"/>
        <path id="Trazado_27371" data-name="Trazado 27371" d="M57,11H89.129V43.129H57Z" transform="translate(360.681 53.259)" fill="#48cae4"/>
        <path id="Trazado_27372" data-name="Trazado 27372" d="M57,7H73.065V39.129H57Z" transform="translate(360.681 25.129)" fill="#ef5350"/>
        <path id="Trazado_27373" data-name="Trazado 27373" d="M57,3H73.065V35.129H57Z" transform="translate(360.681 -3)" fill="#edb88e"/>
        <path id="Trazado_27374" data-name="Trazado 27374" d="M57,11H73.065V43.129H57Z" transform="translate(360.681 53.259)" fill="#00b4d8"/>
        <path id="Trazado_27375" data-name="Trazado 27375" d="M134.388,88.323a8.032,8.032,0,0,1-8.032-8.032V24.065H46.032A8.032,8.032,0,0,1,46.032,8h88.356a8.032,8.032,0,0,1,8.032,8.032V80.291A8.032,8.032,0,0,1,134.388,88.323Z" transform="translate(227.067 32.162)" fill="#f9dbaf"/>
        <path id="Trazado_27376" data-name="Trazado 27376" d="M161.485,124.291H49.032a8.032,8.032,0,0,1,0-16.065h104.42V60.032a8.032,8.032,0,1,1,16.065,0v56.226A8.032,8.032,0,0,1,161.485,124.291Z" transform="translate(248.164 341.584)" fill="#f9dbaf"/>
      </g>
    </g>
  </g>
</svg>
