<svg xmlns="http://www.w3.org/2000/svg" width="934" height="934" viewBox="0 0 934 934">
  <g id="Grupo_33366" data-name="Grupo 33366" transform="translate(-8696 2077)">
    <circle id="Elipse_1188" data-name="Elipse 1188" cx="467" cy="467" r="467" transform="translate(8696 -2077)" fill="#524798"/>
    <circle id="Elipse_1176" data-name="Elipse 1176" cx="415" cy="415" r="415" transform="translate(8748 -2025)" fill="#fff"/>
    <g id="schedule" transform="translate(8906.942 -1834)">
      <g id="Grupo_33330" data-name="Grupo 33330">
        <path id="Trazado_27247" data-name="Trazado 27247" d="M246.23,426.666H51.191a34.132,34.132,0,0,1-34.132-34.132V358.4H279.016Z" fill="#d3dcfb"/>
        <path id="Trazado_27248" data-name="Trazado 27248" d="M460.825,153.6V392.532H51.191A34.132,34.132,0,0,1,17.059,358.4V153.6l238.95-85.334Z" fill="#ebf5fc"/>
        <g id="Grupo_33323" data-name="Grupo 33323">
          <path id="Trazado_27249" data-name="Trazado 27249" d="M77.336,221.867H59.2a8,8,0,0,1-8-8V195.734a8,8,0,0,1,8-8H77.336a8,8,0,0,1,8,8v18.133A8,8,0,0,1,77.336,221.867Z" fill="#3c58a0"/>
          <path id="Trazado_27250" data-name="Trazado 27250" d="M145.6,221.867H127.47a8,8,0,0,1-8-8V195.734a8,8,0,0,1,8-8H145.6a8,8,0,0,1,8,8v18.133A8,8,0,0,1,145.6,221.867Z" fill="#3c58a0"/>
          <path id="Trazado_27251" data-name="Trazado 27251" d="M213.869,221.867H195.736a8,8,0,0,1-8-8V195.734a8,8,0,0,1,8-8h18.133a8,8,0,0,1,8,8v18.133A8,8,0,0,1,213.869,221.867Z" fill="#3c58a0"/>
          <path id="Trazado_27252" data-name="Trazado 27252" d="M282.136,221.867H264a8,8,0,0,1-8-8V195.734a8,8,0,0,1,8-8h18.133a8,8,0,0,1,8,8v18.133A8,8,0,0,1,282.136,221.867Z" fill="#3c58a0"/>
          <path id="Trazado_27253" data-name="Trazado 27253" d="M350.391,221.867H332.258a8,8,0,0,1-8-8V195.734a8,8,0,0,1,8-8h18.133a8,8,0,0,1,8,8v18.133A8,8,0,0,1,350.391,221.867Z" fill="#3c58a0"/>
          <path id="Trazado_27254" data-name="Trazado 27254" d="M418.658,221.867H400.525a8,8,0,0,1-8-8V195.734a8,8,0,0,1,8-8h18.133a8,8,0,0,1,8,8v18.133A8,8,0,0,1,418.658,221.867Z" fill="#3c58a0"/>
          <path id="Trazado_27255" data-name="Trazado 27255" d="M77.336,290.133H59.2a8,8,0,0,1-8-8V264a8,8,0,0,1,8-8H77.336a8,8,0,0,1,8,8v18.133A8,8,0,0,1,77.336,290.133Z" fill="#3c58a0"/>
          <path id="Trazado_27256" data-name="Trazado 27256" d="M145.6,290.133H127.47a8,8,0,0,1-8-8V264a8,8,0,0,1,8-8H145.6a8,8,0,0,1,8,8v18.133A8,8,0,0,1,145.6,290.133Z" fill="#3c58a0"/>
          <path id="Trazado_27257" data-name="Trazado 27257" d="M213.869,290.133H195.736a8,8,0,0,1-8-8V264a8,8,0,0,1,8-8h18.133a8,8,0,0,1,8,8v18.133A8,8,0,0,1,213.869,290.133Z" fill="#3c58a0"/>
          <path id="Trazado_27258" data-name="Trazado 27258" d="M290.136,290.133v-25.6A8.533,8.533,0,0,0,281.6,256H264.536A8.533,8.533,0,0,0,256,264.533V281.6a8.533,8.533,0,0,0,8.533,8.533Z" fill="#3c58a0"/>
          <path id="Trazado_27259" data-name="Trazado 27259" d="M77.336,358.4H59.2a8,8,0,0,1-8-8V332.267a8,8,0,0,1,8-8H77.336a8,8,0,0,1,8,8V350.4A8,8,0,0,1,77.336,358.4Z" fill="#3c58a0"/>
          <path id="Trazado_27260" data-name="Trazado 27260" d="M145.6,358.4H127.47a8,8,0,0,1-8-8V332.267a8,8,0,0,1,8-8H145.6a8,8,0,0,1,8,8V350.4A8,8,0,0,1,145.6,358.4Z" fill="#3c58a0"/>
          <path id="Trazado_27261" data-name="Trazado 27261" d="M213.869,358.4H195.736a8,8,0,0,1-8-8V332.267a8,8,0,0,1,8-8h18.133a8,8,0,0,1,8,8V350.4A8,8,0,0,1,213.869,358.4Z" fill="#3c58a0"/>
        </g>
        <path id="Trazado_27262" data-name="Trazado 27262" d="M418.417,187.733h-17.65a8.225,8.225,0,0,0-3.022.579,8.237,8.237,0,0,1,5.219,7.662v17.65a8.239,8.239,0,0,1-5.219,7.662,8.2,8.2,0,0,0,3.022.58h17.65a8.242,8.242,0,0,0,8.242-8.241v-17.65A8.243,8.243,0,0,0,418.417,187.733Z" fill="#2a428c"/>
        <path id="Trazado_27263" data-name="Trazado 27263" d="M350.15,187.733H332.5a8.225,8.225,0,0,0-3.022.579,8.237,8.237,0,0,1,5.219,7.662v17.65a8.239,8.239,0,0,1-5.219,7.662,8.2,8.2,0,0,0,3.022.58h17.65a8.241,8.241,0,0,0,8.241-8.241v-17.65A8.241,8.241,0,0,0,350.15,187.733Z" fill="#2a428c"/>
        <path id="Trazado_27264" data-name="Trazado 27264" d="M281.895,187.733h-17.65a8.225,8.225,0,0,0-3.022.579,8.238,8.238,0,0,1,5.22,7.662v17.65a8.238,8.238,0,0,1-5.22,7.662,8.2,8.2,0,0,0,3.022.58h17.65a8.242,8.242,0,0,0,8.242-8.241v-17.65A8.243,8.243,0,0,0,281.895,187.733Z" fill="#2a428c"/>
        <path id="Trazado_27265" data-name="Trazado 27265" d="M213.628,187.733h-17.65a8.225,8.225,0,0,0-3.022.579,8.238,8.238,0,0,1,5.22,7.662v17.65a8.238,8.238,0,0,1-5.22,7.662,8.2,8.2,0,0,0,3.022.58h17.65a8.242,8.242,0,0,0,8.242-8.241v-17.65A8.243,8.243,0,0,0,213.628,187.733Z" fill="#2a428c"/>
        <path id="Trazado_27266" data-name="Trazado 27266" d="M145.361,187.733h-17.65a8.225,8.225,0,0,0-3.022.579,8.237,8.237,0,0,1,5.219,7.662v17.65a8.239,8.239,0,0,1-5.219,7.662,8.2,8.2,0,0,0,3.022.58h17.65a8.242,8.242,0,0,0,8.242-8.241v-17.65A8.242,8.242,0,0,0,145.361,187.733Z" fill="#2a428c"/>
        <path id="Trazado_27267" data-name="Trazado 27267" d="M77.1,187.733H59.445a8.225,8.225,0,0,0-3.022.579,8.238,8.238,0,0,1,5.22,7.662v17.65a8.238,8.238,0,0,1-5.22,7.662,8.2,8.2,0,0,0,3.022.58H77.1a8.242,8.242,0,0,0,8.242-8.241v-17.65A8.243,8.243,0,0,0,77.1,187.733Z" fill="#2a428c"/>
        <path id="Trazado_27268" data-name="Trazado 27268" d="M77.1,256H59.445a8.224,8.224,0,0,0-3.022.579,8.238,8.238,0,0,1,5.22,7.662v17.651a8.238,8.238,0,0,1-5.22,7.662,8.2,8.2,0,0,0,3.022.58H77.1a8.242,8.242,0,0,0,8.242-8.241V264.242A8.243,8.243,0,0,0,77.1,256Z" fill="#2a428c"/>
        <path id="Trazado_27269" data-name="Trazado 27269" d="M77.1,324.267H59.445a8.224,8.224,0,0,0-3.022.579,8.238,8.238,0,0,1,5.22,7.662v17.651a8.238,8.238,0,0,1-5.22,7.662,8.2,8.2,0,0,0,3.022.58H77.1a8.242,8.242,0,0,0,8.242-8.241V332.509a8.243,8.243,0,0,0-8.242-8.242Z" fill="#2a428c"/>
        <path id="Trazado_27270" data-name="Trazado 27270" d="M145.361,256h-17.65a8.224,8.224,0,0,0-3.022.579,8.237,8.237,0,0,1,5.219,7.662v17.651a8.239,8.239,0,0,1-5.219,7.662,8.2,8.2,0,0,0,3.022.58h17.65a8.242,8.242,0,0,0,8.242-8.241V264.242A8.242,8.242,0,0,0,145.361,256Z" fill="#2a428c"/>
        <path id="Trazado_27271" data-name="Trazado 27271" d="M145.361,324.267h-17.65a8.224,8.224,0,0,0-3.022.579,8.237,8.237,0,0,1,5.219,7.662v17.651a8.239,8.239,0,0,1-5.219,7.662,8.2,8.2,0,0,0,3.022.58h17.65a8.242,8.242,0,0,0,8.242-8.241V332.509a8.241,8.241,0,0,0-8.242-8.242Z" fill="#2a428c"/>
        <path id="Trazado_27272" data-name="Trazado 27272" d="M213.628,256h-17.65a8.224,8.224,0,0,0-3.022.579,8.238,8.238,0,0,1,5.22,7.662v17.651a8.238,8.238,0,0,1-5.22,7.662,8.2,8.2,0,0,0,3.022.58h17.65a8.242,8.242,0,0,0,8.242-8.241V264.242A8.243,8.243,0,0,0,213.628,256Z" fill="#2a428c"/>
        <path id="Trazado_27273" data-name="Trazado 27273" d="M290.136,290.133V264.241A8.241,8.241,0,0,0,281.894,256h-17.65a8.224,8.224,0,0,0-3.022.579,8.238,8.238,0,0,1,5.22,7.662v17.651a8.238,8.238,0,0,1-5.22,7.662,8.2,8.2,0,0,0,3.022.58h25.892Z" fill="#2a428c"/>
        <path id="Trazado_27274" data-name="Trazado 27274" d="M213.628,324.267h-17.65a8.224,8.224,0,0,0-3.022.579,8.238,8.238,0,0,1,5.22,7.662v17.651a8.238,8.238,0,0,1-5.22,7.662,8.2,8.2,0,0,0,3.022.58h17.65a8.242,8.242,0,0,0,8.242-8.241V332.509a8.242,8.242,0,0,0-8.242-8.242Z" fill="#2a428c"/>
        <path id="Trazado_27275" data-name="Trazado 27275" d="M437.114,143.721V392.533h23.711V153.6Z" fill="#d3dcfb"/>
        <path id="Trazado_27276" data-name="Trazado 27276" d="M460.825,153.6V68.266a34.132,34.132,0,0,0-34.132-34.132H51.191A34.131,34.131,0,0,0,17.059,68.266V153.6Z" fill="#ff4155"/>
        <g id="Grupo_33329" data-name="Grupo 33329">
          <g id="Grupo_33328" data-name="Grupo 33328">
            <g id="Grupo_33324" data-name="Grupo 33324">
              <path id="Trazado_27277" data-name="Trazado 27277" d="M124.609,75.993H102.392a7.726,7.726,0,0,1,0-15.452h22.217a7.726,7.726,0,1,1,0,15.452Z" fill="#e80054"/>
            </g>
            <g id="Grupo_33325" data-name="Grupo 33325">
              <path id="Trazado_27278" data-name="Trazado 27278" d="M179.191,75.993H156.974a7.726,7.726,0,0,1,0-15.452h22.217a7.726,7.726,0,0,1,0,15.452Z" fill="#e80054"/>
            </g>
            <g id="Grupo_33326" data-name="Grupo 33326">
              <path id="Trazado_27279" data-name="Trazado 27279" d="M320.887,75.993H298.669a7.726,7.726,0,1,1,0-15.452h22.218a7.726,7.726,0,1,1,0,15.452Z" fill="#e80054"/>
            </g>
            <g id="Grupo_33327" data-name="Grupo 33327">
              <path id="Trazado_27280" data-name="Trazado 27280" d="M375.47,75.993H353.252a7.726,7.726,0,1,1,0-15.452H375.47a7.726,7.726,0,1,1,0,15.452Z" fill="#e80054"/>
            </g>
          </g>
        </g>
        <path id="Trazado_27281" data-name="Trazado 27281" d="M162.125,64a21.333,21.333,0,0,1-42.666,0V21.333a21.333,21.333,0,1,1,42.665,0V64Z" fill="#ebf5fc"/>
        <path id="Trazado_27282" data-name="Trazado 27282" d="M358.4,64a21.333,21.333,0,0,1-42.667,0V21.333a21.333,21.333,0,0,1,42.666,0V64Z" fill="#ebf5fc"/>
        <path id="Trazado_27283" data-name="Trazado 27283" d="M337.069,0a21.228,21.228,0,0,0-11.836,3.588,21.308,21.308,0,0,1,9.5,17.746V64a21.309,21.309,0,0,1-9.5,17.746A21.329,21.329,0,0,0,358.4,64V21.333A21.332,21.332,0,0,0,337.069,0Z" fill="#d3dcfb"/>
        <path id="Trazado_27284" data-name="Trazado 27284" d="M140.791,0a21.228,21.228,0,0,0-11.836,3.588,21.308,21.308,0,0,1,9.5,17.746V64a21.309,21.309,0,0,1-9.5,17.746A21.329,21.329,0,0,0,162.124,64V21.333A21.332,21.332,0,0,0,140.791,0Z" fill="#d3dcfb"/>
        <path id="Trazado_27285" data-name="Trazado 27285" d="M426.693,34.133h-23.7a34.131,34.131,0,0,1,34.132,34.132V153.6h23.7V68.266a34.131,34.131,0,0,0-34.131-34.133Z" fill="#e80054"/>
        <path id="Trazado_27286" data-name="Trazado 27286" d="M17.058,111.74H460.825v15.453H17.058Z" fill="#e80054"/>
      </g>
      <circle id="Elipse_1177" data-name="Elipse 1177" cx="128" cy="128" r="128" transform="translate(238.942 256)" fill="#4fabf7"/>
      <circle id="Elipse_1178" data-name="Elipse 1178" cx="93.867" cy="93.867" r="93.867" transform="translate(273.075 290.133)" fill="#ebf5fc"/>
      <g id="Grupo_33332" data-name="Grupo 33332">
        <g id="Grupo_33331" data-name="Grupo 33331">
          <path id="Trazado_27287" data-name="Trazado 27287" d="M366.942,374.659a7.725,7.725,0,0,1-7.726-7.726V324.266a7.726,7.726,0,0,1,15.452,0v42.667A7.726,7.726,0,0,1,366.942,374.659Z" fill="#3c58a0"/>
        </g>
      </g>
      <g id="Grupo_33334" data-name="Grupo 33334">
        <g id="Grupo_33333" data-name="Grupo 33333">
          <path id="Trazado_27288" data-name="Trazado 27288" d="M409.609,391.726h-25.6a7.726,7.726,0,1,1,0-15.452h25.6a7.726,7.726,0,1,1,0,15.452Z" fill="#3c58a0"/>
        </g>
      </g>
      <path id="Trazado_27289" data-name="Trazado 27289" d="M366.942,256c-3.995,0-7.945.193-11.847.551a128,128,0,0,1,0,254.9c3.9.358,7.852.551,11.847.551a128,128,0,0,0,0-256Z" fill="#1886ea"/>
      <path id="Trazado_27290" data-name="Trazado 27290" d="M366.942,290.133a94.786,94.786,0,0,0-11.839.741,93.877,93.877,0,0,1,0,186.252,93.871,93.871,0,1,0,11.839-186.993Z" fill="#d3dcfb"/>
      <circle id="Elipse_1179" data-name="Elipse 1179" cx="17.067" cy="17.067" r="17.067" transform="translate(349.875 366.933)" fill="#ffdd40"/>
    </g>
  </g>
</svg>
