<?xml version="1.0" encoding="utf-8"?>
<!-- Generator: Adobe Illustrator 25.1.0, SVG Export Plug-In . SVG Version: 6.00 Build 0)  -->
<svg version="1.1" id="Layer_1" xmlns="http://www.w3.org/2000/svg" xmlns:xlink="http://www.w3.org/1999/xlink" x="0px" y="0px"
	 viewBox="0 0 500 500" style="enable-background:new 0 0 500 500;" xml:space="preserve">
<style type="text/css">
	.st0{fill:#C6BDEF;}
	.st1{fill:#8C85E5;}
	.st2{fill:#6958E0;}
	.st3{fill:#4B35B5;}
	.st4{fill:#1A233D;}
	.st5{fill:#FFFFFF;}
	.st6{fill:#0B1328;}
	.st7{fill:#08AEBF;}
	.st8{fill:#2ECEE8;}
	.st9{fill:#7891CE;}
	.st10{fill:#5846D3;}
	.st11{fill:#76E5FF;}
	.st12{fill:#D3D9ED;}
	.st13{fill:#4063A8;}
	.st14{fill:#2A1F7F;}
	.st15{fill:#FFDAC7;}
	.st16{fill:#E5B19A;}
	.st17{fill:#ACA7D3;}
	.st18{fill:#46468E;}
	.st19{fill:#E1F8F9;}
	.st20{fill:#D344B4;}
	.st21{fill:#A82690;}
	.st22{opacity:0.38;fill:#B8EDF4;}
	.st23{fill:#6561AA;}
	.st24{fill:#EF9D1B;}
	.st25{fill:#3C2744;}
	.st26{fill:#E573CF;}
</style>
<g>
	<g id="OBJECTS">
		<g>
			<g>
				<path class="st0" d="M455.7,267.5c-3.7,19.6-10.4,38.5-20.1,55.9c-8.7,15.5-19.9,29.5-33.1,41.3c-13.1,11.8-28.2,21.2-44.6,27.8
					c-16.3,6.5-33.9,9.9-51.5,9c-17.1-0.8-34.5-5.8-48.1-16.6c-14.7-11.7-22.6-29.7-23-48.2c-0.5-19.5,7.2-38.3,19-53.7
					c12.1-15.7,28.4-27.2,43.5-39.8c7.5-6.2,14.8-12.8,20.9-20.4l0.4-0.5c0.1-0.2,0.2-0.4,0.3-0.6c9.8-18.8,10.5-40.7,7.4-61.3
					c-1.8-11.2-4.4-22.3-7.5-33.2c-2.7-9.8-5.6-20.5-1.4-30.3c3.4-7.8,10.5-13.4,18.3-16.3c9.8-3.6,20.7-2.8,30.6-0.3
					c17.3,4.5,33.4,13,46.9,24.8c13.3,11.4,24,25.6,31.2,41.5c8.6,19,12.1,40.4,13.7,61.1C460.5,227.7,459.4,247.8,455.7,267.5z"/>
				<path class="st0" d="M263.1,240.6c-14.8,10.6-32.4,15.9-49.4,21.5c-9,2.8-17.8,6.3-26.3,10.2c-8.6,4.2-16.9,9.1-24.6,14.7
					c-7.4,5.3-14.1,11.5-21.7,16.5c-6.7,4.6-14.3,7.8-22.3,9.2c-14.9,2.4-30.3-1.9-42.9-9.9c-13.7-8.7-23.6-21.8-29.3-36.9
					c-6.2-16.2-7.7-33.9-6.2-51.1c1.5-16.8,5.6-33.3,12.1-48.9c4.5-10.9,10.1-21.3,16.7-31.1c6.7-11,14.6-21.1,23.6-30.3
					c11.1-11.3,23.8-20.9,37.7-28.6c13.8-7.7,28.7-13.1,44.2-16.1c17.9-3.4,36.9-3.5,54.5,1.6c14.6,4.3,28.1,11.6,39.6,21.6
					c11.5,9.9,20.8,22.2,27.1,36c6.3,13.8,9.2,28.9,8.5,44c-0.8,15.2-4.9,30-12,43.5C285.3,220,275.3,231.6,263.1,240.6z"/>
				<ellipse class="st0" cx="246.2" cy="463.9" rx="219.3" ry="14.9"/>
			</g>
			<g>
				<g>
					<path class="st1" d="M303,296.6c1.3,0.5,2.5,1.1,3.8,1.7c1,0.4,2.1,0,2.6-1c0.4-1,0-2.1-1-2.6c-1.2-0.6-2.5-1.2-3.7-1.7
						c1.3-3.4,1.7-7.1,1-10.7c2.4-0.9,4.8-1.8,7.2-2.5c3.9-1.2,1.7-7.1-2.1-5.9c-2.4,0.8-4.8,1.6-7.2,2.5c-1.5-2.8-3.7-5.2-6.4-7
						c1-2,2.1-4,3.3-6c0.4-1,0-2.1-1-2.6c-1-0.4-2.1,0-2.6,1c-1.1,1.9-2.2,3.8-3.2,5.8c-10.2-4.2-21.9,0.6-26.1,10.8
						c-4.2,10.2,0.6,21.9,10.8,26.1C287.5,308.3,297.9,304.9,303,296.6L303,296.6z"/>
					<circle class="st2" cx="314.5" cy="276.5" r="7.2"/>
					<circle class="st2" cx="299.6" cy="261.9" r="4.6"/>
					<circle class="st2" cx="309.4" cy="297.8" r="4.9"/>
					<circle class="st2" cx="295.6" cy="288.7" r="5"/>
					<circle class="st2" cx="281" cy="286.8" r="2.5"/>
					<circle class="st2" cx="290" cy="278.8" r="3.9"/>
					<path class="st3" d="M283.6,274.5c0.9-0.6,1.1-1.9,0.5-2.7c-1-1.6-2-3.2-2.9-4.8c-0.6-0.9-1.8-1.1-2.7-0.5
						c-0.9,0.6-1.1,1.8-0.5,2.7l3,4.8C281.5,274.9,282.7,275.1,283.6,274.5z"/>
					<path class="st3" d="M274.4,286.8c0.9-0.7,1-1.9,0.4-2.8c-0.3-0.4-0.7-0.6-1.1-0.7l-5.4-0.8c-0.5-0.1-1.1,0-1.5,0.3
						c-0.9,0.7-1,1.9-0.4,2.8c0.3,0.4,0.7,0.6,1.2,0.7l5.4,0.8C273.4,287.2,273.9,287.1,274.4,286.8z"/>
					<path class="st3" d="M279.6,302.5c1-1.2,1.9-2.5,2.7-3.8c0.3-0.4,0.5-0.9,0.4-1.4c0-0.5-0.3-1-0.7-1.4
						c-0.4-0.3-0.9-0.5-1.4-0.5s-1,0.3-1.4,0.7c-0.8,1.3-1.7,2.6-2.7,3.8c-0.3,0.4-0.5,0.9-0.5,1.4c0.1,1.1,1.1,1.9,2.2,1.7
						C278.8,303.1,279.3,302.9,279.6,302.5L279.6,302.5z"/>
					<path class="st3" d="M295.2,305.2c0.4-0.3,0.7-0.7,0.8-1.2c0.1-0.5,0-1-0.3-1.5c-0.2-0.3-0.4-0.7-0.6-1
						c-0.4-0.8-0.8-1.7-1.1-2.5c-0.2-0.5-0.5-0.9-1-1.1c-1-0.4-2.2,0.1-2.6,1.1c-0.2,0.4-0.2,0.9-0.1,1.4c0.6,1.6,1.3,3.1,2.1,4.5
						C293.1,305.7,294.3,305.9,295.2,305.2L295.2,305.2z"/>
					<circle class="st2" cx="277.7" cy="264.4" r="6.7"/>
					<circle class="st2" cx="264.8" cy="283.7" r="5.3"/>
					<circle class="st2" cx="276.2" cy="304.1" r="5.8"/>
					<circle class="st2" cx="294.8" cy="307.9" r="6.8"/>
				</g>
				<g>
					<path class="st1" d="M217.1,343c1.1-1.4,2.2-2.8,3.4-4.1c0.9-1.1,0.7-2.7-0.4-3.5c-1-0.8-2.5-0.7-3.4,0.3
						c-1.1,1.3-2.2,2.6-3.3,4c-3.8-2.7-8.2-4.3-12.9-4.7c-0.4-3.2-0.6-6.5-0.7-9.7c-0.2-5.1-8.2-4.4-8,0.7c0.1,3.2,0.4,6.4,0.7,9.6
						c-4,1-7.7,2.9-10.7,5.6c-2.1-1.9-4.3-3.9-6.3-6c-1.1-0.9-2.6-0.7-3.5,0.3c-0.8,1.1-0.7,2.6,0.3,3.5c2,2,4,3.9,6.1,5.8
						c-8.6,11.2-6.5,27.2,4.7,35.8c11.2,8.6,27.2,6.5,35.8-4.7C226.3,366.1,225.6,352.1,217.1,343z"/>
					<circle class="st2" cx="196" cy="322.2" r="9.2"/>
					<circle class="st2" cx="173.2" cy="335.8" r="5.8"/>
					<circle class="st2" cx="220.6" cy="335.5" r="6.2"/>
					<circle class="st2" cx="204.8" cy="349.6" r="6.4"/>
					<circle class="st2" cx="197.8" cy="366.8" r="3.2"/>
					<circle class="st2" cx="190.9" cy="353.2" r="5"/>
					<path class="st3" d="M183.5,359.6c-0.5-1.3-1.9-1.9-3.2-1.5l-6.8,2.1c-1.3,0.5-1.9,1.9-1.5,3.2c0.5,1.3,1.9,1.9,3.2,1.5
						l6.8-2.1c0.6-0.2,1.1-0.7,1.4-1.3C183.7,360.9,183.7,360.2,183.5,359.6z"/>
					<path class="st3" d="M195.6,375c-0.5-1.3-1.9-2-3.2-1.5c-0.6,0.2-1.1,0.7-1.4,1.3c-0.9,2.1-1.9,4.2-2.8,6.3
						c-0.3,0.6-0.3,1.3-0.1,1.9c0.5,1.3,1.9,2,3.2,1.5c0.6-0.2,1.1-0.7,1.4-1.3c0.9-2.1,1.9-4.2,2.8-6.3
						C195.8,376.3,195.8,375.6,195.6,375z"/>
					<path class="st3" d="M216.7,373.7c-1.2-1.6-2.4-3.1-3.8-4.6c-0.2-0.3-0.4-0.5-0.7-0.6c-0.3-0.2-0.6-0.3-0.9-0.4
						c-1.4-0.2-2.7,0.6-2.9,2c-0.1,0.7,0,1.4,0.4,1.9c1.3,1.5,2.6,3,3.8,4.6c0.4,0.5,1,0.9,1.6,1c0.7,0.1,1.3,0,1.9-0.4
						c0.5-0.4,0.9-1,1-1.6C217.2,374.9,217,374.2,216.7,373.7z"/>
					<path class="st3" d="M225.1,355.5c-0.2-0.6-0.7-1.1-1.3-1.4s-1.3-0.3-1.9-0.1c-0.5,0.1-1,0.3-1.4,0.4c-1.2,0.2-2.3,0.4-3.5,0.5
						c-1.4,0.1-2.4,1.3-2.3,2.7s1.3,2.4,2.7,2.3c2.1-0.2,4.2-0.6,6.2-1.2c0.6-0.2,1.1-0.7,1.4-1.3
						C225.3,356.8,225.3,356.1,225.1,355.5z"/>
					<circle class="st2" cx="169.1" cy="363.5" r="8.5"/>
					<circle class="st2" cx="188.6" cy="385.8" r="6.7"/>
					<circle class="st2" cx="217.5" cy="378.4" r="7.4"/>
					<circle class="st2" cx="228.3" cy="356.8" r="8.6"/>
				</g>
				<g>
					<circle class="st2" cx="209.1" cy="412.9" r="14.5"/>
					<path class="st1" d="M211.7,392.6c0-2.1-1.7-3.9-3.9-3.9c-2.1,0-3.9,1.7-3.9,3.9c0,1.7,1.1,3.2,2.7,3.7c0.1,1.5,0.1,3,0.2,4.5
						c0.1,0.8,0.8,1.4,1.6,1.4c0.8-0.1,1.4-0.8,1.4-1.6c0-1.5-0.1-3-0.2-4.5C210.9,395.3,211.7,394,211.7,392.6z"/>
					<circle class="st1" cx="196.2" cy="403.1" r="3.2"/>
					<circle class="st1" cx="189.5" cy="414.2" r="3"/>
					<circle class="st1" cx="197.4" cy="421.6" r="2.9"/>
					<circle class="st1" cx="209.3" cy="425.5" r="5.3"/>
					<circle class="st1" cx="224.7" cy="419.4" r="3.6"/>
					<circle class="st1" cx="228.1" cy="405.3" r="5.5"/>
					<circle class="st1" cx="217.4" cy="399.9" r="3.9"/>
					<path class="st1" d="M200.5,404l-3.1-1.5c-0.4-0.2-0.8-0.2-1.2,0c-0.8,0.3-1.2,1.2-0.9,1.9c0.1,0.4,0.4,0.7,0.8,0.8l3.1,1.5
						c0.7,0.4,1.6,0,2-0.7C201.6,405.2,201.2,404.4,200.5,404z"/>
					<path class="st1" d="M198.3,413.1c0-0.4-0.2-0.8-0.5-1c-0.3-0.3-0.7-0.4-1.1-0.4c-1.9,0.4-3.8,0.8-5.6,1.1
						c-0.8,0.1-1.4,0.8-1.4,1.6c0.1,0.8,0.8,1.4,1.6,1.4c1.9-0.3,3.8-0.7,5.6-1.1c0.4-0.1,0.7-0.2,1-0.5
						C198.2,413.9,198.3,413.5,198.3,413.1z"/>
					<path class="st1" d="M202.6,418c0-0.2-0.1-0.4-0.2-0.5c-0.2-0.3-0.6-0.5-0.9-0.6c-0.4-0.1-0.8,0-1.1,0.2l-2.1,1.8
						c-0.2,0.1-0.3,0.3-0.4,0.4c-0.1,0.2-0.2,0.3-0.2,0.5s0,0.4,0,0.6s0.1,0.4,0.2,0.5c0.2,0.3,0.6,0.5,0.9,0.6
						c0.4,0.1,0.8,0,1.1-0.2l2.1-1.8c0.2-0.1,0.3-0.2,0.4-0.4c0.1-0.2,0.2-0.3,0.2-0.5S202.6,418.2,202.6,418z"/>
					<path class="st1" d="M210.6,418c-0.1-0.8-0.8-1.4-1.6-1.4c-0.8,0.1-1.4,0.8-1.4,1.6l0.4,4.6c0.1,0.8,0.8,1.4,1.6,1.4
						c0.8-0.1,1.4-0.8,1.4-1.6L210.6,418z"/>
					<path class="st1" d="M223.9,417.5l-0.3-0.3c-0.2-0.2-0.4-0.3-0.7-0.3c-1.3-0.4-2.6-0.8-4-1.1c-0.8-0.2-1.6,0.3-1.8,1.2
						s0.3,1.6,1.2,1.8c0,0,0,0,0.1,0c1.3,0.3,2.6,0.6,3.9,1.1c0.4,0.1,0.8,0,1.1-0.2s0.5-0.6,0.6-1
						C224.2,418.2,224.1,417.8,223.9,417.5z"/>
					<path class="st1" d="M225.7,406.6c-0.1-0.4-0.4-0.7-0.8-0.8c-0.4-0.2-0.8-0.2-1.2,0l-4.9,2.5c-0.4,0.2-0.7,0.4-0.8,0.8
						c-0.3,0.8,0,1.6,0.8,2c0.3,0.1,0.7,0.2,1.1,0l5-2.5c0.4-0.1,0.7-0.4,0.8-0.8C225.9,407.4,225.9,407,225.7,406.6z"/>
					<path class="st1" d="M217.7,400.9c-0.1-0.4-0.4-0.7-0.8-0.8c-0.7-0.3-1.6,0-2,0.7c-0.6,1.2-1.2,2.3-1.8,3.4
						c-0.2,0.4-0.2,0.8,0,1.2c0.1,0.4,0.4,0.7,0.8,0.8c0.4,0.2,0.8,0.2,1.2,0s0.7-0.4,0.8-0.8c0.6-1.1,1.2-2.3,1.8-3.4
						C217.9,401.7,217.9,401.3,217.7,400.9z"/>
					<circle class="st1" cx="208.4" cy="406.7" r="2.9"/>
					<circle class="st1" cx="202.5" cy="412.6" r="1.5"/>
					<circle class="st1" cx="209.4" cy="414.2" r="1.6"/>
				</g>
				<g>
					<circle class="st2" cx="274.7" cy="337.9" r="10.7"/>
					<path class="st1" d="M263.5,327.9c-1.3-0.9-3.1-0.6-4,0.7c-0.9,1.3-0.6,3.1,0.7,4c1,0.7,2.4,0.7,3.4-0.1
						c0.9,0.6,1.9,1.1,2.8,1.7c0.5,0.3,1.2,0.1,1.5-0.4s0.1-1.2-0.4-1.5c-0.9-0.6-1.8-1.2-2.8-1.7
						C264.8,329.5,264.3,328.5,263.5,327.9z"/>
					<circle class="st1" cx="263.5" cy="341.6" r="2.4"/>
					<circle class="st1" cx="267.5" cy="350.3" r="2.2"/>
					<circle class="st1" cx="275.3" cy="348.6" r="2.1"/>
					<circle class="st1" cx="282.6" cy="342.9" r="3.9"/>
					<circle class="st1" cx="285.2" cy="331" r="2.6"/>
					<circle class="st1" cx="278" cy="323.1" r="4"/>
					<circle class="st1" cx="270.2" cy="327.4" r="2.9"/>
					<path class="st1" d="M265.8,339.4l-2.2,1.3c-0.2,0.2-0.4,0.4-0.5,0.7c-0.1,0.3,0,0.6,0.1,0.8c0.3,0.5,1,0.7,1.5,0.4l2.2-1.3
						c0.3-0.1,0.4-0.4,0.5-0.7c0.1-0.3,0-0.6-0.1-0.8C267,339.3,266.3,339.1,265.8,339.4z"/>
					<path class="st1" d="M270.4,344.5c-0.3-0.1-0.6-0.2-0.8-0.1c-0.3,0.1-0.5,0.3-0.7,0.5c-0.5,1.3-1.1,2.6-1.6,3.9
						c-0.3,0.5-0.1,1.2,0.4,1.5s1.2,0.1,1.5-0.4c0.6-1.3,1.1-2.6,1.6-3.9c0.1-0.3,0.2-0.6,0.1-0.8
						C270.8,344.9,270.7,344.6,270.4,344.5z"/>
					<path class="st1" d="M275.2,343.9c-0.1-0.1-0.3-0.1-0.4-0.1c-0.3,0-0.6,0.1-0.8,0.3c-0.2,0.2-0.3,0.5-0.3,0.8
						c0.1,0.7,0.1,1.3,0.2,2c0,0.1,0,0.3,0.1,0.4c0,0.1,0.1,0.3,0.2,0.4s0.2,0.2,0.4,0.2c0.1,0.1,0.3,0.1,0.4,0.1
						c0.3,0,0.6-0.1,0.8-0.3c0.2-0.2,0.3-0.5,0.3-0.8c-0.1-0.7-0.1-1.4-0.2-2c0-0.1,0-0.3-0.1-0.4c0-0.1-0.1-0.3-0.2-0.4
						C275.5,344.1,275.3,344,275.2,343.9z"/>
					<path class="st1" d="M278.5,339.1c-0.5-0.3-1.2-0.1-1.5,0.4l0,0c-0.3,0.5-0.1,1.2,0.4,1.5l3,1.6c0.5,0.3,1.2,0.1,1.5-0.4l0,0
						c0.3-0.5,0.1-1.2-0.4-1.5L278.5,339.1z"/>
					<path class="st1" d="M283.7,330.7h-0.3c-0.2,0.1-0.4,0.2-0.5,0.3c-0.8,0.6-1.5,1.3-2.3,2c-0.4,0.4-0.4,1.1,0,1.6l0,0
						c0.4,0.4,1.1,0.4,1.6,0c0.7-0.7,1.5-1.4,2.3-2c0.2-0.2,0.3-0.5,0.3-0.8s-0.1-0.6-0.3-0.8C284.2,330.8,284,330.7,283.7,330.7z"
						/>
					<path class="st1" d="M277.8,325.1c-0.3-0.1-0.6,0-0.8,0.1c-0.3,0.1-0.5,0.4-0.5,0.7l-0.5,4c-0.1,0.3,0,0.6,0.1,0.8
						c0.3,0.5,1,0.7,1.5,0.4c0.3-0.2,0.4-0.4,0.5-0.7c0.2-1.4,0.4-2.7,0.5-4C278.8,325.9,278.4,325.3,277.8,325.1L277.8,325.1
						L277.8,325.1z"/>
					<path class="st1" d="M271,327.6c-0.6-0.1-1.2,0.2-1.3,0.8c-0.1,0.3,0,0.6,0.1,0.8c0.5,0.8,0.9,1.7,1.3,2.5
						c0.2,0.3,0.4,0.4,0.7,0.5c0.6,0.1,1.2-0.2,1.3-0.8l0,0c0.1-0.3,0-0.6-0.1-0.8c-0.4-0.9-0.9-1.7-1.4-2.5
						C271.5,327.9,271.3,327.7,271,327.6z"/>
					<circle class="st1" cx="270.7" cy="335.7" r="2.1"/>
					<circle class="st1" cx="271.8" cy="341.8" r="1.1"/>
					<circle class="st1" cx="275.7" cy="338.2" r="1.2"/>
				</g>
				<circle class="st1" cx="262.8" cy="361.5" r="6.5"/>
				<circle class="st1" cx="278.2" cy="362.8" r="2.9"/>
				<circle class="st1" cx="197.4" cy="298.1" r="6.5"/>
				<circle class="st1" cx="180.7" cy="297" r="4.1"/>
				<circle class="st1" cx="191" cy="282.8" r="6.1"/>
				<circle class="st1" cx="229.9" cy="389.6" r="3.6"/>
				<circle class="st1" cx="299.1" cy="329.4" r="4.3"/>
				<circle class="st1" cx="293.4" cy="343" r="3"/>
			</g>
			<g>
				<g>
					<path class="st4" d="M124.5,323.3l-0.1,11.2c-7.7,39.7-15.4,79.3-23.1,119c-1,0-1.9,0.1-2.9,0.1c-7.3,0.1-14.6-0.3-21.8-1.4
						c-1-0.1-2.1-0.3-3.1-0.5l9.2-57.6c2.6-16.3,5.2-32.6,7-49c0.9-8,1.5-15.9,1.9-23.9C99.6,322.1,111.6,323.1,124.5,323.3z"/>
					<path class="st4" d="M154.6,356c-0.7,28-1.3,56-2,84.1c-1.1,0.1-2.2,0.2-3.3,0.3c-6.5,0.5-13.1,0.5-19.6,0
						c-0.9-0.1-1.7-0.1-2.6-0.2c0.1-31.7-0.6-63.4-2.2-95c-0.2-3.5-0.4-7.1-0.6-10.6l0.1-11.2h1.5h0.6c9.2,0.1,18.5-0.4,27.6-1.5
						h0.3C155.2,333.1,154.9,344.6,154.6,356z"/>
					<path class="st5" d="M174.5,457.3c0.1,1.1,0.2,2.2,0.1,3.4c-14.9,0.5-29.8,0.4-44.7-0.3v-3.3L174.5,457.3L174.5,457.3z"/>
					<path class="st5" d="M103.8,467.7c0.7,1.9,1.1,4-0.1,5.5c-0.7,0.8-1.6,1.5-2.7,1.8c-6.2,2.3-12.9,2.7-19.2,1
						c-2.5-0.6-5-1.8-6.3-4c-0.8-1.8-1.1-3.7-0.8-5.6c0-0.1,0-0.1,0-0.2l0,0C82.9,473.1,94.8,473.8,103.8,467.7L103.8,467.7z"/>
					<path class="st5" d="M174.5,457.3c0.1,1.1,0.2,2.2,0.1,3.4c-14.9,0.5-29.8,0.4-44.7-0.3v-3.3L174.5,457.3L174.5,457.3z"/>
					<path class="st3" d="M174.5,457.3L174.5,457.3l-44.6-0.2c-0.1-5.4-0.1-10.8-0.2-16.2v-0.5c6.5,0.5,13.1,0.5,19.6,0
						c1.4,1.4,3.1,2.5,4.9,3.3c4.4,2.1,9.2,3.3,13.5,5.5c2.8,1.4,5.4,3.5,6.4,6.4C174.3,456.2,174.4,456.8,174.5,457.3z"/>
					<path class="st6" d="M154.2,321.8c-9.9,7.6-19.6,15.4-29.2,23.4c-0.2-3.5-0.4-7.1-0.6-10.6c0.7-3.7,1.5-7.5,2.2-11.2
						C135.8,323.5,145,323,154.2,321.8z"/>
					<path class="st6" d="M126,323.3c-4.5,3.3-9.6,5.8-14.5,8.5c-7.5,4.1-14.8,8.5-21.9,13.3c0.9-8,1.5-15.9,1.9-23.9
						C99.9,322.1,112.5,323.2,126,323.3z"/>
					<path class="st5" d="M103.8,467.7c0.7,1.9,1.1,4-0.1,5.5c-0.7,0.8-1.6,1.5-2.7,1.8c-6.2,2.3-12.9,2.7-19.2,1
						c-2.5-0.6-5-1.8-6.3-4c-0.8-1.8-1.1-3.7-0.8-5.6c0-0.1,0-0.1,0-0.2l0,0C82.9,473.1,94.8,473.8,103.8,467.7L103.8,467.7z"/>
					<path class="st3" d="M103.5,467c0.1,0.2,0.2,0.5,0.2,0.7c-8.9,6-20.8,5.3-29-1.6l0,0c0.3-4.7,0.9-9.3,1.9-13.9
						c7.2,1,14.5,1.5,21.8,1.4C100.1,458.1,101.8,462.6,103.5,467z"/>
				</g>
				<g>
					<path class="st7" d="M139.9,231.7L122,175.2l0,0c0.5-0.7,1.1-1.3,1.8-1.8c1.6-1.2,3.5-1.9,5.5-1.9h0.1l0,0l0.1,0.1
						c1.5-0.1,3,0.1,4.4,0.6c0.5,0.2,1.1,0.4,1.5,0.8c0.7,0.4,1.3,1.1,1.7,1.8c0-1.3,0.1-2.5,0.2-3.8L139.9,231.7z"/>
					<path class="st5" d="M163.9,320c-3,0.7-6.1,1.3-9.4,1.7c0-0.1,0-0.1,0-0.2c-0.1,0.1-0.2,0.2-0.3,0.2
						c-9.2,1.2-18.4,1.7-27.6,1.5c0-0.2,0.1-0.3,0.1-0.5l-0.7,0.5c-13.5-0.1-26.1-1.2-34.5-2.1c-6.2-0.6-10.1-1.2-10.1-1.2l7.9-66.8
						l-3.9-0.2c-10.6-0.6-10-6.5-10-6.5s-5.9-66.2-2.9-74.9s26.6-13.7,26.6-13.7h0.1c0.1-0.8,0.3-1.6,0.7-2.4
						c2.1-3.4,8.5-10.1,8.7-10.3c-0.1,1.8-0.3,3.5-0.4,5.3l-0.2-0.2c0,0.4,0.1,0.9,0.1,1.4c1.2,10,5.6,19.3,12.5,26.6
						c0.3-1.1,0.7-2.1,1.4-3l4.2,13.3l13.7,43.2l-1.8-42.3l0,0l-0.8-18.5c0.3-2.5,0.4-5.1,0.4-7.6c-0.1-3.5-0.9-7.2-3.1-10
						c-0.1-1.1-0.2-2.1-0.4-3.2c3,1.7,5.8,3.8,8.3,6.2l0,0c0.5,0.1,20.4,2.9,25.6,7.4c4.9,4.3,9.1,53.3,9.6,59.3l-15.7,8.4l0,0
						l-1.1,0.6C160.8,252.4,163.9,320,163.9,320z"/>
					<path class="st8" d="M129.2,171.5c-2,0-3.9,0.7-5.5,1.9c-0.7,0.5-1.3,1.1-1.8,1.8l0,0c-0.7,0.9-1.1,1.9-1.4,3
						c-6.9-7.3-11.3-16.6-12.5-26.6l0.1-1.1C114.7,158,121.7,165,129.2,171.5z"/>
					<path class="st3" d="M129.3,171.5c1.6,0,3.1,0.2,4.6,0.7c0.5,0.2,1.1,0.4,1.5,0.8l-0.9,7.4h-6.9l-3.8-7
						C125.3,172.1,127.2,171.5,129.3,171.5C129.2,171.5,129.2,171.5,129.3,171.5C129.3,171.5,129.2,171.5,129.3,171.5z"/>
					<polygon class="st9" points="207.4,207.1 198.7,223.7 198.7,223.7 155.2,249.2 138.8,258.6 150.3,238.1 150.6,237.5 
						152.4,236.5 169.6,227.4 177.7,223.1 					"/>
					<path class="st4" d="M146.6,221.5l7,5.2c-1.4,0.2-2.8,0.4-4.1,0.6c-0.5,0.1-1,0.2-1.6,0.3l0,0l-4-2.9L146.6,221.5z"/>
					<polygon class="st10" points="138.1,189.4 139.9,231.7 126.2,188.5 127.5,180.3 134.5,180.3 					"/>
					<path class="st11" d="M190.3,227.4c0.2,0.3,0.2,0.7,0.2,1.1c-0.3,2.2-1.2,4.2-2.7,5.8s-2.8,3.3-3.9,5.2c-0.6,1.1-1,2.4-1.5,3.5
						c-1.5,2.8-4,5-7,6.1s-6.2,1.3-9.4,0.8c-1.2-0.2-2.4-0.5-3.5-1s-2-1.2-2.7-2.2l-0.1,0.1c-0.2-0.4-0.4-0.8-0.5-1.2
						c-0.2-0.6-0.2-1.3,0-1.9c0.4-1.1,1.4-1.8,2.5-2s2.3-0.2,3.4,0c-0.4-0.9-0.7-1.8-0.8-2.7c-0.1-1,0.2-1.9,0.9-2.6
						c0.9-0.7,2-0.9,3.1-0.6c1,0.4,2,0.9,2.9,1.6c-0.3-0.9-0.5-1.7-0.6-2.7c-0.1-0.9,0.3-1.8,0.9-2.5c0.7-0.6,1.6-0.9,2.6-0.7
						c2.2,0.2,3.9,2,5.4,3.7c2.9-2.3,5-5.6,8.1-7.6c0.4-0.3,0.9-0.5,1.5-0.6c0.2,0,0.5,0,0.7,0.1C189.9,227,190.1,227.2,190.3,227.4
						z"/>
					<path class="st12" d="M158.4,184.4l11.2,43l-7.6,4.1c-0.4-0.1-0.7-0.2-1.1-0.1c0.5-0.6,1.2-1.1,1.7-1.7
						c0.6-0.6,0.8-1.5,0.4-2.2c-0.5-0.6-1.3-1-2.1-0.9l-0.9-0.1L158.4,184.4z"/>
					<path class="st11" d="M160.1,226.4l0.9,0.1c0.8,0,1.6,0.3,2.1,0.9c0.3,0.8,0.2,1.7-0.4,2.2c-0.5,0.6-1.2,1.1-1.7,1.7
						c0.4,0,0.7,0,1.1,0.1c1,0.2,1.7,1,1.9,1.9c0,0.8-0.4,1.5-1,2c-0.6,0.4-1.3,0.8-2.1,1c1.1-0.2,1.9,1.1,1.7,2.1
						c-0.4,1-1.1,1.9-2.1,2.4c-1.2,0.7-2.5,1.2-3.9,1.6c1,0.8,1.2,2.1,0.6,3.2c-0.6,1.1-1.5,1.9-2.6,2.4c-3.5,1.7-7.4,2.5-11.3,2.4
						h-1.2c-4-0.1-8-0.6-12-0.5l1.9-12.7c1.7-0.5,3.3-1.2,4.7-2.2c1.3-1,2.5-2,3.6-3.1c1.4-1.5,3.1-2.7,5-3.7
						c0.8-0.4,1.7-0.6,2.6-0.8l0,0c0.5-0.1,1-0.2,1.6-0.3c1.4-0.2,2.8-0.4,4.1-0.6l1.3-0.1C156.6,226.4,158.4,226.4,160.1,226.4z"/>
					<path class="st12" d="M153.5,173.4l-8.6,1.8l8.3,5.9l-13.3,50.7l-1.8-42.3l0,0l-0.8-18.5c0.3-2.5,0.4-5.1,0.4-7.6
						c-0.1-3.5-0.9-7.2-3.1-10c-0.1-1.1-0.2-2.1-0.4-3.2c3,1.7,5.8,3.8,8.3,6.2l0,0c1.4,1.3,2.7,2.8,3.8,4.4
						C149.1,164.8,151.5,169,153.5,173.4z"/>
					<path class="st12" d="M139.9,231.7l0.3,0.4c-1.1,1.1-2.4,2.2-3.6,3.1c-1.4,1-3,1.8-4.7,2.2l0.3-1.9l-33.1-5l2.8-43.7l6.8,38.5
						L139.9,231.7z"/>
					<path class="st12" d="M108.1,151.7c1.2,10,5.6,19.3,12.5,26.6c0.3-1.1,0.7-2.1,1.4-3l4.2,13.3l13.7,43.2l-36.7-56.6l5.1-5.2
						l-7.6-0.9c0,0-2-6.8-1.6-11.2c0.1-0.8,0.3-1.6,0.7-2.4c2.1-3.4,8.5-10.1,8.7-10.3c-0.1,1.8-0.3,3.5-0.4,5.3l-0.2-0.2
						C108,150.8,108,151.2,108.1,151.7z"/>
					<path class="st8" d="M137.4,170.9c-0.1,1.3-0.2,2.5-0.2,3.8c-0.4-0.7-1-1.3-1.7-1.8c-0.5-0.3-1-0.6-1.5-0.8
						c-1.5-0.5-3-0.7-4.6-0.7c-0.1,0,0,0,0,0l0,0c2.2-3.6,4.2-7.3,5.8-11.2c0-0.6-0.1-1.2-0.1-1.9l-0.2-3l-0.1-2.1
						c2.1,2.8,3,6.4,3.1,10C137.7,165.9,137.6,168.4,137.4,170.9z"/>
					<path class="st12" d="M120.2,275.1v20c0,1.8-1,3.4-2.6,4.1l-9.6,4.5c-1.4,0.7-3,0.6-4.3-0.2l-8.6-5.2c-1.4-0.9-2.3-2.4-2.2-4.1
						l0.8-19.8L120.2,275.1z"/>
					<path class="st12" d="M130,250.3c-0.3,0-0.5,0.1-0.6,0.4c-0.1,1-0.4,2-0.7,3l-30-0.1h-8.6c-0.6,0-0.5,0.9,0.1,0.9l30.2,0.1h8.3
						c0,0,0,0,0.1,0.1c0.2,0.1,0.5,0,0.6-0.2c0.4-1.2,0.7-2.4,0.9-3.6C130.4,250.6,130.2,250.3,130,250.3z"/>
					<path class="st12" d="M142.7,296.6c-0.1-8.1-0.3-16.3-0.5-24.4c-0.1-4.6-0.3-9.2-0.4-13.7c0-0.6-1-0.5-0.9,0.1
						c0.3,8.1,0.5,16.2,0.7,24.3c0.2,8.1,0.3,16.2,0.4,24.4c0.1,4.6,0.1,9.2,0.1,13.7c0,0.6,0.9,0.5,0.9-0.1
						C142.9,312.9,142.8,304.7,142.7,296.6z"/>
					<path class="st8" d="M160.8,230.7c-2,0.3-3.9,0.5-5.9,0.7c-0.3,0-0.5,0.3-0.4,0.5c0,0.3,0.3,0.5,0.5,0.4c2-0.2,4-0.5,5.9-0.7
						C161.5,231.6,161.4,230.6,160.8,230.7z"/>
					<path class="st8" d="M161.3,235.5c-1.7,0.3-3.4,0.5-5.2,0.7c-0.3,0-0.5,0.3-0.4,0.5c0,0.3,0.3,0.5,0.5,0.4
						c1.7-0.2,3.4-0.4,5.2-0.7C161.9,236.3,161.9,235.4,161.3,235.5z"/>
					<path class="st8" d="M156.7,242l-2.2,0.4c-0.3,0-0.5,0.2-0.5,0.5s0.2,0.5,0.5,0.5h0.1l2.1-0.4c0.3,0,0.4-0.3,0.4-0.5
						C157.2,242.2,157,242,156.7,242z"/>
					<path class="st8" d="M171.3,245.7c-2.3-0.9-4.3-2.3-6-4.1c-0.2-0.2-0.5-0.1-0.6,0l0,0c-0.2,0.2-0.1,0.5,0.1,0.7
						c1.7,1.9,3.9,3.3,6.2,4.3C171.5,246.8,171.9,246,171.3,245.7z"/>
					<path class="st8" d="M175.9,240.9c-0.4-0.2-0.8-0.5-1.1-0.8c-0.4-0.3-0.8-0.7-1.1-1c-0.8-0.7-1.5-1.4-2.2-2.1
						c-0.2-0.2-0.5-0.1-0.6,0l0,0c-0.2,0.2-0.1,0.5,0.1,0.7c0.7,0.8,1.5,1.5,2.2,2.2s1.5,1.4,2.4,1.9
						C176.1,242,176.5,241.1,175.9,240.9z"/>
					<path class="st13" d="M159.2,246.4l-20.5,12.1c-0.5,0.3,0,1.1,0.6,0.8l20.5-12.1C160.3,246.8,159.8,246.1,159.2,246.4z"/>
					<path class="st13" d="M198.6,223.4c-2.6,1.6-5.1,3.1-7.8,4.5c-0.5,0.3,0,1.1,0.5,0.8c2.7-1.4,5.3-2.9,7.8-4.5
						C199.6,223.9,199.1,223.1,198.6,223.4z"/>
				</g>
				<g>
					<path class="st14" d="M150.7,99.5c-0.1,0.4-0.1,0.8-0.2,1.2c-0.5,3.1-2.3,6-4.9,7.8c-0.6,0.4-1.3,0.8-2.1,1
						c-2.4,0.6-4.9,0.5-7.2-0.1c-2-0.4-4-0.9-5.9-1.5c-1.6-0.6-3.3-1-5-1.2s-3.5,0.2-4.9,1.1c-1.5,1.3-2.5,3.1-2.8,5.1
						s-0.8,3.9-1.6,5.7c-0.7,1.5-2,2.6-3.6,3c-0.4-0.7-0.9-1.3-1.6-1.7c-0.8-0.6-1.9-0.9-2.9-0.8c-0.1,0-0.2,0-0.3,0.1
						c-0.8,0.2-1.5,0.8-1.9,1.5c-1.8-2.2-3-4.8-3.6-7.5c-0.6-3.2,0.4-6.9,3.1-8.8c1.7-1.1,3.6-1.6,5.6-1.7c-0.9-3.7,0.7-7.6,3.9-9.7
						c2.7-1.5,5.7-2,8.7-1.4c3,0.4,5.8,1.5,8.8,2.2c3,0.8,6.2,1.2,9.3,1.2c1.8,0,3.7-0.1,5.5,0.1c1.9-0.2,3.7,1.1,3.9,3
						C150.9,98.6,150.8,99.1,150.7,99.5L150.7,99.5z"/>
					<path class="st15" d="M145.2,132.4c-0.9,5.1-2.6,10.3-6.5,13.6c-1.4,1.1-3,2-4.8,2.5c0.2,0.6,0.3,1.1,0.4,1.7
						c0.2,1.1,0.3,2.1,0.4,3.2l0.1,2.1l0.2,3c0,0.6,0.1,1.2,0.1,1.9c-1.7,3.9-3.6,7.6-5.8,11.2h-0.1c-7.5-6.5-14.5-13.5-21.1-20.9
						c0.2-1.8,0.3-3.5,0.4-5.3c0.4-4.5,0.7-9,1-13.5c-1.6-0.5-2.9-1.6-3.8-3c-1-1.8-1.4-3.9-1-5.9c0.1-0.8,0.4-1.5,0.8-2.2
						s1.1-1.3,1.9-1.5c0.1,0,0.2,0,0.3-0.1c1-0.1,2,0.2,2.9,0.8c0.7,0.4,1.2,1,1.6,1.7c1.6-0.4,2.9-1.5,3.6-3
						c0.8-1.8,1.3-3.7,1.6-5.7c0.3-2,1.3-3.8,2.8-5.1c1.4-1,3.2-1.4,4.9-1.1c1.7,0.2,3.4,0.7,5,1.2c2,0.6,3.9,1.1,5.9,1.5
						c2.4,0.6,4.8,0.7,7.2,0.1c0.7-0.2,1.4-0.6,2.1-1C146.7,116.4,146.6,124.5,145.2,132.4z"/>
					<path class="st16" d="M134.6,153.3l0.1,2.1l0.2,3c-3.4-0.9-6.7-2.4-9.6-4.4c-4.8-3.2-9.3-7.4-11-12.9c2.5,3.2,5.8,5.6,9.6,7.1
						c3.2,1.1,6.6,1.3,9.9,0.4c0.2,0.6,0.3,1.1,0.4,1.7C134.4,151.2,134.5,152.3,134.6,153.3z"/>
					<path class="st16" d="M139.9,127.8c0.6,0.4,1.1,0.9,1.1,1.5c-0.1,0.4-0.3,0.8-0.7,1.1c-2.4,2.1-5.4,3.4-8.6,3.6
						c0.5-4.3,1.3-8.5,2.4-12.7l0,0c0.3,1.4,1,2.6,2,3.6C137.3,126,138.5,127,139.9,127.8z"/>
					<path class="st3" d="M145.6,108.5c-0.6,0.4-1.3,0.8-2.1,1c-2.4,0.6-4.9,0.5-7.2-0.1c-2-0.4-4-0.9-5.9-1.5c-1.6-0.6-3.3-1-5-1.2
						s-3.5,0.2-4.9,1.1c-1.5,1.3-2.5,3.1-2.8,5.1s-0.8,3.9-1.6,5.7c-0.7,1.5-2,2.6-3.6,3c-0.4-0.7-0.9-1.3-1.6-1.7
						c-0.8-0.6-1.9-0.9-2.9-0.8c-0.8-1.4-1.2-3.1-1.1-4.7c0-1.5,0.7-2.9,1.9-3.9c1.4-0.9,3.3-0.6,5-0.3c-1.2-4.8,1.7-9.7,6.5-10.9
						c0.9-0.2,1.8-0.3,2.7-0.3c2.8,0.1,5.3,1.5,7.8,2.6c3.5,1.7,7.4,2.5,11.3,2.4c3.1-0.1,6.1-1.3,8.5-3.3
						C150,103.8,148.2,106.6,145.6,108.5z"/>
					
						<ellipse transform="matrix(0.9979 -6.418641e-02 6.418641e-02 0.9979 -7.5626 9.3922)" class="st14" cx="142.4" cy="122.4" rx="1.9" ry="2.5"/>
					
						<ellipse transform="matrix(0.9979 -6.418641e-02 6.418641e-02 0.9979 -7.5456 8.3187)" class="st14" cx="125.7" cy="121.6" rx="1.9" ry="2.5"/>
					<path class="st14" d="M123.1,115.4c1.2-0.7,2.7-1,4.1-0.8c0.4,0,0.7,0.2,1,0.4c0.3,0.3,0.4,0.6,0.4,1c0,0.8-0.6,1.4-1.4,1.4
						l0,0c-0.4,0-0.7,0-1.1,0c-0.4,0.1-0.7,0.2-1.1,0.3l-0.4,0.2c-0.7,0.4-1.5,0.1-1.9-0.6C122.2,116.7,122.4,115.8,123.1,115.4
						L123.1,115.4z"/>
					<path class="st14" d="M140.6,116.3c0.2-0.3,0.5-0.5,0.9-0.6c0.8-0.1,1.5-0.1,2.3,0.1c0.3,0.1,0.7,0.2,1,0.4
						c0.3,0.1,0.5,0.3,0.7,0.4c0.3,0.2,0.5,0.5,0.6,0.9c0.2,0.7-0.3,1.5-1,1.7l0,0c-0.3,0.1-0.7,0-1-0.2c-0.4-0.3-0.8-0.5-1.2-0.6
						c-0.3,0-0.6,0-0.8,0c-0.3,0-0.6,0-0.9-0.2c-0.3-0.2-0.5-0.5-0.6-0.9C140.3,117,140.4,116.6,140.6,116.3z"/>
					<path class="st16" d="M110.5,123.6c-0.3-1-1.1-2.6-2.4-2.4c-0.7,0.2-1.2,0.7-1.5,1.3c-0.3,0.7-0.3,1.4-0.1,2.1
						c0.2,0.6,1.1,0.2,0.9-0.3s-0.1-1,0.1-1.4s0.6-0.9,1-0.6s0.7,0.7,0.8,1.2c0.2,0.5,0.4,1,0.4,1.5c0.2,1,0.1,2-0.3,3
						c-0.1,0.2-0.2,0.5-0.3,0.5s-0.3-0.1-0.4-0.2c-0.2-0.3-0.6-1.1-0.1-1.2s0.2-1-0.3-0.9c-1.4,0.4-0.9,2.3,0,3
						c0.4,0.4,1.1,0.3,1.5-0.1c0.4-0.5,0.6-1.1,0.7-1.7C111,126.1,110.9,124.8,110.5,123.6z"/>
				</g>
				<g>
					<path class="st5" d="M108.3,140c3.1,0.3,8.6,0.7,11.7,0.8l1.9-9.4c-2.9-3.5-6.9-8.4-10-11.7c-0.4-0.5,0.2-1.2,0.6-0.8
						c3,3.3,7,8.2,9.9,11.6c2.4-1.4,14-7.4,21.9-0.3c0,0,2,5.2,1.2,9.4s-9.2,8.1-11.8,9c-2.3,0.9-5,0.7-7.1-0.6l-6.2-6.3
						c-3.3-0.1-9.1-0.5-12.3-0.8C107.6,140.9,107.7,140,108.3,140z"/>
					<path class="st12" d="M126.1,132c5.5-2.1,11.7-2,17.1,0.4c0.2,0.1,0.3,0.4,0.2,0.7c-0.1,0.2-0.4,0.3-0.6,0.2
						c-5.2-2.3-11.1-2.4-16.4-0.3C125.9,133.1,125.5,132.2,126.1,132z"/>
					<path class="st12" d="M126.1,136.4c5.5-1.9,11.6-2,17.1-0.2c0.6,0.2,0.4,1.2-0.2,1c-5.4-1.8-11.3-1.7-16.6,0.1
						C125.9,137.5,125.6,136.6,126.1,136.4z"/>
				</g>
			</g>
			<g>
				<polygon class="st17" points="240.5,343.6 244.4,467.8 248.3,461 246.7,343.6 				"/>
				<path class="st18" d="M243.6,308.3L243.6,308.3c5,0,9,4,9,9v17.8c0,5-4,9-9,9l0,0c-5,0-9-4-9-9v-17.8
					C234.6,312.3,238.6,308.3,243.6,308.3z"/>
				<rect x="207.4" y="77.9" class="st19" width="71.7" height="230"/>
				<g>
					<rect x="209.2" y="165.8" class="st20" width="67.2" height="138.8"/>
					<path class="st21" d="M276.4,187.9V274c-1.5-1.3-3.2-2.3-5-2.9c-3.7-1-7.7-0.9-11.3,0.4c-3.7,1.2-7,3.3-10.7,4.5
						c-3.6,1.1-7.6,0.9-11.1-0.5c-7.2-2.6-12.9-8.5-20.3-10.5c-2.9-0.8-6-0.7-8.9,0.4v-16.2l3.6-1.1c4.4-1.4,9-2.8,12.8-5.5
						c4.3-3,6.9-7.6,8.2-12.7c1.4-5.7,1.1-11.6,1.5-17.5c0.3-5.5,1.5-11.4,5.5-15.4c3.7-3.7,9.1-4.9,14.2-5.4
						c5.8-0.5,11.9,0.1,17.6-1.8C273.8,189.3,275.2,188.7,276.4,187.9z"/>
					<circle class="st21" cx="223" cy="227.8" r="8.1"/>
					<circle class="st21" cx="227" cy="208.4" r="2.9"/>
					<circle class="st21" cx="221.7" cy="197.2" r="3.9"/>
					<circle class="st21" cx="226.3" cy="280.9" r="5.7"/>
					<circle class="st21" cx="247.2" cy="286" r="4"/>
					<circle class="st21" cx="233.1" cy="294.9" r="3.3"/>
					<circle class="st20" cx="252.6" cy="212.3" r="7.4"/>
					<circle class="st20" cx="246.5" cy="235.9" r="6"/>
					<circle class="st20" cx="267.2" cy="244.5" r="6.3"/>
					<circle class="st20" cx="263.9" cy="224.1" r="3"/>
					<circle class="st20" cx="242.8" cy="254.4" r="4.5"/>
				</g>
				<rect x="241.4" y="77.9" class="st22" width="26.7" height="229.9"/>
				<rect x="234.7" y="77.9" class="st17" width="15.2" height="87.9"/>
				<rect x="190.9" y="65.9" class="st23" width="100.8" height="12"/>
				<path class="st23" d="M209.2,165.8h66.1c0,0-5.3-11.8-32.5-11.8S209.2,165.8,209.2,165.8z"/>
				<rect x="227" y="36.3" class="st23" width="30.4" height="29.6"/>
				<rect x="235.8" y="36.3" class="st18" width="12.7" height="29.6"/>
				<path class="st18" d="M210.8,24.3h64.7c6.6,0,12,5.4,12,12l0,0l0,0l0,0h-88.8l0,0l0,0C198.8,29.6,204.2,24.3,210.8,24.3
					L210.8,24.3z"/>
				<polygon class="st23" points="207.4,308 229.3,320.4 257.1,320.4 279,308 				"/>
				<rect x="226.3" y="320.4" class="st18" width="34.6" height="3"/>
			</g>
			<g>
				<g>
					<path class="st4" d="M426.7,452l-1.7,0.1c-5.4,0.3-10.8,0.4-16.2,0.2c-0.7,0-1.5,0-2.2-0.1c-7.5-20.7-12.2-42.3-17-63.8
						c-3.7-16.6-7.3-33.2-11-49.9l-0.9-4.1c-1.1-4.9-2.2-9.9-3.3-14.8c11.8,0.8,23.6,0.1,35.2-2.1l1.2-0.2
						C411.5,362.7,416.9,407.8,426.7,452z"/>
					<path class="st4" d="M377.7,334.5c-0.2,1.7-0.5,3.5-0.7,5.2c-4.5,34-8.8,68.2-8.6,102.5h-0.5c-4.1,0.1-8.3,0.3-12.4,0.6
						c-1.6,0.1-3.2,0.2-4.7,0.4c-4.6-24.7-3.7-50.1-3.3-75.3c0.2-10.1,0.2-20.2,0.2-30.4c0-7.4,0-14.8-0.1-22.2
						c8.7,2.3,17.5,3.7,26.5,4.3c0.1,0,0.3,0,0.4,0C375.6,324.6,376.6,329.6,377.7,334.5z"/>
					<path class="st5" d="M418.9,471.3l8-1c-0.2,0.9-0.5,1.7-0.8,2.6c-0.1,0.4-0.4,0.8-0.7,1.1c-0.3,0.2-0.6,0.3-1,0.4
						c-2.2,0.5-4.5,0.8-6.7,1c-3.4,0.5-6.8,0.6-10.1,0.4c-1.9-0.1-3.8-0.8-5.2-2.1c-1-1.1-1.5-2.5-1.4-3.9c2.9,2.2,6.9,2.4,10.5,2.3
						C413.9,471.9,416.4,471.6,418.9,471.3z"/>
					<path class="st5" d="M368.8,454.7c0.1,1.6,0.3,3.3,0.5,4.9c-12.9,1.7-25.9,3.4-38.9,3.9c-0.1-0.7,0-1.3,0.1-2
						C343.3,459.5,356.1,457.2,368.8,454.7z"/>
					<path class="st3" d="M427.3,462.1c0.3,2.8,0.2,5.5-0.4,8.3l-8,1c-2.5,0.3-5,0.6-7.5,0.7c-3.6,0.2-7.6-0.1-10.5-2.3
						c0-1.3,0.3-2.5,0.8-3.7c1.1-2.5,3-4.5,4.6-6.6c0.8-1.1,1.5-2.3,2-3.5s0.7-2.4,0.6-3.6c5.4,0.1,10.8,0,16.2-0.2
						C426.1,455.4,426.8,458.7,427.3,462.1z"/>
					<path class="st5" d="M418.9,471.3l8-1c-0.2,0.9-0.5,1.7-0.8,2.6c-0.1,0.4-0.4,0.8-0.7,1.1c-0.3,0.2-0.6,0.3-1,0.4
						c-2.2,0.5-4.5,0.8-6.7,1c-3.4,0.5-6.8,0.6-10.1,0.4c-1.9-0.1-3.8-0.8-5.2-2.1c-1-1.1-1.5-2.5-1.4-3.9c2.9,2.2,6.9,2.4,10.5,2.3
						C413.9,471.9,416.4,471.6,418.9,471.3z"/>
					<path class="st6" d="M377.7,334.5c-1.1-4.9-2.2-9.9-3.3-14.8c11.8,0.8,23.6,0.1,35.2-2.1l-31,21.1L377.7,334.5z"/>
					<path class="st6" d="M374.1,319.7l-26.4,17.9c0-7.4,0-14.8-0.1-22.2C356.3,317.7,365.1,319.1,374.1,319.7z"/>
					<path class="st5" d="M368.8,454.7c0.1,1.6,0.3,3.3,0.5,4.9c-12.9,1.7-25.9,3.4-38.9,3.9c-0.1-0.7,0-1.3,0.1-2
						C343.3,459.5,356.1,457.2,368.8,454.7z"/>
					<path class="st3" d="M367.9,442.2c0.2,4.1,0.5,8.3,0.9,12.5c-12.7,2.5-25.5,4.8-38.4,6.8c0.3-1.7,1-3.3,2.2-4.5s2.5-2.1,4-2.9
						c6.4-3.6,13-6.7,18.9-11.1v-0.1C359.6,442.5,363.8,442.4,367.9,442.2z"/>
				</g>
				<g>
					<path class="st5" d="M422.4,314.2c-3.8,1.3-7.7,2.4-11.6,3.1c0-0.2,0-0.4,0-0.6l-1.2,0.8c-11.6,2.2-23.4,2.9-35.2,2.1
						c0-0.1,0-0.2,0-0.3c-0.1,0.1-0.2,0.2-0.3,0.2c-8.9-0.6-17.8-2-26.5-4.3c-1.5-0.4-2.9-0.8-4.4-1.2c0,0,8.7-52.6,16.5-82.4
						c0.8-3.1,1.6-6,2.4-8.5c-15.6-3.4-39.2-9-39.2-9l0.1-0.7l2.5-10.9l0.8-3.5l15.5,1.4l23.1,2l4.5-5.1c-5.6,0.4-22.9,1.4-27,1.3
						c-0.2,0-0.3,0-0.5,0c-6.5-0.9-39.4-13.8-39.4-13.8l0.1-1.6l0.5-12.4l0.1-2.1l36.9,9.8l49.2-4l-4,4.6v0.1l-3.5,4l0,0l-6.4,12.1
						c4.1-4.5,9.6-10.3,14.6-15.3c3.2-3.2,6.6-6.3,10.1-9.1c1.5-1.1,3.3-1.8,5.1-2.1l8.7-6.9l1.9-1.5l2.8,11.3
						c0,0,7.7,11.6,1.2,27.2S404.1,237,404.1,237S422.1,273.5,422.4,314.2z"/>
					<path class="st11" d="M389.2,177.2l21.7-20l0.6-0.5c0,0,2.7,2.3,2.5,5.4l-8.7,6.9c-1.9,0.3-3.6,1-5.1,2.1
						c-3.6,2.8-7,5.8-10.1,9.1C390,177.9,389.2,177.2,389.2,177.2z"/>
					<path class="st12" d="M359.6,231.8c0.8-3.1,1.6-6,2.4-8.5c6.6,1.4,11.8,2.5,13.1,2.5c4.2,0.1,31.6-26.7,39.8-39.4
						c-0.9,1.4-28,46.2-40.8,47C369.3,233.8,364.3,233.2,359.6,231.8z"/>
					<path class="st11" d="M385.3,179.3l4-4.6l-0.2,2.5C387.7,177.4,386.4,178.2,385.3,179.3z"/>
					<path class="st8" d="M389.2,177.2c0,0,0.8,0.7,0.8,3c-5,5-10.5,10.8-14.6,15.3l6.4-12.1l0,0l3.5-4v-0.1
						C386.3,178.2,387.7,177.4,389.2,177.2z"/>
					<path class="st12" d="M402.7,265.1v18.3c0,1.8-1,3.4-2.6,4.3l-8.1,4.2c-1.4,0.8-3.1,0.8-4.5,0l-8.2-4.5
						c-1.5-0.8-2.5-2.5-2.5-4.2v-18L402.7,265.1z"/>
					<path class="st5" d="M302.6,183.4l0.5-12.4l0.1-2.1l36.9,9.8l49.2-4l-4,4.6v0.1l-3.5,4l0,0l-12.2,14.1
						c-5.6,0.4-22.9,1.4-27,1.3c-0.2,0-0.3,0-0.5,0c-6.5-0.9-39.4-13.8-39.4-13.8L302.6,183.4z"/>
					<path class="st8" d="M303.2,171l-0.5,12.4c-3.4,0.3-6.9-0.5-9.7-2.5c1-1,1.8-2.1,2.4-3.4c0.4-0.8,0.6-1.8-0.1-2.4
						c-0.6-0.4-1.2-0.4-1.9-0.2c-0.6,0.2-1.2,0.4-1.8,0.7c0.5-0.6,1-1.3,1.2-2.1c0.3-0.7,0.2-1.5-0.2-2.2c-0.4-0.5-1.1-0.7-1.7-0.6
						c-0.6,0.1-1.2,0.3-1.8,0.6c0.7-0.8,1.2-1.8,1.4-2.8c0.1-0.4-0.1-0.8-0.3-1.1c-0.6-0.6-1.6,0-2.4,0c0.6-0.3,1-0.9,1-1.6
						c-0.1-0.5-0.5-1-1-1.1c-0.5-0.2-1.1-0.2-1.6-0.1c-0.2,0-0.3,0-0.5,0.1c-1.1-1.7-1.8-3.6-1.9-5.6c-0.1-0.4,0-0.8,0.3-1.1
						c0.4-0.3,0.9-0.4,1.4-0.2c0.9,0.3,1.8,0.8,2.5,1.5c1.6,1.4,3.1,3,4.6,4.5c2.8,2.7,6,5,9.4,6.8C302.4,170.9,302.8,171,303.2,171
						z"/>
					<path class="st12" d="M367.5,231.1c-1.5,11.1-3,22.1-4.4,33.2s-2.7,22.1-4,33.1c-0.7,6.3-1.4,12.5-2.1,18.8
						c-0.1,0.6,0.8,0.7,0.9,0.2c1.2-11.1,2.5-22.2,3.8-33.3c1.3-11.1,2.7-22.1,4.2-33c0.8-6.2,1.7-12.5,2.6-18.7
						C368.5,230.7,367.6,230.6,367.5,231.1z"/>
					<path class="st12" d="M374.8,196c-1.8,2.4-3.6,4.8-5.6,7.1c-1.2-0.3-2.4-0.6-3.6-1c-0.2,0-0.5,0.1-0.5,0.4l0,0
						c0,0.2,0.1,0.5,0.4,0.5c1.3,0.4,2.6,0.7,3.9,1c0.2,0,0.4,0,0.5-0.2l0.1-0.1c2-2.3,3.9-4.7,5.7-7.2
						C375.8,196.1,375.1,195.5,374.8,196z"/>
				</g>
				<g>
					<path class="st14" d="M421.7,118c-0.1,3.2-1.2,6.4-0.9,9.7c0.1,0.5,0.2,1,0.2,1.5c0.2,0.8,0.2,1.6,0.1,2.4
						c-0.4,1.9-2,3.4-3.9,3.6c-0.3,3.4-1.4,6.7-3.4,9.6c-1.7,2.5-4.1,4.9-4.4,7.8c-0.5-1.5-0.9-3-1.4-4.4c1.8-1.6,2.9-3.8,3.1-6.2
						c0.2-1.1,0-2.2-0.4-3.3c-0.5-1-1.4-1.8-2.5-2.1c-1.2-0.3-2.5,0.1-3.3,1c-0.6,0.6-1,1.2-1.2,2c-1.7-0.5-3.1-1.6-4.1-3
						c-1.2-1.5-2.1-3.2-3.3-4.7c-1.7-2.1-3.9-3.8-6.4-4.8c-2.7-1-5.6-1.3-8.5-0.7c-2.5,0.5-4.8,1.4-6.9,2.8l-0.2,0.1
						c-3.1-1-5.7-3.3-7.1-6.3c-0.1-0.3-0.3-0.7,0-1c0.2-0.2,0.4-0.3,0.6-0.3c2-0.4,4-0.5,6-1c3.6-0.9,6.7-3.1,9.9-4.8
						c1.4-0.8,2.9-1.4,4.4-1.9c4.1-1.1,8.5-1,12.6,0.2l0.6,0.1c2,0.5,3.9,1.2,5.7,2.2c-1-1-1.8-2.2-2.3-3.5c-0.8-1.9-0.8-4.1,0-6
						c1-1.9,2.9-3.3,5.1-3.5s4.4,0.4,6.1,1.7c1.7,1.3,3.1,3,4,5C421.2,112.5,421.8,115.2,421.7,118z"/>
					<path class="st15" d="M408.1,148c0.5,1.5,0.9,3,1.4,4.4l1.4,4.7l-21.7,20l0.2-2.5l0.2-3.3l0.4-7c-2.5-0.3-4.9-1.5-6.6-3.4
						c-1.9-2-3.4-4.3-4.4-6.8c-3.5-7.9-5-16.5-4.4-25.1c0-0.1,0-0.1,0-0.2c2.1-1.3,4.5-2.3,6.9-2.8c2.8-0.5,5.8-0.2,8.4,0.8
						c2.5,1,4.7,2.7,6.4,4.8c1.2,1.5,2.1,3.2,3.3,4.7c1,1.4,2.5,2.5,4.1,3c0.2-0.8,0.7-1.4,1.2-2c0.9-0.9,2.1-1.3,3.3-1
						c1.1,0.3,2,1.1,2.5,2.1c0.4,1,0.6,2.2,0.4,3.3C410.9,144.3,409.8,146.4,408.1,148z"/>
					<path class="st3" d="M374.6,129l-0.2,0.1c-3.1-1-5.7-3.3-7.1-6.3c-0.1-0.3-0.3-0.7,0-1c0.2-0.2,0.4-0.3,0.6-0.3
						c2-0.4,4-0.5,6-1c3.6-0.9,6.7-3.1,9.9-4.8c3.8-0.9,7.8,0.4,10.4,3.3c1.3,1.7,2.5,3.6,3.5,5.5c2.7,4.3,6.8,7.5,11.7,8.9
						c2.6,0.8,5.4,0.7,7.9-0.3c0,0.7,0,1.3-0.1,2c-0.3,3.4-1.4,6.7-3.4,9.6c-1.7,2.5-4.1,4.9-4.4,7.8L408,148
						c1.8-1.6,2.9-3.8,3.1-6.2c0.2-1.1,0-2.2-0.4-3.3c-0.5-1-1.4-1.8-2.5-2.1c-1.2-0.3-2.5,0.1-3.3,1c-0.6,0.6-1,1.2-1.2,2
						c-1.7-0.5-3.1-1.6-4.1-3c-1.2-1.5-2.1-3.2-3.3-4.7c-1.7-2.1-3.9-3.7-6.4-4.7c-2.7-1-5.6-1.3-8.5-0.7
						C379.1,126.7,376.7,127.7,374.6,129z"/>
					<path class="st16" d="M404.1,153.4c-0.2,1.6-0.7,3.2-1.4,4.7c-2.2,4.6-5.5,8.5-9.6,11.4c-1.1,0.8-2.3,1.4-3.5,1.9l0.4-7
						c0.2,0,0.4,0,0.6,0c3.2-0.1,6.1-1.4,8.3-3.7C401,158.5,402.7,156.1,404.1,153.4z"/>
					<path class="st16" d="M396.5,142.4c2,0,3.6,1.6,3.6,3.5c0,2-1.6,3.6-3.5,3.6s-3.6-1.6-3.6-3.5l0,0
						C392.9,144,394.5,142.4,396.5,142.4z"/>
					<path class="st16" d="M385.9,145.4c0.1,0.6,0.2,1.1,0.1,1.7c-0.1,0.6-0.4,1.2-0.8,1.6c-1.2,1.4-2.9,2.2-4.7,2.1
						c-0.4,0-0.7-0.1-1-0.4c-0.2-0.3-0.3-0.6-0.2-0.9c0.1-0.3,0.2-0.6,0.4-0.8c1.3-1.8,3-3.3,4.2-5.2c0.4-0.5,0.6-1.1,0.7-1.7
						C385.2,143.1,385.6,144.2,385.9,145.4z"/>
					<path class="st3" d="M407,116.3c0.5,0.2,0.9,0.5,1.4,0.8c4.5,2.9,7.6,7.4,8.6,12.6c0,0.1,0,0.1,0,0.2c-1.8,0.4-3.7,0.2-5.4-0.6
						c-2.2-1-4-2.7-5.2-4.7c-1.5-2.3-2.3-4.9-3.5-7.4c-0.6-1.2-1.3-2.3-2.1-3.3l0.6,0.1C403.2,114.6,405.2,115.4,407,116.3
						L407,116.3z"/>
					<ellipse class="st14" cx="378.7" cy="141.1" rx="1.8" ry="2.4"/>
					<ellipse class="st14" cx="391" cy="139.6" rx="1.8" ry="2.4"/>
					<path class="st14" d="M393.2,133.5c-1.2-0.6-2.6-0.8-4-0.5c-0.4,0-0.7,0.2-0.9,0.5c-0.2,0.3-0.3,0.6-0.3,1s0.2,0.7,0.5,0.9
						s0.6,0.3,1,0.3c0.4-0.1,0.7-0.1,1.1-0.1s0.7,0.1,1.1,0.2l0.4,0.2c0.7,0.3,1.5,0,1.8-0.6l0,0
						C394.1,134.7,393.8,133.9,393.2,133.5z"/>
					<path class="st14" d="M380.1,135.2c-0.2-0.3-0.5-0.5-0.9-0.6c-0.7-0.1-1.5,0-2.2,0.2c-0.3,0.1-0.7,0.3-1,0.4
						c-0.2,0.1-0.5,0.3-0.7,0.5c-0.3,0.2-0.5,0.5-0.5,0.9c-0.1,0.7,0.4,1.4,1.1,1.6c0.4,0.1,0.7,0,1-0.2c0.2-0.2,0.4-0.3,0.6-0.4
						c0.2-0.1,0.4-0.2,0.6-0.2c0.3,0,0.5-0.1,0.8-0.1s0.6-0.1,0.8-0.2c0.3-0.2,0.5-0.5,0.5-0.9C380.3,135.9,380.3,135.5,380.1,135.2
						z"/>
					<g>
						<path class="st24" d="M408.2,143.2C408.2,143.2,408.1,143.3,408.2,143.2z"/>
						<path class="st16" d="M408.9,142.6c-0.3-0.4-0.9-0.4-1.3,0c-0.1,0.1-0.1,0.1-0.2,0.2c-0.3,0.5,0.5,0.9,0.8,0.4l0,0l0,0
							c0,0.1,0,0.1,0.1,0.2c0,0.2,0,0.4,0,0.6c0,0.3-0.3,0.6-0.6,0.6c-0.9,0-1.4-1-1.6-1.8c-0.2-0.9-0.2-1.9,0.2-2.8
							c0.1-0.4,0.4-0.8,0.8-1.1c0.3-0.2,0.6-0.2,0.9,0.1l0,0c0.3,0.5,1,0,0.7-0.5c-0.3-0.4-0.8-0.7-1.3-0.6
							c-0.6,0.1-1.1,0.4-1.4,0.9c-0.7,1-1,2.2-0.9,3.4c0,1.2,0.6,2.3,1.5,3c0.8,0.5,1.8,0.4,2.3-0.4c0.1-0.1,0.2-0.3,0.2-0.4
							C409.3,143.7,409.2,143.1,408.9,142.6z"/>
					</g>
				</g>
				<g>
					<path class="st5" d="M409.9,153.2c-2.8,0.7-5.6,1.4-8.4,1.9l-3.3-8.2c2.1-3.6,4.2-7.1,6.5-10.6c0.3-0.5-0.4-1.1-0.7-0.6
						c-2.2,3.5-4.4,7-6.5,10.5c-2.5-0.9-14.2-4.4-20.3,3.2c0,0-1,5,0.4,8.7s9.8,5.8,12.4,6.2c2.3,0.5,4.7-0.2,6.5-1.7l4.7-6.6
						c3-0.6,6-1.3,9-2.1C410.7,153.9,410.4,153,409.9,153.2z"/>
					<path class="st12" d="M394.4,148.1c-5.4-1.1-11.1,0-15.8,3c-0.5,0.3,0,1.1,0.5,0.7c4.5-2.9,9.9-3.9,15.1-2.9
						c0.2,0,0.4-0.2,0.4-0.5C394.6,148.4,394.5,148.2,394.4,148.1z"/>
					<path class="st12" d="M395.1,152.1c-5.4-0.9-11,0-15.9,2.6c-0.5,0.3-0.2,1.1,0.3,0.9c4.7-2.5,10.1-3.3,15.4-2.5
						C395.5,153.1,395.7,152.2,395.1,152.1z"/>
				</g>
				<path class="st1" d="M334.8,151.7c-0.4-0.6-1.3-0.8-1.9-0.3c-0.3,0.2-0.5,0.5-0.5,0.9c0,0.1,0,0.3-0.1,0.4
					c-0.1,0.2-0.1,0.3-0.2,0.5s-0.2,0.3-0.4,0.4l-0.1,0.1c-0.3,0.2-0.5,0.5-0.5,0.9c-0.1,0.7,0.4,1.4,1.1,1.6c0.4,0.1,0.7,0,1-0.2
					c0.6-0.4,1-0.9,1.4-1.5c0.1-0.2,0.2-0.4,0.3-0.6c0.1-0.3,0.2-0.7,0.3-1C335,152.4,335,152,334.8,151.7z"/>
				<g>
					<path class="st25" d="M294.8,154.9c-3.7-7.6-7-15.4-9.9-23.4c-0.3-0.7-1-1.1-1.7-0.8s-1.1,1-0.8,1.7c2.9,8,6.2,15.8,9.9,23.4
						C293,157.4,295.6,156.5,294.8,154.9z"/>
					<path class="st25" d="M306.4,125.5c-2.2,8.9-4.7,17.7-7.4,26.4c-0.5,1.7,2.2,2.1,2.7,0.5c2.7-8.7,5.1-17.5,7.4-26.4
						C309.5,124.3,306.8,123.8,306.4,125.5z"/>
					<path class="st25" d="M323.8,149.9l-18.1,4.8c-1.7,0.4-0.7,3,1,2.5l18.1-4.8C326.4,152,325.4,149.5,323.8,149.9z"/>
					<path class="st25" d="M299.4,173.4c-0.2-1.7-2.9-1.5-2.7,0.2c0.8,6.8,1.4,13.6,1.8,20.5c0.1,1.8,2.8,1.5,2.7-0.2
						C300.8,187,300.2,180.2,299.4,173.4z"/>
					<path class="st25" d="M293.5,197.8l-20.4,0.9c-1.8,0.1-1.5,2.8,0.2,2.7l20.4-0.9C295.5,200.4,295.3,197.7,293.5,197.8z"/>
					<path class="st25" d="M264.8,175.7c-0.1-0.7-0.7-1.3-1.5-1.2c-0.7,0.1-1.3,0.7-1.2,1.4c0.5,5.5,1,11,1.5,16.5
						c0.1,0.7,0.7,1.3,1.5,1.2c0.7-0.1,1.3-0.7,1.2-1.4C265.8,186.6,265.3,181.2,264.8,175.7z"/>
					<circle class="st20" cx="300.1" cy="199.4" r="12.5"/>
					<circle class="st2" cx="296.8" cy="163.2" r="16.6"/>
					<g>
						<path class="st11" d="M293,180.9c-1.5,1.5-3.3,2.5-5.4,3c-0.8,0.3-1.6,0.2-2.3-0.3c-0.6-0.7-0.4-1.8,0-2.7
							c-0.8,0.1-1.6,0.2-2.4,0.2c-0.4,0-0.9-0.1-1.3-0.3c-0.6-0.5-0.9-1.4-0.6-2.1c0.3-0.7,0.8-1.4,1.4-1.9l-1.6-0.1
							c-0.8,0-1.5-0.2-2.1-0.7c-0.4-0.4-0.5-1-0.5-1.5c0.1-1.1,0.7-2.2,1.6-2.8c-1.1-0.2-2.3-0.7-2.6-1.8c-0.1-0.8,0.2-1.7,0.9-2.2
							c1.5-1.4,3.4-2.3,5.4-2.5c0.7-0.2,1.4-0.3,2.2-0.4c0.2,0,0.3,0,0.5-0.1c0.5-0.1,1.1,0,1.6,0.1c0.5,0.2,0.9,0.6,1,1.1
							c0,0.7-0.4,1.3-1,1.6c0.8,0,1.8-0.6,2.4,0c0.3,0.3,0.4,0.7,0.3,1.1c-0.2,1.1-0.7,2-1.4,2.8c0.5-0.3,1.1-0.5,1.8-0.6
							c0.6-0.1,1.3,0.1,1.7,0.6c0.4,0.6,0.5,1.5,0.2,2.2c-0.3,0.8-0.7,1.5-1.2,2.1c0.6-0.3,1.2-0.5,1.8-0.7c0.6-0.3,1.3-0.2,1.9,0.2
							c0.6,0.6,0.4,1.6,0.1,2.4C294.8,178.8,294,179.9,293,180.9z"/>
						<path class="st8" d="M287.8,167c-2.7,1.3-5.4,2.7-8,4.2c-0.5,0.3,0,1,0.5,0.7c2.6-1.4,5.2-2.8,7.8-4.1
							C288.6,167.6,288.3,166.7,287.8,167z"/>
						<path class="st8" d="M289.5,171.1c-2.4,1.8-4.8,3.5-7.3,5.1c-0.5,0.3,0,1.1,0.5,0.7c2.5-1.6,4.9-3.4,7.3-5.1
							C290.5,171.5,290,170.8,289.5,171.1z"/>
						<path class="st8" d="M291.5,175.4l-6.2,5.1c-0.5,0.4,0.1,1.1,0.5,0.7l6.2-5.1C292.5,175.8,292,175,291.5,175.4z"/>
					</g>
					<circle class="st20" cx="282.7" cy="130.4" r="10.8"/>
					<circle class="st20" cx="309.2" cy="125.5" r="4.9"/>
					<circle class="st2" cx="267.9" cy="199.7" r="10.2"/>
					<circle class="st2" cx="326.8" cy="151.6" r="10.2"/>
					<circle class="st20" cx="263.1" cy="174.1" r="4.9"/>
					<g>
						<path class="st11" d="M302.2,196.3c-0.9-1.1-1.7-2.4-2.1-3.8c-0.2-0.4-0.3-0.9-0.2-1.4c0-0.5,0.3-0.9,0.8-1.1
							c0.5-0.1,1,0,1.4,0.2c1.1,0.6,2.2,1.4,3.2,2.2l5.2,4.4c-0.6-0.8-1.2-1.6-1.8-2.4c-0.6-0.8-1.1-1.7-1.3-2.7
							c-0.1-0.5,0-0.9,0.3-1.3c0.6-0.5,1.5-0.2,2.1,0.3c1.9,1.3,3.5,3.2,5.5,4.4c1.5,0.9,3.1,1.3,4.5,2.2c1.1,0.7,2.1,1.6,3,2.6
							l2.8,2.8l-2.5,10.9c-6.8-0.8-13.4-2.2-20.1-3.6c-1.6-0.3-3.1-0.7-4.6-1.2c-0.9-0.2-1.6-0.7-2.2-1.3c-0.1-0.1-0.2-0.2-0.2-0.4
							c0-0.4,0.4-0.6,0.8-0.7c1.2-0.3,2.3-0.3,3.5-0.2l0,0c-1.8-0.9-3.3-2.2-4.6-3.8c-0.3-0.3-0.5-0.6-0.6-1s-0.1-0.8,0.1-1.2
							c0.3-0.3,0.6-0.4,1-0.4s0.8,0.1,1.1,0.2c1.4,0.5,2.7,1,4.1,1.5c-2.1-1.5-3.7-3.5-4.6-5.9c-0.2-0.4-0.2-0.8-0.2-1.1
							c0-0.4,0.3-0.8,0.7-0.9c0.4-0.1,0.8,0,1.1,0.3C299.6,194.6,300.9,195.4,302.2,196.3z"/>
						<path class="st8" d="M306.8,207.6c-2-0.5-4.1-1-6.1-1.7c-0.2-0.1-0.5,0-0.6,0.2s0,0.5,0.2,0.6c2.1,0.7,4.2,1.3,6.3,1.8
							C307.2,208.6,307.4,207.7,306.8,207.6z"/>
						<path class="st8" d="M307.7,204.6c-2.1-1.1-4.2-2.2-6.3-3.4c-0.5-0.3-0.9,0.5-0.4,0.8c2,1.2,4.1,2.4,6.3,3.4
							C307.8,205.7,308.2,204.9,307.7,204.6z"/>
						<path class="st8" d="M309.2,201.6c-2.3-1.5-4.5-3.1-6.5-5c-0.4-0.4-1,0.3-0.6,0.7c2,1.9,4.3,3.7,6.7,5.2
							c0.2,0.1,0.5,0,0.6-0.2C309.5,202,309.5,201.7,309.2,201.6L309.2,201.6z"/>
					</g>
					<path class="st1" d="M269.9,192.3c-4.5-0.6-8.7,2.5-9.3,7.1c0,0.1,0,0.1,0,0.2c-0.1,0.7,0.4,1.4,1.2,1.5c0.7,0.1,1.3-0.4,1.5-1
						c0.1-0.4,0.1-0.8,0.2-1.2l0,0v-0.1c0-0.1,0.1-0.2,0.1-0.3c0.1-0.2,0.2-0.4,0.3-0.6c0-0.1,0.1-0.2,0.1-0.3l0.1-0.1
						c0.1-0.2,0.2-0.3,0.4-0.5c0.1-0.1,0.3-0.3,0.4-0.4l0.1-0.1l0.2-0.1c0.3-0.3,0.6-0.5,1-0.7l0.2-0.1l0.3-0.1
						c0.2-0.1,0.4-0.1,0.6-0.2l0.3-0.1h0.1c0.2,0,0.4-0.1,0.6-0.1s0.4,0,0.6,0c0,0,0.4,0,0.1,0h0.4c0.7,0.1,1.4-0.4,1.5-1.2
						C271,193.1,270.6,192.5,269.9,192.3L269.9,192.3z"/>
					<path class="st1" d="M276.3,197.3c-0.1-0.1-0.2-0.2-0.3-0.4s-0.3-0.4-0.5-0.6l-0.3-0.3c-0.2-0.2-0.4-0.3-0.6-0.4
						c-0.2-0.1-0.3-0.1-0.5-0.1s-0.4,0-0.5,0.1c-0.2,0.1-0.3,0.2-0.4,0.3s-0.2,0.2-0.3,0.4l-0.1,0.3c0,0.2,0,0.5,0.1,0.7l0.2,0.3
						c0.1,0.2,0.3,0.3,0.4,0.4c0.2,0.1,0.4,0.3,0.5,0.5c0.1,0.1,0.2,0.2,0.2,0.3c0.1,0.1,0.2,0.3,0.4,0.4c0.1,0.1,0.3,0.2,0.5,0.2
						c0.3,0,0.7,0,1-0.2l0.2-0.2c0.1-0.2,0.2-0.4,0.3-0.6V198C276.5,197.7,276.4,197.5,276.3,197.3z"/>
					<path class="st1" d="M304.6,152.2c-5.7-4.7-14.2-3.8-18.8,2c-1.6,2-2.7,4.5-2.9,7c-0.2,1.7,2.5,2.2,2.7,0.5
						c0.5-5.9,5.7-10.2,11.5-9.7c2.1,0.2,4.2,1,5.8,2.3C304.2,155.4,306,153.3,304.6,152.2z"/>
					<path class="st1" d="M309.6,160.6c-0.3-1.5-0.9-2.9-1.8-4.2c-0.5-0.6-1.3-0.6-1.9-0.2c-0.5,0.4-0.6,1.2-0.3,1.7
						c0.2,0.3,0.5,0.7,0.7,1c0.3,0.6,0.5,1.2,0.7,1.9c0.1,0.3,0.2,0.6,0.5,0.8s0.6,0.3,1,0.3s0.7-0.2,0.9-0.5
						C309.6,161.3,309.7,160.9,309.6,160.6z"/>
					<path class="st1" d="M331,157.6c-0.3-0.7-1-1.1-1.8-0.8c-1.9,0.8-4,0.6-5.8-0.4c-0.8-0.5-1.4-1.2-1.9-2s-0.8-1.6-0.9-2.5
						c0-0.8-0.6-1.4-1.4-1.4s-1.4,0.6-1.4,1.4c0,0.1,0,0.2,0,0.2c0.5,4.9,4.8,8.4,9.7,7.9c0.9-0.1,1.7-0.3,2.5-0.6
						C330.9,159.1,331.2,158.3,331,157.6z"/>
					<path class="st26" d="M282.4,122.2c-0.3-0.7-1-1-1.8-0.8c-3.3,0.8-5.7,4.2-6.5,7.4s0.3,6.7,2.9,8.8c1.4,1.1,3.1-1,1.7-2.1
						c-1.8-1.5-2.6-4-1.9-6.2c0.6-2.3,2.4-4.8,4.8-5.3C282.3,123.6,282.6,122.9,282.4,122.2z"/>
					<path class="st26" d="M283,137.8c-0.1-0.2-0.2-0.3-0.3-0.4l-0.3-0.2c-0.2-0.1-0.5-0.1-0.7-0.1l-0.4,0.1
						c-0.2,0.1-0.4,0.2-0.6,0.4l-0.1,0.1c-0.2,0.3-0.3,0.6-0.3,1c0,0.2,0.1,0.4,0.2,0.5c0.1,0.2,0.2,0.3,0.3,0.4l0.3,0.2
						c0.2,0.1,0.5,0.2,0.7,0.1l0.4-0.1c0.2-0.1,0.4-0.2,0.6-0.4l0.1-0.1c0.1-0.1,0.2-0.3,0.2-0.5c0.1-0.2,0.1-0.4,0.1-0.5
						C283.2,138.1,283.1,138,283,137.8z"/>
					<path class="st26" d="M309.6,122.5c-0.2-0.3-0.5-0.5-0.9-0.6c-0.3,0-0.7,0-1,0.2c-1.9,1.2-2.5,3.7-1.3,5.7
						c0.1,0.1,0.2,0.3,0.3,0.4c0.2,0.3,0.5,0.5,0.9,0.6s0.7,0,1-0.2c0.6-0.4,0.7-1.3,0.3-1.9c-0.1-0.1-0.2-0.2-0.2-0.3
						c0-0.1-0.1-0.2-0.1-0.4c0-0.1,0-0.3,0-0.4s0-0.2,0.1-0.3c0-0.1,0.1-0.2,0.2-0.3l0.2-0.3c0.1-0.1,0.2-0.2,0.4-0.3
						c0.3-0.2,0.5-0.5,0.5-0.9C309.9,123.2,309.8,122.8,309.6,122.5z"/>
					<path class="st26" d="M296.5,190.8c-0.5-0.6-1.3-0.7-1.9-0.3c-2.8,1.7-4.6,4.5-4.9,7.7c-0.1,0.7,0.4,1.4,1.2,1.5
						c0.7,0.1,1.3-0.4,1.5-1c0-0.3,0.1-0.7,0.1-1l0.1-0.5l0.1-0.2v-0.1c0.2-0.6,0.5-1.2,0.9-1.8l0,0l0.1-0.2
						c0.1-0.1,0.2-0.3,0.3-0.4c0.2-0.3,0.4-0.5,0.7-0.8l0.1-0.1l0.1-0.1c0.1-0.1,0.3-0.2,0.4-0.3c0.3-0.2,0.6-0.4,0.9-0.6
						C296.8,192.3,296.9,191.5,296.5,190.8L296.5,190.8z"/>
				</g>
			</g>
		</g>
	</g>
</g>
</svg>
