<svg xmlns="http://www.w3.org/2000/svg" width="750" height="462.28" viewBox="0 0 750 462.28">
  <defs>
    <style>
      .cls-1 {
        fill: #a9d1f5;
      }

      .cls-2 {
        fill: #98c4ed;
      }

      .cls-3 {
        fill: #66a5e3;
      }

      .cls-4 {
        fill: #3b85ed;
      }

      .cls-21, .cls-5 {
        fill: #fff;
      }

      .cls-6 {
        fill: #7fa4c7;
      }

      .cls-7 {
        fill: #3b546e;
      }

      .cls-8 {
        fill: #2a3647;
      }

      .cls-9 {
        fill: #1e2733;
      }

      .cls-10, .cls-15, .cls-18, .cls-19, .cls-20, .cls-24, .cls-25, .cls-31, .cls-33, .cls-35 {
        fill: none;
      }

      .cls-10 {
        stroke: #2a3647;
      }

      .cls-10, .cls-15, .cls-18, .cls-19, .cls-20, .cls-21, .cls-24, .cls-25, .cls-31, .cls-33, .cls-35 {
        stroke-miterlimit: 10;
      }

      .cls-10, .cls-18, .cls-19, .cls-20, .cls-21 {
        stroke-width: 0.46px;
      }

      .cls-11 {
        fill: #f5b299;
      }

      .cls-12 {
        fill: #287a8f;
      }

      .cls-13 {
        fill: #182d40;
      }

      .cls-14 {
        fill: #ffdac6;
      }

      .cls-15 {
        stroke: #ad3f3f;
        stroke-width: 0.5px;
      }

      .cls-16 {
        fill: #d1d1d1;
      }

      .cls-17 {
        fill: #2da189;
      }

      .cls-18 {
        stroke: #1c5563;
      }

      .cls-19 {
        stroke: #19594b;
      }

      .cls-20 {
        stroke: #b8b8b8;
      }

      .cls-21, .cls-25 {
        stroke: #d1d1d1;
      }

      .cls-22 {
        fill: #242e3d;
      }

      .cls-23 {
        fill: #36465c;
      }

      .cls-24 {
        stroke: #151b24;
        stroke-width: 0.41px;
      }

      .cls-25 {
        stroke-width: 0.45px;
      }

      .cls-26 {
        fill: #4a2f1c;
      }

      .cls-27 {
        fill: #9e8c5a;
      }

      .cls-28 {
        fill: #b8a778;
      }

      .cls-29 {
        fill: #85754c;
      }

      .cls-30 {
        fill: #402818;
      }

      .cls-31 {
        stroke: #4a2f1c;
        stroke-width: 0.37px;
      }

      .cls-32 {
        fill: #3578d6;
      }

      .cls-33 {
        stroke: #429bed;
        stroke-width: 0.5px;
      }

      .cls-34 {
        fill: #ff7070;
      }

      .cls-35 {
        stroke: #182d40;
      }
    </style>
  </defs>
  <g id="OBJECTS">
    <g>
      <g>
        <path class="cls-1" d="M685,409.16V381.67A83.57,83.57,0,0,0,601.4,298.1h0V20.91H523a90.19,90.19,0,0,0-90.18,90.18V407.84Z"/>
        <path class="cls-1" d="M265,88.39H403a0,0,0,0,1,0,0V409.16a0,0,0,0,1,0,0H335.59a70.6,70.6,0,0,1-70.6-70.6V88.39A0,0,0,0,1,265,88.39Z" transform="translate(667.99 497.55) rotate(180)"/>
        <path class="cls-2" d="M390.64,140.35H513.76a0,0,0,0,1,0,0v268.8a0,0,0,0,1,0,0h-33a90.1,90.1,0,0,1-90.1-90.1V140.35A0,0,0,0,1,390.64,140.35Z" transform="translate(904.39 549.51) rotate(180)"/>
        <path class="cls-2" d="M191.06,20.91H314.18a0,0,0,0,1,0,0V409.16a0,0,0,0,1,0,0H255.25A64.19,64.19,0,0,1,191.06,345V20.91A0,0,0,0,1,191.06,20.91Z" transform="translate(505.24 430.07) rotate(180)"/>
        <path class="cls-1" d="M107.42,261.87V102.26a66.11,66.11,0,0,1,66.11-66.11h71.91v373H65v-58a115.34,115.34,0,0,1,42.4-89.34Z"/>
      </g>
      <path class="cls-3" d="M374.49,254.16l-.2-.1a15.67,15.67,0,0,1-8.68-14v-4.54h2.52a2.46,2.46,0,0,0,2.45-2.46V215.57a2.45,2.45,0,0,0-2.45-2.45H294.36a2.46,2.46,0,0,0-2.46,2.45V233a2.46,2.46,0,0,0,2.46,2.46h2.52v4.66a15.65,15.65,0,0,1-8.53,13.94h0a27.83,27.83,0,0,0-15.14,24.77v121.5a7.48,7.48,0,0,0,7.48,7.48H382.43a7.48,7.48,0,0,0,7.48-7.48V279.06A27.81,27.81,0,0,0,374.49,254.16Z"/>
      <g>
        <circle class="cls-4" cx="309.85" cy="113.66" r="22.37"/>
        <g>
          <path class="cls-5" d="M331.18,361.37v-191a2.45,2.45,0,0,0-2.44-2.45H291a2.45,2.45,0,0,0-2.44,2.45v191a2.44,2.44,0,0,1-2.44,2.44h-4.54a2.45,2.45,0,0,0-2.45,2.45h0a2.45,2.45,0,0,0,2.45,2.44h56.61a2.44,2.44,0,0,0,2.44-2.44h0a2.45,2.45,0,0,0-2.44-2.45h-4.54A2.44,2.44,0,0,1,331.18,361.37Z"/>
          <rect class="cls-4" x="293.11" y="172.8" width="33.49" height="55.39"/>
          <path class="cls-2" d="M297.75,216.4H322A4.64,4.64,0,0,1,326.6,221V363.28a0,0,0,0,1,0,0H293.11a0,0,0,0,1,0,0V221A4.64,4.64,0,0,1,297.75,216.4Z"/>
          <g>
            <path class="cls-5" d="M311.22,163.73h-2V105.07l.27,1a48.17,48.17,0,0,1,1.75,12.86Z"/>
            <polygon class="cls-6" points="309.2 146.63 309.2 163.73 311.22 163.73 311.22 146.14 309.2 146.63"/>
            <g>
              <polygon class="cls-5" points="319.1 167.97 301.32 167.97 305.24 148.67 315.18 148.67 319.1 167.97"/>
              <polygon class="cls-6" points="319.1 167.97 301.32 167.97 301.57 166.77 318.35 164.3 319.1 167.97"/>
            </g>
          </g>
          <path class="cls-5" d="M343.52,404.82l-.2-.1a18.12,18.12,0,0,0-8-1.85H315.41l1.55-61.1V221.21H302.75V341.77l1.55,61.1H284.41a18.12,18.12,0,0,0-8,1.85l-.21.1a1.59,1.59,0,0,0,.82,3h65.71A1.59,1.59,0,0,0,343.52,404.82Z"/>
          <path class="cls-6" d="M307,380.74l0,0,8.84,5,.57-22.47H303.29l.27,10.49A9.1,9.1,0,0,0,307,380.74Z"/>
          <rect class="cls-7" x="293.11" y="216.44" width="33.49" height="16.24" rx="4.6"/>
        </g>
      </g>
      <g>
        <polygon class="cls-8" points="562.22 201.24 568 202.42 568.28 379.72 595 379.72 609.01 216.43 597.99 178.63 539.87 178.63 523.28 213.5 513.44 379.72 539.03 379.72 562.22 201.24"/>
        <path class="cls-9" d="M523.28,213.5l16.59-34.87H598l11,37.8-1.57,18.36a339.85,339.85,0,0,1-39.37,9.27L568,202.42l-5.79-1.18-5.79,44.62a271.58,271.58,0,0,1-35.21,2.54Z"/>
        <line class="cls-10" x1="595.56" y1="183.2" x2="540.44" y2="183.2"/>
        <line class="cls-10" x1="564.16" y1="201.34" x2="564.16" y2="183.2"/>
        <path class="cls-11" d="M572.12,374.28,571,387.22a58,58,0,0,0-3.56,20.62H610v-.13a9.17,9.17,0,0,0-7.42-9h0a18.64,18.64,0,0,1-11.24-7l-5-6.54.57-10.88Z"/>
        <path class="cls-5" d="M586.37,385.16l5,6.54a18.64,18.64,0,0,0,11.24,7,9.17,9.17,0,0,1,7.42,9v.13H567.44A58,58,0,0,1,571,387.22l7.69,2.06A7.48,7.48,0,0,1,586.37,385.16Z"/>
        <path class="cls-12" d="M610,407.71v.13H567.44c0-1.56.06-3.06.16-4.5h41.29A9.15,9.15,0,0,1,610,407.71Z"/>
        <path class="cls-11" d="M533.15,374.28l-1,12.94a57.82,57.82,0,0,1,3.57,20.62H493.13v-.13a9.17,9.17,0,0,1,7.42-9h0a18.64,18.64,0,0,0,11.24-7l5-6.54,1.58-10.88Z"/>
        <path class="cls-5" d="M516.76,385.16l-5,6.54a18.64,18.64,0,0,1-11.24,7,9.17,9.17,0,0,0-7.42,9v.13H535.7a57.82,57.82,0,0,0-3.57-20.62l-7.68,2.06A7.5,7.5,0,0,0,516.76,385.16Z"/>
        <path class="cls-12" d="M493.13,407.71v.13H535.7c0-1.56-.06-3.06-.17-4.5H494.25A9.16,9.16,0,0,0,493.13,407.71Z"/>
        <path class="cls-13" d="M552.72,56s-1.67-7.4-2.23-10.22.85-6.89,5.35-6.82c4.64-5.76,13.95-4.51,19.75-1.75,6,2.88,7.92,10.8,1.13,10.47l-1.13,6.06Z"/>
        <polygon class="cls-12" points="564.15 75.53 578.26 79.25 578.26 178.63 564.15 178.63 550.05 178.63 550.05 79.25 564.15 75.53"/>
        <polygon class="cls-14" points="460.25 121.28 447.62 113.66 442.07 120.62 453.46 132.71 460.25 121.28"/>
        <path class="cls-14" d="M557.54,81.78l6.62,5.3,6.61-5.3a2.73,2.73,0,0,0,1-2.13V61.44H556.51V79.65A2.73,2.73,0,0,0,557.54,81.78Z"/>
        <path class="cls-11" d="M564.06,73.55c-2.73.35-5.46.67-7.55,2V61.44H571.8v3.31A8.88,8.88,0,0,1,564.06,73.55Z"/>
        <g>
          <path class="cls-11" d="M573.24,52.2a3.36,3.36,0,1,0,4.7,4.7,3.36,3.36,0,1,0-4.7-4.7Z"/>
          <path class="cls-11" d="M555.07,52.2a3.36,3.36,0,1,1-4.69,4.7,3.36,3.36,0,1,1,4.69-4.7Z"/>
        </g>
        <path class="cls-14" d="M555.53,45.2a22.91,22.91,0,0,0,7.55-2,21.59,21.59,0,0,0,11.67,3.88V54c0,7-2.9,14.63-10.59,14.63s-10.6-7.6-10.6-14.63V50C555.73,48.83,555.53,45.2,555.53,45.2Z"/>
        <g>
          <path class="cls-13" d="M567.68,51c0,.8.41,1.44.91,1.44s.9-.64.9-1.44-.41-1.43-.9-1.43S567.68,50.21,567.68,51Z"/>
          <path class="cls-13" d="M558.82,51c0,.8.41,1.44.9,1.44s.91-.64.91-1.44-.41-1.43-.91-1.43S558.82,50.21,558.82,51Z"/>
        </g>
        <line class="cls-15" x1="564.74" y1="50.87" x2="565.33" y2="56.52"/>
        <g>
          <path class="cls-13" d="M566.1,49a6.22,6.22,0,0,1,4.81-.45l.34-.95a7.23,7.23,0,0,0-5.67.54Z"/>
          <path class="cls-13" d="M562.21,49l.52-.86a7.23,7.23,0,0,0-5.67-.54l.34.95A6.22,6.22,0,0,1,562.21,49Z"/>
        </g>
        <path class="cls-5" d="M574.74,78.32V232.91c7.7,0,33-.75,46.51-4.69l-18.56-67.31,4.4-75.1Z"/>
        <polygon class="cls-16" points="604.82 168.63 594.25 202.72 615.81 208.5 604.82 168.63"/>
        <polygon class="cls-17" points="597.99 196.91 595.56 202.72 608.03 202.72 609.01 199.81 597.99 196.91"/>
        <path class="cls-16" d="M574.74,78.32l8.93,12a15.15,15.15,0,0,1,2.23,13.83l-4.34,13h0a47.55,47.55,0,0,1,.85,28.38L574.74,173Z"/>
        <path class="cls-5" d="M553.57,78.32V232.91c-7.7,0-33-.75-46.51-4.69l18.56-67.31-4.4-75.1Z"/>
        <path class="cls-16" d="M553.57,78.32l-8.93,12a15.15,15.15,0,0,0-2.23,13.83l4.34,13h0a47.55,47.55,0,0,0-.85,28.38L553.57,173Z"/>
        <line class="cls-18" x1="564.16" y1="87.08" x2="564.16" y2="178.63"/>
        <path class="cls-10" d="M570.18,183.2v8.16a6.22,6.22,0,0,1-4.17,5.88l-1.85.65"/>
        <path class="cls-5" d="M521.22,85.81c-4.41,1.22-7.92,7.5-13.55,16.88s-19.92,33.47-19.92,33.47l-30.19-16.5-11.25,17.27L479,163.22a17.59,17.59,0,0,0,24.92-2.94l20.12-26Z"/>
        <g>
          <path class="cls-17" d="M455.57,116.54s-.21,5.91-10.27,12.37l-5.55-8.29s-7.1.21-10.9-1.34a43.74,43.74,0,0,1-5.94-3.06,4.73,4.73,0,0,1-2.16-3L418.87,105a1.64,1.64,0,0,1,2.42-1.78l5.66,3.31,9.21.77-4.6-3.71a1.92,1.92,0,0,1-.55-2.29h0a2,2,0,0,1,2.76-.91c3.53,2,11,6.84,14.21,12.6Z"/>
          <path class="cls-19" d="M419,105.58l6.77,3.52a4.88,4.88,0,0,0,1.94.56l3.75.29"/>
          <path class="cls-19" d="M419.65,108.78l6.76,3.52a5.23,5.23,0,0,0,1.94.56l3.75.29"/>
          <path class="cls-19" d="M420.3,112l6.76,3.52a4.88,4.88,0,0,0,1.94.56l3.76.3"/>
        </g>
        <line class="cls-20" x1="487.75" y1="136.16" x2="499.02" y2="142.48"/>
        <polygon class="cls-16" points="521.62 92.66 514.63 146.48 524.06 134.3 521.62 92.66"/>
        <line class="cls-20" x1="451.53" y1="128.91" x2="469.19" y2="140.84"/>
        <path class="cls-20" d="M461.89,140.19A1.15,1.15,0,1,0,463,139,1.15,1.15,0,0,0,461.89,140.19Z"/>
        <path class="cls-20" d="M455.57,135.59a1.15,1.15,0,1,0,1.15-1.14A1.14,1.14,0,0,0,455.57,135.59Z"/>
        <path class="cls-5" d="M564.16,68.66c-7.52,0-10.45-7.25-10.59-14.14a5.57,5.57,0,0,0,4.26,2c3.33,0,5-1.64,6.33-1.64s3,1.64,6.32,1.64a5.57,5.57,0,0,0,4.26-2C574.6,61.41,571.67,68.66,564.16,68.66Z"/>
        <g>
          <polygon class="cls-9" points="595.63 372.41 595 379.72 568.28 379.72 568.28 372.41 595.63 372.41"/>
          <polygon class="cls-9" points="539.03 379.72 513.44 379.72 513.87 372.41 540.04 372.41 539.03 379.72"/>
        </g>
        <path class="cls-5" d="M607.09,85.81c7.6,1.83,12.66,13.64,16,21.8,2.17,5.22,9.63,23,14.72,35a27.47,27.47,0,0,1-.86,23.19L617.22,204.5,598,196.91l15.71-40.64-9.45-22.08Z"/>
        <line class="cls-20" x1="615.06" y1="155.61" x2="625.56" y2="153.5"/>
        <line class="cls-20" x1="615.81" y1="156.97" x2="628.19" y2="158.47"/>
        <polygon class="cls-16" points="611.41 150.91 606.69 92.66 604.25 134.19 611.41 150.91"/>
        <g>
          <path class="cls-21" d="M608.77,201.83H582.68s-.47,16.55,13.05,16.55S608.77,201.83,608.77,201.83Z"/>
          <path class="cls-21" d="M545.63,201.83H519.54s-.47,16.55,13.05,16.55S545.63,201.83,545.63,201.83Z"/>
        </g>
      </g>
      <g>
        <path class="cls-11" d="M201.62,379.41l-.33,17.28a40.47,40.47,0,0,0-1.67,11.15h28.79l0-.24a9.22,9.22,0,0,0-6.2-8.1l-9.05-3.12,1.6-17Z"/>
        <path class="cls-5" d="M213.14,396.38l9.05,3.12a9.22,9.22,0,0,1,6.2,8.1l0,.24H199.62a40.47,40.47,0,0,1,1.67-11.15l6.65,3.46C210,396.43,213.14,396.38,213.14,396.38Z"/>
        <path class="cls-11" d="M190,379.41l.32,17.28A40.26,40.26,0,0,1,192,407.84h-28.8l0-.24a9.24,9.24,0,0,1,6.2-8.1l9.05-3.12-1.6-17Z"/>
        <path class="cls-5" d="M178.44,396.38l-9.05,3.12a9.24,9.24,0,0,0-6.2,8.1l0,.24H192a40.26,40.26,0,0,0-1.68-11.15l-6.65,3.46C181.61,396.43,178.44,396.38,178.44,396.38Z"/>
        <path class="cls-5" d="M226,98.19c10.37,8,18.62,26,28,42.85s12.69,33.65-5.5,40.18L229.77,148Z"/>
        <polygon class="cls-16" points="238.36 152.41 226.63 106.72 230.11 152.41 238.36 152.41"/>
        <path class="cls-5" d="M168.53,98.19c-8.71,6.7-26.69,41-30.36,49.45l24,22.57,3.12-18Z"/>
        <polygon class="cls-16" points="168.03 106.72 165.33 152.23 162.26 169.9 156.16 159.57 168.03 106.72 168.03 106.72"/>
        <polygon class="cls-8" points="195.79 194.44 234.57 194.44 218.71 387.85 195.79 387.85 172.87 387.85 157.01 194.44 195.79 194.44"/>
        <path class="cls-22" d="M212.68,295.53l-16.89-43.75V383.63h23.27l2.47-28A137.76,137.76,0,0,0,212.68,295.53Z"/>
        <polygon class="cls-23" points="219.4 379.41 218.71 387.85 195.79 387.85 172.87 387.85 172.18 379.41 219.4 379.41"/>
        <path class="cls-22" d="M234.57,194.44l-3.44,42C217,240.36,186.7,247.19,161,242.7l-4-48.26h77.56Z"/>
        <line class="cls-24" x1="195.79" y1="387.85" x2="195.79" y2="198.29"/>
        <path class="cls-12" d="M183.36,89.93a67.94,67.94,0,0,1,13.9-6.19,68.25,68.25,0,0,1,13.9,6.19l12.25,106.8a65.84,65.84,0,0,1-52.3,0Z"/>
        <g>
          <path class="cls-5" d="M207,86.9V232.24c17.34,0,30-.28,38-3.58,0,0-3.58-46.24-14.86-76.25L226,98.19S219.65,92.68,207,86.9Z"/>
          <path class="cls-16" d="M234.27,165.34c1.9,6.77,3.49,13.88,4.82,20.77-14.11-6.19-27.94-21.27-27.94-21.27l1.7-2.91Z"/>
          <path class="cls-16" d="M207,86.9l8.81,8a8.86,8.86,0,0,1,2.29,9.81l-6.7,17,3.57,4.84a12.6,12.6,0,0,1,2.16,10.31L207,181.22Z"/>
          <path class="cls-5" d="M187.53,86.9V232.24c-17.34,0-30-.28-38-3.58,0,0,3.58-46.24,14.87-76.25l4.12-54.22S174.87,92.68,187.53,86.9Z"/>
          <path class="cls-16" d="M187.53,86.9l-8.82,8a8.86,8.86,0,0,0-2.29,9.81l6.7,17-3.57,4.84a12.6,12.6,0,0,0-2.15,10.31l10.13,44.35Z"/>
        </g>
        <g>
          <path class="cls-5" d="M207,86.9V232.24c17.34,0,30-.28,38-3.58,0,0-3.58-46.24-14.86-76.25L226,98.19S219.65,92.68,207,86.9Z"/>
          <path class="cls-16" d="M234.27,165.34c1.9,6.77,3.49,13.88,4.82,20.77-14.11-6.19-27.94-21.27-27.94-21.27l1.7-2.91Z"/>
          <path class="cls-16" d="M207,86.9l8.81,8a8.86,8.86,0,0,1,2.29,9.81l-6.7,17,3.57,4.84a12.6,12.6,0,0,1,2.16,10.31L207,181.22Z"/>
          <path class="cls-5" d="M187.53,86.9V232.24c-17.34,0-30-.28-38-3.58,0,0,3.58-46.24,14.87-76.25l4.12-54.22S174.87,92.68,187.53,86.9Z"/>
          <path class="cls-16" d="M154.75,189.71l13.28-.4.5,10.31-6.44,1.6L154,193.91C154.24,192.53,154.49,191.13,154.75,189.71Z"/>
          <path class="cls-16" d="M187.53,86.9l-8.82,8a8.86,8.86,0,0,0-2.29,9.81l6.7,17-3.57,4.84a12.6,12.6,0,0,0-2.15,10.31l10.13,44.35Z"/>
        </g>
        <polygon class="cls-17" points="173.07 192.05 165.63 194.42 165.93 198.29 176.45 198.29 173.07 192.05"/>
        <path class="cls-21" d="M160.09,198.29h18.63s2.11,11.93-9.31,11.93S160.09,198.29,160.09,198.29Z"/>
        <path class="cls-5" d="M138.17,147.64c-3.58,8.49-2.75,17.44,3,26s17.2,23.12,17.2,23.12l16-5.09-18-39A11.07,11.07,0,0,0,144,146.41Z"/>
        <line class="cls-25" x1="174.37" y1="191.64" x2="151.17" y2="142.21"/>
        <line class="cls-24" x1="202.4" y1="225.27" x2="189.19" y2="225.27"/>
        <path class="cls-24" d="M201.07,202v11.69a11.29,11.29,0,0,1-5.28,9.56h0"/>
        <path class="cls-26" d="M187.57,53.11a5,5,0,0,0-2.89-3.69c-3.87-1.64-8.91-1.27-12.1,4.31-3.94,6.88.69,13.49,2.41,16s8.19,13.35-.76,15.48c7.36,2.07,14.58,0,15.35-8.32C190.28,69.31,188.44,57.91,187.57,53.11Z"/>
        <g>
          <rect class="cls-27" x="189.96" y="113.22" width="42.39" height="54.26" transform="translate(395.45 314.48) rotate(-170.24)"/>
          <rect class="cls-28" x="193.27" y="117.36" width="38.72" height="50.41" transform="translate(398.01 319.12) rotate(-170.24)"/>
        </g>
        <path class="cls-29" d="M198.83,152.65l.76-4.24-3.77-3.28s-4.78-.24-6.64-2.07l2-11.43a13.32,13.32,0,0,1,1.23.77s-.48-2.55.69-2.82,5.76,6.67,5.76,6.67l3.07,1.13-.19,1.08L231,150l-3.56,20.71-11.47-2C210.58,164.19,204.84,158.77,198.83,152.65Z"/>
        <path class="cls-30" d="M171.66,55.8a11.64,11.64,0,0,1,.92-2.07c3.19-5.58,8.23-5.95,12.1-4.31a5,5,0,0,1,2.89,3.69c.85,4.69,2.62,15.66,2,23.27C189.77,67.68,170.17,61.86,171.66,55.8Z"/>
        <path class="cls-5" d="M186.57,51.29l4.35.86-.82,4.15-4.35-.86c-.38-.07-.49-1.06-.27-2.21S186.19,51.22,186.57,51.29Z"/>
        <path class="cls-26" d="M194.62,71.78a41.66,41.66,0,0,1-6.69-8.66c-2.22-4.27,0-13.34,9.55-13.34h5.19s6.7-3.52,12-.49,6.7,13.91-3.85,16.18Z"/>
        <path class="cls-14" d="M193.14,90.45l4.12,3.45,5.35-3.45a5.63,5.63,0,0,0,2.53-3.67l3.42-19H195.35l-3.42,19A3.8,3.8,0,0,0,193.14,90.45Z"/>
        <path class="cls-11" d="M197.49,71.78s-.47,10,8.28,11.5l1.35-7.53Z"/>
        <path class="cls-14" d="M203.41,54.08s1.58,10.18-6.75,12l.38,4a9.17,9.17,0,0,0,2.12,5.11c1.87,2.23,5.12,5,9.68,4.8,7.1-.25,7.51-10.3,4.71-13.85a3.6,3.6,0,0,1-.7-2.22V61.42a6.58,6.58,0,0,0-4.11-6.13A18.17,18.17,0,0,0,203.41,54.08Z"/>
        <line class="cls-15" x1="209.88" y1="63.12" x2="211.66" y2="68.69"/>
        <path class="cls-5" d="M213.29,67a2.84,2.84,0,0,1,1.51,1.84c1.13,4.4-.25,10.94-6,11.14-4.56.17-7.81-2.57-9.68-4.8A9.17,9.17,0,0,1,197,70.11l-.38-4s5.3.9,8.88,1.24C208.71,67.66,210.49,65.7,213.29,67Z"/>
        <path class="cls-11" d="M193.42,70c1,1.71,2.81,2.5,4.07,1.77s1.49-2.7.5-4.41-2.8-2.5-4.07-1.77S192.43,68.31,193.42,70Z"/>
        <path class="cls-31" d="M211.11,63.78c.59-.89,1.37-.82,1.74-.14"/>
        <path class="cls-31" d="M208.19,64a1.54,1.54,0,0,0-2.82.31"/>
        <path class="cls-26" d="M203.9,61.75a9.65,9.65,0,0,1,4.31-.17l.17-.72a10.42,10.42,0,0,0-4.68.18Z"/>
        <path class="cls-26" d="M212.79,60.63a6.33,6.33,0,0,1,.05.76,4.61,4.61,0,0,0-2.36.18l-.24-.7A5.81,5.81,0,0,1,212.79,60.63Z"/>
        <path class="cls-21" d="M234.42,198.29H215.79s-2.11,11.93,9.32,11.93S234.42,198.29,234.42,198.29Z"/>
        <path class="cls-5" d="M248.46,181.22c-11,3.67-28.45-9.17-49-30.09L202,136.82,245,153.7Z"/>
        <path class="cls-17" d="M202.16,135.89l-1.94,11-3.76-3.28s-7.71-.37-7.37-3.9c-.82-2-.57-2.85,0-3.67a3.94,3.94,0,0,1,.08-3.38s-.89-2.26,0-3.09,3.86,1.31,3.86,1.31-.49-2.55.68-2.83,5.76,6.68,5.76,6.68Z"/>
        <line class="cls-25" x1="251.41" y1="155.66" x2="237.99" y2="150.95"/>
      </g>
      <g>
        <path class="cls-4" d="M482.71,399.19V258.87a32.2,32.2,0,0,0-17.83-28.81l-.24-.12a18.09,18.09,0,0,1-10-16.21V201.12H375.1v12.74A18.12,18.12,0,0,1,365.23,230h0a32.19,32.19,0,0,0-17.52,28.65V399.19a8.66,8.66,0,0,0,8.66,8.65H474.06A8.65,8.65,0,0,0,482.71,399.19Z"/>
        <rect class="cls-5" x="372.26" y="265.94" width="85.91" height="109.2" rx="7.24"/>
        <path class="cls-32" d="M454.6,213.73V201.12H375.1c0,.4,0,4.72,0,8.36a5.75,5.75,0,0,0,5,5.73l78.5,9.91A18.07,18.07,0,0,1,454.6,213.73Z"/>
        <g>
          <rect class="cls-5" x="369.34" y="182.59" width="91.01" height="25.87" rx="2.84"/>
          <rect class="cls-2" x="369.34" y="199.29" width="91.01" height="1.83"/>
          <g>
            <rect class="cls-2" x="375.76" y="182.59" width="1.42" height="16.69"/>
            <rect class="cls-2" x="382.74" y="182.59" width="1.42" height="16.69"/>
            <rect class="cls-2" x="389.72" y="182.59" width="1.42" height="16.69"/>
            <rect class="cls-2" x="396.69" y="182.59" width="1.42" height="16.69"/>
            <rect class="cls-2" x="403.67" y="182.59" width="1.42" height="16.69"/>
            <rect class="cls-2" x="410.65" y="182.59" width="1.42" height="16.69"/>
            <rect class="cls-2" x="417.62" y="182.59" width="1.42" height="16.69"/>
            <rect class="cls-2" x="424.6" y="182.59" width="1.42" height="16.69"/>
            <rect class="cls-2" x="431.58" y="182.59" width="1.42" height="16.69"/>
            <rect class="cls-2" x="438.55" y="182.59" width="1.42" height="16.69"/>
            <rect class="cls-2" x="445.53" y="182.59" width="1.42" height="16.69"/>
            <rect class="cls-2" x="452.51" y="182.59" width="1.42" height="16.69"/>
          </g>
        </g>
        <g>
          <g>
            <path class="cls-7" d="M384.9,284.76a4.76,4.76,0,0,1,4.88-4.89,4.68,4.68,0,0,1,4,2.18L392,283.12a2.42,2.42,0,0,0-2.17-1.15,2.79,2.79,0,0,0,0,5.57,2.41,2.41,0,0,0,2.17-1.15l1.85,1.07a4.63,4.63,0,0,1-4,2.18A4.76,4.76,0,0,1,384.9,284.76Z"/>
            <path class="cls-7" d="M394.28,284.76a4.88,4.88,0,1,1,4.88,4.88A4.84,4.84,0,0,1,394.28,284.76Zm7.61,0a2.74,2.74,0,1,0-2.73,2.78A2.67,2.67,0,0,0,401.89,284.76Z"/>
            <path class="cls-7" d="M404,280.06h2.35l2.08,6.91,2.07-6.91h2.35l-3.06,9.39H407.1Z"/>
            <path class="cls-7" d="M415.84,280.06v9.39H413.7v-9.39Z"/>
            <path class="cls-7" d="M425.76,284.76a4.54,4.54,0,0,1-4.55,4.69h-3.76v-9.39h3.76A4.55,4.55,0,0,1,425.76,284.76Zm-2.06,0a2.42,2.42,0,0,0-2.49-2.63H419.6v5.25h1.61A2.41,2.41,0,0,0,423.7,284.76Z"/>
            <path class="cls-7" d="M427,284.47h5.09v1.93H427Z"/>
            <path class="cls-7" d="M437.34,280.06v9.39H435.2v-7.12l-1.66.46L433,281l2.46-.89Z"/>
            <path class="cls-7" d="M445,285.09l-2.87,4.36h-2.46l2-3a3.22,3.22,0,0,1-3.13-3.3,3.49,3.49,0,0,1,7,0A3.4,3.4,0,0,1,445,285.09Zm-2.93-.6a1.3,1.3,0,1,0-1.34-1.3A1.26,1.26,0,0,0,442,284.49Z"/>
          </g>
          <g>
            <path class="cls-7" d="M384.9,294.09h.87l3.44,9.41,3.46-9.41h.85l-3.89,10.44h-.84Z"/>
            <path class="cls-7" d="M400.45,301.88h-5.24l-1,2.65h-.84l4.06-10.44h.84l4,10.44h-.84Zm-.28-.75-2.33-6.07-2.33,6.07Z"/>
            <path class="cls-7" d="M402.86,299.31a5.29,5.29,0,0,1,5.43-5.38,5.08,5.08,0,0,1,4.47,2.5l-.7.41a4.24,4.24,0,0,0-3.77-2.15,4.63,4.63,0,1,0,0,9.25,4.26,4.26,0,0,0,3.8-2.2l.7.41a5.11,5.11,0,0,1-4.5,2.55A5.3,5.3,0,0,1,402.86,299.31Z"/>
            <path class="cls-7" d="M414.06,299.31a5.29,5.29,0,0,1,5.43-5.38,5.1,5.1,0,0,1,4.48,2.5l-.7.41a4.25,4.25,0,0,0-3.78-2.15,4.63,4.63,0,1,0,0,9.25,4.26,4.26,0,0,0,3.81-2.2l.7.41a5.11,5.11,0,0,1-4.51,2.55A5.3,5.3,0,0,1,414.06,299.31Z"/>
            <path class="cls-7" d="M426.66,294.09v10.44h-.79V294.09Z"/>
            <path class="cls-7" d="M436.91,294.09v10.44h-.7l-6.16-9v9h-.79V294.09h.68l6.18,9v-9Z"/>
            <path class="cls-7" d="M445.52,303.79v.74h-6V294.09h5.94v.75H440.3v4.05h4.77v.75H440.3v4.15Z"/>
          </g>
        </g>
        <line class="cls-33" x1="376.59" y1="311.33" x2="453.84" y2="311.33"/>
        <line class="cls-33" x1="376.59" y1="353.61" x2="453.84" y2="353.61"/>
        <g>
          <rect class="cls-1" x="376.59" y="318.31" width="36.2" height="2.23"/>
          <rect class="cls-1" x="376.59" y="324.87" width="36.2" height="2.23"/>
          <rect class="cls-1" x="376.59" y="331.43" width="36.2" height="2.23"/>
          <rect class="cls-1" x="376.59" y="338" width="36.2" height="2.23"/>
          <rect class="cls-1" x="376.59" y="344.56" width="36.2" height="2.23"/>
        </g>
        <line class="cls-33" x1="419.6" y1="311.33" x2="419.6" y2="353.61"/>
        <path class="cls-2" d="M421.59,365.89H379.21a2.62,2.62,0,0,1-2.62-2.62h0a2.62,2.62,0,0,1,2.62-2.63h42.38a2.62,2.62,0,0,1,2.62,2.63h0A2.62,2.62,0,0,1,421.59,365.89Z"/>
        <path class="cls-2" d="M451.68,365.89H431.79a2.62,2.62,0,0,1-2.63-2.62h0a2.63,2.63,0,0,1,2.63-2.63h19.89a2.63,2.63,0,0,1,2.63,2.63h0A2.62,2.62,0,0,1,451.68,365.89Z"/>
        <g>
          <rect class="cls-1" x="433.91" y="318.31" width="19.92" height="1.11"/>
          <rect class="cls-1" x="424.84" y="320.91" width="28.99" height="1.11"/>
          <rect class="cls-1" x="424.84" y="323.51" width="28.99" height="1.11"/>
          <rect class="cls-1" x="424.84" y="326.11" width="28.99" height="1.11"/>
          <rect class="cls-1" x="424.84" y="328.71" width="28.99" height="1.11"/>
          <rect class="cls-1" x="433.91" y="335.27" width="19.92" height="1.11"/>
          <rect class="cls-1" x="424.84" y="337.87" width="28.99" height="1.11"/>
          <rect class="cls-1" x="424.84" y="340.47" width="28.99" height="1.11"/>
          <rect class="cls-1" x="424.84" y="343.07" width="28.99" height="1.11"/>
          <rect class="cls-1" x="424.84" y="345.67" width="28.99" height="1.11"/>
        </g>
      </g>
      <g>
        <path class="cls-34" d="M651.92,51.66c-.51,0-.95.58-1.13,1.41h-4.62a8.72,8.72,0,0,0-1.94-4.68L646,46.58c.71.45,1.43.56,1.79.2s.14-1.59-.75-2.48-2-1.23-2.48-.76-.26,1.08.2,1.8L643,47.15a8.65,8.65,0,0,0-4.68-1.94V40.58c.83-.18,1.41-.61,1.41-1.12,0-.67-1-1.22-2.29-1.22s-2.28.55-2.28,1.22c0,.51.58.94,1.41,1.13v4.62a8.65,8.65,0,0,0-4.68,1.94l-1.81-1.81c.45-.72.56-1.44.2-1.8s-1.58-.13-2.48.76-1.23,2-.75,2.48,1.07.25,1.79-.2l1.81,1.81a8.65,8.65,0,0,0-1.94,4.68h-4.62c-.19-.83-.62-1.41-1.13-1.41-.67,0-1.22,1-1.22,2.28s.55,2.29,1.22,2.29c.51,0,.94-.58,1.13-1.41h4.62a8.65,8.65,0,0,0,1.94,4.68l-3.27,3.27c-.72-.46-1.44-.56-1.79-.2s-.14,1.58.75,2.47,2,1.24,2.48.76.25-1.08-.2-1.79l3.27-3.27a8.68,8.68,0,0,0,4.7,1.94v5.84c-.83.18-1.41.62-1.41,1.12,0,.68,1,1.22,2.28,1.22s2.29-.54,2.29-1.22c0-.5-.58-.94-1.41-1.12V62.68A8.74,8.74,0,0,0,643,60.74l1.81,1.81c-.46.71-.56,1.43-.2,1.79s1.58.14,2.48-.76,1.23-2,.75-2.47-1.08-.26-1.79.2l-1.81-1.81a8.72,8.72,0,0,0,1.94-4.68h4.62c.18.83.62,1.41,1.13,1.41.67,0,1.21-1,1.21-2.29S652.59,51.66,651.92,51.66Z"/>
        <path class="cls-8" d="M637.43,32.71a21.85,21.85,0,1,0,21.85,21.84A21.87,21.87,0,0,0,637.43,32.71Zm19.75,21.84a19.68,19.68,0,0,1-5.08,13.18L624.26,39.89a19.71,19.71,0,0,1,32.92,14.66Zm-39.49,0a19.65,19.65,0,0,1,5.08-13.18l27.84,27.84a19.7,19.7,0,0,1-32.92-14.66Z"/>
      </g>
      <g>
        <path class="cls-34" d="M137.68,89.36c-.33,0-.62.39-.74.94h-3.07a5.85,5.85,0,0,0-1.29-3.11l1.2-1.2c.47.3.95.37,1.19.13s.09-1.05-.5-1.64-1.33-.82-1.65-.5-.17.71.14,1.19l-1.2,1.2a5.85,5.85,0,0,0-3.11-1.29V82c.55-.12.94-.41.94-.74s-.69-.81-1.52-.81-1.52.36-1.52.81.38.62.94.74v3.07a5.78,5.78,0,0,0-3.11,1.29l-1.2-1.2c.3-.48.37-1,.13-1.19s-1-.09-1.65.5-.81,1.33-.5,1.64.72.17,1.19-.13l1.2,1.2a5.84,5.84,0,0,0-1.28,3.11H119.2c-.12-.55-.41-.94-.75-.94s-.81.68-.81,1.52.36,1.52.81,1.52.63-.39.75-.94h3.07a5.77,5.77,0,0,0,1.28,3.11l-2.17,2.17c-.47-.3-.95-.37-1.19-.13s-.09,1,.51,1.64,1.33.82,1.64.5.17-.71-.13-1.19l2.17-2.17a5.74,5.74,0,0,0,3.12,1.29v3.88c-.55.12-.93.41-.93.75s.68.8,1.52.8,1.52-.36,1.52-.8-.39-.63-.94-.75V96.68a5.78,5.78,0,0,0,3.1-1.29l1.2,1.2c-.31.48-.38,1-.14,1.19s1.05.1,1.65-.5.82-1.33.5-1.64-.72-.17-1.19.13l-1.2-1.2a5.78,5.78,0,0,0,1.29-3.11h3.07c.12.55.41.94.74.94s.81-.68.81-1.52S138.13,89.36,137.68,89.36Z"/>
        <path class="cls-8" d="M128.07,76.78a14.51,14.51,0,1,0,14.5,14.5A14.53,14.53,0,0,0,128.07,76.78Zm13.11,14.5A13,13,0,0,1,137.8,100L119.32,81.55a13.09,13.09,0,0,1,21.86,9.73Zm-26.22,0a13,13,0,0,1,3.37-8.74L136.82,101A13.09,13.09,0,0,1,115,91.28Z"/>
      </g>
      <g>
        <path class="cls-34" d="M326.51,38c-.53,0-1,.62-1.19,1.49h-4.88a9.15,9.15,0,0,0-2.05-4.94l1.91-1.91c.76.48,1.52.59,1.9.21s.14-1.67-.8-2.61-2.12-1.31-2.62-.8-.27,1.14.22,1.89l-1.91,1.91a9.34,9.34,0,0,0-4.94-2.05V26.27c.88-.19,1.49-.65,1.49-1.19,0-.71-1.08-1.28-2.41-1.28s-2.42.57-2.42,1.28c0,.54.62,1,1.49,1.19v4.88a9.23,9.23,0,0,0-4.95,2.05l-1.91-1.91c.48-.75.59-1.51.21-1.89s-1.67-.15-2.62.8-1.3,2.11-.79,2.61,1.13.27,1.89-.21L304,34.51A9.23,9.23,0,0,0,302,39.45h-4.88c-.19-.87-.65-1.49-1.19-1.49-.71,0-1.28,1.08-1.28,2.42s.57,2.41,1.28,2.41c.54,0,1-.61,1.19-1.49H302a9.26,9.26,0,0,0,2.05,5l-3.45,3.45c-.76-.48-1.52-.59-1.9-.21s-.14,1.67.8,2.61,2.12,1.3,2.62.8.27-1.14-.21-1.89l3.45-3.45a9.21,9.21,0,0,0,5,2v6.16c-.87.2-1.49.65-1.49,1.19,0,.71,1.08,1.29,2.42,1.29s2.42-.58,2.42-1.29c0-.54-.62-1-1.5-1.19V49.6a9.26,9.26,0,0,0,4.92-2L319,49.47c-.49.75-.6,1.51-.22,1.89s1.68.14,2.62-.8,1.3-2.11.8-2.62-1.14-.26-1.9.22l-1.91-1.91a9.18,9.18,0,0,0,2.05-5h4.88c.2.88.66,1.49,1.19,1.49.71,0,1.29-1.08,1.29-2.41S327.22,38,326.51,38Z"/>
        <path class="cls-8" d="M311.22,18A23.07,23.07,0,1,0,334.29,41,23.1,23.1,0,0,0,311.22,18ZM332.07,41a20.74,20.74,0,0,1-5.37,13.92l-29.4-29.4A20.82,20.82,0,0,1,332.07,41Zm-41.71,0a20.79,20.79,0,0,1,5.37-13.92l29.4,29.41A20.82,20.82,0,0,1,290.36,41Z"/>
      </g>
      <line class="cls-35" x1="45.94" y1="407.91" x2="704.06" y2="407.91"/>
      <g>
        <polygon class="cls-5" points="478.55 198.37 487.66 198.37 487.66 189.25 491.43 189.25 491.43 198.37 500.55 198.37 500.55 202.14 491.43 202.14 491.43 211.26 487.66 211.26 487.66 202.14 478.55 202.14 478.55 198.37"/>
        <polygon class="cls-5" points="637.78 283.96 646.9 283.96 646.9 274.84 650.67 274.84 650.67 283.96 659.79 283.96 659.79 287.73 650.67 287.73 650.67 296.85 646.9 296.85 646.9 287.73 637.78 287.73 637.78 283.96"/>
        <polygon class="cls-5" points="261.42 135.45 270.54 135.45 270.54 126.34 274.31 126.34 274.31 135.45 283.43 135.45 283.43 139.22 274.31 139.22 274.31 148.34 270.54 148.34 270.54 139.22 261.42 139.22 261.42 135.45"/>
        <polygon class="cls-5" points="110.01 326.59 119.13 326.59 119.13 317.47 122.9 317.47 122.9 326.59 132.02 326.59 132.02 330.36 122.9 330.36 122.9 339.48 119.13 339.48 119.13 330.36 110.01 330.36 110.01 326.59"/>
      </g>
    </g>
  </g>
</svg>
