<?xml version="1.0" encoding="utf-8"?>
<!-- Generator: Adobe Illustrator 25.1.0, SVG Export Plug-In . SVG Version: 6.00 Build 0)  -->
<svg version="1.1" id="Layer_1" xmlns="http://www.w3.org/2000/svg" xmlns:xlink="http://www.w3.org/1999/xlink" x="0px" y="0px"
	 viewBox="0 0 420.6 301.5" style="enable-background:new 0 0 420.6 301.5;" xml:space="preserve">
<style type="text/css">
	.st0{opacity:0.64;fill:#BAEAF4;}
	.st1{fill:#1799D6;}
	.st2{fill:#009CF1;}
	.st3{opacity:0.8;fill:#FCFCFC;}
	.st4{fill:#1ED5E8;}
	.st5{fill:#FFFFFF;}
	.st6{fill:#00366A;}
	.st7{fill:#FCFCFC;}
	.st8{fill:#D9EFF2;}
	.st9{fill:#E0EBED;}
	.st10{opacity:0.3;fill:#FFFFFF;}
	.st11{fill:#F13B70;}
	.st12{opacity:0.2;fill:#6E9AF7;}
	.st13{opacity:0.5;fill:#F2FBFF;}
	.st14{opacity:0.5;fill:#6E9AF7;}
	.st15{fill:#F2FBFF;}
	.st16{opacity:0.25;fill:#6E9AF7;}
	.st17{fill:#B8E9F4;}
	.st18{fill:#E6F5F7;}
</style>
<circle class="st0" cx="189.1" cy="149.7" r="133.9"/>
<g>
	<path class="st1" d="M218.3,156.5l-6.5,13.2l-15.2-9.2c-0.8-0.5-1.1-1.5-0.7-2.3l3.7-7.4c0.4-0.8,1.4-1.2,2.2-0.9L218.3,156.5z"/>
	<path class="st2" d="M225.4,149.7l-14.7,29.8l-1.4-0.7c-2.1-1-3.2-3.3-2.8-5.6l2.1-11.2c0.2-0.9,0.6-1.8,1.2-2.5l8.1-9.2
		c1.6-1.8,4.1-2.3,6.2-1.2L225.4,149.7z"/>
	<path class="st3" d="M340.2,189.7l-5,1.7c-1.6,0.5-3.3,0.4-4.7-0.3l-95.3-47.2c-3.1-1.5-6.8-0.3-8.3,2.8l-17.7,35.7
		c-1.5,3.1-0.3,6.8,2.8,8.3l95.3,47.2c1.5,0.7,2.6,2,3.1,3.6l1.7,5c0.8,2.4,4.1,2.6,5.2,0.4l1.6-3.2l23.1-46.7l1.6-3.2
		C344.8,191.4,342.6,188.9,340.2,189.7z"/>
	<path class="st4" d="M281,169.5l-20.8,42.1l-46.7-23.1c-2.1-1.1-3-3.7-2-5.8l17-34.3c1.1-2.1,3.7-3,5.8-2L281,169.5z"/>
	<polygon class="st5" points="198.4,153.3 197.1,155.8 131.6,123.3 135.2,122 	"/>
	
		<rect x="253.1" y="186.9" transform="matrix(0.4436 -0.8962 0.8962 0.4436 -19.5724 355.485)" class="st6" width="47" height="13.2"/>
	<g>
		<path class="st7" d="M289,183.3l-12.6,25.5l-4.3,8.7l3.9,1.9c1.1,0.6,2.5,0.1,3-1l3.3-6.7l80.3,39.7l12.6-25.5l-80.3-39.7l2.9-5.8
			c0.6-1.1,0.1-2.5-1-3l-3.9-1.9L289,183.3z"/>
		<path class="st7" d="M388.6,217.3l-25.2,50.9c-1,2-3.4,2.8-5.4,1.8l0,0c-2-1-2.8-3.4-1.8-5.4l25.2-50.9c1-2,3.4-2.8,5.4-1.8l0,0
			C388.7,212.8,389.6,215.2,388.6,217.3z"/>
		<polygon class="st8" points="294.9,186.2 289.7,196.7 287.5,201.2 282.3,211.7 285.1,213.1 290.3,202.6 367.8,240.9 370,236.4 
			292.6,198.1 297.8,187.6 		"/>
	</g>
	<g>
		<path class="st9" d="M227.2,158.1c-0.1,0-0.2,0-0.2-0.1c-0.3-0.1-0.4-0.5-0.3-0.7l4.1-8.2c0.1-0.3,0.5-0.4,0.7-0.3
			c0.3,0.1,0.4,0.5,0.3,0.7l-4.1,8.2C227.6,158,227.4,158.1,227.2,158.1z"/>
		<path class="st9" d="M231.9,156.8c-0.1,0-0.2,0-0.2-0.1c-0.3-0.1-0.4-0.5-0.3-0.7l2.6-5.3c0.1-0.3,0.5-0.4,0.7-0.3
			c0.3,0.1,0.4,0.5,0.3,0.7l-2.6,5.3C232.3,156.7,232.1,156.8,231.9,156.8z"/>
		<path class="st9" d="M235.1,158.4c-0.1,0-0.2,0-0.2-0.1c-0.3-0.1-0.4-0.5-0.3-0.7l2.6-5.3c0.1-0.3,0.5-0.4,0.7-0.3
			c0.3,0.1,0.4,0.5,0.3,0.7l-2.6,5.3C235.5,158.3,235.3,158.4,235.1,158.4z"/>
		<path class="st9" d="M237,162.9c-0.1,0-0.2,0-0.2-0.1c-0.3-0.1-0.4-0.5-0.3-0.7l4.1-8.2c0.1-0.3,0.5-0.4,0.7-0.3
			c0.3,0.1,0.4,0.5,0.3,0.7l-4.1,8.2C237.4,162.8,237.2,162.9,237,162.9z"/>
		<path class="st9" d="M241.7,161.7c-0.1,0-0.2,0-0.2-0.1c-0.3-0.1-0.4-0.5-0.3-0.7l2.6-5.3c0.1-0.3,0.5-0.4,0.7-0.3
			c0.3,0.1,0.4,0.5,0.3,0.7l-2.6,5.3C242.1,161.6,241.9,161.7,241.7,161.7z"/>
		<path class="st9" d="M244.9,163.3c-0.1,0-0.2,0-0.2-0.1c-0.3-0.1-0.4-0.5-0.3-0.7l2.6-5.3c0.1-0.3,0.5-0.4,0.7-0.3
			c0.3,0.1,0.4,0.5,0.3,0.7l-2.6,5.3C245.3,163.2,245.1,163.3,244.9,163.3z"/>
		<path class="st9" d="M246.7,167.8c-0.1,0-0.2,0-0.2-0.1c-0.3-0.1-0.4-0.5-0.3-0.7l4.1-8.2c0.1-0.3,0.5-0.4,0.7-0.3
			c0.3,0.1,0.4,0.5,0.3,0.7l-4.1,8.2C247.1,167.7,246.9,167.8,246.7,167.8z"/>
		<path class="st9" d="M251.4,166.5c-0.1,0-0.2,0-0.2-0.1c-0.3-0.1-0.4-0.5-0.3-0.7l2.6-5.3c0.1-0.3,0.5-0.4,0.7-0.3
			c0.3,0.1,0.4,0.5,0.3,0.7l-2.6,5.3C251.8,166.4,251.6,166.5,251.4,166.5z"/>
		<path class="st9" d="M254.7,168.1c-0.1,0-0.2,0-0.2-0.1c-0.3-0.1-0.4-0.5-0.3-0.7l2.6-5.3c0.1-0.3,0.5-0.4,0.7-0.3
			c0.3,0.1,0.4,0.5,0.3,0.7l-2.6,5.3C255.1,168,254.9,168.1,254.7,168.1z"/>
		<path class="st9" d="M256.5,172.6c-0.1,0-0.2,0-0.2-0.1c-0.3-0.1-0.4-0.5-0.3-0.7l4.1-8.2c0.1-0.3,0.5-0.4,0.7-0.3
			c0.3,0.1,0.4,0.5,0.3,0.7l-4.1,8.2C256.9,172.5,256.7,172.6,256.5,172.6z"/>
		<path class="st9" d="M261.2,171.3c-0.1,0-0.2,0-0.2-0.1c-0.3-0.1-0.4-0.5-0.3-0.7l2.6-5.3c0.1-0.3,0.5-0.4,0.7-0.3
			c0.3,0.1,0.4,0.5,0.3,0.7l-2.6,5.3C261.6,171.2,261.4,171.3,261.2,171.3z"/>
		<path class="st9" d="M264.5,173c-0.1,0-0.2,0-0.2-0.1c-0.3-0.1-0.4-0.5-0.3-0.7l2.6-5.3c0.1-0.3,0.5-0.4,0.7-0.3
			c0.3,0.1,0.4,0.5,0.3,0.7l-2.6,5.3C264.9,172.8,264.7,173,264.5,173z"/>
		<path class="st9" d="M266.3,177.5c-0.1,0-0.2,0-0.2-0.1c-0.3-0.1-0.4-0.5-0.3-0.7l4.1-8.2c0.1-0.3,0.5-0.4,0.7-0.3
			c0.3,0.1,0.4,0.5,0.3,0.7l-4.1,8.2C266.7,177.4,266.5,177.5,266.3,177.5z"/>
		<path class="st9" d="M271,176.2c-0.1,0-0.2,0-0.2-0.1c-0.3-0.1-0.4-0.5-0.3-0.7l2.6-5.3c0.1-0.3,0.5-0.4,0.7-0.3
			c0.3,0.1,0.4,0.5,0.3,0.7l-2.6,5.3C271.4,176.1,271.2,176.2,271,176.2z"/>
		<path class="st9" d="M274.2,177.8c-0.1,0-0.2,0-0.2-0.1c-0.3-0.1-0.4-0.5-0.3-0.7l2.6-5.3c0.1-0.3,0.5-0.4,0.7-0.3
			c0.3,0.1,0.4,0.5,0.3,0.7l-2.6,5.3C274.6,177.7,274.5,177.8,274.2,177.8z"/>
		<path class="st9" d="M276.1,182.3c-0.1,0-0.2,0-0.2-0.1c-0.3-0.1-0.4-0.5-0.3-0.7l4.1-8.2c0.1-0.3,0.5-0.4,0.7-0.3
			c0.3,0.1,0.4,0.5,0.3,0.7l-4.1,8.2C276.5,182.2,276.3,182.3,276.1,182.3z"/>
		<path class="st9" d="M280.8,181c-0.1,0-0.2,0-0.2-0.1c-0.3-0.1-0.4-0.5-0.3-0.7l2.6-5.3c0.1-0.3,0.5-0.4,0.7-0.3
			c0.3,0.1,0.4,0.5,0.3,0.7l-2.6,5.3C281.2,180.9,281,181,280.8,181z"/>
		<path class="st9" d="M284,182.6c-0.1,0-0.2,0-0.2-0.1c-0.3-0.1-0.4-0.5-0.3-0.7l2.6-5.3c0.1-0.3,0.5-0.4,0.7-0.3
			c0.3,0.1,0.4,0.5,0.3,0.7l-2.6,5.3C284.4,182.5,284.2,182.6,284,182.6z"/>
		<path class="st9" d="M285.9,187.1c-0.1,0-0.2,0-0.2-0.1c-0.3-0.1-0.4-0.5-0.3-0.7l4.1-8.2c0.1-0.3,0.5-0.4,0.7-0.3
			c0.3,0.1,0.4,0.5,0.3,0.7l-4.1,8.2C286.3,187,286.1,187.1,285.9,187.1z"/>
		<path class="st9" d="M290.5,185.9c-0.1,0-0.2,0-0.2-0.1c-0.3-0.1-0.4-0.5-0.3-0.7l2.6-5.3c0.1-0.3,0.5-0.4,0.7-0.3
			c0.3,0.1,0.4,0.5,0.3,0.7l-2.6,5.3C290.9,185.8,290.8,185.9,290.5,185.9z"/>
		<path class="st9" d="M293.8,187.5c-0.1,0-0.2,0-0.2-0.1c-0.3-0.1-0.4-0.5-0.3-0.7l2.6-5.3c0.1-0.3,0.5-0.4,0.7-0.3
			c0.3,0.1,0.4,0.5,0.3,0.7l-2.6,5.3C294.2,187.4,294,187.5,293.8,187.5z"/>
		<path class="st9" d="M295.6,192c-0.1,0-0.2,0-0.2-0.1c-0.3-0.1-0.4-0.5-0.3-0.7l4.1-8.2c0.1-0.3,0.5-0.4,0.7-0.3
			c0.3,0.1,0.4,0.5,0.3,0.7l-4.1,8.2C296,191.9,295.8,192,295.6,192z"/>
		<path class="st9" d="M300.3,190.7c-0.1,0-0.2,0-0.2-0.1c-0.3-0.1-0.4-0.5-0.3-0.7l2.6-5.3c0.1-0.3,0.5-0.4,0.7-0.3
			c0.3,0.1,0.4,0.5,0.3,0.7l-2.6,5.3C300.7,190.6,300.5,190.7,300.3,190.7z"/>
		<path class="st9" d="M303.6,192.3c-0.1,0-0.2,0-0.2-0.1c-0.3-0.1-0.4-0.5-0.3-0.7l2.6-5.3c0.1-0.3,0.5-0.4,0.7-0.3
			c0.3,0.1,0.4,0.5,0.3,0.7l-2.6,5.3C304,192.2,303.8,192.3,303.6,192.3z"/>
		<path class="st9" d="M305.4,196.8c-0.1,0-0.2,0-0.2-0.1c-0.3-0.1-0.4-0.5-0.3-0.7l4.1-8.2c0.1-0.3,0.5-0.4,0.7-0.3
			c0.3,0.1,0.4,0.5,0.3,0.7l-4.1,8.2C305.8,196.7,305.6,196.8,305.4,196.8z"/>
		<path class="st9" d="M310.1,195.6c-0.1,0-0.2,0-0.2-0.1c-0.3-0.1-0.4-0.5-0.3-0.7l2.6-5.3c0.1-0.3,0.5-0.4,0.7-0.3
			c0.3,0.1,0.4,0.5,0.3,0.7l-2.6,5.3C310.5,195.4,310.3,195.6,310.1,195.6z"/>
		<path class="st9" d="M313.4,197.2c-0.1,0-0.2,0-0.2-0.1c-0.3-0.1-0.4-0.5-0.3-0.7l2.6-5.3c0.1-0.3,0.5-0.4,0.7-0.3
			c0.3,0.1,0.4,0.5,0.3,0.7l-2.6,5.3C313.8,197.1,313.6,197.2,313.4,197.2z"/>
		<path class="st9" d="M315.2,201.7c-0.1,0-0.2,0-0.2-0.1c-0.3-0.1-0.4-0.5-0.3-0.7l4.1-8.2c0.1-0.3,0.5-0.4,0.7-0.3
			c0.3,0.1,0.4,0.5,0.3,0.7l-4.1,8.2C315.6,201.6,315.4,201.7,315.2,201.7z"/>
		<path class="st9" d="M319.9,200.4c-0.1,0-0.2,0-0.2-0.1c-0.3-0.1-0.4-0.5-0.3-0.7l2.6-5.3c0.1-0.3,0.5-0.4,0.7-0.3
			c0.3,0.1,0.4,0.5,0.3,0.7l-2.6,5.3C320.3,200.3,320.1,200.4,319.9,200.4z"/>
		<path class="st9" d="M323.1,202c-0.1,0-0.2,0-0.2-0.1c-0.3-0.1-0.4-0.5-0.3-0.7l2.6-5.3c0.1-0.3,0.5-0.4,0.7-0.3
			c0.3,0.1,0.4,0.5,0.3,0.7l-2.6,5.3C323.5,201.9,323.4,202,323.1,202z"/>
		<path class="st9" d="M325,206.5c-0.1,0-0.2,0-0.2-0.1c-0.3-0.1-0.4-0.5-0.3-0.7l4.1-8.2c0.1-0.3,0.5-0.4,0.7-0.3
			c0.3,0.1,0.4,0.5,0.3,0.7l-4.1,8.2C325.4,206.4,325.2,206.5,325,206.5z"/>
	</g>
</g>
<g>
	<g>
		<g>
			<path class="st4" d="M83.7,52.7l65.1,33.2c6.4,3.3,9.5,9.9,7,15l-29.6,58.4c-2.5,5-9.8,6.4-16.2,3.2L23,122.3
				c-10.1-4.7-13.5-17.6-6.7-26.5c0.5-0.6,1-1.3,1.5-2C28.7,77.7,75.1,68.8,83.7,52.7z"/>
			<path class="st10" d="M148,99.3l-9,17.7L40.5,67l9-17.7c1.7-3.3,5.7-4.6,9-2.9L145,90.3C148.3,92,149.6,96,148,99.3z"/>
		</g>
		<path class="st7" d="M134.5,165.4l7.8-15.5l9.1,4.6L167,124l-9.1-4.6l7.9-15.5c4.9-9.6,1.1-21.3-8.5-26.1L61,28.8
			c-8.5-4.3-19-0.9-23.4,7.7L4.5,101.8c-4.4,8.6-1,19.1,7.6,23.4l96.2,48.8C117.9,178.9,129.6,175,134.5,165.4z M19.9,116.7
			c-5-2.5-7-8.7-4.5-13.7l29.6-58.4c2.5-5,8.7-7,13.7-4.5l91,46.2c5.8,2.9,8.2,10,5.2,15.9l-28.1,55.4c-2.9,5.8-10.1,8.2-15.9,5.2
			L19.9,116.7z"/>
		<path class="st2" d="M159.7,164.7l-11.4-5.8c-1.1-0.5-1.5-1.9-1-2.9l18.3-36.1c0.5-1.1,1.9-1.5,2.9-1l11.4,5.8
			c1.6,0.8,2.2,2.8,1.4,4.4l-17.3,34.2C163.3,164.8,161.3,165.5,159.7,164.7z"/>
		<path class="st1" d="M176,139.7l-16.2-8.2l5.9-11.6c0.5-1.1,1.9-1.5,2.9-1l11.4,5.8c1.6,0.8,2.2,2.8,1.4,4.4L176,139.7z"/>
		<path class="st1" d="M159.7,164.7l-11.4-5.8c-1.1-0.5-1.5-1.9-1-2.9l1.3-2.5l16.2,8.2l-0.8,1.5
			C163.3,164.8,161.3,165.5,159.7,164.7z"/>
	</g>
	
		<rect x="41.8" y="60.8" transform="matrix(-0.4529 0.8915 -0.8915 -0.4529 214.5113 78.7176)" class="st5" width="82.6" height="88.8"/>
	<g>
		<path class="st11" d="M68.7,72.4c0.4,1,0.5,2,0.3,3.1l-1.9-1c0.1-0.6-0.1-1.1-0.3-1.6c-0.3-0.5-0.7-0.9-1.3-1.2
			c-0.5-0.2-1-0.3-1.5-0.3c-0.5,0-1,0.2-1.4,0.6c-0.4,0.3-0.8,0.8-1.1,1.4C61.1,74,61,74.6,61,75.1c0,0.6,0.1,1,0.4,1.5
			c0.3,0.4,0.6,0.8,1.1,1c0.6,0.3,1.1,0.4,1.7,0.3c0.6-0.1,1.1-0.3,1.5-0.7l1.9,1c-0.8,0.9-1.6,1.4-2.7,1.6c-1,0.2-2.1,0-3.2-0.6
			c-0.9-0.4-1.5-1-2-1.8c-0.5-0.7-0.7-1.5-0.7-2.4c0-0.9,0.2-1.8,0.7-2.7c0.5-0.9,1-1.6,1.8-2.1c0.7-0.5,1.5-0.8,2.4-0.8
			c0.9-0.1,1.7,0.1,2.6,0.6C67.4,70.7,68.2,71.4,68.7,72.4z"/>
		<path class="st11" d="M78.2,76.9c0.5,0.7,0.7,1.6,0.8,2.5s-0.2,1.8-0.6,2.7c-0.5,0.9-1.1,1.6-1.8,2.1c-0.8,0.5-1.6,0.8-2.5,0.8
			c-0.9,0-1.8-0.2-2.6-0.6c-0.8-0.4-1.5-1-2-1.8c-0.5-0.7-0.7-1.6-0.8-2.5c0-0.9,0.2-1.8,0.6-2.7c0.5-0.9,1.1-1.6,1.8-2.1
			c0.8-0.5,1.6-0.8,2.5-0.8c0.9,0,1.8,0.2,2.6,0.6C77,75.6,77.7,76.1,78.2,76.9z M73.8,76.4c-0.5,0-1,0.2-1.5,0.5
			c-0.5,0.3-0.8,0.8-1.1,1.4c-0.3,0.6-0.5,1.2-0.5,1.7c0,0.6,0.1,1.1,0.4,1.5c0.3,0.4,0.7,0.8,1.2,1.1c0.5,0.3,1.1,0.4,1.6,0.4
			c0.5,0,1-0.2,1.5-0.5c0.5-0.3,0.8-0.8,1.1-1.4c0.3-0.6,0.5-1.2,0.5-1.7c0-0.6-0.1-1.1-0.4-1.5c-0.3-0.4-0.7-0.8-1.2-1.1
			C74.8,76.5,74.3,76.4,73.8,76.4z"/>
		<path class="st11" d="M83.3,78.9L82,87.3l6.1-5.9l1.9,1l-7.8,7.4l-2.3-1.2l1.4-10.7L83.3,78.9z"/>
		<path class="st11" d="M92.8,83.8l-4.6,9l-1.8-0.9l4.6-9L92.8,83.8z"/>
		<path class="st11" d="M98.3,95.3c-0.7,0.5-1.5,0.7-2.4,0.8c-0.9,0-1.8-0.2-2.8-0.7l-3.2-1.6l4.6-9l3.2,1.6c1,0.5,1.7,1.1,2.3,1.9
			c0.5,0.7,0.8,1.5,0.8,2.4c0,0.9-0.2,1.8-0.7,2.7C99.6,94.1,99,94.8,98.3,95.3z M96.3,94c0.8-0.2,1.4-0.8,1.9-1.7
			c0.5-0.9,0.6-1.8,0.3-2.6c-0.3-0.8-0.9-1.4-1.9-1.9l-1.3-0.6l-3,5.8l1.3,0.6C94.7,94.1,95.5,94.3,96.3,94z"/>
		<path class="st11" d="M109.2,96.9l-0.8,1.5l-5.4-2.8l0.8-1.5L109.2,96.9z"/>
		<path class="st11" d="M114.4,97.1l0.9-1.7l3.2,1.7l-4.6,9l-1.9-1l3.8-7.3L114.4,97.1z"/>
		<path class="st11" d="M119.3,107.1c0.6,0.3,1.2,0.3,1.7-0.1c0.5-0.4,1.1-1.1,1.6-2.3c-0.3,0.3-0.8,0.5-1.3,0.6
			c-0.5,0-1-0.1-1.6-0.3c-0.9-0.4-1.4-1.1-1.6-1.8c-0.2-0.8-0.1-1.7,0.4-2.6c0.3-0.6,0.7-1.1,1.2-1.4c0.5-0.3,1-0.5,1.6-0.5
			c0.6,0,1.2,0.1,1.9,0.5c1.3,0.7,2,1.5,2.1,2.6c0.1,1.1-0.2,2.3-1,3.7c-0.8,1.6-1.7,2.7-2.6,3.3c-0.9,0.6-2,0.6-3.1,0
			c-0.6-0.3-1.1-0.7-1.4-1.2c-0.3-0.5-0.5-1-0.5-1.5c0-0.5,0.1-1.1,0.3-1.6l1.7,0.9C118.3,106,118.5,106.7,119.3,107.1z
			 M123.5,101.7c-0.1-0.5-0.4-0.8-1-1.1c-0.5-0.2-0.9-0.3-1.3-0.2c-0.4,0.1-0.7,0.4-1,0.9c-0.3,0.5-0.3,1-0.2,1.4
			c0.1,0.4,0.4,0.7,0.9,1c0.4,0.2,0.9,0.3,1.3,0.2c0.5-0.1,0.8-0.4,1-0.9C123.5,102.6,123.6,102.2,123.5,101.7z"/>
	</g>
	<g>
		<g>
			<path class="st6" d="M55.4,90.6c0.2,0.5,0.3,1.1,0.2,1.7L54.9,92c0-0.4,0-0.8-0.2-1.1c-0.2-0.3-0.5-0.6-0.9-0.8
				c-0.3-0.2-0.7-0.2-1-0.2c-0.3,0-0.7,0.2-1,0.4c-0.3,0.2-0.6,0.5-0.8,0.9c-0.2,0.4-0.3,0.8-0.3,1.2c0,0.4,0.1,0.7,0.3,1
				c0.2,0.3,0.4,0.5,0.8,0.7c0.4,0.2,0.8,0.3,1.2,0.2c0.4-0.1,0.7-0.2,1-0.5l0.7,0.4c-0.4,0.5-0.9,0.7-1.5,0.8
				c-0.6,0.1-1.2,0-1.8-0.3c-0.5-0.2-0.8-0.6-1.1-1c-0.3-0.4-0.4-0.9-0.4-1.4c0-0.5,0.1-1,0.4-1.5c0.3-0.5,0.6-0.9,1-1.2
				c0.4-0.3,0.9-0.5,1.3-0.5c0.5,0,1,0.1,1.4,0.3C54.7,89.7,55.1,90.1,55.4,90.6z"/>
			<path class="st6" d="M60.8,93.2c0.3,0.4,0.4,0.9,0.4,1.4c0,0.5-0.1,1-0.4,1.5c-0.3,0.5-0.6,0.9-1,1.2c-0.4,0.3-0.9,0.4-1.4,0.5
				c-0.5,0-1-0.1-1.4-0.3c-0.5-0.2-0.8-0.6-1.1-1c-0.3-0.4-0.4-0.9-0.4-1.4c0-0.5,0.1-1,0.4-1.5s0.6-0.9,1-1.2
				c0.4-0.3,0.9-0.4,1.4-0.5c0.5,0,1,0.1,1.5,0.3S60.5,92.8,60.8,93.2z M58.3,92.6c-0.4,0-0.7,0.1-1,0.4c-0.3,0.2-0.6,0.5-0.8,0.9
				c-0.2,0.4-0.3,0.8-0.3,1.2c0,0.4,0.1,0.7,0.3,1c0.2,0.3,0.5,0.5,0.8,0.7c0.3,0.2,0.7,0.3,1.1,0.2c0.4,0,0.7-0.1,1-0.4
				c0.3-0.2,0.6-0.5,0.8-0.9c0.2-0.4,0.3-0.8,0.3-1.2c0-0.4-0.1-0.7-0.3-1c-0.2-0.3-0.5-0.5-0.8-0.7C59,92.7,58.7,92.6,58.3,92.6z"
				/>
			<path class="st6" d="M63.1,100.5l-0.3-2.8l-0.7-0.4l-1.1,2.1l-0.7-0.3L63,94l1.7,0.9c0.6,0.3,0.9,0.7,1.1,1.1
				c0.1,0.4,0.1,0.9-0.1,1.3c-0.2,0.4-0.5,0.7-0.9,0.8s-0.8,0.1-1.2,0l0.3,2.8L63.1,100.5z M62.4,96.9l1,0.5
				c0.7,0.4,1.3,0.2,1.6-0.4c0.3-0.7,0.1-1.2-0.6-1.6l-1-0.5L62.4,96.9z"/>
			<path class="st6" d="M70.7,98.3c0.3,0.4,0.4,0.9,0.4,1.4c0,0.5-0.1,1-0.4,1.5s-0.6,0.9-1,1.2c-0.4,0.3-0.9,0.4-1.4,0.5
				c-0.5,0-1-0.1-1.4-0.3c-0.5-0.2-0.8-0.6-1.1-1c-0.3-0.4-0.4-0.9-0.4-1.4c0-0.5,0.1-1,0.4-1.5s0.6-0.9,1-1.2
				c0.4-0.3,0.9-0.4,1.4-0.5c0.5,0,1,0.1,1.5,0.3C70.1,97.6,70.5,97.9,70.7,98.3z M68.2,97.7c-0.4,0-0.7,0.1-1,0.4
				c-0.3,0.2-0.6,0.5-0.8,0.9c-0.2,0.4-0.3,0.8-0.3,1.2c0,0.4,0.1,0.7,0.3,1c0.2,0.3,0.5,0.5,0.8,0.7c0.3,0.2,0.7,0.3,1.1,0.2
				c0.4,0,0.7-0.1,1-0.4c0.3-0.2,0.6-0.5,0.8-0.9c0.2-0.4,0.3-0.8,0.3-1.2c0-0.4-0.1-0.7-0.3-1c-0.2-0.3-0.5-0.5-0.8-0.7
				C68.9,97.8,68.6,97.7,68.2,97.7z"/>
			<path class="st6" d="M74.3,106.3l-0.7-0.3l-0.6-5.4l-2.1,4l-0.7-0.3l2.6-5.1l0.7,0.3l0.6,5.4l2.1-4l0.7,0.3L74.3,106.3z"/>
			<path class="st6" d="M79,107.2l-2.2-1.2l-1,1l-0.7-0.4l4.5-4l0.7,0.4l-0.7,6l-0.7-0.4L79,107.2z M79,106.6l0.4-3.1l-2.3,2.1
				L79,106.6z"/>
			<path class="st6" d="M83.1,104.4l-0.7,5.2l3.8-3.6l0.7,0.4l-4.5,4.1l-0.8-0.4l0.8-6.1L83.1,104.4z"/>
			<path class="st6" d="M88.3,107l-2.6,5.1l-0.7-0.3l2.6-5.1L88.3,107z"/>
			<path class="st6" d="M89.4,114.1l-0.3-2.8l-0.7-0.4l-1.1,2.1l-0.7-0.3l2.6-5.1l1.7,0.9c0.6,0.3,0.9,0.7,1.1,1.1
				c0.1,0.4,0.1,0.9-0.1,1.3c-0.2,0.4-0.5,0.7-0.9,0.8c-0.4,0.1-0.8,0.1-1.2,0l0.3,2.8L89.4,114.1z M88.7,110.4l1,0.5
				c0.7,0.4,1.3,0.2,1.6-0.4c0.3-0.7,0.1-1.2-0.6-1.6l-1-0.5L88.7,110.4z"/>
			<path class="st6" d="M94.2,110l-1.6,3.1c-0.3,0.5-0.3,0.9-0.2,1.3c0.1,0.4,0.3,0.6,0.7,0.8c0.4,0.2,0.8,0.2,1.1,0.1
				c0.3-0.1,0.6-0.4,0.9-0.9l1.6-3.1l0.7,0.3l-1.6,3.1c-0.4,0.7-0.8,1.1-1.3,1.3c-0.5,0.2-1.1,0.1-1.7-0.2c-0.6-0.3-0.9-0.7-1.1-1.2
				c-0.2-0.5-0.1-1.1,0.3-1.8l1.6-3.1L94.2,110z"/>
			<path class="st6" d="M99.1,118.2c-0.2,0.1-0.5,0.2-0.8,0.2c-0.3,0-0.6-0.1-1-0.3c-0.3-0.2-0.6-0.4-0.8-0.6
				c-0.2-0.3-0.3-0.5-0.4-0.8c0-0.3,0-0.6,0.1-0.9l0.7,0.4c-0.1,0.2-0.1,0.3-0.1,0.5c0,0.2,0.1,0.4,0.2,0.5c0.1,0.2,0.3,0.3,0.5,0.4
				c0.3,0.1,0.6,0.2,0.8,0.1s0.4-0.2,0.5-0.5c0.1-0.2,0.1-0.4,0.1-0.6c0-0.2-0.1-0.4-0.2-0.5c-0.1-0.2-0.3-0.3-0.5-0.6
				c-0.3-0.3-0.5-0.5-0.6-0.7c-0.1-0.2-0.2-0.4-0.3-0.7c0-0.3,0-0.5,0.2-0.9c0.1-0.3,0.3-0.5,0.6-0.6c0.2-0.1,0.5-0.2,0.8-0.2
				c0.3,0,0.6,0.1,0.9,0.3c0.5,0.3,0.8,0.6,1,1c0.2,0.4,0.2,0.8,0,1.2l-0.7-0.4c0.1-0.2,0.1-0.5,0-0.7c-0.1-0.2-0.3-0.4-0.6-0.6
				c-0.3-0.1-0.5-0.2-0.7-0.1c-0.2,0.1-0.4,0.2-0.5,0.5c-0.1,0.2-0.1,0.4-0.1,0.6c0,0.2,0.1,0.3,0.2,0.5c0.1,0.1,0.3,0.3,0.5,0.6
				c0.3,0.3,0.5,0.5,0.6,0.7c0.1,0.2,0.2,0.4,0.3,0.7c0,0.3,0,0.6-0.2,0.9C99.5,117.9,99.3,118.1,99.1,118.2z"/>
		</g>
	</g>
	<g>
		<g>
			<path class="st6" d="M48,98l-1.2,8.6l6.4-5.9l1.2,0.6l-7.5,6.9l-1.4-0.7l1.3-10.1L48,98z"/>
			<path class="st6" d="M57.1,111l-3.7-1.9l-1.7,1.6l-1.2-0.6l7.5-6.7l1.2,0.6L58,114l-1.2-0.6L57.1,111z M57.3,110l0.7-5.1
				l-3.8,3.5L57.3,110z"/>
			<path class="st6" d="M69.5,110c0.4,0.9,0.5,1.8,0.3,2.8l-1.2-0.6c0.1-0.7,0-1.3-0.4-1.9c-0.3-0.6-0.8-1.1-1.5-1.4
				c-0.6-0.3-1.1-0.4-1.7-0.4s-1.1,0.3-1.6,0.6c-0.5,0.4-0.9,0.9-1.3,1.6c-0.3,0.7-0.5,1.3-0.5,1.9c0,0.6,0.1,1.2,0.4,1.7
				c0.3,0.5,0.7,0.9,1.3,1.2c0.7,0.4,1.4,0.5,2,0.4c0.7-0.1,1.2-0.4,1.7-0.8l1.2,0.6c-0.7,0.8-1.5,1.2-2.5,1.4c-0.9,0.2-1.9,0-3-0.6
				c-0.8-0.4-1.4-1-1.8-1.6c-0.4-0.7-0.6-1.4-0.6-2.3c0-0.8,0.2-1.7,0.6-2.5c0.4-0.8,1-1.5,1.7-2c0.7-0.5,1.4-0.8,2.2-0.8
				c0.8-0.1,1.6,0.1,2.4,0.5C68.4,108.4,69.1,109.1,69.5,110z"/>
			<path class="st6" d="M78.7,114.7c0.4,0.9,0.5,1.8,0.3,2.8l-1.2-0.6c0.1-0.7,0-1.3-0.4-1.9c-0.3-0.6-0.8-1.1-1.5-1.4
				c-0.6-0.3-1.1-0.4-1.7-0.4c-0.6,0-1.1,0.3-1.6,0.6c-0.5,0.4-0.9,0.9-1.3,1.6c-0.3,0.7-0.5,1.3-0.5,1.9c0,0.6,0.1,1.2,0.4,1.7
				c0.3,0.5,0.7,0.9,1.3,1.2c0.7,0.4,1.4,0.5,2,0.4c0.7-0.1,1.2-0.4,1.7-0.8l1.2,0.6c-0.7,0.8-1.5,1.2-2.5,1.4c-0.9,0.2-1.9,0-3-0.6
				c-0.8-0.4-1.4-1-1.8-1.6c-0.4-0.7-0.6-1.4-0.6-2.3c0-0.8,0.2-1.7,0.6-2.5c0.4-0.8,1-1.5,1.7-2c0.7-0.5,1.4-0.8,2.2-0.8
				c0.8-0.1,1.6,0.1,2.4,0.5C77.6,113.1,78.3,113.8,78.7,114.7z"/>
			<path class="st6" d="M83.1,116.1l-4.4,8.5l-1.1-0.6l4.4-8.5L83.1,116.1z"/>
			<path class="st6" d="M87.1,128.9l-1.1-0.6l-1-9l-3.5,6.7l-1.1-0.6l4.4-8.5l1.1,0.6l1,9l3.5-6.7l1.1,0.6L87.1,128.9z"/>
			<path class="st6" d="M93.9,122.7l-1.5,2.9l3.2,1.7l-0.4,0.8l-3.2-1.7l-1.5,3l3.6,1.9l-0.5,0.9l-4.7-2.4l4.4-8.5l4.7,2.4l-0.5,0.9
				L93.9,122.7z"/>
		</g>
	</g>
	<rect x="79.4" y="67.7" transform="matrix(0.4569 -0.8895 0.8895 0.4569 -41.1967 122.5637)" width="0.7" height="54.7"/>
</g>
<g>
	<g>
		<circle class="st5" cx="370.2" cy="64" r="36.7"/>
		<path class="st11" d="M370.2,101.5c-20.7,0-37.5-16.8-37.5-37.5s16.8-37.5,37.5-37.5s37.5,16.8,37.5,37.5S390.9,101.5,370.2,101.5
			z M370.2,28c-19.9,0-36,16.2-36,36s16.2,36,36,36s36-16.2,36-36S390.1,28,370.2,28z"/>
	</g>
	<path class="st4" d="M395.9,70.3c-0.2-0.1-0.5,0-0.7,0.3c-0.5,0.5-1.2,0.8-1.9,0.6c-1.8-0.5-4.6-1.5-7.1-3.1
		c-1.2-0.8-2-2.2-1.9-3.7c0-0.1,0-0.1,0-0.2c1.3-0.2,2.6-0.2,3.6-0.2c0.5,0,0.9,0.3,1.2,0.8c0.1,0.2,0.2,0.3,0.4,0.3
		c0.7,0,0.6-2,0.6-2s-0.1-2-0.8-2c-0.2,0-0.3,0.2-0.4,0.4c-0.2,0.5-0.6,0.8-1.1,0.9c-0.9,0.1-2.2,0.2-3.6,0.1c0-0.1,0-0.1,0-0.2
		c-0.2-1.5,0.5-3,1.7-4c2.2-1.8,4.9-3,6.6-3.7c0.7-0.3,1.4-0.1,1.9,0.4c0.2,0.2,0.5,0.3,0.7,0.2c0.8-0.4-0.3-2.9-0.3-2.9
		s-1.2-2.5-2-2.1c-0.2,0.1-0.3,0.4-0.3,0.7c0,0.7-0.3,1.4-0.9,1.7c-1.6,0.9-4.2,2.2-7,2.8c-1.5,0.3-3.1-0.1-4.1-1.2
		c0,0-0.1-0.1-0.1-0.1c0.8-1.1,1.7-2,2.4-2.7c0.4-0.4,0.9-0.4,1.4-0.3c0.2,0.1,0.4,0.1,0.5-0.1c0.4-0.5-1-1.8-1-1.8
		s-1.5-1.3-1.9-0.8c-0.1,0.1-0.1,0.3,0,0.5c0.2,0.5,0.2,1-0.1,1.4c-0.6,0.7-1.4,1.7-2.4,2.6c-0.1,0-0.1-0.1-0.2-0.1
		c-1.2-0.9-1.8-2.4-1.6-3.8c0.3-2.9,1.3-5.7,2.1-7.4c0.3-0.6,0.9-1,1.6-1.1c0.3,0,0.6-0.1,0.6-0.4c0.3-0.8-2.3-1.8-2.3-1.8
		s-2.6-0.9-2.9-0.1c-0.1,0.2,0,0.5,0.3,0.7c0.5,0.5,0.8,1.2,0.6,1.9c-0.5,1.8-1.5,4.6-3.1,7.1c-0.8,1.2-2.2,2-3.7,1.9
		c-0.1,0-0.1,0-0.2,0c-0.2-1.3-0.2-2.6-0.2-3.6c0-0.5,0.3-0.9,0.8-1.2c0.2-0.1,0.3-0.2,0.3-0.4c0-0.7-2-0.6-2-0.6s-2,0.1-2,0.8
		c0,0.2,0.2,0.3,0.4,0.4c0.5,0.2,0.8,0.6,0.9,1.1c0.1,0.9,0.2,2.2,0.1,3.6c-0.1,0-0.1,0-0.2,0c-1.5,0.2-3-0.5-4-1.7
		c-1.8-2.2-3-4.9-3.7-6.6c-0.3-0.7-0.1-1.4,0.4-1.9c0.2-0.2,0.3-0.5,0.2-0.7c-0.4-0.8-2.9,0.3-2.9,0.3s-2.5,1.2-2.1,2
		c0.1,0.2,0.4,0.3,0.7,0.3c0.7,0,1.4,0.3,1.7,0.9c0.9,1.6,2.2,4.2,2.8,7c0.3,1.5-0.1,3.1-1.2,4.1c0,0-0.1,0.1-0.1,0.1
		c-1.1-0.8-2-1.7-2.7-2.4c-0.4-0.4-0.4-0.9-0.3-1.4c0.1-0.2,0.1-0.4-0.1-0.5c-0.5-0.4-1.8,1-1.8,1s-1.3,1.5-0.8,1.9
		c0.1,0.1,0.3,0.1,0.5,0c0.5-0.2,1-0.2,1.4,0.1c0.7,0.6,1.7,1.4,2.6,2.4c0,0.1-0.1,0.1-0.1,0.2c-0.9,1.2-2.4,1.8-3.8,1.6
		c-2.9-0.3-5.7-1.3-7.4-2.1c-0.6-0.3-1-0.9-1.1-1.6c0-0.3-0.1-0.6-0.4-0.6c-0.8-0.3-1.8,2.3-1.8,2.3s-0.9,2.6-0.1,2.9
		c0.2,0.1,0.5,0,0.7-0.3c0.5-0.5,1.2-0.8,1.9-0.6c1.8,0.5,4.6,1.5,7.1,3.1c1.2,0.8,2,2.2,1.9,3.7c0,0.1,0,0.1,0,0.2
		c-1.3,0.2-2.6,0.2-3.6,0.2c-0.5,0-0.9-0.3-1.2-0.8c-0.1-0.2-0.2-0.3-0.4-0.3c-0.7,0-0.6,2-0.6,2s0.1,2,0.8,2c0.2,0,0.3-0.2,0.4-0.4
		c0.2-0.5,0.6-0.8,1.1-0.9c0.9-0.1,2.2-0.2,3.6-0.1c0,0.1,0,0.1,0,0.2c0.2,1.5-0.5,3-1.7,4c-2.2,1.8-4.9,3-6.6,3.7
		c-0.7,0.3-1.4,0.1-1.9-0.4c-0.2-0.2-0.5-0.3-0.7-0.2c-0.8,0.4,0.3,2.9,0.3,2.9s1.2,2.5,2,2.1c0.2-0.1,0.3-0.4,0.3-0.7
		c0-0.7,0.3-1.4,0.9-1.7c1.6-0.9,4.2-2.2,7-2.8c1.5-0.3,3.1,0.1,4.1,1.2c0,0,0.1,0.1,0.1,0.1c-0.8,1.1-1.7,2-2.4,2.7
		c-0.4,0.4-0.9,0.4-1.4,0.3c-0.2-0.1-0.4-0.1-0.5,0.1c-0.4,0.5,1,1.8,1,1.8s1.5,1.3,1.9,0.8c0.1-0.1,0.1-0.3,0-0.5
		c-0.2-0.5-0.2-1,0.1-1.4c0.6-0.7,1.4-1.7,2.4-2.6c0.1,0,0.1,0.1,0.2,0.1c1.2,0.9,1.8,2.4,1.6,3.8c-0.3,2.9-1.3,5.7-2.1,7.4
		c-0.3,0.6-0.9,1-1.6,1.1c-0.3,0-0.6,0.1-0.6,0.4c-0.3,0.8,2.3,1.8,2.3,1.8s2.6,0.9,2.9,0.1c0.1-0.2,0-0.5-0.3-0.7
		c-0.5-0.5-0.8-1.2-0.6-1.9c0.5-1.8,1.5-4.6,3.1-7.1c0.8-1.2,2.2-2,3.7-1.9c0.1,0,0.1,0,0.2,0c0.2,1.3,0.2,2.6,0.2,3.6
		c0,0.5-0.3,0.9-0.8,1.2c-0.2,0.1-0.3,0.2-0.3,0.4c0,0.7,2,0.6,2,0.6s2-0.1,2-0.8c0-0.2-0.2-0.3-0.4-0.4c-0.5-0.2-0.8-0.6-0.9-1.1
		c-0.1-0.9-0.2-2.2-0.1-3.6c0.1,0,0.1,0,0.2,0c1.5-0.2,3,0.5,4,1.7c1.8,2.2,3,4.9,3.7,6.6c0.3,0.7,0.1,1.4-0.4,1.9
		c-0.2,0.2-0.3,0.5-0.2,0.7c0.4,0.8,2.9-0.3,2.9-0.3s2.5-1.2,2.1-2c-0.1-0.2-0.4-0.3-0.7-0.3c-0.7,0-1.4-0.3-1.7-0.9
		c-0.9-1.6-2.2-4.2-2.8-7c-0.3-1.5,0.1-3.1,1.2-4.1c0,0,0.1-0.1,0.1-0.1c1.1,0.8,2,1.7,2.7,2.4c0.4,0.4,0.4,0.9,0.3,1.4
		c-0.1,0.2-0.1,0.4,0.1,0.5c0.5,0.4,1.8-1,1.8-1s1.3-1.5,0.8-1.9c-0.1-0.1-0.3-0.1-0.5,0c-0.5,0.2-1,0.2-1.4-0.1
		c-0.7-0.6-1.7-1.4-2.6-2.4c0-0.1,0.1-0.1,0.1-0.2c0.9-1.2,2.4-1.8,3.8-1.6c2.9,0.3,5.7,1.3,7.4,2.1c0.6,0.3,1,0.9,1.1,1.6
		c0,0.3,0.1,0.6,0.4,0.6c0.8,0.3,1.8-2.3,1.8-2.3S396.8,70.6,395.9,70.3z"/>
	<rect x="326.8" y="3.4" transform="matrix(0.6753 -0.7376 0.7376 0.6753 88.0141 249.4667)" class="st5" width="1" height="42.8"/>
	<path class="st5" d="M314.3,10.3c0,1.5-1.2,2.7-2.7,2.7c-1.5,0-2.7-1.2-2.7-2.7s1.2-2.7,2.7-2.7C313,7.6,314.3,8.8,314.3,10.3z"/>
	<circle class="st5" cx="388.8" cy="13.9" r="2.7"/>
	<circle class="st5" cx="341.9" cy="106.4" r="2.7"/>
	<g>
		<path class="st5" d="M301.9,5.5H278c-0.5,0-0.9-0.4-0.9-0.9V3.5c0-0.5,0.4-0.9,0.9-0.9h23.9c0.5,0,0.9,0.4,0.9,0.9v1.2
			C302.8,5.1,302.4,5.5,301.9,5.5z"/>
		<path class="st5" d="M301.9,9.7H278c-0.5,0-0.9-0.4-0.9-0.9V7.6c0-0.5,0.4-0.9,0.9-0.9h23.9c0.5,0,0.9,0.4,0.9,0.9v1.2
			C302.8,9.3,302.4,9.7,301.9,9.7z"/>
		<path class="st5" d="M301.9,13.9H278c-0.5,0-0.9-0.4-0.9-0.9v-1.2c0-0.5,0.4-0.9,0.9-0.9h23.9c0.5,0,0.9,0.4,0.9,0.9V13
			C302.8,13.5,302.4,13.9,301.9,13.9z"/>
		<path class="st5" d="M294,18.1h-16.1c-0.4,0-0.7-0.3-0.7-0.7v-1.5c0-0.4,0.3-0.7,0.7-0.7H294c0.4,0,0.7,0.3,0.7,0.7v1.5
			C294.7,17.8,294.4,18.1,294,18.1z"/>
	</g>
	<g>
		<path class="st5" d="M353.9,116.2h-23.9c-0.5,0-0.9-0.4-0.9-0.9v-1.2c0-0.5,0.4-0.9,0.9-0.9h23.9c0.5,0,0.9,0.4,0.9,0.9v1.2
			C354.8,115.8,354.4,116.2,353.9,116.2z"/>
		<path class="st5" d="M353.9,120.4h-23.9c-0.5,0-0.9-0.4-0.9-0.9v-1.2c0-0.5,0.4-0.9,0.9-0.9h23.9c0.5,0,0.9,0.4,0.9,0.9v1.2
			C354.8,120,354.4,120.4,353.9,120.4z"/>
		<path class="st5" d="M353.9,124.6h-23.9c-0.5,0-0.9-0.4-0.9-0.9v-1.2c0-0.5,0.4-0.9,0.9-0.9h23.9c0.5,0,0.9,0.4,0.9,0.9v1.2
			C354.8,124.2,354.4,124.6,353.9,124.6z"/>
		<path class="st5" d="M345.9,128.8h-16.1c-0.4,0-0.7-0.3-0.7-0.7v-1.5c0-0.4,0.3-0.7,0.7-0.7h16.1c0.4,0,0.7,0.3,0.7,0.7v1.5
			C346.7,128.4,346.3,128.8,345.9,128.8z"/>
	</g>
	<g>
		<path class="st5" d="M419.7,9.1h-23.9c-0.5,0-0.9-0.4-0.9-0.9V7c0-0.5,0.4-0.9,0.9-0.9h23.9c0.5,0,0.9,0.4,0.9,0.9v1.2
			C420.6,8.7,420.2,9.1,419.7,9.1z"/>
		<path class="st5" d="M419.7,13.3h-23.9c-0.5,0-0.9-0.4-0.9-0.9v-1.2c0-0.5,0.4-0.9,0.9-0.9h23.9c0.5,0,0.9,0.4,0.9,0.9v1.2
			C420.6,12.9,420.2,13.3,419.7,13.3z"/>
		<path class="st5" d="M419.7,17.5h-23.9c-0.5,0-0.9-0.4-0.9-0.9v-1.2c0-0.5,0.4-0.9,0.9-0.9h23.9c0.5,0,0.9,0.4,0.9,0.9v1.2
			C420.6,17.1,420.2,17.5,419.7,17.5z"/>
		<path class="st5" d="M411.7,21.7h-16.1c-0.4,0-0.7-0.3-0.7-0.7v-1.5c0-0.4,0.3-0.7,0.7-0.7h16.1c0.4,0,0.7,0.3,0.7,0.7v1.5
			C412.5,21.4,412.1,21.7,411.7,21.7z"/>
	</g>
	<rect x="338.8" y="100" transform="matrix(0.5556 -0.8314 0.8314 0.5556 70.1372 332.2)" class="st5" width="14.2" height="1"/>
	
		<rect x="377.5" y="21.2" transform="matrix(0.3469 -0.9379 0.9379 0.3469 231.6064 376.089)" class="st5" width="16.7" height="1"/>
	<g>
		<line class="st5" x1="344.2" y1="90.1" x2="395.7" y2="37.4"/>
		
			<rect x="333.1" y="63.1" transform="matrix(0.6985 -0.7156 0.7156 0.6985 65.8811 283.9553)" class="st11" width="73.7" height="1.5"/>
	</g>
</g>
<circle class="st12" cx="302.7" cy="167.2" r="3.3"/>
<path class="st13" d="M273.9,245.2c0,1.2-1,2.3-2.3,2.3c-1.2,0-2.3-1-2.3-2.3c0-1.2,1-2.3,2.3-2.3C272.9,243,273.9,244,273.9,245.2z
	"/>
<circle class="st13" cx="13.4" cy="43.8" r="3.8"/>
<path class="st12" d="M336.2,259.5c0,1.8-1.4,3.2-3.2,3.2c-1.8,0-3.2-1.4-3.2-3.2c0-1.8,1.4-3.2,3.2-3.2
	C334.8,256.3,336.2,257.7,336.2,259.5z"/>
<path class="st14" d="M96.2,28.5c0,1.8-1.4,3.2-3.2,3.2c-1.8,0-3.2-1.4-3.2-3.2c0-1.8,1.4-3.2,3.2-3.2
	C94.7,25.2,96.2,26.7,96.2,28.5z"/>
<path class="st14" d="M124.9,214.3c0,1.1-0.9,2-2,2c-1.1,0-2-0.9-2-2s0.9-2,2-2C124,212.3,124.9,213.2,124.9,214.3z"/>
<path class="st14" d="M209.8,262.6c0,1.1-0.9,2-2,2c-1.1,0-2-0.9-2-2c0-1.1,0.9-2,2-2C208.9,260.6,209.8,261.5,209.8,262.6z"/>
<path class="st15" d="M354.5,199.4c0,1.8-1.4,3.2-3.2,3.2s-3.2-1.4-3.2-3.2c0-1.8,1.4-3.2,3.2-3.2S354.5,197.6,354.5,199.4z"/>
<path class="st15" d="M284.7,126c0,1.8-1.4,3.2-3.2,3.2s-3.2-1.4-3.2-3.2c0-1.8,1.4-3.2,3.2-3.2S284.7,124.2,284.7,126z"/>
<circle class="st15" cx="47.3" cy="175.7" r="2"/>
<circle class="st15" cx="300" cy="93.8" r="2"/>
<circle class="st15" cx="221.5" cy="226" r="2"/>
<path class="st15" d="M147.2,179.9c0,1.5-1.2,2.7-2.7,2.7c-1.5,0-2.7-1.2-2.7-2.7c0-1.5,1.2-2.7,2.7-2.7
	C145.9,177.2,147.2,178.4,147.2,179.9z"/>
<path class="st15" d="M88.1,204.4c0,1.5-1.2,2.7-2.7,2.7c-1.5,0-2.7-1.2-2.7-2.7c0-1.5,1.2-2.7,2.7-2.7
	C86.9,201.6,88.1,202.8,88.1,204.4z"/>
<path class="st15" d="M155.4,44.5c0,1.5-1.2,2.7-2.7,2.7c-1.5,0-2.7-1.2-2.7-2.7s1.2-2.7,2.7-2.7C154.2,41.8,155.4,43,155.4,44.5z"
	/>
<path class="st16" d="M163.3,188c0,2.6-2.1,4.8-4.8,4.8c-2.6,0-4.8-2.1-4.8-4.8c0-2.6,2.1-4.8,4.8-4.8
	C161.2,183.2,163.3,185.3,163.3,188z"/>
<path class="st16" d="M368.6,151.4c0,2.6-2.1,4.8-4.8,4.8c-2.6,0-4.8-2.1-4.8-4.8c0-2.6,2.1-4.8,4.8-4.8
	C366.5,146.6,368.6,148.7,368.6,151.4z"/>
<path class="st16" d="M265.2,77.7c0,2.6-2.1,4.8-4.8,4.8c-2.6,0-4.8-2.1-4.8-4.8c0-2.6,2.1-4.8,4.8-4.8
	C263,72.9,265.2,75.1,265.2,77.7z"/>
<g>
	<path class="st5" d="M235.4,109.9L235.4,109.9l-0.1,0.1c-4.8,2.6-8.5,6.8-10.4,11.9l-1.1,2.9l-1.1-2.9c-1.9-5.1-5.6-9.3-10.4-11.9
		l-0.1-0.1h0c4.8-2.6,8.6-7,10.5-12.1l1.1-3.1l1.1,3.1C226.8,102.9,230.5,107.2,235.4,109.9z"/>
	<path class="st5" d="M219.1,126.5L219.1,126.5L219.1,126.5c-2.4,1.3-4.2,3.4-5.1,5.9l-0.5,1.4l-0.5-1.4c-0.9-2.5-2.8-4.6-5.1-5.8
		l-0.1,0l0,0c2.4-1.3,4.2-3.4,5.1-5.9l0.6-1.5l0.6,1.5C214.9,123.1,216.7,125.2,219.1,126.5z"/>
	<path class="st5" d="M189.2,188.7L189.2,188.7L189.2,188.7c-3.6,1.9-6.2,5-7.6,8.7l-0.8,2.1l-0.8-2.1c-1.4-3.7-4.1-6.8-7.6-8.7
		l-0.1,0v0c3.5-1.9,6.2-5.1,7.6-8.8l0.8-2.3l0.8,2.3C183,183.6,185.7,186.7,189.2,188.7z"/>
</g>
<g>
	<g>
		<circle class="st17" cx="226.6" cy="18.9" r="18.9"/>
		<g>
			<rect x="222.9" y="6.1" class="st2" width="7.5" height="25.6"/>
			<rect x="213.8" y="15.2" class="st2" width="25.6" height="7.5"/>
		</g>
	</g>
	<g>
		<circle class="st17" cx="301.6" cy="283.7" r="17.8"/>
		<g>
			<rect x="298.1" y="271.7" class="st2" width="7" height="24.1"/>
			<rect x="289.6" y="280.2" class="st2" width="24.1" height="7"/>
		</g>
	</g>
	<g>
		<circle class="st17" cx="16.1" cy="170.4" r="16.1"/>
		<g>
			<rect x="12.9" y="159.5" class="st2" width="6.4" height="21.8"/>
			<rect x="5.2" y="167.2" class="st2" width="21.8" height="6.4"/>
		</g>
	</g>
</g>
<g>
	<g>
		<path class="st18" d="M145.8,249.1l12.4-23.2l16,22L145.8,249.1z M158.4,227.8L147.6,248l24.6-1L158.4,227.8z"/>
		<g>
			<path class="st18" d="M169.7,253.1c-3.2-1.9-4.1-6.1-2.2-9.2c1.9-3.2,6.1-4.1,9.2-2.2c3.2,1.9,4.1,6.1,2.2,9.2
				C177,254.1,172.9,255.1,169.7,253.1z"/>
			<path class="st5" d="M172.5,252c-1.2-0.7-1.6-2.3-0.8-3.5c0.7-1.2,2.3-1.6,3.5-0.8c1.2,0.7,1.6,2.3,0.8,3.5
				C175.3,252.4,173.7,252.8,172.5,252z"/>
		</g>
		<g>
			<path class="st18" d="M155.5,231.5c-2.6-1.6-3.4-4.9-1.8-7.5c1.6-2.6,4.9-3.4,7.5-1.8c2.6,1.6,3.4,4.9,1.8,7.5
				C161.4,232.2,158.1,233,155.5,231.5z"/>
			<path class="st5" d="M157.8,230.6c-1-0.6-1.3-1.9-0.7-2.8c0.6-1,1.9-1.3,2.8-0.7s1.3,1.9,0.7,2.8
				C160,230.8,158.7,231.1,157.8,230.6z"/>
		</g>
		<g>
			
				<ellipse transform="matrix(0.1434 -0.9897 0.9897 0.1434 -120.2383 358.2378)" class="st18" cx="146.8" cy="248.6" rx="7.8" ry="7.8"/>
			<path class="st5" d="M146,253.9c-1.4-0.9-1.8-2.7-1-4.1c0.9-1.4,2.7-1.8,4.1-1c1.4,0.9,1.8,2.7,1,4.1
				C149.2,254.4,147.4,254.8,146,253.9z"/>
		</g>
	</g>
	<g>
		<path class="st18" d="M182.9,73l12.4-23.2l16,22L182.9,73z M195.4,51.7l-10.8,20.1l24.6-1L195.4,51.7z"/>
		<g>
			<path class="st18" d="M206.8,77.1c-3.2-1.9-4.1-6.1-2.2-9.2c1.9-3.2,6.1-4.1,9.2-2.2c3.2,1.9,4.1,6.1,2.2,9.2
				C214,78,209.9,79,206.8,77.1z"/>
			<path class="st5" d="M209.5,75.9c-1.2-0.7-1.6-2.3-0.8-3.5c0.7-1.2,2.3-1.6,3.5-0.8c1.2,0.7,1.6,2.3,0.8,3.5
				C212.3,76.3,210.7,76.7,209.5,75.9z"/>
		</g>
		<g>
			<path class="st18" d="M192.5,55.4c-2.6-1.6-3.4-4.9-1.8-7.5c1.6-2.6,4.9-3.4,7.5-1.8c2.6,1.6,3.4,4.9,1.8,7.5
				C198.4,56.1,195.1,56.9,192.5,55.4z"/>
			<path class="st5" d="M194.8,54.5c-1-0.6-1.3-1.9-0.7-2.8c0.6-1,1.9-1.3,2.8-0.7c1,0.6,1.3,1.9,0.7,2.8
				C197,54.8,195.7,55.1,194.8,54.5z"/>
		</g>
		<g>
			
				<ellipse transform="matrix(0.1434 -0.9897 0.9897 0.1434 85.7496 244.0511)" class="st18" cx="183.9" cy="72.5" rx="7.8" ry="7.8"/>
			<path class="st5" d="M183,77.9c-1.4-0.9-1.8-2.7-1-4.1c0.9-1.4,2.7-1.8,4.1-1c1.4,0.9,1.8,2.7,1,4.1
				C186.2,78.3,184.4,78.7,183,77.9z"/>
		</g>
	</g>
</g>
</svg>
