<svg id="Layer_1" enable-background="new 0 0 512 512" height="512" viewBox="0 0 512 512" width="512" xmlns="http://www.w3.org/2000/svg"><g><path d="m428.126 81.667h-344.252c-44.987 44.421-72.876 106.116-72.876 174.333 0 135.311 109.691 245.002 245.002 245.002s245.002-109.691 245.002-245.002c0-68.217-27.889-129.912-72.876-174.333z" fill="#73c3f9"/><path d="m81.596 114.685c-.006-.559.004-1.113.003-1.671-16.465 2.817-29.102 17.236-29.102 34.472v41.128c0 18.678 14.838 34.057 33.309 34.937-2.099-31.583-3.781-68.475-4.21-108.866z" fill="#d3dcfb"/><path d="m430.401 113.014c0 .557.009 1.112.003 1.671-.429 40.392-2.111 77.283-4.211 108.866 18.471-.88 33.309-16.258 33.309-34.937v-41.128c.001-17.236-12.636-31.655-29.101-34.472z" fill="#d3dcfb"/><path d="m82.78 164.735c-5.29 13.596-28.594 13.203-30.148-4.388-.09-1.015-.135-2.043-.135-3.08v31.347c0 18.678 14.838 34.057 33.309 34.937-1.196-17.992-2.255-37.712-3.026-58.816z" fill="#bec8f7"/><path d="m429.22 164.735c-.771 21.103-1.83 40.823-3.026 58.815 18.471-.88 33.309-16.258 33.309-34.937v-31.347c0 1.038-.046 2.065-.135 3.08-1.554 17.592-24.859 17.985-30.148 4.389z" fill="#bec8f7"/><path d="m429.15 82.667c-44.329-44.283-105.541-71.669-173.15-71.669s-128.821 27.386-173.15 71.669c-1.934 10.536-2.843 21.27-2.729 32.034.794 74.835 5.909 137.7 9.872 176.007 4.362 42.162 21.424 82.137 49.516 113.878 14.19 16.033 28.755 28.109 42.572 37.205 44.836 29.515 103.001 29.515 147.838 0 13.817-9.095 28.382-21.172 42.572-37.205 28.093-31.741 45.154-71.715 49.516-113.878 3.963-38.307 9.078-101.171 9.872-176.007.114-10.764-.795-21.498-2.729-32.034z" fill="#3c58a0"/><path d="m305.793 393.315-79.391-157.611c-15.179-2.79-10.821-18.544-10.821-18.544s-18.777-46.333-18.777-122.599c0-44.053 19.75-69.154 36.435-82.501-58.526 5.393-111.093 31.352-150.389 70.607-1.934 10.536-2.843 21.27-2.729 32.034.794 74.835 5.909 137.7 9.872 176.007 4.362 42.162 21.424 82.137 49.516 113.878 14.19 16.033 28.755 28.109 42.572 37.205 44.836 29.515 103.001 29.515 147.837 0 1.752-1.153 3.516-2.356 5.29-3.607-31.97-8.699-29.415-44.869-29.415-44.869z" fill="#2a428c"/><path d="m174.998 364.319c2.299-34.541-8.571-69.524-30.04-96.68-2.757-3.487-7.331-5.785-12.068-5.029l-41.393 6.609c8.873 14.726 18.103 35.888 25.619 60.077 7.516 24.19 11.905 46.856 12.939 64.017l37.849-18.013c4.323-2.055 6.798-6.534 7.094-10.981z" fill="#ffb332"/><path d="m167.413 317.122c-4.63 7.727-18.886 26.016-44.793 13.675-1.678-.8-3.614-.309-4.728 1.056 7.037 23.226 11.165 44.907 12.163 61.462l37.85-18.013c4.322-2.057 6.797-6.535 7.093-10.982 1.098-16.493-.814-33.084-5.441-48.877-.868.273-1.643.843-2.144 1.679z" fill="#ff9100"/><g><path d="m131.09 238.138c-20.691-10.069-34.145-29.706-35.989-52.529-1.43-17.705 1.548-35.853 8.848-53.942 9.885-24.494 34.289-40.714 60.639-40.325 11.19.158 22.03 1.241 32.216 3.219 41.931 8.14 63.208 55.285 42.104 91.988-7.87 13.69-21.813 33.026-43.538 47.399-19.35 12.799-43.379 14.36-64.28 4.19z" fill="#d3dcfb"/></g><path d="m214.047 218.806c-.191-1.14-.858-2.192-1.91-2.849-2.746-1.716-3.395-4.72-3.453-6.95-.041-1.579-.998-2.98-2.446-3.611-4.915-2.142-5.52-7.381-5.411-10.485.054-1.527-.801-2.942-2.142-3.674-41.396-22.586-20.159-59.603-14.063-68.685.826-1.23.877-2.809.209-4.131-3.062-6.056.617-9.569 3.314-11.208 1.25-.759 1.945-2.157 1.894-3.619-.122-3.521 2.151-5.987 4.095-7.444.636-.476 1.074-1.123 1.323-1.835-9.794-1.816-20.168-2.822-30.868-2.974-26.349-.389-50.754 15.831-60.639 40.325-7.3 18.089-10.277 36.237-8.848 53.942 1.844 22.824 15.298 42.461 35.989 52.529 20.9 10.17 44.93 8.61 64.279-4.191 7.023-4.646 13.222-9.814 18.677-15.14z" fill="#bec8f7"/><g><path d="m317.614 233.947c-21.725-14.373-35.668-33.709-43.538-47.399-21.126-36.741.209-83.855 42.104-91.988 10.186-1.978 21.026-3.06 32.216-3.219 26.338-.384 50.753 15.832 60.639 40.325 7.3 18.089 10.277 36.237 8.847 53.942-1.844 22.824-15.298 42.461-35.989 52.53-20.861 10.15-44.892 8.635-64.279-4.191z" fill="#d3dcfb"/></g><path d="m411.424 209.023c-6.754.772-8.861-2.949-9.513-5.525-.306-1.207-1.442-1.984-2.681-1.857-6.618.682-9.173-3.875-10.061-6.328-.329-.91-1.152-1.541-2.115-1.628-65.422-5.922-55.061-61.649-52.351-72.681.259-1.053-.184-2.171-1.127-2.704-6.416-3.63-5.165-8.929-3.829-11.792.499-1.069.142-2.375-.847-3.016-5.256-3.403-1.681-9.323-.654-10.816-4.107.495-8.136 1.121-12.066 1.884-41.895 8.133-63.23 55.247-42.104 91.988 7.87 13.69 21.813 33.026 43.538 47.399 19.386 12.826 43.417 14.34 64.278 4.191 13.136-6.392 23.349-16.644 29.532-29.115z" fill="#bec8f7"/><path d="m163.689 110.998c-18.089 0-34.714 11.198-41.506 28.027-6.147 15.229-8.663 30.369-7.482 45 1.277 15.819 10.621 29.438 24.993 36.432 14.584 7.098 31.344 6.01 44.826-2.908 18.519-12.252 30.528-28.95 37.342-40.801 14.432-25.106-.154-57.322-28.804-62.884-9.046-1.756-18.718-2.719-28.748-2.861-.208-.003-.414-.005-.621-.005z" fill="#73c3f9"/><path d="m200.826 194.911c.054-1.527-.801-2.942-2.142-3.674-41.396-22.586-20.159-59.603-14.063-68.685.826-1.23.877-2.809.209-4.131-1.211-2.396-1.358-4.388-.938-6.029-6.315-.823-12.866-1.295-19.583-1.39-.208-.003-.414-.004-.62-.004-18.089 0-34.714 11.198-41.506 28.027-6.147 15.229-8.663 30.369-7.482 45 1.277 15.819 10.621 29.438 24.993 36.432 14.584 7.097 31.344 6.01 44.826-2.908 6.928-4.583 12.944-9.79 18.118-15.131-1.631-2.418-1.885-5.437-1.812-7.507z" fill="#4fabf7"/><path d="m349.294 110.998c-.207 0-.412.001-.62.004-10.029.142-19.701 1.104-28.748 2.861-28.655 5.563-43.234 37.783-28.804 62.884 6.814 11.851 18.823 28.549 37.342 40.801 13.481 8.918 30.24 10.006 44.826 2.908 14.372-6.993 23.716-20.613 24.993-36.432 1.181-14.63-1.335-29.77-7.482-45-6.793-16.827-23.419-28.026-41.507-28.026z" fill="#73c3f9"/><path d="m389.169 195.314c-.329-.91-1.152-1.541-2.115-1.628-65.422-5.922-55.061-61.649-52.351-72.681.259-1.053-.184-2.171-1.127-2.704-3.052-1.727-4.358-3.831-4.756-5.871-3.021.399-5.993.871-8.894 1.434-28.655 5.563-43.234 37.783-28.804 62.884 6.814 11.851 18.823 28.549 37.342 40.801 13.481 8.918 30.24 10.006 44.826 2.908 8.971-4.365 15.982-11.313 20.296-19.765-2.581-1.367-3.847-3.804-4.417-5.378z" fill="#4fabf7"/><g><path d="m136.467 227.087c-16.742-8.146-27.627-24.023-29.115-42.468-1.274-15.785 1.415-32.053 7.994-48.353 7.88-19.523 27.308-32.641 48.344-32.641.241 0 .481.002.723.005 10.467.148 20.577 1.156 30.051 2.995 33.7 6.543 50.742 44.313 33.792 73.797-7.21 12.542-19.945 30.229-39.666 43.276-15.701 10.385-35.185 11.632-52.123 3.389zm27.222-108.715c-15.084 0-29.016 9.409-34.668 23.413-5.713 14.155-8.058 28.167-6.97 41.647 1.065 13.191 8.867 24.554 20.869 30.394 12.215 5.945 26.246 5.038 37.531-2.428 17.316-11.456 28.6-27.165 35.017-38.327 11.911-20.719-.079-47.361-23.817-51.97-8.619-1.673-17.853-2.59-27.447-2.727z" fill="#9bd8f9"/></g><path d="m206.238 205.396c-4.915-2.142-5.52-7.381-5.411-10.485.015-.42-.045-.83-.159-1.221-5.536 6.232-12.226 12.424-20.215 17.709-11.286 7.465-25.316 8.373-37.531 2.427-12.003-5.84-19.805-17.203-20.869-30.394-1.088-13.479 1.257-27.492 6.97-41.647 5.652-14.004 19.583-23.413 34.668-23.413l.516.003c7.268.103 14.327.657 21.071 1.645-.042-.548-.19-1.092-.446-1.599-3.062-6.056.617-9.569 3.314-11.208.593-.36 1.056-.867 1.379-1.453-8.022-1.286-16.441-2.008-25.111-2.131-.242-.003-.482-.005-.723-.005-21.036 0-40.464 13.118-48.344 32.641-6.579 16.3-9.268 32.568-7.994 48.353 1.489 18.445 12.373 34.322 29.115 42.468 16.938 8.243 36.422 6.996 52.121-3.389 7.54-4.989 14.052-10.657 19.631-16.455-.424-.806-1.112-1.467-1.982-1.846z" fill="#73c3f9"/><g><path d="m324.395 223.698c-19.721-13.047-32.455-30.735-39.666-43.276-16.979-29.535.14-67.265 33.792-73.797 9.474-1.84 19.584-2.847 30.048-2.995.245-.004.483-.005.725-.005 21.036 0 40.463 13.117 48.344 32.641 6.579 16.3 9.268 32.568 7.994 48.353-1.489 18.446-12.373 34.322-29.116 42.469-16.928 8.235-36.412 7.003-52.121-3.39zm24.899-105.326-.518.004c-9.591.136-18.825 1.053-27.444 2.726-23.727 4.605-35.734 31.24-23.816 51.97 6.417 11.161 17.701 26.87 35.017 38.327 11.284 7.464 25.313 8.373 37.531 2.427 12.003-5.84 19.805-17.203 20.869-30.395 1.088-13.479-1.257-27.491-6.97-41.647-5.653-14.003-19.585-23.412-34.669-23.412z" fill="#9bd8f9"/></g><path d="m399.23 201.641c-6.618.682-9.173-3.875-10.061-6.328-.157-.433-.431-.797-.774-1.076-3.367 8.442-9.773 15.423-18.332 19.588-12.217 5.946-26.247 5.037-37.531-2.427-17.316-11.457-28.6-27.166-35.017-38.327-11.917-20.731.089-47.365 23.816-51.97 4.235-.822 8.621-1.46 13.122-1.914-.204-.362-.498-.673-.878-.888-6.416-3.63-5.165-8.929-3.829-11.792.247-.529.283-1.115.138-1.651-3.873.463-7.668 1.05-11.364 1.767-33.652 6.533-50.77 44.263-33.792 73.797 7.211 12.541 19.945 30.229 39.666 43.276 15.709 10.393 35.193 11.625 52.121 3.389 11.104-5.403 19.609-14.219 24.527-24.917-.496-.39-1.136-.597-1.812-.527z" fill="#73c3f9"/><path d="m256 284.608c28.982 0 53.593 18.647 62.536 44.591.419-4.238.64-8.569.64-12.974 0-50.326-28.285-91.123-63.176-91.123s-63.176 40.797-63.176 91.123c0 4.406.221 8.736.64 12.974 8.943-25.944 33.554-44.591 62.536-44.591z" fill="#4b6bb2"/><path d="m250.649 283.841c-35.229-11.447-24.323-47.887-24.249-48.132-19.973 15.308-33.576 45.618-33.576 80.515 0 4.405.221 8.736.64 12.974 8.319-24.136 30.201-41.947 56.545-44.314.359-.657.64-1.043.64-1.043z" fill="#3c58a0"/><path d="m256 414.937c-6.397 0-12.575-.926-18.426-2.621v54.898c0 5.771 4.679 10.45 10.45 10.45h15.951c5.772 0 10.45-4.679 10.45-10.45v-54.898c-5.85 1.695-12.028 2.621-18.425 2.621z" fill="#4b6bb2"/><path d="m256 414.937c-6.397 0-12.575-.926-18.426-2.621v36.45c0-5.771 4.679-10.45 10.45-10.45h15.951c5.772 0 10.451 4.679 10.451 10.45v-36.45c-5.851 1.695-12.029 2.621-18.426 2.621z" fill="#3c58a0"/><ellipse cx="256" cy="349.773" fill="#6289cc" rx="66.148" ry="66.148" transform="matrix(.163 -.987 .987 .163 -130.887 545.209)"/><path d="m299.196 375.374-43.196-25.601v-50.214c-12.486-5.526-5.65-15.301-5.364-15.699-34.021 2.733-60.784 31.188-60.784 65.913 0 36.533 29.615 66.148 66.148 66.148 19.856 0 37.655-8.761 49.78-22.614-11.52-6.513-6.584-17.933-6.584-17.933z" fill="#4b6bb2"/><g><path d="m256 399.986c-27.688 0-50.213-22.526-50.213-50.214s22.526-50.213 50.213-50.213c27.688 0 50.213 22.526 50.213 50.213 0 27.689-22.525 50.214-50.213 50.214zm0-85.68c-19.556 0-35.466 15.91-35.466 35.466 0 19.557 15.91 35.467 35.466 35.467s35.466-15.91 35.466-35.467c0-19.556-15.91-35.466-35.466-35.466z" fill="#fcf2c8"/></g><path d="m69.396 247.336-60.96 9.733.072.233c13.567-.462 36.453 38.331 52.345 89.478s19.021 96.079 7.582 103.387l.072.233 55.742-26.528c12.123-3.767 9.671-46.339-5.476-95.088-15.147-48.75-37.254-85.215-49.377-81.448z" fill="#ffdd40"/><path d="m119.373 330.736c-.894.381-1.654 1.081-2.064 2.055-4.198 9.963-18.083 33.824-50.032 16.313-1.931-1.058-4.243-.329-5.274 1.451 14.884 49.565 17.59 92.484 6.434 99.611l.072.233 55.742-26.528c11.959-3.716 9.731-45.208-4.878-93.135z" fill="#ffb332"/><ellipse cx="38.472" cy="353.734" fill="#fcf2c8" rx="25.172" ry="101.224" transform="matrix(.955 -.297 .297 .955 -103.23 27.347)"/><path d="m63.394 349.149c-.882.516-1.569 1.38-1.827 2.491-1.95 8.392-7.481 22.207-21.535 7.582-1.843-1.918-4.996-1.506-6.242.843-2.617 4.933-7.867 10.897-17.254 7.705 16.476 50.053 39.246 86.583 51.971 82.628 13.037-4.05 10.682-49.077-5.113-101.249z" fill="#ffdd40"/><ellipse cx="22.096" cy="358.822" fill="#ffdd40" rx="14.547" ry="50.612" transform="matrix(.955 -.297 .297 .955 -105.477 22.717)"/><path d="m37.114 407.155c7.332-2.278 7.191-23.908-.074-49.118-1.303.056-2.564.738-3.25 2.029-3.116 5.874-9.961 13.215-23.083 4.814-.656-.42-1.401-.606-2.138-.593 8.306 26.105 20.983 45.217 28.545 42.868z" fill="#ffb332"/><path d="m337.002 364.319c-2.299-34.541 8.571-69.524 30.04-96.68 2.757-3.487 7.331-5.785 12.068-5.029l41.393 6.609c-8.873 14.726-18.103 35.888-25.619 60.077-7.516 24.19-11.905 46.856-12.939 64.017l-37.849-18.013c-4.323-2.055-6.798-6.534-7.094-10.981z" fill="#ffb332"/><path d="m344.587 317.122c4.63 7.727 18.886 26.016 44.792 13.675 1.678-.8 3.615-.309 4.728 1.056-7.037 23.226-11.165 44.907-12.163 61.462l-37.85-18.013c-4.322-2.057-6.797-6.535-7.093-10.982-1.098-16.493.814-33.084 5.441-48.877.869.273 1.644.843 2.145 1.679z" fill="#ff9100"/><path d="m442.604 247.336 60.96 9.733-.072.233c-13.566-.462-36.453 38.331-52.345 89.478s-19.021 96.079-7.582 103.387l-.072.233-55.742-26.528c-12.123-3.767-9.671-46.339 5.476-95.088 15.147-48.75 37.254-85.215 49.377-81.448z" fill="#ffdd40"/><path d="m392.627 330.736c.894.381 1.654 1.081 2.064 2.055 4.198 9.963 18.083 33.824 50.033 16.313 1.931-1.058 4.243-.329 5.274 1.451-14.884 49.565-17.59 92.484-6.434 99.611l-.072.233-55.742-26.528c-11.96-3.716-9.732-45.208 4.877-93.135z" fill="#ffb332"/><ellipse cx="473.528" cy="353.734" fill="#fcf2c8" rx="101.224" ry="25.172" transform="matrix(.297 -.955 .955 .297 -4.783 700.973)"/><path d="m448.606 349.149c.882.516 1.569 1.38 1.827 2.491 1.949 8.392 7.481 22.207 21.535 7.582 1.843-1.918 4.996-1.506 6.242.843 2.617 4.933 7.867 10.897 17.254 7.705-16.476 50.053-39.246 86.583-51.971 82.628-13.037-4.05-10.682-49.077 5.113-101.249z" fill="#ffdd40"/><ellipse cx="489.904" cy="358.822" fill="#ffdd40" rx="50.612" ry="14.547" transform="matrix(.297 -.955 .955 .297 1.875 720.19)"/><path d="m474.886 407.155c-7.332-2.278-7.191-23.908.074-49.118 1.303.056 2.564.738 3.25 2.029 3.116 5.874 9.961 13.215 23.083 4.814.656-.42 1.401-.606 2.138-.593-8.305 26.105-20.983 45.217-28.545 42.868z" fill="#ffb332"/><path d="m291.413 351.69c-1 18.668-16.5 33.549-35.413 33.549-19.556 0-35.466-15.91-35.466-35.466s15.91-35.466 35.466-35.466c4.854 0 9.481.982 13.698 2.755-2.169-7.46 3.152-11.267 7.052-12.996-6.33-2.885-13.352-4.506-20.75-4.506-27.688 0-50.213 22.526-50.213 50.214s22.526 50.214 50.213 50.214c26.713 0 48.615-20.97 50.123-47.313-5.648 2.841-11.399.787-14.71-.985z" fill="#ffdd40"/><g><path d="m292.845 378.989c-1.278 0-2.573-.332-3.752-1.031l-36.852-21.842c-3.503-2.077-4.66-6.6-2.584-10.103s6.6-4.659 10.103-2.584l36.852 21.842c3.504 2.077 4.66 6.6 2.584 10.103-1.378 2.323-3.832 3.615-6.351 3.615z" fill="#3c58a0"/></g><g><path d="m219.155 378.989c-2.519 0-4.973-1.291-6.351-3.615-2.076-3.503-.919-8.026 2.584-10.103l36.852-21.842c3.504-2.076 8.027-.919 10.103 2.584s.919 8.026-2.584 10.103l-36.852 21.842c-1.179.698-2.474 1.031-3.752 1.031z" fill="#3c58a0"/></g><g><path d="m256 357.146c-4.072 0-7.374-3.301-7.374-7.374v-42.84c0-4.072 3.301-7.374 7.374-7.374 4.072 0 7.374 3.301 7.374 7.374v42.84c0 4.073-3.302 7.374-7.374 7.374z" fill="#3c58a0"/></g><ellipse cx="256" cy="349.773" fill="#2a428c" rx="11.039" ry="11.039" transform="matrix(.748 -.664 .664 .748 -167.707 258.399)"/></g></svg>