<svg xmlns="http://www.w3.org/2000/svg" xmlns:xlink="http://www.w3.org/1999/xlink" width="750" height="357.33" viewBox="0 0 750 357.33">
  <defs>
    <style>
      .cls-1 {
        fill: none;
      }

      .cls-2 {
        isolation: isolate;
      }

      .cls-3 {
        fill: #bad3f1;
      }

      .cls-4 {
        fill: #dcf9f5;
      }

      .cls-5 {
        fill: #fff;
      }

      .cls-12, .cls-6 {
        fill: #262f56;
      }

      .cls-7 {
        fill: #385a7f;
      }

      .cls-8 {
        fill: #162345;
      }

      .cls-9 {
        fill: #f1ce7a;
      }

      .cls-10 {
        fill: #bbd2f1;
      }

      .cls-11 {
        clip-path: url(#clip-path);
      }

      .cls-12, .cls-19 {
        opacity: 0.5;
      }

      .cls-13, .cls-14, .cls-18 {
        fill: #eb7351;
      }

      .cls-13 {
        opacity: 0.7;
      }

      .cls-15 {
        fill: #eda366;
      }

      .cls-16, .cls-19 {
        fill: #c64938;
      }

      .cls-17 {
        fill: #f2d079;
      }

      .cls-18 {
        opacity: 0.6;
      }

      .cls-19 {
        mix-blend-mode: multiply;
      }

      .cls-20 {
        fill: #5c45bf;
      }

      .cls-21 {
        fill: #73c3f9;
      }

      .cls-22 {
        fill: #49b1f7;
      }

      .cls-23 {
        fill: #9bd8f9;
      }

      .cls-24 {
        fill: #ffc7ab;
      }

      .cls-25 {
        fill: #ffaa7b;
      }

      .cls-26 {
        fill: #d3dcfb;
      }

      .cls-27 {
        fill: #deeeff;
      }

      .cls-28 {
        fill: #4b6bb2;
      }

      .cls-29 {
        fill: #2a428c;
      }

      .cls-30 {
        fill: #fc9460;
      }

      .cls-31 {
        fill: #bec8f7;
      }

      .cls-32 {
        fill: #a8b7ef;
      }

      .cls-33 {
        fill: #7255ce;
      }

      .cls-34 {
        fill: #1e9ef4;
      }

      .cls-35 {
        fill: #ef5261;
      }

      .cls-36 {
        fill: #575b6d;
      }

      .cls-37 {
        fill: #f6c863;
      }
    </style>
    <clipPath id="clip-path">
      <polygon class="cls-1" points="198.75 145.3 198.75 215.69 126.28 221.08 153.04 145.3 198.75 145.3"/>
    </clipPath>
  </defs>
  <g class="cls-2">
    <g id="OBJECTS">
      <g>
        <g id="BG">
          <path class="cls-3" d="M235.25,75.32C-10.08,120.32,80.1,331.81,80.1,331.81s431.3-1.16,594.08,1.25C764.28,65.83,480.58,30.32,235.25,75.32Z"/>
          <path class="cls-3" d="M576.48,64.36C598.88,67.23,625,58.78,605,46.81s-95-26.34-108.53-8S552.78,61.33,576.48,64.36Z"/>
          <path class="cls-3" d="M661.93,93.52c13.3-23.21-27.7-34.58-34.15-22.66C619.13,86.87,653.5,108.22,661.93,93.52Z"/>
          <path class="cls-3" d="M177.52,76.81c12.34-5.57,23-18.08,9-17.92s-56.8,16.37-57.95,30S164.45,82.71,177.52,76.81Z"/>
          <g>
            <path class="cls-4" d="M517.81,110.73H508.9a7.35,7.35,0,0,0,.14-1.42,7.51,7.51,0,0,0-11.26-6.52,10.56,10.56,0,0,0-14.56-9.39,14.65,14.65,0,0,0,.27-2.75,14.11,14.11,0,1,0-27.87,3.08,10.48,10.48,0,0,0-4.71-1.12A10.6,10.6,0,0,0,440.39,102a10.58,10.58,0,0,0-8.47-4.25h-.08A15.1,15.1,0,0,0,402,96.26a10.57,10.57,0,0,0-16.63,6.12,7.53,7.53,0,0,0-10.45,6.93,7.35,7.35,0,0,0,.14,1.42h-8.91a4.82,4.82,0,0,0,0,9.63H517.81a4.82,4.82,0,0,0,0-9.63Z"/>
            <path class="cls-5" d="M631.35,134.82H620.86a9.18,9.18,0,0,0,.16-1.67,8.85,8.85,0,0,0-13.26-7.68,12.48,12.48,0,0,0-12.46-12,12.6,12.6,0,0,0-4.69.92,16.31,16.31,0,0,0,.32-3.23,16.61,16.61,0,1,0-32.82,3.62,12.45,12.45,0,0,0-17.93,9.74,12.45,12.45,0,0,0-10-5h-.08A17.78,17.78,0,0,0,495,117.78a12.46,12.46,0,0,0-19.59,7.2,8.77,8.77,0,0,0-3.44-.69,8.86,8.86,0,0,0-8.86,8.86,9.18,9.18,0,0,0,.16,1.67H452.76a5.67,5.67,0,1,0,0,11.33H631.35a5.67,5.67,0,1,0,0-11.33Z"/>
            <path class="cls-5" d="M264.66,188.3H254.17a8.45,8.45,0,0,0,.17-1.67A8.85,8.85,0,0,0,241.07,179a12.45,12.45,0,0,0-17.14-11.07,16.31,16.31,0,0,0,.32-3.23,16.62,16.62,0,1,0-32.82,3.62A12.45,12.45,0,0,0,173.5,178a12.45,12.45,0,0,0-10-5h-.09a17.78,17.78,0,0,0-35.14-1.75,12.45,12.45,0,0,0-19.59,7.2,8.73,8.73,0,0,0-3.44-.69,8.86,8.86,0,0,0-8.86,8.86,8.45,8.45,0,0,0,.17,1.67H86.08a5.67,5.67,0,1,0,0,11.33H264.66a5.67,5.67,0,1,0,0-11.33Z"/>
          </g>
        </g>
        <g>
          <rect class="cls-6" x="470.21" y="132.22" width="128.25" height="160.68"/>
          <g>
            <polygon class="cls-7" points="469.09 294.31 525 328.34 655.92 328.34 653.33 326.71 599.58 294.31 469.09 294.31"/>
            <g>
              <polygon class="cls-6" points="611.7 301.63 481.11 301.63 482.25 302.32 612.86 302.32 611.7 301.63"/>
              <polygon class="cls-6" points="627.19 310.98 496.47 310.98 497.61 311.67 628.35 311.67 627.19 310.98"/>
              <polygon class="cls-6" points="641.33 319.51 510.49 319.51 511.63 320.2 642.48 320.2 641.33 319.51"/>
            </g>
            <polygon class="cls-8" points="525 328.28 525 329.9 469.09 295.88 469.09 294.31 525 328.28"/>
            <rect class="cls-6" x="525" y="328.28" width="130.92" height="1.62"/>
          </g>
        </g>
        <g>
          <polygon class="cls-9" points="107.48 292.08 208.1 292.08 208.1 130.82 146.47 130.82 107.48 240.31 107.48 292.08"/>
          <g>
            <polygon class="cls-10" points="198.75 145.3 198.75 215.69 126.28 221.08 153.04 145.3 198.75 145.3"/>
            <polygon class="cls-5" points="152.74 147.87 198.48 147.87 198.18 145.3 152.84 145.79 152.74 147.87"/>
            <g class="cls-11">
              <path class="cls-12" d="M198.48,216.45V185.39c0-2.55-1.73-4.62-3.87-4.62s-3.87,2.07-3.87,4.62v29.13H173.29c-2.6,0-4.71,2.51-4.71,5.61s2.11,5.61,4.71,5.61h21.64c2.6,0,4.71-2.51,4.71-5.61A6.23,6.23,0,0,0,198.48,216.45Z"/>
              <path class="cls-12" d="M158.82,200.53,145.7,187.91a1.15,1.15,0,0,0-1.81.23,1.76,1.76,0,0,0,.2,2.16l6.2,6-.09.12L134.87,219c-.65,1-.89,2-.53,2.35s1.16-.16,1.8-1.12l15.33-22.66.08-.13,5.65,5.43a1.15,1.15,0,0,0,1.81-.23A1.73,1.73,0,0,0,158.82,200.53Z"/>
            </g>
            <path class="cls-8" d="M125.64,223.35a.87.87,0,0,1-.72-.41,1.08,1.08,0,0,1-.1-1l27.4-77.06a.9.9,0,0,1,.82-.61h45.71a.94.94,0,0,1,.89,1v70.39a1,1,0,0,1-.82,1l-73.11,6.66Zm28-77.06s-25.41,71.53-24.31,73.14,68.53-4.65,68.53-4.65V146.29Z"/>
            <polygon class="cls-5" points="157.79 151.43 155.11 151.43 150.17 166.56 179.63 212.48 194.24 211.4 157.79 151.43"/>
            <polygon class="cls-5" points="170.37 151.43 162.16 151.43 194.24 204.63 194.24 192.03 170.37 151.43"/>
          </g>
          <path class="cls-13" d="M149.75,137,112.47,239.42l0,.15v46.2H204V137Zm-36.08,147.3V239.88l36.91-101.41h52.13v99.25H143.24A23.41,23.41,0,0,0,126,246.13c-4.23,5.1-6.33,11.94-6.25,20.33l1.26,0c-.08-8,1.9-14.45,5.88-19.25a22.22,22.22,0,0,1,16.34-8h59.47v45Z"/>
          <rect class="cls-14" x="107.48" y="265.45" width="100.62" height="28.86"/>
          <g>
            <path class="cls-6" d="M113,207.86a2.79,2.79,0,0,0,2.52,3h0a2.79,2.79,0,0,0,2.52-3V185.61a2.8,2.8,0,0,0-2.52-3h0a2.8,2.8,0,0,0-2.52,3Z"/>
            <path class="cls-8" d="M125.83,221.61c-4.65,0-11.69-2.35-12.79-6.37-1.5-5.49-1.19-16.91-1.17-17.4s.29-.76.64-.73a.7.7,0,0,1,.61.77c0,.12-.29,11.86,1.14,17.1.79,2.89,6.87,5.13,11.57,5.13a.76.76,0,0,1,0,1.5Z"/>
          </g>
          <g>
            <path class="cls-7" d="M198.61,227.47H182.25a1.27,1.27,0,0,0,0,2.5h.87a1.16,1.16,0,0,0,1,1.25h12.51a1.16,1.16,0,0,0,1-1.25h.88a1.27,1.27,0,0,0,0-2.5Z"/>
            <path class="cls-6" d="M184.17,231.22h12.51a1.16,1.16,0,0,0,1-1.25H183.12A1.16,1.16,0,0,0,184.17,231.22Z"/>
          </g>
          <rect class="cls-15" x="208.1" y="130.82" width="15" height="163.49"/>
          <rect class="cls-16" x="208.1" y="265.45" width="15" height="28.86"/>
          <path class="cls-16" d="M179.52,284.1c-4-5.21-9.3-8.38-15.06-8.38H146.7c-5.86,0-11.2,3.28-15.27,8.65,0,0-.5.64-1,1.4a37.14,37.14,0,0,0-4.21,8.54h58.72a37.14,37.14,0,0,0-4.21-8.54Z"/>
          <g>
            <path class="cls-8" d="M163.87,280.31H147.29v50.25h16.58c11.87,0,21.5-11.25,21.5-25.12S175.74,280.31,163.87,280.31Z"/>
            <ellipse class="cls-7" cx="147.29" cy="305.44" rx="21.5" ry="25.13"/>
            <path class="cls-5" d="M160.89,305.44c0,8.77-6.09,15.88-13.6,15.88s-13.59-7.11-13.59-15.88,6.09-15.89,13.59-15.89S160.89,296.66,160.89,305.44Z"/>
            <path class="cls-3" d="M157.14,305.44c0,6.35-4.41,11.5-9.85,11.5s-9.84-5.15-9.84-11.5,4.41-11.51,9.84-11.51S157.14,299.08,157.14,305.44Z"/>
            <path class="cls-8" d="M152.22,305.44c0,3.18-2.2,5.75-4.93,5.75s-4.92-2.57-4.92-5.75,2.2-5.76,4.92-5.76S152.22,302.25,152.22,305.44Z"/>
          </g>
          <rect class="cls-16" x="112.42" y="265.45" width="1.33" height="24.1"/>
          <polygon class="cls-16" points="112.42 289.56 112.42 288.22 126.22 288.22 125.93 289.56 112.42 289.56"/>
          <path class="cls-14" d="M210.37,294.31c-10.27-12.7-14.87-16.42-21.94-20.59l-35.21,2c8.91,0,16.63,7.54,20.46,18.56Z"/>
          <path class="cls-16" d="M155.88,272.31h-9.64c-15.17,0-21.76,16.81-21.82,17l.7.27h.81c.88-2.08,7.18-15.75,20.31-15.75h9.64c5.89,0,14.09,5.72,17.79,15.75l1.51-.26C171.66,279.77,163.18,272.31,155.88,272.31Z"/>
          <polygon class="cls-16" points="202.71 265.45 202.71 288.16 174.5 288.16 173.67 289.56 203.96 289.56 203.96 265.45 202.71 265.45"/>
        </g>
        <rect class="cls-7" x="223.1" y="130.82" width="245.99" height="163.49"/>
        <rect class="cls-14" x="223.1" y="265.45" width="245.99" height="28.86"/>
        <path class="cls-16" d="M436.9,284.27c-4.07-5.31-9.41-8.55-15.28-8.55H403.88c-6.74,0-12.8,4.25-17,11-4.21-6.77-10.27-11-17-11H352.13c-5.87,0-11.21,3.24-15.27,8.55,0,0-.94,1.27-1.08,1.5a36.35,36.35,0,0,0-4.21,8.54H442.18a36.35,36.35,0,0,0-4.21-8.54Z"/>
        <g>
          <path class="cls-8" d="M369.29,280.31H352.71v50.32h16.58c11.87,0,21.5-11.26,21.5-25.16S381.16,280.31,369.29,280.31Z"/>
          <path class="cls-7" d="M374.21,305.47c0,13.9-9.62,25.16-21.5,25.16s-21.5-11.26-21.5-25.16,9.63-25.16,21.5-25.16S374.21,291.57,374.21,305.47Z"/>
          <path class="cls-5" d="M366.3,305.47c0,8.79-6.08,15.91-13.59,15.91s-13.59-7.12-13.59-15.91,6.09-15.91,13.59-15.91S366.3,296.69,366.3,305.47Z"/>
          <path class="cls-3" d="M362.55,305.47c0,6.36-4.4,11.52-9.84,11.52s-9.84-5.16-9.84-11.52S347.28,294,352.71,294,362.55,299.11,362.55,305.47Z"/>
          <path class="cls-8" d="M357.64,305.47c0,3.19-2.2,5.77-4.93,5.77s-4.92-2.58-4.92-5.77,2.2-5.77,4.92-5.77S357.64,302.29,357.64,305.47Z"/>
        </g>
        <g>
          <path class="cls-8" d="M420.73,280.31H404.16v50.32h16.57c11.88,0,21.5-11.26,21.5-25.16S432.61,280.31,420.73,280.31Z"/>
          <path class="cls-7" d="M425.66,305.47c0,13.9-9.63,25.16-21.5,25.16s-21.5-11.26-21.5-25.16,9.63-25.16,21.5-25.16S425.66,291.57,425.66,305.47Z"/>
          <path class="cls-5" d="M417.75,305.47c0,8.79-6.08,15.91-13.59,15.91s-13.59-7.12-13.59-15.91,6.08-15.91,13.59-15.91S417.75,296.69,417.75,305.47Z"/>
          <path class="cls-3" d="M414,305.47c0,6.36-4.41,11.52-9.84,11.52s-9.84-5.16-9.84-11.52,4.4-11.52,9.84-11.52S414,299.11,414,305.47Z"/>
          <path class="cls-8" d="M409.09,305.47c0,3.19-2.21,5.77-4.93,5.77s-4.93-2.58-4.93-5.77,2.21-5.77,4.93-5.77S409.09,302.29,409.09,305.47Z"/>
        </g>
        <path class="cls-6" d="M460.83,137H235.25V265.45h1.5v-9.53H460.83v9.53h1.5V137ZM236.75,254.52V138.37H460.83V254.52Z"/>
        <path class="cls-14" d="M424.67,273.72l-15,2c8.92,0,16.64,7.54,20.47,18.56H448C444,274.72,426.4,274.74,424.67,273.72Z"/>
        <path class="cls-14" d="M399.14,276.44a49.91,49.91,0,0,0-4.29-2.72l-35.21,2c8.92,0,16.64,7.54,20.47,18.56h3.27C386.34,286,390.79,279.35,399.14,276.44Z"/>
        <rect class="cls-16" x="379.68" y="288.06" width="3.7" height="1.5"/>
        <polygon class="cls-16" points="332.69 288.06 236.75 288.06 236.75 265.45 235.25 265.45 235.25 288.06 235.25 289.56 236.75 289.56 331.95 289.56 332.69 288.06"/>
        <path class="cls-16" d="M361.94,272.31H352.3c-15.17,0-21.75,16.81-21.82,17l.7.27H332c.88-2.08,7.18-15.75,20.31-15.75h9.64c5.89,0,14.1,5.72,17.79,15.75l1.51-.26C377.72,279.77,369.24,272.31,361.94,272.31Z"/>
        <path class="cls-16" d="M413,272.31h-9.63c-15.18,0-21.76,16.81-21.82,17l.7.27H383c.88-2.08,7.18-15.75,20.31-15.75H413c5.9,0,14.1,5.72,17.8,15.75l1.51-.26C428.77,279.77,420.29,272.31,413,272.31Z"/>
        <polygon class="cls-16" points="460.83 265.45 460.83 288.81 430.51 288.81 431.02 290.31 460.83 290.31 462.33 290.31 462.33 288.81 462.33 265.45 460.83 265.45"/>
        <g>
          <g>
            <rect class="cls-17" x="533.99" y="260.58" width="29.44" height="29.44"/>
            <rect class="cls-15" x="514.63" y="260.58" width="19.36" height="29.44"/>
            <rect class="cls-15" x="544.61" y="260.58" width="8.19" height="4.01"/>
            <rect class="cls-14" x="516.22" y="282.21" width="13.18" height="6.14"/>
            <rect class="cls-14" x="516.22" y="261.86" width="1.02" height="2.73"/>
            <rect class="cls-14" x="518.27" y="261.86" width="1.02" height="2.73"/>
            <rect class="cls-5" x="555.9" y="286.56" width="6.02" height="1.79"/>
            <polygon class="cls-14" points="554.98 273.08 551.12 273.08 551.12 269.22 546.68 269.22 546.68 273.08 542.82 273.08 542.82 277.52 546.68 277.52 546.68 281.38 551.12 281.38 551.12 277.52 554.98 277.52 554.98 273.08"/>
            <rect class="cls-14" x="516.22" y="279.14" width="13.18" height="1.78"/>
          </g>
          <g>
            <rect class="cls-17" x="533.99" y="231.11" width="29.44" height="29.44"/>
            <rect class="cls-15" x="514.63" y="231.11" width="19.36" height="29.44"/>
            <rect class="cls-15" x="544.61" y="231.11" width="8.19" height="4.01"/>
            <rect class="cls-14" x="516.22" y="252.75" width="13.18" height="6.14"/>
            <rect class="cls-14" x="516.22" y="232.39" width="1.02" height="2.73"/>
            <rect class="cls-14" x="518.27" y="232.39" width="1.02" height="2.73"/>
            <rect class="cls-5" x="555.9" y="257.1" width="6.02" height="1.79"/>
            <polygon class="cls-14" points="554.98 243.61 551.12 243.61 551.12 239.75 546.68 239.75 546.68 243.61 542.82 243.61 542.82 248.06 546.68 248.06 546.68 251.91 551.12 251.91 551.12 248.06 554.98 248.06 554.98 243.61"/>
            <rect class="cls-14" x="516.22" y="249.68" width="13.18" height="1.78"/>
          </g>
          <rect class="cls-18" x="514.63" y="260.56" width="48.81" height="0.4"/>
          <g>
            <rect class="cls-17" x="489.7" y="261.12" width="29.44" height="29.44"/>
            <rect class="cls-15" x="470.34" y="261.12" width="19.36" height="29.44"/>
            <rect class="cls-15" x="500.33" y="261.12" width="8.19" height="4.01"/>
            <rect class="cls-14" x="471.93" y="282.75" width="13.18" height="6.14"/>
            <rect class="cls-14" x="471.93" y="262.4" width="1.02" height="2.73"/>
            <rect class="cls-14" x="473.98" y="262.4" width="1.02" height="2.73"/>
            <rect class="cls-5" x="511.62" y="287.11" width="6.02" height="1.79"/>
            <polygon class="cls-5" points="510.69 273.62 506.83 273.62 506.83 269.76 502.39 269.76 502.39 273.62 498.53 273.62 498.53 278.06 502.39 278.06 502.39 281.92 506.83 281.92 506.83 278.06 510.69 278.06 510.69 273.62"/>
            <rect class="cls-14" x="471.93" y="279.68" width="13.18" height="1.78"/>
          </g>
          <g>
            <rect class="cls-17" x="489.7" y="231.68" width="29.44" height="29.44"/>
            <rect class="cls-15" x="470.34" y="231.68" width="19.36" height="29.44"/>
            <rect class="cls-15" x="500.33" y="231.68" width="8.19" height="4.01"/>
            <rect class="cls-14" x="471.93" y="253.31" width="13.18" height="6.14"/>
            <rect class="cls-14" x="471.93" y="232.95" width="1.02" height="2.73"/>
            <rect class="cls-14" x="473.98" y="232.95" width="1.02" height="2.73"/>
            <rect class="cls-5" x="511.62" y="257.66" width="6.02" height="1.79"/>
            <polygon class="cls-14" points="510.69 244.17 506.83 244.17 506.83 240.32 502.39 240.32 502.39 244.17 498.53 244.17 498.53 248.62 502.39 248.62 502.39 252.47 506.83 252.47 506.83 248.62 510.69 248.62 510.69 244.17"/>
            <rect class="cls-14" x="471.93" y="250.24" width="13.18" height="1.78"/>
          </g>
          <rect class="cls-18" x="470.34" y="261.12" width="48.81" height="0.4"/>
          <g>
            <rect class="cls-17" x="489.7" y="202.21" width="29.44" height="29.44"/>
            <rect class="cls-15" x="470.34" y="202.21" width="19.36" height="29.44"/>
            <rect class="cls-15" x="500.33" y="202.21" width="8.19" height="4.01"/>
            <rect class="cls-14" x="471.93" y="223.85" width="13.18" height="6.14"/>
            <rect class="cls-14" x="471.93" y="203.49" width="1.02" height="2.73"/>
            <rect class="cls-14" x="473.98" y="203.49" width="1.02" height="2.73"/>
            <rect class="cls-5" x="511.62" y="228.2" width="6.02" height="1.79"/>
            <polygon class="cls-14" points="510.69 214.71 506.83 214.71 506.83 210.85 502.39 210.85 502.39 214.71 498.53 214.71 498.53 219.16 502.39 219.16 502.39 223.01 506.83 223.01 506.83 219.16 510.69 219.16 510.69 214.71"/>
            <rect class="cls-14" x="471.93" y="220.77" width="13.18" height="1.78"/>
          </g>
          <rect class="cls-18" x="470.34" y="231.65" width="48.81" height="0.4"/>
          <g>
            <rect class="cls-17" x="535.49" y="208.4" width="22.76" height="22.75"/>
            <rect class="cls-15" x="520.53" y="208.4" width="14.96" height="22.75"/>
            <rect class="cls-15" x="543.71" y="208.4" width="6.33" height="3.1"/>
            <rect class="cls-14" x="521.76" y="225.12" width="10.19" height="4.75"/>
            <rect class="cls-14" x="521.76" y="209.39" width="0.79" height="2.11"/>
            <rect class="cls-14" x="523.34" y="209.39" width="0.79" height="2.11"/>
            <rect class="cls-5" x="552.43" y="228.48" width="4.65" height="1.38"/>
            <polygon class="cls-14" points="551.72 218.06 548.73 218.06 548.73 215.08 545.3 215.08 545.3 218.06 542.32 218.06 542.32 221.49 545.3 221.49 545.3 224.47 548.73 224.47 548.73 221.49 551.72 221.49 551.72 218.06"/>
            <rect class="cls-14" x="521.76" y="222.74" width="10.19" height="1.38"/>
          </g>
          <rect class="cls-18" x="520.53" y="230.81" width="37.72" height="0.31"/>
          <g>
            <rect class="cls-17" x="485.97" y="179.46" width="22.76" height="22.75"/>
            <rect class="cls-15" x="471.01" y="179.46" width="14.96" height="22.75"/>
            <rect class="cls-15" x="494.19" y="179.46" width="6.33" height="3.1"/>
            <rect class="cls-14" x="472.24" y="196.18" width="10.19" height="4.75"/>
            <rect class="cls-14" x="472.24" y="180.44" width="0.79" height="2.11"/>
            <rect class="cls-14" x="473.82" y="180.44" width="0.79" height="2.11"/>
            <rect class="cls-5" x="502.91" y="199.54" width="4.65" height="1.38"/>
            <polygon class="cls-14" points="502.2 189.12 499.21 189.12 499.21 186.13 495.78 186.13 495.78 189.12 492.8 189.12 492.8 192.55 495.78 192.55 495.78 195.53 499.21 195.53 499.21 192.55 502.2 192.55 502.2 189.12"/>
            <rect class="cls-14" x="472.24" y="193.8" width="10.19" height="1.38"/>
          </g>
          <rect class="cls-18" x="471.01" y="201.87" width="37.72" height="0.31"/>
          <g>
            <rect class="cls-17" x="537.56" y="193.43" width="14.99" height="14.99"/>
            <rect class="cls-15" x="527.7" y="193.43" width="9.86" height="14.99"/>
            <rect class="cls-15" x="542.97" y="193.43" width="4.17" height="2.04"/>
            <rect class="cls-14" x="532.16" y="201.18" width="3.13" height="6.71"/>
            <rect class="cls-14" x="528.51" y="194.08" width="0.52" height="1.39"/>
            <rect class="cls-14" x="529.56" y="194.08" width="0.52" height="1.39"/>
            <rect class="cls-15" x="548.72" y="206.66" width="3.06" height="0.91"/>
            <polygon class="cls-5" points="548.25 199.79 546.28 199.79 546.28 197.83 544.02 197.83 544.02 199.79 542.06 199.79 542.06 202.06 544.02 202.06 544.02 204.02 546.28 204.02 546.28 202.06 548.25 202.06 548.25 199.79"/>
            <rect class="cls-14" x="535.95" y="201.18" width="0.91" height="6.71"/>
            <rect class="cls-18" x="527.7" y="208.09" width="24.85" height="0.31"/>
          </g>
          <polygon class="cls-19" points="595.58 290.97 473.03 134.82 473.03 290.56 595.58 290.97"/>
        </g>
        <path class="cls-3" d="M595.58,134.82V290.31H473.09V134.82H595.58m4-4H469.09V294.31H599.58V130.82Z"/>
        <g id="BOXES">
          <g>
            <rect class="cls-17" x="511.4" y="295.32" width="35.33" height="35.33"/>
            <rect class="cls-15" x="488.17" y="295.32" width="23.23" height="35.33"/>
            <rect class="cls-15" x="524.15" y="295.32" width="9.83" height="4.81"/>
            <rect class="cls-14" x="490.08" y="321.28" width="15.82" height="7.37"/>
            <rect class="cls-14" x="490.08" y="296.85" width="1.23" height="3.28"/>
            <rect class="cls-14" x="492.54" y="296.85" width="1.23" height="3.28"/>
            <rect class="cls-5" x="537.7" y="326.5" width="7.22" height="2.15"/>
            <polygon class="cls-5" points="536.59 310.31 531.96 310.31 531.96 305.69 526.62 305.69 526.62 310.31 522 310.31 522 315.65 526.62 315.65 526.62 320.27 531.96 320.27 531.96 315.65 536.59 315.65 536.59 310.31"/>
            <rect class="cls-14" x="490.08" y="317.59" width="15.82" height="2.14"/>
          </g>
          <g>
            <rect class="cls-17" x="511.4" y="259.99" width="35.33" height="35.33"/>
            <rect class="cls-15" x="488.17" y="259.99" width="23.23" height="35.33"/>
            <rect class="cls-15" x="524.15" y="259.99" width="9.83" height="4.81"/>
            <rect class="cls-14" x="490.08" y="285.95" width="15.82" height="7.37"/>
            <rect class="cls-14" x="490.08" y="261.52" width="1.23" height="3.28"/>
            <rect class="cls-14" x="492.54" y="261.52" width="1.23" height="3.28"/>
            <rect class="cls-5" x="537.7" y="291.17" width="7.22" height="2.15"/>
            <polygon class="cls-14" points="536.59 274.98 531.96 274.98 531.96 270.36 526.62 270.36 526.62 274.98 522 274.98 522 280.32 526.62 280.32 526.62 284.94 531.96 284.94 531.96 280.32 536.59 280.32 536.59 274.98"/>
            <rect class="cls-14" x="490.08" y="282.26" width="15.82" height="2.14"/>
          </g>
          <rect class="cls-18" x="488.17" y="295.32" width="58.56" height="0.47"/>
          <g>
            <rect class="cls-17" x="511.4" y="224.63" width="35.33" height="35.33"/>
            <rect class="cls-15" x="488.17" y="224.63" width="23.23" height="35.33"/>
            <rect class="cls-15" x="524.15" y="224.63" width="9.83" height="4.81"/>
            <rect class="cls-14" x="490.08" y="250.59" width="15.82" height="7.37"/>
            <rect class="cls-14" x="490.08" y="226.17" width="1.23" height="3.28"/>
            <rect class="cls-14" x="492.54" y="226.17" width="1.23" height="3.28"/>
            <rect class="cls-5" x="537.7" y="255.81" width="7.22" height="2.15"/>
            <polygon class="cls-14" points="536.59 239.63 531.96 239.63 531.96 235 526.62 235 526.62 239.63 522 239.63 522 244.96 526.62 244.96 526.62 249.59 531.96 249.59 531.96 244.96 536.59 244.96 536.59 239.63"/>
            <rect class="cls-14" x="490.08" y="246.9" width="15.82" height="2.14"/>
          </g>
          <rect class="cls-18" x="488.17" y="259.96" width="58.56" height="0.47"/>
          <g>
            <rect class="cls-17" x="412.78" y="295.32" width="35.33" height="35.33"/>
            <rect class="cls-15" x="448.11" y="295.32" width="28.28" height="35.33"/>
            <rect class="cls-15" x="425.53" y="295.32" width="9.83" height="4.81"/>
            <rect class="cls-14" x="458.45" y="321.28" width="15.82" height="7.37"/>
            <rect class="cls-14" x="473.04" y="296.85" width="1.23" height="3.28"/>
            <rect class="cls-14" x="470.58" y="296.85" width="1.23" height="3.28"/>
            <rect class="cls-5" x="414.59" y="326.5" width="7.22" height="2.15"/>
            <polygon class="cls-14" points="422.93 310.31 427.55 310.31 427.55 305.69 432.89 305.69 432.89 310.31 437.51 310.31 437.51 315.65 432.89 315.65 432.89 320.27 427.55 320.27 427.55 315.65 422.93 315.65 422.93 310.31"/>
            <rect class="cls-14" x="458.45" y="317.59" width="15.82" height="2.14"/>
            <rect class="cls-14" x="467.93" y="296.85" width="1.23" height="3.28"/>
          </g>
          <g>
            <rect class="cls-17" x="423.48" y="268.9" width="26.42" height="26.42"/>
            <rect class="cls-15" x="449.91" y="268.9" width="21.15" height="26.42"/>
            <rect class="cls-14" x="457.63" y="288.31" width="11.83" height="5.51"/>
            <rect class="cls-14" x="468.55" y="270.04" width="0.92" height="2.45"/>
            <rect class="cls-14" x="466.71" y="270.04" width="0.92" height="2.45"/>
            <rect class="cls-5" x="424.84" y="292.21" width="5.4" height="1.61"/>
            <polygon class="cls-5" points="431.07 280.11 434.53 280.11 434.53 276.65 438.52 276.65 438.52 280.11 441.98 280.11 441.98 284.1 438.52 284.1 438.52 287.56 434.53 287.56 434.53 284.1 431.07 284.1 431.07 280.11"/>
            <rect class="cls-14" x="457.63" y="285.55" width="11.83" height="1.6"/>
            <rect class="cls-14" x="464.73" y="270.04" width="0.92" height="2.45"/>
            <polygon class="cls-15" points="441.32 278.73 414.9 278.73 423.48 268.89 449.9 268.89 441.32 278.73"/>
            <polygon class="cls-17" points="458.49 278.73 479.7 278.73 471.11 268.89 449.9 268.89 458.49 278.73"/>
            <rect class="cls-18" x="423.48" y="294.84" width="47.57" height="0.47"/>
          </g>
          <g>
            <rect class="cls-17" x="634.12" y="304.16" width="26.42" height="26.42"/>
            <rect class="cls-15" x="660.54" y="304.16" width="21.15" height="26.42"/>
            <rect class="cls-17" x="668.27" y="323.57" width="11.83" height="5.51"/>
            <rect class="cls-14" x="679.18" y="305.31" width="0.92" height="2.45"/>
            <rect class="cls-14" x="677.34" y="305.31" width="0.92" height="2.45"/>
            <rect class="cls-15" x="635.47" y="327.48" width="5.4" height="1.61"/>
            <polygon class="cls-14" points="641.7 315.37 645.16 315.37 645.16 311.91 649.15 311.91 649.15 315.37 652.61 315.37 652.61 319.36 649.15 319.36 649.15 322.82 645.16 322.82 645.16 319.36 641.7 319.36 641.7 315.37"/>
            <rect class="cls-14" x="668.27" y="320.81" width="11.83" height="1.6"/>
            <rect class="cls-14" x="675.36" y="305.31" width="0.92" height="2.45"/>
            <polygon class="cls-15" points="651.95 313.99 625.53 313.99 634.12 304.16 660.54 304.16 651.95 313.99"/>
            <polygon class="cls-17" points="669.12 313.99 690.33 313.99 681.74 304.16 660.54 304.16 669.12 313.99"/>
          </g>
          <g>
            <rect class="cls-17" x="613.1" y="315.59" width="14.99" height="14.99"/>
            <rect class="cls-15" x="628.09" y="315.59" width="9.86" height="14.99"/>
            <rect class="cls-15" x="618.51" y="315.59" width="4.17" height="2.04"/>
            <rect class="cls-14" x="630.36" y="323.34" width="3.13" height="6.71"/>
            <rect class="cls-14" x="636.62" y="316.24" width="0.52" height="1.39"/>
            <rect class="cls-14" x="635.58" y="316.24" width="0.52" height="1.39"/>
            <rect class="cls-15" x="613.87" y="328.82" width="3.06" height="0.91"/>
            <polygon class="cls-5" points="617.41 321.95 619.37 321.95 619.37 319.99 621.63 319.99 621.63 321.95 623.6 321.95 623.6 324.22 621.63 324.22 621.63 326.18 619.37 326.18 619.37 324.22 617.41 324.22 617.41 321.95"/>
            <rect class="cls-14" x="628.8" y="323.34" width="0.91" height="6.71"/>
          </g>
          <g>
            <rect class="cls-17" x="348.53" y="305.6" width="24.96" height="24.96"/>
            <rect class="cls-15" x="373.49" y="305.6" width="19.98" height="24.96"/>
            <rect class="cls-15" x="357.54" y="305.6" width="6.95" height="3.4"/>
            <rect class="cls-14" x="380.79" y="323.94" width="11.18" height="5.21"/>
            <rect class="cls-14" x="391.1" y="306.69" width="0.87" height="2.32"/>
            <rect class="cls-14" x="389.37" y="306.69" width="0.87" height="2.32"/>
            <rect class="cls-5" x="349.81" y="327.63" width="5.1" height="1.52"/>
            <polygon class="cls-14" points="355.7 316.2 358.97 316.2 358.97 312.93 362.74 312.93 362.74 316.2 366 316.2 366 319.96 362.74 319.96 362.74 323.24 358.97 323.24 358.97 319.96 355.7 319.96 355.7 316.2"/>
            <rect class="cls-14" x="380.79" y="321.34" width="11.18" height="1.51"/>
            <rect class="cls-14" x="387.5" y="306.69" width="0.87" height="2.32"/>
          </g>
          <g>
            <rect class="cls-17" x="379.57" y="315.62" width="14.99" height="14.99"/>
            <rect class="cls-15" x="394.56" y="315.62" width="9.86" height="14.99"/>
            <rect class="cls-14" x="384.98" y="315.62" width="4.17" height="2.04"/>
            <rect class="cls-14" x="396.83" y="323.37" width="3.13" height="6.71"/>
            <rect class="cls-14" x="403.09" y="316.28" width="0.52" height="1.39"/>
            <rect class="cls-14" x="402.04" y="316.28" width="0.52" height="1.39"/>
            <rect class="cls-15" x="380.34" y="328.86" width="3.06" height="0.91"/>
            <polygon class="cls-5" points="383.87 321.99 385.84 321.99 385.84 320.02 388.1 320.02 388.1 321.99 390.06 321.99 390.06 324.25 388.1 324.25 388.1 326.21 385.84 326.21 385.84 324.25 383.87 324.25 383.87 321.99"/>
            <rect class="cls-14" x="395.26" y="323.37" width="0.91" height="6.71"/>
          </g>
        </g>
        <path id="GROUND" class="cls-6" d="M698.57,333.06h-642a1.25,1.25,0,0,1,0-2.5h642a1.25,1.25,0,0,1,0,2.5Z"/>
      </g>
      <circle class="cls-5" cx="343.32" cy="148.89" r="85.51"/>
      <g>
        <path class="cls-20" d="M281.14,196.26l133.06-13.9a78.42,78.42,0,1,0-133.06,13.9Z"/>
        <path class="cls-21" d="M366.45,147a35.33,35.33,0,0,1-5.14,4.91A18.84,18.84,0,0,1,344.06,155l.39,2a19.47,19.47,0,0,1-3.77,10.13,8.43,8.43,0,0,0-1.07.34,25.7,25.7,0,0,0,25.91-3.28,53.87,53.87,0,0,0,4.65-4.08C367.34,156.77,366.59,151.06,366.45,147Z"/>
        <path class="cls-22" d="M333.13,147c-.14,4.06-.89,9.77-3.72,13.1a53.87,53.87,0,0,0,4.65,4.08,25.41,25.41,0,0,0,6.22,3.55,6.57,6.57,0,0,1,.67-.18,19.72,19.72,0,0,0,4-10.59l-.35-1.84a18.8,18.8,0,0,1-6.32-3.21,35.8,35.8,0,0,1-5.13-4.91Z"/>
        <path class="cls-21" d="M375.38,73.77c-13.5-9.75-23.44-12.77-34.75-9l.09,0a24.92,24.92,0,0,0-1.65,8c-.14,6,2.43,10.43,7.47,13a6.75,6.75,0,0,0-.31.83,30.08,30.08,0,0,1,20.91,5.24,15,15,0,0,1,5.13,7.36l1.39,5.44,3,6.68a5.31,5.31,0,0,1,4.29-.64h0l1.34-20.91c.57-6-2.06-12.49-6.9-16Z"/>
        <path class="cls-22" d="M347.18,85.55c-12.56-5.89-5.84-21-5.84-21-5.26,1.61-10.81,4.7-17.14,9.27-4.85,3.5-7.47,10-6.9,16l1.34,20.9h0a5.32,5.32,0,0,1,4.3.64l3-6.68,1.4-5.44a15,15,0,0,1,5.13-7.36,29.22,29.22,0,0,1,14.31-5.29A5.16,5.16,0,0,1,347.18,85.55Z"/>
        <path class="cls-23" d="M372.27,98.24a15,15,0,0,0-5.13-7.36,30,30,0,0,0-20.85-5.24l.25.13a4.85,4.85,0,0,0-.36,3.23,3.82,3.82,0,0,0,1.71,2.16,5.94,5.94,0,0,0-.35.55,36.91,36.91,0,0,1,19.6,4.12,12.15,12.15,0,0,1,5.13,5.67l2,4.45Z"/>
        <path class="cls-21" d="M348.6,91c-3.59-1.8-1.45-5.39-1.42-5.46a29.2,29.2,0,0,0-14.74,5.33,15,15,0,0,0-5.13,7.36l-2,7.71,2-4.45a12.1,12.1,0,0,1,5.13-5.67,35.51,35.51,0,0,1,15.66-4.14A6.47,6.47,0,0,1,348.6,91Z"/>
        <path class="cls-21" d="M381.32,110.38c-1.3-1.19-4.22-.58-5.34.15a15.69,15.69,0,0,1,0,4.64l-1.33,9.65c0,.78,0,1.54-.07,2.29,3.23,1,5.15-1.92,5.42-3.91a14.5,14.5,0,0,1,.58-2.53c.85-2.68,3.95-7.29.69-10.29Z"/>
        <path class="cls-22" d="M318.26,110.38c1.3-1.19,4.22-.58,5.34.15a15.69,15.69,0,0,0-.05,4.64l1.33,9.65c0,.78,0,1.54.06,2.29-3.23,1-5.15-1.92-5.42-3.91a13.63,13.63,0,0,0-.57-2.53c-.86-2.68-4-7.29-.69-10.29Z"/>
        <path class="cls-24" d="M376.08,109.41,373.66,104l-1.39-3.14a12.15,12.15,0,0,0-5.13-5.67,36.82,36.82,0,0,0-19.39-4.13l.14.1a6.1,6.1,0,0,0,.06,7.68,3.26,3.26,0,0,0-.86,2.1,2.57,2.57,0,0,0,.91,1.86c-.81,1.53-3.53,7.58,1.13,11.74a3.67,3.67,0,0,0,.18,4.67V139.1a18.23,18.23,0,0,0,4,11.48,18.69,18.69,0,0,0,5,4.34,19.2,19.2,0,0,0,3-1.9A35.48,35.48,0,0,0,375,124.82l1.32-9.65a15.72,15.72,0,0,0-.26-5.76Z"/>
        <path class="cls-25" d="M358.81,154.65a18.41,18.41,0,0,1-5.17-4.37,17.72,17.72,0,0,1-3.85-11.18V119c-2.11-2.12,0-4.55,0-4.55-5.63-4.56-1.19-11.78-1.19-11.78-2.33-1.83,0-3.84,0-3.84-3.45-3.69-.25-7.54,0-7.82a35.76,35.76,0,0,0-16.15,4.16,12.1,12.1,0,0,0-5.13,5.67l-1.4,3.14h0l-2.4,5.4a15.55,15.55,0,0,0-.28,5.77l1.33,9.65a35.48,35.48,0,0,0,13.7,28.2,18.81,18.81,0,0,0,20.55,1.63Z"/>
        <path class="cls-26" d="M328.16,122.48l-7.66-12a1.44,1.44,0,1,1,2.43-1.55l7.65,12a1.44,1.44,0,1,1-2.42,1.55Z"/>
        <path class="cls-26" d="M369.93,122.83a1.44,1.44,0,0,1-.44-2l7.6-11.91a1.44,1.44,0,0,1,2.43,1.55l-7.6,11.91A1.44,1.44,0,0,1,369.93,122.83Z"/>
        <path class="cls-27" d="M370.33,120.5a27.18,27.18,0,0,1-14-3.33,13,13,0,0,0-7.68-1.74,3.46,3.46,0,0,0,.64,3.78v19.9a18.22,18.22,0,0,0,4,11.47,18.67,18.67,0,0,0,5.62,4.67,20.17,20.17,0,0,0,2.42-1.59,36.08,36.08,0,0,0,8.35-9.27,12.75,12.75,0,0,0,1.9-6.15l.6-15.16c.07-1.43-.78-2.61-1.83-2.58Z"/>
        <path class="cls-26" d="M349.79,157.6a18.84,18.84,0,0,0,9.59-2.63,18.56,18.56,0,0,1-5.74-4.69,17.72,17.72,0,0,1-3.85-11.18V119a3,3,0,0,1-.58-3.63,13.37,13.37,0,0,0-6,1.78,27.16,27.16,0,0,1-14,3.33c-1,0-1.89,1.15-1.82,2.58l.6,15.16a12.65,12.65,0,0,0,1.9,6.15,36.06,36.06,0,0,0,8.34,9.27,18.83,18.83,0,0,0,11.53,3.94Z"/>
        <path class="cls-21" d="M391.33,210.69l10.71-10a78.54,78.54,0,0,0,12.16-18.31c-7.05-12.8-32.9-19.47-32.9-19.47h-.52a62.08,62.08,0,0,1-9.34,9,35.38,35.38,0,0,1-36.93,3.93c0,.15,0,.31.07.46a35.79,35.79,0,0,0-12.22,2.93c-5.89,2.64-12.9,8.24-12.9,19.9v20.18a78.47,78.47,0,0,0,81.87-8.62Z"/>
        <path class="cls-22" d="M318.8,162.89h-.52S291.43,169.81,285,183.1a54.26,54.26,0,0,0-3.86,13.16,78.63,78.63,0,0,0,28.8,23.28V199.13c0-22.08,25.23-22.37,25.23-22.37-.06-.23-.11-.46-.15-.68a35.27,35.27,0,0,1-6.88-4.17,61.61,61.61,0,0,1-9.34-9Z"/>
        <path class="cls-23" d="M375.92,158.48a3.93,3.93,0,0,0-5.35.36,49.84,49.84,0,0,1-5.71,5.2,24.63,24.63,0,0,1-24.65,3.21,8.72,8.72,0,0,0-4.75,3.4,7.54,7.54,0,0,0-.88,5.65l-.34,0a35.39,35.39,0,0,0,37.2-3.8,61.82,61.82,0,0,0,9.86-9.63Z"/>
        <path class="cls-21" d="M334.72,164a50.78,50.78,0,0,1-5.72-5.2,3.93,3.93,0,0,0-5.35-.36l-5.37,4.41a61.41,61.41,0,0,0,9.86,9.63,34.2,34.2,0,0,0,7,4.23c-1.86-7.69,5.78-9.2,5.78-9.2a23.89,23.89,0,0,1-6.23-3.51Z"/>
        <path class="cls-28" d="M376.27,103.76c-2-3.16-4.68-4.91-7.45-4.91H347.94a3.28,3.28,0,0,0-.85,2.09,2.57,2.57,0,0,0,.91,1.86c-.81,1.53-3.53,7.58,1.13,11.74a3.66,3.66,0,0,0,.16,4.64.84.84,0,0,1,1.15.14c4.56,5.39,8,6.57,10.14,6.57h6.63a8.62,8.62,0,0,0,6.23-2.74,13.15,13.15,0,0,0,3.82-8.88v-7.06A6.39,6.39,0,0,0,376.27,103.76Z"/>
        <path class="cls-29" d="M349.14,119.32a.85.85,0,0,1,.65-.3c-2.11-2.12,0-4.55,0-4.55-5.63-4.56-1.19-11.78-1.19-11.78-2.33-1.83,0-3.84,0-3.84H330.76c-2.77,0-5.41,1.75-7.45,4.91a6.4,6.4,0,0,0-1,3.45v7.06a13.11,13.11,0,0,0,3.83,8.88,8.62,8.62,0,0,0,6.23,2.74H339c2.13,0,5.57-1.18,10.14-6.57Z"/>
        <path class="cls-25" d="M366.05,102.7H361a27.84,27.84,0,0,1-8.76,0h-4.31l.11.1c-.81,1.53-3.53,7.57,1.13,11.74a3.43,3.43,0,0,1,3.42,1.28c.16.22.33.43.5.63a14,14,0,0,1,3.3,1.36,27.06,27.06,0,0,0,13.57,3.34,3.19,3.19,0,0,0,.4-.33,13,13,0,0,1,3.05-5.71,7.89,7.89,0,0,0,.05-.84v-4.21a35.57,35.57,0,0,0-7.37-7.36Z"/>
        <path class="cls-30" d="M347,115.82a3.53,3.53,0,0,1,2.76-1.35c-5.63-4.56-1.19-11.78-1.19-11.78H330.76c-2,0-3.61,2.21-4.22,3.15a2.57,2.57,0,0,0-.39,1.37v7.06a9.38,9.38,0,0,0,2.79,6.25,4.65,4.65,0,0,0,.71.63,27,27,0,0,0,13.57-3.34,14,14,0,0,1,3.31-1.36Z"/>
        <path class="cls-31" d="M370.63,120.53a1.53,1.53,0,0,0-.3,0,27.18,27.18,0,0,1-14-3.33,13.55,13.55,0,0,0-4-1.52l.16.17c3.07,3.9,6.08,6.23,8,6.23h6.63A4.68,4.68,0,0,0,370.63,120.53Z"/>
        <path class="cls-32" d="M343.22,117.17a27.16,27.16,0,0,1-14,3.33,1.36,1.36,0,0,0-.29,0,4.68,4.68,0,0,0,3.42,1.52H339c1.95,0,4.95-2.33,8-6.23l.15-.17A13.77,13.77,0,0,0,343.22,117.17Z"/>
        <path class="cls-24" d="M368.82,102.7h-2.77l7.37,7.36v-2.85a2.57,2.57,0,0,0-.38-1.37C372.43,104.9,370.8,102.7,368.82,102.7Z"/>
        <path class="cls-24" d="M361,102.7H352.2l18.12,18.12a3,3,0,0,0,.32-.3,9.84,9.84,0,0,0,2.73-5.41Z"/>
        <path class="cls-22" d="M352.3,166.78h-5a1.9,1.9,0,0,0-1.9,1.9V227a80.07,80.07,0,0,0,8.82-.72V168.68a1.9,1.9,0,0,0-1.9-1.9Z"/>
        <path class="cls-33" d="M279.37,103.38c9.27,6.64,23.55,7,28.93-2.42,3.58-6.23-.06-14.73-3.56-20.55a78.75,78.75,0,0,0-25.37,23Z"/>
        <path class="cls-33" d="M421.81,148.63a78.23,78.23,0,0,0-26.55-58.81c-3.19,4.23-4.14,11-2.23,20.24,3.84,18.52-21,22.45-5.44,42.27,8.14,10.34,22,10.4,33.33,8.14a79.71,79.71,0,0,0,.89-11.84Z"/>
        <path class="cls-34" d="M349.79,207.72a4.6,4.6,0,0,1-4.41-3.29V227a80.07,80.07,0,0,0,8.82-.72V204.43a4.61,4.61,0,0,1-4.41,3.29Z"/>
        <path class="cls-22" d="M402,200.67a26.67,26.67,0,0,0-5.82-9.22,2.85,2.85,0,0,0-4.89,2v17.25a79.35,79.35,0,0,0,10.71-10Z"/>
        <g>
          <g id="Circle_Grid" data-name="Circle Grid">
            <circle class="cls-35" cx="287.68" cy="137.02" r="26.58"/>
          </g>
          <g id="icon">
            <path class="cls-36" d="M287.68,119.37A17.65,17.65,0,1,0,305.33,137,17.65,17.65,0,0,0,287.68,119.37Z"/>
            <path class="cls-37" d="M287.68,121.47A15.55,15.55,0,1,0,303.23,137,15.55,15.55,0,0,0,287.68,121.47Z"/>
            <g>
              <path class="cls-36" d="M287.92,130a7,7,0,0,0-4,1.28,4.76,4.76,0,0,0,1.28,1.29,5.22,5.22,0,0,1,5.49,0,4.8,4.8,0,0,0,1.29-1.29,6.94,6.94,0,0,0-4-1.28Zm-5.19,7a3.46,3.46,0,0,1,0-.46,5.06,5.06,0,0,0-1.72-.65,7,7,0,0,0,3.41,7.16,4.74,4.74,0,0,0,.57-1.75,5.19,5.19,0,0,1-2.28-4.3Zm12.15-.4a4.71,4.71,0,0,0-1.77.4,5.21,5.21,0,0,1-2.91,4.66,4.92,4.92,0,0,0,.41,1.77,7,7,0,0,0,4.28-6.43C294.89,136.88,294.89,136.75,294.88,136.62Z"/>
              <path class="cls-36" d="M285.38,133.48l-.11-.06A5.51,5.51,0,0,1,283.1,126a5.37,5.37,0,0,1,1.35-1.61A7.17,7.17,0,0,0,281,132.7a7.19,7.19,0,0,0-6.2,6.76A5.5,5.5,0,0,1,285,138l1.16-.67a1.73,1.73,0,0,1,0-.32,1.79,1.79,0,0,1,1.27-1.73v-1.22a5.69,5.69,0,0,1-2-.59Zm11.76.83a7.11,7.11,0,0,0-2.57-1,7.18,7.18,0,0,0-3.18-9,5.5,5.5,0,0,1-2.94,9.73v1.22a1.8,1.8,0,0,1,1.28,1.73,1.68,1.68,0,0,1-.06.45l1,.7a5.5,5.5,0,0,1,9.85,2.62,7.19,7.19,0,0,0-3.37-6.48Zm-5,11.83a5.49,5.49,0,0,1-2-7l-1-.71a1.81,1.81,0,0,1-2.48-.09l-1.22.7a5.5,5.5,0,0,1-7.53,6.71,7.19,7.19,0,0,0,9.57-1.18,7.18,7.18,0,0,0,9.38,2.16A5.47,5.47,0,0,1,292.14,146.14Z"/>
            </g>
          </g>
        </g>
      </g>
    </g>
  </g>
</svg>
