<svg id="Layer_1" data-name="Layer 1" xmlns="http://www.w3.org/2000/svg" width="185.98" height="330.68" viewBox="0 0 185.98 330.68">
  <defs>
    <style>
      .cls-1 {
        opacity: 0.45;
      }

      .cls-2 {
        fill: #acf9d0;
      }

      .cls-3 {
        fill: #d7ffeb;
        opacity: 0.63;
      }

      .cls-4 {
        fill: #93c4e2;
      }

      .cls-5 {
        fill: #aed8f7;
      }

      .cls-6 {
        fill: #ef6e4b;
      }

      .cls-7 {
        fill: #ff8b66;
      }

      .cls-8 {
        fill: #db614d;
      }

      .cls-9 {
        fill: #0c476b;
      }

      .cls-10 {
        fill: #1a4850;
      }

      .cls-11 {
        fill: #cfd8dc;
      }

      .cls-12, .cls-15 {
        fill: none;
        stroke-miterlimit: 10;
      }

      .cls-12 {
        stroke: #cfd8dc;
      }

      .cls-13 {
        fill: #537a9b;
      }

      .cls-14 {
        fill: #bcc6c9;
      }

      .cls-15 {
        stroke: #93c4e2;
        stroke-width: 3px;
      }

      .cls-16 {
        fill: #75afc6;
      }

      .cls-17 {
        fill: #333951;
      }

      .cls-18 {
        fill: #22b573;
      }
    </style>
  </defs>
  <g class="cls-1">
    <path class="cls-2" d="M54.53,298.85S-2,284.16,14.29,201.43,51.15,129.23,39.9,98.15s9-50.42,25.78-59.1c15.7-8.11,80.5-14.64,95.63,26.74s-7.73,94.71-5.43,123.11,16.55,42.52,10.64,68C159.37,287.71,131.24,317.05,54.53,298.85Z"/>
    <path class="cls-3" d="M64.59,314.42S12.25,302.77,20.81,212,48.81,131,36.28,98.21,40.64,43,55.22,32.29c13.63-10,71.87-21.92,88.69,21.75s.08,103.13,4.3,133.7,18.18,44.79,14.74,72.8C158.78,294.46,135.47,328.35,64.59,314.42Z"/>
  </g>
  <g>
    <path class="cls-4" d="M60.41,103s-12.89,23.61-28.75,29.86c-8.78,3.46-15.47-.18-18-6.75-1.07-2.77-2.92-9.74.75-20.91,2.08-6.34,17.4-.46,18.37-1.57s3.68-7,6.86-13.42C43.71,82,48.55,73,51.45,72.39Z"/>
    <g>
      <path class="cls-5" d="M55.92,165.78c-3.41,2.71-.09,25.74,1.56,48.41,1.7,23.29,6,61.39,10.49,71.21.23.51,2.64-.83,2.86-.32.36.83,4.69,4.64,5.71,4.32l9.46-3a38.71,38.71,0,0,1,.76-6.84c2.1-7.6-3.83-75.64,2.1-74.86,2.53.34,5.25,7.19,12.62,36.67,4.21,16.82,3.23,34.25,10.69,45l16.17,5.26c2.51-36.3-4.24-36.41-7.56-91-2-33.66-7-36.69-7-36.69l-26.61.9S56.17,165.57,55.92,165.78Z"/>
      <path class="cls-5" d="M76.54,289.4l-1,.33C76.17,289.73,76.49,289.61,76.54,289.4Z"/>
    </g>
    <path class="cls-4" d="M120.75,70.77s5.91,23.17,9.12,41.73c0,0,20.52,28.25,21.2,32.89,0,0,.35,9.31-10.36,9.34,0,0-4.52.9-28.91-29.1-8.22-10.1-23.69-45.22-23.69-45.22Z"/>
    <path class="cls-4" d="M84,29.32c11,.13,18.47,6.28,15.47,24.77s-16.44,21-25,12.51S62.78,29.06,84,29.32Z"/>
    <path class="cls-4" d="M55.92,153.79v12S94.16,171,113.83,164l-1.5-12.61Z"/>
    <path class="cls-6" d="M90.88,58.37s-1.61,6.61.84,9.24c0,0-4,6.45-13-.06,0,0,1.72-4.34,0-7.17Z"/>
    <g>
      <path class="cls-7" d="M73.19,46.51s-3.4-3.39-3.82.57c-.48,4.59,3.69,6.44,4.5,5S73.19,46.51,73.19,46.51Z"/>
      <path class="cls-7" d="M97,46.75s3.4-3.39,3.82.57c.48,4.59-3.69,6.44-4.5,5S97,46.75,97,46.75Z"/>
      <path class="cls-7" d="M84.72,63.14c-7.53,0-11.79-4.93-11.79-19.69,0-7.62,3.88-12.29,12.32-12.29s12,4.67,12,12.29C97.25,59.31,92.51,63.14,84.72,63.14Z"/>
      <path class="cls-8" d="M94.75,48.71a1.79,1.79,0,1,1-2-1.07A1.59,1.59,0,0,1,94.75,48.71Z"/>
      <path class="cls-8" d="M79.25,49.13a1.79,1.79,0,1,1-1.65-1.51A1.6,1.6,0,0,1,79.25,49.13Z"/>
      <path class="cls-9" d="M92.31,40.93a.39.39,0,0,1-.29-.07,4.29,4.29,0,0,0-3-.59.39.39,0,0,1-.44-.3.38.38,0,0,1,.31-.44,5,5,0,0,1,3.62.73.38.38,0,0,1,.07.53A.35.35,0,0,1,92.31,40.93Z"/>
      <path class="cls-9" d="M77.88,41.71a.34.34,0,0,1-.24-.13.38.38,0,0,1,0-.53,5.07,5.07,0,0,1,3.6-.85.37.37,0,0,1,.31.43.39.39,0,0,1-.43.32,4.29,4.29,0,0,0-3,.68A.35.35,0,0,1,77.88,41.71Z"/>
      <path class="cls-10" d="M91.53,45.19c0,.93-.42,1.69-.94,1.69s-.94-.76-.94-1.69.42-1.7.94-1.7S91.53,44.25,91.53,45.19Z"/>
      <path class="cls-10" d="M81.46,45.19c0,.93-.42,1.69-.94,1.69s-.94-.76-.94-1.69.42-1.7.94-1.7S81.46,44.25,81.46,45.19Z"/>
      <path class="cls-9" d="M76.28,34.77s5.24-.36,16.76-1.19c0,0,4.21,4.39,3.91,15.19,0,0,6.74-19.45-12.94-19.45s-10.82,19-10.82,19S72.62,38.42,76.28,34.77Z"/>
      <path class="cls-8" d="M85.2,50.08l-.56-.56L86.13,48c-1.45-2-1.44-6.77-1.44-7h.8c0,.05,0,5.14,1.47,6.74l.26.29Z"/>
      <path class="cls-10" d="M80.2,52.55s7.42.31,11.16-.68a5,5,0,0,1-5.09,5.66C80.2,57.82,80.2,52.55,80.2,52.55Z"/>
      <path class="cls-11" d="M78.69,54.15a9.21,9.21,0,0,1,7.62-7.48c3.09-.27,7.78,3.65,7.77,9.06a7.71,7.71,0,0,1-7.26,7.75C81,63.88,77.9,58.82,78.69,54.15Z"/>
      <path class="cls-12" d="M72.41,46.31s2,5.09,10.47,7.26,12.91-2.84,14.42-8"/>
      <path class="cls-12" d="M74.51,55.7s4.06,7.6,12.31,7.12c8.5-.5,9.5-9.31,9.5-9.31"/>
      <path class="cls-13" d="M97.3,39c-9.59-2-24.89,1.12-24.89,1.12v7s3.63,3.83,7.17,3,3.57-3.3,6.21-3.52c2.48-.21,3,2.32,7.25,2.35s4.56-2.8,4.56-2.8Zm-4.2,8.47a6.17,6.17,0,0,1-3.82-1.21,5.68,5.68,0,0,0-3.2-1.15h-.41a5.57,5.57,0,0,0-3.62,1.9,5.41,5.41,0,0,1-2.8,1.66,3.73,3.73,0,0,1-.68.07c-1.76,0-3.69-1.4-4.66-2.28v-5.1a95.4,95.4,0,0,1,15.67-1.55,39.89,39.89,0,0,1,6.27.44l.25,5.79C96,46.43,95.49,47.51,93.1,47.51Z"/>
    </g>
    <g>
      <path class="cls-11" d="M157.58,179.25c.08-1.33-1.16-5.27-1.16-5.27-1.52-2.94-2.35-4.57-2.36-6.45s-2.12-3.59-2.12-3.59,2.1-4.51,6.75-4.57c0,0,1.3,2.3,2.06,2.64,1.51.7,3.93-.18,6.43,1.66a23.41,23.41,0,0,0,6.53,2.94s.39,1.67-1.22,1.73-3.77-1.32-4.48-1.07a1.92,1.92,0,0,0-.41.19h0a1.77,1.77,0,0,0-.91,1.19.17.17,0,0,0,0,.11c-.09,1.84,2.21,5.25,3.37,6.66,1.62,2,3.71,4.81,2.12,5.3s-1.35-1.51-5.75-5.21l-.5.3c-.33-.25,1.16,3.41,3.16,6.4,1.37,2.05-.46,2.33-1.22,1.93S166,181.49,165,180c-.65-1-1.33-2-1.73-2.62l-.77.12c.69,4.88,2.44,5.77,1.36,6.71s-2.88-2.22-3.12-3.77a13,13,0,0,0-1.16-3c-.2,3.84.95,4.86-.07,5.43S157.5,180.57,157.58,179.25Z"/>
      <path class="cls-14" d="M162,167.3c2.11,1.33,5.16.31,5.53.17a1.77,1.77,0,0,0-.91,1.19A4.26,4.26,0,0,1,162,167.3Z"/>
    </g>
    <path class="cls-5" d="M120,66.6c-3.25-4.25-19.15-1.79-19.15-1.79S110,23.73,83.52,24.57s-14.19,43-14.19,43-18.18.33-21,8.23,2.54,75,7.61,78,52.43,1.66,56.41-2.36S123.24,70.85,120,66.6ZM98.06,47.15C96.82,57.57,92.17,66.6,86.33,66.6S73,56.56,71.73,47.15,77.57,36.9,84.86,36.23C91.46,35.63,99.31,36.73,98.06,47.15Z"/>
    <path class="cls-4" d="M71.2,66.6s13.61,13.78,29,0c0,0-7,14.83-16.56,13.53,0,0,7.27,3.44,12.46.94,0,0-3.09,7.25-8.83,7S75.48,77.34,75.48,77.34s9.58,1.44,14.17-1.54C89.65,75.8,81.42,81.13,71.2,66.6Z"/>
    <path class="cls-15" d="M86.33,66.6a42.67,42.67,0,0,1,0,9.2s.13,38.51.89,51.39-.35,30.21-.35,30.21"/>
    <path class="cls-4" d="M147.81,318.57a14.63,14.63,0,0,1-.11,1.87H115.82a6.55,6.55,0,0,0,.05-1.87c-2.22-7.08-.05-15.59-.05-15.59l11-3.41A12.7,12.7,0,0,0,131.5,308a10.8,10.8,0,0,0,1.82,1.17,9.2,9.2,0,0,0,.89.44,15.52,15.52,0,0,0,2,.75,48.93,48.93,0,0,0,7.65,1.34C147.29,312.24,147.81,316.17,147.81,318.57Z"/>
    <path class="cls-4" d="M94.23,318.57a7.93,7.93,0,0,1-.36,1.87H72.64a9.69,9.69,0,0,1-.6-1.87c-2.09-10.16,12-22.6,12-22.6l4.48,6s-.52,9.56,3.27,11.55A4.86,4.86,0,0,1,94.23,318.57Z"/>
    <path class="cls-4" d="M72.76,311.49s-.69-3.52-2.21-4.79-4.11-21.73-7.4-32.37c0,0,15.5-5.12,25.64-.31,0,0,.16,19.38,0,25.55A27.41,27.41,0,0,1,86.51,310Z"/>
    <path class="cls-4" d="M116.37,311.36a12.42,12.42,0,0,1-2.36-4.74c-.55-2.59-4.55-18.33-6.89-30.22,0,0,15-4.45,23.81.33,0,0-1.28,9.56-1.13,13.89s1.75,12.41.68,14.83S116.37,311.36,116.37,311.36Z"/>
    <path class="cls-16" d="M39.08,102c-2.07,5.49-1.67,10.83-3.12,15.7s-2.39,10.51-8.59,10.36c-2.68-.07-4.17-5.89-3.57-13.29,4-5.36,8-10.09,9-11.2s3.68-7,6.86-13.42C40.05,93.53,40.35,98.61,39.08,102Z"/>
    <path class="cls-4" d="M36.34,82.64a54,54,0,0,1,2,7.67c.4,2.94-2.56,14.09-2.56,14.09s1.61,9,0,15.44-4.77,8.09-7.94,8.22c-14.2.57-11.72-9-13.77-14.81S17.85,96,17.85,96s1.31-12.09,7.48-15.23S36.34,82.64,36.34,82.64Z"/>
    <path class="cls-11" d="M30.88,69.86S27,75.1,25.7,79.18c0,0-2,1.57-1.72,3.46s3.14,8,8.16,7.66,7.4-4.52,6.21-5.47c0,0,2.1-11.14.3-13S30.88,69.86,30.88,69.86Z"/>
    <path class="cls-14" d="M33.05,56.92c-.83.83-2.56,9.54-2.64,11.51A2.77,2.77,0,0,0,30,69.86c0,.84.16,3.51,4.4,5s6.12-4.39,6.47-5.49,1.53-7.85,1.53-7.85.79,1.26,2.83,0a12,12,0,0,1-.55-3.84c.16-1.58-3.24-3.07-4.92-3.46S33.05,56.92,33.05,56.92Z"/>
    <g>
      <rect class="cls-17" x="35.75" y="28.98" width="5.09" height="46.72" rx="1.65" transform="translate(-5.9 4.88) rotate(-6.77)"/>
      <circle class="cls-18" cx="35.74" cy="30.8" r="20.57" transform="translate(-6.31 9.41) rotate(-13.79)"/>
      <path class="cls-11" d="M29.89,38.83l-5.74-8.55a.7.7,0,0,1,.23-1l1.39-.84a.68.68,0,0,1,.94.22l4,5.71a.68.68,0,0,0,1,.18L45.65,23.9a.68.68,0,0,1,1,.12l1,1.29a.7.7,0,0,1-.13,1L30.89,39A.68.68,0,0,1,29.89,38.83Z"/>
    </g>
    <path class="cls-11" d="M43.13,59.74c1.77-2.32-.59-3.26-.59-3.26,1.15-.43,1.18-.89,1.06-1.77s-4.36-2.06-5.31-1.83a16.31,16.31,0,0,0-5.24,4c-.59.88,1,2.36.35,3.19-1.06,1.37.12,1.92.62,2,.81.18-.9,3.06.28,3.49s.37,1.92.71,2.68c.18.42,1.41.81,2.62,0a23.27,23.27,0,0,1,4.92-1.69c1.66-1.09.46-3.25.46-3.25A2.78,2.78,0,0,0,43.13,59.74Zm-4.78-4c.32,0,2.54.49,2.54.49s-1.68.14-2.27.28a15.72,15.72,0,0,0-2.28,1.11S38,55.71,38.35,55.71Zm-.52,8.75a17.65,17.65,0,0,1,3.9-1.06A13.6,13.6,0,0,1,37.83,64.46Zm-.67-3.64A12.41,12.41,0,0,1,39,59.74a15.6,15.6,0,0,1,2.76,0A21.81,21.81,0,0,0,37.16,60.82Z"/>
    <path class="cls-11" d="M160.54,164.26c.63-1.18,1.1-2-.45-5.34a66,66,0,0,0-7.66-12.31s.19-2.14-1.36-1.22c0,0,.51,4-10.36,9.34a1.67,1.67,0,0,0,1.59,1.71s6.67,8.64,11.45,10.71C155.83,168.05,159,167.12,160.54,164.26Z"/>
  </g>
</svg>
