<svg id="Layer_1" data-name="Layer 1" xmlns="http://www.w3.org/2000/svg" width="498.37" height="768" viewBox="0 0 498.37 768">
  <defs>
    <style>
      .cls-1 {
        opacity: 0.61;
      }

      .cls-2 {
        fill: #acf9d0;
      }

      .cls-3 {
        fill: #d7ffeb;
        opacity: 0.63;
      }

      .cls-4 {
        fill: #fff;
      }

      .cls-5 {
        fill: #c8e6ff;
      }

      .cls-6 {
        fill: #a06b64;
      }

      .cls-7 {
        fill: #221f1f;
      }

      .cls-8 {
        fill: #773834;
      }

      .cls-9 {
        fill: #81b3ff;
      }

      .cls-10 {
        fill: #6d6e70;
      }

      .cls-11 {
        fill: #c3e0ff;
      }

      .cls-12 {
        fill: #2a54ba;
      }

      .cls-13 {
        fill: #33a2a6;
      }
    </style>
  </defs>
  <g class="cls-1">
    <path class="cls-2" d="M145.79,693.25S2.64,659.3,43.89,468.06s93.32-166.88,64.83-238.73S131.47,112.79,174,92.73C213.77,74,377.87,58.88,416.18,154.55S396.6,373.47,402.42,439.1s41.9,98.27,26.95,157.13C411.27,667.49,340,735.32,145.79,693.25Z"/>
    <path class="cls-3" d="M171.24,729.23S38.71,702.31,60.4,492.42s70.88-187.1,39.16-262.94,11-127.74,48-152.38c34.51-23,182-50.66,224.58,50.28s.22,238.38,10.89,309S429,539.94,420.32,604.69C409.76,683.1,350.75,761.43,171.24,729.23Z"/>
  </g>
  <g>
    <path class="cls-4" d="M231.52,165.41l-8.46,5.08s28.75,47.35,30.87,46.92,29.59-46.08,29.59-46.08l-11-5.92Z"/>
    <path d="M205.73,699.6c-29.17,30.44-53.59,19-52.95,37.73h97.34s-1-20-7.92-39.32Z"/>
    <path d="M317,699.6c29.17,30.44,43.13,19,42.5,37.73h-86.9s1-20,7.93-39.32Z"/>
    <path d="M347.79,425.32s-4.13,5.07-7,19-2.54,16.49-3.17,21.25,3.8,6,5.71,1.58l5.7-13.31s1.91,9.51,1.91,15.22-1.27,7-1.27,7-5.39,5.71-4.76,10.15c0,0-3.49,3.49-1.27,7,0,0,10.15-5.07,13.32-7s7.61-12.05,9.83-18.39,5.07-17.44-.63-44.39L371,401.1H344Z"/>
    <path d="M139.67,421.51s1,3.49.63,16.17,0,23.79,1.91,30.44,6.34,14.91,10.46,18.4,14.9,9.19,14.9,9.19,2.54-3.8-1.9-9.19c0,0,2.22-3.17-2.85-7.93s-4.12-11.1-.95-22.2a52.43,52.43,0,0,1,2.53,10.78c.32,4.44,5.39,7.3,6.35.32s3.8-17.44-2.86-33a68.19,68.19,0,0,1-5.12-18l1.43-13.89H136.25Z"/>
    <path class="cls-5" d="M351.17,228.41c26,70.21,27.45,118.44,16.87,172.59l-22.38.1s-19-99.14-24.09-122.17-6.34-29.35-6.34-29.35Z"/>
    <path class="cls-5" d="M151.3,229.89c-16.49,61.67-35,137.85-11.63,172.75H164.2s8.66-62.42,12-84,11.84-63.15,11.84-63.15Z"/>
    <path class="cls-5" d="M212.71,98.72c-12.37-33.93,3.17-58.66,40.58-60.57s64.06,26,45,61.52S212.71,98.72,212.71,98.72Z"/>
    <path class="cls-6" d="M232.68,140.89s1.27,13.32-6,23.78c0,0,21.24,26.64,55.17,3.81,0,0-8.56-7.61-7.93-28.22Z"/>
    <path class="cls-6" d="M254.88,155.48c19,1,38.37-20,38.05-62.47-11.1-38.37-56.44-40.27-75.15-8.88C214.61,141.84,235.85,154.53,254.88,155.48Z"/>
    <path class="cls-6" d="M218.41,95.55c-10.14-20.3-18.07,18.07,2.22,21.24"/>
    <path class="cls-6" d="M291.34,98.72c14-18.08,15.86,17.75-2.85,21.56Z"/>
    <path class="cls-7" d="M255.2,102a.89.89,0,0,1-.9-.89V92.53a.9.9,0,0,1,1.79,0v8.57A.89.89,0,0,1,255.2,102Z"/>
    <path class="cls-5" d="M217.46,102.52c35.83-4.44,41.22-3.8,75.47,2.22-2.85,48.83-26.95,53.27-41.22,52S218.41,145.65,217.46,102.52Z"/>
    <path class="cls-5" d="M195.9,323.85s-13,32.66-16.8,94.18-2.22,209.91,16.17,283.47h55.17s5.18-122.39,8.35-171.86c0,0,6.24,116.05,11.31,171.23h52.64c11.41-82.45,18.7-239.09,10.46-295.53s-19-81.49-19-81.49l-57.71-7.93Z"/>
    <path class="cls-7" d="M239.34,95.12a1.8,1.8,0,0,1-1.8-1.79v-1.8a1.8,1.8,0,1,1,3.6,0v1.8A1.8,1.8,0,0,1,239.34,95.12Z"/>
    <path class="cls-7" d="M271.68,95.12a1.79,1.79,0,0,1-1.79-1.79v-1.8a1.8,1.8,0,1,1,3.59,0v1.8A1.79,1.79,0,0,1,271.68,95.12Z"/>
    <path class="cls-7" d="M227.93,83.13a.9.9,0,0,1-.67-1.5,21,21,0,0,1,21.22-5,.91.91,0,0,1,.6,1.12.89.89,0,0,1-1.12.6,19.08,19.08,0,0,0-19.36,4.5A.91.91,0,0,1,227.93,83.13Z"/>
    <path class="cls-7" d="M281.2,81.86a.92.92,0,0,1-.54-.18,19.12,19.12,0,0,0-17.21-3.05A.9.9,0,0,1,262.8,77a20.71,20.71,0,0,1,18.93,3.29.88.88,0,0,1,.19,1.25A.91.91,0,0,1,281.2,81.86Z"/>
    <path class="cls-8" d="M215.56,109.45a1,1,0,0,1-.41-.1c-3.87-2-4.83-7.65-4.28-11,.3-1.84,1-2.94,2.09-3.1,1.65-.26,2.73,1.92,3.09,2.63a.91.91,0,0,1-.4,1.21.9.9,0,0,1-1.21-.41c-.76-1.52-1.24-1.65-1.24-1.66s-.69,1.11-.67,3.29c0,2.64.93,6.19,3.44,7.48a.9.9,0,0,1-.41,1.7Z"/>
    <path class="cls-8" d="M293.41,112a.9.9,0,0,1-.62-1.55c3.13-3,4.37-7.5,3.85-9.33-.09-.3-.2-.41-.23-.41s-.9.21-2.15,1.76a.9.9,0,1,1-1.4-1.12c1.49-1.85,2.77-2.63,3.91-2.4a2.1,2.1,0,0,1,1.59,1.67c.75,2.62-.85,7.83-4.34,11.14A.89.89,0,0,1,293.41,112Z"/>
    <path class="cls-9" d="M235.7,113.41h0l-16.81-.32a.9.9,0,0,1-.88-.91.92.92,0,0,1,.92-.88l16.8.31a.9.9,0,0,1,0,1.8Z"/>
    <path class="cls-9" d="M231.89,126.73a1.26,1.26,0,0,1-.27,0c-8.14-2.56-12.31-5.72-12.49-5.86a.9.9,0,0,1,1.1-1.42A42.15,42.15,0,0,0,232.16,125a.9.9,0,0,1-.27,1.76Z"/>
    <path class="cls-9" d="M273.11,115a.9.9,0,0,1,0-1.79c.09,0,9.4-.33,17.65-1.58a.91.91,0,0,1,1,.76.9.9,0,0,1-.76,1c-8.35,1.26-17.76,1.59-17.86,1.59Z"/>
    <path class="cls-9" d="M276.6,126.89a.9.9,0,0,1-.89-.78.89.89,0,0,1,.77-1,40.71,40.71,0,0,0,13.76-5.27.91.91,0,0,1,1.24.3.89.89,0,0,1-.3,1.23,41.61,41.61,0,0,1-14.46,5.52Z"/>
    <path class="cls-9" d="M231.89,140.68a.82.82,0,0,1-.4-.1c-6.51-3.25-10.66-10.2-10.84-10.49a.9.9,0,0,1,1.55-.91c0,.06,4.07,6.79,10.09,9.8a.9.9,0,0,1-.4,1.7Z"/>
    <path class="cls-9" d="M276.12,139.57a.9.9,0,0,1-.25-1.76c.06,0,6.35-1.94,12.42-8.77a.9.9,0,1,1,1.35,1.19c-6.44,7.24-13,9.22-13.26,9.3A.78.78,0,0,1,276.12,139.57Z"/>
    <path class="cls-9" d="M314.17,324.75H195.9a.9.9,0,0,1,0-1.8H314.17a.9.9,0,1,1,0,1.8Z"/>
    <path class="cls-9" d="M316.08,330.46H194.32a.9.9,0,0,1,0-1.8H316.08a.9.9,0,0,1,0,1.8Z"/>
    <path class="cls-9" d="M258.79,530.54a.91.91,0,0,1-.9-.89c-.52-50.17.52-129.86.53-130.66a.93.93,0,0,1,.91-.89.91.91,0,0,1,.89.91c0,.8-1.05,80.48-.53,130.62a.9.9,0,0,1-.89.91Z"/>
    <path class="cls-9" d="M250.12,695.42H193.68a.9.9,0,1,1,0-1.79h56.44a.9.9,0,1,1,0,1.79Z"/>
    <path class="cls-9" d="M323.69,694.79H269.47a.9.9,0,1,1,0-1.8h54.22a.9.9,0,1,1,0,1.8Z"/>
    <path class="cls-10" d="M163.87,489.48a.87.87,0,0,1-.48-.15c-.38-.24-9.42-6-11.41-9.85-1.89-3.63-4.12-8.56-4.14-8.61a.9.9,0,1,1,1.63-.74c0,.05,2.23,4.94,4.1,8.52,1.36,2.6,7.27,6.85,10.14,8.75l1.28-1.47a.9.9,0,0,1,1.36,1.18l-1.8,2.06A.89.89,0,0,1,163.87,489.48Z"/>
    <path class="cls-10" d="M161.87,457.29a.88.88,0,0,1-.74-.38l-3.54-5.08a.89.89,0,1,1,1.47-1l3.54,5.07a.89.89,0,0,1-.73,1.41Z"/>
    <path class="cls-10" d="M345.41,489a.92.92,0,0,1-.33-.06.91.91,0,0,1-.54-.62l-.48-1.9a.9.9,0,0,1,1.74-.44l.17.68c2.08-1.34,6.64-4.32,8.42-5.62,1.55-1.14,4.12-8.49,5.37-12.85a.91.91,0,0,1,1.12-.61.9.9,0,0,1,.61,1.11c-.57,2-3.54,12-6,13.79s-9.26,6.19-9.56,6.38A.9.9,0,0,1,345.41,489Z"/>
    <path class="cls-9" d="M217.78,85a.92.92,0,0,1-.48-.14,11.24,11.24,0,0,1-5-7.12.9.9,0,0,1,.75-1,.89.89,0,0,1,1,.74,9.55,9.55,0,0,0,4.19,5.88.9.9,0,0,1-.48,1.66Z"/>
    <path class="cls-9" d="M292.93,93.91a.9.9,0,0,1-.21-1.77,10.36,10.36,0,0,0,5.2-3.63.9.9,0,0,1,1.26-.18.91.91,0,0,1,.18,1.26,11.9,11.9,0,0,1-6.22,4.29A.76.76,0,0,1,292.93,93.91Z"/>
    <path class="cls-9" d="M289.6,83.92a.9.9,0,0,1-.51-1.64,31.87,31.87,0,0,0,5.84-5.54.9.9,0,1,1,1.39,1.15,33.08,33.08,0,0,1-6.21,5.87A.88.88,0,0,1,289.6,83.92Z"/>
    <path class="cls-9" d="M286.27,78.69a.86.86,0,0,1-.63-.27.88.88,0,0,1,0-1.27L289.76,73A.9.9,0,1,1,291,74.3l-4.12,4.12A.9.9,0,0,1,286.27,78.69Z"/>
    <path class="cls-9" d="M230.15,70.44a.91.91,0,0,1-.48-.13c-4.62-2.91-5-8.41-5-8.64a.9.9,0,0,1,.84-1,.92.92,0,0,1,1,.84s.35,4.82,4.17,7.23a.89.89,0,0,1-.47,1.65Z"/>
    <path class="cls-9" d="M235.06,67.59a.87.87,0,0,1-.69-.33,12.34,12.34,0,0,1-2.1-5A.9.9,0,0,1,234,62a10.7,10.7,0,0,0,1.72,4.17.91.91,0,0,1-.13,1.27A.94.94,0,0,1,235.06,67.59Z"/>
    <path class="cls-9" d="M266.93,64.26a.9.9,0,0,1-.55-.19.88.88,0,0,1-.16-1.25A34.73,34.73,0,0,0,269.75,56a.89.89,0,1,1,1.65.69,34.74,34.74,0,0,1-3.76,7.18A.89.89,0,0,1,266.93,64.26Z"/>
    <path class="cls-11" d="M218.89,106.33a.89.89,0,0,1-.89-.79L216.51,92.9a.9.9,0,0,1,1.78-.21l1.49,12.64a.9.9,0,0,1-.78,1Z"/>
    <path class="cls-11" d="M291.7,108.65h-.1a.91.91,0,0,1-.79-1l1.27-11a.9.9,0,1,1,1.78.21l-1.27,11A.89.89,0,0,1,291.7,108.65Z"/>
    <g>
      <path class="cls-9" d="M146,402.32a.9.9,0,0,1-.78-.45A51.81,51.81,0,0,1,141,391.18a.88.88,0,0,1,.64-1.09.9.9,0,0,1,1.1.64,50.48,50.48,0,0,0,4,10.24.9.9,0,0,1-.33,1.23A.92.92,0,0,1,146,402.32Z"/>
      <path class="cls-9" d="M153.62,402.64a.91.91,0,0,1-.88-.72l-1.58-7.61a.89.89,0,0,1,.69-1.06.9.9,0,0,1,1.07.69l1.58,7.61a.9.9,0,0,1-.69,1.07Z"/>
    </g>
    <g>
      <path class="cls-9" d="M361.29,402a.9.9,0,0,0,.78-.45,52,52,0,0,0,4.21-10.68.9.9,0,0,0-1.74-.46,49.82,49.82,0,0,1-4,10.25.89.89,0,0,0,.33,1.22A.92.92,0,0,0,361.29,402Z"/>
      <path class="cls-9" d="M353.68,402.32a.9.9,0,0,0,.88-.72l1.58-7.61a.9.9,0,0,0-.69-1.06.91.91,0,0,0-1.07.7l-1.58,7.61a.9.9,0,0,0,.7,1.06Z"/>
    </g>
    <path class="cls-7" d="M282.28,116.49a23,23,0,0,1-3.48-.29c-9.45-1.44-12.82-7-15.52-11.51-.33-.54-.64-1.06-1-1.55-1.95-3.08-4.37-4.79-6.81-4.82-2.08,0-4.08,1.24-5.63,3.57l-.26.38c-3.22,4.86-7.65,11.51-21.09,11.7-3.81.06-6.83-1.1-8.95-3.43-4.07-4.46-5.07-13.13-3.37-29a.89.89,0,0,1,.46-.69c.32-.18,32.16-17.25,79.42,2.2a.88.88,0,0,1,.55.79c.67,16-1.25,25.48-6.05,29.79A12,12,0,0,1,282.28,116.49Zm-26.83-20h.08c3.07,0,6,2,8.31,5.65.32.51.64,1,1,1.59,2.65,4.38,5.65,9.35,14.26,10.67,4.63.71,7.91,0,10.32-2.13,4.32-3.87,6.06-12.71,5.48-27.8-43.3-17.61-73.13-4.16-76.92-2.28-1.58,15-.69,23.11,3,27.11,1.78,2,4.28,2.9,7.6,2.84,12.49-.17,16.61-6.37,19.62-10.89l.25-.39C250.26,98.07,252.77,96.52,255.45,96.52Z"/>
    <path class="cls-12" d="M227.29,159.92s3.81,14.9,26.64,44.39c0,0,12.68-14.27,25.68-42.81,57.4,13.64,63.74,33,77.69,67.22l-32,33s23.75,278,9.48,295.42l-157.33-3.24s0-239,2.63-290l-38.37-32.34C169.27,174.18,183.22,170.7,227.29,159.92Z"/>
    <path class="cls-9" d="M180.05,264.82a.9.9,0,0,1-.9-.9,263.81,263.81,0,0,1,1.91-33.42.9.9,0,0,1,1-.76.89.89,0,0,1,.76,1A262.62,262.62,0,0,0,181,263.92.9.9,0,0,1,180.05,264.82Z"/>
    <path class="cls-9" d="M325.27,262.6a.9.9,0,0,1-.9-.87,232.49,232.49,0,0,0-2.84-29.36.9.9,0,0,1,.73-1,.88.88,0,0,1,1,.72,235.53,235.53,0,0,1,2.87,29.62.9.9,0,0,1-.86.93Z"/>
    <path class="cls-9" d="M253.61,211.23h-.06a.89.89,0,0,1-.63-.33c-22.37-27.08-29.9-49.85-30-50.07a.91.91,0,0,1,.58-1.14.9.9,0,0,1,1.13.58c.07.22,7.37,22.26,29,48.73,3.26-3.36,17.61-19.1,28.9-47.2a.9.9,0,0,1,1.67.67c-12.92,32.15-29.85,48.36-30,48.52A.94.94,0,0,1,253.61,211.23Z"/>
    <g>
      <path class="cls-12" d="M200.23,55.58S242.41,27,308.36,60.34l-.95,10.14c-32.66-17.75-71.34-20.29-105-5.39Z"/>
      <path class="cls-13" d="M258.63,162.25c-25.46,0-44.09-7.64-44.37-7.76a.89.89,0,0,1-.54-.7L201.56,65.21a.9.9,0,1,1,1.78-.24L215.43,153c4.64,1.8,42.7,15.53,83.11.43l8-83a.88.88,0,0,1,1-.81.89.89,0,0,1,.8,1l-8,83.6a.89.89,0,0,1-.57.76A115.38,115.38,0,0,1,258.63,162.25Z"/>
    </g>
  </g>
</svg>
