<svg id="Layer_1" data-name="Layer 1" xmlns="http://www.w3.org/2000/svg" width="546" height="611.33" viewBox="0 0 546 611.33">
  <defs>
    <style>
      .cls-1 {
        opacity: 0.65;
      }

      .cls-2 {
        fill: #00a99d;
      }

      .cls-11, .cls-3, .cls-4, .cls-9 {
        fill: #fff;
      }

      .cls-3 {
        opacity: 0.33;
      }

      .cls-4 {
        opacity: 0.46;
      }

      .cls-5 {
        fill: #d65241;
      }

      .cls-6 {
        fill: #bc4a37;
      }

      .cls-7 {
        fill: #dfe1f7;
      }

      .cls-8 {
        fill: #c1c3d3;
      }

      .cls-9 {
        opacity: 0.36;
      }

      .cls-10 {
        fill: #e9eaf4;
      }

      .cls-12 {
        fill: #0071bc;
      }

      .cls-13 {
        fill: #e9edf5;
      }
    </style>
  </defs>
  <g>
    <g class="cls-1">
      <circle class="cls-2" cx="273" cy="327.02" r="242.65"/>
      <circle class="cls-3" cx="273" cy="327.02" r="190.51"/>
      <circle class="cls-4" cx="273" cy="327.02" r="104.51"/>
    </g>
    <g>
      <polygon class="cls-5" points="295 345.73 250.97 345.73 106.6 345.73 137.44 514.84 250.97 514.84 295 514.84 408.54 514.84 439.37 345.73 295 345.73"/>
      <path class="cls-6" d="M372.42,516.09h36.12L439.37,347H106.6l8.32,45.65c6.56,1.25,13.58,1.15,21.83,1.31,42.43.82,85.14,3.12,126.7,12.24a317,317,0,0,1,67.86,22.68c15.92,7.55,31.89,17.48,39.88,33.19,4.82,9.47,6.31,20.37,5.85,31A75.85,75.85,0,0,1,372.42,516.09Z"/>
      <path class="cls-7" d="M443.16,359.81v70.06a26.79,26.79,0,0,1-26.79,26.8H128.63a26.79,26.79,0,0,1-26.79-26.8V359.81h-8v77.72a26.8,26.8,0,0,0,26.8,26.8H424.41a26.79,26.79,0,0,0,26.79-26.8V359.81Z"/>
      <rect class="cls-7" x="130.33" y="514.84" width="284.45" height="22.23"/>
      <path class="cls-7" d="M200.05,533.2a18.3,18.3,0,0,0-6.22-.65c-3.09.1-6.45.64-8.53,2.92a6.72,6.72,0,0,0-1.07,1.59h-53.9v13.13h61.58V547a22.54,22.54,0,0,1,.53-3,11.49,11.49,0,0,1,2.87-4.12,11.7,11.7,0,0,1,9.57-2.86A8.23,8.23,0,0,0,200.05,533.2Z"/>
      <path class="cls-7" d="M345.06,533.37a18.39,18.39,0,0,1,6.23-.65c3.09.1,6.45.63,8.53,2.92a6.22,6.22,0,0,1,1.06,1.59l53.9-.17v13.3H353.2v-3.22a22.84,22.84,0,0,0-.52-3,11.46,11.46,0,0,0-12.44-7A8.24,8.24,0,0,1,345.06,533.37Z"/>
      <rect class="cls-7" x="100.47" y="343.28" width="342.99" height="39.62"/>
      <rect class="cls-8" x="100.47" y="351.4" width="342.99" height="2.94"/>
      <path class="cls-7" d="M122.66,320.64H423.34A13.35,13.35,0,0,1,436.69,334v9.29a0,0,0,0,1,0,0H109.31a0,0,0,0,1,0,0V334A13.35,13.35,0,0,1,122.66,320.64Z"/>
      <path class="cls-8" d="M423.34,320.64H411a13.29,13.29,0,0,1,2.27,7.44v9.3h-304v5.9H436.69V334A13.35,13.35,0,0,0,423.34,320.64Z"/>
      <path class="cls-9" d="M135.81,525.51a11.91,11.91,0,0,0,4.77,1.14,95,95,0,0,0,11.56-.23c6.46-.33,12.93-.32,19.39-.31l43.12.1c9,0,18,0,27-.81,1.9-.18,4.27-.76,4.45-2.27.12-1-.85-1.85-2-2.23a10.88,10.88,0,0,0-3.62-.31q-35.41.84-70.83-1.2c-6.21-.36-12.44-.79-18.67-.72a92.49,92.49,0,0,0-9.43.56c-1.88.22-3.88.24-5.56,1C133.25,521.52,133.16,524,135.81,525.51Z"/>
      <g>
        <path class="cls-10" d="M165.07,354.35h40.09a0,0,0,0,1,0,0V392a12.68,12.68,0,0,1-12.68,12.68H177.75A12.68,12.68,0,0,1,165.07,392V354.35A0,0,0,0,1,165.07,354.35Z"/>
        <path class="cls-8" d="M199.43,354.35v35.18a12.69,12.69,0,0,1-12.68,12.69H172a12.77,12.77,0,0,1-2-.16,12.57,12.57,0,0,0,7.7,2.61h14.73A12.68,12.68,0,0,0,205.16,392V354.35Z"/>
        <path class="cls-11" d="M169.52,384.25c.24,3.68.64,7.57,2.84,10.53s6.85,4.4,9.65,2a2.86,2.86,0,0,0,1.11-2c0-1.91-2.41-2.64-4.14-3.46a10.55,10.55,0,0,1-5-5.81,25.81,25.81,0,0,1-1.41-7.67,99.94,99.94,0,0,1,0-13.18c.12-1.88,1.24-8.74-2.35-5.22-2.52,2.46-1.35,7.92-1.28,11.07Q169.06,377.37,169.52,384.25Z"/>
      </g>
      <g>
        <path class="cls-10" d="M347.65,354.35h40.09a0,0,0,0,1,0,0V392a12.68,12.68,0,0,1-12.68,12.68H360.33A12.68,12.68,0,0,1,347.65,392V354.35A0,0,0,0,1,347.65,354.35Z"/>
        <path class="cls-8" d="M382,354.35v35.18a12.68,12.68,0,0,1-12.68,12.69H354.6a12.77,12.77,0,0,1-2-.16,12.59,12.59,0,0,0,7.7,2.61h14.73A12.68,12.68,0,0,0,387.74,392V354.35Z"/>
        <path class="cls-11" d="M352.1,384.25c.25,3.68.64,7.57,2.84,10.53s6.86,4.4,9.65,2a2.82,2.82,0,0,0,1.11-2c0-1.91-2.41-2.64-4.13-3.46a10.53,10.53,0,0,1-5-5.81,26.14,26.14,0,0,1-1.41-7.67,101.69,101.69,0,0,1,0-13.18c.12-1.88,1.24-8.74-2.35-5.22-2.52,2.46-1.34,7.92-1.28,11.07Q351.64,377.37,352.1,384.25Z"/>
      </g>
    </g>
    <g>
      <circle class="cls-12" cx="273" cy="165.59" r="123.92"/>
      <g>
        <path class="cls-11" d="M363.24,124l-9.78-16.72-70.78,41.41v-33l28.87-28.87L297.86,73.16,282.68,88.34V66.71H263.32V88.34L248.14,73.16,234.45,86.85l28.87,28.87v33l-28.47-16.66L224.5,92.55l-18.73,4.91,5.44,20.77L192.54,107.3,182.76,124l18.68,10.92-20.77,5.44,4.9,18.73,39.5-10.34,28.76,16.82-28.76,16.82-39.5-10.35-4.9,18.73,20.77,5.44-18.68,10.93,9.78,16.71L211.21,213l-5.44,20.76,18.73,4.91,10.35-39.5,28.47-16.65v33l-28.87,28.87L248.14,258l15.18-15.18v21.64h19.36V242.83L297.86,258l13.69-13.69-28.87-28.87v-33l70.78,41.4,9.78-16.71-71.07-41.57Z"/>
        <path class="cls-13" d="M272.91,264.47h9.77V242.83L297.86,258l13.69-13.69-28.87-28.87v-33l28.47,16.65,10.35,39.5,18.73-4.91L334.79,213l18.67,10.92,9.78-16.71-18.68-10.93,20.77-5.44-4.9-18.73-39.5,10.35-28.76-16.82,28.76-16.82,39.5,10.34,4.9-18.73-20.77-5.44L363.24,124l-9.78-16.72-18.67,10.93,5.44-20.77L321.5,92.55l-10.35,39.5-28.47,16.66v-33l28.87-28.87L297.86,73.16,282.68,88.34V66.71h-9.77Z"/>
      </g>
    </g>
  </g>
</svg>
