<svg xmlns="http://www.w3.org/2000/svg" xmlns:xlink="http://www.w3.org/1999/xlink" width="613.17" height="445.82" viewBox="0 0 613.17 445.82">
  <defs>
    <style>
      .cls-1, .cls-27 {
        fill: none;
      }

      .cls-2 {
        isolation: isolate;
      }

      .cls-3 {
        fill: #dcf0ff;
      }

      .cls-4 {
        fill: #b1dffc;
      }

      .cls-5 {
        clip-path: url(#clip-path);
      }

      .cls-6 {
        fill: #0686f9;
      }

      .cls-7 {
        fill: #50b4ff;
      }

      .cls-8 {
        fill: #3eadff;
      }

      .cls-9 {
        opacity: 0.18;
      }

      .cls-10 {
        fill: #747575;
      }

      .cls-11, .cls-12, .cls-13, .cls-18, .cls-28, .cls-31 {
        fill: #fff;
      }

      .cls-11 {
        opacity: 0.19;
      }

      .cls-12, .cls-30 {
        opacity: 0.83;
      }

      .cls-14 {
        fill: #0084f5;
      }

      .cls-15, .cls-30 {
        fill: #3d3d3d;
      }

      .cls-15, .cls-29 {
        mix-blend-mode: overlay;
      }

      .cls-16 {
        fill: #4ab2ff;
      }

      .cls-17 {
        fill: #ff4550;
      }

      .cls-18 {
        font-size: 20.65px;
        font-family: Montserrat-Black, Montserrat;
        font-weight: 800;
      }

      .cls-19 {
        letter-spacing: -0.04em;
      }

      .cls-20 {
        letter-spacing: -0.01em;
      }

      .cls-21 {
        letter-spacing: -0.01em;
      }

      .cls-22 {
        fill: #0064af;
      }

      .cls-23 {
        fill: #e8e8e8;
      }

      .cls-24 {
        fill: #0076ce;
      }

      .cls-25 {
        fill: #e01e31;
      }

      .cls-26 {
        fill: #006cbc;
      }

      .cls-27 {
        stroke: #006cbc;
        stroke-miterlimit: 10;
        stroke-width: 2px;
      }

      .cls-28 {
        opacity: 0.24;
      }

      .cls-31 {
        opacity: 0.31;
      }

      .cls-32 {
        fill: #efefef;
      }

      .cls-33 {
        fill: #0060a8;
      }
    </style>
    <clipPath id="clip-path">
      <ellipse class="cls-1" cx="304.68" cy="228.22" rx="166.15" ry="166.05"/>
    </clipPath>
  </defs>
  <g class="cls-2">
    <g id="OBJECTS">
      <ellipse class="cls-3" cx="306.58" cy="222.91" rx="306.58" ry="222.91"/>
      <ellipse class="cls-4" cx="306.58" cy="222.91" rx="243.92" ry="222.91"/>
      <g>
        <g>
          <g class="cls-5">
            <ellipse class="cls-6" cx="304.83" cy="228.22" rx="166.15" ry="166.05"/>
            <g>
              <path class="cls-7" d="M301.11,257.92l-4.21.75a18.66,18.66,0,0,1-18.08-7l-9.14-11.81A11.19,11.19,0,0,0,259,235.72l-31.46,5.16-8.77-12.09a6.61,6.61,0,0,0-10.8.12L199.59,241l-1.94-21.55-7.82-4.75a13.78,13.78,0,0,1-6.52-10l0-.23a13.79,13.79,0,0,1,9.83-15l20.17-5.86a22.78,22.78,0,0,0,8.06-4.24L239,164.91a21.51,21.51,0,0,0,6-7.78l7.55-16.65A28.32,28.32,0,0,1,263.66,128l7.29-4.43h0A14,14,0,0,0,257.48,107l-17.88-.32-9.1-4.3a21.58,21.58,0,0,0-15-1.27l-41.19,11.47L137,184.91l6.36,7.15a48.5,48.5,0,0,1,6.95,10.14l7.57,14.72a24.19,24.19,0,0,0,10.87,10.67l29.45,14.46L194,247.46a13.45,13.45,0,0,0-2.66,9.93l1.22,9.24a13.41,13.41,0,0,0,2.47,6.15l8.56,11.73a13.46,13.46,0,0,0,10.51,5.5l8.39.2a13.66,13.66,0,0,1,13.17,11.67l5.77,39.35a20.05,20.05,0,0,0,2.64,7.38l9.43,15.69a14,14,0,0,0,8.06,6.21l6.27,1.83a4.62,4.62,0,0,0,5.84-5.19l-2.62-15.64a12.1,12.1,0,0,1,3.55-10.72l10.38-10A16.77,16.77,0,0,0,290,316.86l-.5-4.53a12.63,12.63,0,0,1,2.59-9.12l12.24-15.73a12.25,12.25,0,0,0,2.58-6.92l.87-16.74A5.7,5.7,0,0,0,301.11,257.92Z"/>
              <path class="cls-7" d="M490.76,287.09l-23.09-112a12.58,12.58,0,0,0-18.22-8.58l-39.88,21.13a12.61,12.61,0,0,1-7.65,1.34l-25.84-3.63a12.66,12.66,0,0,1-7.53-4l-6.88-7.52a12.58,12.58,0,0,0-10.38-4l-20.52,1.79a12.58,12.58,0,0,0-8.61,4.52l-4.63,5.6a24.19,24.19,0,0,0-4.88,21L318,225.19a12.57,12.57,0,0,0,8.79,9.19l31.36,8.93a12.62,12.62,0,0,0,8.92-.77l8.24-4a12.59,12.59,0,0,1,11.76.42l6,3.44a12.58,12.58,0,0,1,6.17,9l2.48,16.5a12.6,12.6,0,0,0,1.63,4.56l22.91,38.53a12.51,12.51,0,0,1,1.71,5.25l1,10.55a12.56,12.56,0,0,0,4.43,8.44l6.64,5.6a12.6,12.6,0,0,0,18.28-2.23L488.61,297A12.56,12.56,0,0,0,490.76,287.09Z"/>
              <path class="cls-7" d="M318.32,141l10.34,3.15a9.06,9.06,0,0,0,5.21,0l29.48-8.92a9,9,0,0,1,4.07-.27l65.64,11,27.8-25.56L388.13,80.8l-27.8,19.68a9,9,0,0,1-4.91,1.65l-26.64.79a8.94,8.94,0,0,0-8.06,5.67l-8.13,20.59A9,9,0,0,0,318.32,141Z"/>
              <polygon class="cls-8" points="387.06 80.22 388.13 80.8 389.18 80.05 387.06 80.22"/>
            </g>
          </g>
          <g class="cls-9">
            <path class="cls-10" d="M228.23,375.63s11.44,5.77,16.9,7.67a175,175,0,0,0,24.23,7.22,166.48,166.48,0,0,0,27.44,3.58S318,395.31,338.26,391c0,0,57-9.73,94.46-57.15,0,0,30.93-30.69,37.28-85.73,0,0,2.54-27.94-2-51.23,0,0-4.06-17.25-5.75-21.16a68.45,68.45,0,0,0-2.59-7.41s-3.92-10.11-6.84-15.09C452.84,153.2,475.86,397.89,228.23,375.63Z"/>
          </g>
          <circle class="cls-11" cx="333.01" cy="177.11" r="107.48" transform="translate(-27.7 287.35) rotate(-45)"/>
          <circle class="cls-11" cx="353.03" cy="147.12" r="71.41" transform="translate(122.3 452.15) rotate(-75.52)"/>
          <circle class="cls-11" cx="360.96" cy="127.21" r="49.9" transform="translate(192.63 470.92) rotate(-83.32)"/>
        </g>
        <g>
          <path class="cls-12" d="M377.86,254.48c-1.69-3.73-4.1-8-6.93-10l-11.29-7.74a26.15,26.15,0,0,1-11.35-21.56H261.07a26.13,26.13,0,0,1-11.36,21.56l-11.28,7.74c-2.83,1.94-5.24,6.23-6.93,10a29.54,29.54,0,0,0-2.56,12.15V420.54a16.87,16.87,0,0,0,16.88,16.87H363.54a16.87,16.87,0,0,0,16.88-16.87V266.63A29.54,29.54,0,0,0,377.86,254.48Z"/>
          <polygon class="cls-13" points="245.75 172.07 245.75 198.31 256.9 198.31 352.46 198.31 363.61 198.31 363.61 172.07 245.75 172.07"/>
          <polygon class="cls-14" points="256.9 215.22 261.07 215.22 348.29 215.22 352.46 215.22 352.46 198.31 256.9 198.31 256.9 215.22"/>
          <polygon class="cls-15" points="256.9 204.94 261.07 204.94 348.29 204.94 352.46 204.94 352.46 198.31 256.9 198.31 256.9 204.94"/>
          <rect class="cls-14" x="245.75" y="172.07" width="117.85" height="26.24"/>
          <path class="cls-16" d="M238.18,262.75V420.53a7.64,7.64,0,0,0,7.64,7.64H363.54a7.65,7.65,0,0,0,7.64-7.64l-.07-158.8a12.47,12.47,0,0,0-5.41-9.59l-11.28-7.74a35.37,35.37,0,0,1-14.15-19.94H269.08a35.31,35.31,0,0,1-14.14,19.94l-11.28,7.74a12.51,12.51,0,0,0-5.42,9.59Z"/>
          <g>
            <circle class="cls-14" cx="285.46" cy="278.91" r="15.5"/>
            <path class="cls-14" d="M309.65,257.62a5.78,5.78,0,1,1-5.78-5.78A5.78,5.78,0,0,1,309.65,257.62Z"/>
            <path class="cls-14" d="M323.35,278.91a5.79,5.79,0,1,1-5.78-5.79A5.78,5.78,0,0,1,323.35,278.91Z"/>
          </g>
          <g>
            <circle class="cls-14" cx="328.71" cy="392.35" r="15.5" transform="translate(-110.31 129.2) rotate(-19.11)"/>
            <path class="cls-14" d="M306.22,415.43a5.79,5.79,0,1,1,6.21,5.32A5.78,5.78,0,0,1,306.22,415.43Z"/>
            <path class="cls-14" d="M290.93,395.26a5.79,5.79,0,1,1,6.21,5.32A5.78,5.78,0,0,1,290.93,395.26Z"/>
          </g>
          <g>
            <rect class="cls-17" x="228.94" y="282.08" width="151.48" height="80.63"/>
            <rect class="cls-17" x="228.94" y="372.44" width="151.48" height="19.43"/>
            <rect class="cls-13" x="228.94" y="362.71" width="151.48" height="9.73"/>
            <text class="cls-18" transform="translate(255.06 308.59) rotate(-0.01)"><tspan class="cls-19">V</tspan><tspan class="cls-20" x="15.41" y="0">A</tspan><tspan class="cls-21" x="31.84" y="0">C</tspan><tspan x="46.9" y="0">CINE </tspan></text>
            <rect class="cls-13" x="245.6" y="321" width="66.18" height="2.78"/>
            <rect class="cls-13" x="245.6" y="330.23" width="88.09" height="2.78"/>
            <rect class="cls-13" x="245.6" y="339.45" width="52.49" height="2.78"/>
            <rect class="cls-13" x="245.6" y="348.68" width="85.35" height="2.78"/>
          </g>
          <path class="cls-15" d="M304.68,437.41h58.86a16.87,16.87,0,0,0,16.88-16.87V266.63a29.54,29.54,0,0,0-2.56-12.15c-1.69-3.73-4.1-8-6.93-10l-11.29-7.74a26.15,26.15,0,0,1-11.35-21.56h-.65c-5.86,41-29.54,160.2-111.39,219.21a16.76,16.76,0,0,0,9.57,3Z"/>
          <g>
            <rect class="cls-22" x="245.75" y="172.07" width="4.37" height="26.2"/>
            <rect class="cls-22" x="255.21" y="172.07" width="4.37" height="26.2"/>
            <rect class="cls-22" x="264.67" y="172.07" width="4.37" height="26.2"/>
            <rect class="cls-22" x="274.12" y="172.07" width="4.37" height="26.2"/>
            <rect class="cls-22" x="283.58" y="172.07" width="4.37" height="26.2"/>
            <rect class="cls-22" x="293.04" y="172.07" width="4.37" height="26.2"/>
            <rect class="cls-22" x="302.49" y="172.07" width="4.37" height="26.2"/>
            <rect class="cls-22" x="311.95" y="172.07" width="4.37" height="26.2"/>
            <rect class="cls-22" x="321.41" y="172.07" width="4.37" height="26.2"/>
            <rect class="cls-22" x="330.86" y="172.07" width="4.37" height="26.2"/>
            <rect class="cls-22" x="340.32" y="172.07" width="4.37" height="26.2"/>
            <rect class="cls-22" x="349.78" y="172.07" width="4.37" height="26.2"/>
            <rect class="cls-22" x="359.23" y="172.07" width="4.37" height="26.2"/>
          </g>
        </g>
        <g>
          <path class="cls-13" d="M277.26,120.65h0a4.35,4.35,0,0,1,2.22-5.75l7-3.11,3.52,8-7,3.1A4.35,4.35,0,0,1,277.26,120.65Z"/>
          <path class="cls-14" d="M513.33,37.48,499.45,5.18A3.71,3.71,0,0,1,501.39.3h0a3.71,3.71,0,0,1,4.88,2l13.88,32.3a3.7,3.7,0,0,1-1.95,4.87h0A3.71,3.71,0,0,1,513.33,37.48Z"/>
          <path class="cls-13" d="M286.92,96.1,433.25,33l-1.37-3.2L283.33,93.89s.35,25.8,17.21,40.64L449.17,70.28l-1.35-3.16L301.24,130.46C289.91,119.22,287.44,102.2,286.92,96.1Z"/>
          <polygon class="cls-13" points="447.82 67.12 448.77 66.71 434.76 32.34 433.25 32.99 447.82 67.12"/>
          <path class="cls-13" d="M461.07,51.2,484.94,41l2.81-1.2,22.41-9.56-7-16.28-22.53,9.61L478,24.74,454,35l-4-5.84a4.32,4.32,0,0,0-5.27-1.52L441.5,29,456.65,63.8l3.29-1.44a4.31,4.31,0,0,0,2.49-4.84Z"/>
          <path class="cls-13" d="M390,81.45l54.13-23L436.9,41.54l-54,23.67-4-5.84a4.29,4.29,0,0,0-5.26-1.53l-3.26,1.42L385.51,94l3.3-1.43a4.3,4.3,0,0,0,2.49-4.84Z"/>
          <rect class="cls-14" x="415.16" y="43.17" width="58.72" height="9.14" rx="3.25" transform="translate(575.21 475.29) rotate(-113.13)"/>
          <rect class="cls-23" x="474.52" y="3.14" width="6.75" height="62.66" transform="translate(633.89 487.49) rotate(-113.13)"/>
          <rect class="cls-14" x="357.08" y="75.28" width="37.15" height="5.54" rx="1.97" transform="translate(451.41 454.18) rotate(-113.13)"/>
          <rect class="cls-14" x="342.18" y="81.65" width="37.15" height="5.54" rx="1.97" transform="translate(424.81 449.34) rotate(-113.13)"/>
          <rect class="cls-24" x="352.99" y="76.3" width="30.76" height="10.66" transform="translate(437.99 452.45) rotate(-113.13)"/>
          <path class="cls-17" d="M286.89,96.08c.53,6.09,3,23.12,14.32,34.36l64.34-27.73L351,68.51Z"/>
          <g>
            <path class="cls-25" d="M336.44,86.64a8.87,8.87,0,1,1-4.68,11.65A8.87,8.87,0,0,1,336.44,86.64Z"/>
            <path class="cls-25" d="M323.27,86.85a3.31,3.31,0,1,1-1.74,4.35A3.31,3.31,0,0,1,323.27,86.85Z"/>
            <path class="cls-25" d="M319.23,97.81a3.31,3.31,0,1,1-4.49,1.32A3.3,3.3,0,0,1,319.23,97.81Z"/>
          </g>
          <rect class="cls-26" x="179.65" y="142.78" width="87.85" height="1.38" transform="translate(-38.38 99.35) rotate(-23.13)"/>
          <path class="cls-17" d="M256.55,129.43h0a3.14,3.14,0,0,1,1.64-4.12l17.13-7.39,2.49,5.75-17.14,7.39A3.13,3.13,0,0,1,256.55,129.43Z"/>
          <rect class="cls-14" x="275.83" y="111.96" width="2.77" height="17.2" transform="translate(-25.07 118.57) rotate(-23.13)"/>
          <g>
            <line class="cls-27" x1="441.02" y1="70.02" x2="435.88" y2="57.99"/>
            <line class="cls-27" x1="425.81" y1="76.52" x2="420.67" y2="64.49"/>
            <line class="cls-27" x1="410.59" y1="83.02" x2="405.45" y2="70.99"/>
            <line class="cls-27" x1="395.38" y1="89.52" x2="390.24" y2="77.48"/>
            <line class="cls-27" x1="355.72" y1="106.45" x2="350.58" y2="94.42"/>
            <line class="cls-27" x1="340.5" y1="112.95" x2="335.36" y2="100.92"/>
            <line class="cls-27" x1="325.29" y1="119.45" x2="320.15" y2="107.42"/>
            <line class="cls-27" x1="310.08" y1="125.95" x2="304.94" y2="113.92"/>
          </g>
          <path class="cls-28" d="M300.54,134.53,449.17,70.28l-5.76-13.49L291.13,122.62A44.15,44.15,0,0,0,300.54,134.53Z"/>
        </g>
        <g>
          <path class="cls-12" d="M139.47,338.68l-3-3.61a10.63,10.63,0,0,1-2.6-6.64,7,7,0,0,1,1-3.94s4.12-6.63,1.69-16.38a37.34,37.34,0,0,1-1-9V274.29a7.53,7.53,0,0,0-7.53-7.53h-3.52a7.53,7.53,0,0,0-7.52,7.53v24.82a37.35,37.35,0,0,1-1.05,9c-2.43,9.75,1.69,16.38,1.69,16.38a7.07,7.07,0,0,1,1,3.94,10.75,10.75,0,0,1-2.6,6.64l-3,3.61a5,5,0,0,0-1.17,3.19v98.25a5.67,5.67,0,0,0,5.68,5.67H135a5.67,5.67,0,0,0,5.67-5.67V341.87A4.9,4.9,0,0,0,139.47,338.68Z"/>
          <path class="cls-17" d="M113.93,373v65.86a3.41,3.41,0,0,0,3.41,3.41H135a3.41,3.41,0,0,0,3.41-3.41V373Z"/>
          <g>
            <path class="cls-25" d="M130.65,418.23a7.14,7.14,0,1,1-7.14-7.13A7.14,7.14,0,0,1,130.65,418.23Z"/>
            <path class="cls-25" d="M134.65,408.44a2.67,2.67,0,1,1-2.66-2.66A2.66,2.66,0,0,1,134.65,408.44Z"/>
            <path class="cls-25" d="M126.17,400a2.66,2.66,0,1,1-2.66-2.66A2.66,2.66,0,0,1,126.17,400Z"/>
            <path class="cls-25" d="M133.48,391.38a1.5,1.5,0,1,1-1.49-1.49A1.49,1.49,0,0,1,133.48,391.38Z"/>
          </g>
          <g class="cls-29">
            <path class="cls-30" d="M118.46,440.15V341.9a4.9,4.9,0,0,1,1.17-3.19l3-3.61a10.63,10.63,0,0,0,2.6-6.64,7,7,0,0,0-1-3.94s-4.12-6.62-1.69-16.38a37.35,37.35,0,0,0,1-9V274.32a7.53,7.53,0,0,1,5.89-7.34,7.43,7.43,0,0,0-1.64-.18h-3.51a7.53,7.53,0,0,0-7.53,7.52v24.82a36.85,36.85,0,0,1-1,9c-2.43,9.76,1.69,16.38,1.69,16.38a7.07,7.07,0,0,1,1,3.94,10.69,10.69,0,0,1-2.6,6.64l-3,3.61a5,5,0,0,0-1.17,3.19v98.25a5.67,5.67,0,0,0,5.68,5.67h6.78A5.67,5.67,0,0,1,118.46,440.15Z"/>
          </g>
        </g>
        <g>
          <path class="cls-12" d="M154.82,338.68l3.05-3.61a10.68,10.68,0,0,0,2.59-6.64,7,7,0,0,0-1-3.94s-4.12-6.63-1.69-16.38a37.35,37.35,0,0,0,1.05-9V274.29a7.53,7.53,0,0,1,7.52-7.53h3.52a7.52,7.52,0,0,1,7.52,7.53v24.82a37.35,37.35,0,0,0,1.05,9c2.43,9.75-1.69,16.38-1.69,16.38a7,7,0,0,0-1,3.94,10.63,10.63,0,0,0,2.6,6.64l3,3.61a4.9,4.9,0,0,1,1.17,3.19v98.25a5.67,5.67,0,0,1-5.67,5.67H159.32a5.67,5.67,0,0,1-5.67-5.67V341.87A4.9,4.9,0,0,1,154.82,338.68Z"/>
          <path class="cls-17" d="M180.36,373v65.86a3.41,3.41,0,0,1-3.4,3.41H159.32a3.41,3.41,0,0,1-3.4-3.41V373Z"/>
          <g>
            <path class="cls-25" d="M163.65,418.23a7.13,7.13,0,1,0,7.13-7.13A7.14,7.14,0,0,0,163.65,418.23Z"/>
            <path class="cls-25" d="M159.64,408.44a2.67,2.67,0,1,0,2.67-2.66A2.67,2.67,0,0,0,159.64,408.44Z"/>
            <path class="cls-25" d="M168.12,400a2.66,2.66,0,1,0,2.66-2.66A2.66,2.66,0,0,0,168.12,400Z"/>
            <path class="cls-25" d="M160.81,391.38a1.5,1.5,0,1,0,1.5-1.49A1.49,1.49,0,0,0,160.81,391.38Z"/>
          </g>
          <g class="cls-29">
            <path class="cls-30" d="M175.83,440.15V341.9a5,5,0,0,0-1.16-3.19l-3-3.61a10.63,10.63,0,0,1-2.6-6.64,7,7,0,0,1,1-3.94s4.12-6.62,1.69-16.38a37.34,37.34,0,0,1-1-9V274.32a7.53,7.53,0,0,0-5.89-7.34,7.27,7.27,0,0,1,1.63-.18h3.52a7.52,7.52,0,0,1,7.52,7.52v24.82a37.35,37.35,0,0,0,1.05,9c2.43,9.76-1.69,16.38-1.69,16.38a7.07,7.07,0,0,0-1,3.94,10.75,10.75,0,0,0,2.6,6.64l3,3.61a5,5,0,0,1,1.17,3.19v98.25a5.67,5.67,0,0,1-5.68,5.67h-6.78A5.67,5.67,0,0,0,175.83,440.15Z"/>
          </g>
        </g>
        <g>
          <g>
            <circle class="cls-13" cx="478.78" cy="404.71" r="31.48" transform="translate(-25.1 777.7) rotate(-76.72)"/>
            <rect class="cls-16" x="453.21" y="401.39" width="50.06" height="5.18"/>
          </g>
          <g>
            <path class="cls-17" d="M452.17,386.21a14.72,14.72,0,0,0-8.1-19.18h0a14.72,14.72,0,0,0-19.18,8.1l-7.81,19.22,27.28,11.08Z"/>
            <path class="cls-6" d="M417.08,394.35l-7.72,19a14.72,14.72,0,0,0,8.1,19.19h0a14.73,14.73,0,0,0,19.18-8.1l7.72-19Z"/>
          </g>
          <path class="cls-31" d="M416,416.16l7.72-19,7.81-19.22a14.72,14.72,0,0,1,15.69-9,14.88,14.88,0,0,0-3.15-1.77h0a14.73,14.73,0,0,0-19.19,8.1L417,394.46l-7.72,19a14.74,14.74,0,0,0,8.1,19.19h0a14.71,14.71,0,0,0,3.5.92A14.71,14.71,0,0,1,416,416.16Z"/>
          <g>
            <path class="cls-32" d="M464.88,439.54a.91.91,0,0,0,.06-.32V422.09h0a1,1,0,0,1-.06.33s0,.06-.05.09a1.64,1.64,0,0,1-.16.28,2.4,2.4,0,0,1-.22.24l-.18.15-.15.12a1.64,1.64,0,0,1-.22.14l-.18.12-.26.14-.22.12-.3.14-.25.11c-.12.06-.26.11-.39.16l-.23.09-.71.25-.08,0-.71.22-.26.07-.66.18-.32.08-.76.17-.33.08-1.24.25-.1,0-1.43.25-.3.05c-.55.09-1.13.18-1.73.26l-.32,0c-.6.09-1.21.16-1.85.24l-.27,0-1.6.17-.35,0-1.82.16-.33,0-2.5.18-.35,0c-.76,0-1.54.09-2.33.12h-.21l-2,.08-.47,0-.61,0-.87,0H437l-1,0h-5.08l-1.54,0h0l-2.8-.08-.32,0-2.52-.11-.27,0L421,427h0l-2.29-.19-.4,0c-.72-.06-1.42-.13-2.09-.21l-.48-.06-1.57-.19-.59-.08-1.36-.2-.63-.1-.67-.12-1.37-.25-.88-.19-.78-.17L407,425l-.67-.18-.72-.22-.57-.19-.61-.24c-.16-.06-.33-.12-.47-.19s-.34-.17-.5-.25l-.36-.19a4.17,4.17,0,0,1-.38-.28,2.5,2.5,0,0,1-.24-.18,1.46,1.46,0,0,1-.26-.32,1,1,0,0,1-.13-.16,1.08,1.08,0,0,1-.13-.48v17.13a1,1,0,0,0,.13.48c0,.06.09.11.12.16a2.44,2.44,0,0,0,.26.32l.25.18a4.17,4.17,0,0,0,.38.28l.36.19c.16.08.31.17.49.25l.48.2.6.23.58.19.71.22.68.18.81.21.77.17.68.15.21,0,1.37.25.54.1.13,0,.63.1,1,.16.32,0,.58.08.74.1.85.1.46,0,.26,0,1.54.16.3,0,.39,0,.81.07,1.47.12H421l1.44.1,1,.06h.43l1.46.08.9,0h.3l.27,0,1.37,0,1.16,0h.21l1.25,0h7l.57,0h1.07l2-.08h.24c.79,0,1.56-.08,2.32-.12h.37l2.49-.18.18,0h.15l1.82-.16.12,0,.21,0,1.64-.17.18,0h.06c.64-.08,1.25-.15,1.85-.24l.19,0,.14,0c.6-.08,1.17-.17,1.73-.26l.12,0,.18,0,1.42-.25.09,0h0l1.23-.25.14,0,.2-.05.76-.18.2,0,.12,0,.66-.17.2-.06h.05l.7-.21.09,0h0c.24-.08.48-.16.7-.25h0l.21-.09.4-.16h0l.22-.1.3-.14h0l.19-.11a2,2,0,0,0,.25-.14l0,0,.15-.1.22-.14,0,0,.11-.1.18-.15,0,0,.19-.21h0l.06-.07.1-.2a.41.41,0,0,1,.05-.09Z"/>
            <path class="cls-13" d="M437.56,416.81c17.24.38,29.37,3.06,27.1,6s-18.08,5-35.31,4.61-29.37-3.06-27.11-6S420.32,416.43,437.56,416.81Z"/>
            <path class="cls-16" d="M432,416.77v10.64c1,0,2,0,3,0V416.75C434,416.75,433,416.75,432,416.77Z"/>
          </g>
        </g>
        <g>
          <polygon class="cls-13" points="397.69 227.4 388.87 230.97 385.3 239.79 381.74 230.97 372.92 227.4 381.74 223.84 385.3 215.02 388.87 223.84 397.69 227.4"/>
          <polygon class="cls-13" points="216.86 253.3 210.05 256.06 207.3 262.87 204.54 256.06 197.73 253.3 204.54 250.55 207.3 243.74 210.05 250.55 216.86 253.3"/>
          <polygon class="cls-13" points="405.65 204.14 400.63 206.17 398.61 211.18 396.58 206.17 391.56 204.14 396.58 202.11 398.61 197.1 400.63 202.11 405.65 204.14"/>
          <polygon class="cls-13" points="230.85 222.29 223.07 225.44 219.92 233.22 216.78 225.44 208.99 222.29 216.78 219.14 219.92 211.36 223.07 219.14 230.85 222.29"/>
          <polygon class="cls-13" points="421.4 244.81 414.84 247.47 412.18 254.04 409.53 247.47 402.96 244.81 409.53 242.16 412.18 235.59 414.84 242.16 421.4 244.81"/>
          <polygon class="cls-13" points="198.13 229.74 192.83 231.88 190.69 237.18 188.55 231.88 183.25 229.74 188.55 227.59 190.69 222.29 192.83 227.59 198.13 229.74"/>
        </g>
        <g>
          <path class="cls-6" d="M539.52,300.68a30.48,30.48,0,0,0-1.69-7.17,22.73,22.73,0,0,1,9.23-3.07l-1.38-3-1.38-3a22.87,22.87,0,0,1-8.37,5A31.48,31.48,0,0,0,533,284.9a33,33,0,0,1,11.9-10l-3.45-3.45L538,268a33,33,0,0,1-10,11.9,31.68,31.68,0,0,0-5-3.24,22.73,22.73,0,0,1,5-8.43l-3-1.39-3-1.39a22.79,22.79,0,0,1-3.19,9.38,31.29,31.29,0,0,0-6.53-1.47,33,33,0,0,1,1.33-15.49h-9.75a33,33,0,0,1,1.33,15.49,30.84,30.84,0,0,0-6.75,1.55,22.86,22.86,0,0,1-3.26-9.52l-3,1.39-3,1.4a23,23,0,0,1,5.06,8.6,30.26,30.26,0,0,0-4.76,3.12,33,33,0,0,1-10-11.9l-3.45,3.45-3.45,3.45a33,33,0,0,1,11.9,10,30.82,30.82,0,0,0-3.23,5,22.8,22.8,0,0,1-8.75-5.11l-1.39,3-1.4,3a22.71,22.71,0,0,1,9.69,3.37,30.57,30.57,0,0,0-1.46,6.49,32.93,32.93,0,0,1-15.5-1.33v9.76a32.93,32.93,0,0,1,15.5-1.33,30.06,30.06,0,0,0,1.45,6.45,22.67,22.67,0,0,1-9.73,3.41l1.39,3,1.39,3a22.68,22.68,0,0,1,8.81-5.12,31.35,31.35,0,0,0,3.23,5,33,33,0,0,1-11.9,10l3.45,3.45,3.45,3.45a33,33,0,0,1,10-11.9,31,31,0,0,0,4.39,2.92,22.75,22.75,0,0,1-5.08,8.76l3,1.38,3,1.38a22.76,22.76,0,0,1,3.27-9.57,31.72,31.72,0,0,0,7.12,1.67,33,33,0,0,1-1.33,15.49h9.75a33,33,0,0,1-1.33-15.49,31.38,31.38,0,0,0,6.9-1.6,22.69,22.69,0,0,1,3.2,9.45l3-1.39,3-1.38a22.94,22.94,0,0,1-5-8.57,31.21,31.21,0,0,0,4.64-3.05,33,33,0,0,1,10,11.9l3.45-3.45,3.45-3.45a33,33,0,0,1-11.9-10,30.89,30.89,0,0,0,3-4.44,23,23,0,0,1,8.41,5l1.38-3,1.39-3a23,23,0,0,1-9.28-3.09,31,31,0,0,0,1.68-7.15,32.93,32.93,0,0,1,15.5,1.33v-9.76A32.93,32.93,0,0,1,539.52,300.68Z"/>
          <g>
            <path class="cls-33" d="M513.51,257.85c0,1.41-2.18,2.55-4.87,2.55s-4.88-1.14-4.88-2.55,2.18-2.56,4.88-2.56S513.51,256.43,513.51,257.85Z"/>
            <path class="cls-33" d="M503.76,350.61c0-1.41,2.18-2.56,4.88-2.56s4.87,1.15,4.87,2.56-2.18,2.56-4.87,2.56S503.76,352,503.76,350.61Z"/>
          </g>
          <g>
            <path class="cls-33" d="M495.08,265.37c.4.88-.63,2.22-2.31,3s-3.36.68-3.76-.2.63-2.22,2.3-3S494.67,264.49,495.08,265.37Z"/>
            <path class="cls-33" d="M522.28,343c-.4-.88.63-2.21,2.31-3s3.36-.67,3.76.21-.63,2.21-2.31,3S522.68,343.85,522.28,343Z"/>
          </g>
          <g>
            <path class="cls-33" d="M521.9,265.43c-.4.88.63,2.21,2.3,3s3.36.68,3.77-.2-.63-2.21-2.31-3S522.3,264.55,521.9,265.43Z"/>
            <path class="cls-33" d="M494.7,343c.4-.88-.64-2.21-2.31-3s-3.37-.67-3.77.21.64,2.21,2.31,3S494.3,343.9,494.7,343Z"/>
          </g>
          <g>
            <path class="cls-33" d="M469.47,317.64c.88-.4,2.21.63,3,2.3s.68,3.36-.2,3.77-2.21-.63-3-2.31S468.59,318,469.47,317.64Z"/>
            <path class="cls-33" d="M547.06,290.44c-.88.4-2.21-.64-3-2.31s-.67-3.37.21-3.77,2.21.64,3,2.32S547.94,290,547.06,290.44Z"/>
          </g>
          <g>
            <path class="cls-33" d="M469.52,290.82c.88.4,2.22-.63,3-2.31s.68-3.36-.2-3.76-2.22.63-3,2.3S468.65,290.41,469.52,290.82Z"/>
            <path class="cls-33" d="M547.12,318c-.88-.4-2.21.63-3,2.31s-.67,3.36.21,3.76,2.21-.63,3-2.31S548,318.42,547.12,318Z"/>
          </g>
          <g>
            <path class="cls-33" d="M472.39,333.58c1-1,3.35-.27,5.26,1.64s2.64,4.26,1.64,5.25-3.36.27-5.26-1.64S471.39,334.58,472.39,333.58Z"/>
            <path class="cls-33" d="M544.88,274.88c-1,1-3.35.26-5.26-1.64S537,269,538,268s3.36-.26,5.26,1.64S545.88,273.88,544.88,274.88Z"/>
          </g>
          <g>
            <path class="cls-33" d="M538,340.47c-1-1-.26-3.35,1.64-5.25s4.26-2.64,5.26-1.64.27,3.35-1.64,5.25S539,341.47,538,340.47Z"/>
            <path class="cls-33" d="M479.29,268c1,1,.26,3.36-1.64,5.26s-4.26,2.64-5.26,1.64-.26-3.35,1.64-5.26S478.29,267,479.29,268Z"/>
          </g>
          <path class="cls-33" d="M462.25,299.35c1.42,0,2.56,2.19,2.56,4.88s-1.14,4.88-2.56,4.88-2.55-2.19-2.55-4.88S460.84,299.35,462.25,299.35Z"/>
          <path class="cls-33" d="M555,309.11c-1.41,0-2.56-2.19-2.56-4.88s1.15-4.88,2.56-4.88,2.56,2.19,2.56,4.88S556.43,309.11,555,309.11Z"/>
          <path class="cls-33" d="M511.71,297.69a9.12,9.12,0,1,1-9.12-9.12A9.12,9.12,0,0,1,511.71,297.69Z"/>
          <path class="cls-33" d="M526.67,316a5.84,5.84,0,1,1-5.84-5.84A5.85,5.85,0,0,1,526.67,316Z"/>
          <path class="cls-33" d="M527,296.18a4.07,4.07,0,1,1-4.07-4.06A4.07,4.07,0,0,1,527,296.18Z"/>
        </g>
        <g>
          <path class="cls-6" d="M108.6,133.57a30.42,30.42,0,0,0-1.66-7,22.31,22.31,0,0,1,9-3l-1.36-3-1.35-3a22.27,22.27,0,0,1-8.19,4.85,30.68,30.68,0,0,0-2.89-4.32,32.24,32.24,0,0,1,11.66-9.82l-3.38-3.37-3.38-3.38a32.18,32.18,0,0,1-9.81,11.65,30.69,30.69,0,0,0-4.9-3.18,22.44,22.44,0,0,1,4.9-8.24l-3-1.37-3-1.36a22.48,22.48,0,0,1-3.12,9.19,30.11,30.11,0,0,0-6.39-1.44,32.17,32.17,0,0,1,1.3-15.18H73.58a32.43,32.43,0,0,1,1.3,15.18,30.26,30.26,0,0,0-6.61,1.51A22.39,22.39,0,0,1,65.07,99l-3,1.37-3,1.36a22.27,22.27,0,0,1,5,8.42,30.94,30.94,0,0,0-4.66,3.06,32.19,32.19,0,0,1-9.82-11.65l-3.37,3.38-3.38,3.37a32.19,32.19,0,0,1,11.65,9.82A30.14,30.14,0,0,0,51.35,123a22.35,22.35,0,0,1-8.57-5l-1.36,3-1.37,3a22,22,0,0,1,9.48,3.31,30.34,30.34,0,0,0-1.42,6.35,32.43,32.43,0,0,1-15.18-1.3v9.55a32.17,32.17,0,0,1,15.18-1.3,30.83,30.83,0,0,0,1.41,6.32A22,22,0,0,1,40,150.17l1.36,3,1.36,3a22.34,22.34,0,0,1,8.63-5A30.32,30.32,0,0,0,54.51,156a32.18,32.18,0,0,1-11.65,9.81l3.38,3.38,3.37,3.37a32.28,32.28,0,0,1,9.82-11.65,29.8,29.8,0,0,0,4.3,2.87,22.27,22.27,0,0,1-5,8.57l3,1.36,3,1.35a22.44,22.44,0,0,1,3.21-9.38,30.4,30.4,0,0,0,7,1.64,32.39,32.39,0,0,1-1.3,15.17h9.55a32.13,32.13,0,0,1-1.3-15.17,30.3,30.3,0,0,0,6.75-1.57A22.33,22.33,0,0,1,91.71,175l3-1.36,3-1.35a22.41,22.41,0,0,1-4.92-8.39,30.75,30.75,0,0,0,4.54-3,32.27,32.27,0,0,1,9.81,11.65l3.38-3.37,3.38-3.38A32.23,32.23,0,0,1,102.19,156a30,30,0,0,0,2.89-4.34,22.39,22.39,0,0,1,8.24,4.86l1.36-3,1.35-3a22.54,22.54,0,0,1-9.08-3,30.79,30.79,0,0,0,1.65-7,32.13,32.13,0,0,1,15.17,1.3v-9.55A32.39,32.39,0,0,1,108.6,133.57Z"/>
          <g>
            <path class="cls-33" d="M83.13,91.62c0,1.39-2.14,2.51-4.78,2.51S73.58,93,73.58,91.62s2.13-2.5,4.77-2.5S83.13,90.24,83.13,91.62Z"/>
            <path class="cls-33" d="M73.58,182.46c0-1.38,2.13-2.5,4.77-2.5s4.78,1.12,4.78,2.5S81,185,78.35,185,73.58,183.84,73.58,182.46Z"/>
          </g>
          <g>
            <path class="cls-33" d="M65.07,99c.4.86-.61,2.17-2.25,2.93s-3.29.66-3.69-.2.62-2.17,2.26-2.92S64.68,98.13,65.07,99Z"/>
            <path class="cls-33" d="M91.71,175c-.39-.87.62-2.17,2.26-2.92s3.3-.66,3.69.21-.62,2.16-2.26,2.91S92.1,175.84,91.71,175Z"/>
          </g>
          <g>
            <path class="cls-33" d="M91.34,99.05c-.39.86.62,2.17,2.26,2.92s3.29.67,3.68-.19-.61-2.17-2.26-2.93S91.73,98.19,91.34,99.05Z"/>
            <path class="cls-33" d="M64.7,175c.4-.86-.62-2.17-2.26-2.91s-3.29-.66-3.68.2.62,2.17,2.26,2.92S64.31,175.89,64.7,175Z"/>
          </g>
          <g>
            <path class="cls-33" d="M40,150.17c.86-.39,2.17.62,2.92,2.26s.66,3.29-.2,3.69-2.16-.62-2.92-2.26S39.14,150.57,40,150.17Z"/>
            <path class="cls-33" d="M116,123.54c-.86.39-2.17-.62-2.91-2.26s-.66-3.3.2-3.69,2.17.62,2.91,2.26S116.84,123.15,116,123.54Z"/>
          </g>
          <g>
            <path class="cls-33" d="M40.05,123.91c.86.39,2.17-.62,2.92-2.26s.67-3.29-.19-3.68-2.17.61-2.92,2.25S39.19,123.52,40.05,123.91Z"/>
            <path class="cls-33" d="M116,150.55c-.86-.4-2.16.62-2.91,2.26s-.66,3.29.2,3.68,2.17-.62,2.92-2.26S116.9,150.94,116,150.55Z"/>
          </g>
          <g>
            <path class="cls-33" d="M42.86,165.78c1-1,3.28-.26,5.15,1.61s2.58,4.17,1.6,5.14-3.28.26-5.14-1.6S41.88,166.76,42.86,165.78Z"/>
            <path class="cls-33" d="M113.85,108.3c-1,1-3.29.26-5.15-1.6s-2.59-4.17-1.61-5.15,3.28-.26,5.15,1.61S114.82,107.33,113.85,108.3Z"/>
          </g>
          <g>
            <path class="cls-33" d="M107.09,172.53c-1-1-.26-3.28,1.61-5.14s4.17-2.59,5.15-1.61.25,3.28-1.61,5.15S108.07,173.51,107.09,172.53Z"/>
            <path class="cls-33" d="M49.61,101.55c1,1,.26,3.28-1.6,5.15s-4.17,2.58-5.15,1.6-.26-3.28,1.61-5.14S48.64,100.57,49.61,101.55Z"/>
          </g>
          <path class="cls-33" d="M32.93,132.27c1.39,0,2.51,2.13,2.51,4.77s-1.12,4.78-2.51,4.78-2.5-2.14-2.5-4.78S31.55,132.27,32.93,132.27Z"/>
          <path class="cls-33" d="M123.77,141.82c-1.38,0-2.5-2.14-2.5-4.78s1.12-4.77,2.5-4.77,2.51,2.13,2.51,4.77S125.15,141.82,123.77,141.82Z"/>
          <path class="cls-33" d="M81.36,130.64a8.93,8.93,0,1,1-8.93-8.93A8.93,8.93,0,0,1,81.36,130.64Z"/>
          <path class="cls-33" d="M96,148.55a5.72,5.72,0,1,1-5.72-5.72A5.72,5.72,0,0,1,96,148.55Z"/>
          <path class="cls-33" d="M96.33,129.16a4,4,0,1,1-4-4A4,4,0,0,1,96.33,129.16Z"/>
        </g>
        <g>
          <path class="cls-6" d="M571.21,209.61a15.53,15.53,0,0,0-.82-3.5,11.19,11.19,0,0,1,4.49-1.49l-.67-1.48-.68-1.47a11,11,0,0,1-4.07,2.41,14.87,14.87,0,0,0-1.43-2.15,16,16,0,0,1,5.79-4.88l-1.68-1.68-1.68-1.67a16.21,16.21,0,0,1-4.87,5.79,15.57,15.57,0,0,0-2.43-1.58,11.07,11.07,0,0,1,2.43-4.1l-1.48-.68-1.47-.68a11.27,11.27,0,0,1-1.55,4.57,15.3,15.3,0,0,0-3.18-.72,16,16,0,0,1,.65-7.53h-4.75a16,16,0,0,1,.65,7.53,14.79,14.79,0,0,0-3.28.76,11,11,0,0,1-1.59-4.63l-1.48.67-1.47.68A11.26,11.26,0,0,1,549.1,198a14.26,14.26,0,0,0-2.32,1.52,16.12,16.12,0,0,1-4.88-5.79l-1.67,1.67-1.68,1.68a16,16,0,0,1,5.79,4.88,14.88,14.88,0,0,0-1.57,2.41,11.06,11.06,0,0,1-4.26-2.49l-.68,1.48-.68,1.48a11.13,11.13,0,0,1,4.72,1.64,14.37,14.37,0,0,0-.71,3.16,16.14,16.14,0,0,1-7.54-.65v4.74a16.11,16.11,0,0,1,7.54-.64,15,15,0,0,0,.7,3.14,11.24,11.24,0,0,1-4.73,1.66l.67,1.47.68,1.48a11,11,0,0,1,4.29-2.49,15.17,15.17,0,0,0,1.57,2.42,16.12,16.12,0,0,1-5.79,4.87l1.68,1.68L541.9,229a15.94,15.94,0,0,1,4.88-5.79,14.71,14.71,0,0,0,2.14,1.42,11.23,11.23,0,0,1-2.47,4.26l1.47.67,1.48.68a11.07,11.07,0,0,1,1.6-4.66,15.3,15.3,0,0,0,3.46.81,16,16,0,0,1-.65,7.54h4.75a16,16,0,0,1-.65-7.54,15.08,15.08,0,0,0,3.36-.78,11,11,0,0,1,1.55,4.6l1.48-.67,1.48-.68a11.23,11.23,0,0,1-2.45-4.17,14.65,14.65,0,0,0,2.26-1.48,16,16,0,0,1,4.87,5.79l1.68-1.68,1.68-1.68a16.12,16.12,0,0,1-5.79-4.87,15.6,15.6,0,0,0,1.44-2.16,11.22,11.22,0,0,1,4.09,2.42l.67-1.48.68-1.48a11.23,11.23,0,0,1-4.52-1.5,15,15,0,0,0,.82-3.48,16.11,16.11,0,0,1,7.54.64V209A16.14,16.14,0,0,1,571.21,209.61Z"/>
          <g>
            <path class="cls-33" d="M558.56,188.77c0,.68-1.07,1.24-2.38,1.24s-2.37-.56-2.37-1.24,1.06-1.25,2.37-1.25S558.56,188.08,558.56,188.77Z"/>
            <path class="cls-33" d="M553.81,233.9c0-.69,1.06-1.25,2.37-1.25s2.38.56,2.38,1.25-1.07,1.24-2.38,1.24S553.81,234.58,553.81,233.9Z"/>
          </g>
          <g>
            <path class="cls-33" d="M549.59,192.43c.19.42-.31,1.07-1.12,1.45s-1.64.33-1.83-.1.3-1.08,1.12-1.45S549.39,192,549.59,192.43Z"/>
            <path class="cls-33" d="M562.82,230.18c-.19-.43.31-1.08,1.13-1.45s1.63-.33,1.83.1-.31,1.08-1.13,1.45S563,230.61,562.82,230.18Z"/>
          </g>
          <g>
            <path class="cls-33" d="M562.64,192.45c-.2.43.3,1.08,1.12,1.46s1.63.33,1.83-.1-.31-1.08-1.12-1.45S562.83,192,562.64,192.45Z"/>
            <path class="cls-33" d="M549.4,230.21c.2-.43-.31-1.08-1.12-1.45s-1.64-.33-1.83.1.31,1.08,1.12,1.45S549.21,230.63,549.4,230.21Z"/>
          </g>
          <g>
            <path class="cls-33" d="M537.13,217.86c.42-.2,1.07.3,1.45,1.12s.33,1.63-.1,1.83-1.08-.31-1.45-1.12S536.7,218.05,537.13,217.86Z"/>
            <path class="cls-33" d="M574.88,204.62c-.43.2-1.08-.31-1.45-1.12s-.33-1.64.1-1.83,1.08.31,1.45,1.12S575.31,204.43,574.88,204.62Z"/>
          </g>
          <g>
            <path class="cls-33" d="M537.15,204.81c.43.19,1.08-.31,1.46-1.12s.33-1.64-.1-1.84-1.08.31-1.45,1.13S536.73,204.61,537.15,204.81Z"/>
            <path class="cls-33" d="M574.91,218c-.43-.19-1.08.31-1.45,1.13s-.33,1.63.1,1.83,1.08-.31,1.45-1.13S575.33,218.24,574.91,218Z"/>
          </g>
          <g>
            <path class="cls-33" d="M538.55,225.61c.49-.49,1.63-.13,2.56.8s1.28,2.07.79,2.56-1.63.12-2.55-.8S538.06,226.1,538.55,225.61Z"/>
            <path class="cls-33" d="M573.82,197.05c-.49.49-1.63.13-2.56-.8s-1.28-2.07-.8-2.55,1.63-.13,2.56.79S574.3,196.57,573.82,197.05Z"/>
          </g>
          <g>
            <path class="cls-33" d="M570.46,229c-.48-.49-.13-1.64.8-2.56s2.07-1.29,2.56-.8.13,1.63-.8,2.56S571,229.45,570.46,229Z"/>
            <path class="cls-33" d="M541.9,193.7c.49.48.13,1.63-.79,2.55s-2.07,1.29-2.56.8-.13-1.63.8-2.56S541.42,193.21,541.9,193.7Z"/>
          </g>
          <path class="cls-33" d="M533.62,209c.68,0,1.24,1.06,1.24,2.37s-.56,2.37-1.24,2.37-1.25-1.06-1.25-2.37S532.93,209,533.62,209Z"/>
          <path class="cls-33" d="M578.75,213.7c-.69,0-1.24-1.06-1.24-2.37s.55-2.37,1.24-2.37S580,210,580,211.33,579.44,213.7,578.75,213.7Z"/>
          <path class="cls-33" d="M557.68,208.15a4.44,4.44,0,1,1-4.44-4.43A4.44,4.44,0,0,1,557.68,208.15Z"/>
          <path class="cls-33" d="M565,217.05a2.84,2.84,0,1,1-2.84-2.84A2.84,2.84,0,0,1,565,217.05Z"/>
          <path class="cls-33" d="M565.12,207.42a2,2,0,1,1-2-2A2,2,0,0,1,565.12,207.42Z"/>
        </g>
        <g>
          <path class="cls-6" d="M94.6,303.36a23.81,23.81,0,0,0-1.3-5.48,17.51,17.51,0,0,1,7-2.34l-1.06-2.32-1.05-2.32a17.56,17.56,0,0,1-6.39,3.79,23.92,23.92,0,0,0-2.25-3.38,25.1,25.1,0,0,1,9.09-7.64L96.05,281l-2.63-2.63a25.15,25.15,0,0,1-7.65,9.08A23.44,23.44,0,0,0,82,285a17.41,17.41,0,0,1,3.81-6.43l-2.31-1.07-2.32-1.06a17.5,17.5,0,0,1-2.43,7.16,24.17,24.17,0,0,0-5-1.12,25,25,0,0,1,1-11.83H67.29a25.19,25.19,0,0,1,1,11.83,23.11,23.11,0,0,0-5.15,1.18,17.29,17.29,0,0,1-2.49-7.26l-2.32,1.06L56,278.53a17.49,17.49,0,0,1,3.86,6.57,23.26,23.26,0,0,0-3.64,2.38,25.25,25.25,0,0,1-7.65-9.08L46,281l-2.63,2.64a25.14,25.14,0,0,1,9.08,7.64A24.35,24.35,0,0,0,50,295.1a17.42,17.42,0,0,1-6.69-3.9l-1.06,2.32-1.06,2.31a17.39,17.39,0,0,1,7.39,2.58,23.25,23.25,0,0,0-1.11,4.95,25.16,25.16,0,0,1-11.83-1v7.44a25.16,25.16,0,0,1,11.83-1,23.82,23.82,0,0,0,1.1,4.93,17.28,17.28,0,0,1-7.42,2.6l1.06,2.31,1.06,2.32A17.35,17.35,0,0,1,50,317a23.5,23.5,0,0,0,2.47,3.79,25.05,25.05,0,0,1-9.08,7.65L46,331.11l2.63,2.63a25.16,25.16,0,0,1,7.65-9.08,23.88,23.88,0,0,0,3.36,2.23,17.36,17.36,0,0,1-3.88,6.68l2.32,1.06,2.32,1.06a17.34,17.34,0,0,1,2.5-7.32,23.76,23.76,0,0,0,5.43,1.28,25.19,25.19,0,0,1-1,11.83h7.45a25,25,0,0,1-1-11.83A23.69,23.69,0,0,0,79,328.43a17.35,17.35,0,0,1,2.44,7.21l2.32-1.05,2.32-1.06A17.41,17.41,0,0,1,82.24,327a23.94,23.94,0,0,0,3.53-2.33,25.06,25.06,0,0,1,7.65,9.08l2.63-2.63,2.64-2.64a25,25,0,0,1-9.09-7.65,24,24,0,0,0,2.26-3.38,17.43,17.43,0,0,1,6.42,3.79l1.06-2.31,1-2.32a17.53,17.53,0,0,1-7.08-2.37,23.55,23.55,0,0,0,1.29-5.45,25.12,25.12,0,0,1,11.82,1v-7.44A25.12,25.12,0,0,1,94.6,303.36Z"/>
          <g>
            <path class="cls-33" d="M74.74,270.66c0,1.08-1.67,1.95-3.72,1.95s-3.73-.87-3.73-1.95,1.67-2,3.73-2S74.74,269.58,74.74,270.66Z"/>
            <path class="cls-33" d="M67.29,341.48c0-1.08,1.67-2,3.73-2s3.72.88,3.72,2-1.67,1.95-3.72,1.95S67.29,342.56,67.29,341.48Z"/>
          </g>
          <g>
            <path class="cls-33" d="M60.67,276.41c.3.67-.48,1.69-1.76,2.27s-2.57.52-2.87-.15.47-1.69,1.75-2.27S60.36,275.74,60.67,276.41Z"/>
            <path class="cls-33" d="M81.43,335.64c-.3-.67.49-1.69,1.77-2.27s2.56-.51,2.87.16-.49,1.69-1.77,2.27S81.74,336.31,81.43,335.64Z"/>
          </g>
          <g>
            <path class="cls-33" d="M81.14,276.45c-.31.67.48,1.69,1.76,2.28s2.57.52,2.87-.15-.48-1.69-1.76-2.28S81.45,275.78,81.14,276.45Z"/>
            <path class="cls-33" d="M60.38,335.69c.3-.68-.49-1.69-1.77-2.28s-2.56-.51-2.87.16.48,1.69,1.76,2.27S60.07,336.36,60.38,335.69Z"/>
          </g>
          <g>
            <path class="cls-33" d="M41.12,316.31c.67-.31,1.69.48,2.27,1.76s.52,2.56-.15,2.87-1.69-.48-2.28-1.76S40.45,316.61,41.12,316.31Z"/>
            <path class="cls-33" d="M100.35,295.54c-.67.31-1.69-.48-2.27-1.76s-.51-2.57.16-2.88,1.69.49,2.27,1.77S101,295.24,100.35,295.54Z"/>
          </g>
          <g>
            <path class="cls-33" d="M41.16,295.83c.67.31,1.69-.48,2.28-1.76s.51-2.56-.16-2.87-1.69.48-2.27,1.76S40.49,295.52,41.16,295.83Z"/>
            <path class="cls-33" d="M100.39,316.6c-.67-.31-1.68.48-2.27,1.76s-.51,2.57.16,2.87,1.69-.48,2.27-1.76S101.07,316.9,100.39,316.6Z"/>
          </g>
          <g>
            <path class="cls-33" d="M43.35,328.47c.76-.76,2.56-.2,4,1.26s2,3.25,1.25,4-2.56.2-4-1.25S42.58,329.24,43.35,328.47Z"/>
            <path class="cls-33" d="M98.69,283.67c-.77.76-2.56.2-4-1.26s-2-3.25-1.25-4,2.56-.2,4,1.25S99.45,282.9,98.69,283.67Z"/>
          </g>
          <g>
            <path class="cls-33" d="M93.42,333.74c-.76-.76-.2-2.56,1.25-4s3.25-2,4-1.26.2,2.56-1.25,4S94.18,334.5,93.42,333.74Z"/>
            <path class="cls-33" d="M48.61,278.4c.77.76.21,2.56-1.25,4s-3.25,2-4,1.26-.2-2.56,1.25-4S47.85,277.64,48.61,278.4Z"/>
          </g>
          <path class="cls-33" d="M35.61,302.35c1.08,0,2,1.66,2,3.72s-.87,3.72-2,3.72-2-1.66-2-3.72S34.53,302.35,35.61,302.35Z"/>
          <path class="cls-33" d="M106.42,309.79c-1.07,0-2-1.66-2-3.72s.88-3.72,2-3.72,2,1.66,2,3.72S107.5,309.79,106.42,309.79Z"/>
          <path class="cls-33" d="M73.36,301.08a7,7,0,1,1-7-7A7,7,0,0,1,73.36,301.08Z"/>
          <path class="cls-33" d="M84.78,315a4.46,4.46,0,1,1-4.45-4.45A4.46,4.46,0,0,1,84.78,315Z"/>
          <path class="cls-33" d="M85,299.93a3.1,3.1,0,1,1-3.1-3.11A3.1,3.1,0,0,1,85,299.93Z"/>
        </g>
        <g>
          <path class="cls-6" d="M122.72,218.87a12.25,12.25,0,0,0-.67-2.84,9.08,9.08,0,0,1,3.66-1.22l-.54-1.2-.55-1.21a9.32,9.32,0,0,1-3.32,2,13.12,13.12,0,0,0-1.17-1.76,13,13,0,0,1,4.72-4l-1.37-1.37-1.37-1.37a13,13,0,0,1-4,4.72,12.56,12.56,0,0,0-2-1.29,9.1,9.1,0,0,1,2-3.34l-1.21-.55-1.2-.55a9,9,0,0,1-1.26,3.72,12.47,12.47,0,0,0-2.59-.58,13,13,0,0,1,.52-6.15h-3.87a13,13,0,0,1,.53,6.15,12,12,0,0,0-2.68.61,9,9,0,0,1-1.29-3.78l-1.21.56-1.2.55a9,9,0,0,1,2,3.41,12.56,12.56,0,0,0-1.89,1.24,13.15,13.15,0,0,1-4-4.72l-1.37,1.37-1.36,1.37a13,13,0,0,1,4.72,4,11.67,11.67,0,0,0-1.28,2,9,9,0,0,1-3.48-2l-.55,1.21L95,215a9,9,0,0,1,3.84,1.34,12.15,12.15,0,0,0-.58,2.57,13,13,0,0,1-6.15-.52v3.87a13,13,0,0,1,6.15-.53,12.06,12.06,0,0,0,.58,2.56,9,9,0,0,1-3.86,1.35l.55,1.21L96,228a9,9,0,0,1,3.5-2,11.67,11.67,0,0,0,1.28,2,13.15,13.15,0,0,1-4.72,4l1.36,1.37,1.37,1.36a13.15,13.15,0,0,1,4-4.72,11.21,11.21,0,0,0,1.74,1.16,9,9,0,0,1-2,3.48l1.2.55,1.21.55a9.09,9.09,0,0,1,1.3-3.81,12,12,0,0,0,2.82.67,13,13,0,0,1-.53,6.15h3.87a13,13,0,0,1-.52-6.15,12.48,12.48,0,0,0,2.73-.64,9,9,0,0,1,1.27,3.75l1.21-.55,1.2-.54a9.21,9.21,0,0,1-2-3.4,12.49,12.49,0,0,0,1.84-1.22,13,13,0,0,1,4,4.72l1.37-1.36,1.37-1.37a13.15,13.15,0,0,1-4.72-4,12.22,12.22,0,0,0,1.17-1.76,9.29,9.29,0,0,1,3.34,2l.55-1.2.55-1.21a9,9,0,0,1-3.68-1.22,12.24,12.24,0,0,0,.66-2.84,13,13,0,0,1,6.15.53v-3.87A13,13,0,0,1,122.72,218.87Z"/>
          <g>
            <path class="cls-33" d="M112.4,201.88c0,.56-.86,1-1.93,1s-1.94-.45-1.94-1,.87-1,1.94-1S112.4,201.32,112.4,201.88Z"/>
            <path class="cls-33" d="M108.53,238.69c0-.56.87-1,1.94-1s1.93.46,1.93,1-.86,1-1.93,1S108.53,239.25,108.53,238.69Z"/>
          </g>
          <g>
            <path class="cls-33" d="M105.09,204.86c.16.35-.25.88-.92,1.19s-1.33.27-1.49-.08.25-.88.91-1.18S104.93,204.52,105.09,204.86Z"/>
            <path class="cls-33" d="M115.88,235.65c-.16-.35.25-.87.92-1.18s1.33-.26,1.49.09-.25.87-.92,1.18S116,236,115.88,235.65Z"/>
          </g>
          <g>
            <path class="cls-33" d="M115.73,204.89c-.16.35.25.88.91,1.18s1.34.27,1.5-.08-.25-.88-.92-1.18S115.89,204.54,115.73,204.89Z"/>
            <path class="cls-33" d="M104.94,235.68c.16-.35-.25-.88-.92-1.19s-1.33-.26-1.49.09.25.88.91,1.18S104.78,236,104.94,235.68Z"/>
          </g>
          <g>
            <path class="cls-33" d="M94.93,225.6c.34-.16.87.25,1.18.92s.27,1.33-.08,1.49-.88-.25-1.18-.91S94.58,225.76,94.93,225.6Z"/>
            <path class="cls-33" d="M125.71,214.81c-.34.16-.87-.25-1.18-.92s-.26-1.33.09-1.49.87.25,1.18.92S126.06,214.65,125.71,214.81Z"/>
          </g>
          <g>
            <path class="cls-33" d="M95,215c.35.16.88-.25,1.18-.91s.27-1.34-.08-1.5-.88.25-1.18.92S94.6,214.8,95,215Z"/>
            <path class="cls-33" d="M125.74,225.75c-.35-.15-.88.26-1.18.92s-.27,1.34.08,1.49.88-.25,1.18-.91S126.09,225.91,125.74,225.75Z"/>
          </g>
          <g>
            <path class="cls-33" d="M96.09,231.93c.39-.4,1.33-.11,2.08.65s1,1.69.65,2.08-1.33.11-2.08-.65S95.69,232.32,96.09,231.93Z"/>
            <path class="cls-33" d="M124.85,208.64c-.4.39-1.33.1-2.09-.65s-1-1.69-.65-2.09,1.33-.1,2.09.65S125.25,208.24,124.85,208.64Z"/>
          </g>
          <g>
            <path class="cls-33" d="M122.11,234.66c-.39-.39-.1-1.33.65-2.08s1.69-1.05,2.09-.65.1,1.33-.65,2.08S122.51,235.06,122.11,234.66Z"/>
            <path class="cls-33" d="M98.82,205.9c.4.4.11,1.33-.65,2.09s-1.69,1-2.08.65-.11-1.33.65-2.09S98.43,205.5,98.82,205.9Z"/>
          </g>
          <path class="cls-33" d="M92.06,218.35c.56,0,1,.86,1,1.93s-.46,1.94-1,1.94-1-.87-1-1.94S91.5,218.35,92.06,218.35Z"/>
          <path class="cls-33" d="M128.87,222.22c-.56,0-1-.87-1-1.94s.45-1.93,1-1.93,1,.86,1,1.93S129.43,222.22,128.87,222.22Z"/>
          <path class="cls-33" d="M111.69,217.69a3.62,3.62,0,1,1-3.62-3.62A3.62,3.62,0,0,1,111.69,217.69Z"/>
          <path class="cls-33" d="M117.62,225a2.32,2.32,0,1,1-2.31-2.32A2.31,2.31,0,0,1,117.62,225Z"/>
          <path class="cls-33" d="M117.75,217.09a1.61,1.61,0,1,1-1.61-1.61A1.61,1.61,0,0,1,117.75,217.09Z"/>
        </g>
        <g>
          <path class="cls-6" d="M507,137.64a14.27,14.27,0,0,0-.76-3.22,10.36,10.36,0,0,1,4.13-1.37l-.61-1.36-.62-1.36a10.47,10.47,0,0,1-3.75,2.22,14.82,14.82,0,0,0-1.32-2,14.79,14.79,0,0,1,5.33-4.49l-1.55-1.55L506.31,123a14.88,14.88,0,0,1-4.49,5.33,13.42,13.42,0,0,0-2.24-1.45,10.35,10.35,0,0,1,2.24-3.78l-1.36-.62-1.36-.62a10.25,10.25,0,0,1-1.42,4.2,14.32,14.32,0,0,0-2.93-.66,14.82,14.82,0,0,1,.6-6.94H491a14.66,14.66,0,0,1,.59,6.94,14,14,0,0,0-3,.69,10.24,10.24,0,0,1-1.46-4.26l-1.36.63-1.36.62a10.14,10.14,0,0,1,2.27,3.85,13.27,13.27,0,0,0-2.13,1.4A14.78,14.78,0,0,1,480,123l-1.55,1.54-1.54,1.55a14.88,14.88,0,0,1,5.33,4.49,14.36,14.36,0,0,0-1.45,2.22,10.31,10.31,0,0,1-3.92-2.29l-.62,1.36-.62,1.36a10.2,10.2,0,0,1,4.33,1.51,14,14,0,0,0-.65,2.91,14.81,14.81,0,0,1-6.94-.6v4.37a14.81,14.81,0,0,1,6.94-.6,13.41,13.41,0,0,0,.65,2.9,10.24,10.24,0,0,1-4.36,1.52l.62,1.36.63,1.36a10,10,0,0,1,3.94-2.29,13.67,13.67,0,0,0,1.45,2.22,14.88,14.88,0,0,1-5.33,4.49l1.54,1.54,1.55,1.55a14.69,14.69,0,0,1,4.49-5.33,13.66,13.66,0,0,0,2,1.31,10.07,10.07,0,0,1-2.27,3.92l1.36.62,1.36.62a10.2,10.2,0,0,1,1.47-4.29,14,14,0,0,0,3.18.75A14.66,14.66,0,0,1,491,160h4.37a14.82,14.82,0,0,1-.6-6.94,13.77,13.77,0,0,0,3.09-.72,10.19,10.19,0,0,1,1.43,4.24l1.36-.62,1.36-.62a10.25,10.25,0,0,1-2.24-3.84,15.14,15.14,0,0,0,2.07-1.37,14.79,14.79,0,0,1,4.49,5.33l1.54-1.55,1.55-1.54a14.79,14.79,0,0,1-5.33-4.49,13.91,13.91,0,0,0,1.32-2,10.23,10.23,0,0,1,3.77,2.22l.62-1.36.62-1.36a10.45,10.45,0,0,1-4.16-1.38,13.67,13.67,0,0,0,.76-3.21,14.82,14.82,0,0,1,6.94.6V137A14.82,14.82,0,0,1,507,137.64Z"/>
          <g>
            <path class="cls-33" d="M495.35,118.45c0,.63-1,1.15-2.19,1.15s-2.18-.52-2.18-1.15,1-1.15,2.18-1.15S495.35,117.82,495.35,118.45Z"/>
            <path class="cls-33" d="M491,160c0-.63,1-1.15,2.18-1.15s2.19.52,2.19,1.15-1,1.14-2.19,1.14S491,160.63,491,160Z"/>
          </g>
          <g>
            <path class="cls-33" d="M487.09,121.82c.18.4-.28,1-1,1.34s-1.51.3-1.69-.09.28-1,1-1.34S486.91,121.43,487.09,121.82Z"/>
            <path class="cls-33" d="M499.27,156.58c-.18-.4.29-1,1-1.34s1.51-.3,1.68.1-.28,1-1,1.33S499.45,157,499.27,156.58Z"/>
          </g>
          <g>
            <path class="cls-33" d="M499.1,121.85c-.18.39.29,1,1,1.33s1.5.31,1.68-.09-.28-1-1-1.33S499.28,121.45,499.1,121.85Z"/>
            <path class="cls-33" d="M486.92,156.6c.18-.39-.28-1-1-1.33s-1.51-.3-1.69.09.28,1,1,1.33S486.74,157,486.92,156.6Z"/>
          </g>
          <g>
            <path class="cls-33" d="M475.62,145.23c.39-.18,1,.28,1.34,1s.3,1.51-.09,1.69-1-.28-1.34-1S475.23,145.41,475.62,145.23Z"/>
            <path class="cls-33" d="M510.37,133.05c-.39.18-1-.29-1.33-1s-.3-1.5.1-1.68,1,.28,1.33,1S510.77,132.87,510.37,133.05Z"/>
          </g>
          <g>
            <path class="cls-33" d="M475.65,133.22c.39.18,1-.28,1.33-1s.31-1.51-.09-1.69-1,.28-1.33,1S475.25,133,475.65,133.22Z"/>
            <path class="cls-33" d="M510.4,145.4c-.39-.18-1,.29-1.33,1s-.3,1.5.09,1.68,1-.28,1.33-1S510.79,145.58,510.4,145.4Z"/>
          </g>
          <g>
            <path class="cls-33" d="M476.93,152.37c.45-.45,1.5-.12,2.35.73s1.19,1.91.74,2.36-1.5.12-2.36-.74S476.48,152.82,476.93,152.37Z"/>
            <path class="cls-33" d="M509.4,126.08c-.45.45-1.5.12-2.36-.73s-1.18-1.91-.73-2.36,1.5-.12,2.35.73S509.85,125.63,509.4,126.08Z"/>
          </g>
          <g>
            <path class="cls-33" d="M506.31,155.46c-.45-.45-.12-1.5.73-2.36s1.91-1.18,2.36-.73.12,1.5-.74,2.35S506.76,155.91,506.31,155.46Z"/>
            <path class="cls-33" d="M480,123c.45.45.12,1.5-.74,2.36s-1.9,1.18-2.35.73-.12-1.5.73-2.36S479.57,122.54,480,123Z"/>
          </g>
          <path class="cls-33" d="M472.39,137c.63,0,1.15,1,1.15,2.18s-.52,2.19-1.15,2.19-1.15-1-1.15-2.19S471.76,137,472.39,137Z"/>
          <path class="cls-33" d="M513.94,141.41c-.63,0-1.15-1-1.15-2.19s.52-2.18,1.15-2.18,1.14,1,1.14,2.18S514.57,141.41,513.94,141.41Z"/>
          <path class="cls-33" d="M494.54,136.3a4.09,4.09,0,1,1-4.08-4.09A4.08,4.08,0,0,1,494.54,136.3Z"/>
          <path class="cls-33" d="M501.24,144.49a2.62,2.62,0,1,1-2.61-2.62A2.61,2.61,0,0,1,501.24,144.49Z"/>
          <path class="cls-33" d="M501.39,135.62a1.82,1.82,0,1,1-1.82-1.82A1.82,1.82,0,0,1,501.39,135.62Z"/>
        </g>
      </g>
    </g>
  </g>
</svg>
