<svg id="Layer_1" data-name="Layer 1" xmlns="http://www.w3.org/2000/svg" xmlns:xlink="http://www.w3.org/1999/xlink" width="931.78" height="382" viewBox="0 0 931.78 382">
  <defs>
    <style>
      .cls-1 {
        fill: url(#linear-gradient);
      }

      .cls-2 {
        fill: #df4a43;
      }

      .cls-3 {
        fill: #f7685e;
      }

      .cls-4 {
        fill: url(#linear-gradient-2);
      }

      .cls-5 {
        fill: url(#linear-gradient-3);
      }

      .cls-6 {
        fill: url(#linear-gradient-4);
      }

      .cls-7 {
        fill: url(#linear-gradient-5);
      }

      .cls-8 {
        fill: url(#linear-gradient-6);
      }

      .cls-9 {
        fill: url(#linear-gradient-7);
      }

      .cls-10 {
        fill: url(#linear-gradient-8);
      }

      .cls-11 {
        fill: url(#linear-gradient-9);
      }

      .cls-12 {
        fill: url(#linear-gradient-10);
      }

      .cls-13 {
        fill: url(#linear-gradient-11);
      }

      .cls-14 {
        fill: #fff;
      }

      .cls-15 {
        fill: url(#linear-gradient-12);
      }

      .cls-16 {
        fill: url(#linear-gradient-13);
      }

      .cls-17 {
        fill: url(#linear-gradient-14);
      }

      .cls-18 {
        fill: url(#linear-gradient-15);
      }

      .cls-19 {
        fill: url(#linear-gradient-16);
      }

      .cls-20 {
        fill: url(#linear-gradient-17);
      }

      .cls-21 {
        fill: url(#linear-gradient-18);
      }

      .cls-22 {
        fill: url(#linear-gradient-19);
      }

      .cls-23 {
        fill: url(#linear-gradient-20);
      }

      .cls-24 {
        fill: url(#linear-gradient-21);
      }

      .cls-25 {
        fill: url(#linear-gradient-22);
      }

      .cls-26 {
        fill: url(#linear-gradient-23);
      }

      .cls-27 {
        fill: url(#linear-gradient-24);
      }

      .cls-28 {
        fill: url(#linear-gradient-25);
      }

      .cls-29 {
        fill: url(#linear-gradient-26);
      }

      .cls-30 {
        fill: url(#linear-gradient-27);
      }

      .cls-31 {
        fill: url(#linear-gradient-28);
      }

      .cls-32 {
        fill: url(#linear-gradient-29);
      }

      .cls-33 {
        fill: url(#linear-gradient-30);
      }

      .cls-34 {
        fill: url(#linear-gradient-31);
      }

      .cls-35 {
        fill: url(#linear-gradient-32);
      }

      .cls-36 {
        fill: url(#linear-gradient-33);
      }

      .cls-37 {
        fill: url(#linear-gradient-34);
      }

      .cls-38 {
        fill: url(#linear-gradient-35);
      }

      .cls-39 {
        fill: url(#linear-gradient-36);
      }

      .cls-40 {
        fill: url(#linear-gradient-37);
      }

      .cls-41 {
        fill: url(#linear-gradient-38);
      }

      .cls-42 {
        fill: url(#linear-gradient-39);
      }

      .cls-43 {
        fill: url(#linear-gradient-40);
      }

      .cls-44 {
        fill: url(#linear-gradient-41);
      }

      .cls-45 {
        fill: url(#linear-gradient-42);
      }

      .cls-46 {
        fill: url(#linear-gradient-43);
      }

      .cls-47 {
        fill: url(#linear-gradient-44);
      }

      .cls-48 {
        fill: url(#linear-gradient-45);
      }

      .cls-49 {
        fill: url(#linear-gradient-46);
      }

      .cls-50 {
        fill: url(#linear-gradient-47);
      }

      .cls-51 {
        fill: url(#linear-gradient-48);
      }

      .cls-52 {
        fill: url(#linear-gradient-49);
      }

      .cls-53 {
        fill: url(#linear-gradient-50);
      }

      .cls-54 {
        fill: url(#linear-gradient-51);
      }

      .cls-55 {
        fill: url(#linear-gradient-52);
      }

      .cls-56 {
        fill: url(#linear-gradient-53);
      }

      .cls-57 {
        fill: url(#linear-gradient-54);
      }

      .cls-58 {
        fill: url(#linear-gradient-55);
      }

      .cls-59 {
        fill: url(#linear-gradient-56);
      }

      .cls-60 {
        fill: #c1d6f4;
      }
    </style>
    <linearGradient id="linear-gradient" x1="367.26" y1="437.7" x2="104.87" y2="111.83" gradientUnits="userSpaceOnUse">
      <stop offset="0" stop-color="#dae3fe"/>
      <stop offset="1" stop-color="#e9effd"/>
    </linearGradient>
    <linearGradient id="linear-gradient-2" x1="197.95" y1="219.54" x2="248.08" y2="273.38" gradientUnits="userSpaceOnUse">
      <stop offset="0" stop-color="#09005d"/>
      <stop offset="1" stop-color="#1a0f91"/>
    </linearGradient>
    <linearGradient id="linear-gradient-3" x1="253.26" y1="256.67" x2="268.52" y2="339.29" gradientUnits="userSpaceOnUse">
      <stop offset="0" stop-color="#febbba"/>
      <stop offset="1" stop-color="#ff928e"/>
    </linearGradient>
    <linearGradient id="linear-gradient-4" x1="217.16" y1="201.65" x2="267.3" y2="255.49" xlink:href="#linear-gradient-2"/>
    <linearGradient id="linear-gradient-5" x1="47.66" y1="120.02" x2="63.17" y2="59.52" gradientTransform="translate(228.91 126.05) rotate(3.9)" xlink:href="#linear-gradient-3"/>
    <linearGradient id="linear-gradient-6" x1="211.37" y1="205.28" x2="263.04" y2="260.76" xlink:href="#linear-gradient-2"/>
    <linearGradient id="linear-gradient-7" x1="29.99" y1="115.49" x2="45.5" y2="54.99" gradientTransform="translate(228.91 126.05) rotate(3.9)" xlink:href="#linear-gradient-3"/>
    <linearGradient id="linear-gradient-8" x1="252.11" y1="256.88" x2="267.37" y2="339.51" xlink:href="#linear-gradient-3"/>
    <linearGradient id="linear-gradient-9" x1="285.29" y1="224.98" x2="234.13" y2="315.87" gradientUnits="userSpaceOnUse">
      <stop offset="0" stop-color="#a737d5"/>
      <stop offset="1" stop-color="#ef497a"/>
    </linearGradient>
    <linearGradient id="linear-gradient-10" x1="379.5" y1="127.16" x2="343.57" y2="217.53" gradientUnits="userSpaceOnUse">
      <stop offset="0" stop-color="#ff928e"/>
      <stop offset="1" stop-color="#fe7062"/>
    </linearGradient>
    <linearGradient id="linear-gradient-11" x1="342.27" y1="112.36" x2="306.34" y2="202.73" xlink:href="#linear-gradient-10"/>
    <linearGradient id="linear-gradient-12" x1="109.47" y1="356.06" x2="193.29" y2="192.77" gradientUnits="userSpaceOnUse">
      <stop offset="0" stop-color="#e1473d"/>
      <stop offset="1" stop-color="#e9605a"/>
    </linearGradient>
    <linearGradient id="linear-gradient-13" x1="222.08" y1="334.43" x2="266.17" y2="199.45" gradientUnits="userSpaceOnUse">
      <stop offset="0" stop-color="#4f52ff"/>
      <stop offset="1" stop-color="#4042e2"/>
    </linearGradient>
    <linearGradient id="linear-gradient-14" x1="165.3" y1="315.88" x2="209.38" y2="180.9" xlink:href="#linear-gradient-13"/>
    <linearGradient id="linear-gradient-15" x1="170.62" y1="289.23" x2="173.65" y2="339.93" xlink:href="#linear-gradient-3"/>
    <linearGradient id="linear-gradient-16" x1="164.82" y1="248.84" x2="207.65" y2="305.98" xlink:href="#linear-gradient-3"/>
    <linearGradient id="linear-gradient-17" x1="177.13" y1="239.39" x2="219.58" y2="296.03" xlink:href="#linear-gradient-3"/>
    <linearGradient id="linear-gradient-18" x1="150.18" y1="259.59" x2="192.63" y2="316.23" xlink:href="#linear-gradient-3"/>
    <linearGradient id="linear-gradient-19" x1="192.22" y1="182.78" x2="155.82" y2="280.88" xlink:href="#linear-gradient-2"/>
    <linearGradient id="linear-gradient-20" x1="105.04" y1="216.54" x2="73.63" y2="336.39" xlink:href="#linear-gradient-2"/>
    <linearGradient id="linear-gradient-21" x1="97.72" y1="214.62" x2="66.31" y2="334.47" xlink:href="#linear-gradient-2"/>
    <linearGradient id="linear-gradient-22" x1="139.07" y1="225.45" x2="107.67" y2="345.31" xlink:href="#linear-gradient-2"/>
    <linearGradient id="linear-gradient-23" x1="-4217.82" y1="765.17" x2="-4228.93" y2="845.08" gradientTransform="matrix(-0.97, 0.24, 0.24, 0.97, -4196.7, 506.02)" xlink:href="#linear-gradient-3"/>
    <linearGradient id="linear-gradient-24" x1="98.07" y1="258.96" x2="123.48" y2="153.36" xlink:href="#linear-gradient-3"/>
    <linearGradient id="linear-gradient-25" x1="-3504.94" y1="247.24" x2="-3516.05" y2="327.14" gradientTransform="matrix(-1, 0, 0, 1, -3414.83, 0)" xlink:href="#linear-gradient-3"/>
    <linearGradient id="linear-gradient-26" x1="-225.71" y1="53.41" x2="-122.85" y2="199.54" gradientTransform="translate(299.66 169.13) rotate(5.22)" xlink:href="#linear-gradient-2"/>
    <linearGradient id="linear-gradient-27" x1="88.36" y1="201.81" x2="125.5" y2="266.38" xlink:href="#linear-gradient-2"/>
    <linearGradient id="linear-gradient-28" x1="156.35" y1="214.92" x2="84.5" y2="347.01" xlink:href="#linear-gradient-12"/>
    <linearGradient id="linear-gradient-29" x1="195.82" y1="236.4" x2="123.97" y2="368.48" xlink:href="#linear-gradient-12"/>
    <linearGradient id="linear-gradient-30" x1="131.01" y1="201.14" x2="59.16" y2="333.23" xlink:href="#linear-gradient-12"/>
    <linearGradient id="linear-gradient-31" x1="61.87" y1="209.34" x2="164.74" y2="355.48" xlink:href="#linear-gradient-2"/>
    <linearGradient id="linear-gradient-32" x1="117.06" y1="263.53" x2="142.46" y2="157.93" xlink:href="#linear-gradient-3"/>
    <linearGradient id="linear-gradient-33" x1="336.79" y1="327.69" x2="898.13" y2="327.69" xlink:href="#linear-gradient"/>
    <linearGradient id="linear-gradient-34" x1="336.79" y1="292.18" x2="898.13" y2="292.18" xlink:href="#linear-gradient"/>
    <linearGradient id="linear-gradient-35" x1="336.79" y1="256.66" x2="898.13" y2="256.66" xlink:href="#linear-gradient"/>
    <linearGradient id="linear-gradient-36" x1="336.79" y1="221.15" x2="898.13" y2="221.15" xlink:href="#linear-gradient"/>
    <linearGradient id="linear-gradient-37" x1="336.79" y1="185.63" x2="898.13" y2="185.63" xlink:href="#linear-gradient"/>
    <linearGradient id="linear-gradient-38" x1="336.79" y1="150.12" x2="898.13" y2="150.12" xlink:href="#linear-gradient"/>
    <linearGradient id="linear-gradient-39" x1="336.79" y1="114.61" x2="898.13" y2="114.61" xlink:href="#linear-gradient"/>
    <linearGradient id="linear-gradient-40" x1="336.79" y1="79.09" x2="898.13" y2="79.09" xlink:href="#linear-gradient"/>
    <linearGradient id="linear-gradient-41" x1="336.79" y1="43.58" x2="898.13" y2="43.58" xlink:href="#linear-gradient"/>
    <linearGradient id="linear-gradient-42" x1="862.02" y1="189.24" x2="863.72" y2="189.24" xlink:href="#linear-gradient"/>
    <linearGradient id="linear-gradient-43" x1="827.23" y1="189.24" x2="828.93" y2="189.24" xlink:href="#linear-gradient"/>
    <linearGradient id="linear-gradient-44" x1="792.08" y1="189.24" x2="793.78" y2="189.24" xlink:href="#linear-gradient"/>
    <linearGradient id="linear-gradient-45" x1="756.92" y1="189.24" x2="758.62" y2="189.24" xlink:href="#linear-gradient"/>
    <linearGradient id="linear-gradient-46" x1="721.77" y1="189.24" x2="723.47" y2="189.24" xlink:href="#linear-gradient"/>
    <linearGradient id="linear-gradient-47" x1="686.61" y1="189.24" x2="688.32" y2="189.24" xlink:href="#linear-gradient"/>
    <linearGradient id="linear-gradient-48" x1="651.82" y1="189.24" x2="653.52" y2="189.24" xlink:href="#linear-gradient"/>
    <linearGradient id="linear-gradient-49" x1="616.67" y1="189.24" x2="618.37" y2="189.24" xlink:href="#linear-gradient"/>
    <linearGradient id="linear-gradient-50" x1="581.51" y1="189.24" x2="583.22" y2="189.24" xlink:href="#linear-gradient"/>
    <linearGradient id="linear-gradient-51" x1="546.36" y1="189.24" x2="548.06" y2="189.24" xlink:href="#linear-gradient"/>
    <linearGradient id="linear-gradient-52" x1="511.21" y1="189.24" x2="512.91" y2="189.24" xlink:href="#linear-gradient"/>
    <linearGradient id="linear-gradient-53" x1="476.41" y1="189.24" x2="478.12" y2="189.24" xlink:href="#linear-gradient"/>
    <linearGradient id="linear-gradient-54" x1="441.26" y1="189.24" x2="442.96" y2="189.24" xlink:href="#linear-gradient"/>
    <linearGradient id="linear-gradient-55" x1="406.11" y1="189.24" x2="407.81" y2="189.24" xlink:href="#linear-gradient"/>
    <linearGradient id="linear-gradient-56" x1="370.95" y1="189.24" x2="372.65" y2="189.24" xlink:href="#linear-gradient"/>
  </defs>
  <g>
    <path class="cls-1" d="M295.07,309.19a106.07,106.07,0,0,1-16.23,13.67c-53,38-115.63,26.92-128.95,24.22-19.67-4-57.69-11.72-85.17-44-41.59-48.9-35.11-125.94-2.86-176.8,5.9-9.3,37.07-60.93,100.41-69.22,38.34-5,83,5.1,115.38,32.21C345.58,146.14,340.74,261.11,295.07,309.19Z"/>
    <g>
      <path class="cls-2" d="M346.62,159.18a12.05,12.05,0,0,0-15.71-6.44,11.84,11.84,0,0,0-4.53,3.41l-19.2-7.81A57.17,57.17,0,0,0,307,110.4l.08-.07,11-4.64.48-.23a9,9,0,1,0-2.28-5.42c-.16.07-.32.07-.47.15l-11.08,4.64-.08.08A56.56,56.56,0,0,0,277.64,78.2v-.08L283.3,64.3c.08-.16.08-.24.16-.39a11.81,11.81,0,0,0,6.28-.79A12,12,0,1,0,274,56.76a11.63,11.63,0,0,0,3.93,5,.58.58,0,0,0-.16.31l-5.65,13.9h-.08a57,57,0,0,0-37.87.24l-.08-.08L222.65,48.82a7.49,7.49,0,0,0-8.32-12.09,7.54,7.54,0,0,0-4,9.82,7.42,7.42,0,0,0,6.83,4.55l11.47,27.34v.08A56.41,56.41,0,0,0,202,105.46h-.08L188.09,99.8c-.16-.08-.24-.08-.4-.16a11.33,11.33,0,0,0-.78-6.2,12,12,0,1,0-6.44,15.63,11.78,11.78,0,0,0,5-3.93.42.42,0,0,0,.32.16L199.63,111l.08.07A56.68,56.68,0,0,0,200,149h-.08l-11,4.64-.47.23a9,9,0,1,0,2.28,5.42,1.1,1.1,0,0,0,.47-.16l11.08-4.63h.08a56.45,56.45,0,0,0,26.94,26.63v.08l-5.65,13.9c-.08.08-.08.15-.16.31a12,12,0,0,0-12.65,16.5,12,12,0,1,0,18.15-14.22.83.83,0,0,0,.15-.39l5.66-13.83v-.08a56.71,56.71,0,0,0,37.95-.23l.07.08,3.54,8.4a8.93,8.93,0,1,0,5.5-2.35l-3.54-8.41a56.63,56.63,0,0,0,26.64-27l18.93,7.76a11.92,11.92,0,0,0,16.42,13.21A11.92,11.92,0,0,0,346.62,159.18Z"/>
      <g>
        <path class="cls-3" d="M281.26,147.32a12,12,0,1,1,6.36-15.71,12,12,0,0,1-6.36,15.71Z"/>
        <path class="cls-3" d="M254.31,107.73A9,9,0,1,1,259.1,96a8.94,8.94,0,0,1-4.79,11.78Z"/>
        <path class="cls-3" d="M256,178.11a9,9,0,1,1,4.79-11.7,8.94,8.94,0,0,1-4.79,11.7Z"/>
        <path class="cls-3" d="M224.15,106.32a3.07,3.07,0,0,1-.24-1.18,6.08,6.08,0,0,1,.16-1.18,3.75,3.75,0,0,1,.7-.94,3,3,0,0,1,.95-.63,3.29,3.29,0,0,1,2.27-.08,3.11,3.11,0,0,1,.95.71,3,3,0,0,1-.87,4.87,3,3,0,0,1-2.35,0,3,3,0,0,1-1.57-1.57Z"/>
        <path class="cls-3" d="M207.81,149.68a2.5,2.5,0,0,1-.24-1.1,3.11,3.11,0,0,1,.24-1.18,2.75,2.75,0,0,1,.62-.94,3,3,0,0,1,1-.71,3.28,3.28,0,0,1,2.27,0,3.67,3.67,0,0,1,1,.71,3,3,0,0,1,.7,3.22,3.35,3.35,0,0,1-1.65,1.65,4.48,4.48,0,0,1-1.1.16,3,3,0,0,1-1.17-.16,3.35,3.35,0,0,1-1.65-1.65Z"/>
        <path class="cls-3" d="M290.21,152.66a3.25,3.25,0,0,1-.23-1.17,2.57,2.57,0,0,1,.23-1.1,3,3,0,0,1,.63-.95,3.75,3.75,0,0,1,.94-.7,3,3,0,0,1,2.36,0,5.86,5.86,0,0,1,.94.62,2.91,2.91,0,0,1-.94,4.87,3.07,3.07,0,0,1-1.18.24,4.62,4.62,0,0,1-1.1-.16,3.39,3.39,0,0,1-1.65-1.65Z"/>
        <path class="cls-3" d="M230.82,169.47a3.26,3.26,0,0,1-.23-1.18,2.56,2.56,0,0,1,.23-1.09,3,3,0,0,1,.63-.95,4.08,4.08,0,0,1,.94-.71,3.11,3.11,0,0,1,2.36,0,7.35,7.35,0,0,1,.94.63,2.91,2.91,0,0,1-.94,4.87,3,3,0,0,1-1.1.24,5.34,5.34,0,0,1-1.18-.16,3.39,3.39,0,0,1-1.65-1.65Z"/>
        <path class="cls-3" d="M289.51,109.38A9,9,0,1,1,294.3,97.6a9,9,0,0,1-4.79,11.78Z"/>
        <path class="cls-3" d="M262.48,83.7a2.64,2.64,0,0,1-.23-1.1,3.3,3.3,0,0,1,.23-1.18,2.76,2.76,0,0,1,.63-.94,3.63,3.63,0,0,1,.94-.71,3.11,3.11,0,0,1,2.36,0,5.94,5.94,0,0,1,.94.63,2.91,2.91,0,0,1-.94,4.87,3.11,3.11,0,0,1-1.18.24,2.47,2.47,0,0,1-1.1-.16,3.13,3.13,0,0,1-1.65-1.65Z"/>
        <path class="cls-3" d="M227.37,88.65a3.11,3.11,0,0,1-.24-1.18,6,6,0,0,1,.16-1.18,7.14,7.14,0,0,1,.7-.94,3.93,3.93,0,0,1,.95-.63,3.31,3.31,0,0,1,2.28-.08,4.89,4.89,0,0,1,1,.71,3.06,3.06,0,0,1,.63,3.22,3.28,3.28,0,0,1-1.57,1.65,3.13,3.13,0,0,1-1.18.23,2.94,2.94,0,0,1-2.75-1.8Z"/>
        <path class="cls-3" d="M219.2,133.65A8.94,8.94,0,1,1,224,122a8.82,8.82,0,0,1-4.79,11.7Z"/>
        <path class="cls-3" d="M248.89,129.73a6,6,0,0,1-4.63-11,6,6,0,0,1,7.85,3.22,5.92,5.92,0,0,1-3.22,7.78Z"/>
        <path class="cls-3" d="M297.2,131.53a5.95,5.95,0,1,1,3.23-7.85,6,6,0,0,1-3.23,7.85Z"/>
        <path class="cls-3" d="M280.08,169.94a6,6,0,0,1-4.64-11,6,6,0,1,1,4.64,11Z"/>
        <path class="cls-3" d="M248,142.84a4.46,4.46,0,0,1-.16-1.09,5.88,5.88,0,0,1,.16-1.18,2.58,2.58,0,0,1,.71-.94,2,2,0,0,1,.94-.71,3.7,3.7,0,0,1,2.28,0,2.09,2.09,0,0,1,.94.71,2.89,2.89,0,0,1,.71,3.21,3.1,3.1,0,0,1-1.65,1.65,2.47,2.47,0,0,1-1.1.16,2,2,0,0,1-1.18-.16,3.31,3.31,0,0,1-1.65-1.65Z"/>
        <path class="cls-3" d="M235.3,149.84a6,6,0,0,1-4.63-11,6,6,0,1,1,4.63,11Z"/>
        <path class="cls-3" d="M267.59,114.1a3.15,3.15,0,0,1-.24-1.18,3.11,3.11,0,0,1,.24-1.18,2.92,2.92,0,0,1,1.57-1.57,3.55,3.55,0,0,1,2.36-.08,7.25,7.25,0,0,1,.94.71,3.09,3.09,0,0,1,.71,3.22,3.17,3.17,0,0,1-1.65,1.65,3.34,3.34,0,0,1-1.18.23,2.61,2.61,0,0,1-1.1-.23,3.24,3.24,0,0,1-1.65-1.57Z"/>
      </g>
    </g>
    <g>
      <path class="cls-2" d="M142.43,226.4a8.15,8.15,0,0,0-12.36-6.61l-10.59-9.46a39.16,39.16,0,0,0,8.58-24.53l.07,0,8.16-.45.36-.05a6.13,6.13,0,1,0-.22-4c-.12,0-.22,0-.34,0l-8.21.44-.07,0a38.81,38.81,0,0,0-11.24-23.44l0-.05,6.83-7.62c.09-.08.1-.13.19-.22a8,8,0,0,0,4.24.94,8.21,8.21,0,1,0-8.68-7.72,8,8,0,0,0,1.4,4.1.37.37,0,0,0-.18.17l-6.85,7.66h-.05A39,39,0,0,0,89,147l0-.07-1.12-20.23a5.14,5.14,0,1,0-7.44-4.31,5.09,5.09,0,0,0,3.36,4.52l1.11,20.27,0,.06a38.63,38.63,0,0,0-23.38,11.25l0,0-7.62-6.83c-.09-.09-.14-.11-.22-.19a7.81,7.81,0,0,0,.92-4.19,8.2,8.2,0,1,0-16.38.9,8.23,8.23,0,0,0,12.77,6.33.31.31,0,0,0,.17.17l7.62,6.83,0,.07a38.88,38.88,0,0,0-8.58,24.54l0,0-8.17.46-.35,0a6.15,6.15,0,0,0-11.82,2.7,6.14,6.14,0,0,0,12,1.32.77.77,0,0,0,.34,0l8.21-.44,0,0a38.7,38.7,0,0,0,11.26,23.38l0,0-6.85,7.67c-.07,0-.08.08-.17.17a8.38,8.38,0,1,0,3,2.73c.09-.08.16-.11.19-.21l6.84-7.62v-.05a38.87,38.87,0,0,0,24.54,8.58l0,.07.34,6.24a6.1,6.1,0,1,0,4.09-.26l-.34-6.23a38.81,38.81,0,0,0,23.4-11.31l10.43,9.37A8.18,8.18,0,0,0,134.73,235,8.17,8.17,0,0,0,142.43,226.4Z"/>
      <g>
        <path class="cls-3" d="M103,203.7a8.2,8.2,0,1,1,7.72-8.67A8.25,8.25,0,0,1,103,203.7Z"/>
        <path class="cls-3" d="M94.71,172a6.15,6.15,0,1,1,5.81-6.5,6.13,6.13,0,0,1-5.81,6.5Z"/>
        <path class="cls-3" d="M79.57,217.75a6.14,6.14,0,1,1,5.79-6.45,6.13,6.13,0,0,1-5.79,6.45Z"/>
        <path class="cls-3" d="M75.57,164.1a2.2,2.2,0,0,1,.12-.82,4.08,4.08,0,0,1,.37-.72,2.51,2.51,0,0,1,.68-.45,1.84,1.84,0,0,1,.75-.19,2.21,2.21,0,0,1,1.49.48,1.94,1.94,0,0,1,.44.67A2,2,0,0,1,77.75,166a2,2,0,0,1-.82-.11,2.5,2.5,0,0,1-.71-.43,2.11,2.11,0,0,1-.65-1.37Z"/>
        <path class="cls-3" d="M55.05,188.31a1.69,1.69,0,0,1,.1-.76,2.15,2.15,0,0,1,.42-.71,2,2,0,0,1,.62-.46,2.05,2.05,0,0,1,.83-.22,2.22,2.22,0,0,1,1.46.52,2.61,2.61,0,0,1,.45.67,2.09,2.09,0,0,1-.29,2.25,2.3,2.3,0,0,1-1.44.68,3.21,3.21,0,0,1-.75-.15,2,2,0,0,1-.72-.38,2.3,2.3,0,0,1-.68-1.44Z"/>
        <path class="cls-3" d="M107.53,209.21a2.15,2.15,0,0,1,.12-.81,1.76,1.76,0,0,1,.41-.66,1.85,1.85,0,0,1,.62-.46,2.6,2.6,0,0,1,.77-.24,2.11,2.11,0,0,1,1.52.54,5,5,0,0,1,.47.62,2,2,0,0,1-1.73,2.93,2.24,2.24,0,0,1-.82-.12,3.23,3.23,0,0,1-.67-.35,2.31,2.31,0,0,1-.69-1.45Z"/>
        <path class="cls-3" d="M65.34,206.38a2.15,2.15,0,0,1,.12-.81,1.72,1.72,0,0,1,.41-.66,2,2,0,0,1,.62-.46,2.51,2.51,0,0,1,.77-.24,2.13,2.13,0,0,1,1.52.54,4.45,4.45,0,0,1,.46.63,2.18,2.18,0,0,1-.3,2.29,2.24,2.24,0,0,1-1.43.63,2.19,2.19,0,0,1-.76-.1,3.73,3.73,0,0,1-.72-.37,2.31,2.31,0,0,1-.69-1.45Z"/>
        <path class="cls-3" d="M117,181.12a6.15,6.15,0,1,1,5.81-6.5,6.13,6.13,0,0,1-5.81,6.5Z"/>
        <path class="cls-3" d="M105.52,158.33a1.75,1.75,0,0,1,.1-.77,2.11,2.11,0,0,1,.42-.7,1.92,1.92,0,0,1,.63-.47,2.51,2.51,0,0,1,.77-.24,2.09,2.09,0,0,1,1.52.55,4.54,4.54,0,0,1,.46.62,2.18,2.18,0,0,1-.3,2.29,2.24,2.24,0,0,1-1.43.63,1.82,1.82,0,0,1-.81-.12,1.75,1.75,0,0,1-.68-.35,2.13,2.13,0,0,1-.68-1.44Z"/>
        <path class="cls-3" d="M81.72,153.43a2.15,2.15,0,0,1,.12-.81,4.08,4.08,0,0,1,.37-.72,5.59,5.59,0,0,1,.67-.45,2.73,2.73,0,0,1,.76-.19,2.22,2.22,0,0,1,1.49.48,3,3,0,0,1,.49.69,2.09,2.09,0,0,1-.33,2.22,2.24,2.24,0,0,1-1.4.7,2,2,0,0,1-2.17-1.92Z"/>
        <path class="cls-3" d="M66.09,180.59a6.12,6.12,0,1,1,5.78-6.44,6,6,0,0,1-5.78,6.44Z"/>
        <path class="cls-3" d="M86.15,184.9a4.09,4.09,0,0,1-.46-8.17A4.15,4.15,0,0,1,90,180.62a4.06,4.06,0,0,1-3.87,4.28Z"/>
        <path class="cls-3" d="M116.91,197.19a4.08,4.08,0,1,1,3.89-4.33,4.14,4.14,0,0,1-3.89,4.33Z"/>
        <path class="cls-3" d="M97,218a4.09,4.09,0,0,1-.46-8.16A4.09,4.09,0,1,1,97,218Z"/>
        <path class="cls-3" d="M82.52,193.14a3,3,0,0,1,.15-.74,4.62,4.62,0,0,1,.38-.73,1.86,1.86,0,0,1,.67-.44,1.46,1.46,0,0,1,.77-.24,2.6,2.6,0,0,1,1.47.52,1.51,1.51,0,0,1,.45.68,2,2,0,0,1-.29,2.24,2.09,2.09,0,0,1-1.44.68,1.71,1.71,0,0,1-.75-.15,1.39,1.39,0,0,1-.72-.37,2.34,2.34,0,0,1-.69-1.45Z"/>
        <path class="cls-3" d="M72.75,194.74a4.09,4.09,0,0,1-.46-8.16,4.09,4.09,0,1,1,.46,8.16Z"/>
        <path class="cls-3" d="M101.81,179.12a2.24,2.24,0,0,1,.12-.82,2.14,2.14,0,0,1,.43-.7,4.38,4.38,0,0,1,.62-.47,4.58,4.58,0,0,1,.75-.19,2.36,2.36,0,0,1,1.54.5,4.34,4.34,0,0,1,.45.67A2,2,0,0,1,104,181a2.23,2.23,0,0,1-.82-.11,1.85,1.85,0,0,1-.65-.41,2.21,2.21,0,0,1-.71-1.39Z"/>
      </g>
    </g>
    <g>
      <path class="cls-2" d="M159.44,100.22a4.36,4.36,0,0,0-5.69-2.33,4.23,4.23,0,0,0-1.64,1.23l-7-2.82a20.7,20.7,0,0,0-.09-13.74l0,0,4-1.68.17-.08a3.25,3.25,0,1,0-.82-2,.84.84,0,0,0-.17,0l-4,1.68,0,0a20.49,20.49,0,0,0-9.76-9.67v0l2-5c0-.06,0-.09.06-.15a4.2,4.2,0,0,0,2.27-.28,4.34,4.34,0,1,0-5.69-2.3,4.27,4.27,0,0,0,1.43,1.79.2.2,0,0,0-.06.11l-2.05,5h0a20.61,20.61,0,0,0-13.71.08l0,0-4.15-9.87a2.72,2.72,0,1,0-4.47-.82,2.7,2.7,0,0,0,2.48,1.65l4.15,9.9v0a20.42,20.42,0,0,0-9.64,9.76h0l-5-2-.14-.06a4.06,4.06,0,0,0-.28-2.24,4.33,4.33,0,1,0-8,3.35,4.32,4.32,0,0,0,5.66,2.31,4.36,4.36,0,0,0,1.82-1.43.12.12,0,0,0,.11.06l5,2.05,0,0a20.55,20.55,0,0,0,.09,13.73h0l-4,1.68-.17.09a3.26,3.26,0,1,0,.82,2,.35.35,0,0,0,.17-.06l4-1.67h0a20.55,20.55,0,0,0,9.76,9.64v0l-2,5s0,0-.06.11a4.33,4.33,0,1,0,3.42,2.62,4.24,4.24,0,0,0-1.42-1.79c0-.06,0-.09,0-.15l2.05-5v0a20.57,20.57,0,0,0,13.74-.08l0,0,1.28,3a3.25,3.25,0,1,0,5.18,1.13,3.31,3.31,0,0,0-3.19-2l-1.28-3a20.46,20.46,0,0,0,9.64-9.78l6.86,2.81a4.44,4.44,0,0,0,.25,2.48,4.34,4.34,0,0,0,8-3.36Z"/>
      <g>
        <path class="cls-3" d="M135.77,95.93a4.33,4.33,0,1,1-3.36-8,4.33,4.33,0,0,1,3.36,8Z"/>
        <path class="cls-3" d="M126,81.59a3.25,3.25,0,1,1,1.74-4.26A3.22,3.22,0,0,1,126,81.59Z"/>
        <path class="cls-3" d="M126.61,107.08a3.25,3.25,0,1,1,1.74-4.24,3.25,3.25,0,0,1-1.74,4.24Z"/>
        <path class="cls-3" d="M115.09,81.08a1.06,1.06,0,0,1-.08-.43,2,2,0,0,1,0-.42,1.14,1.14,0,0,1,.26-.34,1,1,0,0,1,.34-.23,1.22,1.22,0,0,1,.82,0,1.07,1.07,0,0,1,.35.26,1.05,1.05,0,0,1,.25,1.16,1,1,0,0,1-.57.6,1.06,1.06,0,0,1-.42.09,1.09,1.09,0,0,1-1-.66Z"/>
        <path class="cls-3" d="M109.17,96.78a1,1,0,0,1-.08-.4,1.25,1.25,0,0,1,.08-.42,1.18,1.18,0,0,1,.23-.35,1.27,1.27,0,0,1,.37-.25,1.13,1.13,0,0,1,.83,0,1.73,1.73,0,0,1,.34.25,1.1,1.1,0,0,1,.25,1.17,1.23,1.23,0,0,1-.59.6,1.68,1.68,0,0,1-.4.05,1.27,1.27,0,0,1-.43-.05,1.29,1.29,0,0,1-.6-.6Z"/>
        <path class="cls-3" d="M139,97.86a1.26,1.26,0,0,1-.08-.43A1,1,0,0,1,139,97a1.18,1.18,0,0,1,.23-.35,1.48,1.48,0,0,1,.34-.25,1,1,0,0,1,.85,0,2.33,2.33,0,0,1,.35.23,1.15,1.15,0,0,1,.25,1.19,1.12,1.12,0,0,1-.6.57,1.06,1.06,0,0,1-.42.09,1.6,1.6,0,0,1-.4-.06,1.25,1.25,0,0,1-.6-.6Z"/>
        <path class="cls-3" d="M117.51,104a1.14,1.14,0,0,1-.09-.43.9.9,0,0,1,.09-.4,1.07,1.07,0,0,1,.23-.34,1.34,1.34,0,0,1,.34-.26,1.14,1.14,0,0,1,.85,0,3.39,3.39,0,0,1,.34.23,1.15,1.15,0,0,1,.26,1.2,1.12,1.12,0,0,1-1,.65,1.77,1.77,0,0,1-.42-.06,1.19,1.19,0,0,1-.6-.59Z"/>
        <path class="cls-3" d="M138.76,82.19a3.25,3.25,0,1,1,1.73-4.27,3.25,3.25,0,0,1-1.73,4.27Z"/>
        <path class="cls-3" d="M129,72.89a1,1,0,0,1-.08-.4,1.25,1.25,0,0,1,.08-.42,1,1,0,0,1,.23-.35,1.48,1.48,0,0,1,.34-.25,1,1,0,0,1,.85,0,2.33,2.33,0,0,1,.35.23,1.15,1.15,0,0,1,.25,1.19,1.12,1.12,0,0,1-.6.57,1,1,0,0,1-.42.08,1,1,0,0,1-.4-.05,1.14,1.14,0,0,1-.6-.6Z"/>
        <path class="cls-3" d="M116.26,74.68a1.06,1.06,0,0,1-.09-.42,2,2,0,0,1,.06-.43,2.46,2.46,0,0,1,.25-.34,1.41,1.41,0,0,1,.35-.23,1.22,1.22,0,0,1,.82,0,1.64,1.64,0,0,1,.37.26,1.09,1.09,0,0,1,.23,1.16,1.15,1.15,0,0,1-.57.6,1.11,1.11,0,0,1-.43.09,1.1,1.1,0,0,1-1-.66Z"/>
        <path class="cls-3" d="M113.3,91A3.24,3.24,0,1,1,115,86.74,3.2,3.2,0,0,1,113.3,91Z"/>
        <path class="cls-3" d="M124.05,89.56a2.16,2.16,0,0,1-1.68-4,2.2,2.2,0,0,1,2.85,1.17,2.16,2.16,0,0,1-1.17,2.82Z"/>
        <path class="cls-3" d="M141.54,90.21a2.15,2.15,0,1,1,1.17-2.84,2.18,2.18,0,0,1-1.17,2.84Z"/>
        <path class="cls-3" d="M135.34,104.12a2.15,2.15,0,0,1-2.81-1.17,2.12,2.12,0,0,1,1.14-2.81,2.16,2.16,0,1,1,1.67,4Z"/>
        <path class="cls-3" d="M123.71,94.31a1.68,1.68,0,0,1-.06-.4,2.12,2.12,0,0,1,.06-.43,1,1,0,0,1,.26-.34.76.76,0,0,1,.34-.26,1.43,1.43,0,0,1,.82,0,.82.82,0,0,1,.34.26,1,1,0,0,1,.26,1.17,1.09,1.09,0,0,1-.6.59.85.85,0,0,1-.4.06.69.69,0,0,1-.42-.06,1.19,1.19,0,0,1-.6-.59Z"/>
        <path class="cls-3" d="M119.13,96.84a2.16,2.16,0,0,1-1.68-4,2.16,2.16,0,1,1,1.68,4Z"/>
        <path class="cls-3" d="M130.82,83.9a1.2,1.2,0,0,1,0-.86,2.92,2.92,0,0,1,.23-.34,3.39,3.39,0,0,1,.34-.23,1.24,1.24,0,0,1,.85,0,2,2,0,0,1,.34.25,1.11,1.11,0,0,1,.26,1.17,1.14,1.14,0,0,1-.6.6,1.25,1.25,0,0,1-.42.08,1,1,0,0,1-.4-.08,1.19,1.19,0,0,1-.6-.57Z"/>
      </g>
    </g>
    <g>
      <path class="cls-4" d="M239.09,244.75s-1.91,8-7,3.59-11.49-11-18.68-5.35,1.34,10.29,1.34,10.29a5,5,0,0,0-5.74,1,2,2,0,0,1-2.68.29,2.65,2.65,0,0,0-3.22,0c-1,.67-3.95,7.26-1.3,19,1.59,6.95,6.18,27,21.92,30.8,10.28,2.49,19.06-3.46,19.83-4a26.21,26.21,0,0,0,10.53-17c-.48-1.85-2.75-11.32,2.74-19,1.25-1.75,4.89-6.26,10.51-7.1a9.19,9.19,0,0,1,4.22.63s1.47,8.26,6.93,8A3,3,0,0,1,280,262.5c2-1.17,6.89-7.13-1.36-12.41a2.09,2.09,0,0,1-.93-2c.23-2.5-.34-8.22-8.77-12.91-10.72-6-18.15-4.78-22.12,1.15a2,2,0,0,1-1.25.82C243.91,237.56,240,239,239.09,244.75Z"/>
      <polygon class="cls-5" points="248.99 286.71 252.75 305.88 271.81 304.17 268.12 283.99 248.99 286.71"/>
      <path class="cls-6" d="M277.92,257.33s4.07,0,4.75,6.11-6.79,8.82-6.79,8.82l-4.07-.68,2-12.89Z"/>
      <path class="cls-7" d="M242.07,270.79s2.68,20.58,14.68,24.12,17.35-15.14,18.12-16.45c0,0,2.61,1.54,3.47-1.12s4.71-9.2-1.38-9.61c0,0,1.82-6.68,0-10.2s-5.31-11.92-14.25-10.49S242.77,260.63,242.07,270.79Z"/>
      <path class="cls-8" d="M276.06,248.35a2.1,2.1,0,0,1-1-1.9c.09-2.51-.76-8.19-9.42-12.45-11-5.42-18.37-3.86-22,2.27a2,2,0,0,1-1.2.89c-1.68.44-5.5,2.08-6.13,7.86,0,0-.68,3.66-2.75,4.8,5,4.12,7.16,18.57,7.26,18.76,1.55.38,7.27,1.19,14.17-4.92,8.26-7.32,9-8.66,14.37-7.21,0,0,3.9,8.14,9.34,7.56a1.92,1.92,0,0,1,.62-3C281.23,259.74,284.57,253.2,276.06,248.35Z"/>
      <path class="cls-9" d="M243.38,271.56s.28-4.06-3.15-3.62,0,10.6,3.15,8.92Z"/>
      <path class="cls-10" d="M251.37,298.85l-12.69,4.75,15.71,17.24,28.27-18c-2.23-.83-3.64-2.45-5.78-3s-4.17-1.1-6.19-1.79Z"/>
      <path class="cls-11" d="M230.47,347.1a72.2,72.2,0,0,1,2.87-7l-11-28A182.94,182.94,0,0,0,212.86,337a7.84,7.84,0,0,0,7.5,10.1Z"/>
      <path class="cls-12" d="M306.56,337.41a137.49,137.49,0,0,0-6.51-24.6l-14.74,21.13A87.76,87.76,0,0,1,290,347.1h8.4A8.27,8.27,0,0,0,306.56,337.41Z"/>
      <path class="cls-13" d="M289.67,347.1,300,313.71c1.25-1.93-8.44-10.18-24.68-14.6-1.77,8.58-28.92,8.13-29.19,1.71-12.47,4.48-23.72,7.9-24.63,13.09.45,9.91,3,21,6.33,33.19Z"/>
      <g>
        <path class="cls-14" d="M248.83,271.22l9.89-1.9a7.32,7.32,0,0,1,2.68,0l10,1.73a3.86,3.86,0,0,1,2.93,4.74c-1.66,7.16-4.09,13.86-10.89,18.49a6.63,6.63,0,0,1-6.37.66c-7.75-3.3-10.59-10.44-11.39-19.18A4.15,4.15,0,0,1,248.83,271.22Z"/>
        <rect class="cls-14" x="245.32" y="267.04" width="0.62" height="7.46" rx="0.09" transform="translate(-119.52 252.99) rotate(-45)"/>
        <path class="cls-14" d="M277.57,266.61l.36.26a.08.08,0,0,1,0,.12l-4.32,5.87a.08.08,0,0,1-.12,0l-.36-.27a.08.08,0,0,1,0-.12l4.32-5.86A.08.08,0,0,1,277.57,266.61Z"/>
        <rect class="cls-14" x="274.09" y="277.59" width="0.62" height="2.32" rx="0.09" transform="translate(403.49 -90.49) rotate(63.82)"/>
        <path class="cls-14" d="M248.62,282.17l-.32.32a.09.09,0,0,1-.12,0L243,277.33a.09.09,0,0,1,0-.12l.32-.31a.07.07,0,0,1,.12,0l5.15,5.15A.09.09,0,0,1,248.62,282.17Z"/>
      </g>
    </g>
    <g>
      <path class="cls-15" d="M132,348.36c1-4.86,1.87-8.05,1.87-8.05L115.41,309s-6,6.05-9.58,32.44a6.1,6.1,0,0,0,6,6.91Z"/>
      <path class="cls-16" d="M232,341.35c-5.14-22.88-14.28-33.53-14.28-33.53l-11.57,38.33s.35.75.89,2.21h19.34A5.76,5.76,0,0,0,232,341.35Z"/>
      <path class="cls-17" d="M131.87,348.36h75a95.84,95.84,0,0,1,2.94-9.67l7.95-30.88c-11.14-10-26.81-13.3-32.83-14.23-14-3.48-30.38-.4-30.38-.4C132.33,294.73,115.41,309,115.41,309l13.75,31.3A64,64,0,0,1,131.87,348.36Z"/>
      <g>
        <path class="cls-18" d="M157.94,277.36l-.52,17.07A3.86,3.86,0,0,0,160,298.2c4.36,1.54,13.4,3.88,22,.81a3.85,3.85,0,0,0,2.5-4.2l-2.56-17.45Z"/>
        <path class="cls-19" d="M149.21,246.2s2.87,20.54,7.17,33.66a15,15,0,0,0,13.71,10.27l.67,0a14.73,14.73,0,0,0,14.4-10.46c2.42-8,5.46-20.74,5.1-33.19,0,0,1-18.55-19.48-20.08C146.81,224.62,149.21,246.2,149.21,246.2Z"/>
        <path class="cls-20" d="M188.16,255.78s1.8-5.39,4.79-5.39-.6,14.38-4.79,14.38Z"/>
        <path class="cls-21" d="M151.93,257.2s-2.5-5.1-5.47-4.7,2.53,14.17,6.69,13.61Z"/>
        <path class="cls-22" d="M181.13,238s-14.61,15.45-31.25,15.4c0,0-8.54-24.62,9.6-30,15-4.41,20.56,2.18,20.56,2.18s21.9-1.56,11.06,26.13Z"/>
      </g>
      <g>
        <path class="cls-14" d="M156.58,256.82l12.67-2.44a9.42,9.42,0,0,1,3.43,0l12.79,2.22a5,5,0,0,1,3.75,6.08c-2.13,9.18-2.4,19.77-11.56,25.15-2.55,1.49-9.16,1.57-11.84.43-9.94-4.24-12.29-14.42-13.32-25.61A5.3,5.3,0,0,1,156.58,256.82Z"/>
        <path class="cls-14" d="M156.31,260l-.41.41a.11.11,0,0,1-.15,0l-6.61-6.61a.11.11,0,0,1,0-.15l.41-.41a.11.11,0,0,1,.15,0l6.61,6.61A.11.11,0,0,1,156.31,260Z"/>
        <path class="cls-14" d="M190.76,251l.47.34a.1.1,0,0,1,0,.15L185.71,259a.14.14,0,0,1-.16,0l-.46-.34a.11.11,0,0,1,0-.16l5.54-7.52A.1.1,0,0,1,190.76,251Z"/>
        <path class="cls-14" d="M187.5,266.06l-.26-.51a.12.12,0,0,1,0-.15l2.48-1.22a.13.13,0,0,1,.15.05l.25.52a.1.1,0,0,1,0,.14l-2.48,1.22A.1.1,0,0,1,187.5,266.06Z"/>
        <path class="cls-14" d="M158.74,270.82l-.34.46a.1.1,0,0,1-.15,0l-7.53-5.54a.12.12,0,0,1,0-.15l.34-.47a.11.11,0,0,1,.16,0l7.52,5.54A.11.11,0,0,1,158.74,270.82Z"/>
      </g>
    </g>
    <g>
      <circle class="cls-23" cx="97.69" cy="244.6" r="23.71"/>
      <path class="cls-24" d="M74.92,238C64.49,274,57.4,306.82,58.55,316L89,312.83l3.53-66.7Z"/>
      <path class="cls-25" d="M108.57,234.25l-4.17,81.54,34.4,18.31c-.72-27.86-15-99.45-20.79-101.37Z"/>
      <polygon class="cls-26" points="108.58 278.41 109.58 300.61 88.04 303.86 86.69 280.55 108.58 278.41"/>
      <path class="cls-27" d="M118.79,265s-5.16,23-19.12,25.82-18.11-18.95-18.84-20.51c0,0-3.13,1.47-3.83-1.63S72.62,257.8,79.56,258c0,0-1.36-7.75,1-11.56s7.25-13,17.23-10.42S123.77,246.93,118.79,265Z"/>
      <path class="cls-28" d="M109.24,293.19l13.66,7.24L105,320.06,72,299.26c5-1.88,10-4.41,14.51-5.16Z"/>
      <path class="cls-29" d="M80.35,237.34c-4.67,6.53-1,12.32-2.25,17,4.52-1.64,19.78-4.1,24.38-3.64,1-3.13-.92-8.32-1.87-12.42,1.49,3.89,4.9,9.84,4.53,12.92,6.17.28,4.91.37,11.85,3.14l-5.4-18.82C99.56,229.9,89.18,230.61,80.35,237.34Z"/>
      <path class="cls-30" d="M103.33,215.21c0,4.53-4.26,9.61-7.33,9.61-2.53,0-7.33-5.08-7.33-9.61S92,207,96,207,103.33,210.68,103.33,215.21Z"/>
      <path class="cls-31" d="M132.7,349.57l7.52-41.82c-10.23-7-19.71-10.27-31-14.54-3.49,7.26-19.44,6.54-22.78.9C75.85,296.8,65.75,301.78,56,308.23l10.29,41.34Z"/>
      <path class="cls-32" d="M153.33,342.18c-6.09-26.05-13.11-34.43-13.11-34.43L129,342a82.07,82.07,0,0,1,3.14,7.59h15.34A6,6,0,0,0,153.33,342.18Z"/>
      <path class="cls-33" d="M67,349.57a99.61,99.61,0,0,1,5.07-14L56,308.24S48.05,322,45.42,342.81a6,6,0,0,0,6,6.76Z"/>
      <path class="cls-34" d="M110.88,235.94c8,20.16,12,77.05,7.09,107.14,7.62-26.27,17.12-59.58,2.61-104.37Z"/>
      <path class="cls-35" d="M116.16,258.26c5.14-2.14,3.36,5.66,1.2,11.65Z"/>
      <g>
        <path class="cls-14" d="M86.33,261.27l11.3-2.13a8.34,8.34,0,0,1,3.07,0l11.4,1.94a4.35,4.35,0,0,1,3.35,5.33c-1.9,8-4.68,15.56-12.45,20.76a7.71,7.71,0,0,1-7.29.74c-8.86-3.71-12.11-11.73-13-21.53A4.66,4.66,0,0,1,86.33,261.27Z"/>
        <rect class="cls-14" x="81.95" y="256.57" width="0.7" height="8.38" rx="0.09" transform="translate(-160.28 134.57) rotate(-45)"/>
        <rect class="cls-14" x="114.36" y="256.92" width="0.7" height="5.58" rx="0.09" transform="translate(12.18 524.47) rotate(-135)"/>
        <rect class="cls-14" x="114.45" y="268.62" width="0.6" height="5.82" rx="0.09" transform="matrix(0.32, 0.95, -0.95, 0.32, 335.11, 75.73)"/>
        <path class="cls-14" d="M88.35,272.86l-.15.5a.09.09,0,0,1-.11.05L80.26,271a.09.09,0,0,1-.06-.11l.16-.5a.08.08,0,0,1,.11-.05l7.83,2.45A.08.08,0,0,1,88.35,272.86Z"/>
      </g>
    </g>
    <g>
      <g>
        <path class="cls-36" d="M336.79,327.69l87.71-.46,193-.39,193,.39,87.71.46-87.71.46-193,.39-193-.39Z"/>
        <path class="cls-37" d="M336.79,292.18l87.71-.46,193-.39,193,.39,87.71.46-87.71.45-193,.4-193-.4Z"/>
        <path class="cls-38" d="M336.79,256.66l87.71-.46,193-.39,193,.39,87.71.46-87.71.46-193,.39-193-.39Z"/>
        <path class="cls-39" d="M336.79,221.15l87.71-.46,193-.39,193,.39,87.71.46-87.71.46-193,.39-193-.39Z"/>
        <path class="cls-40" d="M336.79,185.63l87.71-.45,193-.4,193,.4,87.71.45-87.71.46-193,.4-193-.4Z"/>
        <path class="cls-41" d="M336.79,150.12l87.71-.46,193-.39,193,.39,87.71.46-87.71.46-193,.39-193-.39Z"/>
        <path class="cls-42" d="M336.79,114.61l87.71-.46,193-.39,193,.39,87.71.46-87.71.46-193,.39-193-.4Z"/>
        <path class="cls-43" d="M336.79,79.09l87.71-.45,193-.4,193,.4,87.71.45-87.71.46-193,.39-193-.39Z"/>
        <path class="cls-44" d="M336.79,43.58l87.71-.46,193-.39,193,.39,87.71.46L810.42,44l-193,.39L424.5,44Z"/>
        <path class="cls-45" d="M863,31.33s.17,19.74.43,49.35c.06,14.8.13,32.07.2,50.58s0,38.24.05,58-.12,39.47-.17,58-.23,35.77-.32,50.58c-.32,29.6-.53,49.34-.53,49.34s-.17-19.74-.43-49.34c-.06-14.81-.13-32.08-.2-50.59s0-38.24-.05-58,.12-39.47.18-58,.22-35.77.31-50.57C862.83,51.07,863,31.33,863,31.33Z"/>
        <path class="cls-46" d="M828,31.33s.21,19.74.52,49.35c.08,14.8.19,32.07.29,50.57s.11,38.25.16,58,0,39.48-.06,58-.16,35.78-.23,50.59c-.26,29.6-.44,49.34-.44,49.34s-.21-19.74-.52-49.34c-.08-14.81-.18-32.08-.29-50.58s-.11-38.25-.16-58,0-39.48.07-58,.16-35.78.22-50.58C827.78,51.07,828,31.33,828,31.33Z"/>
        <path class="cls-47" d="M792.87,31.33l.5,49.35c.08,14.8.17,32.07.27,50.57s.09,38.25.14,58-.07,39.47-.1,58-.17,35.77-.24,50.58c-.28,29.6-.46,49.34-.46,49.34l-.5-49.34c-.08-14.81-.17-32.08-.27-50.58s-.09-38.25-.13-58,.06-39.48.09-58,.17-35.77.24-50.57C792.69,51.07,792.87,31.33,792.87,31.33Z"/>
        <path class="cls-48" d="M757.79,31.33s.19,19.74.48,49.35c.07,14.8.16,32.07.25,50.57s.07,38.25.1,58-.08,39.47-.11,58-.19,35.77-.27,50.58c-.29,29.6-.49,49.34-.49,49.34s-.19-19.74-.47-49.34c-.07-14.81-.16-32.08-.25-50.58s-.07-38.25-.11-58,.08-39.48.12-58,.19-35.77.27-50.57C757.6,51.07,757.79,31.33,757.79,31.33Z"/>
        <path class="cls-49" d="M722.71,31.33l.45,49.35c.07,14.8.15,32.07.23,50.58s.05,38.24.08,58-.1,39.47-.15,58-.2,35.77-.28,50.58c-.31,29.6-.51,49.34-.51,49.34l-.45-49.34c-.07-14.81-.15-32.08-.23-50.58s-.06-38.25-.08-58,.1-39.48.14-58,.21-35.77.29-50.57C722.51,51.07,722.71,31.33,722.71,31.33Z"/>
        <path class="cls-50" d="M687.63,31.33s.17,19.74.42,49.35c.06,14.8.14,32.07.21,50.58s0,38.24.06,58-.12,39.47-.18,58-.22,35.77-.31,50.58c-.32,29.6-.53,49.34-.53,49.34s-.17-19.74-.43-49.34c-.06-14.81-.13-32.08-.2-50.59s0-38.24-.06-58,.12-39.47.18-58,.22-35.77.31-50.57C687.41,51.07,687.63,31.33,687.63,31.33Z"/>
        <path class="cls-51" d="M652.54,31.33s.21,19.74.52,49.35c.09,14.8.19,32.07.3,50.57s.11,38.25.16,58,0,39.48-.06,58-.15,35.78-.22,50.59c-.26,29.6-.44,49.34-.44,49.34s-.21-19.74-.52-49.34c-.09-14.81-.19-32.08-.3-50.58s-.1-38.25-.16-58,0-39.48.07-58,.15-35.78.22-50.58C652.37,51.07,652.54,31.33,652.54,31.33Z"/>
        <path class="cls-52" d="M617.46,31.33l.5,49.35c.08,14.8.17,32.07.28,50.57s.08,38.25.13,58-.06,39.47-.09,58S618.11,283,618,297.8c-.28,29.6-.46,49.34-.46,49.34l-.5-49.34c-.08-14.81-.18-32.08-.28-50.58s-.09-38.25-.13-58,.06-39.48.09-58,.17-35.77.24-50.57C617.28,51.07,617.46,31.33,617.46,31.33Z"/>
        <path class="cls-53" d="M582.38,31.33s.19,19.74.47,49.35c.08,14.8.16,32.07.26,50.57s.07,38.25.11,58-.08,39.47-.12,58-.19,35.77-.26,50.58c-.29,29.6-.49,49.34-.49,49.34s-.19-19.74-.47-49.34c-.08-14.81-.17-32.08-.26-50.58s-.07-38.25-.11-58,.08-39.48.12-58,.19-35.77.27-50.57C582.18,51.07,582.38,31.33,582.38,31.33Z"/>
        <path class="cls-54" d="M547.29,31.33s.18,19.74.46,49.35c.06,14.8.14,32.07.23,50.58s0,38.24.08,58-.09,39.47-.14,58-.2,35.77-.29,50.58l-.5,49.34-.45-49.34c-.07-14.81-.15-32.08-.24-50.58s-.05-38.25-.08-58,.1-39.48.14-58,.21-35.77.29-50.57Z"/>
        <path class="cls-55" d="M512.21,31.33s.17,19.74.43,49.35c.06,14.8.13,32.07.21,50.58s0,38.24.06,58-.12,39.47-.17,58-.22,35.77-.31,50.58c-.32,29.6-.53,49.34-.53,49.34s-.17-19.74-.43-49.34c-.06-14.81-.13-32.08-.21-50.59s0-38.24-.05-58,.11-39.47.17-58,.21-35.77.31-50.57C512,51.07,512.21,31.33,512.21,31.33Z"/>
        <path class="cls-56" d="M477.13,31.33s.2,19.74.52,49.35c.09,14.8.19,32.07.3,50.57s.11,38.25.17,58,0,39.48-.06,58-.16,35.78-.22,50.59c-.26,29.6-.44,49.34-.44,49.34s-.2-19.74-.52-49.34c-.09-14.81-.19-32.08-.3-50.58s-.11-38.24-.17-58,0-39.48.07-58,.15-35.78.21-50.58C477,51.07,477.13,31.33,477.13,31.33Z"/>
        <path class="cls-57" d="M442,31.33l.5,49.35c.08,14.8.18,32.07.28,50.57s.1,38.25.14,58-.06,39.47-.08,58-.17,35.77-.24,50.58c-.28,29.6-.46,49.34-.46,49.34l-.5-49.34c-.08-14.81-.18-32.08-.28-50.58s-.09-38.25-.14-58,.06-39.48.09-58,.17-35.78.24-50.58Z"/>
        <path class="cls-58" d="M407,31.33s.19,19.74.48,49.35c.07,14.8.16,32.07.26,50.57s.07,38.25.11,58-.08,39.47-.12,58-.18,35.77-.26,50.58c-.28,29.6-.48,49.34-.48,49.34s-.19-19.74-.48-49.34c-.07-14.81-.16-32.08-.25-50.58s-.08-38.25-.11-58,.07-39.48.11-58,.19-35.77.26-50.57C406.77,51.07,407,31.33,407,31.33Z"/>
        <path class="cls-59" d="M371.87,31.33s.19,19.74.46,49.35c.07,14.8.15,32.07.24,50.58s.05,38.24.08,58-.09,39.47-.14,58-.2,35.77-.28,50.58l-.5,49.34s-.18-19.74-.46-49.34c-.07-14.81-.15-32.08-.23-50.58s-.06-38.25-.09-58,.1-39.48.14-58,.2-35.77.28-50.57Z"/>
      </g>
      <g>
        <path class="cls-60" d="M670.71,286.5c-1.21-1.43-2.43-.12-3.36-2.4a6.9,6.9,0,0,1-.27-4.61c.85-2.73,1.86-4.83,2-7.93.13-3.63.72-5.64,3.87-7.56a18.58,18.58,0,0,0,5.84-5.21c.78-1.05,1.52-3.16,2.79-3.24a32.25,32.25,0,0,1,1,5.49c.15,1,.07,6.1-1.44,3.54-.16,2.55.44,5-.27,7.54a31.83,31.83,0,0,1-2.58,6c-.87,1.65-4.57,11.75-7.52,8.53Z"/>
        <path class="cls-60" d="M623.33,302.91c-2.83-1.05-1.44-4.76-2.62-7.19A23.67,23.67,0,0,0,619,292c-.8-1.12-1.88-1.73-2.41-3.17-1.06-2.89-.22-6.2-.95-9.18-.39-1.58-1.9-2.57-2.73-3.91a14.48,14.48,0,0,1-1.47-4.93,26.61,26.61,0,0,1-1-4.84,35.83,35.83,0,0,1,1-6c.55-3.23,3-5.8,1.94-9.32-.51-1.6-1.64-3-1.94-4.69s.23-3.06-.73-4.62c-1.48-2.38-4.72-4.79-5.41-7.55-.84-3.37,1.91-6.43-.13-9.63-1-1.65-1.74-1.48-3.55-1.84-2.06-.43-2.66-1.56-4.05-3.1-2.53-2.81-5.88-1.12-8.86.14a16.83,16.83,0,0,1-6.45,1.52c-1.57,0-2.84-.57-4.42-.56s-3.44.64-5.16.74c-3,.18-2.56-.81-3.51-3.46-1.22-3.38-4.6-4.36-7-6.81s-6.31-4.08-6.77-7.61c-.28-2.09.4-2.59,1.15-4.24.65-1.43.46-3,1.1-4.57a8.85,8.85,0,0,0,.15-6.31c-.3-.94-1.12-1.68-.9-2.77a20.81,20.81,0,0,1,1.66-2.76c1-1.87,1.28-4.33,2.51-6.09,1.06-1.54,2.73-1.63,3.91-3.13l.74-.92c1.46-2.08,4.61-2.36,5.58-5,.53-1.44-.19-2.94.68-4.28.63-1,2-1.67,2.82-2.54,1.82-2,3.2-5,6.22-5,1.39,0,2.2,1.06,3.51,1.11s2.62-.92,3.86-1.53c2.62-1.29,4.77-2.61,7.75-2.76a45.26,45.26,0,0,1,8.66.24c1.71.25,3.19-.69,3.88,1.1.25.63-.27,1.59,0,2.21s1.2,1,1.71,1.61c1,1.16.9,2.26,2.17,3.13s2.88,1.24,4.25,2c2.74,1.58,3.18,3.76,6.81,2.81.78-.21,1.09.06,1.66-.55s0-1.31.73-1.86,3.63-.27,4.62-.13a28,28,0,0,1,4.2,1.29,16.42,16.42,0,0,0,4.46.33c3.14,0,6.42.57,9.41.36,3.63-.25,3.65-3.52,3.69-6.45a31,31,0,0,1,.41-4.38c.29-2,0-2.35-2.26-2.26-3,.12-5.89.74-8.85.74-3.43,0-4.32-2.53-4.74-5.53-.29-2.08.92-1.07,2.72-1.65,1.25-.41,2.19-1.51,3.49-1.86,1.6-.42,3.06,0,4.62.19a27.18,27.18,0,0,0,4.42-.37c3.24-.16,6,1.94,8.67-.13,3.43-2.66-1.09-4.18-3.37-5.54-2.07-1.23-5-3.66-7.51-3.14-1.57.32-2.73,1.81-4.11.56-.49-.45-.13-1.13-.64-1.57a6,6,0,0,0-2.06-.7c-2-.1-4.8,3.71-5.5,5.58-.9,2.39,4.9,6.32-.78,5.86-2.06-.16-4.89-1.75-6.64.36-1.17,1.43-.22,2.25.32,3.56.38.9,1.22,2.15-.85,1.83.24,1.2,1.34,3.28-.94,3.11-1.9-.15-1.67-2.25-2.17-3.52s-1.56-1.82-2.12-2.9c-.73-1.39-.42-3-1.21-4.47-1.35-2.49-4.58-3.92-6.72-5.66-1.09-.88-6.6-5.15-6.05-1,.31,2.38,4,3.91,5.5,5.4.93.92,1.09,1.56,2.39,2.2,1,.48,2.8.61,3,2-2.4.13-2.17-.06-2,2a3.17,3.17,0,0,1-1.35,3.28c-1.06,1-1.75,2-3.13,1.75-.62-.1-2.94-1.6-2.73-2.45.39-1.54,2.94,0,3.89-.74a2.47,2.47,0,0,0,.23-3.54c-1.63-2-4.54-3.39-6.54-5.07-1.63-1.37-5.45-3.64-7.29-2.4-1.43,1-1.17,1.94-3.37,1.8-1.37-.09-2.89-1.25-3.69.36s.16,2.62-1.28,4.06c-1.11,1.12-2.45,1.38-3.47,2.63-1.87,2.27-2.71,4.93-5.75,5.86-1,.32-3.79,1.11-4.43.18l-.92.74c-1-4.17-4.77,0-5.9-3.51-.9-2.79.69-5.2,1.11-7.92.25-1.63-.26-2.79,1.28-3.88,1.12-.79,3-.81,4.43-.73,2.81.14,6.8,2,7-1.85s-2.92-4.11-4.66-6.45c-2.72-3.64,4.42-2.33,5.62-2.9,2.51-1.21,4.78-3.26,7-4.85,2.51-1.82,3.53-4.48,6.8-4.6,3.68-.14,2.59-.85,2.21-3.69-.22-1.67,1.43-5.11,3.48-4.77.26,1.54.9,2.48.58,4s-1,2.53,1.11,3.38c1.17.46,2.65.17,3.87.3,1.85.21,2.25-.87,4.06-1.28,3.09-.7,6.79,2.55,6.82-2.21,0-1.45-.5-3.41,1.29-3.89,1.39-.36,2.37,1.09,3.85.91.27-1.48-1.4-2.55.39-3.43,1.31-.66,3.34.19,4.61,0,1.52-.28,1.9-1.61.2-2.22-1.34-.48-3.36.83-4.62,1.13-2.53.6-7,1-6.46-3,.26-1.77,5.32-5.58,4-7s-3.38.46-4.06,1.25c-1,1.12-2.17,1.5-3.14,2.58a5.23,5.23,0,0,0-1.07,3.88c.3,1.78,1,1.58-.31,3.3-.84,1.15-2.38,2.49-2.86,3.84s.16,2.24-.87,3.41c-.73.82-2.6,1.7-3.46,1-1.17-.93-.37-3.33-1-4.57-1.56-3.3-3.61-3.57-6.59-2.35-1.84.75-2.37.94-3.42-1-.59-1.09-1.61-2.81-1.6-4.07,0-1.61,1.09-2.17,2.39-2.81a14.93,14.93,0,0,0,4-2.4c2.16-1.85,4.44-3.34,6.46-5.3s3.93-4.85,6.54-5.85a50,50,0,0,1,8.07-2.07c2.66-.52,6.06-1.23,8.48.18a8.38,8.38,0,0,0,3.32,1.48c1.52.29,3.09.29,4.61.59s6.57,1.58,7.19,3.46c1.2,3.71-5.6,1.93-6.41,3.36-1,1.81,1.25,2,2.55,2.17,1.91.19,1.91-.36,3.34-1.43,1.19-.88,2.72-.9,3.47-2.26S653,89,654.67,88.11c2.26-1.2,2.07,1,3.18,2,1.42,1.33,2.63-.17,4-1.1,3.06-2.14,5.74-1.5,9.26-1.85,2.78-.27,6.45-2.36,9-.88,1.27.72,2.07,2.45,3.69,2.39,2.46-.09.43-1.13-.13-2.25-1.1-2.14.58-6.51,3.27-6.27,2.87.25,4.12,2.88,5.53,5a7.36,7.36,0,0,1,1.67,4c0,1.33-1.28,2.66-.16,4,1.5,1.81,2.49,0,2.73-1.43a5.21,5.21,0,0,0-.78-3.83c-1.06-1.83-2.87-3.14-2.69-5.36,2.16-.85,3.79,1.2,5.87,1.26.73,0,2.6-.22,2.77-.92.25-1.11-1.64-1.57-1.27-3.11a9.43,9.43,0,0,1,2-.21l2.95-.37a2.45,2.45,0,0,0-.16-1.82c2.94-.7,5.26-1.53,8.46-1.69a19.28,19.28,0,0,0,4.24-.36c1.29-.41,1.92-1.57,3.14-2,2.86-1.07,6.3,1,9,1.65a37.43,37.43,0,0,1,4.24.93c2.12.82,1.4,1.2,0,2.54-.71.67-1.49,1.11-1.25,2.22,2.39,1,6.37,0,9,0a51.09,51.09,0,0,1,8.67,1.11c2.79.45,5.62-1,8.29-.57,1.47.26,2.85,1.11,4.39,1.35a15.51,15.51,0,0,1,4.1,1.57c2,.93,3.71.74,5.9.41s4.93.64,5.56-2.17a85.63,85.63,0,0,1,9.55-.4c1.76.1,2.74,1.08,4.43,1.65a11.88,11.88,0,0,0,4.61.19c1.63-.08,3.29,0,4.92,0,2,0,3.26,0,4.71.69,2.63,1.28,5.3,1.23,8.26,1.53,2.52.25,4.9.88,7.37,1.24,1.31.19,6.34,1.68,5-.85,4.16-.32,7.48,1,11.41,1.63,1.54.25,10.54,1.43,10.51,2.4l2,.73c1.82,1.05,4.36.46,6.27,1.3.62.27,1.78.84,2.08,1.61.41,1.08-.44,1.52-.26,2.78-1.58.32-7.54-2.73-8.8-.86-1.34,2,7.44,3.34,1.27,4.58-1.48.29-3.08.47-4.2,1.7-1,1.06-1.08,2.35-2.62,2.91-1.37.51-3.76-.29-5,.36s-.69,2.24.18,3.28c1.93,2.31,4.54,2.39,4.24,6.13-.12,1.53-.91,2.76-.69,4.42.1.76,1.25,3.5.47,4-1,.65-7.33-4.34-8.13-5.12-1.69-1.68-4.66-4.13-4.93-6.64-.17-1.61.91-2.53,1.12-4.06s.63-2.86.73-4.24c.21-2.69-1.27-1.2-2.76-.73a6.31,6.31,0,0,1-2.22.18c-.61,0-1.72-.63-2.21-.56-3.81.53,2.76,5.13-1.83,6.1-1.63.34-2.73-.69-4-1.34a9.81,9.81,0,0,0-3.92-.88c-1.87-.19-2.21.27-3.83.78s-2.36.21-3.73,1.25c-1.83,1.38-3.58,4.6-1.85,6.44,1.44,1.52,2.34.69,4.06.93a8.17,8.17,0,0,1,3.27,1.71c1,.68,2.61,1.51,3.32,2.58s.86,2.44,1.48,3.65c1.14,2.21,2.63,3.16,2.08,5.9a69.81,69.81,0,0,1-1.48,7c-.25.79-.45,2.61-.88,3.18-.92,1.21-1.81.4-3,.17-3.77-.7-1.9,2.73-2.2,4.91-4.33.68,1.32,5.67,2.29,6.81s2.14,2.62,1.62,4.1-2.67,1.17-3.14,2l-.74-.37c-.59-1.94-.59-3.71-2-5.31-1.59-1.77-3.41-.64-4.94-1.87-.71-.57-.49-1.9-1.33-2.38a8.27,8.27,0,0,0-3.14,0c-2.31.43-3.4,1.31-3.34-2-2.65-.19-2,5.65.76,5.65,1.17,0,2.68-1.35,4-.29,1.75,1.38,0,1.88-.56,3-1.47,2.77,2.72,5,3.78,7.43,1.3,3,2.39,4.79,2.35,8.29a15.22,15.22,0,0,1-3.37,9c-1.63,2-3.44,4.76-6,5.18a37.58,37.58,0,0,0-3.87.36c-1.93.52-2,1.65-3.32,2.55-2.65,1.74-5.62-2-7.8,1.32a5.44,5.44,0,0,0-.68,1.85l-.19.74c0,2.22,3.8,5,5.3,6.63,1.84,2.07,3.65,5.84,2.4,8.67-.62,1.4-2.22,2.08-3.28,3.14a26.77,26.77,0,0,0-2.62,3.63c-3,4.15-1.8-2.15-3.13-3.77-1.13-1.38-2.59-1.9-3.84-2.77s-1.82-2.86-3.28-2.78c-.58,2.09-1.23,5.26-.53,7.33s2.71,3.68,3.86,5.54a12.05,12.05,0,0,0,2,2.77,6.81,6.81,0,0,1,2.07,2.58c.38,1.15.17,2.59.46,3.73s1.74,2.57.76,3.25-4.62-3-5.05-3.66l-.37-1.47c-1.85-2.42-2.32-4.29-4-6.6a9.46,9.46,0,0,1-2-3.17,17.84,17.84,0,0,1-.56-5.17c0-3.23.56-5.64-1.15-8.49-.35-.58-1.05-.95-1.43-1.5s-.35-1.58-.73-2c-1.1-1.21-1.43-.15-2.46.88-.61.61-.88,1.55-1.79,1.16,0,0-1.88-3.48-2.76-5.17-1.15-2.2-1.92-4.41-3-6.64-.9-2-3.11-3.33-4.92-2.53a18.12,18.12,0,0,1-3.19,1.43c-1.27.33-2.58.41-3.5,1.47s-.9,2.3-1.61,3.37a11.41,11.41,0,0,1-3.33,2.77c-2.23,1.51-4.64,4.38-4.46,6.95s1,6.64.19,9.05c-.5,1.43-2.45,2.06-2.78,3.58-.25,1.23-4.11-.11-4.7-2.58-.81-3.41-.89-7-2.25-10.23s-4.16-6.81-4.48-10.14c-.15-1.51.31-4.58-1.84-5.18-1.29-.36-1.77.9-2.06,2-1.17.22-3.06-1.1-3.88-1.95-1.14-1.19-.65-2.52-1.61-3.75a9,9,0,0,0-6.09-3.68c-3.32-.27-6.27,2.09-9.55,1.44-1.26-.25-2.68-.76-3.91-1.07-1.71-.43-1.73-.72-2.9-1.89-2.11-2.12-5.22-.76-7.57-2.58a20,20,0,0,1-3.41-3.6c-.74-1-1-2.31-2.16-3-3.91-2.46-3.77,3.16-3.15,5.58.49,1.91,1.84,1.84,3.33,2.63,2.13,1.12,1.29,2.44,2.45,3.95,1.78,2.34,6.46,1.26,7.88-.86.93-1.41,1.15-2.2,2.58-.75.76.77,1.5,1.83,2.44,2.73.77.74,2.41,1.78,2.53,2.81.16,1.26-1,1.38-1.48,2.21s-.33,1.17-.54,2c-.82,3.3-3.34,5-5.76,7.33-2.73,2.68-4,5-7.71,6.12-2.61.79-5.78,2.91-8.48,3-4.12.08-2.62-4-2.94-6.64s-2.66-4.92-4.57-6.68c-1.21-1.12-2-1.32-2.44-2.9a30.54,30.54,0,0,0-1.07-4.62,25.08,25.08,0,0,0-4.69-7.14c-1.92-2.09-2.37-3.79-3.65-6.13-1.13-2.08-1.2-1.28-2.89-.7s-2-.23-3.23-1.67c-1.69,1.16.43,6.4.92,7.9,1,3.09.56,6.08,3.32,8.53,1.09,1,2.33.91,3.23,2.35s.62,2.7.87,4.24c.31,1.93,1.09,2,2.17,3.5.75,1.07.78,2.58,1.52,3.69s2.08,1.6,2.94,2.62,1.1,2.24,2.37,2.94c.62,2.86,2.14,5.5,5.38,5.69,3,.17,5.7-1.54,8.25-2.81,1-.52,2.85-1.22,4.1-.7,1.52.64.52,2.07.23,3.55-1,5.34-2.87,12.49-7.41,15.95-2.81,2.15-4.77,5-7.38,7.43a29.34,29.34,0,0,0-3.55,3.5,12.85,12.85,0,0,0-1.75,3.91c-.51,1.33-1.47,2.44-1.16,4,.13.66.93.89.93,1.65,0,1.09-.71.89-1,1.62a4.86,4.86,0,0,0,.64,3.9c1.11,2.07,1.45,1.92,1.11,4.25-.49,3.26.58,6.46-1.39,9.41-1,1.44-2.47,1.74-3.86,2.72a20.13,20.13,0,0,0-3.83,4.24c-.9,1.14-2.25,2.62-2.4,4.1-.18,1.71,1.3,2.48,1.49,4.06.44,3.66-3.55,4.36-5.7,5.56a.44.44,0,0,0,0,.34c-.91,1.21,0,2.54,0,3.87a8.17,8.17,0,0,1-1.25,4.1,24.22,24.22,0,0,1-6.5,6.18c-2.25,1.65-4.77,3.94-7.74,4.1-1.87.1-2.5-.37-4.2.42a8.58,8.58,0,0,1-3.92,1.06Z"/>
        <path class="cls-60" d="M739.85,211.18c.85.28,1.54,2.5,1.85,3.32.52,1.35-.21,2.32-1.13,3.39-.67.76-1.8,2.36-2.93,1.66s-.5-3,.16-3.86c.46-.61,1.13-1.05,1.39-1.77s0-1.83.66-2.56Z"/>
        <path class="cls-60" d="M793.23,233.49a9.87,9.87,0,0,1-.55-2.39c0-.84.47-1.45.46-2.31,0-1.66,1.12-2.13,2.58-2.58s2-1.94,3.29-2.79a8.52,8.52,0,0,1,2.06-.65c.59-.21,1.54-2.18,2.12-2.46,1.22-.61,3-3.28,4.15-4.1s1.36,2,2.76,2c.63,0,1.56,0,2,.52.53.74-.18,1.23-.66,1.69a14.36,14.36,0,0,0-1.3,1.4c-.74.88-.48,1,0,2,.42.85.13,1.35.25,2.21s.71,1.18,1,1.83.24,1.16-.6,1.56-1.2.27-1.55,1.41a22.81,22.81,0,0,1-.62,2.21c-.4,1-1.11,1.8-1.48,2.76-.26.68.05,1.5-.2,2.13a3.21,3.21,0,0,1-1.57,1.31c-.3.14-.67.17-.95.32s-.42.51-.8.58c-.83.16-.92-.59-1.66-.81-1.47-.47-2.78.53-4.15.53-1,0-3.11-1.28-2.21-2.49A19.06,19.06,0,0,1,793.23,233.49Z"/>
        <path class="cls-60" d="M766.31,218.28c-.6-1.92,1.81-2.52,3.14-1.73s1.94,2.15,2.95,3.27,2.57,1.55,3.39,3.09a19.18,19.18,0,0,0,3,3.6c1.94,2.24,4.14,4.22,6,6.54a5.25,5.25,0,0,1,1,2.28,5.28,5.28,0,0,0,1.09,2.1c.92,1.27.18,3.33-.92,4.37-1.78,1.7-2.86-.52-3.87-1.88a31,31,0,0,1-2-3.18,10.7,10.7,0,0,0-2.5-2.7c-3.09-2.69-3.94-7.15-6.25-10.41a22.57,22.57,0,0,0-2.51-2.66,12.79,12.79,0,0,0-2.12-2.23Z"/>
        <path class="cls-60" d="M804.29,248.79c-.51-.25-1.41.27-2,.28a19.6,19.6,0,0,1-2.21-.3c-1.54-.15-3.12-.12-4.61-.35a32.49,32.49,0,0,1-4.34-1.22c-1.3-.39-3.05-.4-3.87-1.52a1.55,1.55,0,0,1-.18-2c.45-.87.89-.66,1.84-.56a5,5,0,0,1,2,.48c.59.37.87,1,1.59,1.18s1.6.07,2.31.18c1.23.19,1-.32,1.93-.8,1.49-.8,2.86.8,4.15,1.08.48.11,1.06-.17,1.48.16s.23.82.48,1.2c.56.86,1.79.72,1.92,1.77Z"/>
        <path class="cls-60" d="M812.52,238.81c-.5-.58-1.21-.55-1-1.63.12-.72.75-1,1-1.64a6.53,6.53,0,0,0,.18-2.14c.09-.78.29-1.55.44-2.31a5.19,5.19,0,0,1,2.1-3.34c1.44-.83,2.84-.11,4.36-.09a5.52,5.52,0,0,0,2.21-.35c.41-.17,1.46-1.12,1.94-.93.82.33.21,1.43-.08,1.86s-.56,1.11-.87,1.54c-.79,1.14-2.81.79-4,.67s-4-.83-3.5,1.29c.07.33.13.72.55.74s.35-.63.73-.75,1.25.49,1.85.47,1.44-.58,1.93-.38c.84.35.52,1.38,0,1.83-.91.8-3.31.56-2.49,2.14.17.34.44.53.58.9s0,.75.16,1c.29.66,1,.79,1.11,1.66.19,1.28-.49.84-1.38,1-.71.14-1.17,1.1-1.83,1-.31-.88-.28-4.66-1.85-4.22-.14,1.08.89,1.88.61,3.1-.17.8-.16,3-1.36,2.32S813.3,239.72,812.52,238.81Z"/>
        <path class="cls-60" d="M795.35,189.75c.53,2.29-5.53.46-3.29-1.64.5-.47.93-.29,1.54-.39.41-.07.93-.53,1.31-.53,1.72,0,0,2,.26,2.37Z"/>
        <path class="cls-60" d="M809.36,181.68c.24,1,.76,3.93,2.43,2.42.9-.83.72-2.77.89-3.9.2-1.33,1.06-2.57,1.11-3.87.09-2.23-2-1.24-2.58.09A55.28,55.28,0,0,0,809.36,181.68Z"/>
        <path class="cls-60" d="M822.82,211.73a1.94,1.94,0,0,1-1.56,1.29c-.84.06-.93-.69-1.57-.83-.79-.17-2.49,1.42-2.58,2.31-.07.64.13,1.54.95,1.22.19-.07.37-.63.61-.79a2.29,2.29,0,0,1,1-.25c1.87,0,1.39,1.57,2.32,2.65.6.7,2.71,2.36,3,.95.13-.63-.63-1.39-.36-1.92.41-.76,1-.1,1.1-1.22a13.11,13.11,0,0,0-1-4c-.15-.49-.44-1.28-1.11-1.11s-.53,1.15-.64,1.66Z"/>
        <path class="cls-60" d="M815.54,200.67c-.59,1.35-2.53-.28-3.2-.76a3.68,3.68,0,0,1-1.39-3.37c2.75-.62-1.78-7.43,2.63-5.16.57.29,1.42.32,1.87.81s.26,1.23.45,1.94.42.79.27,1.63-.33,1.41-.47,2.13c-.1.54-.4,1.59-.09,2.16.42.78,1.18.38,1.87.34,1.82-.1,2.3,1.35,2.56,2.76-.77-.14-1.36-1-2.2-1.19A18.58,18.58,0,0,1,815.54,200.67Z"/>
        <path class="cls-60" d="M819.23,252.39c-1.18-1.36.86-2.7,2.4-3.3,1-.39,3-1.51,4.15-1,2.07.88-1.29,1.83-1.76,2.14-1.34.92-2.24,2.08-4,2.27C819.68,252.5,819.5,252.7,819.23,252.39Z"/>
        <path class="cls-60" d="M812.87,202.88c0,.37,2.61,3.21,2.58,1.11,0-.8-1.68-2.31-2.4-1.66Z"/>
        <path class="cls-60" d="M820.52,204.26c.09.7,2.19,2.87,2.3,1.3a1.44,1.44,0,0,0-2.39-1.3"/>
        <path class="cls-60" d="M817.48,205.92c1.52.79,0,3.4-.81,3.13s-.2-4,.62-3.13"/>
        <path class="cls-60" d="M820,206.86c1.53.78-.61,4.32-1.46,4s-.2-4,.62-3.13"/>
        <path class="cls-60" d="M822.73,208.87c.21-1-2.16-3.21-1.84-1.19C820.89,207.68,822.44,210.28,822.73,208.87Z"/>
        <path class="cls-60" d="M830.94,304.94c1,.45,1.62-1,2.44-1.62s1.32-1.63,2.51-1.87a5.36,5.36,0,0,1-.11,2.19c-.28.71-.94.8-1.15,1.3-.61,1.35.2,2.36.55,3.87.23,1-.15,1.31.55,2.17a12.75,12.75,0,0,0,2.07,1.48,6,6,0,0,0,2,1.1c1.2.22,1.21-.4,2.07-.67,2.85-.91,6.15-.17,9-1.49s4.26-4.31,5.95-6.79a57,57,0,0,1,6.54-8.57,17.73,17.73,0,0,0,4.65-8.25c.93-3.65-1.34-6.52-3-9.77-1.57-3.1-4.24-4.26-5.53-7.34-.56-1.32.06-2,0-3.54a16.38,16.38,0,0,0-1.1-5.44c-.55-1.36-1.92-1.82-2.36-3.23-.32-1.05.16-5.81-1.42-4.51-1,.85-2.13,5.14-2.51,6.45-.62,2.14-.42,3-1.46,5-.85,1.64-.57,2.68-2.3,2.12a10,10,0,0,1-4-2.49c-1.2-1.21-3.82-1.11-3.65-3s4-4.65,3-5.58-4.38-1.2-5.81-1.66c-2.28-.73-1.75.58-3.13,2.22-1.18,1.39-2.09.32-3.18,1.28a7.19,7.19,0,0,0-1.52,3.88c-1.18.33-2.59.82-3.65.24-1.84-1-1.79-1.9-4-.41a9.25,9.25,0,0,0-3.32,3.13c-.8,1.7-.23,2.42-2.22,2.95-.53.14-1-.25-1.68.12-.91.52-1,1.28-1.3,2.08-.62,1.48-.85,2.31-2.35,3.1-2.64,1.37-5.51,1.55-8.12,3.17s-5.2,2.35-5.89,5.53c-.32,1.52-.23,3.18-.87,4.62-.35.78-.94.68-1,1.65s.72,1.18,1.06,2a13.94,13.94,0,0,1-.19,9c-1,2-3.72,5.94.8,5.21,2.85-.46,5.47-1.33,8.47-1.66s5.26-2.37,7.93-3.51c5-2.11,11.18-4.34,14.75,1.48C829.11,301.81,829.92,304.47,830.94,304.94Z"/>
        <path class="cls-60" d="M853.25,250.18c-.37.09-1.42-1.83-2.06-2.19a2.5,2.5,0,0,0-2.07-.19c-.63.32-1,1.38-1.85.51-.62-.62-.13-1.2.15-1.85,1.36-3.22-2.21-5.51-4.87-6.24a5.67,5.67,0,0,1-2-1c-.81-.57-.91-.61-1.72-.18s-1,.42-1.69-.57c-.46-.69-1.05-1.46-.46-2.15.38-.44,2.15-.41,2.29-.73.26-.57-1.73-.5-2-.63-.64-.3-.63-1.17-1.39-1.38s-1.76.56-1.75-.64,2.23-.94,3.05-1.18a7.07,7.07,0,0,1,1.66-.49c.93,0,.92.16,1.45.84a5.83,5.83,0,0,1,.87,1.1c.22.5.26,1.12.46,1.66.4,1.06.43,2.39,1.71,2.57.52-1.44,1.66-1.88,2.63-2.75a4.4,4.4,0,0,1,4-.55c2.92.72,5.37,2.73,8.11,3.58a10.53,10.53,0,0,1,4,2.24c.71.66.39,1,.66,1.83s.78.92,1.57,1.1a2.53,2.53,0,0,1,1.78.92c.19.28.48.65.35,1s-.74.3-.91.56c-.4.67.31,1.45.7,2a13.47,13.47,0,0,1,.94,1.91c.46.78,1.2.43,1.82.95a9.8,9.8,0,0,1,1.32,1.91c1.44,2.24-1.25.89-2.31.83-1.76-.11-3.18-.31-4.5-1.66s-1.31-3.22-3.24-3.71c-1.45-.37-2,.36-2.67,1.42-.88,1.3-1.58.88-2.87,1.37Z"/>
        <path class="cls-60" d="M868.55,244.09c1.73.12,4,0,5.14-1.48.56-.7,1.73-2.81.67-3.41-1.28-.74-2.23,2-3.42,2.47-1,.36-3.49.11-3.87,1.22Z"/>
        <path class="cls-60" d="M838.13,323.74c-.71-2.16.08-4.21,1.3-6.07,1-1.48.77-.91,2.38-.38a12,12,0,0,0,3.29.21c.93,2.36-.86,2.42-2.4,3.43-1.33.87-1.83,2.56-3.47,2.81Z"/>
        <path class="cls-60" d="M818,118.53c-.38-.7-.87-2.43.37-2.4.83,0,1.28,1.48,1.61,2.08,1,1.72,2.36,2.7,3.51,4.23s3.13,3.1,3.77,4.71c.33.82.2,1.69.56,2.58s1.18,1.23,1.21,2.42c-1.29.17-2.36-1.24-3.29-2-1.58-1.2-1.39-1.6-2.2-3.33-1.07-2.28-3.4-4.74-5-6.67Z"/>
        <path class="cls-60" d="M830.75,142.68c-.65-1.2-2.47-2.11-2-3.83.21-.75,1-.64,1.08-1.88,0-.79-.86-1.67,0-2.22s3.57,1.47,4.43,1.8c1.46.56,3.5.51,3.29,2.6a2.79,2.79,0,0,0-1.12.91c-.18.36-.22,1.58-.49,1.76-1.1.7-2.5-1.26-3.49-1.51-.16.75-.1,1.44-.58,1.82Z"/>
        <path class="cls-60" d="M824.3,159.09c-.34-.58-1.77-.62-2-1.14-.36-.84.73-2,1.3-2.5a4.87,4.87,0,0,1,2.35-1.34c.83-.25,2.46-.05,3.14-.54.85-.61.78-1.65,1.65-2.22,1.06-.68,1.56.1,2-1.48.6-2-.81-3.9-.52-5.86,3.25-1.08,3.1,2.57,3.46,5s2.1,4.87,1.64,7.53c-1.64-.14-2.91.86-4.59.41-.32.86-.07,2.09-1.1,2.38-1.47.42-1.35-1-2.16-1.71a3.69,3.69,0,0,0-4.66.23Z"/>
        <path class="cls-60" d="M822.64,164.81c-.13-1.5-2.73-3.27-1.67-4.65,1.48-1.93,2.82,1.7,4.59,1.54.34,1.42-2,4.79-2.92,3.29Z"/>
        <path class="cls-60" d="M873,330.42c-.9-1.19-5.64-.08-3.91-3.18.82-1.47,4.11-2,5.57-2.76,1.91-1,3.69-2.14,5.64-3.08a27,27,0,0,0,6.15-3.69c.74-.63,1-1.39,2.16-1.23a4.18,4.18,0,0,1-.1,1.62,8.37,8.37,0,0,0,1.34-.1c.36,1.72-2.29,2.76-3.44,3.54-1.67,1.14-3.22,2.43-4.86,3.6s-3.62.78-5,2.07c-1.14,1.06-1.82,2.27-3.29,2.94Z"/>
        <path class="cls-60" d="M891.92,319c-.56-1,.9-1.61,1.1-2.49.25-1.07-1.07-2.21-.83-2.91.34-1,2.19-.43,2.74-1.13s.17-2.66.17-3.43c0-1.47-.13-5.79,2-5a2.22,2.22,0,0,1,1.38,2.52c-.12.47-.79,1-.83,1.14-.17.84.18.57.52,1.21.11.21.43.63.55.83.26.43-.12.82.41,1.22s2.15,0,2.89.05c.6,2.58-3.9,2.35-4.71,3.4s-.12,1.72-1.35,2.56c-.85.57-1.88,1-2.77,1.62Z"/>
        <path class="cls-60" d="M576.36,123.14c1.42-1.17,4.06-1.77,4.56-3.87a9.62,9.62,0,0,1,.31-1.67c.27-.58.75-.47.8-1.23.09-1.43-1.41-1.61-2.39-1.15s-1.34,1.38-2.07,1.94c-1.06.81-2.44.47-3.46,1.24a2.6,2.6,0,0,0-.63,2.81c.48,1,2.08.74,2,1.79v.14Z"/>
        <path class="cls-60" d="M566.26,98.25c1.43-1.17,6.54-.94,7-3,.13-.58-.24-1.52,0-2.08s-1.43-.9-1.38-1.66c.1-1.42-1.41-1.6-2.38-1.14s-1.35,1.39-2.07,1.93c-1.06.82-2.45.48-3.46,1.25-.63.49-4.13,2-3.67,2.95s2.07.73,2,1.79c0,0,3,0,3,0Z"/>
        <path class="cls-60" d="M581.75,124.52c.15-1.64.86-1.59,1.63-2.79.56-.87.11-2.18.28-3.15s.9-1.77.72-2.77-1.18-1.3-1.7-2.17c-1.07-1.8-.36-5,1.15-6.4.65-.6,2.17-1.45,3-.8,1.06.82.25,1.89-.53,2.31.62,1.15,2.37.29,2.65,1.67.14.72-.46.84-.59,1.38-.17.69-.1.46,0,1.25s.38.51.17,1.28c-.15.61-.84.53-.7,1.45s1.28,1.5,1.8,1.94.71.08.94.86c.19.62-.41,1-.27,1.52.2.79,2.21,1.63,1.07,2.6-.52.45-2.53-.07-3.25.2-1,.36-1.62,1.35-2.63,1.65-.79.24-2.54-.06-2.94.53Z"/>
        <path class="cls-60" d="M522.71,104.89c1.43,3.34,5.07.82,6.5-.86a20.64,20.64,0,0,1,2.31-2.91c1-.86,2.31-1.43,3.35-2.28a16.29,16.29,0,0,0,2.39-2.91c.86-1.09,2-1.24,3.28-1.52,2.5-.53,5-.31,7.06-2a11.74,11.74,0,0,1,7.71-2.76c1.67-.09,6.47-.1,7.26-2,.4-1-.8-1.9.65-2.53,1.1-.48,2.37.85,2.9-.42s-1.44-1.71-1-2.9,2.38-.58,3.36-.69c2.31-.26,2.4-2,2.51-4a2.5,2.5,0,0,0,1.77-2.38c.2-1.58.26-2.18,1.8-3,2-1.11,4.26-1.38,6.12-2.49.53-.32,2.19-1.31,1.91-2.08s-2.49-.43-3.19-.41c-3.12.1-6.19,1.41-9.4,1.25-5.81-.29-11.24-2.62-17.11-2.63a36,36,0,0,0-11.13,1.52c-3.47,1.15-7,1.36-10.58,1.8a37.74,37.74,0,0,1-5,.69,16.09,16.09,0,0,0-5.09.93c-2.4.75-4.81,2.16-7.19,2.53-1.72.25-6.23.48-3,3,1.7,1.32,3.88,1,5.91,1.26a9,9,0,0,1,4,1.81c1.78,1.35.53,1.54.41,3.18-.13,1.88,1.54,1.14,2.49,1.83,1.64,1.19-.74,1.26-1.63,1.51-.06,1.18.17,1.8-.72,2.5s-1.54.69-2.21,1.63a10.7,10.7,0,0,0-1.66,6.08c-.08,1.82,1.53,11,4.29,9.54Z"/>
        <path class="cls-60" d="M485.09,74.6c.92-.45,2.31.7,3.31.84a16.7,16.7,0,0,0,3.33-.28c2-.1,5.06,1.21,6.92.42.75-.31,1.73-1.73,2.62-2.22a15.39,15.39,0,0,1,3.46-1.12,24.79,24.79,0,0,1,4.57-.82c1.49-.11,2-.77,3.32-1.35,2.19-1,4.88-.8,7.18-1.38s4.56-1.56,6.89-2.13c.73-1.87-5-1-6-1.08a64.75,64.75,0,0,0-9.13.4c-4.77.46-9.88-.67-14.48,0-1.19.17-5.7.59-3.6,2.34.92.77,5.62.3,4.32,2.53-.71,1.22-4.41,1.61-5.7,1.9-2.06.46-3.92.92-5.95,1.52Z"/>
        <path class="cls-60" d="M495.33,70.25c-.89-.71-2.1-1-3-1.68a4.2,4.2,0,0,0-3.52-.47c-.76.22-1.36.65-2.14.85-.62.15-1.21.32-1.81.41s-3.25-.28-3.32.33,2.05,2,2.56,2.15a9.26,9.26,0,0,0,3.52.14,33.28,33.28,0,0,1,3.46-.76,10.92,10.92,0,0,1,1.73-.14,8.52,8.52,0,0,0,1.66.14,2.64,2.64,0,0,0,.69-.35Z"/>
        <path class="cls-60" d="M486.13,94.24a8.22,8.22,0,0,0-2.35-.55c-.92-.08-1.26.33-1.95.83-1.94,1.39.32,2.14,1.87,2.14,1.9,0,3.22-.21,4.64,1.18a13.76,13.76,0,0,0,3.94,3.18c.6.26,2.23,1,2.84.62.94-.65-.25-1.62-.3-2.21s.85-.59,1.4-.51c1,.15,1.57.2,2.22-.72,1.19-1.69.46-2.63-.19-4.37a1.1,1.1,0,0,1,1.16-1.53c.94.11,1.1,1.39,1.93,1.8,2.13,1.06,6-2.17,2.82-3.32-1.35-.49-3.06-.45-3.78-1.85-.61-1.17-.14-1.46.57-2.36,1.47-1.87-3.23-3.7-4.64-4.14a9.69,9.69,0,0,0-2.93-.5c-1.32,0-2.39-.33-3.65.14-.7.26-1.9,1-2.41.26s-.16-1.52-1.27-1.71-1.84.85-2.61,1.43a6,6,0,0,1-2.36,1.12,1.79,1.79,0,0,1,.21-2c.53-.67.74-1-.43-1.17-1.34-.16-3.07,1.35-3.94,2.21-.6.59-1.12,1.54-.53,2.33s2,1,3,1.11a18.92,18.92,0,0,0,5.87-.12,4.68,4.68,0,0,1,2.16-.28c.26.07.26.31.62.35s.52-.22.83-.33c1.53-.57,2.13,1.49,2.9,2.47,1.18,1.5,1.51,3.29-.12,4.56a7.56,7.56,0,0,0-1.74,1.53,1.67,1.67,0,0,1-1.73.82h-.56Z"/>
        <path class="cls-60" d="M492.77,81c-.55,0-1.5-.22-1.78-.77a1,1,0,0,1,.67-1.37c1-.3,2.26.37,3.25.55.43.08,1.12-.07,1.52.15.62.35.52.94,0,1.17a9,9,0,0,1-1.59.14c-.6.11-1.17.75-1.73.76Z"/>
        <path class="cls-60" d="M478.32,79c-1.29-.15-2.66.06-3.89-.19a6.42,6.42,0,0,0-1.39-.31c-.24.09-.21.48-.37.64a2.34,2.34,0,0,1-.73.39c-.61.3-2.21,1.42-1.35,2.15s2.18-.36,3-.47c1-.14,1.61.14,2.57-.33.68-.33,1.65-.67,1.92-1.47Z"/>
        <path class="cls-60" d="M489.87,79.24c.29-.76,2.34-.72,3-1.2.42-.29,1-1.14.78-1.71s-1.21-.56-1.73-.54a15.2,15.2,0,0,0-2.28.49,7.7,7.7,0,0,1-3.17,0,14.84,14.84,0,0,1-4.22-1c-.75-.43-1.37-.73-2,.15s-.7,1.38-1.58,2c.95,1.37,3.76,1,5.32,1a15.73,15.73,0,0,1,2.83,0c.86.16,1.64.8,2.49.82Z"/>
        <path class="cls-60" d="M463.38,83.66a4.37,4.37,0,0,0,3.83-1.18A7.36,7.36,0,0,0,468.27,81c.29-.42,1-1,.78-1.6s-1.29-.41-1.86-.29a6.73,6.73,0,0,1-2.77.28c-.88-.17-1.11-.24-1.59.7s-.6,1-1.52,1.25-.86.61-.21,1.44a2.8,2.8,0,0,0,2.42,1.12Z"/>
        <path class="cls-60" d="M468.57,76.06c-.15.42,1.19.79,1.6.82a2.16,2.16,0,0,0,1.42-.41,3.71,3.71,0,0,1,1.54-.62c.56-.09,1.22-.13.89-1-.46-1.11-2.29-1-3.17-.58a13.91,13.91,0,0,0-1.17.77,7.55,7.55,0,0,0-1.46.7Z"/>
        <path class="cls-60" d="M468.43,97.56c0-.8,1.25-1.25,1.8-1.65s.7-.94,1.1-1.59a1.59,1.59,0,0,1,2.82.21,9.15,9.15,0,0,0,1.47,1.63c.36.4,1,1.61.42,2s-1.38-.56-1.87-.78a1.53,1.53,0,0,0-1.73.14,3.23,3.23,0,0,1-2.27.9c-.76,0-1.9.2-1.74-.9Z"/>
        <path class="cls-60" d="M459.58,78c.48-.1,3.62-.55,2.42-1.45-.22-.17-.6,0-.83-.16-.48-.24-.21-.21-.41-.6a1.18,1.18,0,0,0-1.38-.76c-.76.06-1.17.66-1.87.88a2.32,2.32,0,0,1-2-.27,3.94,3.94,0,0,0-3.75-.34c-1.07.42-3.6.25-3.65,1.66s1.58,1.09,2.57,1a25.84,25.84,0,0,1,4.49.07c1.38.18,3.52.49,4.84,0Z"/>
        <path class="cls-60" d="M453.7,88.3a8.51,8.51,0,0,0,3.1-1.68c1.21-1.2-1-1.87-.61-3.24.16-.63.77-.93.82-1.66a1.1,1.1,0,0,0-1.23-1.24c-1.19.06-2.87,3.15-4.07,1.85-.47-.51-.26-1-1.19-.88-.55,0-1.24.56-1.79.49s-.73-.74-1.46-.84c-.49-.06-1.12.35-1.52.21-.58-.2-.39-.87-.48-1.31-.17-.84-.7-.86-1.51-.9a18.26,18.26,0,0,1-2.09-.21c-.61-.1-1.1-.34-1.72-.41-1.48-.17-2.92.49-4.36.68-1.88.26-3.19,1.94-4.91,2.48-.47.15-1.71.54-1.36,1.33.11.24.93.46,1.16.49.72.09,1.16-.33,1.79-.56a21.45,21.45,0,0,1,3-.4c.66-.14,2-.68,2.69-.43s.28.37,0,.83a7.07,7.07,0,0,0,.68.48c.21.11.85.1,1,.28.5.73-1,.87-1.44.9-.7,0-1.12.19-.71,1s.8.74-.07,1.33c.37.44,1.05.28,1.54.53s.41.79,1,1,1.59-.36,2.18-.54a20.23,20.23,0,0,1,2.44-.48c1.64-.33,3.09-.91,4.75-.53.91.21,2.39,0,3,.92Z"/>
        <path class="cls-60" d="M500.9,126.09c-1.89.52-2.48-1.47-1.36-2.74.38-.43,1.43-.88,1.19-1.69-.37-1.16-1.46,0-1.85.47-1.46,1.73-2.23,4.1-4.34,5.18a6,6,0,0,0-2.39,1.45c-.61.8-.79,1.51.18,1.84a4.26,4.26,0,0,0,2.4,0c.74-.3,1.26-1,2.14-1.1a6.94,6.94,0,0,1,2.19.48c.74.23,1.24.86,1.93,1.1,2.26.8,1.6-1.22,1.85-2.49a17.92,17.92,0,0,1,.39-2.19c.21-.63,1.14-1.31-.2-1.32-.55,0-.94.43-1.39.56Z"/>
        <path class="cls-60" d="M455.64,139.64a16.34,16.34,0,0,1-3.76.63,2.48,2.48,0,0,1,.37-2.91c.94-1,1.81-1,3.1-1.05.55-1.67.54-2.77-1.37-3.38-1-.3-3.23-.86-3.67-1.88-.35-.8.09-1.8-.36-2.63a3.7,3.7,0,0,0-1.89-1.29c-1.53-.73-3.11.33-4.48,1.2a17.17,17.17,0,0,1-2.23,1.47,21.18,21.18,0,0,1-2.4.46c-.49.15-1.87.4-1.73,1.09s1.58.73,2.1.64a17.53,17.53,0,0,1,4.7-.55c.76.07,1.45.37,2.21.46a21.08,21.08,0,0,1,2.15.16c.27.06.51.15.79.22.26.93-1.16.63-1.73.63a8.8,8.8,0,0,0-2.21.28c-1.93.49-1.93,1.3-3,2.77a9.48,9.48,0,0,0-2.14,3.87c-.3,1.19-.27,3.57,1.56,2.3a12.21,12.21,0,0,0,1.74-2.11,15.39,15.39,0,0,0,1.61-2.31,6.71,6.71,0,0,1,3.39-3.21c.64-.23,1.4-.45,1.47.44.06.67-.83,1.29-1.22,1.82-.75,1-.28.69.23,1.47a1.54,1.54,0,0,1-.28,2c-.65.82-1.89,1.54-1.05,2.58a3.26,3.26,0,0,0,3.06.72,10.29,10.29,0,0,0,3-1.37,17.39,17.39,0,0,0,2.12-2Z"/>
        <path class="cls-60" d="M442.09,224.18a6.82,6.82,0,0,0,1.1-4.06c0-2.23,0-7.54-3.65-5.67-1.34.69-1.44,1.54-3.16,1.06a16.25,16.25,0,0,1-3.73-2,12.33,12.33,0,0,1-3.51-2.81c-.87-1.26-.69-2.53-1.48-3.84-1.69-2.78-3.39-3.38-6.23-4.46s-4.07-3.85-7-3.7a13.46,13.46,0,0,1-9-2.72c-1.43-1.07-1.86-1.87-3.68-2.44a14.94,14.94,0,0,1-4.19-1.7c-3.12-2.18-1.93-4.23-2.26-7.33s-4.25-4.57-5.21-7.71-2.47-5.86-3.42-9.07c-.41-1.39-1.64-3.49-2.57-1.11-.63,1.57,1,3.37,1.57,4.66a26.25,26.25,0,0,1,1.47,6c.33,1.55,1,2.83.56,4.4-1.08-.25-2.5-2.33-3.24-3.15-1.28-1.43-1-2.4-1.74-4s-1.45-2.08-1.62-3.87a5.9,5.9,0,0,0-.22-2c-.32-.63-1.16-.91-1.44-1.47-1.49-3.05,1.11-5.58-1.66-8.45-2.14-2.21-2.75-4-3.5-7-.7-2.9,1.48-5.94,2.95-8.47.95-1.64,1.15-2.82,2.63-4,1.25-1,2.47-1.4,3.23-3s1.06-3.28,1.84-4.84c1.18-2.38,1.89-.66,3.73-1.6,3.08-1.59-2.09-5.44-2.9-7-1.18-2.29.14-5.68-.56-8.48-.63-2.53-1.09-5.88-3-7.89a11.55,11.55,0,0,0-7.51-3.17c-3.1,0-5.54,2.84-8.46,2.37a3.2,3.2,0,0,1,1.07-2.34c-1.53-.27-4.71,1.73-6.07,2.41-2,1-3.34,2.75-5.35,3.6s-4.55,1.1-6.64,2.2c-1.8,1-4.28,4-6.42,3.16-.29-2.16,3.3-2,4.58-2.69s4.39-2.93,4.21-4.44a15.8,15.8,0,0,1-2.71-.43c-.07-1.1,1.15-2.45.15-3.31-1.33,1.52-4.48.68-2.57-1.27a11.69,11.69,0,0,1,5.71-3.13,20.54,20.54,0,0,0,2.95-.14,27.15,27.15,0,0,0,2.59-1.29c1.77-.76,3.81-.35,5.36-1.33a3.93,3.93,0,0,0-4.07-1.53c-1,.14-4,.71-2-1.21s6.47.07,8.63-1.37c1.68-1.12-.58-2,0-3.47s3.55-2.33,4.94-2.62a35.15,35.15,0,0,1,10.14-.14,54,54,0,0,0,10.09-.18c2.06-.2,4,.35,6,.19,1.75-.15,3.15-.82,4.93-.36,3.45.88,7.12.55,10.74,1.09a21,21,0,0,0,5.3.6c2-.19,4-.5,6.08-.6s4.38-.16,6.09.93,2.45,2.09,4.79,2.21c3.69.18,7.33-.74,10.92-.38,1.67.17,3.06,1.27,4.56,1.49s3.14-.42,4.62-.79c3.09-.77,5.46.71,8.1-1.2,2.22-1.6,2.47-6.19,6.27-4.62a1.75,1.75,0,0,0-.69,2.33c1.18-.09,2.5.17,2.2,1.66.5,0,.83.35,1.24.44-.76,2.06.74,2.3,2.24,1.62,1-.45,7.31-6,5.76-1.8-1.26,3.37-4.46,1.81-6.86,2.72a37.79,37.79,0,0,0-7.94,4.58,17.17,17.17,0,0,1-4.24,2.62,51.94,51.94,0,0,0-5.12,1.69c-2.14,1-7.34,2.11-7,4.94.08.74.7,1.14.75,2,0,.74-.64,1.17-.56,2,.2,1.93,1.66,1.56,3.32,1.66,2.68.15,5.47,1.71,7.78,3.08,2.08,1.23,1.46,1.2.93,3.37-.3,1.23-.55,3.25,0,4.4,1.21-.78,2.5-1.7,3.64-2.52,1.7-1.2,2-2.3,3.1-3.92s2.82-2.06,4.11-3.31a5.17,5.17,0,0,0,1.66-2.21c.17-.74-.46-1.48-.19-2.22.36-1,2.31-2.13,3.09-3.13s1.84-3.63,2.8-4.06c2-.93,5.78,1.16,7.21,2.59,1,1,.63,2.57,1.65,3.51s3.14.2,4.24-.41c4.72-2.62,3.54,2.17,4.06,5.38s4.49,3.86,4.79,7c.32,3.45-3.23,3.08-5.72,4.38a18.51,18.51,0,0,1-4.24,2.08,18.24,18.24,0,0,1-4.61,0c-1.78-.06-8.66-1.13-7.9,2.37,1.56.07,6.25-.93,7,.76.43,1-.93,2.39-1.12,3.32-.39,1.95.38,1.75,1.48,2.63,3,2.43-1,2.41-3.18,3-2.58.74-4.1.53-3.49-2.51a19.12,19.12,0,0,0-4.38,2.15,24.53,24.53,0,0,0-4,3.36,28.54,28.54,0,0,1-4.78,3.36c-3.62,2.39-7.21,5.2-9.08,9a15.43,15.43,0,0,1-4.48,5.16,45.81,45.81,0,0,0-5.16,5.17c-1.48,1.55-2.66,2.36-2.9,4.61-.2,1.82.56,3.38.22,5.2-.81,4.41-5.1,4.45-5.57,0-.33-3.08,1-6.81-3.14-7.38-1.67-.23-3,.29-4.61.6a6.42,6.42,0,0,0-3.81,1.84c-2.5,2-4.67-.7-7.44.09-2,.58-6.07,3.14-7,4.85a36,36,0,0,0-1.51,4.61,13.32,13.32,0,0,0-1.07,4.61,25.6,25.6,0,0,0,.78,4.79c.24,1.27,0,3.71,1.05,4.62,2,1.68,7.34.35,9.05-1.3v-.37c.69-2.59.5-4.24,3.5-4.61,1.78-.22,4.89-1.3,4.29,1.71a17.66,17.66,0,0,1-1.34,2.53,25.8,25.8,0,0,1-1.05,2.77c-.9,1.51-3.12,3.06-2.79,5.13,2.14.67,5.91-.46,7.7.77s.9,5.42.79,7.56,1.2,5,3.45,5.76c2,.67,5.68-2.44,6.65.69l1.11,1.29c.4-.62,1.07-.85,1.51-1.42.64-.82.55-1.47.88-2.45a4,4,0,0,1,2.59-2.63c2.21-.94,4.7-1.37,6.78-2.52.16,1.38-1.47,1.45-1.22,3.09,1.13.47.83,1.77.73,2.77,1.51.31,1.07-2,2-3,1.27-1.33,2.19-.78,3.74,0,1.06.52,2.35,1.6,3.49,1.9,1.42.37,3.11-.18,4.44-.38a6.09,6.09,0,0,1,4,.41c1.24.71,1.55,1.93,2.57,2.91.85.83,2.06,1.34,3,2.17,1.2,1.06,1.3,1.89,2.07,3.18,1.34,2.23,5.29,1.14,7.7,2.07,2.79,1.07,3.57,4,4.93,6.42a31.43,31.43,0,0,1,1.33,3.68,9.46,9.46,0,0,0,3.15,2.91c2.62,1.55,5.57.21,8.1,2.43s5.19,2.37,8.3,3.14,4.77,2.11,6.87,4.42c1.33,1.47,1.8,1.56,1.8,3.68,0,1.6.27,3.28-.59,4.62s-2.19,2.15-3,3.36c-1,1.43-1.06,2.85-1.71,4.39a18.43,18.43,0,0,0-1.84,8.84,26.52,26.52,0,0,1,.18,4.8c-.29,1.86-1.27,2.26-2.53,3.55-1,1-1.26,2.69-2.26,3.64-1.21,1.14-2.93.53-4.43.73-2.41.33-5.61,2.95-6.28,5.35-.42,1.52.56,3,.38,4.42a10.61,10.61,0,0,1-1.88,4.21c-.47.57-1.2.76-1.66,1.33a4.55,4.55,0,0,0-1.06,2.39,27.22,27.22,0,0,1-1.67,4.43c-.76,1.72-.86,2.47-2.95,2.4-1.58-.06-3.12-.46-4.79-.37-5.16.26,2.69,4,.92,7-.92,1.6-3.58,1.17-5,2.16s-1.4,2.52-2.93,3.19c-.88.39-1.73-.23-2.23.91a4,4,0,0,0,.42,2.54c1,1.94,2.07,1.88,1.06,4.28l.56,1.11c-.58.85-1.9.87-2.45,1.61-2,2.83,4.32,2.83,5.05,4.28,1.31,2.63-3.37,4.42-1.73,7.44a14.61,14.61,0,0,0,6,6c1,.58,3.45,1.55,1.84,2.8-.87.69-3.66,0-4.79,0h.37c-1.19-1-2.45-.71-3.46-2.43-1.26-2.14-.79-1.86-3-1.8-3.55.08-4.91-4.6-6.22-7.43a90.11,90.11,0,0,1-4-11.24c-1.16-3.69-4.13-5.15-5-8.67a42,42,0,0,1-1.48-12.68c.22-5.16-1.33-9.73-1.1-14.94a107.89,107.89,0,0,0,.18-13.45c-.25-3.1-3.1-7.39-5.72-9.22-2.06-1.43-4.92-2.44-6.68-4.37-2-2.19-2.36-6-3.69-8.57-.95-1.87-2.08-2.39-3.43-3.88-1-1.08-1.61-3-2.25-4.19-.51-1-1.94-2.71-1.61-3.84.4-1.41,1.79-1.38,1.81-3.17,0-2.22-.62-3.13.21-5.34s.37-3.34,2.89-4.09c.21-.58,0-.53-.34-.71Z"/>
        <path class="cls-60" d="M434.09,184.26c-1.94-.72-.43-2.31.78-2.67a14.6,14.6,0,0,1,3.86-.12c1.32,0,2.67-.33,3.87.19s2.1,1.68,3.25,2.29,7,2.87,5.3,4.83c-.62.71-2.87.22-3.75.27-1.89.11-2.21.75-2.63-1.24-.49-2.29-1.86-2.57-4-3.36a16.83,16.83,0,0,0-2.31-1.13c-1.21-.12-1.75,1-2.95.78Z"/>
        <path class="cls-60" d="M453,192.92c-.43-.11-1.51-.57-1.52-1.12,0-.91.75-.53,1.36-.74,2.08-.68,1.26-.88,1.51-2.75.1-.72-.54-.47.5-.8.73-.24,1.27.17,1.86.42,1.32.57,6,1.46,5.87,3.29-.13,1.47-2,.71-3.09.93-.81.15-.85.41-1.43.73A12.73,12.73,0,0,1,453,192.92Z"/>
      </g>
    </g>
    <circle class="cls-3" cx="449.68" cy="216.07" r="4.04"/>
    <circle class="cls-3" cx="555.23" cy="203.15" r="4.04"/>
    <circle class="cls-3" cx="401.5" cy="177.95" r="5.69"/>
    <circle class="cls-3" cx="448.1" cy="154.47" r="4.04"/>
    <circle class="cls-3" cx="437.21" cy="146.94" r="4.04"/>
    <circle class="cls-3" cx="586.75" cy="134.65" r="4.04"/>
    <circle class="cls-3" cx="721.77" cy="168.29" r="4.04"/>
    <circle class="cls-3" cx="670.77" cy="118.27" r="4.04"/>
    <circle class="cls-3" cx="635.92" cy="131.45" r="4.04"/>
    <circle class="cls-3" cx="393.53" cy="150.97" r="4.04"/>
    <circle class="cls-3" cx="591.75" cy="143.01" r="4.04"/>
    <circle class="cls-3" cx="732.69" cy="202.17" r="4.04"/>
    <circle class="cls-3" cx="406.35" cy="155.01" r="4.04"/>
    <circle class="cls-3" cx="407.81" cy="192.3" r="4.04"/>
    <circle class="cls-3" cx="430.27" cy="160.84" r="6.38"/>
    <circle class="cls-3" cx="577.67" cy="142.61" r="6.38"/>
    <circle class="cls-3" cx="707.82" cy="160.89" r="6.38"/>
    <circle class="cls-3" cx="718" cy="185.95" r="6.38"/>
    <circle class="cls-3" cx="451.58" cy="124.05" r="6.38"/>
    <circle class="cls-3" cx="452.6" cy="255.81" r="4.04"/>
    <circle class="cls-3" cx="810.42" cy="292.63" r="4.04"/>
    <circle class="cls-3" cx="617.46" cy="126.02" r="4.04"/>
    <circle class="cls-3" cx="605.04" cy="101.77" r="4.04"/>
    <circle class="cls-3" cx="707.82" cy="176.94" r="4.04"/>
    <circle class="cls-3" cx="691.5" cy="192.3" r="4.04"/>
    <circle class="cls-3" cx="598.15" cy="222.69" r="6.12"/>
    <circle class="cls-3" cx="825.6" cy="291.92" r="6.12"/>
    <circle class="cls-3" cx="584.05" cy="210.76" r="6.12"/>
    <circle class="cls-3" cx="691.5" cy="178.83" r="6.12"/>
    <circle class="cls-3" cx="647.6" cy="127.21" r="6.12"/>
    <circle class="cls-3" cx="455.4" cy="140.44" r="9.18"/>
    <circle class="cls-3" cx="741.88" cy="181.37" r="9.18"/>
    <circle class="cls-3" cx="600.93" cy="124.05" r="9.18"/>
    <circle class="cls-3" cx="435.71" cy="131.95" r="5.94"/>
    <circle class="cls-3" cx="446.53" cy="222.36" r="3.15"/>
    <circle class="cls-3" cx="584.9" cy="108.31" r="3.15"/>
    <circle class="cls-3" cx="384.09" cy="153.06" r="4.72"/>
    <circle class="cls-3" cx="389.49" cy="166.37" r="2.8"/>
    <circle class="cls-3" cx="446.53" cy="257.51" r="3.15"/>
    <circle class="cls-3" cx="440.23" cy="241.62" r="3.15"/>
    <circle class="cls-3" cx="446.53" cy="253.81" r="3.15"/>
    <circle class="cls-3" cx="438.96" cy="233.74" r="3.15"/>
    <circle class="cls-3" cx="453.25" cy="223.84" r="2.69"/>
    <circle class="cls-3" cx="559.27" cy="190.12" r="2.69"/>
    <circle class="cls-3" cx="398.59" cy="166.37" r="2.69"/>
    <circle class="cls-3" cx="417.41" cy="146.94" r="2.69"/>
    <circle class="cls-3" cx="432.62" cy="203.72" r="2.69"/>
    <circle class="cls-3" cx="446.53" cy="233.61" r="2.69"/>
    <circle class="cls-3" cx="509.36" cy="241.62" r="2.69"/>
    <circle class="cls-3" cx="739.45" cy="167.27" r="2.69"/>
    <circle class="cls-3" cx="697.62" cy="134.32" r="2.69"/>
    <circle class="cls-3" cx="470.34" cy="128.71" r="2.69"/>
    <circle class="cls-3" cx="584.9" cy="117.67" r="2.69"/>
    <circle class="cls-3" cx="613.42" cy="106.2" r="2.69"/>
    <circle class="cls-3" cx="725.8" cy="175.95" r="2.69"/>
    <circle class="cls-3" cx="451.58" cy="230.46" r="1.02"/>
    <circle class="cls-3" cx="445.5" cy="248.13" r="1.02"/>
    <circle class="cls-3" cx="461.59" cy="291.33" r="1.02"/>
    <circle class="cls-3" cx="444.74" cy="235.53" r="1.79"/>
    <circle class="cls-3" cx="563.45" cy="202.17" r="1.79"/>
    <circle class="cls-3" cx="457.08" cy="265.13" r="2.69"/>
    <circle class="cls-3" cx="459.76" cy="276.02" r="2.69"/>
    <circle class="cls-3" cx="500.4" cy="257.51" r="2.69"/>
    <circle class="cls-3" cx="617.46" cy="147.04" r="2.69"/>
    <circle class="cls-3" cx="605.04" cy="138.12" r="2.69"/>
    <circle class="cls-3" cx="635.92" cy="117.67" r="2.69"/>
    <circle class="cls-3" cx="679.89" cy="183.64" r="2.69"/>
    <circle class="cls-3" cx="691.5" cy="127.69" r="2.69"/>
    <circle class="cls-3" cx="468.51" cy="283.12" r="3.92"/>
    <circle class="cls-3" cx="508.99" cy="254.36" r="3.92"/>
    <circle class="cls-3" cx="567.36" cy="212.75" r="3.92"/>
    <circle class="cls-3" cx="674.69" cy="198.25" r="3.92"/>
    <circle class="cls-3" cx="638.61" cy="251.78" r="3.92"/>
    <circle class="cls-3" cx="657.63" cy="226.52" r="3.92"/>
    <circle class="cls-3" cx="462.45" cy="307.19" r="3.92"/>
    <circle class="cls-3" cx="459.97" cy="288.69" r="4.63"/>
    <circle class="cls-3" cx="567.36" cy="174.98" r="4.63"/>
    <circle class="cls-3" cx="459.17" cy="299.36" r="2.41"/>
    <circle class="cls-3" cx="455.29" cy="267.05" r="1.79"/>
    <circle class="cls-3" cx="612.95" cy="140.44" r="1.79"/>
    <circle class="cls-3" cx="511.15" cy="275.67" r="1.79"/>
    <circle class="cls-3" cx="577.67" cy="120.35" r="1.79"/>
    <circle class="cls-3" cx="610.12" cy="133.23" r="1.79"/>
    <circle class="cls-3" cx="407.81" cy="137.89" r="1.79"/>
    <circle class="cls-3" cx="450.56" cy="262.45" r="1.79"/>
    <circle class="cls-3" cx="417.13" cy="159.04" r="1.79"/>
    <circle class="cls-3" cx="420.1" cy="153.06" r="1.79"/>
    <circle class="cls-3" cx="596.07" cy="136.1" r="1.79"/>
    <circle class="cls-3" cx="440.23" cy="248.13" r="1.79"/>
    <circle class="cls-3" cx="427.4" cy="206.41" r="1.79"/>
    <circle class="cls-3" cx="464.59" cy="295.15" r="1.79"/>
    <circle class="cls-3" cx="443.33" cy="228.7" r="2.17"/>
    <circle class="cls-3" cx="423.88" cy="198.86" r="2.17"/>
    <circle class="cls-3" cx="438.06" cy="214.92" r="2.17"/>
    <circle class="cls-3" cx="432.11" cy="208.59" r="2.17"/>
    <circle class="cls-3" cx="415.88" cy="198.25" r="2.17"/>
    <circle class="cls-3" cx="394.98" cy="137.74" r="4.86"/>
    <circle class="cls-3" cx="415.89" cy="191.64" r="1.52"/>
    <circle class="cls-3" cx="422.74" cy="191.26" r="2.55"/>
  </g>
</svg>
