<svg id="Layer_1" data-name="Layer 1" xmlns="http://www.w3.org/2000/svg" width="464.74" height="502.5" viewBox="0 0 464.74 502.5">
  <defs>
    <style>
      .cls-1 {
        fill: #50bfb4;
      }

      .cls-2 {
        fill: #fff;
      }

      .cls-3 {
        fill: #c8e6ff;
      }

      .cls-4 {
        fill: #a06b64;
      }

      .cls-5 {
        fill: #221f1f;
      }

      .cls-6 {
        fill: #773834;
      }

      .cls-7 {
        fill: #81b3ff;
      }

      .cls-8 {
        fill: #6d6e70;
      }

      .cls-9 {
        fill: #c3e0ff;
      }

      .cls-10, .cls-13 {
        fill: #2a54ba;
      }

      .cls-11 {
        fill: #33a2a6;
      }

      .cls-12 {
        fill: #1b3d7a;
      }

      .cls-12, .cls-13, .cls-14, .cls-15, .cls-17, .cls-18, .cls-20, .cls-21, .cls-22 {
        fill-rule: evenodd;
      }

      .cls-14, .cls-19 {
        fill: #eff6ff;
      }

      .cls-15 {
        fill: #7e707d;
      }

      .cls-16, .cls-21 {
        fill: #a1d4ff;
      }

      .cls-17 {
        fill: #d9eeff;
      }

      .cls-18 {
        fill: #6a5c69;
      }

      .cls-20 {
        fill: #e0dfe1;
      }

      .cls-22, .cls-24 {
        fill: #86beec;
      }

      .cls-23 {
        fill: #333;
      }
    </style>
  </defs>
  <g>
    <path class="cls-1" d="M231.26,405.72c-93.7,0-169.93-76.23-169.93-169.93S137.56,65.85,231.26,65.85,401.2,142.08,401.2,235.79,325,405.72,231.26,405.72Zm0-336.87c-92,0-166.93,74.89-166.93,166.94s74.89,166.93,166.93,166.93S398.2,327.84,398.2,235.79,323.31,68.85,231.26,68.85Z"/>
    <g>
      <circle class="cls-2" cx="357.06" cy="106.93" r="45.18"/>
      <path class="cls-1" d="M357.06,153.6a46.68,46.68,0,1,1,46.67-46.67A46.73,46.73,0,0,1,357.06,153.6Zm0-90.35a43.68,43.68,0,1,0,43.67,43.68A43.73,43.73,0,0,0,357.06,63.25Z"/>
    </g>
    <g>
      <circle class="cls-2" cx="106.94" cy="106.93" r="45.18"/>
      <path class="cls-1" d="M106.94,153.6a46.68,46.68,0,1,1,46.68-46.67A46.72,46.72,0,0,1,106.94,153.6Zm0-90.35a43.68,43.68,0,1,0,43.68,43.68A43.72,43.72,0,0,0,106.94,63.25Z"/>
    </g>
    <g>
      <circle class="cls-2" cx="357.06" cy="348.73" r="45.18"/>
      <path class="cls-1" d="M357.06,395.4a46.68,46.68,0,1,1,46.67-46.67A46.73,46.73,0,0,1,357.06,395.4Zm0-90.35a43.68,43.68,0,1,0,43.67,43.68A43.73,43.73,0,0,0,357.06,305.05Z"/>
    </g>
    <g>
      <circle class="cls-2" cx="106.94" cy="348.73" r="45.18"/>
      <path class="cls-1" d="M106.94,395.4a46.68,46.68,0,1,1,46.68-46.67A46.72,46.72,0,0,1,106.94,395.4Zm0-90.35a43.68,43.68,0,1,0,43.68,43.68A43.72,43.72,0,0,0,106.94,305.05Z"/>
    </g>
    <g>
      <path class="cls-2" d="M218.2,109l-5.55,3.34s18.87,31.08,20.26,30.81,19.43-30.26,19.43-30.26L245.13,109Z"/>
      <path d="M201.27,459.72c-19.15,20-35.18,12.49-34.77,24.78h63.91a100.27,100.27,0,0,0-5.2-25.82Z"/>
      <path d="M274.33,459.72c19.15,20,28.32,12.49,27.91,24.78H245.19a100.27,100.27,0,0,1,5.2-25.82Z"/>
      <path d="M294.53,279.64s-2.7,3.34-4.58,12.5a108.9,108.9,0,0,0-2.08,13.94c-.41,3.13,2.5,4,3.75,1l3.75-8.74a67.3,67.3,0,0,1,1.25,10c0,3.75-.84,4.58-.84,4.58s-3.54,3.75-3.12,6.67c0,0-2.29,2.29-.83,4.58,0,0,6.66-3.34,8.74-4.58s5-7.92,6.45-12.08,3.34-11.45-.41-29.14l3.19-14.65H292.07Z"/>
      <path d="M157.9,277.15s.62,2.29.41,10.61,0,15.62,1.25,20,4.17,9.78,6.87,12.07,9.79,6,9.79,6,1.66-2.5-1.25-6c0,0,1.46-2.08-1.88-5.2s-2.7-7.29-.62-14.57a34.62,34.62,0,0,1,1.67,7.07c.2,2.92,3.53,4.79,4.16.21s2.5-11.45-1.87-21.65a45,45,0,0,1-3.37-11.81l.94-9.12H155.65Z"/>
      <path class="cls-3" d="M296.75,150.36c17.07,46.1,18,77.77,11.08,113.32l-14.69.07s-12.48-65.09-15.82-80.22-4.16-19.26-4.16-19.26Z"/>
      <path class="cls-3" d="M165.53,151.34c-10.83,40.49-23,90.5-7.63,113.41H174s5.69-41,7.91-55.12,7.77-41.46,7.77-41.46Z"/>
      <path class="cls-3" d="M205.85,65.22c-8.12-22.28,2.08-38.52,26.65-39.77s42.05,17.08,29.56,40.39S205.85,65.22,205.85,65.22Z"/>
      <path class="cls-4" d="M219,92.91s.84,8.74-4,15.61c0,0,14,17.49,36.22,2.5,0,0-5.62-5-5.2-18.53Z"/>
      <path class="cls-4" d="M233.54,102.48c12.49.63,25.19-13.11,25-41-7.29-25.19-37.06-26.44-49.34-5.83C207.1,93.53,221.05,101.86,233.54,102.48Z"/>
      <path class="cls-4" d="M209.6,63.14c-6.67-13.33-11.87,11.86,1.45,13.94"/>
      <path class="cls-4" d="M257.48,65.22c9.16-11.87,10.41,11.66-1.88,14.15Z"/>
      <path class="cls-5" d="M233.74,67.37a.6.6,0,0,1-.59-.59V61.16a.59.59,0,0,1,.59-.59.58.58,0,0,1,.59.59v5.62A.59.59,0,0,1,233.74,67.37Z"/>
      <path class="cls-3" d="M209,67.72c23.53-2.92,27.06-2.5,49.55,1.45-1.88,32.06-17.7,35-27.07,34.14S209.6,96,209,67.72Z"/>
      <path class="cls-3" d="M194.81,213s-8.53,21.44-11,61.83S182.32,412.67,194.4,461h36.22s3.4-80.36,5.48-112.83c0,0,4.1,76.19,7.43,112.41h34.56c7.49-54.12,12.28-157,6.87-194S272.47,213,272.47,213l-37.89-5.21Z"/>
      <path class="cls-5" d="M223.34,62.86a1.18,1.18,0,0,1-1.18-1.18V60.5a1.18,1.18,0,0,1,2.36,0v1.18A1.18,1.18,0,0,1,223.34,62.86Z"/>
      <path class="cls-5" d="M244.57,62.86a1.18,1.18,0,0,1-1.18-1.18V60.5a1.18,1.18,0,0,1,2.36,0v1.18A1.18,1.18,0,0,1,244.57,62.86Z"/>
      <path class="cls-5" d="M215.84,55a.58.58,0,0,1-.39-.15.59.59,0,0,1,0-.83,13.78,13.78,0,0,1,13.93-3.3.6.6,0,0,1,.4.74.58.58,0,0,1-.73.39,12.58,12.58,0,0,0-12.72,3A.59.59,0,0,1,215.84,55Z"/>
      <path class="cls-5" d="M250.81,54.15a.54.54,0,0,1-.34-.12,12.59,12.59,0,0,0-11.31-2,.6.6,0,0,1-.76-.34.58.58,0,0,1,.34-.76,13.58,13.58,0,0,1,12.43,2.15.6.6,0,0,1,.12.83A.58.58,0,0,1,250.81,54.15Z"/>
      <path class="cls-6" d="M207.72,72.26a.66.66,0,0,1-.27-.06c-2.54-1.31-3.17-5-2.81-7.25.2-1.21.69-1.93,1.38-2,1.08-.17,1.79,1.26,2,1.73a.59.59,0,1,1-1,.53c-.5-1-.81-1.09-.82-1.09a3.65,3.65,0,0,0-.44,2.15c0,1.74.61,4.07,2.26,4.92a.58.58,0,0,1,.26.79A.6.6,0,0,1,207.72,72.26Z"/>
      <path class="cls-6" d="M258.83,73.93a.61.61,0,0,1-.43-.19.59.59,0,0,1,0-.83c2.05-2,2.87-4.93,2.52-6.13-.05-.19-.12-.27-.14-.27s-.59.14-1.42,1.16a.6.6,0,0,1-.83.09.59.59,0,0,1-.08-.83c1-1.21,1.81-1.73,2.56-1.58a1.4,1.4,0,0,1,1,1.11c.49,1.71-.56,5.14-2.85,7.31A.64.64,0,0,1,258.83,73.93Z"/>
      <path class="cls-7" d="M220.94,74.86h0l-11-.21a.58.58,0,0,1-.58-.6.6.6,0,0,1,.6-.57l11,.2a.59.59,0,0,1,.58.6A.58.58,0,0,1,220.94,74.86Z"/>
      <path class="cls-7" d="M218.44,83.61a.51.51,0,0,1-.17,0,28.43,28.43,0,0,1-8.2-3.84.59.59,0,1,1,.72-.94,27.19,27.19,0,0,0,7.83,3.65.59.59,0,0,1-.18,1.16Z"/>
      <path class="cls-7" d="M245.51,75.9a.59.59,0,0,1-.59-.57.6.6,0,0,1,.57-.61,115.88,115.88,0,0,0,11.59-1,.59.59,0,1,1,.17,1.17c-5.48.82-11.66,1-11.72,1Z"/>
      <path class="cls-7" d="M247.8,83.71a.59.59,0,0,1-.08-1.17,26.77,26.77,0,0,0,9-3.46.59.59,0,0,1,.62,1,27.55,27.55,0,0,1-9.49,3.62Z"/>
      <path class="cls-7" d="M218.44,92.77a.48.48,0,0,1-.26-.07c-4.27-2.13-7-6.69-7.11-6.88a.59.59,0,1,1,1-.61c0,.05,2.67,4.46,6.63,6.44a.59.59,0,0,1-.27,1.12Z"/>
      <path class="cls-7" d="M247.48,92a.59.59,0,0,1-.56-.43.59.59,0,0,1,.4-.73,19.86,19.86,0,0,0,8.16-5.76.59.59,0,0,1,.83-.05.61.61,0,0,1,.05.84,20.66,20.66,0,0,1-8.71,6.1A.51.51,0,0,1,247.48,92Z"/>
      <path class="cls-7" d="M272.47,213.62H194.81a.6.6,0,0,1-.59-.59.59.59,0,0,1,.59-.59h77.66a.59.59,0,0,1,.59.59A.6.6,0,0,1,272.47,213.62Z"/>
      <path class="cls-7" d="M273.72,217.36h-80a.59.59,0,0,1-.59-.59.6.6,0,0,1,.59-.59h80a.6.6,0,0,1,.59.59A.59.59,0,0,1,273.72,217.36Z"/>
      <path class="cls-7" d="M236.1,348.73a.6.6,0,0,1-.59-.59c-.34-32.93.34-85.26.35-85.78a.61.61,0,0,1,.6-.58.58.58,0,0,1,.58.59c0,.53-.69,52.84-.35,85.76a.58.58,0,0,1-.58.6Z"/>
      <path class="cls-7" d="M230.41,457h-37a.58.58,0,0,1-.59-.59.59.59,0,0,1,.59-.59h37a.59.59,0,0,1,.59.59A.58.58,0,0,1,230.41,457Z"/>
      <path class="cls-7" d="M278.71,456.56h-35.6a.59.59,0,1,1,0-1.17h35.6a.59.59,0,1,1,0,1.17Z"/>
      <path class="cls-8" d="M173.79,321.77a.55.55,0,0,1-.32-.1c-.25-.16-6.18-4-7.49-6.47s-2.71-5.61-2.72-5.65a.59.59,0,1,1,1.07-.48s1.47,3.24,2.69,5.59c.9,1.71,4.78,4.5,6.66,5.74l.84-1a.6.6,0,0,1,.84-.06.59.59,0,0,1,0,.83l-1.18,1.35A.56.56,0,0,1,173.79,321.77Z"/>
      <path class="cls-8" d="M172.47,300.64a.56.56,0,0,1-.48-.26l-2.33-3.33a.59.59,0,0,1,.15-.82.59.59,0,0,1,.82.15l2.32,3.33a.59.59,0,0,1-.14.82A.62.62,0,0,1,172.47,300.64Z"/>
      <path class="cls-8" d="M293,321.45a.52.52,0,0,1-.21,0,.6.6,0,0,1-.36-.4l-.31-1.25a.59.59,0,1,1,1.14-.29l.11.45c1.37-.88,4.36-2.84,5.53-3.69,1-.75,2.7-5.57,3.53-8.44a.59.59,0,0,1,1.13.33c-.37,1.3-2.32,7.85-4,9.06s-6.09,4.06-6.28,4.18A.59.59,0,0,1,293,321.45Z"/>
      <path class="cls-7" d="M209.18,56.23a.62.62,0,0,1-.32-.09,7.4,7.4,0,0,1-3.28-4.67.59.59,0,1,1,1.16-.19,6.31,6.31,0,0,0,2.76,3.86.61.61,0,0,1,.18.82A.62.62,0,0,1,209.18,56.23Z"/>
      <path class="cls-7" d="M258.52,62.06a.59.59,0,0,1-.14-1.16,6.78,6.78,0,0,0,3.41-2.39.59.59,0,0,1,.95.71A7.79,7.79,0,0,1,258.65,62Z"/>
      <path class="cls-7" d="M256.33,55.5a.59.59,0,0,1-.48-.25.58.58,0,0,1,.15-.82,21.68,21.68,0,0,0,3.83-3.64.59.59,0,0,1,.91.75,22.13,22.13,0,0,1-4.07,3.86A.61.61,0,0,1,256.33,55.5Z"/>
      <path class="cls-7" d="M254.15,52.07a.58.58,0,0,1-.42-.18.59.59,0,0,1,0-.83l2.71-2.71a.59.59,0,0,1,.83,0,.6.6,0,0,1,0,.84l-2.71,2.7A.55.55,0,0,1,254.15,52.07Z"/>
      <path class="cls-7" d="M217.3,46.65a.54.54,0,0,1-.32-.09,7.68,7.68,0,0,1-3.29-5.66.59.59,0,0,1,.55-.63.6.6,0,0,1,.63.55,6.61,6.61,0,0,0,2.74,4.75.58.58,0,0,1-.31,1.08Z"/>
      <path class="cls-7" d="M220.53,44.78a.57.57,0,0,1-.46-.22,8.12,8.12,0,0,1-1.38-3.29.59.59,0,0,1,1.17-.2A7,7,0,0,0,221,43.82a.59.59,0,0,1-.08.83A.58.58,0,0,1,220.53,44.78Z"/>
      <path class="cls-7" d="M241.45,42.59a.6.6,0,0,1-.36-.12.58.58,0,0,1-.11-.82,23.07,23.07,0,0,0,2.32-4.45.59.59,0,1,1,1.09.45,22.1,22.1,0,0,1-2.48,4.71A.55.55,0,0,1,241.45,42.59Z"/>
      <path class="cls-9" d="M209.91,70.22a.59.59,0,0,1-.59-.52l-1-8.3a.59.59,0,0,1,.52-.65.57.57,0,0,1,.65.51l1,8.3a.58.58,0,0,1-.51.65Z"/>
      <path class="cls-9" d="M257.71,71.74h-.07a.59.59,0,0,1-.51-.66l.83-7.21a.59.59,0,0,1,1.17.13l-.83,7.22A.59.59,0,0,1,257.71,71.74Z"/>
      <g>
        <path class="cls-7" d="M162.06,264.54a.59.59,0,0,1-.51-.29,33.93,33.93,0,0,1-2.77-7,.6.6,0,0,1,.42-.72.59.59,0,0,1,.72.42,33.61,33.61,0,0,0,2.65,6.73.58.58,0,0,1-.51.88Z"/>
        <path class="cls-7" d="M167.06,264.75a.59.59,0,0,1-.58-.47l-1-5a.59.59,0,0,1,.46-.7.58.58,0,0,1,.69.46l1,5a.59.59,0,0,1-.45.7Z"/>
      </g>
      <g>
        <path class="cls-7" d="M303.4,264.34a.6.6,0,0,0,.51-.3,34.16,34.16,0,0,0,2.77-7,.59.59,0,0,0-1.15-.3,33.54,33.54,0,0,1-2.64,6.72.59.59,0,0,0,.22.81A.6.6,0,0,0,303.4,264.34Z"/>
        <path class="cls-7" d="M298.4,264.54a.59.59,0,0,0,.58-.46l1-5a.59.59,0,0,0-.46-.7.58.58,0,0,0-.69.46l-1,5a.58.58,0,0,0,.45.7Z"/>
      </g>
      <path class="cls-5" d="M251.53,76.88a15.63,15.63,0,0,1-2.29-.18c-6.2-1-8.41-4.62-10.19-7.56-.21-.35-.42-.7-.63-1-1.28-2-2.87-3.15-4.47-3.16a4.6,4.6,0,0,0-3.7,2.34l-.16.25c-2.12,3.19-5,7.56-13.85,7.68A7.42,7.42,0,0,1,210.36,73c-2.67-2.93-3.33-8.62-2.21-19a.57.57,0,0,1,.3-.45c.21-.11,21.11-11.32,52.14,1.45a.59.59,0,0,1,.37.52c.44,10.51-.83,16.73-4,19.55A7.83,7.83,0,0,1,251.53,76.88Zm-17.62-13.1H234c2,0,3.95,1.34,5.45,3.71.21.33.42.68.64,1,1.74,2.87,3.7,6.14,9.36,7,3,.47,5.19,0,6.77-1.4,2.84-2.53,4-8.34,3.6-18.25-28.43-11.56-48-2.73-50.5-1.49-1,9.84-.45,15.17,1.94,17.8a6.22,6.22,0,0,0,5,1.86c8.21-.11,10.91-4.18,12.88-7.15l.17-.26A5.68,5.68,0,0,1,233.91,63.78Z"/>
      <path class="cls-10" d="M215.42,105.4s2.5,9.78,17.49,29.14c0,0,8.33-9.37,16.86-28.1,37.69,9,41.85,21.65,51,44.13l-21,21.65s15.6,182.51,6.23,194l-103.3-2.13s0-156.89,1.73-190.37l-25.19-21.23C177.33,114.76,186.49,112.47,215.42,105.4Z"/>
      <path class="cls-7" d="M184.41,174.27a.58.58,0,0,1-.59-.59,174.43,174.43,0,0,1,1.25-21.94.59.59,0,0,1,.67-.5.59.59,0,0,1,.5.66A173.18,173.18,0,0,0,185,173.68.59.59,0,0,1,184.41,174.27Z"/>
      <path class="cls-7" d="M279.75,172.81a.6.6,0,0,1-.59-.57A156.06,156.06,0,0,0,277.3,153a.59.59,0,1,1,1.16-.21,156.34,156.34,0,0,1,1.88,19.44.59.59,0,0,1-.57.61Z"/>
      <path class="cls-7" d="M232.7,139.09h0a.57.57,0,0,1-.42-.22c-14.68-17.78-19.63-32.73-19.68-32.88a.59.59,0,0,1,.38-.74.6.6,0,0,1,.75.38c0,.15,4.84,14.61,19.05,32,2.14-2.21,11.56-12.54,19-31a.59.59,0,0,1,1.09.44c-8.49,21.11-19.6,31.75-19.71,31.86A.62.62,0,0,1,232.7,139.09Z"/>
      <g>
        <path class="cls-10" d="M197.66,36.9s27.69-18.74,71,3.12L268,46.68C246.58,35,221.18,33.36,199.12,43.14Z"/>
        <path class="cls-11" d="M236,106.93a83.69,83.69,0,0,1-29.13-5.09.61.61,0,0,1-.36-.47l-8-58.15a.59.59,0,0,1,.51-.66.58.58,0,0,1,.66.5l7.93,57.81c3.05,1.18,28,10.2,54.57.28l5.24-54.53a.59.59,0,1,1,1.17.12l-5.27,54.89a.59.59,0,0,1-.38.49A75.7,75.7,0,0,1,236,106.93Z"/>
      </g>
    </g>
    <g>
      <path class="cls-12" d="M336.34,88c4.73-2.4,13-3.92,20.92-3.92s16.13,1.52,20.86,3.92a3,3,0,0,0,1.31-2.24c0-3.63-9.94-6.56-22.2-6.56S335,82.17,335,85.8A3,3,0,0,0,336.34,88Z"/>
      <path class="cls-13" d="M340,95.24V91.33a.67.67,0,0,1,.67-.66h1.65a16.61,16.61,0,0,1-6-2.63A3,3,0,0,1,335,85.8v6C335,93.13,336.9,94.32,340,95.24Z"/>
      <path class="cls-13" d="M374.43,95.24c3.13-.92,5-2.11,5-3.39v-6A3,3,0,0,1,378.12,88a16.61,16.61,0,0,1-6,2.63h1.65a.66.66,0,0,1,.66.66Z"/>
      <path class="cls-14" d="M373.25,126.35c3.09-1.57,3.35-2.58,3-6.16l-2.46-23.31H340.69l-2.46,23.31c-.37,3.6-.11,4.59,3,6.16a36.44,36.44,0,0,0,32,0Z"/>
      <path class="cls-15" d="M349.45,96.88h24.32a.66.66,0,0,0,.66-.66V91.33a.66.66,0,0,0-.66-.66H340.69a.67.67,0,0,0-.67.66v4.89a.67.67,0,0,0,.67.66Z"/>
      <path class="cls-16" d="M351.91,115.76a.73.73,0,0,1-.44-.15.77.77,0,0,1-.18-1.07l5.8-8a.77.77,0,1,1,1.24.9l-5.79,8a.77.77,0,0,1-.63.32Z"/>
      <path class="cls-16" d="M353.88,120.78a.85.85,0,0,1-.45-.14.78.78,0,0,1-.17-1.08l10.14-14a.77.77,0,0,1,1.07-.18.78.78,0,0,1,.17,1.08l-10.14,14a.77.77,0,0,1-.62.31Z"/>
      <path class="cls-17" d="M376.23,120.19l-2.46-23.31h-4.38l2.46,23.31c.37,3.58.11,4.59-3,6.16A34.59,34.59,0,0,1,355,130q1.09.06,2.19.06a35,35,0,0,0,16-3.71c3.09-1.57,3.35-2.58,3-6.16Z"/>
      <path class="cls-18" d="M373.77,96.88a.66.66,0,0,0,.66-.66V91.33a.66.66,0,0,0-.66-.66h-5.4a.66.66,0,0,1,.65.66v4.89a.67.67,0,0,1-.66.66Z"/>
      <path class="cls-19" d="M343.53,94.54h-.62a.77.77,0,1,1,0-1.53h.62a.77.77,0,0,1,0,1.53Z"/>
      <path class="cls-19" d="M371.55,94.54h-.62a.77.77,0,0,1,0-1.53h.62a.77.77,0,1,1,0,1.53Z"/>
    </g>
    <g>
      <path class="cls-20" d="M78.7,97.4c8.92-14.69,42.77-14.68,51.7,0,.73,3.56,1.67,3.16,1.67,5.66l4.79-1.5c-4.74-26.34-59.88-26.36-64.61,0l3.92,2.38c.36.22.22-4.72,2.53-6.54Z"/>
      <path class="cls-15" d="M70.82,102.6v5.09a1,1,0,0,0,1,1h3.71l3.6-3.11-3.63-4.06H71.86a1,1,0,0,0-1,1Z"/>
      <path class="cls-21" d="M78.7,97.4c-2.15.89-3.16,1.7-3.16,4v6.49c0,.29,0,.58,0,.86.44,8.85,7.64,14.56,15.72,14.48,6.46-.07,8.29-1.59,10.32-4.11a3.78,3.78,0,0,1,5.89,0c2,2.52,3.86,4,10.32,4.11,8.08.08,15.28-5.63,15.73-14.48,0-.28,0-.57,0-.86v-6.49c0-2.29-1-3.09-3.17-4h0c-.92-.38-2.06-.78-3.42-1.31-11.57-3.83-33.28-3.83-44.85,0-1.14.44-2.3.84-3.43,1.31Z"/>
      <path class="cls-14" d="M79.62,101.43v6.44c0,6.63,5.1,11.33,11.63,11.26,1.82,0,4.63-.07,6.09-1.37a9.7,9.7,0,0,0,1.09-1.22,7.87,7.87,0,0,1,12.25,0,9,9,0,0,0,1.1,1.22c1.45,1.3,4.26,1.35,6.08,1.37,6.53.07,11.63-4.63,11.63-11.26v-6.44c-.92-.48-3-1.19-3.87-1.51-10.77-3.52-31.36-3.52-42.12,0-.84.32-3,1-3.88,1.51Z"/>
      <path class="cls-15" d="M133.57,101.56l-1.32,3.59s1.31,3.3,1.3,3.58h3.71a1,1,0,0,0,1-1V102.6a1,1,0,0,0-1-1h-3.69Z"/>
      <path class="cls-17" d="M79.62,107.87c0,6.63,5.1,11.33,11.63,11.26,1.82,0,4.63-.07,6.09-1.37a9.7,9.7,0,0,0,1.09-1.22,7.87,7.87,0,0,1,12.25,0,9,9,0,0,0,1.1,1.22c1.45,1.3,4.26,1.35,6.08,1.37,6.53.07,11.63-4.63,11.63-11.26v-6.44c-.92-.48-3-1.19-3.87-1.51.31,7,1,14.46-7.76,14.37-7.25-.07-5.11-5.52-13.3-5.52s-6.06,5.45-13.31,5.52c-6.53.07-11.63-4.63-11.63-11.27Z"/>
      <path class="cls-22" d="M129.49,107.87a11.06,11.06,0,0,1-11.12,11.26,27.65,27.65,0,0,1-4.44,3.79,27.43,27.43,0,0,0,3.89.29c8.08.08,15.28-5.63,15.73-14.48,0-.28,0-.57,0-.86v-6.49c0-2.29-1-3.09-3.17-4h0c-.92-.38-2.06-.78-3.42-1.31a43.62,43.62,0,0,0-4.6-1.22,21.4,21.4,0,0,1,1.68,4.59c.54.15,1.06.3,1.56.46.83.32,2.95,1,3.87,1.51v6.44Z"/>
    </g>
    <g>
      <g>
        <g>
          <path class="cls-23" d="M383.81,378.09l-.63-19.81a1.37,1.37,0,0,1,.07-.45l1.22-3.48a21.69,21.69,0,0,0,1.2-7.1V327.09a2.51,2.51,0,0,0-2.37-2.52,2.46,2.46,0,0,0-2.56,2.46v-5.25a2.47,2.47,0,1,0-4.93,0v-1.22a2.47,2.47,0,1,0-4.93,0v2.66a2.47,2.47,0,1,0-4.94,0v11.09a2.86,2.86,0,0,0-5.71.08v11.39a4.88,4.88,0,0,0,1,2.94l6.72,9a1.23,1.23,0,0,1,.25.82l-1.25,19.55a1.24,1.24,0,0,0,1.23,1.31h14.42a1.23,1.23,0,0,0,1.23-1.27Z"/>
          <path d="M385.67,327.09v20.16a21.8,21.8,0,0,1-1.2,7.11l-1.22,3.47a1.33,1.33,0,0,0-.07.45l.63,19.81a1.23,1.23,0,0,1-1.23,1.27H380l-.67-21.08a1.33,1.33,0,0,1,.07-.45l1.21-3.47a21.55,21.55,0,0,0,1.21-7.11V327a2.45,2.45,0,0,0-.55-1.54,2.45,2.45,0,0,1,2-.92,2.5,2.5,0,0,1,2.44,2.52Z"/>
          <g>
            <path d="M370.88,323.22V335.6a.93.93,0,0,1-1.85,0V320.83a2.47,2.47,0,0,1,1.85,2.39Z"/>
            <path d="M375.81,320.56v15a.93.93,0,0,1-1.85,0V318.17a2.48,2.48,0,0,1,1.85,2.39Z"/>
            <path d="M380.74,321.78V335.6a.93.93,0,0,1-1.85,0V319.39a2.47,2.47,0,0,1,1.85,2.39Z"/>
          </g>
        </g>
        <path d="M365.94,334.31V346a.93.93,0,1,1-1.85,0V331.72a2.84,2.84,0,0,1,1.85,2.59Z"/>
      </g>
      <g>
        <g>
          <path class="cls-23" d="M333.14,378.09l.63-19.81a1.37,1.37,0,0,0-.07-.45l-1.22-3.48a21.43,21.43,0,0,1-1.2-7.1V327.09a2.51,2.51,0,0,1,2.37-2.52,2.46,2.46,0,0,1,2.56,2.46v-5.25a2.47,2.47,0,1,1,4.93,0v-1.22a2.47,2.47,0,1,1,4.93,0v2.66a2.47,2.47,0,1,1,4.94,0v11.09a2.86,2.86,0,0,1,5.71.08v11.39a4.88,4.88,0,0,1-1,2.94l-6.72,9a1.23,1.23,0,0,0-.25.82L350,378.05a1.22,1.22,0,0,1-1.23,1.31H334.37a1.23,1.23,0,0,1-1.23-1.27Z"/>
          <path d="M356.72,334.39v11.39a4.88,4.88,0,0,1-1,2.94l-6.72,9a1.23,1.23,0,0,0-.25.82L350,378.05a1.22,1.22,0,0,1-1.23,1.31h-3.24l-1.3-20.4a2.53,2.53,0,0,1,.49-1.64l6.46-8.6a5,5,0,0,0,1-2.94V334.39a2.8,2.8,0,0,0-.59-1.72,2.87,2.87,0,0,1,2.28-1.14,2.87,2.87,0,0,1,2.86,2.86Z"/>
          <g>
            <path d="M346.07,320.56v15a.93.93,0,0,1-1.85,0V318.17a2.48,2.48,0,0,1,1.85,2.39Z"/>
            <path d="M341.14,321.78V335.6a.93.93,0,0,1-1.85,0V319.39a2.45,2.45,0,0,1,1.85,2.39Z"/>
            <path d="M336.21,327v8.57a.93.93,0,0,1-1.85,0v-11A2.46,2.46,0,0,1,336.21,327Z"/>
          </g>
        </g>
        <path d="M351,323.22V346a.93.93,0,1,1-1.85,0V320.83a2.37,2.37,0,0,1,1.12.64,2.45,2.45,0,0,1,.73,1.75Z"/>
      </g>
    </g>
    <g>
      <path class="cls-15" d="M106.94,329.63c3.66,0,8.35-2.51,7.1-8.52a31.52,31.52,0,0,1-14.2,0C98.52,329,106.94,329.63,106.94,329.63Z"/>
      <path class="cls-21" d="M134.64,339.81,134,364.22l-.11,4.45a.45.45,0,0,1-.45.44h-6.18a.46.46,0,0,1-.46-.4l-3.25-29-.1-.85h-3.37v14.7l2.19,23.55H91.59l2.18-23.55V339.22a.34.34,0,0,0-.34-.34H90.7a.34.34,0,0,0-.34.3l-.06.55-1.12,10-2.13,19a.46.46,0,0,1-.46.4H80.42a.46.46,0,0,1-.46-.44l-.72-28.88a.36.36,0,0,1,0-.11l4-12.86a.29.29,0,0,1,.09-.15l6.78-6.26a.36.36,0,0,1,.23-.09h8.94a.46.46,0,0,1,.46.44,7,7,0,0,0,7.13,6.24,7.12,7.12,0,0,0,6.82-4.67l.12-.4a6.49,6.49,0,0,0,.19-1.17v0h0a.47.47,0,0,1,.46-.39h8.9a.48.48,0,0,1,.31.13l6.72,6.2a.46.46,0,0,1,.13.2l4,12.81a.77.77,0,0,1,0,.15Z"/>
      <path class="cls-24" d="M107.8,333.29v43.84h-1.72V333.29a.86.86,0,1,1,1.72,0Z"/>
      <path class="cls-24" d="M124.25,339.26a.86.86,0,0,1-.67.47l-.1-.85h-.85a.92.92,0,0,1,.09-.39,10.07,10.07,0,0,0,1-5.66.85.85,0,1,1,1.7-.18A11.72,11.72,0,0,1,124.25,339.26Z"/>
      <path class="cls-14" d="M133.92,368.67l.11-4.45h-7.7l.5,4.49a.46.46,0,0,0,.46.4h6.18A.45.45,0,0,0,133.92,368.67Z"/>
      <path class="cls-14" d="M87.05,368.71l.5-4.49h-7.7l.11,4.45a.46.46,0,0,0,.46.44h6.17a.46.46,0,0,0,.46-.4Z"/>
      <path class="cls-24" d="M95.85,332.88c-.85,1.33-1.25,3.29-1.22,6a.86.86,0,0,1-.85.86v-.51a.34.34,0,0,0-.34-.34h-.52c0-3.06.47-5.33,1.52-7a.86.86,0,0,1,1.21-.23A.88.88,0,0,1,95.85,332.88Z"/>
      <path class="cls-22" d="M134.64,339.81,134,364.22h-3.27l1.29-22.91L128.38,329l-6.94-6.41h-7.79c0-.1.08-.2.11-.3a7,7,0,0,0,.28-1.22c0-.13,0-.26,0-.39h0a.45.45,0,0,1,.45-.39h8.92a.39.39,0,0,1,.27.11l6.74,6.22a.46.46,0,0,1,.13.2l4,12.81a.77.77,0,0,1,0,.15Z"/>
      <path class="cls-17" d="M133.92,368.67l.11-4.45h-3.27l-.12,4.89h2.83A.45.45,0,0,0,133.92,368.67Z"/>
      <path class="cls-19" d="M117.45,367.52a.87.87,0,0,1-.75-.44c-.12-.2-.23-.4-.33-.58-1.63-2.85-2.3-4-1.94-12.95a.86.86,0,1,1,1.72.07c-.35,8.43.21,9.41,1.71,12,.1.19.22.39.33.59a.86.86,0,0,1-.32,1.17.83.83,0,0,1-.42.11Z"/>
      <path class="cls-22" d="M87.55,364.22l1.63-14.49a15.44,15.44,0,0,1-2.25-2.51l-1.91,17Z"/>
      <path class="cls-24" d="M91.16,338.49a10,10,0,0,1-1-5.66.86.86,0,0,0-.76-.95.87.87,0,0,0-1,.77,11.44,11.44,0,0,0,.16,3.56l-.34,1.11a13.25,13.25,0,0,0-.58,3l-.72,6.89a15,15,0,0,0,2.25,2.5h0l1.12-10,.06-.55a.34.34,0,0,1,.34-.3h.55A.8.8,0,0,0,91.16,338.49Z"/>
      <path class="cls-17" d="M87.05,368.71l.5-4.49H85l-.55,4.89h2.12A.46.46,0,0,0,87.05,368.71Z"/>
      <path class="cls-22" d="M122.3,377.13l-2.19-23.55h-2.53l2.18,23.55Z"/>
      <path class="cls-24" d="M121,338.88c0-3.05-.47-5.33-1.51-7a.87.87,0,0,0-1.19-.25,2,2,0,0,0-.69,1.39v20.52h2.53v-14.7Z"/>
      <path class="cls-19" d="M111.72,363.08a.86.86,0,0,1-.51-1.54c1.35-1,3.15-2.92,3.2-8a.86.86,0,0,1,.85-.85h0a.87.87,0,0,1,.85.87c-.05,4.35-1.32,7.4-3.89,9.32a.87.87,0,0,1-.51.17Z"/>
      <path class="cls-19" d="M120.11,354.44H93.77a.86.86,0,1,1,0-1.72h26.34a.86.86,0,1,1,0,1.72Z"/>
    </g>
  </g>
</svg>
