<svg id="Capa_1" enable-background="new 0 0 512 512" height="512" viewBox="0 0 512 512" width="512" xmlns="http://www.w3.org/2000/svg"><g><g><path d="m5.506 419.781 217.394-367.414c14.954-25.274 51.247-25.274 66.201 0l217.394 367.414c15.334 25.916-3.178 58.806-33.1 58.806h-434.789c-29.922.001-48.434-32.889-33.1-58.806z" fill="#fd4755"/><g><path d="m180.893 478.588h292.5c29.922 0 48.435-32.89 33.1-58.806l-158.836-268.449c6.291 26.836 9.325 57.2 6.028 90.319-15.599 156.693-158.311 229.751-167.557 234.288-1.776.92-3.515 1.795-5.235 2.648z" fill="#fb2b3a"/><path d="m38.6 447.75c-6.328-.218-9.846-6.086-6.502-12.163l217.393-367.414c3.359-5.265 9.738-5.196 13.005 0l217.393 367.413c3.358 6.1-.131 11.942-6.502 12.163h-434.787z" fill="#fed402"/><path d="m354.851 224.261c-.203 5.709-.58 11.504-1.166 17.391-10.375 104.221-76.976 171.429-123.145 206.098h242.847c6.371-.221 9.86-6.063 6.502-12.163z" fill="#f7bc09"/></g></g><path d="m341.972 360.321-14.224-8.519 8.843-2.218c4.14-1.038 6.653-5.234 5.615-9.373-1.037-4.141-5.233-6.659-9.374-5.615l-23.832 5.977-20.902-12.519v-20.487l20.902-12.519 23.831 5.978c.632.159 1.264.234 1.886.234 3.46 0 6.609-2.341 7.488-5.849 1.038-4.139-1.475-8.335-5.615-9.373l-8.843-2.218 14.224-8.519c3.661-2.193 4.851-6.938 2.659-10.599-2.194-3.661-6.938-4.851-10.599-2.659l-14.266 8.544 2.202-8.781c1.038-4.139-1.475-8.336-5.615-9.373-4.136-1.04-8.336 1.475-9.373 5.615l-5.962 23.768-21.235 12.718-16.104-9.297v-24.588l17.374-17.375c3.017-3.018 3.017-7.909-.001-10.927-3.016-3.018-7.908-3.017-10.927 0l-6.447 6.447v-16.581c0-4.267-3.459-7.726-7.726-7.726-4.268 0-7.726 3.459-7.726 7.726v16.628l-6.4-6.4c-3.018-3.017-7.909-3.017-10.928 0-3.017 3.017-3.017 7.909 0 10.927l17.328 17.328v24.541l-16.057 9.27-21.19-12.691-5.962-23.768c-1.038-4.14-5.239-6.653-9.373-5.615-4.14 1.038-6.653 5.234-5.615 9.373l2.202 8.781-14.266-8.544c-3.661-2.192-8.406-1.002-10.599 2.659-2.192 3.661-1.002 8.405 2.659 10.599l14.224 8.519-8.843 2.218c-4.14 1.038-6.653 5.234-5.615 9.373.879 3.509 4.028 5.849 7.488 5.849.623 0 1.255-.075 1.886-.234l23.836-5.978 20.81 12.463v20.598l-20.81 12.464-23.831-5.978c-4.142-1.044-8.337 1.475-9.374 5.615-1.038 4.139 1.475 8.335 5.615 9.373l8.843 2.218-14.224 8.519c-3.661 2.193-4.851 6.938-2.659 10.599 1.449 2.418 4.009 3.758 6.636 3.758 1.351 0 2.719-.354 3.963-1.099l14.266-8.544-2.202 8.781c-1.038 4.139 1.475 8.335 5.615 9.373.631.159 1.263.234 1.885.234 3.459 0 6.609-2.341 7.488-5.849l5.962-23.768 21.054-12.609 16.239 9.376v24.401l-17.374 17.375c-3.017 3.017-3.017 7.909.001 10.927 1.508 1.508 3.486 2.263 5.463 2.263s3.955-.755 5.464-2.264l6.447-6.447v16.582c0 4.268 3.459 7.726 7.726 7.726s7.726-3.459 7.726-7.726v-16.628l6.4 6.401c3.018 3.016 7.909 3.016 10.928 0 3.017-3.018 3.017-7.909 0-10.928l-17.328-17.328v-24.406l16.194-9.35 21.099 12.637 5.962 23.768c.879 3.509 4.028 5.849 7.488 5.849.623 0 1.255-.075 1.885-.234 4.14-1.038 6.653-5.234 5.615-9.373l-2.202-8.781 14.266 8.544c1.243.744 2.612 1.099 3.963 1.099 2.627 0 5.188-1.34 6.636-3.758 2.188-3.662.998-8.407-2.663-10.6zm-86.018-23.157-16.691-9.637v-19.273l16.691-9.636 16.691 9.636v19.273z" fill="#554e56"/><g><path d="m306.981 377.574c.879 3.509 4.028 5.849 7.488 5.849.623 0 1.255-.075 1.885-.234 4.14-1.038 6.653-5.234 5.615-9.373l-2.202-8.781 14.266 8.544c1.243.744 2.612 1.099 3.963 1.099 2.627 0 5.188-1.34 6.636-3.758 2.192-3.661 1.002-8.405-2.659-10.599l-14.224-8.519 8.843-2.218c4.14-1.038 6.653-5.234 5.615-9.373-1.037-4.141-5.233-6.659-9.374-5.615l-6.708 1.683c-6.287 12.463-13.313 24.048-20.778 34.775z" fill="#554e56"/><path d="m283.152 399.289c-1.735 1.968-3.476 3.899-5.223 5.788 1.142-.362 2.219-.99 3.124-1.895 1.108-1.107 1.805-2.467 2.099-3.893z" fill="#8ac9fe"/></g></g></svg>