<?xml version="1.0" encoding="iso-8859-1"?>
<!-- Generator: Adobe Illustrator 19.0.0, SVG Export Plug-In . SVG Version: 6.00 Build 0)  -->
<svg version="1.1" id="Capa_1" xmlns="http://www.w3.org/2000/svg" xmlns:xlink="http://www.w3.org/1999/xlink" x="0px" y="0px"
	 viewBox="0 0 512 512" style="enable-background:new 0 0 512 512;" xml:space="preserve">
<circle style="fill:#524FA1;" cx="256" cy="263.19" r="248.81"/>
<path style="fill:#5F6AB9;" d="M256,512c63.849,0,122.071-24.06,166.121-63.596H89.879C133.929,487.94,192.151,512,256,512z"/>
<path style="fill:#524FA1;" d="M231.408,448.404H89.879c37.849,33.97,86.166,56.499,139.52,62.173
	C208.232,496.406,209.297,461.357,231.408,448.404z"/>
<rect x="117.84" y="84.44" style="fill:#B2D9ED;" width="145.28" height="37.29"/>
<path style="fill:#DAECF7;" d="M276.971,116.707h-172.98c-22.563,0-40.853,18.291-40.853,40.853v262.816
	c20.273,24.844,45.245,45.699,73.568,61.204h140.265c22.563,0,40.853-18.291,40.853-40.853V157.561
	C317.824,134.998,299.534,116.707,276.971,116.707z"/>
<path style="fill:#B2D9ED;" d="M121.037,440.727V157.561c0-22.563,18.291-40.853,40.853-40.853h-57.9
	c-22.563,0-40.853,18.291-40.853,40.853v262.816c20.273,24.844,45.245,45.699,73.568,61.204h25.185
	C139.328,481.58,121.037,463.289,121.037,440.727z"/>
<path style="fill:#7AA0EA;" d="M317.824,387.591V182.989H128.432c-4.084,0-7.394,3.311-7.394,7.395v197.207H317.824z"/>
<path style="fill:#5F6AB9;" d="M121.037,407.903v-21.377h196.787v28.772H128.432C124.348,415.298,121.037,411.987,121.037,407.903z"
	/>
<path style="fill:#6D85D2;" d="M183.386,182.989h-54.954c-4.084,0-7.394,3.311-7.394,7.395v197.207h54.954V190.384
	C175.991,186.3,179.302,182.989,183.386,182.989z"/>
<path style="fill:#524FA1;" d="M175.991,407.903v-21.377h-54.954v21.377c0,4.084,3.311,7.395,7.394,7.395h54.954
	C179.302,415.298,175.991,411.987,175.991,407.903z"/>
<circle style="fill:#DAECF7;" cx="219.43" cy="285.28" r="64.56"/>
<path style="fill:#B2D9ED;" d="M200.395,296.274c-14.097-24.417-10.419-54.206,6.998-74.424c-6.94,1.317-13.781,3.787-20.245,7.519
	c-30.881,17.829-41.461,57.316-23.632,88.197s57.316,41.461,88.197,23.632c6.463-3.732,12.024-8.421,16.634-13.773
	C242.129,332.4,214.493,320.691,200.395,296.274z"/>
<path style="fill:#14C0EB;" d="M219.433,313.343c-15-0.032-24.164-16.225-16.774-29.024l15.077-26.115
	c0.754-1.306,2.639-1.306,3.393,0l15.077,26.115C243.581,297.09,234.449,313.31,219.433,313.343z"/>
<path style="fill:#00ADDC;" d="M216.617,289.237l3.128-30.95c0.036-0.357,0.166-0.669,0.348-0.935
	c-0.841-0.299-1.851-0.025-2.356,0.851l-15.077,26.115c-7.39,12.798,1.773,28.992,16.774,29.024
	c4.057-0.009,7.678-1.206,10.667-3.191C221.79,307.307,215.622,299.078,216.617,289.237z"/>
<path style="fill:#DAECF7;" d="M374.685,104.106L263.266,297.087c-13.017,22.546-15.062,49.792-5.556,74.029l35.35,20.409
	c26.358-3.979,49.164-19.209,62.493-42.295l110.925-192.128L374.685,104.106z"/>
<path style="fill:#B2D9ED;" d="M289.044,326.992l117.923-204.248l-32.283-18.638L263.266,297.088
	c-13.017,22.546-15.062,49.792-5.556,74.029l19.216,11.094C275.182,363.202,279.29,343.888,289.044,326.992z"/>
<path style="fill:#DAECF7;" d="M484.37,164.323c-7.665-17.679-17.311-34.299-28.678-49.566l-74.316-42.906
	c-7.48-4.319-17.045-1.756-21.364,5.724c-4.319,7.48-1.756,17.045,5.724,21.364l109.689,63.329
	C478.242,163.895,481.354,164.544,484.37,164.323z"/>
<path style="fill:#B2D9ED;" d="M420.026,112.478c3.444-5.965,9.8-9.191,16.235-8.939l-54.885-31.688
	c-7.48-4.319-17.045-1.756-21.364,5.724c-4.319,7.48-1.756,17.045,5.724,21.364l54.221,31.305
	C416.949,124.906,416.74,118.17,420.026,112.478z"/>
<path style="fill:#92D1EA;" d="M440.441,96.205c-7.224-7.974-14.964-15.468-23.156-22.449l-8.153,14.121l27.088,15.639
	L440.441,96.205z"/>
<path style="fill:#B2D9ED;" d="M440.441,96.205l-4.221,7.311l19.471,11.242C450.904,108.327,445.814,102.136,440.441,96.205z"/>
<rect x="364.652" y="131.635" transform="matrix(-0.5 0.866 -0.866 -0.5 716.9066 -119.3516)" style="fill:#92D1EA;" width="56.509" height="31.279"/>
<rect x="357.843" y="135.567" transform="matrix(-0.5 0.866 -0.866 -0.5 703.2918 -119.3468)" style="fill:#7BBEDB;" width="56.509" height="15.559"/>
<rect x="391.742" y="147.265" transform="matrix(-0.5 0.866 -0.866 -0.5 771.0767 -119.3661)" style="fill:#B2D9ED;" width="56.509" height="31.279"/>
<rect x="331.503" y="177.449" transform="matrix(-0.866 -0.5 0.5 -0.866 620.9312 552.5591)" style="fill:#FDE57F;" width="105.988" height="31.279"/>
<polygon style="fill:#FDCF49;" points="346.427,153.048 344.534,156.329 330.788,180.136 363.071,198.775 378.71,171.687 "/>
<path style="fill:#FDE57F;" d="M222.944,481.58c-1.397,0-2.812-0.356-4.109-1.104c-3.937-2.273-5.287-7.308-3.013-11.245
	l38.701-67.033c2.273-3.939,7.307-5.285,11.245-3.013c3.937,2.273,5.287,7.308,3.013,11.245l-38.701,67.033
	C228.556,480.104,225.789,481.58,222.944,481.58z"/>
<path style="fill:#B2D9ED;" d="M262.175,373.694l-14.384,24.914c-4.318,7.48-1.756,17.045,5.725,21.363
	c7.48,4.319,17.045,1.756,21.363-5.724l14.384-24.914L262.175,373.694z"/>
<g>
	<path style="fill:#92D1EA;" d="M262.03,405.714l13.901-24.077l-13.757-7.942l-14.384,24.914c-4.318,7.48-1.756,17.045,5.724,21.363
		c2.5,1.443,5.231,2.102,7.923,2.081C259.007,417.022,259.026,410.917,262.03,405.714z"/>
	<path style="fill:#92D1EA;" d="M330.35,349.446c-3.938-2.272-8.972-0.925-11.245,3.013c-2.273,3.937-0.924,8.972,3.013,11.245
		l14.389,8.307c4.31-3.634,8.274-7.706,11.83-12.181L330.35,349.446z"/>
	<path style="fill:#92D1EA;" d="M361.365,295.725c-3.938-2.273-8.972-0.925-11.245,3.013c-2.273,3.937-0.924,8.972,3.013,11.245
		l18.809,10.86l8.232-14.258L361.365,295.725z"/>
	<path style="fill:#92D1EA;" d="M352.881,326.64c-3.938-2.272-8.972-0.925-11.245,3.013c-2.273,3.937-0.924,8.972,3.013,11.245
		l11.786,6.805l8.232-14.258L352.881,326.64z"/>
	<path style="fill:#92D1EA;" d="M383.896,272.919c-3.938-2.273-8.972-0.925-11.245,3.013c-2.273,3.937-0.924,8.972,3.013,11.245
		l11.787,6.805l8.232-14.258L383.896,272.919z"/>
	<path style="fill:#92D1EA;" d="M381.136,245.018c-2.273,3.937-0.924,8.972,3.013,11.245l18.809,10.86l8.232-14.258l-18.809-10.86
		C388.444,239.731,383.409,241.08,381.136,245.018z"/>
	<path style="fill:#92D1EA;" d="M297.176,384.396l-35.35-20.409c-3.937-2.273-8.972-0.925-11.245,3.013
		c-2.273,3.937-0.924,8.972,3.013,11.245l35.35,20.409c1.296,0.748,2.712,1.104,4.109,1.104c2.845,0,5.612-1.476,7.137-4.117
		C302.462,391.704,301.113,386.67,297.176,384.396z"/>
</g>
<path style="fill:#7BBEDB;" d="M272.784,379.191c1.502-2.602,3.917-4.346,6.607-5.063l-17.566-10.141
	c-3.937-2.273-8.972-0.925-11.245,3.013c-2.273,3.937-0.924,8.972,3.013,11.245l18.685,10.788
	C270.916,385.967,270.978,382.319,272.784,379.191z"/>
<path style="fill:#FB6467;" d="M236.427,0h-91.893c-14.682,0-26.694,12.012-26.694,26.694v2.078h145.281v-2.078
	C263.122,12.012,251.109,0,236.427,0z"/>
<path style="fill:#EF525A;" d="M200.624,0h-56.089c-14.682,0-26.694,12.012-26.694,26.694v2.078h56.089v-2.078
	C173.93,12.012,185.942,0,200.624,0z"/>
<rect x="123.95" y="27.706" style="fill:#FB6467;" width="33.431" height="60.26"/>
<g>
	<path style="fill:#EF525A;" d="M123.947,27.706h-23.419c-5.348,0-9.684,4.335-9.684,9.684v40.895c0,5.348,4.336,9.684,9.684,9.684
		h23.419V27.706z"/>
	<rect x="157.38" y="27.706" style="fill:#EF525A;" width="33.1" height="60.26"/>
	<rect x="223.58" y="27.706" style="fill:#EF525A;" width="33.431" height="60.26"/>
</g>
<path style="fill:#FB6467;" d="M257.015,27.706h23.419c5.348,0,9.684,4.335,9.684,9.684v40.895c0,5.348-4.336,9.684-9.684,9.684
	h-23.419V27.706z"/>
<path style="fill:#DD4050;" d="M90.844,48.154v30.131c0,5.348,4.336,9.684,9.684,9.684h23.419V57.838h-23.419
	C95.18,57.838,90.844,53.502,90.844,48.154z"/>
<path style="fill:#EF525A;" d="M280.434,57.838h-23.419v30.131h23.419c5.348,0,9.684-4.335,9.684-9.684V48.154
	C290.118,53.502,285.782,57.838,280.434,57.838z"/>
<rect x="190.48" y="27.706" style="fill:#FB6467;" width="33.1" height="60.26"/>
<rect x="123.95" y="57.838" style="fill:#EF525A;" width="33.431" height="30.13"/>
<g>
	<rect x="157.38" y="57.838" style="fill:#DD4050;" width="33.1" height="30.13"/>
	<rect x="223.58" y="57.838" style="fill:#DD4050;" width="33.431" height="30.13"/>
</g>
<rect x="190.48" y="57.838" style="fill:#EF525A;" width="33.1" height="30.13"/>
<g>
</g>
<g>
</g>
<g>
</g>
<g>
</g>
<g>
</g>
<g>
</g>
<g>
</g>
<g>
</g>
<g>
</g>
<g>
</g>
<g>
</g>
<g>
</g>
<g>
</g>
<g>
</g>
<g>
</g>
</svg>
