<?xml version="1.0" encoding="utf-8"?>
<!-- Generator: Adobe Illustrator 25.1.0, SVG Export Plug-In . SVG Version: 6.00 Build 0)  -->
<svg version="1.1" id="Capa_1" xmlns="http://www.w3.org/2000/svg" xmlns:xlink="http://www.w3.org/1999/xlink" x="0px" y="0px"
	 viewBox="0 0 512 512" style="enable-background:new 0 0 512 512;" xml:space="preserve">
<style type="text/css">
	.st0{fill:#524FA1;}
	.st1{fill:#C5BEC6;}
	.st2{fill:#B5ADB7;}
	.st3{fill:#E4FBFF;}
	.st4{fill:#C1EFF8;}
	.st5{fill:#9AE0EF;}
	.st6{fill:#80D8E9;}
	.st7{fill:#FAFAEF;}
	.st8{fill:#70C5DE;}
</style>
<circle class="st0" cx="256" cy="256" r="248.8"/>
<g>
	<g>
		<path class="st1" d="M420.3,472h-324c-2.7,0-4.9-2.2-4.9-4.9v-23.4l166.9-8.7l166.9,8.7v23.4C425.1,469.8,423,472,420.3,472
			L420.3,472z"/>
	</g>
	<g>
		<path class="st2" d="M399.1,443.7v23.4c0,2.7-2.2,4.9-4.9,4.9h26.1c2.7,0,4.9-2.2,4.9-4.9v-23.4l-13.8-8.7L399.1,443.7z"/>
	</g>
	<g>
		<path class="st3" d="M432.1,443.7H79.9c-7.6,0-13.7-6.1-13.7-13.7V100.4l183.7-8.7l195.9,8.7v329.7
			C445.8,437.6,439.7,443.7,432.1,443.7L432.1,443.7z"/>
	</g>
	<g>
		<path class="st4" d="M419.7,100.4v329.7c0,7.6-6.1,13.7-13.7,13.7h26.1c7.6,0,13.7-6.1,13.7-13.7V100.4l-13.4-8.7L419.7,100.4z"/>
	</g>
	<g>
		
			<ellipse transform="matrix(0.7071 -0.7071 0.7071 0.7071 -109.2832 257.3048)" class="st5" cx="256" cy="260.6" rx="78.1" ry="78.1"/>
	</g>
	<g>
		<path class="st6" d="M256,182.5c-4.4,0-8.8,0.4-13,1.1c36.9,6.2,65.1,38.3,65.1,77s-28.1,70.8-65.1,77c4.2,0.7,8.6,1.1,13,1.1
			c43.1,0,78.1-35,78.1-78.1C334.1,217.4,299.1,182.5,256,182.5z"/>
	</g>
	<g>
		<path class="st5" d="M396.4,409.3h-43.5c-2.9,0-5.2-2.4-5.2-5.2v-18.6c0-2.9,2.4-5.2,5.2-5.2h43.5c2.9,0,5.2,2.4,5.2,5.2v18.6
			C401.6,407,399.3,409.3,396.4,409.3L396.4,409.3z"/>
	</g>
	<path class="st7" d="M285,249l10.9,2.8c0.5,0.1,1.1,0.2,1.6,0.2c2.9,0,5.6-2,6.3-4.9c0.9-3.5-1.2-7-4.7-7.9l-7.2-1.8l1.8-7.2
		c0.9-3.5-1.2-7-4.7-7.9c-3.5-0.9-7,1.2-7.9,4.7l-2.8,10.9L261.2,248v-18.9l8-8c2.5-2.5,2.5-6.7,0-9.2c-2.5-2.5-6.7-2.5-9.2,0
		l-5.3,5.3l-5.3-5.3c-2.5-2.5-6.7-2.5-9.2,0c-2.5,2.5-2.5,6.7,0,9.2l8,8v18.1l-15.9-9.4l-2.8-10.9c-0.9-3.5-4.4-5.6-7.9-4.7
		c-3.5,0.9-5.6,4.4-4.7,7.9l1.8,7.2l-7.2,1.8c-3.5,0.9-5.6,4.4-4.7,7.9c0.7,3,3.4,4.9,6.3,4.9c0.5,0,1.1-0.1,1.6-0.2l10.9-2.8
		l16.9,10.1l-16.7,10.4l-11-2.6c-3.5-0.8-7,1.3-7.8,4.8s1.3,7,4.8,7.8l7.2,1.7l-1.7,7.2c-0.8,3.5,1.3,7,4.8,7.8
		c0.5,0.1,1,0.2,1.5,0.2c3,0,5.6-2,6.3-5l2.6-11l15.5-9.6v19.7l-8,8c-2.5,2.5-2.5,6.7,0,9.2c1.3,1.3,2.9,1.9,4.6,1.9
		s3.3-0.6,4.6-1.9l5.3-5.3l5.3,5.3c1.3,1.3,2.9,1.9,4.6,1.9c1.7,0,3.3-0.6,4.6-1.9c2.5-2.5,2.5-6.7,0-9.2l-8-8v-20.4l16.8,10.4
		l2.6,11c0.7,3,3.4,5,6.3,5c0.5,0,1-0.1,1.5-0.2c3.5-0.8,5.7-4.3,4.8-7.8l-1.7-7.2l7.2-1.7c3.5-0.8,5.7-4.3,4.8-7.8
		c-0.8-3.5-4.3-5.7-7.8-4.8l-11,2.6l-16.7-10.4L285,249z"/>
	<g>
		<path class="st5" d="M142.9,388.7h-35c-3.6,0-6.5-2.9-6.5-6.5s2.9-6.5,6.5-6.5h35c3.6,0,6.5,2.9,6.5,6.5
			C149.4,385.7,146.5,388.7,142.9,388.7z"/>
	</g>
	<g>
		<path class="st5" d="M142.9,413.9h-35c-3.6,0-6.5-2.9-6.5-6.5c0-3.6,2.9-6.5,6.5-6.5h35c3.6,0,6.5,2.9,6.5,6.5
			C149.4,411,146.5,413.9,142.9,413.9z"/>
	</g>
	<g>
		<path class="st4" d="M403,40H109c-23.6,0-42.8,19.1-42.8,42.8v17.6h379.6V82.8C445.8,59.2,426.7,40,403,40L403,40z"/>
	</g>
	<g>
		<path class="st6" d="M373.5,100.4H126.2v-12c0-11,8.9-19.9,19.9-19.9h207.5c11,0,19.9,8.9,19.9,19.9L373.5,100.4L373.5,100.4z"/>
	</g>
	<g>
		<path class="st5" d="M403,40H377c23.6,0,42.8,19.1,42.8,42.8v17.6h26.1V82.8C445.8,59.2,426.7,40,403,40z"/>
	</g>
	<g>
		<path class="st8" d="M353.6,68.4h-26.1c11,0,19.9,8.9,19.9,19.9v12h26.1v-12C373.5,77.3,364.6,68.4,353.6,68.4z"/>
	</g>
</g>
</svg>
