<svg id="Layer_1" enable-background="new 0 0 512 512" height="512" viewBox="0 0 512 512" width="512" xmlns="http://www.w3.org/2000/svg"><g><path d="m478.472 121.244-87.715-87.715c-36.322-21.303-78.61-33.529-123.759-33.529-135.311 0-245.002 109.691-245.002 245.002s109.691 245.002 245.002 245.002 245.002-109.691 245.002-245.002c0-45.149-12.226-87.437-33.528-123.758z" fill="#5c45bf"/><g><path d="m2.665 509.335c-3.553-3.553-3.553-9.315 0-12.869l68.421-68.421c3.555-3.553 9.316-3.553 12.87 0 3.553 3.553 3.553 9.316 0 12.869l-68.421 68.421c-3.555 3.554-9.315 3.553-12.87 0z" fill="#e9efff"/></g><path d="m85.219 410.861 15.92 15.92c1.204 1.203 2.577 2.127 4.036 2.804l-12.323 12.323c-3.492 3.492-9.153 3.491-12.644 0l-10.116-10.116c-3.492-3.492-3.492-9.153 0-12.644l12.323-12.323c.676 1.46 1.6 2.833 2.804 4.036z" fill="#38c674"/><path d="m82.289 428.279c1.85-1.85 4.801-1.732 6.644.124l.036.036 8.676 8.677 7.53-7.53c-1.46-.676-2.833-1.6-4.036-2.804l-15.92-15.92c-1.203-1.204-2.127-2.577-2.804-4.036l-12.323 12.323c-3.492 3.491-3.491 9.153 0 12.644l4.342 4.341z" fill="#1ba552"/><path d="m388.357 32.129-180.07 180.07 91.514 91.514 180.07-180.07c-21.756-38.08-53.433-69.758-91.514-91.514z" fill="#d3dcfb"/><path d="m208.287 212.199 55.676 55.676 176.757-195.619c-15.518-15.605-33.121-29.134-52.363-40.128z" fill="#bec8f7"/><path d="m430.028 62.135-185.903 185.902 19.838 19.838 185.902-185.902c-6.23-6.984-12.854-13.608-19.837-19.838z" fill="#a8b7ef"/><path d="m100.281 427.639-15.92-15.92c-5.495-5.495-5.495-14.405 0-19.9l25.87-25.87 35.82 35.82-25.87 25.87c-5.495 5.496-14.405 5.496-19.9 0z" fill="#50dd89"/><path d="m90.249 417.608 9.725-9.726c7.051-7.051 18.482-7.051 25.532 0l7.215 7.215 13.328-13.328-35.82-35.82-25.87 25.87c-5.495 5.495-5.495 14.405 0 19.9z" fill="#38c674"/><path d="m136.765 360.312 6.497 6.497 6.497 6.497c2.959 2.959 6.171 5.635 9.573 8.038l-16.853 16.853-28.674-28.674 16.556-16.556c1.97 2.578 4.099 5.04 6.404 7.345z" fill="#38c674"/><path d="m146.218 369.765-2.956-2.956-6.497-6.497c-2.305-2.305-4.434-4.767-6.405-7.345l-16.556 16.556 16.328 16.328z" fill="#1ba552"/><g><path d="m152.413 417.232c-2.329 0-4.658-.888-6.435-2.665l-48.545-48.545c-3.553-3.553-3.553-9.315 0-12.869 3.556-3.555 9.317-3.553 12.87 0l48.545 48.545c3.553 3.553 3.553 9.316 0 12.869-1.777 1.776-4.106 2.665-6.435 2.665z" fill="#70f2a4"/></g><path d="m126.097 381.674c2.826-2.825 6.928-3.579 10.445-2.283l-26.239-26.239c-3.554-3.554-9.314-3.555-12.87 0-3.553 3.553-3.553 9.315 0 12.869l26.562 26.563c-1.544-3.616-.848-7.96 2.102-10.91z" fill="#50dd89"/><path d="m482.288 183.343-153.63-153.63c-3.553-3.552-9.314-3.555-12.87 0-3.553 3.553-3.553 9.316 0 12.869l20.665 20.665c11.929 23.433 27.681 45.419 47.281 65.019s41.587 35.352 65.02 47.282l20.664 20.663c1.777 1.777 4.107 2.665 6.435 2.665s4.658-.889 6.435-2.665c3.553-3.553 3.553-9.315 0-12.868z" fill="#e9efff"/><path d="m191.206 398.28-17.399-7.179c-8.955-3.694-17.092-9.123-23.941-15.973l-6.497-6.497-6.497-6.497c-6.85-6.85-12.278-14.987-15.973-23.941l-7.179-17.399c-2.481-6.013-1.1-12.928 3.499-17.528l91.925-91.925 91.514 91.514-91.925 91.925c-4.599 4.6-11.514 5.981-17.527 3.5z" fill="#50dd89"/><path d="m209.145 211.341-91.925 91.925c-4.6 4.6-5.98 11.515-3.499 17.528l7.179 17.399c3.695 8.955 9.123 17.091 15.973 23.941l4.193 4.193c-1.77-16.692 9.148-27.33 9.148-27.33s45.807-42.483 68.012-64.688 45.738-6.434 45.738-6.434l.815-.901z" fill="#38c674"/><g><path d="m134.678 301.601-7.896-7.897c-3.553-3.554-3.553-9.316.001-12.87 3.552-3.553 9.314-3.552 12.869.001l7.896 7.897c3.553 3.554 3.553 9.316-.001 12.87-3.553 3.553-9.314 3.552-12.869-.001z" fill="#70f2a4"/></g><g><path d="m164.634 271.644-7.896-7.897c-3.553-3.554-3.553-9.316.001-12.87 3.553-3.553 9.316-3.552 12.869.001l7.896 7.897c3.553 3.554 3.553 9.316-.001 12.87-3.553 3.553-9.314 3.552-12.869-.001z" fill="#70f2a4"/></g><g><path d="m194.593 241.688-7.897-7.897c-3.555-3.554-3.555-9.315-.001-12.87 3.555-3.553 9.317-3.554 12.869-.001l7.897 7.897c3.555 3.554 3.555 9.315.001 12.87-3.554 3.552-9.316 3.555-12.869.001z" fill="#70f2a4"/></g><g><path d="m224.548 211.73-7.896-7.896c-3.553-3.553-3.553-9.316 0-12.869 3.555-3.553 9.316-3.553 12.87 0l7.896 7.896c3.553 3.553 3.553 9.316 0 12.869-3.555 3.554-9.315 3.554-12.87 0z" fill="#e9efff"/></g><g><path d="m254.507 181.775-7.897-7.897c-3.555-3.554-3.555-9.316-.001-12.87 3.555-3.553 9.317-3.554 12.869-.001l7.897 7.897c3.555 3.554 3.555 9.316.001 12.87-3.554 3.552-9.316 3.555-12.869.001z" fill="#e9efff"/></g><g><path d="m284.462 151.817-7.896-7.897c-3.553-3.554-3.553-9.316.001-12.87 3.552-3.553 9.314-3.552 12.869.001l7.896 7.897c3.553 3.554 3.553 9.316-.001 12.87-3.554 3.553-9.315 3.553-12.869-.001z" fill="#e9efff"/></g><g><path d="m314.418 121.86-7.896-7.897c-3.553-3.554-3.553-9.316.001-12.87 3.553-3.553 9.316-3.552 12.869.001l7.896 7.897c3.553 3.554 3.553 9.316-.001 12.87-3.553 3.553-9.314 3.553-12.869-.001z" fill="#e9efff"/></g><g><path d="m196.811 363.734c-3.553-3.553-3.553-9.316 0-12.869l29.957-29.957c3.556-3.555 9.317-3.553 12.87 0 3.554 3.553 3.554 9.316 0 12.869l-29.957 29.957c-3.554 3.553-9.315 3.555-12.87 0z" fill="#70f2a4"/></g><path d="m264.433.033c-128.332 1.318-233.015 101.288-241.822 227.693 13.864 15.831 29.708 21.027 43.756 21.526 18.284.65 35.932-6.756 48.829-19.734 27.862-28.038 103.815-104.567 139.919-141.902 31.533-32.607 19.274-68.984 9.318-87.583z" fill="#7255ce"/><path d="m433.421 259.06c-49.649 39.415-169.614 162.798-169.614 162.798s-31.511 38.244-3.683 68.045c2.284.063 4.575.101 6.874.101 134.322 0 243.377-108.099 244.965-242.044-18.304-7.748-47.977-13.165-78.542 11.1z" fill="#7255ce"/><path d="m328.658 29.713c-3.553-3.552-9.314-3.555-12.87 0-3.553 3.553-3.553 9.316 0 12.869l20.665 20.665c11.929 23.433 27.681 45.419 47.281 65.019 3.326 3.326 6.726 6.532 10.184 9.636-4.236-23.064 21.473-21.456 21.473-21.456z" fill="#d3dcfb"/></g></svg>