<svg xmlns="http://www.w3.org/2000/svg" width="307.61" height="276.03" viewBox="0 0 307.61 276.03">
  <defs>
    <style>
      .cls-1 {
        isolation: isolate;
      }

      .cls-2 {
        fill: #606060;
        opacity: 0.25;
        mix-blend-mode: multiply;
      }

      .cls-3 {
        fill: #991740;
      }

      .cls-4 {
        fill: #ff1c4f;
      }

      .cls-5 {
        fill: #fff;
      }

      .cls-6 {
        fill: #ffa523;
      }

      .cls-7 {
        fill: none;
        stroke: #004a67;
        stroke-miterlimit: 10;
        stroke-width: 2.1px;
      }

      .cls-8 {
        fill: #0070c0;
      }

      .cls-9 {
        fill: #61cecb;
      }

      .cls-10 {
        fill: #a353ea;
      }
    </style>
  </defs>
  <g class="cls-1">
    <g id="OBJECTS">
      <g>
        <path class="cls-2" d="M214.76,266.54c0,1.1-40.57,2-90.61,2s-90.61-.89-90.61-2,40.57-2,90.61-2S214.76,265.44,214.76,266.54Z"/>
        <g>
          <path class="cls-3" d="M187,87.07c42.41,49.65,51.25,107.22-.92,156.28C144.93,282,74,269.5,31.55,219.85s-42-119.62.91-156.28S144.55,37.43,187,87.07Z"/>
          <ellipse class="cls-4" cx="115.97" cy="145.78" rx="102.21" ry="116.75" transform="translate(-66.89 110.27) rotate(-40.51)"/>
          <ellipse class="cls-5" cx="115.97" cy="145.78" rx="87.13" ry="99.53" transform="translate(-66.89 110.27) rotate(-40.51)"/>
          <ellipse class="cls-4" cx="115.97" cy="145.78" rx="73.25" ry="83.68" transform="translate(-66.89 110.27) rotate(-40.51)"/>
          <ellipse class="cls-5" cx="115.97" cy="145.78" rx="58.83" ry="67.2" transform="translate(-66.89 110.27) rotate(-40.51)"/>
          <ellipse class="cls-4" cx="115.97" cy="145.78" rx="44.28" ry="50.58" transform="translate(-66.89 110.27) rotate(-40.51)"/>
          <ellipse class="cls-5" cx="115.97" cy="145.78" rx="29.53" ry="33.73" transform="translate(-66.89 110.27) rotate(-40.51)"/>
          <path class="cls-4" d="M125.7,137.47c5.24,6.13,5.14,14.83-.24,19.42s-14,3.33-19.21-2.8-5.14-14.83.23-19.42S120.46,131.33,125.7,137.47Z"/>
        </g>
        <g>
          <path class="cls-6" d="M224.52,39.54S236,0,242,0s8.39,13.28,8.39,13.28Z"/>
          <path class="cls-6" d="M225.55,40.56s39.53-11.51,39.53-17.45-13.28-8.39-13.28-8.39Z"/>
          <line class="cls-7" x1="251.42" y1="13.93" x2="115.97" y2="145.78"/>
        </g>
        <g>
          <path class="cls-8" d="M259.3,95.5s27.17-30.94,32.55-28.43,2,15.59,2,15.59Z"/>
          <path class="cls-8" d="M259.79,96.86s40.69,6.31,43.21.93-8.48-13.22-8.48-13.22Z"/>
          <line class="cls-7" x1="294.51" y1="83.69" x2="115.97" y2="145.78"/>
        </g>
        <g>
          <path class="cls-9" d="M264.3,178.45s39.39-12,42.64-7-6.52,14.29-6.52,14.29Z"/>
          <path class="cls-9" d="M264,179.87s31.29,26.79,36.26,23.53-.25-15.71-.25-15.71Z"/>
          <line class="cls-7" x1="300.46" y1="186.94" x2="115.97" y2="145.78"/>
        </g>
        <g>
          <path class="cls-10" d="M236.51,238.19s40.77,5.8,41.61,11.68-12,10.19-12,10.19Z"/>
          <path class="cls-10" d="M235.64,239.35s17,37.51,22.88,36.67,6.42-14.34,6.42-14.34Z"/>
          <line class="cls-7" x1="265.67" y1="261.19" x2="115.97" y2="145.78"/>
        </g>
      </g>
    </g>
  </g>
</svg>
