<svg xmlns="http://www.w3.org/2000/svg" width="500" height="500" viewBox="0 0 500 500">
  <defs>
    <style>
      .cls-1 {
        isolation: isolate;
      }

      .cls-2 {
        fill: #a0b6f2;
      }

      .cls-3 {
        fill: #afc6db;
      }

      .cls-4 {
        fill: #6a8de2;
      }

      .cls-5 {
        fill: #222f60;
      }

      .cls-6 {
        fill: #2b3977;
      }

      .cls-7 {
        fill: #fff;
      }

      .cls-8 {
        fill: #ffcb64;
      }

      .cls-9 {
        fill: #cae0ef;
      }

      .cls-10 {
        fill: none;
        stroke: #2b497a;
        stroke-miterlimit: 10;
        stroke-width: 0.5px;
      }

      .cls-11 {
        fill: #66acff;
      }

      .cls-12 {
        fill: #eff6f9;
      }

      .cls-13 {
        fill: #a6c6e0;
      }

      .cls-14, .cls-22 {
        fill: #c6d7eb;
      }

      .cls-15 {
        fill: #353a8b;
      }

      .cls-16 {
        fill: #f9a49b;
      }

      .cls-17 {
        fill: #f2787a;
        opacity: 0.45;
        mix-blend-mode: multiply;
      }

      .cls-18 {
        fill: #ffd892;
      }

      .cls-19 {
        fill: #80a5ed;
      }

      .cls-20 {
        fill: #b0caf4;
      }

      .cls-21 {
        fill: #6b8bdb;
      }

      .cls-22 {
        opacity: 0.48;
      }

      .cls-23 {
        fill: #efb652;
      }
    </style>
  </defs>
  <g class="cls-1">
    <g id="OBJECTS">
      <g>
        <g>
          <path class="cls-2" d="M471.9,214.78c-18.36-77.9-50.95-80.86-75.28-134s-108-65.78-158.7-18.7S127.8,74.84,73.9,127.16s-31.12,105.38,0,132,29.57,75.73,39.8,114.18,27.62,87.24,132.89,57.82c49.9-13.94,58.71,15.88,126.54,3.52C458.85,419.12,498.29,326.73,471.9,214.78Z"/>
          <circle class="cls-2" cx="60.93" cy="415.94" r="22.98"/>
          <circle class="cls-2" cx="112.12" cy="445.67" r="10.98" transform="translate(-152.43 69.89) rotate(-21.02)"/>
          <circle class="cls-2" cx="450.27" cy="72.3" r="26.65" transform="translate(150.19 415.69) rotate(-57.97)"/>
          <circle class="cls-2" cx="73.93" cy="62.75" r="21.26"/>
        </g>
        <g>
          <path class="cls-3" d="M349.92,287.36s-8.86,10.19-30,6.94,2.66-29,2.66-29,17.71,1.55,18.59,1.77,7.09,4.65,7.09,4.65S353.32,282.64,349.92,287.36Z"/>
          <g>
            <path class="cls-4" d="M272.06,338.06s2.71,7.72.38,13.35S267,366.26,270.12,366s16.52-6.47,17-15.81,3.95-15.69,3.59-21.79.48-8.15-6.94-9.22-10.42.71-10.42.71Z"/>
            <path class="cls-4" d="M375,400.07s3.38,18.65,9,26.46,12.5,15.41,17.86,11.17,4.47-14.52,1.57-21.44-7.37-12.5-8.49-17.42a14.07,14.07,0,0,0-5.13-7.7Z"/>
            <path class="cls-5" d="M263.77,256.21s-56.74,19.4-64,30.42,5.14,33.52,15,36.4l56.52,16.52a27.22,27.22,0,0,0,2.87-22,96.27,96.27,0,0,1-24.91-11.26c-13.41-8.38-18.44-7.42-18.44-7.42s58.35-1,66.82-3.11-25.1-43.59-25.1-43.59Z"/>
            <path class="cls-6" d="M276.06,255.21l5.21,13.86A193.89,193.89,0,0,0,297,301.41c11,18.21,28.77,46.82,37.19,56.8C346.9,373.28,373,400.74,373,400.74s14.66-4.43,17.67-11.13c0,0-17-42.46-31.41-58.87L318.1,249.35Z"/>
          </g>
          <g>
            <g>
              <path class="cls-7" d="M172.79,117.21l116.4-39.55a.92.92,0,0,1,1.18.58l9.05,26.65a.91.91,0,0,1-.57,1.17l-116.4,39.55a4.57,4.57,0,0,1-5.8-2.85L169.94,123a4.55,4.55,0,0,1,2.85-5.79Z"/>
              <path class="cls-8" d="M295.89,103.88,181.47,142.75a1.55,1.55,0,0,1-2-1L172.8,122a1.51,1.51,0,0,1-.08-.59,1.54,1.54,0,0,1,1.05-1.37L288.18,81.19Z"/>
              <path class="cls-6" d="M163.77,131.56h15.37a1.94,1.94,0,0,1,1.94,1.94v1.94a0,0,0,0,1,0,0H161.82a0,0,0,0,1,0,0v-1.94A1.94,1.94,0,0,1,163.77,131.56Z" transform="translate(100.2 338.8) rotate(-108.77)"/>
              <polygon class="cls-7" points="164.48 137.75 125.72 149.45 163.56 135.03 164.48 137.75"/>
              <rect class="cls-9" x="301.39" y="72.83" width="46.69" height="16.09" transform="translate(-8.75 108.77) rotate(-18.77)"/>
              <path class="cls-6" d="M262.34,86.78l26.85-9.12a.92.92,0,0,1,1.18.58l9.05,26.65a.91.91,0,0,1-.57,1.17L272,115.19Z"/>
              <g>
                <g>
                  <line class="cls-10" x1="263.54" y1="100.88" x2="259.12" y2="87.88"/>
                  <line class="cls-10" x1="256.88" y1="96.05" x2="254.62" y2="89.41"/>
                  <line class="cls-10" x1="252.38" y1="97.58" x2="250.12" y2="90.93"/>
                  <line class="cls-10" x1="247.88" y1="99.11" x2="245.63" y2="92.46"/>
                  <line class="cls-10" x1="243.39" y1="100.63" x2="241.13" y2="93.99"/>
                </g>
                <g>
                  <line class="cls-10" x1="240.89" y1="108.58" x2="236.47" y2="95.57"/>
                  <line class="cls-10" x1="234.23" y1="103.74" x2="231.97" y2="97.1"/>
                  <line class="cls-10" x1="229.73" y1="105.27" x2="227.47" y2="98.63"/>
                  <line class="cls-10" x1="225.23" y1="106.8" x2="222.98" y2="100.16"/>
                  <line class="cls-10" x1="220.74" y1="108.33" x2="218.48" y2="101.68"/>
                </g>
                <g>
                  <line class="cls-10" x1="218.21" y1="116.28" x2="213.79" y2="103.28"/>
                  <line class="cls-10" x1="211.55" y1="111.45" x2="209.3" y2="104.8"/>
                  <line class="cls-10" x1="207.06" y1="112.98" x2="204.8" y2="106.33"/>
                  <line class="cls-10" x1="202.56" y1="114.51" x2="200.3" y2="107.86"/>
                  <line class="cls-10" x1="198.06" y1="116.03" x2="195.8" y2="109.39"/>
                </g>
                <g>
                  <line class="cls-10" x1="195.55" y1="123.98" x2="191.13" y2="110.98"/>
                  <line class="cls-10" x1="188.89" y1="119.15" x2="186.63" y2="112.5"/>
                  <line class="cls-10" x1="184.39" y1="120.68" x2="182.14" y2="114.03"/>
                  <line class="cls-10" x1="179.9" y1="122.21" x2="177.64" y2="115.56"/>
                  <line class="cls-10" x1="175.4" y1="123.73" x2="173.14" y2="117.09"/>
                </g>
              </g>
              <path class="cls-7" d="M292.78,74.09l11,32.44a3.7,3.7,0,0,1-2.32,4.7h0a3.7,3.7,0,0,1-4.69-2.31l-11-32.44a3.71,3.71,0,0,1,2.32-4.7h0A3.71,3.71,0,0,1,292.78,74.09Z"/>
              <path class="cls-11" d="M171.91,140.25l-.69.23a6.57,6.57,0,0,1-8.34-4.1h0a6.57,6.57,0,0,1,4.11-8.33l.7-.24Z"/>
              <polygon class="cls-7" points="120.77 141.02 126.33 147.65 134.36 142.68 127.06 148.68 131.86 156.51 125.96 149.47 118.71 153.88 125.22 148.44 120.77 141.02"/>
            </g>
            <path class="cls-12" d="M347.66,59.76l8,23.42A2.59,2.59,0,0,1,354,86.45h0a2.59,2.59,0,0,1-3.27-1.61l-8-23.42a2.59,2.59,0,0,1,1.61-3.27h0A2.57,2.57,0,0,1,347.66,59.76Z"/>
            <rect class="cls-12" x="296.73" y="77.4" width="51.43" height="8.17" transform="translate(-9.07 108.07) rotate(-18.77)"/>
            <rect class="cls-13" x="297.94" y="80.37" width="9.41" height="16.09" transform="translate(-12.35 102.06) rotate(-18.77)"/>
          </g>
          <g>
            <path class="cls-8" d="M266.18,256.38s14.37,6.87,32.64,0,5.69-87.31,5.69-87.31L282,170.34l-6.43,7.33Z"/>
            <path class="cls-7" d="M271.7,208.65c-1.24,4.13-7,11.86-12.79,16.93a22.31,22.31,0,0,1-7.13,4.6c-2.51.8-8-1.68-13.95-5.37a135.5,135.5,0,0,1-19.39-14.58c-2.39-2.26-3.87-4-3.83-4.76.16-3.34,8-22.26,10.37-21.44,1.39.5,9.26,8.3,15.47,14.58.12.13.23.25.36.37,4.11,4.19,7.4,7.61,7.4,7.61,1.55-.44,14.85-21.21,17.74-26.62s4.84-5.72,4.84-5.72,1.32,13.77,1.51,24.14C272.38,202.93,272.25,206.85,271.7,208.65Z"/>
            <path class="cls-14" d="M240.88,198.39l-.07.59-3,25.83a135.5,135.5,0,0,1-19.39-14.58l22-11.62Z"/>
            <path class="cls-14" d="M271.7,208.65c-1.24,4.14-7,11.86-12.8,16.93l12.39-39.65s.45,5.49,1,12.46C272.38,202.94,272.25,206.85,271.7,208.65Z"/>
            <g>
              <path class="cls-15" d="M300.81,158.18c-.13-.77,10.08-11.06,9.16-15.35s-2.51-4.6-2.51-4.6,2.18-4.27.67-7.87-9-5.41-15-5.76-11.39-7.8-11.39-7.8-2.91,3.09-2.15,6.19a6.75,6.75,0,0,1-5-3.26s-2.3,4-.83,7.28c0,0-4.67,1.84-5.7,4.86,0,0,3.69-.62,5,1.23a9.33,9.33,0,0,0,3.65,11.5C283.47,149.1,300.81,158.18,300.81,158.18Z"/>
              <path class="cls-16" d="M302.34,168.8c-4.66,10.29-17.74,13.67-20.2,9.32a5.41,5.41,0,0,1-.11-3.87,22.84,22.84,0,0,1,2.34-5.36l.35-4.63-1.17-4.8,14.85-5.08,1-.35A42.41,42.41,0,0,0,302.34,168.8Z"/>
              <path class="cls-17" d="M282,174.25a22.84,22.84,0,0,1,2.34-5.36l.35-4.63-1.17-4.8,14.85-5.08.41.12S299.69,172.68,282,174.25Z"/>
              <path class="cls-16" d="M276.05,135.4s-1.8,17.45,1.83,25.2,8.13,6.91,13.46,4.2,6.26-3.59,8.09-9.52c0,0,4.59.61,5.06-6.12s-6.65-3.83-6.4,2c0,0-5.24-.68-2.38-8.59,0,0-6,3.22-12-2.3S276.05,135.4,276.05,135.4Z"/>
            </g>
            <path class="cls-18" d="M301.11,165.2l3.4,3.87c-1.72,7.41-7.22,13.13-12.09,16.86l-7.48-5.36-7.26,3.13s2.06-12.29,6.83-16.7l1.43,9.56A29.92,29.92,0,0,0,301.11,165.2Z"/>
            <path class="cls-7" d="M304.51,169.07s-6.17,7.93-10.36,37.07-.21,82.4,4.67,84.91,28.32-17.75,39.88-15.74,11.22,12.05,11.22,12.05,5-13.9-7.37-31-22-40.19-20.89-49.23,9.16-28.62,7.82-32.9S304.51,169.07,304.51,169.07Z"/>
            <path class="cls-7" d="M314.14,169.79,329.83,145s-11.51-40-12-42.73,8-.67,20.77-2.46,12,9.43,14.51,19.21c4.16,16.31,1.34,35.17-1.51,40.69-10.23,19.83-29.27,43.55-29.27,43.55S310.86,194.84,314.14,169.79Z"/>
            <path class="cls-16" d="M322.67,106.55,314.52,87.8l12.23-3.38,12.11,19.68S330.38,108.23,322.67,106.55Z"/>
            <path class="cls-7" d="M282,170.34a333.32,333.32,0,0,0-6.42,50.32c-1.5,28.63-7.41,59.5-12.27,64.87,0,0,1.18-13.41-1.34-19.77-2.34-5.92-3.67-8.65-.72-18.33.21-.71.46-1.47.72-2.26.18-.55.36-1.11.53-1.68,3.63-11.63,6.64-29.17,8.29-46.56a136.59,136.59,0,0,0,0-22.68S276.77,171,282,170.34Z"/>
            <g>
              <path class="cls-14" d="M175.89,159.73s18.2-.67,34.67-11.16c0,0,23.6,17.75,41.3,20.16,0,0-10.54,79.73-60.55,79.73C191.31,248.46,154.6,234.45,175.89,159.73Z"/>
              <path class="cls-7" d="M175.89,159.73a69,69,0,0,0,33.45-10.28s22.11,17.39,39.45,19.76c0,0-10.33,78.11-59.32,78.11C189.47,247.32,155,232.93,175.89,159.73Z"/>
              <path class="cls-19" d="M238.46,174.61s-8.27,62.47-47.23,63.61c-.36,0-.72,0-1.09,0l0,0c-1.27-.57-27.59-13.13-11-71.32a56.24,56.24,0,0,0,27.24-8.37h0C206.89,159,224.56,172.72,238.46,174.61Z"/>
              <path class="cls-20" d="M190.09,238.22c-1.27-.57-27.59-13.13-11-71.32a56.24,56.24,0,0,0,27.24-8.37c-9.13,9-24.19,11.81-24.19,11.81C164.34,218.88,188.82,237.31,190.09,238.22Z"/>
              <path class="cls-21" d="M238.46,174.61s-8.27,62.47-47.23,63.61c37.12-10.5,37.37-59.92,37.37-59.92-8.47-3.14-21.83-19.24-22.26-19.76C206.89,159,224.56,172.72,238.46,174.61Z"/>
              <polygon class="cls-7" points="212.47 195.71 202.02 193.59 204.5 181.38 198.78 180.22 196.31 192.44 185.86 190.32 184.5 197.01 194.95 199.12 192.48 211.34 198.2 212.49 200.67 200.28 211.12 202.4 212.47 195.71"/>
            </g>
            <path class="cls-22" d="M300.9,249.35s17.42,1.23,24.9-5.69l2.34,7.28s-12.82,6.1-26.54,4.94Z"/>
            <path class="cls-22" d="M268.81,245.64l-2.11,4.3a36.53,36.53,0,0,1-5.43-2.51c.21-.71.46-1.47.72-2.26.18-.55.36-1.11.53-1.68A13.13,13.13,0,0,0,268.81,245.64Z"/>
            <path class="cls-14" d="M323.86,201.05s-9.37-18.17-10.16-26.8c0,0-2.72,20.79,8,36.22C321.66,210.47,320.86,204.06,323.86,201.05Z"/>
            <polygon class="cls-14" points="292.67 223.02 307.03 198.39 300.9 190.55 307.03 187 304.51 169.07 308.73 188.48 303.63 190.84 310.03 199.7 292.67 223.02"/>
            <polygon class="cls-14" points="282.03 170.34 274.26 188.04 277.68 190.25 274.26 194.97 275.43 223.64 272.32 193.94 275.6 190.55 272.05 188.04 282.03 170.34"/>
            <path class="cls-16" d="M316.55,92.46s-6.9-1.14-7.23-4.58,2.84-5.66,7.23-6,5.72,1,3.95,2.53a19.1,19.1,0,0,1-5.23,2.73s7-.76,8.39,2.58Z"/>
            <path class="cls-16" d="M312.93,76.39s-1.12-2.88.62-3.62S316.48,74,316.48,74s-.6-2.44,1.17-3.1,3.1,1.37,3.1,1.37-.51-2,2-2.85,3.5,2.41,3.5,2.41Z"/>
          </g>
        </g>
        <g>
          <path class="cls-6" d="M386.12,142.28h75.34a5.18,5.18,0,0,1,5.18,5.18v7.73a2,2,0,0,1-2,2H382.93a2,2,0,0,1-2-2v-7.73A5.18,5.18,0,0,1,386.12,142.28Z" transform="translate(54.09 -105.89) rotate(15.2)"/>
          <path class="cls-7" d="M382.38,156.83H460a0,0,0,0,1,0,0v2.42a2.46,2.46,0,0,1-2.46,2.46H384.84a2.46,2.46,0,0,1-2.46-2.46v-2.42A0,0,0,0,1,382.38,156.83Z" transform="translate(785.9 423.41) rotate(-164.8)"/>
          <path class="cls-7" d="M430.21,264.28l-69.93-19a7.63,7.63,0,0,1-5.36-9.36l21.94-80.73a5.25,5.25,0,0,1,6.45-3.69l74.51,20.24a5.26,5.26,0,0,1,3.69,6.45l-21.94,80.73A7.61,7.61,0,0,1,430.21,264.28Z"/>
          <rect class="cls-8" x="363.78" y="178.3" width="87.72" height="61.76" transform="translate(69.11 -99.57) rotate(15.2)"/>
          <polygon class="cls-14" points="458.66 169.47 383.31 151.5 458.02 171.8 458.66 169.47"/>
          <rect class="cls-14" x="397.85" y="196.41" width="2.69" height="87.72" transform="translate(62.65 562.49) rotate(-74.8)"/>
          <g>
            <path class="cls-7" d="M380.49,218.19,375.78,225l-2.29-.62-.62-8.24,1.95.53.32,6.17,3.41-5.16Z"/>
            <path class="cls-7" d="M386.39,226.43l-2.8-.76-.81,1.21-1.92-.52,4.76-6.78,2.12.58.68,8.25-1.94-.53Zm-.09-1.54-.18-3-1.67,2.5Z"/>
            <path class="cls-7" d="M393.12,223.51a3.55,3.55,0,0,1,1.71-1,4.13,4.13,0,0,1,2.09.05,3.85,3.85,0,0,1,2.1,1.33,3.58,3.58,0,0,1,.75,2.27l-2-.55a1.67,1.67,0,0,0-.44-.89,1.89,1.89,0,0,0-.87-.5,1.82,1.82,0,0,0-1.53.22,2.72,2.72,0,0,0-.85,3.15,1.83,1.83,0,0,0,1.21,1,1.89,1.89,0,0,0,1,0,1.69,1.69,0,0,0,.83-.55l2,.55a3.46,3.46,0,0,1-1.79,1.57,3.87,3.87,0,0,1-2.48.08,4,4,0,0,1-1.83-1,3.58,3.58,0,0,1-1-1.71,4.49,4.49,0,0,1,1.08-4Z"/>
            <path class="cls-7" d="M403.42,226.31a3.51,3.51,0,0,1,1.71-1,4,4,0,0,1,2.08.05,3.78,3.78,0,0,1,2.1,1.33,3.47,3.47,0,0,1,.75,2.27l-2-.55a1.67,1.67,0,0,0-.44-.89,1.89,1.89,0,0,0-.87-.5,1.82,1.82,0,0,0-1.53.22,2.32,2.32,0,0,0-.95,1.43,2.35,2.35,0,0,0,.09,1.71,1.86,1.86,0,0,0,1.21,1,1.92,1.92,0,0,0,1,0,1.72,1.72,0,0,0,.83-.54l2,.55a3.46,3.46,0,0,1-1.79,1.57,3.9,3.9,0,0,1-2.49.08,4.13,4.13,0,0,1-1.82-1,3.56,3.56,0,0,1-1-1.72,4.1,4.1,0,0,1,.05-2.11A4.24,4.24,0,0,1,403.42,226.31Z"/>
            <path class="cls-7" d="M415.85,227.8l-2,7.51-1.83-.5,2-7.51Z"/>
            <path class="cls-7" d="M424,238.08l-1.83-.5-1.8-5.47-1.26,4.64-1.83-.5,2-7.51,1.83.5,1.8,5.48,1.26-4.65,1.83.49Z"/>
            <path class="cls-7" d="M430.94,233.47l-.41,1.52,2.45.67-.38,1.41-2.45-.67-.45,1.65,2.77.76-.4,1.46-4.6-1.25,2-7.51,4.61,1.25-.4,1.46Z"/>
          </g>
          <path class="cls-7" d="M424.74,205.2a15.54,15.54,0,1,1-10.92-19.08A15.54,15.54,0,0,1,424.74,205.2Z"/>
          <g>
            <rect class="cls-8" x="407.8" y="190.06" width="4.05" height="22.18" transform="translate(108.25 543.88) rotate(-74.8)"/>
            <rect class="cls-8" x="398.73" y="199.12" width="22.18" height="4.05" transform="translate(108.25 543.88) rotate(-74.8)"/>
          </g>
        </g>
        <g>
          <g>
            <path class="cls-8" d="M133.53,315.56a37.82,37.82,0,1,1-71.59-17v0a37.81,37.81,0,0,1,71.59,17Z"/>
            <g>
              <path class="cls-8" d="M88.8,285.44c.18-.52,3.33-43.59,3.33-43.59H97.2l5.43,43.59Z"/>
              <path class="cls-8" d="M99.61,243.78H90.77a2,2,0,0,1-2-2h0a2,2,0,0,1,2-2h8.84a2,2,0,0,1,2,2h0A2,2,0,0,1,99.61,243.78Z"/>
            </g>
            <g>
              <path class="cls-8" d="M69.53,299.15c-.24-.5-28.47-33.18-28.47-33.18l3.59-3.59,34.66,27Z"/>
              <path class="cls-8" d="M47.72,262l-6.26,6.26a2,2,0,0,1-2.78,0h0a2,2,0,0,1,0-2.79l6.25-6.25a2,2,0,0,1,2.79,0h0A2,2,0,0,1,47.72,262Z"/>
            </g>
            <g>
              <path class="cls-8" d="M65.6,322.47c-.52-.18-43.59-3.33-43.59-3.33v-5.08l43.59-5.42Z"/>
              <path class="cls-8" d="M23.94,311.66v8.84a2,2,0,0,1-2,2h0a2,2,0,0,1-2-2v-8.84a2,2,0,0,1,2-2h0A2,2,0,0,1,23.94,311.66Z"/>
            </g>
            <g>
              <path class="cls-8" d="M79.31,341.73c-.49.25-33.17,28.47-33.17,28.47l-3.59-3.59,27-34.66Z"/>
              <path class="cls-8" d="M42.21,363.55l6.25,6.25a2,2,0,0,1,0,2.79h0a2,2,0,0,1-2.79,0l-6.25-6.25a2,2,0,0,1,0-2.79h0A2,2,0,0,1,42.21,363.55Z"/>
            </g>
            <g>
              <path class="cls-8" d="M102.63,345.66c-.18.53-3.33,43.59-3.33,43.59H94.23L88.8,345.66Z"/>
              <path class="cls-8" d="M91.82,387.33h8.84a2,2,0,0,1,2,2h0a2,2,0,0,1-2,2H91.82a2,2,0,0,1-2-2h0A2,2,0,0,1,91.82,387.33Z"/>
            </g>
            <g>
              <path class="cls-8" d="M121.9,332c.24.5,28.47,33.18,28.47,33.18l-3.59,3.59-34.66-27Z"/>
              <path class="cls-8" d="M143.71,369.06l6.26-6.25a2,2,0,0,1,2.78,0h0a2,2,0,0,1,0,2.78l-6.25,6.25a2,2,0,0,1-2.79,0h0A2,2,0,0,1,143.71,369.06Z"/>
            </g>
            <g>
              <path class="cls-8" d="M125.83,308.64c.52.17,43.59,3.32,43.59,3.32V317l-43.59,5.43Z"/>
              <rect class="cls-8" x="167.49" y="308.64" width="3.94" height="12.78" rx="1.97"/>
            </g>
            <g>
              <path class="cls-8" d="M112.12,289.37c.49-.25,33.17-28.47,33.17-28.47l3.59,3.59-27,34.66Z"/>
              <path class="cls-8" d="M149.22,267.55,143,261.3a2,2,0,0,1,0-2.78h0a2,2,0,0,1,2.79,0l6.25,6.25a2,2,0,0,1,0,2.78h0A2,2,0,0,1,149.22,267.55Z"/>
            </g>
            <path class="cls-23" d="M123.1,341.61a37.81,37.81,0,0,1-65.2-26.05,37.24,37.24,0,0,1,4-17c-.36,7.73,2.88,17.19,20.82,17.5,30.47.53,27.21-1.1,32.91,15.88A18,18,0,0,0,123.1,341.61Z"/>
            <circle class="cls-23" cx="87.31" cy="296.12" r="8.4" transform="translate(-112.84 61.07) rotate(-23.99)"/>
            <path class="cls-23" d="M109.19,301.72a5.08,5.08,0,1,1-5.07-5.07A5.07,5.07,0,0,1,109.19,301.72Z"/>
          </g>
          <g>
            <path class="cls-8" d="M279.52,416.86a18.89,18.89,0,1,1-30.38,20.68h0a18.89,18.89,0,0,1,30.39-20.67Z"/>
            <g>
              <path class="cls-8" d="M253.35,423.21c-.14-.24-14.95-15.91-14.95-15.91l1.71-1.87L258,418.11Z"/>
              <path class="cls-8" d="M241.63,405.19l-3,3.26a1,1,0,0,1-1.39.06h0a1,1,0,0,1-.06-1.39l3-3.26a1,1,0,0,1,1.39-.06h0A1,1,0,0,1,241.63,405.19Z"/>
            </g>
            <g>
              <path class="cls-8" d="M251.91,434.93c-.26-.07-21.82-.68-21.82-.68l-.11-2.53L251.6,428Z"/>
              <path class="cls-8" d="M230.88,430.48l.2,4.41a1,1,0,0,1-.94,1h0a1,1,0,0,1-1-.93l-.2-4.41a1,1,0,0,1,.93-1h0A1,1,0,0,1,230.88,430.48Z"/>
            </g>
            <g>
              <path class="cls-8" d="M259.19,444.24c-.25.13-15.92,14.95-15.92,14.95l-1.87-1.71,12.69-17.9Z"/>
              <path class="cls-8" d="M241.16,456l3.26,3a1,1,0,0,1,.07,1.39h0a1,1,0,0,1-1.39.06l-3.26-3a1,1,0,0,1-.07-1.39h0A1,1,0,0,1,241.16,456Z"/>
            </g>
            <g>
              <path class="cls-8" d="M270.91,445.67c-.08.27-.68,21.83-.68,21.83l-2.53.11L264,446Z"/>
              <path class="cls-8" d="M266.45,466.71l4.41-.2a1,1,0,0,1,1,.93h0a1,1,0,0,1-.94,1l-4.41.2a1,1,0,0,1-1-.94h0A1,1,0,0,1,266.45,466.71Z"/>
            </g>
            <g>
              <path class="cls-8" d="M280.21,438.4c.14.24,15,15.91,15,15.91l-1.71,1.88-17.9-12.69Z"/>
              <path class="cls-8" d="M291.93,456.42l3-3.26a1,1,0,0,1,1.39-.06h0a1,1,0,0,1,.06,1.39l-3,3.26a1,1,0,0,1-1.39.06h0A1,1,0,0,1,291.93,456.42Z"/>
            </g>
            <g>
              <path class="cls-8" d="M281.65,426.68c.26.07,21.82.68,21.82.68l.12,2.53L282,433.58Z"/>
              <path class="cls-8" d="M302.68,431.14l-.2-4.41a1,1,0,0,1,.94-1h0a1,1,0,0,1,1,.94l.2,4.41a1,1,0,0,1-.94,1h0A1,1,0,0,1,302.68,431.14Z"/>
            </g>
            <g>
              <path class="cls-8" d="M274.38,417.37c.24-.13,15.91-14.95,15.91-14.95l1.87,1.71L279.47,422Z"/>
              <path class="cls-8" d="M292.4,405.65l-3.26-3a1,1,0,0,1-.06-1.39h0a1,1,0,0,1,1.39-.07l3.26,3a1,1,0,0,1,.06,1.39h0A1,1,0,0,1,292.4,405.65Z"/>
            </g>
            <g>
              <path class="cls-8" d="M262.65,415.94c.08-.27.68-21.83.68-21.83l2.54-.11,3.68,21.63Z"/>
              <path class="cls-8" d="M267.11,394.91l-4.41.2a1,1,0,0,1-1-.94h0a1,1,0,0,1,.94-1l4.41-.2a1,1,0,0,1,1,.94h0A1,1,0,0,1,267.11,394.91Z"/>
            </g>
            <path class="cls-23" d="M285.61,429.49a18.88,18.88,0,0,1-36.47,8.05c2.73,2.73,7.31,4.73,13.47-1.78,10.46-11.06,8.76-10.41,16.94-6.79A9,9,0,0,0,285.61,429.49Z"/>
            <path class="cls-23" d="M259.62,424.26a4.2,4.2,0,1,1-5.93.27A4.19,4.19,0,0,1,259.62,424.26Z"/>
            <path class="cls-23" d="M266.22,421.18a2.53,2.53,0,1,1-3.58.16A2.52,2.52,0,0,1,266.22,421.18Z"/>
          </g>
          <g>
            <path class="cls-8" d="M446,309.65a21.57,21.57,0,1,1-34.71,23.61h0A21.58,21.58,0,0,1,446,309.65Z"/>
            <g>
              <path class="cls-8" d="M416.09,316.9c-.15-.28-17.08-18.18-17.08-18.18l2-2.14,20.44,14.49Z"/>
              <path class="cls-8" d="M402.7,296.31,399.3,300a1.12,1.12,0,0,1-1.59.07h0a1.11,1.11,0,0,1-.07-1.58l3.4-3.73a1.12,1.12,0,0,1,1.59-.07h0A1.12,1.12,0,0,1,402.7,296.31Z"/>
            </g>
            <g>
              <path class="cls-8" d="M414.45,330.29c-.3-.09-24.93-.78-24.93-.78l-.13-2.89,24.71-4.21Z"/>
              <path class="cls-8" d="M390.42,325.2l.23,5a1.12,1.12,0,0,1-1.07,1.17h0a1.11,1.11,0,0,1-1.17-1.07l-.23-5a1.13,1.13,0,0,1,1.07-1.18h0A1.13,1.13,0,0,1,390.42,325.2Z"/>
            </g>
            <g>
              <path class="cls-8" d="M422.76,340.92c-.28.15-18.18,17.08-18.18,17.08l-2.14-2,14.49-20.45Z"/>
              <path class="cls-8" d="M402.17,354.31l3.72,3.4a1.13,1.13,0,0,1,.08,1.59h0a1.13,1.13,0,0,1-1.59.07l-3.73-3.4a1.13,1.13,0,0,1-.07-1.59h0A1.12,1.12,0,0,1,402.17,354.31Z"/>
            </g>
            <g>
              <path class="cls-8" d="M436.15,342.56c-.09.3-.78,24.93-.78,24.93l-2.89.13-4.21-24.71Z"/>
              <path class="cls-8" d="M431.06,366.58l5-.22a1.12,1.12,0,0,1,1.17,1.07h0a1.11,1.11,0,0,1-1.07,1.17l-5,.23a1.12,1.12,0,0,1-1.17-1.07h0A1.13,1.13,0,0,1,431.06,366.58Z"/>
            </g>
            <g>
              <path class="cls-8" d="M446.78,334.25c.15.28,17.08,18.18,17.08,18.18l-1.95,2.14-20.45-14.49Z"/>
              <path class="cls-8" d="M460.17,354.84l3.4-3.72a1.13,1.13,0,0,1,1.59-.08h0a1.12,1.12,0,0,1,.07,1.59l-3.4,3.73a1.13,1.13,0,0,1-1.59.07h0A1.12,1.12,0,0,1,460.17,354.84Z"/>
            </g>
            <g>
              <path class="cls-8" d="M448.42,320.86c.31.08,24.93.77,24.93.77l.13,2.9-24.7,4.21Z"/>
              <path class="cls-8" d="M472.45,326l-.23-5a1.12,1.12,0,0,1,1.07-1.17h0a1.13,1.13,0,0,1,1.18,1.07l.22,5a1.12,1.12,0,0,1-1.07,1.17h0A1.12,1.12,0,0,1,472.45,326Z"/>
            </g>
            <g>
              <path class="cls-8" d="M440.11,310.23c.28-.15,18.18-17.08,18.18-17.08l2.14,2-14.49,20.45Z"/>
              <path class="cls-8" d="M460.7,296.84l-3.72-3.4a1.12,1.12,0,0,1-.07-1.59h0a1.11,1.11,0,0,1,1.58-.07l3.73,3.4a1.12,1.12,0,0,1,.07,1.59h0A1.12,1.12,0,0,1,460.7,296.84Z"/>
            </g>
            <g>
              <path class="cls-8" d="M426.72,308.59c.09-.31.78-24.93.78-24.93l2.89-.13,4.21,24.7Z"/>
              <path class="cls-8" d="M431.81,284.56l-5,.23a1.12,1.12,0,0,1-1.17-1.07h0a1.13,1.13,0,0,1,1.07-1.18l5-.22a1.11,1.11,0,0,1,1.17,1.07h0A1.12,1.12,0,0,1,431.81,284.56Z"/>
            </g>
            <path class="cls-23" d="M453,324.07a21.57,21.57,0,0,1-41.67,9.19c3.12,3.13,8.35,5.41,15.39-2,11.95-12.63,10-11.89,19.36-7.75A10.3,10.3,0,0,0,453,324.07Z"/>
            <path class="cls-23" d="M423.25,318.09a4.8,4.8,0,1,1-6.77.31A4.8,4.8,0,0,1,423.25,318.09Z"/>
            <path class="cls-23" d="M430.8,314.57a2.9,2.9,0,1,1-4.09.19A2.91,2.91,0,0,1,430.8,314.57Z"/>
          </g>
          <g>
            <path class="cls-8" d="M166.18,51.54A16,16,0,1,1,140.51,69h0a16,16,0,0,1,25.68-17.47Z"/>
            <g>
              <path class="cls-8" d="M144.06,56.9c-.11-.2-12.63-13.44-12.63-13.44l1.45-1.58L148,52.6Z"/>
              <path class="cls-8" d="M134.16,41.68l-2.51,2.75a.84.84,0,0,1-1.18,0h0a.82.82,0,0,1-.05-1.17l2.51-2.75a.84.84,0,0,1,1.18-.06h0A.84.84,0,0,1,134.16,41.68Z"/>
            </g>
            <g>
              <path class="cls-8" d="M142.85,66.81c-.22-.07-18.44-.58-18.44-.58l-.1-2.14L142.59,61Z"/>
              <path class="cls-8" d="M125.08,63l.17,3.73a.84.84,0,0,1-.79.87h0a.84.84,0,0,1-.87-.8l-.17-3.72a.83.83,0,0,1,.79-.87h0A.83.83,0,0,1,125.08,63Z"/>
            </g>
            <g>
              <path class="cls-8" d="M149,74.67c-.21.11-13.45,12.63-13.45,12.63L134,85.86l10.72-15.13Z"/>
              <path class="cls-8" d="M133.77,84.57l2.75,2.52a.82.82,0,0,1,0,1.17h0a.82.82,0,0,1-1.17.06l-2.75-2.52a.83.83,0,0,1-.06-1.17h0A.84.84,0,0,1,133.77,84.57Z"/>
            </g>
            <g>
              <path class="cls-8" d="M158.9,75.88c-.06.23-.57,18.44-.57,18.44l-2.14.1-3.12-18.27Z"/>
              <path class="cls-8" d="M155.13,93.65l3.73-.16a.83.83,0,0,1,.87.79h0a.84.84,0,0,1-.79.87l-3.73.16a.83.83,0,0,1-.87-.79h0A.84.84,0,0,1,155.13,93.65Z"/>
            </g>
            <g>
              <path class="cls-8" d="M166.76,69.74c.12.2,12.63,13.44,12.63,13.44L178,84.76,162.82,74.05Z"/>
              <path class="cls-8" d="M176.66,85l2.52-2.76a.82.82,0,0,1,1.17,0h0a.83.83,0,0,1,.06,1.17l-2.52,2.76a.82.82,0,0,1-1.17,0h0A.83.83,0,0,1,176.66,85Z"/>
            </g>
            <g>
              <path class="cls-8" d="M168,59.83c.22.07,18.43.58,18.43.58l.1,2.14-18.27,3.11Z"/>
              <path class="cls-8" d="M185.74,63.6l-.16-3.73a.82.82,0,0,1,.79-.86h0a.83.83,0,0,1,.87.79l.17,3.73a.83.83,0,0,1-.8.86h0A.84.84,0,0,1,185.74,63.6Z"/>
            </g>
            <g>
              <path class="cls-8" d="M161.83,52c.2-.11,13.44-12.63,13.44-12.63l1.59,1.45L166.14,55.91Z"/>
              <path class="cls-8" d="M177.06,42.07l-2.76-2.52a.82.82,0,0,1-.05-1.17h0a.84.84,0,0,1,1.18-.05l2.75,2.51a.84.84,0,0,1,0,1.18h0A.82.82,0,0,1,177.06,42.07Z"/>
            </g>
            <g>
              <path class="cls-8" d="M151.93,50.76c.06-.23.57-18.44.57-18.44l2.14-.1,3.12,18.28Z"/>
              <path class="cls-8" d="M155.69,33l-3.73.17a.83.83,0,0,1-.86-.8h0a.83.83,0,0,1,.79-.86l3.73-.17a.82.82,0,0,1,.86.79h0A.83.83,0,0,1,155.69,33Z"/>
            </g>
            <path class="cls-23" d="M171.32,62.21A15.95,15.95,0,0,1,144.65,75.1,15.68,15.68,0,0,1,140.51,69c2.3,2.31,6.17,4,11.38-1.5,8.83-9.34,7.4-8.8,14.31-5.74A7.65,7.65,0,0,0,171.32,62.21Z"/>
            <path class="cls-23" d="M149.36,57.79a3.55,3.55,0,1,1-5,.23A3.54,3.54,0,0,1,149.36,57.79Z"/>
            <path class="cls-23" d="M154.94,55.19a2.14,2.14,0,1,1-2.89,3.16,2.14,2.14,0,1,1,2.89-3.16Z"/>
          </g>
        </g>
      </g>
    </g>
  </g>
</svg>
