<svg xmlns="http://www.w3.org/2000/svg" xmlns:xlink="http://www.w3.org/1999/xlink" width="500" height="500" viewBox="0 0 500 500">
  <defs>
    <style>
      .cls-1 {
        fill: none;
      }

      .cls-2 {
        fill: #fff;
      }

      .cls-3 {
        fill: #c7c0f2;
      }

      .cls-4 {
        fill: #6f57e4;
      }

      .cls-5 {
        fill: #8f85e8;
      }

      .cls-6 {
        clip-path: url(#clip-path);
      }

      .cls-7 {
        fill: #6eeaed;
      }

      .cls-8 {
        fill: #ffbdc8;
      }

      .cls-9 {
        fill: #1d1d1b;
      }

      .cls-10 {
        fill: #d8dcea;
      }

      .cls-11 {
        fill: #e57a91;
      }

      .cls-12 {
        fill: #3a68e8;
      }

      .cls-13 {
        fill: #4563ce;
      }

      .cls-14 {
        fill: #bbeaea;
      }

      .cls-15 {
        fill: #5abfbf;
      }

      .cls-16 {
        fill: #d3d3d3;
      }

      .cls-17 {
        fill: #758aef;
      }
    </style>
    <clipPath id="clip-path">
      <path class="cls-1" d="M430,254.84c0,110.29-89.41,199.7-199.7,199.7A199,199,0,0,1,99.41,405.65a39.39,39.39,0,0,0-8.79,14.64c-2.2,6.62-1.75,14.72-7.06,19.93C78.73,445,71.37,446,65,444.31c-7.08-1.87-13.29-6.48-18.52-11.46-10-9.51-16.8-22-20.65-35.1-4.26-14.6-4.77-29.95-2.75-45,2.24-16.72,7.46-32.89,13.67-48.51l0,0a200.11,200.11,0,0,1-6.16-49.4c0-110.29,89.41-199.7,199.7-199.7S430,144.55,430,254.84Z"/>
    </clipPath>
  </defs>
  <g id="BACKGROUND">
    <rect class="cls-2" width="500" height="500"/>
  </g>
  <g id="OBJECTS">
    <g>
      <circle class="cls-3" cx="230.32" cy="254.83" r="199.7"/>
      <g>
        <g>
          <circle class="cls-4" cx="365.86" cy="76.68" r="22.21"/>
          <path class="cls-4" d="M369.89,45.7a5.94,5.94,0,1,0-7.75,5.64c.12,2.26.22,4.53.26,6.8a2.29,2.29,0,0,0,2.48,2.08A2.33,2.33,0,0,0,367,57.74q-.06-3.41-.26-6.8A5.92,5.92,0,0,0,369.89,45.7Z"/>
          <path class="cls-4" d="M349.88,60.81l-4.77-2.34a2.34,2.34,0,0,0-1.78-.07,2.3,2.3,0,0,0-1.27,1.16,2.33,2.33,0,0,0,1.09,3L347.92,65a2.38,2.38,0,0,0,1.78.07A2.28,2.28,0,0,0,351,63.85,2.32,2.32,0,0,0,349.88,60.81Z"/>
          <path class="cls-4" d="M347.75,77a2.34,2.34,0,0,0-.81-1.55,2.2,2.2,0,0,0-1.67-.53c-2.85.63-5.72,1.2-8.59,1.71a2.35,2.35,0,0,0-2.09,2.48,2.31,2.31,0,0,0,2.48,2.08q4.32-.75,8.6-1.71a2.48,2.48,0,0,0,1.55-.81A2.35,2.35,0,0,0,347.75,77Z"/>
          <path class="cls-4" d="M352.57,90.37a1.69,1.69,0,0,0-.34-.82,2.31,2.31,0,0,0-1.46-.93A2.28,2.28,0,0,0,349,89l-3.21,2.73a1.73,1.73,0,0,0-.59.64,1.82,1.82,0,0,0-.34.81,1.86,1.86,0,0,0,0,.91,1.7,1.7,0,0,0,.35.83,2.29,2.29,0,0,0,1.45.93,2.24,2.24,0,0,0,1.74-.39l3.21-2.72a2.53,2.53,0,0,0,.93-1.45A1.69,1.69,0,0,0,352.57,90.37Z"/>
          <path class="cls-4" d="M369.23,98a2.29,2.29,0,0,0-4.58.16l.24,7a2.29,2.29,0,1,0,4.57-.16C369.38,102.69,369.31,100.34,369.23,98Z"/>
          <path class="cls-4" d="M388.37,87.21l-.32-.49a2.3,2.3,0,0,0-1-.66c-1.86-1-3.75-1.82-5.69-2.59a2.32,2.32,0,0,0-2.94,1.38,2.35,2.35,0,0,0,1.38,2.93q2.91,1.16,5.69,2.58a2.25,2.25,0,0,0,1.78-.09A2.33,2.33,0,0,0,388.46,89,2.29,2.29,0,0,0,388.37,87.21Z"/>
          <path class="cls-4" d="M395.22,66.91a2.26,2.26,0,0,0-1.16-1.27,2.21,2.21,0,0,0-1.78-.08l-7.55,3.79a2.48,2.48,0,0,0-1.27,1.16,2.28,2.28,0,0,0,1.09,3,2.21,2.21,0,0,0,1.78.08l7.55-3.78a2.54,2.54,0,0,0,1.27-1.17A2.34,2.34,0,0,0,395.22,66.91Z"/>
          <path class="cls-4" d="M383.35,52.68a2.29,2.29,0,0,0-4.22-.18q-1.29,2.69-2.76,5.26a2.31,2.31,0,0,0-.08,1.77,2.3,2.3,0,0,0,2.95,1.35,2.58,2.58,0,0,0,1.27-1.17c1-1.71,1.9-3.47,2.76-5.25A2.34,2.34,0,0,0,383.35,52.68Z"/>
          <circle class="cls-5" cx="343.34" cy="59.43" r="4.95"/>
          <circle class="cls-5" cx="334.32" cy="78.74" r="4.6"/>
          <circle class="cls-5" cx="344.31" cy="95.88" r="4.44"/>
          <circle class="cls-5" cx="366.69" cy="109.3" r="8.13"/>
          <circle class="cls-5" cx="389.15" cy="90.34" r="5.45"/>
          <circle class="cls-5" cx="398.84" cy="64.87" r="8.35"/>
          <circle class="cls-5" cx="382.88" cy="51.1" r="6.01"/>
          <circle class="cls-5" cx="364.81" cy="67.22" r="4.4"/>
          <circle class="cls-5" cx="355.77" cy="76.24" r="2.23"/>
          <circle class="cls-5" cx="371.9" cy="74.84" r="2.44"/>
          <circle class="cls-5" cx="363.95" cy="45.78" r="6.01"/>
          <circle class="cls-5" cx="363.95" cy="84.9" r="7.33"/>
        </g>
        <circle class="cls-5" cx="420.98" cy="320.2" r="14.61"/>
        <circle class="cls-5" cx="383.37" cy="317.8" r="9.34"/>
        <circle class="cls-5" cx="406.51" cy="285.8" r="13.8"/>
        <circle class="cls-5" cx="299.25" cy="216.87" r="8.09"/>
        <g>
          <path class="cls-5" d="M436,176.26c2.11-2.69,4.26-5.34,6.52-7.9a4.89,4.89,0,0,0-.59-6.83,5,5,0,0,0-6.84.59c-2.22,2.52-4.34,5.12-6.41,7.76a49.17,49.17,0,0,0-25-9.07c-.68-6.25-1.17-12.52-1.42-18.81-.4-10-15.86-8.62-15.46,1.35.24,6.26.73,12.49,1.41,18.71a49.34,49.34,0,0,0-20.83,10.84c-4.17-3.77-8.29-7.6-12.27-11.58-1.8-1.8-5.33-1.36-6.83.6a5,5,0,0,0,.6,6.83c3.85,3.85,7.82,7.56,11.86,11.22A49.47,49.47,0,1,0,436,176.26Z"/>
          <circle class="cls-4" cx="395.21" cy="135.84" r="17.8"/>
          <circle class="cls-4" cx="350.99" cy="162.27" r="11.33"/>
          <circle class="cls-4" cx="442.8" cy="161.59" r="12"/>
          <circle class="cls-4" cx="412.26" cy="191.84" r="12.34"/>
          <circle class="cls-4" cx="398.53" cy="222.32" r="6.28"/>
          <circle class="cls-4" cx="385.23" cy="195.97" r="9.71"/>
          <path class="cls-5" d="M361.21,219.15a5,5,0,0,0-5.63-3.93q-6.87.78-13.72,1.58a4.87,4.87,0,0,0-3.93,5.62,5,5,0,0,0,5.63,3.93q6.85-.81,13.72-1.58a4.87,4.87,0,0,0,3.09-2A5,5,0,0,0,361.21,219.15Z"/>
          <path class="cls-5" d="M384.32,251.08a4.85,4.85,0,0,0-8.93-.38q-2.72,6.15-5.41,12.3a5,5,0,0,0-.16,3.76,4.85,4.85,0,0,0,8.93.38q2.7-6.15,5.41-12.29A5.12,5.12,0,0,0,384.32,251.08Z"/>
          <path class="cls-5" d="M444.29,251.48q-3.44-4.6-7.31-8.85a3.73,3.73,0,0,0-1.37-1.25,3.53,3.53,0,0,0-1.71-.72,5,5,0,0,0-3.69.81,4.91,4.91,0,0,0-2,3.08,4.65,4.65,0,0,0,.81,3.68c2.58,2.83,5,5.79,7.31,8.85a5,5,0,0,0,3.08,2,4.94,4.94,0,0,0,3.68-.81,4.89,4.89,0,0,0,2-3.08A4.94,4.94,0,0,0,444.29,251.48Z"/>
          <path class="cls-5" d="M466.08,200.37a4.9,4.9,0,0,0-2.47-2.69,5.3,5.3,0,0,0-3.76-.16c-.92.27-1.85.5-2.77.72a51.77,51.77,0,0,1-6.78,1,5,5,0,0,0-3.29,1.71,4.85,4.85,0,0,0,4.14,7.95,57.75,57.75,0,0,0,12.08-2.28,4.87,4.87,0,0,0,2.69-2.47A4.93,4.93,0,0,0,466.08,200.37Z"/>
          <circle class="cls-4" cx="332.43" cy="221.7" r="16.55"/>
          <circle class="cls-4" cx="370.8" cy="272.08" r="13.08"/>
          <circle class="cls-4" cx="445.86" cy="260.59" r="14.36"/>
          <circle class="cls-4" cx="472.3" cy="202.98" r="16.72"/>
          <circle class="cls-4" cx="377.41" cy="228.18" r="8.55"/>
        </g>
        <g>
          <circle class="cls-4" cx="300.46" cy="137.03" r="25.74"/>
          <path class="cls-4" d="M305.13,101.13a6.89,6.89,0,1,0-9,6.53c.14,2.63.26,5.25.3,7.88a2.67,2.67,0,0,0,2.88,2.42,2.72,2.72,0,0,0,2.41-2.88c-.05-2.63-.16-5.25-.3-7.88A6.86,6.86,0,0,0,305.13,101.13Z"/>
          <path class="cls-4" d="M281.94,118.63l-5.53-2.7a2.77,2.77,0,0,0-2.06-.09,2.66,2.66,0,0,0-.21,4.89l5.54,2.7a2.65,2.65,0,1,0,2.26-4.8Z"/>
          <path class="cls-4" d="M279.47,137.34a2.68,2.68,0,0,0-.94-1.8,2.54,2.54,0,0,0-1.93-.61q-5,1.11-10,2a2.65,2.65,0,0,0,.46,5.28q5-.88,10-2a2.91,2.91,0,0,0,1.8-.94A2.68,2.68,0,0,0,279.47,137.34Z"/>
          <path class="cls-4" d="M285.06,152.89a1.91,1.91,0,0,0-.4-.95,2.71,2.71,0,0,0-1.68-1.08,2.62,2.62,0,0,0-2,.45l-3.72,3.15a3.06,3.06,0,0,0-1.08,1.69,2,2,0,0,0,0,1.06,2,2,0,0,0,.4.95,2.66,2.66,0,0,0,3.7.64l3.72-3.16a3.06,3.06,0,0,0,1.08-1.69A2,2,0,0,0,285.06,152.89Z"/>
          <path class="cls-4" d="M304.36,161.74a2.65,2.65,0,0,0-5.3.18l.27,8.15a2.65,2.65,0,0,0,5.3-.19Z"/>
          <path class="cls-4" d="M326.55,149.23l-.38-.56a2.56,2.56,0,0,0-1.11-.78q-3.22-1.65-6.6-3a2.67,2.67,0,0,0-3.39,1.59,2.71,2.71,0,0,0,1.59,3.4q3.36,1.34,6.59,3a2.67,2.67,0,0,0,3.3-3.66Z"/>
          <path class="cls-4" d="M334.49,125.71a2.74,2.74,0,0,0-1.36-1.48,2.55,2.55,0,0,0-2.06-.08l-8.75,4.38a2.89,2.89,0,0,0-1.47,1.35,2.73,2.73,0,0,0-.09,2.06,2.65,2.65,0,0,0,1.35,1.48,2.6,2.6,0,0,0,2.06.09l8.75-4.39a2.91,2.91,0,0,0,1.48-1.35A2.72,2.72,0,0,0,334.49,125.71Z"/>
          <path class="cls-4" d="M320.73,109.22a2.66,2.66,0,0,0-4.89-.21c-1,2.07-2.06,4.1-3.2,6.09a2.65,2.65,0,0,0,3.32,3.62,3,3,0,0,0,1.48-1.35q1.69-3,3.2-6.09A2.72,2.72,0,0,0,320.73,109.22Z"/>
          <circle class="cls-5" cx="274.37" cy="117.03" r="5.74"/>
          <circle class="cls-5" cx="263.92" cy="139.41" r="5.33"/>
          <circle class="cls-5" cx="275.49" cy="159.27" r="5.14"/>
          <circle class="cls-5" cx="301.42" cy="174.82" r="9.43"/>
          <circle class="cls-5" cx="327.45" cy="152.86" r="6.31"/>
          <circle class="cls-5" cx="338.67" cy="123.34" r="9.67"/>
          <circle class="cls-5" cx="320.18" cy="107.39" r="6.97"/>
          <circle class="cls-5" cx="299.25" cy="126.07" r="5.1"/>
          <circle class="cls-5" cx="288.77" cy="136.52" r="2.59"/>
          <circle class="cls-5" cx="307.46" cy="134.9" r="2.83"/>
          <circle class="cls-5" cx="298.24" cy="101.22" r="6.97"/>
          <circle class="cls-5" cx="298.24" cy="146.55" r="8.5"/>
        </g>
      </g>
      <g class="cls-6">
        <g>
          <g>
            <path class="cls-7" d="M32.63,384.38l.69,18.69s9.61,31,35.34,29.1l-11.49-43.8Z"/>
            <g>
              <path class="cls-2" d="M115.78,281.28,78.12,322.85,60.05,390.54l-30.16-6.77s13.28-79.08,20-97,37.21-62.65,50.47-76S142.32,190,142.32,190L144,229.51l23.6,5.78-6,20.48,42.4,33,15.14-43.3-7.2-8.43,10.21-12.83s-3-17.47-10.74-29c0,0,17.94,4.1,21.19,14.94,3.21,10.67,12.19,52.6,12.46,53.91l-15.53-29.24,15.54,71.32,28.9-6.75,13,18.34-44.51,20,6.67,130H86.37l27.17-120.26L115,305.12l18.79-43.7Z"/>
              <path d="M245.06,264.06v42.05l-15.54-71.32L245.05,264A0,0,0,0,1,245.06,264.06Z"/>
              <path d="M225.42,115c-6.47,1.6-13.5.89-20-1-4.84-1.38-9.57-3.36-14.59-3.69s-10.59,1.43-13,5.82c-1.5,2.68-1.62,5.88-2.27,8.88-.61,2.8-2,5.78-4.58,6.9-.39-2.1-1.91-7.26-7.35-7.08-6.79.25-11.8,16,0,20.72l-5.91,22.17a26.3,26.3,0,0,0-4.56-16.08c-3.6-5.17-9.11-9.1-11.45-14.94a22.73,22.73,0,0,1-1.17-10.58A25.54,25.54,0,0,1,145,113.36c2.73-3.66,7-6.32,11.6-6.35-2.93-3.28-3-8.47-.94-12.31s6.07-6.44,10.28-7.67a38.38,38.38,0,0,1,13-1c17.13.92,34.62,5.77,51.14,1.14,2.28-.65,4.7-1.47,7-.79,3.07.91,4.78,4.25,5.19,7.42,1,8.25-4.83,16.31-12.42,19.71A26,26,0,0,1,225.42,115Z"/>
              <path class="cls-8" d="M204.71,181.09a20.53,20.53,0,0,1-7.23,1.61c-8.64.49-17.68-3.4-22-5.6,0,0,8.49,14.47,24.32,18.08L196.6,207.1,193,220.48l-5.17-12.17L153,185.3l1.94-7.25,2.74-10.32,5.91-22.17c-11.8-4.7-6.79-20.47,0-20.72,5.44-.18,7,5,7.35,7.08,2.57-1.12,4-4.1,4.58-6.9.65-3,.77-6.2,2.27-8.88,2.44-4.39,8-6.16,13-5.82s9.75,2.31,14.59,3.69c6.47,1.85,13.5,2.56,20,1C225.78,154.81,218.07,175.31,204.71,181.09Z"/>
              <path class="cls-9" d="M224.4,127.22a2,2,0,0,1-1.16,2.51,2.13,2.13,0,0,1-1.51-.07.48.48,0,0,0-.17,0,17.71,17.71,0,0,0-4.39-.81,1.72,1.72,0,0,1-.86-.17l-.41-.27a1.89,1.89,0,0,1-.69-1.31,1.94,1.94,0,0,1,1.77-2.12,22.35,22.35,0,0,1,3.27.32,21.7,21.7,0,0,1,3.15.89A2,2,0,0,1,224.4,127.22Z"/>
              <path class="cls-10" d="M222.14,224.21,211.93,237l7.2,8.43L204,288.77l3.09-79.21a1.06,1.06,0,0,0,0-.25c0-.4.05-.82.05-1.25a23.94,23.94,0,0,0-8.51-19.1h0L198,185.3c5.54.64,10,4.66,13.44,9.88C219.09,206.74,222.14,224.21,222.14,224.21Z"/>
              <ellipse class="cls-9" cx="219.13" cy="135.82" rx="3" ry="3.89"/>
              <polygon class="cls-11" points="211.27 134.29 219.13 155.19 207.66 155.19 211.27 134.29"/>
              <path class="cls-12" d="M198.64,189a23.94,23.94,0,0,1,8.51,19.1l-.05,1.25a1.06,1.06,0,0,1,0,.25,26.32,26.32,0,0,1-1.65,7.67,15.35,15.35,0,0,0-8.83-10.13l3.17-11.92L198.62,189Z"/>
              <path class="cls-13" d="M207.08,209.56,204,288.77,153,185.3l22.41,39.63s-1.46-13.49,12.4-16.62L193,220.48l3.58-13.38a15.35,15.35,0,0,1,8.83,10.13A26.32,26.32,0,0,0,207.08,209.56Z"/>
              <polygon class="cls-10" points="153.04 185.3 203.99 288.77 161.59 255.76 167.61 235.29 144.01 229.51 142.32 190 154.98 178.05 153.04 185.3"/>
              <path class="cls-9" d="M201,126.22a2,2,0,0,1-2,1.88,18,18,0,0,0-1.94,0c-.31,0-.62,0-.93,0h-.08l-.46.05a17.68,17.68,0,0,0-3.67.95,2,2,0,0,1-2.11-2.94,2.09,2.09,0,0,1,1.2-.85,19.64,19.64,0,0,1,8.11-1.14A2,2,0,0,1,201,126.22Z"/>
              <path d="M198.62,189l1.15,6.22c-15.83-3.61-24.32-18.08-24.32-18.08,4.35,2.2,13.39,6.09,22,5.6l.48,2.6Z"/>
              <ellipse class="cls-9" cx="196.11" cy="134.3" rx="3" ry="3.89"/>
              <path class="cls-12" d="M153,185.3l34.81,23c-13.86,3.13-12.4,16.62-12.4,16.62Z"/>
              <path class="cls-11" d="M166.51,128.7c2.15,1.48,2.67,4.76,2.49,7.17s-1.42,5.33-3.79,6.32c-2.88,1.18-4.89-2.87-4.23-5.21a2.8,2.8,0,0,1,2.5-2.12,2.18,2.18,0,0,1,2.18,2.37c-.08.83-1.35.58-1.29-.24.06-.49-.52-.87-1-.83a1.38,1.38,0,0,0-1,.81,3.35,3.35,0,0,0,.45,3.19,1.54,1.54,0,0,0,2.3.6,5.36,5.36,0,0,0,1.7-2,8.32,8.32,0,0,0,.82-5c-.21-1.65-.86-3.89-2.65-4.42-2.08-.62-3.17,2-3.34,3.69-.09.83-1.36.59-1.27-.24a6.14,6.14,0,0,1,2.1-4.18A3.36,3.36,0,0,1,166.51,128.7Z"/>
              <polygon points="133.76 261.42 114.97 305.12 115.78 281.28 133.76 261.42"/>
            </g>
            <g>
              <path class="cls-14" d="M213.35,145.19c-7.33-.48-21,6.07-26.89,9.1q-7.91-11.52-15-23.55c-.43-.72-1.49,0-1.06.75q7.17,12.13,15.16,23.77a23.45,23.45,0,0,0-1.13,5.08,53.39,53.39,0,0,0-.79,8.92,21,21,0,0,0,.53,4.38q-13.32-2.92-26.32-7c-.8-.25-1,1-.24,1.28q13.31,4.2,26.94,7.16a16,16,0,0,0,.87,2.2,14.77,14.77,0,0,0,1.69,2.61,22.86,22.86,0,0,0,18.63,2.67c13.72-3.71,16.33-15.06,16.33-15.06l2.21-14.85S222.86,145.81,213.35,145.19Z"/>
              <path class="cls-15" d="M208,149.1a15.7,15.7,0,0,1,11.5,2.29,14.61,14.61,0,0,1,2.6,2.17c.29.29-.2.7-.48.41a15,15,0,0,0-13.51-4.25A.32.32,0,0,1,208,149.1Z"/>
              <path class="cls-15" d="M195.12,152.61a30.7,30.7,0,0,1,9.63-2.88c.4,0,.51.56.11.62a30,30,0,0,0-9.47,2.83A.32.32,0,0,1,195.12,152.61Z"/>
              <path class="cls-15" d="M203.7,153.18l6.27-1.32c.39-.09.5.53.11.62l-6.27,1.32A.32.32,0,0,1,203.7,153.18Z"/>
              <path class="cls-15" d="M190,175.9l4.07,1.17c.39.11.17.7-.22.59l-4.07-1.18C189.43,176.37,189.65,175.78,190,175.9Z"/>
            </g>
            <path class="cls-14" d="M234.75,122.1a.64.64,0,0,0-.45-.19l-48.51,0-.2,0-33.15-3.65a.67.67,0,0,0-.34.28,6.61,6.61,0,0,0-.22,5.84,1.63,1.63,0,0,0,1.42,1.11c1.67.08,3.61-2.81,4.37-4.07l27.52,9.72a41.33,41.33,0,0,0,2.67,8.43A13.08,13.08,0,0,0,193.2,146c4.51,2.44,9.53.63,13.31-2.36l.27-.21c.55-.45,1.07-.93,1.56-1.42a18,18,0,0,0,3.91-5.88c.91,3.28,3.1,8.48,7.8,8.67,13.39.5,14.82-21.32,14.87-22.25A.64.64,0,0,0,234.75,122.1ZM220.1,143.56c-5.68-.21-7.17-10.09-7.19-10.19a.6.6,0,0,0-.59-.53h0a.63.63,0,0,0-.6.49,19.09,19.09,0,0,1-2.93,6.25,17.8,17.8,0,0,1-4.87,4.32,13.53,13.53,0,0,1-6.52,1.58c-8.5,0-10.62-15-10.74-15.15s-.52-7.19-.74-7.19l47.73,0C233.27,126.79,231,144,220.1,143.56Z"/>
            <polygon points="126.26 397.68 242.41 337.72 132.35 409.37 126.26 397.68"/>
            <polygon points="99.06 407.48 111.78 394.45 100.83 400.16 99.06 407.48"/>
            <g>
              <line x1="113.94" y1="335.76" x2="237.29" y2="274.7"/>
              <rect x="106.79" y="304.58" width="137.64" height="1.3" transform="translate(-117.11 109.48) rotate(-26.31)"/>
            </g>
            <path class="cls-2" d="M145.23,118.94a15.42,15.42,0,0,0-2.3,13c.22.81,1.44.35,1.22-.45a14,14,0,0,1,2.08-11.7C146.71,119.1,145.72,118.26,145.23,118.94Z"/>
            <path class="cls-2" d="M148.24,139.05a5.68,5.68,0,0,1-1.87-1.58,5.07,5.07,0,0,1-.36-.54,2.26,2.26,0,0,1-.16-.26l0-.07a1,1,0,0,1-.07-.15c-.1-.2-.18-.42-.26-.63l-.09-.31a.94.94,0,0,1,0-.16v0a.13.13,0,0,0,0,0,.66.66,0,0,0-.71-.59.66.66,0,0,0-.59.7,7.12,7.12,0,0,0,3.64,4.85.65.65,0,1,0,.56-1.18Z"/>
            <path class="cls-2" d="M147.67,133.41a3.79,3.79,0,0,1-.2-.34l0,0s0-.11-.08-.16a6,6,0,0,1-.26-.66c0-.12-.08-.23-.11-.35a.52.52,0,0,0,0-.11h0s0-.06,0-.09a4.55,4.55,0,0,1-.09-.73.65.65,0,0,0-.71-.59.67.67,0,0,0-.59.7,6.44,6.44,0,0,0,1,3.12.66.66,0,0,0,.91.15A.65.65,0,0,0,147.67,133.41Z"/>
            <path class="cls-2" d="M217.16,92c-11,3-22-1.68-32.84-3.08-2.7-.35-5.57-.62-8,.83-.72.43,0,1.48.75,1.06,2.23-1.33,5.05-.89,7.49-.55,2.78.38,5.52,1,8.26,1.55,5.24,1.14,10.5,2.34,15.89,2.46a30.87,30.87,0,0,0,8.92-1C218.42,93,218,91.76,217.16,92Z"/>
            <path class="cls-2" d="M218.46,95A24.29,24.29,0,0,1,211,96.19c-.84,0-.72,1.3.11,1.3a25.23,25.23,0,0,0,7.85-1.3C219.7,95.93,219.25,94.71,218.46,95Z"/>
            <path class="cls-2" d="M229.47,89.89A49,49,0,0,1,223.25,92a.66.66,0,0,0-.39.84.68.68,0,0,0,.84.38,48.43,48.43,0,0,0,6.22-2.11C230.69,90.79,230.24,89.57,229.47,89.89Z"/>
            <path class="cls-2" d="M222.7,109.87a21.31,21.31,0,0,1-8.24,1.07.68.68,0,0,0-.76.52.66.66,0,0,0,.53.76,23.07,23.07,0,0,0,8.92-1.13C224,110.83,223.5,109.61,222.7,109.87Z"/>
            <path class="cls-2" d="M231.15,106.88a.65.65,0,0,0-.9-.16,15.4,15.4,0,0,1-4.57,2.23.66.66,0,0,0-.39.83.67.67,0,0,0,.84.39,16.48,16.48,0,0,0,4.87-2.39A.65.65,0,0,0,231.15,106.88Z"/>
            <path class="cls-2" d="M226.42,105.37a.65.65,0,0,0-.83-.39,12.13,12.13,0,0,1-3.9,1.23.68.68,0,0,0-.59.71.67.67,0,0,0,.71.59A13.09,13.09,0,0,0,226,106.2.66.66,0,0,0,226.42,105.37Z"/>
            <path d="M187.85,208.31l8.75-1.21a21,21,0,0,1,5.72,4.25l-3.39,10.33h-7.71l-8.81-11.23Z"/>
            <polygon points="183.41 246.97 191.22 221.68 198.93 221.68 205.85 241.07 203.99 288.77 183.41 246.97"/>
            <path d="M63,270l-6.37,13a.65.65,0,0,0,1.18.56l6.36-13A.65.65,0,0,0,63,270Z"/>
            <path d="M72.85,256.21a.65.65,0,0,0-.92.08l-4.75,7.26a.67.67,0,0,0,.08.92.64.64,0,0,0,.91-.08l4.76-7.27A.67.67,0,0,0,72.85,256.21Z"/>
            <path d="M70.78,265.48a42,42,0,0,0-4,6.38.65.65,0,0,0,1.18.56,39.58,39.58,0,0,1,3.78-6.11C72.27,265.64,71.28,264.81,70.78,265.48Z"/>
            <path d="M231.13,257.88c-.15-.82-1.44-.71-1.3.11q.73,4,1.45,7.95c.15.81,1.44.71,1.29-.12Z"/>
            <path d="M232.53,270.47a.65.65,0,0,0-.83-.38.68.68,0,0,0-.39.84c.05.16.09.33.13.5s0,.19.07.33c.06.31.11.63.15.94a15.31,15.31,0,0,1,.12,1.91.65.65,0,0,0,1.29-.11A14.88,14.88,0,0,0,232.53,270.47Z"/>
            <path d="M228.46,266.13a.66.66,0,0,0-.84-.38.67.67,0,0,0-.38.84,42.66,42.66,0,0,1,1.12,5.37.66.66,0,0,0,.71.59.65.65,0,0,0,.59-.7A46.49,46.49,0,0,0,228.46,266.13Z"/>
            <path d="M239.06,351.82a.65.65,0,0,0-1.3.12c.22,3.45.45,6.9.67,10.36a.65.65,0,0,0,1.29-.12Z"/>
            <path d="M239.82,367.61a.67.67,0,0,0-.59.7q-.14,4-.29,7.95a.65.65,0,0,0,1.3-.11c.1-2.65.19-5.3.29-7.95A.66.66,0,0,0,239.82,367.61Z"/>
            <path d="M236.19,364.35a.65.65,0,0,0-1.29.11,51.3,51.3,0,0,1,.24,7.23.64.64,0,0,0,.7.59.66.66,0,0,0,.59-.71A48.37,48.37,0,0,0,236.19,364.35Z"/>
            <path d="M233.65,338.06q-10.82,5.43-21.35,11.38c-.73.41,0,1.47.75,1.06q10.39-5.87,21-11.22C234.84,338.91,234.4,337.68,233.65,338.06Z"/>
            <path d="M250.73,329.09l-11.53,5.62c-.74.36-.3,1.58.45,1.22l11.53-5.62C251.92,330,251.48,328.72,250.73,329.09Z"/>
            <path d="M255.2,322.78a.65.65,0,0,0-.83-.38l-9.52,4.93a.67.67,0,0,0-.38.84.64.64,0,0,0,.83.38l9.52-4.93A.68.68,0,0,0,255.2,322.78Z"/>
          </g>
          <g>
            <path class="cls-16" d="M403,220.23l-87.18,48.3a7.12,7.12,0,0,0-.81-2.92,7,7,0,0,0-2.51-2.74,4.55,4.55,0,0,0-.92-.44l86.11-44.89Z"/>
            <polygon class="cls-10" points="304.58 292.44 299.75 294.96 282.6 262.07 287.43 259.55 290.19 264.85 302.29 288.05 304.58 292.44"/>
            <polygon class="cls-17" points="295.48 295.33 119.78 395.52 97.58 352.94 279.66 264.99 295.48 295.33"/>
            <path class="cls-2" d="M92.8,351.87l188.09-93.09,1.71,3.29L299.75,295l1.52,2.92L118.56,401.28l-17.21-33Zm4.78,1.07,22.2,42.58,175.7-100.19L279.66,265Z"/>
            <path class="cls-13" d="M315.79,268.53a5.13,5.13,0,0,1-1,3.46l-12.49,16.06-12.09-23.2,19.06-2.72a4.3,4.3,0,0,1,2.28.3h0a4.55,4.55,0,0,1,.92.44,7,7,0,0,1,2.51,2.74A7.12,7.12,0,0,1,315.79,268.53Z"/>
            <rect class="cls-16" x="58.69" y="374.29" width="85.32" height="10.37" transform="translate(390.99 114.19) rotate(62.47)"/>
            <rect class="cls-17" x="61.19" y="371.55" width="37.1" height="38.38" transform="translate(389.36 139.41) rotate(62.47)"/>
            <rect class="cls-13" x="70.81" y="372.22" width="18.55" height="38.38" transform="translate(390.14 139.46) rotate(62.47)"/>
            <path class="cls-16" d="M62.72,399.61,43,361.79s-16.95,1.22,6.23,45.7,32.88,29.32,32.88,29.32Z"/>
            <path d="M273.41,270.59,103.33,359.25c-.68.35.1,1.61.77,1.26l170.08-88.66C274.86,271.49,274.08,270.23,273.41,270.59Z"/>
            <path d="M119.37,374.11l-9-17.3c-.44-.84-1.43-.18-1,.67l9,17.29C118.82,375.62,119.81,375,119.37,374.11Z"/>
            <path d="M124.74,363.56l-5.71-11c-.44-.85-1.43-.18-1,.66l5.72,11C124.2,365.07,125.18,364.41,124.74,363.56Z"/>
            <path d="M136.47,365.2l-9-17.3c-.44-.85-1.43-.18-1,.66l9,17.3C135.92,366.71,136.91,366,136.47,365.2Z"/>
            <path d="M141.84,354.65l-5.71-11c-.44-.85-1.43-.18-1,.66l5.72,11C141.3,356.16,142.28,355.49,141.84,354.65Z"/>
            <path d="M153.57,356.28l-9-17.3c-.44-.84-1.43-.18-1,.67l9,17.3C153,357.79,154,357.12,153.57,356.28Z"/>
            <path d="M159,345.73l-5.72-11c-.44-.85-1.43-.18-1,.66l5.72,11C158.4,347.24,159.38,346.58,159,345.73Z"/>
            <path d="M170.67,347.37l-9-17.3c-.44-.85-1.42-.18-1,.66l9,17.3C170.12,348.88,171.11,348.21,170.67,347.37Z"/>
            <path d="M176.05,336.82l-5.72-11c-.44-.85-1.43-.18-1,.66l5.72,11C175.5,338.33,176.48,337.66,176.05,336.82Z"/>
            <path d="M186.69,339l-9-17.3c-.44-.85-1.42-.18-1,.66l9,17.3C186.14,340.52,187.13,339.86,186.69,339Z"/>
            <path d="M192.07,328.47l-5.72-11c-.44-.84-1.43-.18-1,.67l5.72,11C191.52,330,192.5,329.31,192.07,328.47Z"/>
            <path d="M203.79,330.1l-9-17.3c-.44-.84-1.42-.18-1,.66l9,17.3C203.24,331.61,204.23,330.94,203.79,330.1Z"/>
            <path d="M209.17,319.55l-5.72-11c-.44-.85-1.43-.18-1,.66l5.72,11C208.62,321.06,209.6,320.39,209.17,319.55Z"/>
            <path d="M220.89,321.19l-9-17.3c-.44-.85-1.42-.18-1,.66l9,17.3C220.34,322.69,221.33,322,220.89,321.19Z"/>
            <path d="M226.27,310.64l-5.72-11c-.44-.84-1.43-.17-1,.67l5.72,11C225.72,312.15,226.71,311.48,226.27,310.64Z"/>
            <path d="M238,312.27,229,295c-.44-.84-1.42-.18-1,.66l9,17.3C237.44,313.78,238.43,313.11,238,312.27Z"/>
            <path d="M243.37,301.72l-5.72-11c-.44-.85-1.43-.18-1,.66l5.72,11C242.82,303.23,243.81,302.56,243.37,301.72Z"/>
            <path d="M255.09,303.36l-9-17.3c-.45-.85-1.43-.18-1,.66l9,17.3C254.55,304.87,255.53,304.2,255.09,303.36Z"/>
            <path d="M260.47,292.81l-5.72-11c-.44-.84-1.43-.17-1,.67l5.72,11C259.92,294.32,260.91,293.65,260.47,292.81Z"/>
            <path d="M272.19,294.44l-9-17.3c-.45-.84-1.43-.18-1,.67l9,17.29C271.65,296,272.63,295.28,272.19,294.44Z"/>
            <path d="M277.57,283.89l-5.72-11c-.44-.85-1.42-.18-1,.66l5.72,11C277,285.4,278,284.74,277.57,283.89Z"/>
            <circle class="cls-13" cx="143.91" cy="373.77" r="4.3"/>
            <circle class="cls-13" cx="147.55" cy="360.52" r="3.64"/>
            <circle class="cls-13" cx="161.07" cy="364.38" r="3.63"/>
            <circle class="cls-13" cx="199.37" cy="336.71" r="2.34"/>
            <circle class="cls-13" cx="190.56" cy="344.26" r="2.53"/>
            <circle class="cls-13" cx="191.72" cy="335.55" r="1.17"/>
            <circle class="cls-13" cx="232.53" cy="320.57" r="3.86"/>
            <circle class="cls-13" cx="222.03" cy="327.49" r="2.03"/>
          </g>
          <g>
            <path class="cls-7" d="M333.73,282a23.06,23.06,0,0,1-3.36,3.19l-10.2,8.45-.26.63-33,23.4-5.22-8h-.07a28.85,28.85,0,0,1,1.75-6.91,10,10,0,0,1,4.26-4.9,29.5,29.5,0,0,1-6.48-14.74,4.87,4.87,0,0,1,0-2.15,1.92,1.92,0,0,1,1.49-1.41,2.78,2.78,0,0,1,1.51.41,26,26,0,0,1,10,8.78c-2.18-4-4-8.5-3.63-13.07a2.49,2.49,0,0,1,.48-1.48c.84-.95,2.41-.32,3.38.49,3.14,2.64,4.88,6.52,6.52,10.28a20.67,20.67,0,0,1-.81-13.13,6.77,6.77,0,0,1,1.16-2.54,3,3,0,0,1,2.41-1.24,4.17,4.17,0,0,1,2.38,1.17c3.58,3,5.8,7.28,7.8,11.5a78.9,78.9,0,0,1,.17-13.4,4,4,0,0,1,1.16-2.95,2.74,2.74,0,0,1,2.95-.05,6.42,6.42,0,0,1,2.1,2.26,19.86,19.86,0,0,1,2.13,4.49c2.07,4.47,1.27,10.69,0,15.57l3.84-2.17-1.47-2.81a16.91,16.91,0,0,1,7.6-2.09c.73,0,1.61.09,1.87.76A1.74,1.74,0,0,1,333.73,282Z"/>
            <path d="M294.76,288.82a.67.67,0,0,0-.84-.38.64.64,0,0,0-.38.83,9,9,0,0,1,.53,6,.66.66,0,0,0,.53.75.65.65,0,0,0,.75-.52A10.17,10.17,0,0,0,294.76,288.82Z"/>
            <path d="M301.31,285.32c-.33-.77-1.55-.32-1.22.45a10.37,10.37,0,0,1,.39,7.05.65.65,0,0,0,.52.76.67.67,0,0,0,.75-.52A11.51,11.51,0,0,0,301.31,285.32Z"/>
            <path d="M314.81,281a.66.66,0,0,0-.71-.59.66.66,0,0,0-.59.7,18.21,18.21,0,0,1,0,5.16.65.65,0,1,0,1.28.23A19.87,19.87,0,0,0,314.81,281Z"/>
            <path d="M326.15,284.78a.68.68,0,0,0-.91-.16l-2.6,1.47a.66.66,0,0,0-.16.91.67.67,0,0,0,.91.15l2.6-1.47A.64.64,0,0,0,326.15,284.78Z"/>
          </g>
          <path class="cls-7" d="M58.43,416.78A6.09,6.09,0,0,1,55,415.52,31.32,31.32,0,0,1,52,413.39c-3.42-2.71-6.39-5.92-9.81-8.62a.6.6,0,0,1-.55-.1,13.26,13.26,0,0,1-1.54-1.45.61.61,0,0,1-.14-.1.49.49,0,0,1-.23-.33c-.39-.45-.76-.93-1.11-1.41a13.81,13.81,0,0,1-2.12-4c-.71-2.35-.3-5.33,1.93-6.77s4.84-.45,6.74,1a52.63,52.63,0,0,1,6.18,5.95,68.2,68.2,0,0,1,5.52,6.7,20.55,20.55,0,0,1,3.72,7.17C61,413.35,61.09,416.6,58.43,416.78Z"/>
          <path d="M58.15,416.46c-3.35-.52-5.83-3-8.2-5.26A48.1,48.1,0,0,0,41,404.63c-.56-.32-1,.59-.43.9a49.13,49.13,0,0,1,9.13,6.84c2.37,2.21,4.9,4.56,8.23,5.08A.5.5,0,0,0,58.15,416.46Z"/>
        </g>
        <path d="M259.2,418.37a.51.51,0,0,1-.5-.44l-.1-1a.48.48,0,0,1,.44-.55.5.5,0,0,1,.55.44l.11,1a.5.5,0,0,1-.45.55Zm-.74-7a.5.5,0,0,1-.5-.45l-.64-6a.5.5,0,0,1,.45-.55.5.5,0,0,1,.55.45l.63,6a.5.5,0,0,1-.44.55Zm-1.28-11.94a.49.49,0,0,1-.49-.44l-.64-6a.5.5,0,0,1,1-.11l.64,6a.5.5,0,0,1-.44.55Zm-1.27-11.93a.51.51,0,0,1-.5-.45l-.63-6a.5.5,0,0,1,1-.11l.64,6a.5.5,0,0,1-.45.55Zm-1.27-11.93a.5.5,0,0,1-.5-.45l-.64-6a.5.5,0,0,1,1-.11l.63,6a.5.5,0,0,1-.44.55Zm-1.28-11.93a.49.49,0,0,1-.49-.45l-.64-6a.5.5,0,0,1,.45-.55.51.51,0,0,1,.55.45l.63,6a.49.49,0,0,1-.44.55Zm-1.27-11.94a.49.49,0,0,1-.49-.44l-.54-5a.52.52,0,0,1,.29-.51l.91-.43a.49.49,0,0,1,.66.23.5.5,0,0,1-.23.67l-.59.28.49,4.62a.5.5,0,0,1-.44.55Zm5.79-8.06a.49.49,0,0,1-.45-.28.5.5,0,0,1,.22-.67c1.59-.79,3.41-1.71,5.36-2.71a.49.49,0,0,1,.67.22.5.5,0,0,1-.21.67l-5.37,2.72A.59.59,0,0,1,257.88,343.66Zm10.69-5.5a.49.49,0,0,1-.44-.26.5.5,0,0,1,.2-.68c1.74-.92,3.52-1.88,5.28-2.86a.5.5,0,0,1,.68.2.5.5,0,0,1-.19.68c-1.77,1-3.55,1.94-5.3,2.86A.46.46,0,0,1,268.57,338.16Zm10.51-5.83a.5.5,0,0,1-.26-.93c1.88-1.1,3.6-2.15,5.12-3.13a.5.5,0,0,1,.54.85c-1.53,1-3.26,2-5.15,3.14A.47.47,0,0,1,279.08,332.33Zm10.06-6.57a.5.5,0,0,1-.31-.89c.35-.27.67-.53,1-.79.94-.8,2.18-1.83,3.65-3a.5.5,0,1,1,.63.77c-1.46,1.2-2.69,2.23-3.64,3l-1,.81A.52.52,0,0,1,289.14,325.76Zm9.28-7.65a.48.48,0,0,1-.38-.18.5.5,0,0,1,.07-.71l4.65-3.8a.52.52,0,0,1,.71.07.5.5,0,0,1-.07.7c-1.64,1.33-3.2,2.61-4.66,3.81A.54.54,0,0,1,298.42,318.11Zm9.32-7.6a.48.48,0,0,1-.39-.19.5.5,0,0,1,.07-.7l4.67-3.79a.49.49,0,0,1,.7.07.5.5,0,0,1-.07.7l-4.67,3.8A.51.51,0,0,1,307.74,310.51Zm-268.23-3a.34.34,0,0,1-.14,0,.49.49,0,0,1-.34-.61q.81-2.9,1.66-5.78a.5.5,0,1,1,1,.28c-.57,1.92-1.12,3.85-1.66,5.77A.49.49,0,0,1,39.51,307.55Zm277.56-4.63a.51.51,0,0,1-.39-.18.5.5,0,0,1,.08-.7l4.67-3.79a.5.5,0,0,1,.7.07.52.52,0,0,1-.07.71l-4.67,3.78A.5.5,0,0,1,317.07,302.92ZM42.93,296a.39.39,0,0,1-.15,0,.5.5,0,0,1-.33-.63q.9-2.88,1.85-5.72a.5.5,0,0,1,.63-.32.49.49,0,0,1,.32.63c-.63,1.89-1.24,3.8-1.85,5.71A.48.48,0,0,1,42.93,296Zm283.48-.67a.48.48,0,0,1-.38-.18.48.48,0,0,1,.07-.7l4.67-3.79a.51.51,0,0,1,.71.08.5.5,0,0,1-.08.7l-4.67,3.78A.46.46,0,0,1,326.41,295.35Zm9.36-7.57a.5.5,0,0,1-.39-.18.51.51,0,0,1,.08-.71l1.54-1.24v-3.56a.5.5,0,1,1,1,0v3.8a.51.51,0,0,1-.19.39l-1.73,1.39A.45.45,0,0,1,335.77,287.78Zm-289-3.15a.47.47,0,0,1-.17,0,.5.5,0,0,1-.3-.64c.69-1.95,1.4-3.85,2.09-5.65A.5.5,0,0,1,49,278a.49.49,0,0,1,.28.64c-.69,1.8-1.39,3.69-2.08,5.62A.51.51,0,0,1,46.74,284.63Zm290.76-8a.5.5,0,0,1-.5-.5v-4.44a.52.52,0,0,1,.09-.29l.87-1.28a.5.5,0,0,1,.7-.13.49.49,0,0,1,.13.69L338,271.8v4.29A.5.5,0,0,1,337.5,276.59ZM51.08,273.42a.48.48,0,0,1-.2,0,.5.5,0,0,1-.26-.65c.81-1.93,1.63-3.78,2.45-5.51a.5.5,0,0,1,.9.42c-.81,1.72-1.62,3.57-2.43,5.48A.5.5,0,0,1,51.08,273.42Zm290.68-7.52a.48.48,0,0,1-.28-.08.5.5,0,0,1-.13-.7l3.38-4.95a.5.5,0,0,1,.83.56l-3.39,5A.48.48,0,0,1,341.76,265.9ZM56.21,262.56a.53.53,0,0,1-.24-.06.5.5,0,0,1-.2-.68l.36-.67q1.24-2.28,2.54-4.59a.5.5,0,0,1,.87.49q-1.29,2.29-2.53,4.58l-.36.67A.49.49,0,0,1,56.21,262.56ZM251,260.84a.54.54,0,0,1-.5-.48c0-.16-.09-.8-.22-1.87a.5.5,0,0,1,.43-.56.51.51,0,0,1,.56.44c.06.5.11.91.15,1.22l3.07-1.42a.5.5,0,0,1,.67.24.52.52,0,0,1-.25.67l-3.7,1.71A.5.5,0,0,1,251,260.84Zm98.19-4.12a.52.52,0,0,1-.44-.25.5.5,0,0,1,.19-.68l5.21-3a.51.51,0,0,1,.68.19.49.49,0,0,1-.18.68l-5.21,3A.57.57,0,0,1,349.2,256.72Zm-89-.12a.5.5,0,0,1-.21-1l5.44-2.52a.49.49,0,0,1,.66.24.5.5,0,0,1-.24.67l-5.44,2.52A.54.54,0,0,1,260.16,256.6ZM249.94,253a.49.49,0,0,1-.49-.42c-.27-1.73-.59-3.72-1-5.92a.49.49,0,0,1,.41-.57.5.5,0,0,1,.58.4c.38,2.21.7,4.2,1,5.94a.49.49,0,0,1-.41.57Zm-187.86-.89a.47.47,0,0,1-.25-.07.49.49,0,0,1-.18-.68c1-1.73,2-3.45,3.06-5.18a.5.5,0,0,1,.68-.17.5.5,0,0,1,.17.69q-1.55,2.58-3.05,5.16A.5.5,0,0,1,62.08,252.09Zm209-.54a.49.49,0,0,1-.45-.29.5.5,0,0,1,.24-.67l5.45-2.52a.5.5,0,0,1,.66.24.51.51,0,0,1-.24.67l-5.45,2.52A.5.5,0,0,1,271,251.55Zm88.58-.78a.52.52,0,0,1-.44-.25.5.5,0,0,1,.19-.68l5.21-3a.5.5,0,0,1,.68.19.49.49,0,0,1-.18.68l-5.21,3A.57.57,0,0,1,359.62,250.77Zm-77.69-4.27a.49.49,0,0,1-.45-.29.5.5,0,0,1,.24-.67l5.44-2.52a.49.49,0,0,1,.66.24.5.5,0,0,1-.24.67l-5.44,2.52A.54.54,0,0,1,281.93,246.5ZM370,244.82a.5.5,0,0,1-.25-.93l5.21-3a.52.52,0,0,1,.69.19.5.5,0,0,1-.19.68l-5.21,3A.54.54,0,0,1,370,244.82ZM321,241.92a.5.5,0,0,1-.05-1l6-.58a.52.52,0,0,1,.55.45.51.51,0,0,1-.45.55l-6,.58Zm-252.67-.1a.51.51,0,0,1-.42-.77c1.07-1.69,2.15-3.38,3.26-5.05a.5.5,0,0,1,.83.55q-1.65,2.5-3.24,5A.52.52,0,0,1,68.28,241.82Zm224.53-.37a.5.5,0,0,1-.21-1l5.45-2.52a.5.5,0,0,1,.66.24.5.5,0,0,1-.24.67L293,241.4A.5.5,0,0,1,292.81,241.45Zm-44.91-.3a.49.49,0,0,1-.49-.4q-.54-2.81-1.18-5.88a.5.5,0,0,1,1-.21c.44,2.06.83,4,1.19,5.9a.5.5,0,0,1-.4.58Zm85-.39a.5.5,0,0,1-.05-1l1.94-.19,3.48-1.69a.5.5,0,0,1,.67.23.49.49,0,0,1-.23.66l-3.56,1.74a.55.55,0,0,1-.17.05l-2,.2Zm-16.43-1.06a.51.51,0,0,1-.44-.26l-2.89-5.26a.5.5,0,0,1,.2-.68.5.5,0,0,1,.68.2l2.88,5.26a.5.5,0,0,1-.19.68A.53.53,0,0,1,316.46,239.7Zm64-.83a.5.5,0,0,1-.25-.93l5.21-3a.52.52,0,0,1,.69.19.5.5,0,0,1-.19.68l-5.21,3A.54.54,0,0,1,380.46,238.87ZM303.7,236.4a.5.5,0,0,1-.21-1l5.44-2.53a.5.5,0,0,1,.67.24.52.52,0,0,1-.25.67l-5.44,2.52A.54.54,0,0,1,303.7,236.4Zm40.17-.21a.49.49,0,0,1-.22-.94l5.4-2.64a.5.5,0,0,1,.66.23.49.49,0,0,1-.23.67l-5.39,2.63A.42.42,0,0,1,343.87,236.19Zm47-3.27a.5.5,0,0,1-.43-.25.5.5,0,0,1,.18-.68l5.22-3a.5.5,0,1,1,.49.87l-5.21,3A.54.54,0,0,1,390.88,232.92Zm-316-1.11a.52.52,0,0,1-.29-.09.51.51,0,0,1-.12-.7c1.16-1.66,2.34-3.31,3.51-4.88a.5.5,0,1,1,.8.59c-1.16,1.57-2.33,3.21-3.49,4.87A.49.49,0,0,1,74.91,231.81Zm279.75-.88a.49.49,0,0,1-.45-.28.5.5,0,0,1,.23-.67l5.39-2.63a.51.51,0,0,1,.67.23.5.5,0,0,1-.23.67l-5.39,2.63A.44.44,0,0,1,354.66,230.93ZM245.43,229.4a.49.49,0,0,1-.49-.38q-.65-2.85-1.39-5.83a.51.51,0,0,1,.37-.61.5.5,0,0,1,.6.37c.5,2,1,3.94,1.4,5.84a.5.5,0,0,1-.38.6Zm120-3.73a.48.48,0,0,1-.44-.28.49.49,0,0,1,.23-.67l5.39-2.63a.5.5,0,1,1,.44.9l-5.4,2.63A.42.42,0,0,1,365.44,225.67ZM82.05,222.16a.45.45,0,0,1-.3-.11.5.5,0,0,1-.09-.7c1.26-1.6,2.55-3.17,3.81-4.66a.51.51,0,0,1,.71-.06.49.49,0,0,1,.06.7c-1.26,1.49-2.54,3-3.79,4.64A.5.5,0,0,1,82.05,222.16Zm316.8,4.64a.52.52,0,0,1-.44-.26.51.51,0,0,1,.19-.68l5.21-3a.5.5,0,1,1,.5.86l-5.21,3A.59.59,0,0,1,398.85,226.8Zm-22.62-6.39a.49.49,0,0,1-.45-.28.5.5,0,0,1,.23-.67l5.39-2.63a.5.5,0,1,1,.44.9l-5.39,2.63A.44.44,0,0,1,376.23,220.41Zm-133.69-2.66a.49.49,0,0,1-.48-.37l-.13-.46a53.53,53.53,0,0,0-1.68-5.2.5.5,0,1,1,.93-.36,54.72,54.72,0,0,1,1.72,5.3l.12.46a.5.5,0,0,1-.35.62ZM387,215.15a.48.48,0,0,1-.44-.28.49.49,0,0,1,.23-.67l5.39-2.63a.5.5,0,0,1,.44.9l-5.4,2.63A.42.42,0,0,1,387,215.15ZM89.82,213a.46.46,0,0,1-.33-.13.51.51,0,0,1,0-.71c1.38-1.5,2.78-3,4.17-4.35a.5.5,0,0,1,.71.71c-1.38,1.37-2.77,2.83-4.14,4.32A.52.52,0,0,1,89.82,213Zm148.44-6.43a.49.49,0,0,1-.44-.27,47.84,47.84,0,0,0-3.08-5.07.5.5,0,0,1,.12-.7.51.51,0,0,1,.7.13,48.06,48.06,0,0,1,3.14,5.17.51.51,0,0,1-.21.68A.46.46,0,0,1,238.26,206.58Zm-139.94-2a.5.5,0,0,1-.34-.87c1.51-1.37,3-2.69,4.58-3.92a.5.5,0,1,1,.63.77c-1.52,1.23-3,2.54-4.53,3.89A.5.5,0,0,1,98.32,204.54Zm310.05,16.21a.49.49,0,0,1-.43-.26.49.49,0,0,1,.18-.68l5.21-3a.51.51,0,0,1,.69.18.52.52,0,0,1-.19.69l-5.21,3A.55.55,0,0,1,408.37,220.75ZM107.65,197a.49.49,0,0,1-.41-.21.49.49,0,0,1,.12-.69c1.65-1.18,3.34-2.31,5-3.34a.51.51,0,0,1,.69.16.5.5,0,0,1-.16.69c-1.66,1-3.33,2.13-5,3.3A.52.52,0,0,1,107.65,197Zm123.75-.23a.49.49,0,0,1-.37-.16,43.54,43.54,0,0,0-4.29-4.09.49.49,0,0,1-.06-.7.49.49,0,0,1,.7-.07,44.45,44.45,0,0,1,4.39,4.19.5.5,0,0,1-.37.83Zm179.17,17.39a.51.51,0,0,1-.31-.11l-4.69-3.75a.49.49,0,0,1-.08-.7.5.5,0,0,1,.7-.08l4.69,3.75a.49.49,0,0,1,.08.7A.51.51,0,0,1,410.57,214.16Zm-15-2.48a.48.48,0,0,1-.45-.28.5.5,0,0,1,.23-.67l5.39-2.63a.5.5,0,0,1,.44.9l-5.39,2.63A.59.59,0,0,1,395.54,211.68ZM117.87,190.74a.5.5,0,0,1-.23-1c1.8-.93,3.64-1.79,5.47-2.55a.5.5,0,0,1,.38.92c-1.8.75-3.61,1.6-5.39,2.52A.49.49,0,0,1,117.87,190.74Zm104.32-1.61a.48.48,0,0,1-.26-.07,29.22,29.22,0,0,0-4.82-2.45.5.5,0,0,1-.34-.43.5.5,0,0,1,.27-.48l.43-.23a.51.51,0,0,1,.68.2.49.49,0,0,1,0,.31,32.75,32.75,0,0,1,4.25,2.23.49.49,0,0,1,.16.68A.47.47,0,0,1,222.19,189.13Zm-93.27-3a.49.49,0,0,1-.47-.35.5.5,0,0,1,.32-.63c1.92-.61,3.88-1.14,5.83-1.57a.5.5,0,1,1,.22,1c-1.92.42-3.85.94-5.74,1.55Zm93.62-3.23a.52.52,0,0,1-.36-.16.5.5,0,0,1,0-.71,24.72,24.72,0,0,0,3.74-4.51.5.5,0,0,1,.69-.15.49.49,0,0,1,.15.69,26.44,26.44,0,0,1-3.89,4.7A.54.54,0,0,1,222.54,182.9Zm-83.41-1.37a.41.41,0,0,1-.21-.05.49.49,0,0,1-.24-.66l2.56-5.43a.5.5,0,0,1,.91.43l-2.57,5.42A.48.48,0,0,1,139.13,181.53Zm90-8.55a.58.58,0,0,1-.19,0,.5.5,0,0,1-.27-.66,42.21,42.21,0,0,0,1.85-5.63.5.5,0,0,1,.61-.36.51.51,0,0,1,.36.61,42.87,42.87,0,0,1-1.9,5.77A.5.5,0,0,1,229.14,173Zm-84.88-2.3a.42.42,0,0,1-.22-.05.5.5,0,0,1-.24-.66l2.57-5.43a.49.49,0,0,1,.66-.24.5.5,0,0,1,.24.67l-2.56,5.42A.51.51,0,0,1,144.26,170.68Zm87.88-9.29h-.07a.5.5,0,0,1-.42-.57c.26-1.94.42-3.93.49-5.93a.5.5,0,0,1,1,0c-.07,2-.24,4.06-.5,6A.51.51,0,0,1,232.14,161.39Zm-86.72-1.09a.47.47,0,0,1-.39-.2c-1.22-1.58-2.41-3.23-3.52-4.91a.5.5,0,1,1,.84-.56c1.09,1.66,2.26,3.3,3.47,4.86a.51.51,0,0,1-.09.71A.5.5,0,0,1,145.42,160.3Zm88.27-10a.5.5,0,0,1-.13-1,8.29,8.29,0,0,0,4.37-3.38.48.48,0,0,1,.69-.11.49.49,0,0,1,.12.69,9.2,9.2,0,0,1-4.92,3.76A.3.3,0,0,1,233.69,150.32Zm-94.88,0a.49.49,0,0,1-.44-.26c-1-1.83-1.92-3.65-2.7-5.42a.5.5,0,0,1,.26-.65.5.5,0,0,1,.66.25c.76,1.74,1.65,3.54,2.65,5.34a.5.5,0,0,1-.19.68A.53.53,0,0,1,138.81,150.28ZM241,141.41a.47.47,0,0,1-.17,0,.5.5,0,0,1-.3-.64,45.26,45.26,0,0,0,1.66-5.71.49.49,0,0,1,.6-.37.5.5,0,0,1,.37.6,48.26,48.26,0,0,1-1.69,5.83A.51.51,0,0,1,241,141.41Zm-107-2.13a.51.51,0,0,1-.48-.36,36.84,36.84,0,0,1-1.26-5.95.5.5,0,0,1,1-.12,35.85,35.85,0,0,0,1.23,5.78.49.49,0,0,1-.33.62A.4.4,0,0,1,134.05,139.28Zm109.76-9.54h-.08a.5.5,0,0,1-.42-.57c.28-1.87.51-3.86.7-5.94a.49.49,0,0,1,.54-.45.5.5,0,0,1,.46.54c-.19,2.09-.43,4.11-.71,6A.5.5,0,0,1,243.81,129.74Zm-111.08-2.31h-.06a.5.5,0,0,1-.44-.55,20.61,20.61,0,0,1,.44-2.63c.26-1.13.55-2.24.88-3.31a.5.5,0,1,1,1,.3c-.32,1-.61,2.13-.87,3.23a22.83,22.83,0,0,0-.42,2.52A.49.49,0,0,1,132.73,127.43Zm112.19-9.67h0a.5.5,0,0,1-.48-.52c.13-2.77.15-4.92.15-6a.52.52,0,0,1,.5-.52.49.49,0,0,1,.5.49v0c0,1,0,3.22-.15,6A.5.5,0,0,1,244.92,117.76ZM136.2,116a.59.59,0,0,1-.22,0,.5.5,0,0,1-.23-.67,31.93,31.93,0,0,1,3.13-5.22.51.51,0,0,1,.7-.1.5.5,0,0,1,.1.7,31,31,0,0,0-3,5A.51.51,0,0,1,136.2,116Zm111.74-9.38a.54.54,0,0,1-.21-.05.5.5,0,0,1-.24-.67,25.47,25.47,0,0,0,1.85-5.57.5.5,0,0,1,1,.21,26.43,26.43,0,0,1-1.93,5.79A.49.49,0,0,1,247.94,106.62Zm-104.57-.13a.5.5,0,0,1-.32-.88,18,18,0,0,1,4.23-2.69v-.36a.54.54,0,0,1,.5-.55.47.47,0,0,1,.5.45c0,.52,0,.76,0,.77a.52.52,0,0,1-.34.5,15.43,15.43,0,0,0-4.26,2.65A.46.46,0,0,1,143.37,106.49ZM148.29,97h-.08a.5.5,0,0,1-.41-.58,33.49,33.49,0,0,1,1.5-5.9.49.49,0,0,1,.64-.3.5.5,0,0,1,.3.64,33.09,33.09,0,0,0-1.46,5.73A.49.49,0,0,1,148.29,97ZM250.5,95h0a.49.49,0,0,1-.49-.51V94a29,29,0,0,0-.5-5.41.5.5,0,0,1,1-.18A29.2,29.2,0,0,1,251,94v.48A.51.51,0,0,1,250.5,95Zm-98.05-9.17A.51.51,0,0,1,152,85a17.77,17.77,0,0,1,4.27-4.41.51.51,0,0,1,.7.11.5.5,0,0,1-.12.7,16.83,16.83,0,0,0-4,4.17A.5.5,0,0,1,152.45,85.81Zm95.7-2.49a.5.5,0,0,1-.45-.28,13.84,13.84,0,0,0-3.46-4.59.5.5,0,1,1,.64-.76,14.82,14.82,0,0,1,3.72,4.91.5.5,0,0,1-.23.67A.59.59,0,0,1,248.15,83.32Zm-38.34-2.13a.5.5,0,0,1,0-1c2.07,0,4.07-.11,5.95-.26a.49.49,0,0,1,.54.46.51.51,0,0,1-.46.54c-1.9.15-3.93.24-6,.26Zm-6-.12h0c-1.87-.08-3.83-.21-6-.39a.5.5,0,0,1-.46-.53.51.51,0,0,1,.54-.46c2.17.17,4.12.3,6,.39a.5.5,0,0,1,0,1Zm17.94-.91a.49.49,0,0,1-.49-.41.49.49,0,0,1,.4-.58,51.78,51.78,0,0,0,5.77-1.4.5.5,0,1,1,.3,1,52.26,52.26,0,0,1-5.89,1.42Zm-29.9,0h0l-4-.4-2-.21a.5.5,0,0,1-.45-.55.51.51,0,0,1,.55-.45l2,.21,3.94.41a.49.49,0,0,1,.44.54A.5.5,0,0,1,191.85,80.13ZM162,79a.5.5,0,0,1-.48-.38.5.5,0,0,1,.35-.61,21.5,21.5,0,0,1,4.93-.66h1.14a.5.5,0,0,1,0,1h-1.12a20.51,20.51,0,0,0-4.69.63Zm17.92-.08h0c-2.22-.19-4.17-.34-6-.43a.5.5,0,0,1,0-1c1.81.1,3.77.24,6,.43a.51.51,0,0,1,.46.55A.51.51,0,0,1,179.91,78.93Zm53.32-2.19a.51.51,0,0,1-.48-.36.5.5,0,0,1,.34-.62,14.68,14.68,0,0,1,6.13-.59.5.5,0,0,1-.13,1,13.57,13.57,0,0,0-5.72.55Zm31,389.36a.51.51,0,0,1-.5-.44l-.11-1a.5.5,0,1,1,1-.1l.11,1a.5.5,0,0,1-.45.55Zm-.75-7a.49.49,0,0,1-.49-.44l-.64-6a.5.5,0,0,1,.44-.55.49.49,0,0,1,.55.45l.64,6a.5.5,0,0,1-.44.55Zm-1.27-11.93a.51.51,0,0,1-.5-.44l-.63-6a.5.5,0,0,1,.44-.55.5.5,0,0,1,.55.44l.64,6a.5.5,0,0,1-.45.55ZM261,435.25a.51.51,0,0,1-.5-.45l-.63-6a.49.49,0,0,1,.44-.55.5.5,0,0,1,.55.44l.64,6a.51.51,0,0,1-.45.55Zm-1.27-11.93a.5.5,0,0,1-.5-.45l-.64-6a.49.49,0,0,1,.45-.54.5.5,0,0,1,.55.44l.63,6a.5.5,0,0,1-.44.55Z"/>
        <polygon points="41.67 320.2 29.89 383.77 32.63 384.38 27.09 385.15 41.67 320.2"/>
        <polygon points="66.29 367.63 63.29 378.4 67.34 370.26 66.29 367.63"/>
      </g>
    </g>
  </g>
</svg>
