<svg xmlns="http://www.w3.org/2000/svg" width="500" height="448.89" viewBox="0 0 500 448.89">
  <defs>
    <style>
      .cls-1 {
        fill: #e7faf9;
      }

      .cls-2 {
        fill: #7dd3e9;
      }

      .cls-3 {
        fill: #5fa5cc;
      }

      .cls-4 {
        fill: #fff;
      }

      .cls-5 {
        fill: #e4e4e0;
      }

      .cls-6 {
        fill: #422c4f;
      }

      .cls-7 {
        fill: #eba58e;
      }

      .cls-8 {
        fill: #e78882;
      }

      .cls-9 {
        fill: #6a3649;
      }

      .cls-10 {
        fill: #8e5a61;
      }

      .cls-11 {
        fill: #c7d2d7;
      }

      .cls-12 {
        fill: #99a3b0;
      }

      .cls-13 {
        fill: #ff960b;
      }

      .cls-14 {
        fill: #6c6fc3;
      }

      .cls-15 {
        fill: #654059;
      }

      .cls-16 {
        fill: #878ddd;
      }

      .cls-17 {
        fill: #56438c;
      }

      .cls-18 {
        fill: #797c99;
      }

      .cls-19 {
        fill: #495375;
      }
    </style>
  </defs>
  <g id="OBJECTS">
    <g>
      <g>
        <path class="cls-1" d="M441.3,405.7H58.7C13.58,349,2,266.68,31.05,200.33c5.1-11.65,11.5-23.06,21.08-31.42S75,155.6,87.35,158.41c15.8,3.59,27.81,18.79,44,19.62,18.54,1,31.83-16.71,42.87-31.63,19-25.65,41.81-48.85,69.19-65.21S303,55.58,334.74,58.42c46.29,4.14,88.09,34.13,112.41,73.74s32.37,87.73,28.93,134.07S459.08,362.76,441.3,405.7Z"/>
        <path class="cls-1" d="M119.12,149.21c12.57,1,25-4.51,34.7-12.54s17.13-18.45,24.12-28.95c4.48-6.72,8.89-13.66,11-21.45S190.68,69.6,186,63c-7.76-10.92-23.84-11.74-36.78-8.29-22.94,6.12-42.43,23-52.92,44.12-4.16,8.4-9.79,20.6-6.29,30C94.18,140.12,107.68,148.33,119.12,149.21Z"/>
      </g>
      <g>
        <g>
          <g>
            <path class="cls-2" d="M355.23,181.78l8,21.17L385,174.28l-4.43,43.52a178.26,178.26,0,0,0-.87,22.64l2.92,119.17h-46l9.08-128.49Z"/>
            <g>
              <polygon class="cls-2" points="336.59 359.61 382.63 359.61 383.76 405.45 333.31 405.45 336.59 359.61"/>
              <path class="cls-3" d="M382.63,359.61h-46l-.56,7.84h24.22a15.39,15.39,0,0,1,15.39,15.38v22.62h8.12Z"/>
            </g>
            <g>
              <path class="cls-3" d="M375,240.82a47.88,47.88,0,0,1-11.82-2.32,63.85,63.85,0,0,1-12.25-5.6c-8-4.65-15.25-10.68-21.41-14.65a88.65,88.65,0,0,0,8.37,9.08,63.07,63.07,0,0,0,11.28,8.58A42.28,42.28,0,0,0,362.53,241,28.91,28.91,0,0,0,375,240.82Z"/>
              <path class="cls-3" d="M396.9,223.62c-2.87,1.17-6.14,2.43-9.68,3.51a84.77,84.77,0,0,1-11.2,2.64,85.76,85.76,0,0,1-11.45,1c-3.7.09-7.2-.08-10.29-.28a38,38,0,0,0,10.2,2.48A45.18,45.18,0,0,0,388,229.19,38.36,38.36,0,0,0,396.9,223.62Z"/>
              <path class="cls-3" d="M399.88,249.42c-3.37,1.33-7.2,2.82-11.33,4.2s-8.55,2.65-13,3.67-9,1.78-13.34,2.31-8.41.84-12,1.1a51.67,51.67,0,0,0,12.18,1.48A61.72,61.72,0,0,0,389.53,256,51.67,51.67,0,0,0,399.88,249.42Z"/>
              <path class="cls-3" d="M388.81,248.05c-3.95.59-9,1.53-14.05,2.29s-10.14,1.38-14.09,2a50.34,50.34,0,0,0,28.14-4.28Z"/>
              <path class="cls-3" d="M394.16,350.37c-13.63-1.55-35.57-.54-49,2.26C358.79,354.18,380.73,353.17,394.16,350.37Z"/>
              <path class="cls-3" d="M401.88,325.44c-6.73,3-15.22,7.05-23.89,10.74s-17.46,7.05-24.26,9.86a88.12,88.12,0,0,0,48.15-20.6Z"/>
              <path class="cls-3" d="M367,334a108.92,108.92,0,0,1-31.36-5.83A39.84,39.84,0,0,0,367,334Z"/>
              <path class="cls-3" d="M329.92,381.88c5.77,2.71,13.33,5.82,20.83,9.07s15,6.6,20.88,8.94a88.69,88.69,0,0,0-41.71-18Z"/>
              <path class="cls-3" d="M333.31,395.43A124.7,124.7,0,0,0,366,400,124.7,124.7,0,0,0,333.31,395.43Z"/>
            </g>
            <polygon class="cls-4" points="355.23 181.78 345.67 231.12 343.31 265.5 333.31 405.45 313.28 405.45 324.5 287.62 328.4 193.86 355.23 181.78"/>
            <path class="cls-4" d="M385,174.28l-4.43,43.52a178.26,178.26,0,0,0-.87,22.64l4.05,165H452.5l-12-83.66,1.22-110.22a31,31,0,0,0-24.83-30.76Z"/>
            <g>
              <path class="cls-5" d="M397.63,340.55a56.55,56.55,0,0,0,12.21-8.17,67.08,67.08,0,0,0,18.9-27.5A56.8,56.8,0,0,0,432,290.55c-1.71,4-3.7,8.48-6.09,13.09a127,127,0,0,1-18.25,26.54C404.22,334.07,400.74,337.53,397.63,340.55Z"/>
              <path class="cls-5" d="M392,330.68a49.69,49.69,0,0,0,27.68-22.34c-3.64,3.45-8.28,7.87-13.27,11.87S396.18,327.85,392,330.68Z"/>
              <path class="cls-5" d="M438.24,392.69c-5.76-1.56-13.16-3.39-20.45-5.65s-14.43-4.91-20.07-6.88a66.39,66.39,0,0,0,40.52,12.53Z"/>
              <path class="cls-5" d="M433.49,399.91c-5-1.46-11.6-2.92-18.19-4.34s-13.18-2.76-18.37-3.49a85.84,85.84,0,0,0,36.56,7.83Z"/>
            </g>
            <g>
              <polygon class="cls-4" points="394.99 356.46 393 362.82 427.04 379.61 430.01 372.57 394.99 356.46"/>
              <path class="cls-6" d="M430.44,372.22l-35.5-16.33a.26.26,0,0,0-.21,0,.29.29,0,0,0-.14.15l-2.13,6.84a.25.25,0,0,0,.13.29l34.47,17a.2.2,0,0,0,.11,0l.08,0a.24.24,0,0,0,.15-.13l3.16-7.5A.25.25,0,0,0,430.44,372.22ZM393,362.82l2-6.36,35,16.12-3,7Z"/>
            </g>
            <g>
              <g>
                <path class="cls-4" d="M385,174.28l5.05,1,7.2,14.34a6,6,0,0,1-1.2,7l-9.56,9.19,12.22,17.91a6,6,0,0,1,0,6.7l-18.61,28-.44-18.05a178.26,178.26,0,0,1,.87-22.64Z"/>
                <path class="cls-4" d="M355.23,181.78l-9.56,49.34-2,29.19-9.62-29.11a5,5,0,0,1,.53-4.25l10.6-16.72-4.09-4.47a5,5,0,0,1-.42-6.22L352,183.25Z"/>
              </g>
              <g>
                <path class="cls-6" d="M394.18,217.37a.26.26,0,0,1-.21-.11L386.29,206a.25.25,0,0,1,0-.32l9.56-9.19a5.72,5.72,0,0,0,1.15-6.73l-7.2-14.34a.26.26,0,0,1,.11-.34.26.26,0,0,1,.34.12l7.2,14.34a6.21,6.21,0,0,1-1.26,7.31l-9.4,9L394.38,217a.24.24,0,0,1-.06.34A.27.27,0,0,1,394.18,217.37Z"/>
                <path class="cls-6" d="M343.67,260.56a.25.25,0,0,1-.24-.17l-9.61-29.11a5.2,5.2,0,0,1,.55-4.46l10.49-16.56-4-4.34a5.22,5.22,0,0,1-.43-6.53l11.29-16.28a.25.25,0,1,1,.41.28l-11.29,16.29a4.72,4.72,0,0,0,.39,5.91l4.09,4.48a.24.24,0,0,1,0,.3l-10.6,16.72a4.7,4.7,0,0,0-.5,4l9.61,29.11a.25.25,0,0,1-.16.32Z"/>
              </g>
            </g>
            <g>
              <polygon class="cls-5" points="325.44 265.13 324.5 287.62 323.29 299.21 339.78 314.76 342.76 273.03 325.44 265.13"/>
              <path class="cls-5" d="M380.52,273.78l1.34,54.52a35.83,35.83,0,0,0,21.35-19.61L438,228.78Z"/>
              <path class="cls-3" d="M367.22,284.19,342.76,273l-3,41.74,6,5.67a35.65,35.65,0,0,0,36.06,7.86l-1.34-54.52Z"/>
            </g>
            <path class="cls-6" d="M316.63,370.49h0a.25.25,0,0,1-.23-.27l7.87-82.63,2.53-60.77a.25.25,0,0,1,.25-.24h0a.25.25,0,0,1,.24.26l-2.53,60.79-7.87,82.64A.24.24,0,0,1,316.63,370.49Z"/>
            <path class="cls-6" d="M313.28,405.7h0a.25.25,0,0,1-.22-.27l2.18-22.92a.25.25,0,0,1,.27-.23.26.26,0,0,1,.23.27l-2.18,22.92A.27.27,0,0,1,313.28,405.7Z"/>
            <path class="cls-5" d="M393,362.82l34,16.79.82-1.95-27.61-14a5,5,0,0,1-2.53-5.92h0L395,356.46Z"/>
          </g>
          <g>
            <path class="cls-7" d="M217.49,267.34,238,336.86l43,68.59H255l-33.56-35.56a70,70,0,0,1-16.18-28.06l-5.73-19.23L198.6,283Z"/>
            <polygon class="cls-6" points="217.49 267.34 218.23 269.87 198.99 299.74 198.6 282.95 217.49 267.34"/>
          </g>
          <g>
            <g>
              <path class="cls-4" d="M328.4,193.86h0a25.53,25.53,0,0,0-15,21L306,297.45l-35.28-8.59-7.39,42.46,56.53,5.08,4.64-48.78Z"/>
              <path class="cls-5" d="M327.68,211.08h0a27.46,27.46,0,0,0-5.23,14.2l-6.52,88.19a16.29,16.29,0,0,1-16.83,15.09L288,328.17a29.76,29.76,0,0,0-15.89,3.94h0l47.74,4.29,4.64-48.78Z"/>
              <path class="cls-5" d="M306,297.45l3.62,21.43-2.05-2.63a17.21,17.21,0,0,1-1.57-18.8Z"/>
            </g>
            <g>
              <g>
                <polygon class="cls-7" points="270.02 292.85 254.1 288.57 247.65 310.66 265.34 319.8 270.02 292.85"/>
                <polygon class="cls-8" points="270.02 292.85 265.34 319.8 260.82 317.46 268.71 292.5 270.02 292.85"/>
              </g>
              <g>
                <path class="cls-2" d="M233.17,283l-7-11.73a19.79,19.79,0,0,0-6.08-6.37L216,262.13l6.84,23.17-9,.32a4.33,4.33,0,0,0,.16,8.66h11.5l2.61,8.87,6.62.8,12.18,9.45,7.26-24.83Z"/>
                <path class="cls-3" d="M222.79,285.3h4.29l-1.15-2.12a32,32,0,0,0-3.33-5l-3-3.65Z"/>
                <path class="cls-3" d="M225.44,294.28h0a9.26,9.26,0,0,0,6.71,6.41l2,.49h-6.72Z"/>
                <path class="cls-3" d="M243.62,308c.68-2.53,1.36-5.81,2.07-9.09s1.44-6.56,1.87-9.14A38.89,38.89,0,0,0,243.62,308Z"/>
              </g>
            </g>
          </g>
          <g>
            <g>
              <path class="cls-7" d="M353.94,161.78a66.2,66.2,0,0,1,1.29,20l8,21.17L385,174.28l-3.37-32.2Z"/>
              <path class="cls-6" d="M368.32,171.94c5.28-3.95,8.82-9.86,11-16.08A70.24,70.24,0,0,0,382,145.43l-.35-3.35-27.7,19.7a66.93,66.93,0,0,1,1.54,14.6A21.88,21.88,0,0,0,368.32,171.94Z"/>
            </g>
            <path class="cls-6" d="M363.25,203.2h0a.27.27,0,0,1-.2-.16l-5.24-13.82a.25.25,0,0,1,.15-.32.26.26,0,0,1,.32.14l5.08,13.4,15.79-20.81a.25.25,0,1,1,.4.3L363.45,203.1A.25.25,0,0,1,363.25,203.2Z"/>
            <g>
              <path class="cls-9" d="M317.35,115.94c-6.19-9.44-5.19-22.54,1-31.95s16.95-15.26,28.06-17.23c11.48-2,24.32.19,32.58,8.42,6.11,6.08,9,14.63,10.9,23,1.56,7.07,2.49,14.43,1.1,21.53s-5.4,14-11.76,17.41C361.44,124.87,338.78,119,317.35,115.94Z"/>
              <path class="cls-7" d="M335.29,95.38a12.62,12.62,0,0,0,5.37-2.88c2.1-1.73,4.07-3.77,6.61-4.73,4.54-1.72,9.86.57,12.9,4.36,3.67,4.56,4.71,11.13,5.75,16.72a7,7,0,0,0,4.72,5.35l.09,0a8.8,8.8,0,0,1,6,7.12,19.7,19.7,0,0,0,1.69,5.84,11.38,11.38,0,0,0,5.36,5.34,39.79,39.79,0,0,1-1.88,11.79,34.48,34.48,0,0,1-14.76,19c-7.07,4.16-16.1,5.16-23.63,1.92a30.61,30.61,0,0,1-12.76-11.09,73.34,73.34,0,0,1-7.54-15.34c-5.11-13.3-9.3-27.63-4.78-41.68.67-2.08,1.71-4.34,3.76-5.12,3.73-1.41,7.16,3,11.12,3.44A6.69,6.69,0,0,0,335.29,95.38Z"/>
              <g>
                <path class="cls-9" d="M347.44,109a12.25,12.25,0,0,1,10.39,3.27l-19.27,3A12.24,12.24,0,0,1,347.44,109Z"/>
                <circle class="cls-6" cx="349.35" cy="121.17" r="2.79" transform="translate(177.94 448.81) rotate(-81.51)"/>
              </g>
              <g>
                <path class="cls-9" d="M321.11,116.49c-1.82,1-2.53,3.52-2.17,6.66l8.92-4.78C325.45,116.32,322.93,115.51,321.11,116.49Z"/>
                <path class="cls-6" d="M327.79,127.07c.73,1.36.57,2.86-.35,3.36s-2.26-.21-3-1.57-.57-2.86.35-3.35S327.06,125.71,327.79,127.07Z"/>
              </g>
              <rect class="cls-4" x="373.81" y="124.45" width="13.15" height="3.28" transform="translate(769.78 31.39) rotate(147.99)"/>
              <rect class="cls-4" x="371.78" y="137" width="19.17" height="3.28" transform="translate(743 -45.42) rotate(133.05)"/>
              <g>
                <path class="cls-7" d="M385.32,118.47c2.16-2.92,6.35-4.69,9.53-2.94a7.26,7.26,0,0,1,3.43,5.62,14.85,14.85,0,0,1-1.07,6.69,15.5,15.5,0,0,1-4.26,6.77,7.7,7.7,0,0,1-7.53,1.65C378.77,133.73,382.37,122.47,385.32,118.47Z"/>
                <path class="cls-8" d="M395.38,122.72a2.93,2.93,0,0,0-1.45-3.8,4.15,4.15,0,0,0-4.27.67,7.35,7.35,0,0,0-2.3,3.84,11.94,11.94,0,0,0,0,6.36c.3,1.1.94,2.3,2.06,2.48a2.52,2.52,0,0,0,2.42-1.41,4.23,4.23,0,0,0-2.65-6.21,9.34,9.34,0,0,1,1.25-2.72,3.37,3.37,0,0,1,2.57-1.52A2.76,2.76,0,0,1,395.38,122.72Z"/>
              </g>
              <g>
                <path class="cls-4" d="M353.51,130.56c-4.38-.56-9-1.6-13.09.11-3.68,1.56-6.11,5-8.54,8.22-2,2.63-4.38,5.27-7.38,6.46-.33-.81-.65-1.62-.95-2.43,3.25-1.07,5.79-3.89,7.92-6.68,2.43-3.17,4.85-6.66,8.54-8.21,4.07-1.72,8.7-.68,13.08-.12,7.69,1,15.74-.24,23.18-2.43.11.89.23,1.78.35,2.67C369.2,130.32,361.18,131.53,353.51,130.56Z"/>
                <path class="cls-2" d="M362.6,167.76A27.72,27.72,0,0,1,337.43,164c-6.08-4.47-10-11.55-12.93-18.64,3-1.19,5.38-3.83,7.38-6.46,2.43-3.18,4.86-6.66,8.54-8.22,4.08-1.71,8.71-.67,13.09-.11,7.67,1,15.69-.24,23.11-2.41q1.35,10.13,2.71,20.26C380.5,157.16,370.93,164.84,362.6,167.76Z"/>
              </g>
              <g>
                <path class="cls-3" d="M331.76,147.31a16,16,0,0,1,3.94-6.26,18.26,18.26,0,0,1,7.48-4.3,32.69,32.69,0,0,1,9.41-1.29,64.8,64.8,0,0,1,9.42.7c-5.54.91-12.35,1.17-18.08,2.86a22.11,22.11,0,0,0-12.17,8.29Z"/>
                <path class="cls-3" d="M333,150.42c4-1.63,9.5-3.43,15.48-5.28,6.44-2,13.43-4,19.43-5.38a80.34,80.34,0,0,1-18.44,7.91A62.87,62.87,0,0,1,333,150.42Z"/>
                <path class="cls-3" d="M336.45,156.47a42.51,42.51,0,0,0,14.13-.63,47.52,47.52,0,0,0,14.69-6.29,21.53,21.53,0,0,1-5.82,5.31,24.72,24.72,0,0,1-16.31,3.56A22.11,22.11,0,0,1,336.45,156.47Z"/>
              </g>
              <g>
                <path class="cls-10" d="M376.41,87.61a52.39,52.39,0,0,0-6,1.77,53.06,53.06,0,0,0-5.79,2.27,12.29,12.29,0,0,0,11.74-4Z"/>
                <path class="cls-10" d="M374.35,93a38.4,38.4,0,0,0-4.24.42,37.39,37.39,0,0,0-4.19.73A8.35,8.35,0,0,0,374.35,93Z"/>
                <path class="cls-10" d="M379.42,95.7c-1.78.08-3.86.38-5.94.65s-4.16.54-5.9.93a11.15,11.15,0,0,0,11.84-1.58Z"/>
                <path class="cls-10" d="M381.74,102.25c-2,0-4.34.1-6.66,0s-4.61-.5-6.61-.77a10.13,10.13,0,0,0,13.27.82Z"/>
                <path class="cls-10" d="M378.83,106.49a38.59,38.59,0,0,0-4.11-.69,36.47,36.47,0,0,0-4.15-.39,8.12,8.12,0,0,0,8.26,1.08Z"/>
                <path class="cls-10" d="M383.16,112a42,42,0,0,0-6-1.87A41,41,0,0,0,371,109a13.24,13.24,0,0,0,12.16,3Z"/>
                <path class="cls-10" d="M370.74,80.68a12.49,12.49,0,0,0-8.36,8.08A36.4,36.4,0,0,0,366.82,85,36.18,36.18,0,0,0,370.74,80.68Z"/>
                <path class="cls-10" d="M367,76.24A12.47,12.47,0,0,0,360,86.79a55,55,0,0,0,3.69-5.14A52.85,52.85,0,0,0,367,76.24Z"/>
                <path class="cls-10" d="M359.65,72.93a10.37,10.37,0,0,0-3.77,13.36c.39-2.08.79-4.47,1.46-6.8S358.89,74.91,359.65,72.93Z"/>
                <path class="cls-10" d="M352.73,72.35a8.88,8.88,0,0,0-1.15,13.27,30.74,30.74,0,0,1-.26-6.71A30.58,30.58,0,0,1,352.73,72.35Z"/>
                <path class="cls-10" d="M344.69,77a7.47,7.47,0,0,0,1.62,8.68c-.22-1.31-.58-2.81-.86-4.33S345,78.25,344.69,77Z"/>
                <path class="cls-10" d="M336.25,75.24a8.51,8.51,0,0,0-2.8,3.24,10.59,10.59,0,0,0,.05,9.66,8.46,8.46,0,0,0,2.83,3.21,28.92,28.92,0,0,1-1.35-8A29.05,29.05,0,0,1,336.25,75.24Z"/>
                <path class="cls-10" d="M339.91,78.78a7.72,7.72,0,0,0-1.07,4.43,7.8,7.8,0,0,0,1.42,4.32c.08-1.3,0-2.84-.05-4.38S340.09,80.07,339.91,78.78Z"/>
                <path class="cls-10" d="M329.07,78.5A9.17,9.17,0,0,0,331.56,91a49.24,49.24,0,0,1-1.75-6.14A49.85,49.85,0,0,1,329.07,78.5Z"/>
                <path class="cls-10" d="M324.07,81.67A7.17,7.17,0,0,0,328.25,91a30.69,30.69,0,0,1-2.54-4.48A31.47,31.47,0,0,1,324.07,81.67Z"/>
                <path class="cls-10" d="M319.5,84.3a5.69,5.69,0,0,0,.55,3.79,5.75,5.75,0,0,0,2.73,2.69l-1.7-3.21Z"/>
              </g>
            </g>
          </g>
          <g>
            <g>
              <rect class="cls-4" x="246.38" y="219.64" width="13" height="37.83" transform="translate(199.98 -105.04) rotate(37.92)"/>
              <rect class="cls-4" x="252.78" y="220.84" width="25.37" height="3.12" transform="translate(192.71 -116.18) rotate(37.92)"/>
              <rect class="cls-11" x="268.24" y="208.09" width="5.75" height="14.76" transform="translate(189.65 -121.12) rotate(37.92)"/>
              <rect class="cls-4" x="267.67" y="207.41" width="17.5" height="2.5" transform="translate(186.58 -125.82) rotate(37.92)"/>
              <rect class="cls-12" x="271.97" y="209.37" width="5.75" height="2.62" transform="translate(187.49 -124.42) rotate(37.92)"/>
              <polygon class="cls-11" points="226.17 273.98 225.82 272.15 240.7 253.04 241.81 253.91 226.17 273.98"/>
              <rect class="cls-12" x="237.3" y="253.14" width="5.94" height="3.22" transform="translate(207.27 -93.87) rotate(37.92)"/>
              <polygon class="cls-13" points="238.93 249.13 246.03 254.66 256.52 241.2 243.89 242.77 238.93 249.13"/>
              <polygon class="cls-11" points="254.04 226.49 259.38 219.63 269.63 227.62 259.33 240.85 259.24 233.73 254.04 226.49"/>
            </g>
            <g>
              <g>
                <g>
                  <path class="cls-2" d="M298.27,242.09l-2.58-13.64a13.66,13.66,0,0,0-3.35-6.71l-5.83-6.42a3.86,3.86,0,0,0-5.92,5l5.15,6.7L284.54,237l-10.37-3.76-12.86-15.76a4.48,4.48,0,0,0-7.16,5.36l6.85,10-.44,10.64a15.82,15.82,0,0,0,12.63,16.15l14.19,2.92,14.44,13.95,13-25.45Z"/>
                  <polygon class="cls-7" points="333.31 261.18 314.78 251.08 302.91 274.39 323.06 291.53 333.31 261.18"/>
                </g>
                <path class="cls-3" d="M309.62,252.29a33.85,33.85,0,0,0-10.83,17.17c1.48-2.44,3.29-5.61,5.25-8.69S308.06,254.68,309.62,252.29Z"/>
                <path class="cls-3" d="M294.33,250.85a27.14,27.14,0,0,0-2.29,3q.18-.64.39-1.26a42.94,42.94,0,0,1,2.22-5.35,21,21,0,0,0-3.35,4.88,15.59,15.59,0,0,0-1.73,6.69l-.05,4.37,1.74-4.05a39.76,39.76,0,0,1,4.2-7.41,48,48,0,0,1,5-5.84A23,23,0,0,0,294.33,250.85Z"/>
                <path class="cls-3" d="M261,232.87l9.25,13.49-3.7-2.38a10.71,10.71,0,0,1-4.72-6.92Z"/>
                <polygon class="cls-8" points="333.31 261.18 328.38 258.49 313.28 283.21 323.06 291.53 333.31 261.18"/>
              </g>
              <g>
                <path class="cls-4" d="M438,228.78l-33.74-27-44.59,72-29.63-15-16.76,34.29L347.4,314a33,33,0,0,0,45.45-11Z"/>
                <g>
                  <path class="cls-5" d="M407.35,255.85a93.73,93.73,0,0,1,1-42.83,39.61,39.61,0,0,0-4.11,9.53,47,47,0,0,0-.57,23.58A39.66,39.66,0,0,0,407.35,255.85Z"/>
                  <path class="cls-5" d="M418.4,245.9c-1.68-2.35-3.73-5-5.57-7.76s-3.49-5.67-5-8.12A15.24,15.24,0,0,0,418.4,245.9Z"/>
                </g>
                <path class="cls-6" d="M364.59,319.13a32.94,32.94,0,0,1-17.32-4.92.24.24,0,0,1-.08-.34.24.24,0,0,1,.34-.08,32.75,32.75,0,0,0,45.11-10.9l45.15-74.24a.24.24,0,0,1,.34-.08.24.24,0,0,1,.08.34l-45.15,74.24a33,33,0,0,1-20.59,15A33.67,33.67,0,0,1,364.59,319.13Z"/>
                <path class="cls-6" d="M333.31,305.61a.22.22,0,0,1-.13,0l-20-12.29a.25.25,0,0,1-.1-.32l4.91-10a.25.25,0,0,1,.45.21L313.6,293l19.84,12.18a.24.24,0,0,1,.08.34A.22.22,0,0,1,333.31,305.61Z"/>
                <path class="cls-5" d="M359.67,273.78l16,22-1.92-9.63a17.35,17.35,0,0,0-13.32-13.56h0Z"/>
                <path class="cls-6" d="M344.51,266.36l-.11,0-14.24-7.22-3.18,6.5a.24.24,0,0,1-.33.11.24.24,0,0,1-.12-.33l3.29-6.72a.25.25,0,0,1,.14-.13.28.28,0,0,1,.2,0l14.47,7.33a.26.26,0,0,1,.11.34A.25.25,0,0,1,344.51,266.36Z"/>
                <path class="cls-6" d="M359.67,274l-.12,0-5.73-2.91a.25.25,0,0,1-.11-.33.25.25,0,0,1,.34-.11l5.53,2.8,44.47-71.85a.26.26,0,0,1,.35-.08.25.25,0,0,1,.08.34l-44.6,72.05A.26.26,0,0,1,359.67,274Z"/>
              </g>
            </g>
          </g>
          <g>
            <path class="cls-14" d="M196.78,242.18c-34.44-6.47-67.89-5-101.48,3.27A41.75,41.75,0,0,0,65.64,273l-17,52.09,44.66,12.66s-.33,41.38-6,67.67h128L207,378.16a164.84,164.84,0,0,1-7.18-44.41l-1.47-62,17-19.33-1.68-1.6A33.5,33.5,0,0,0,196.78,242.18Z"/>
            <g>
              <path class="cls-7" d="M129.49,210.61a149.22,149.22,0,0,1-3.12,36.93c4.86,3.81,11,6.58,17.14,6.79a29.62,29.62,0,0,0,17.51-5c-.31-10.5-.91-21-1.21-31.52C150,214.87,139.31,213.53,129.49,210.61Z"/>
              <path class="cls-6" d="M142.47,240.69a22.19,22.19,0,0,0,13.23,2.15,28.9,28.9,0,0,0,5.05-1.16c-.31-8-.71-15.93-.94-23.89-9.82-2.92-20.5-4.26-30.32-7.18q.18,4.5.09,9a42.43,42.43,0,0,0,1.37,5.9C132.89,231.73,136.71,237.63,142.47,240.69Z"/>
            </g>
            <g>
              <g>
                <path class="cls-6" d="M121.26,204.49a51.59,51.59,0,0,1-11.82-27.32c-.58-5.11-.36-10.46,1.76-15.15s6.38-8.63,11.47-9.34a17.56,17.56,0,0,1,6.15-12.58,29.6,29.6,0,0,1,12.82-6.22A45.27,45.27,0,0,1,188,150.27a65.87,65.87,0,0,0,5.57,7c2.13,2.11,4.95,3.75,7.94,3.68-1.49,3.69-4.49,6.82-8.41,7.55-2.38,12.33-7.63,25-17.57,32.68-7.34,5.69-16.74,8.34-26,8.56S130.06,207.47,121.26,204.49Z"/>
                <g>
                  <path class="cls-15" d="M185,157.87c-4.27-.85-8.44-3.18-13-5.73a56.78,56.78,0,0,0-7.51-3.56,25.22,25.22,0,0,0-8.79-1.6,24.75,24.75,0,0,0-16.25,6,22.67,22.67,0,0,0-7.46,12.74,29.23,29.23,0,0,1,9.34-10.29,25.86,25.86,0,0,1,14.36-4.32,25.45,25.45,0,0,1,7.59,1.15c2.5.73,5,1.75,7.42,2.7a55.9,55.9,0,0,0,7.36,2.41A20.87,20.87,0,0,0,185,157.87Z"/>
                  <path class="cls-15" d="M170.62,145.73a39.72,39.72,0,0,0-10.42-5.15,27.24,27.24,0,0,0-13.52-.85,21.14,21.14,0,0,0-6.59,2.53,17.24,17.24,0,0,0-5.11,4.59,15.75,15.75,0,0,0-2.7,5.74,12.54,12.54,0,0,0-.11,5.57,16.68,16.68,0,0,1,4.68-9.74,20,20,0,0,1,10.49-5.51,33.13,33.13,0,0,1,12.28,0A100.63,100.63,0,0,1,170.62,145.73Z"/>
                  <path class="cls-15" d="M144.12,137.1a12.07,12.07,0,0,0-7.08,0,13,13,0,0,0-9.44,12.53,12,12,0,0,0,1.94,6.8,16.41,16.41,0,0,1-.47-6.7,14,14,0,0,1,8.48-11.24A16.22,16.22,0,0,1,144.12,137.1Z"/>
                  <path class="cls-15" d="M125.18,185.94a29.18,29.18,0,0,1,4.93-20.06,10.65,10.65,0,0,0-4.63,3.05,13.19,13.19,0,0,0-3,12.16A10.6,10.6,0,0,0,125.18,185.94Z"/>
                  <path class="cls-15" d="M118,175a13.59,13.59,0,0,1,9-11.1,6.68,6.68,0,0,0-4.06,0,8.21,8.21,0,0,0-5.78,7.11A6.7,6.7,0,0,0,118,175Z"/>
                  <path class="cls-15" d="M115.32,163.13c1.6-.38,3.37-1.28,5.1-1.67a17.24,17.24,0,0,1,5.21-.35,6.12,6.12,0,0,0-5.61-1.32,7.43,7.43,0,0,0-2.83,1.39A9.71,9.71,0,0,0,115.32,163.13Z"/>
                </g>
              </g>
              <path class="cls-7" d="M167.84,159.17a31.19,31.19,0,0,0-20.76-.1A13.15,13.15,0,0,0,138,171.19q-.08,3.13-.16,6.27a7,7,0,0,1-3.83,6l-5.23,2.64c.36,3.81.71,7.74-.42,11.4a11.34,11.34,0,0,1-4.46,6.1A39.41,39.41,0,0,0,127.62,215c3.74,7.3,9.91,13.48,17.54,16.48s16.7,2.6,23.63-1.77a30.55,30.55,0,0,0,10.88-12.94,72.94,72.94,0,0,0,5.06-16.33c1.73-8,3.06-16.28,2.4-24.48a45.13,45.13,0,0,0-1.47-8.38,31.32,31.32,0,0,1-4.95-1.87C176.36,163.63,172.33,160.9,167.84,159.17Z"/>
              <g>
                <path class="cls-6" d="M153.5,174a12.24,12.24,0,0,0-9.75,4.85h19.5A12.24,12.24,0,0,0,153.5,174Z"/>
                <path class="cls-6" d="M156.29,186.28a2.79,2.79,0,1,1-2.79-2.79A2.79,2.79,0,0,1,156.29,186.28Z"/>
              </g>
              <g>
                <path class="cls-6" d="M183.72,179.84c1.95.68,3.05,3.08,3.18,6.24l-9.56-3.33C179.41,180.35,181.77,179.16,183.72,179.84Z"/>
                <path class="cls-6" d="M178.77,191.33c-.51,1.46-.12,2.92.87,3.26s2.19-.55,2.7-2,.12-2.91-.86-3.26S179.28,189.88,178.77,191.33Z"/>
              </g>
              <rect class="cls-4" x="119.69" y="195.09" width="13.15" height="3.28" transform="translate(87.17 -33.74) rotate(23.07)"/>
              <rect class="cls-4" x="117.66" y="207.64" width="19.17" height="3.28" transform="translate(155.86 -33.97) rotate(38.01)"/>
              <g>
                <path class="cls-7" d="M120.2,190c-2.58-2.55-7-3.65-9.87-1.42a7.28,7.28,0,0,0-2.52,6.08,15,15,0,0,0,2.1,6.44,15.52,15.52,0,0,0,5.26,6,7.73,7.73,0,0,0,7.7.46C129,204,123.74,193.46,120.2,190Z"/>
                <path class="cls-8" d="M110.92,195.74a2.94,2.94,0,0,1,.85-4,4.15,4.15,0,0,1,4.31,0,7.41,7.41,0,0,1,2.88,3.44,12,12,0,0,1,1,6.29c-.13,1.13-.58,2.41-1.66,2.77a2.52,2.52,0,0,1-2.6-1,4.23,4.23,0,0,1,1.65-6.54,9.34,9.34,0,0,0-1.66-2.49,3.39,3.39,0,0,0-2.78-1.11A2.78,2.78,0,0,0,110.92,195.74Z"/>
              </g>
              <g>
                <path class="cls-4" d="M153.5,197c4.25-1.23,8.66-3,12.95-1.92,3.88,1,6.82,4,9.71,6.79,2.39,2.28,5.16,4.52,8.3,5.23.2-.85.39-1.71.56-2.55-3.38-.55-6.33-2.94-8.86-5.36-2.89-2.77-5.83-5.83-9.71-6.79-4.29-1.07-8.7.69-12.95,1.92-7.44,2.16-15.58,2.2-23.26,1.2l.06,2.69C138,199.17,146.08,199.12,153.5,197Z"/>
                <path class="cls-2" d="M150.31,235.13a27.75,27.75,0,0,0,24.28-7.63c5.31-5.37,8.11-13,9.87-20.43-3.14-.71-5.91-2.95-8.3-5.23-2.89-2.77-5.83-5.83-9.71-6.79-4.29-1.07-8.7.69-12.95,1.92-7.42,2.15-15.54,2.2-23.2,1.21q.24,10.22.47,20.44C131,227.44,141.63,233.54,150.31,235.13Z"/>
              </g>
              <g>
                <path class="cls-3" d="M177.6,210.13a16.09,16.09,0,0,0-4.88-5.57,18.2,18.2,0,0,0-8.05-3.08,32.56,32.56,0,0,0-9.5.18,65.22,65.22,0,0,0-9.19,2.16c5.61,0,12.38-.76,18.3,0a22.15,22.15,0,0,1,13.32,6.29Z"/>
                <path class="cls-3" d="M176.89,213.4c-4.15-1-9.91-1.92-16.11-2.82-6.67-1-13.9-1.9-20-2.29a80.46,80.46,0,0,0,19.45,5A63.32,63.32,0,0,0,176.89,213.4Z"/>
                <path class="cls-3" d="M174.38,219.91a42.05,42.05,0,0,1-14,1.57,47.37,47.37,0,0,1-15.49-3.93,21.54,21.54,0,0,0,6.57,4.35,24.74,24.74,0,0,0,16.67,1A22.19,22.19,0,0,0,174.38,219.91Z"/>
              </g>
            </g>
            <path class="cls-16" d="M218.91,253.23a2.1,2.1,0,0,0-3.58-.78h0l-17,19.33L198.6,283l22.33-18.45a2.09,2.09,0,0,0,.67-2.21Z"/>
            <path class="cls-17" d="M101.06,380.44c.53-9.94.92-23.09.44-36.82l10.25-56L93.33,337.78s-.33,41.38-6,67.67h89.34l-58.9-5.62A18.48,18.48,0,0,1,101.06,380.44Z"/>
            <path class="cls-7" d="M89.88,336.8l-4.55,21.32,7.34,47.33H60.5l-8.77-42.31a40.51,40.51,0,0,1,.06-16.7l4.15-19.26Z"/>
            <polygon class="cls-6" points="55.94 327.18 89.88 336.8 87.8 346.53 55.34 329.95 55.94 327.18"/>
            <path class="cls-16" d="M169.1,290.67l27.25-3.25.65,27.32-10.75,8-14.75-5.87Z"/>
            <g>
              <path class="cls-17" d="M188.64,346.63c-5.44-1.21-11.58-2.65-18-4.55a169,169,0,0,1-38-16.42c-5.76-3.34-11-6.83-15.62-10A73.62,73.62,0,0,0,130.49,329a87.58,87.58,0,0,0,39.31,17A74,74,0,0,0,188.64,346.63Z"/>
              <path class="cls-17" d="M172.83,327.21c-5.35-.89-12.23-1.83-19.06-3.09s-13.6-2.8-18.93-3.86a64.19,64.19,0,0,0,38,6.95Z"/>
              <path class="cls-17" d="M161.29,255.18a58.08,58.08,0,0,1-8.71,2.23,48.92,48.92,0,0,1-19.87-.68,57,57,0,0,1-8.54-2.82,27.51,27.51,0,0,0,8,4.67,32.36,32.36,0,0,0,20.9.71A27.26,27.26,0,0,0,161.29,255.18Z"/>
              <path class="cls-17" d="M93.61,325.13C83.69,320.21,66.76,315,55.8,313.41,65.72,318.32,82.65,323.57,93.61,325.13Z"/>
              <path class="cls-17" d="M192.19,370.24c-5,1.63-10.62,3.5-16.67,5.24s-12.5,3.39-19,4.74-13.09,2.37-19.34,3.14-12.17,1.28-17.39,1.74a80.63,80.63,0,0,0,17.6,2A97.56,97.56,0,0,0,176.79,379,80,80,0,0,0,192.19,370.24Z"/>
              <path class="cls-17" d="M129.36,372.88a52.35,52.35,0,0,0,39.53.55,193.88,193.88,0,0,1-19.78.94A192.77,192.77,0,0,1,129.36,372.88Z"/>
            </g>
            <g>
              <path class="cls-6" d="M111.84,287.38a.24.24,0,0,0-.32.15L93.1,337.7a.25.25,0,0,0,.15.32h.08a.25.25,0,0,0,.24-.16L112,287.7A.24.24,0,0,0,111.84,287.38Z"/>
              <path class="cls-6" d="M192.05,318.12l-5.84,4.34-14.48-5.77-1.73-19a.26.26,0,0,0-.27-.23.25.25,0,0,0-.23.27l1.75,19.14a.26.26,0,0,0,.16.21L186.16,323a.15.15,0,0,0,.09,0,.27.27,0,0,0,.15-.05l5.94-4.42a.25.25,0,1,0-.29-.4Z"/>
              <path class="cls-6" d="M216.19,263.83a.24.24,0,0,0-.35,0l-17.09,14.88-.07-3s.07,0,.1,0l9.82-10.36a.25.25,0,0,0,0-.35.25.25,0,0,0-.36,0l-9.57,10.1-.08-3.28a.25.25,0,1,0-.5,0l1.15,48.47a.25.25,0,0,0,.25.25h0a.26.26,0,0,0,.25-.26l-1-40.93,17.4-15.14A.24.24,0,0,0,216.19,263.83Z"/>
            </g>
          </g>
        </g>
        <g>
          <rect class="cls-18" x="24" y="405.45" width="452" height="16.67"/>
          <rect class="cls-19" x="24" y="416.78" width="452" height="5.33"/>
        </g>
      </g>
    </g>
  </g>
</svg>
